<svg width="527" height="621" viewBox="0 0 527 621" fill="none" xmlns="http://www.w3.org/2000/svg">
<rect width="527" height="620.2" fill="#F5F5F5"/>
<rect x="108" y="78" width="200" height="500" fill="#73A343"/>
<path d="M133.216 551H131.985V543.159C131.689 543.442 131.299 543.724 130.816 544.007C130.338 544.289 129.907 544.501 129.524 544.643V543.453C130.213 543.13 130.814 542.738 131.329 542.277C131.844 541.817 132.209 541.37 132.423 540.938H133.216V551ZM136.873 551V540.979H140.653C141.319 540.979 141.827 541.01 142.178 541.074C142.67 541.156 143.082 541.313 143.415 541.546C143.748 541.774 144.014 542.095 144.215 542.51C144.42 542.924 144.522 543.38 144.522 543.877C144.522 544.729 144.251 545.451 143.709 546.044C143.167 546.632 142.187 546.926 140.77 546.926H138.199V551H136.873ZM138.199 545.743H140.79C141.647 545.743 142.255 545.584 142.615 545.265C142.975 544.946 143.155 544.497 143.155 543.918C143.155 543.499 143.048 543.141 142.834 542.845C142.624 542.544 142.346 542.346 142 542.25C141.777 542.191 141.364 542.161 140.763 542.161H138.199V545.743Z" fill="#FC0000"/>
<path d="M156.431 548.833L157.647 548.642C157.716 549.129 157.905 549.503 158.215 549.763C158.529 550.022 158.967 550.152 159.527 550.152C160.092 550.152 160.512 550.038 160.785 549.811C161.059 549.578 161.195 549.307 161.195 548.997C161.195 548.719 161.075 548.5 160.833 548.341C160.664 548.231 160.245 548.092 159.575 547.924C158.673 547.696 158.046 547.5 157.695 547.336C157.349 547.167 157.085 546.937 156.902 546.646C156.725 546.349 156.636 546.023 156.636 545.668C156.636 545.344 156.709 545.046 156.854 544.772C157.005 544.494 157.208 544.264 157.463 544.082C157.654 543.941 157.914 543.822 158.242 543.727C158.575 543.626 158.93 543.576 159.309 543.576C159.878 543.576 160.377 543.658 160.806 543.822C161.239 543.986 161.558 544.21 161.763 544.492C161.968 544.77 162.109 545.144 162.187 545.613L160.983 545.777C160.929 545.404 160.769 545.112 160.505 544.902C160.245 544.693 159.876 544.588 159.397 544.588C158.832 544.588 158.429 544.681 158.188 544.868C157.946 545.055 157.825 545.274 157.825 545.524C157.825 545.684 157.875 545.827 157.976 545.955C158.076 546.087 158.233 546.197 158.447 546.283C158.57 546.329 158.933 546.434 159.534 546.598C160.405 546.83 161.011 547.021 161.353 547.172C161.699 547.318 161.97 547.532 162.166 547.814C162.362 548.097 162.46 548.448 162.46 548.867C162.46 549.277 162.339 549.665 162.098 550.029C161.861 550.389 161.517 550.67 161.065 550.87C160.614 551.066 160.104 551.164 159.534 551.164C158.591 551.164 157.871 550.968 157.374 550.576C156.882 550.184 156.567 549.603 156.431 548.833ZM163.923 553.782V543.74H165.044V544.684C165.308 544.314 165.607 544.039 165.939 543.856C166.272 543.67 166.675 543.576 167.149 543.576C167.769 543.576 168.316 543.736 168.79 544.055C169.264 544.374 169.622 544.825 169.863 545.408C170.105 545.987 170.226 546.623 170.226 547.315C170.226 548.058 170.091 548.728 169.822 549.325C169.558 549.918 169.171 550.373 168.66 550.692C168.154 551.007 167.621 551.164 167.061 551.164C166.65 551.164 166.281 551.077 165.953 550.904C165.63 550.731 165.363 550.512 165.153 550.248V553.782H163.923ZM165.037 547.411C165.037 548.345 165.226 549.036 165.604 549.482C165.983 549.929 166.441 550.152 166.979 550.152C167.525 550.152 167.993 549.922 168.38 549.462C168.772 548.997 168.968 548.279 168.968 547.309C168.968 546.383 168.776 545.691 168.394 545.23C168.015 544.77 167.562 544.54 167.033 544.54C166.509 544.54 166.044 544.786 165.639 545.278C165.238 545.766 165.037 546.477 165.037 547.411ZM176.686 548.662L177.957 548.819C177.757 549.562 177.385 550.139 176.843 550.549C176.3 550.959 175.608 551.164 174.765 551.164C173.703 551.164 172.86 550.838 172.235 550.187C171.616 549.53 171.306 548.612 171.306 547.432C171.306 546.21 171.62 545.262 172.249 544.588C172.878 543.913 173.694 543.576 174.696 543.576C175.667 543.576 176.46 543.907 177.075 544.567C177.69 545.228 177.998 546.158 177.998 547.356C177.998 547.429 177.996 547.539 177.991 547.685H172.577C172.623 548.482 172.848 549.093 173.254 549.517C173.66 549.94 174.165 550.152 174.771 550.152C175.223 550.152 175.608 550.034 175.927 549.797C176.246 549.56 176.499 549.182 176.686 548.662ZM172.646 546.673H176.699C176.645 546.062 176.49 545.604 176.234 545.299C175.842 544.825 175.334 544.588 174.71 544.588C174.145 544.588 173.669 544.777 173.281 545.155C172.898 545.534 172.687 546.039 172.646 546.673ZM184.479 548.662L185.75 548.819C185.549 549.562 185.178 550.139 184.636 550.549C184.093 550.959 183.401 551.164 182.558 551.164C181.496 551.164 180.653 550.838 180.028 550.187C179.409 549.53 179.099 548.612 179.099 547.432C179.099 546.21 179.413 545.262 180.042 544.588C180.671 543.913 181.487 543.576 182.489 543.576C183.46 543.576 184.253 543.907 184.868 544.567C185.483 545.228 185.791 546.158 185.791 547.356C185.791 547.429 185.789 547.539 185.784 547.685H180.37C180.416 548.482 180.641 549.093 181.047 549.517C181.452 549.94 181.958 550.152 182.564 550.152C183.016 550.152 183.401 550.034 183.72 549.797C184.039 549.56 184.292 549.182 184.479 548.662ZM180.438 546.673H184.492C184.438 546.062 184.283 545.604 184.027 545.299C183.635 544.825 183.127 544.588 182.503 544.588C181.938 544.588 181.462 544.777 181.074 545.155C180.691 545.534 180.479 546.039 180.438 546.673ZM192.012 551V550.084C191.551 550.804 190.875 551.164 189.981 551.164C189.403 551.164 188.869 551.005 188.382 550.686C187.899 550.367 187.523 549.922 187.254 549.353C186.99 548.778 186.857 548.12 186.857 547.377C186.857 546.652 186.978 545.996 187.22 545.408C187.461 544.816 187.824 544.362 188.307 544.048C188.79 543.733 189.33 543.576 189.927 543.576C190.364 543.576 190.754 543.67 191.096 543.856C191.438 544.039 191.715 544.278 191.93 544.574V540.979H193.153V551H192.012ZM188.122 547.377C188.122 548.307 188.318 549.002 188.71 549.462C189.102 549.922 189.564 550.152 190.098 550.152C190.635 550.152 191.091 549.934 191.465 549.496C191.843 549.054 192.032 548.382 192.032 547.479C192.032 546.486 191.841 545.757 191.458 545.292C191.075 544.827 190.604 544.595 190.043 544.595C189.496 544.595 189.038 544.818 188.669 545.265C188.304 545.711 188.122 546.415 188.122 547.377ZM195.437 545.142V543.74H196.838V545.142H195.437ZM195.437 551V549.599H196.838V551H195.437ZM201.343 553.946C200.664 553.09 200.09 552.087 199.62 550.938C199.151 549.79 198.916 548.601 198.916 547.37C198.916 546.285 199.091 545.246 199.442 544.253C199.853 543.1 200.486 541.951 201.343 540.808H202.225C201.673 541.756 201.309 542.432 201.131 542.838C200.853 543.467 200.634 544.123 200.475 544.807C200.279 545.659 200.181 546.516 200.181 547.377C200.181 549.569 200.862 551.759 202.225 553.946H201.343ZM206.237 549.38V546.632H203.51V545.483H206.237V542.756H207.399V545.483H210.127V546.632H207.399V549.38H206.237ZM216.122 551H214.892V543.159C214.595 543.442 214.206 543.724 213.723 544.007C213.244 544.289 212.813 544.501 212.431 544.643V543.453C213.119 543.13 213.72 542.738 214.235 542.277C214.75 541.817 215.115 541.37 215.329 540.938H216.122V551ZM219.28 546.058C219.28 544.873 219.401 543.92 219.643 543.2C219.889 542.476 220.251 541.917 220.729 541.525C221.213 541.133 221.819 540.938 222.548 540.938C223.086 540.938 223.557 541.047 223.963 541.266C224.368 541.48 224.703 541.792 224.968 542.202C225.232 542.608 225.439 543.104 225.59 543.692C225.74 544.276 225.815 545.064 225.815 546.058C225.815 547.233 225.695 548.184 225.453 548.908C225.212 549.628 224.849 550.187 224.366 550.583C223.888 550.975 223.282 551.171 222.548 551.171C221.582 551.171 220.823 550.825 220.271 550.132C219.611 549.298 219.28 547.94 219.28 546.058ZM220.545 546.058C220.545 547.703 220.736 548.799 221.119 549.346C221.507 549.888 221.983 550.159 222.548 550.159C223.113 550.159 223.587 549.886 223.97 549.339C224.357 548.792 224.551 547.698 224.551 546.058C224.551 544.408 224.357 543.312 223.97 542.77C223.587 542.227 223.108 541.956 222.534 541.956C221.969 541.956 221.518 542.195 221.181 542.674C220.757 543.285 220.545 544.412 220.545 546.058ZM227.736 551V549.599H229.138V551C229.138 551.515 229.047 551.93 228.864 552.244C228.682 552.563 228.393 552.809 227.996 552.982L227.654 552.456C227.914 552.342 228.105 552.174 228.229 551.95C228.352 551.731 228.42 551.415 228.434 551H227.736ZM233.896 549.38V546.632H231.168V545.483H233.896V542.756H235.058V545.483H237.785V546.632H235.058V549.38H233.896ZM243.78 551H242.55V543.159C242.254 543.442 241.864 543.724 241.381 544.007C240.902 544.289 240.472 544.501 240.089 544.643V543.453C240.777 543.13 241.379 542.738 241.894 542.277C242.409 541.817 242.773 541.37 242.987 540.938H243.78V551ZM246.938 546.058C246.938 544.873 247.059 543.92 247.301 543.2C247.547 542.476 247.909 541.917 248.388 541.525C248.871 541.133 249.477 540.938 250.206 540.938C250.744 540.938 251.215 541.047 251.621 541.266C252.027 541.48 252.362 541.792 252.626 542.202C252.89 542.608 253.098 543.104 253.248 543.692C253.398 544.276 253.474 545.064 253.474 546.058C253.474 547.233 253.353 548.184 253.111 548.908C252.87 549.628 252.507 550.187 252.024 550.583C251.546 550.975 250.94 551.171 250.206 551.171C249.24 551.171 248.481 550.825 247.93 550.132C247.269 549.298 246.938 547.94 246.938 546.058ZM248.203 546.058C248.203 547.703 248.395 548.799 248.777 549.346C249.165 549.888 249.641 550.159 250.206 550.159C250.771 550.159 251.245 549.886 251.628 549.339C252.015 548.792 252.209 547.698 252.209 546.058C252.209 544.408 252.015 543.312 251.628 542.77C251.245 542.227 250.767 541.956 250.192 541.956C249.627 541.956 249.176 542.195 248.839 542.674C248.415 543.285 248.203 544.412 248.203 546.058ZM255.88 553.946H254.998C256.361 551.759 257.042 549.569 257.042 547.377C257.042 546.52 256.944 545.67 256.748 544.827C256.593 544.144 256.377 543.487 256.099 542.858C255.921 542.448 255.554 541.765 254.998 540.808H255.88C256.737 541.951 257.37 543.1 257.78 544.253C258.131 545.246 258.307 546.285 258.307 547.37C258.307 548.601 258.07 549.79 257.596 550.938C257.126 552.087 256.554 553.09 255.88 553.946Z" fill="white"/>
<path d="M135.048 109.817V111H128.424C128.415 110.704 128.463 110.419 128.567 110.146C128.736 109.694 129.005 109.25 129.374 108.812C129.748 108.375 130.285 107.869 130.987 107.295C132.076 106.402 132.812 105.695 133.195 105.176C133.578 104.652 133.77 104.157 133.77 103.692C133.77 103.205 133.594 102.795 133.243 102.462C132.897 102.125 132.443 101.956 131.883 101.956C131.29 101.956 130.816 102.134 130.461 102.489C130.105 102.845 129.925 103.337 129.921 103.966L128.656 103.836C128.743 102.893 129.069 102.175 129.634 101.683C130.199 101.186 130.958 100.938 131.91 100.938C132.872 100.938 133.633 101.204 134.193 101.737C134.754 102.271 135.034 102.931 135.034 103.72C135.034 104.121 134.952 104.515 134.788 104.902C134.624 105.29 134.351 105.698 133.968 106.126C133.59 106.554 132.958 107.142 132.074 107.89C131.336 108.509 130.862 108.931 130.652 109.154C130.443 109.373 130.27 109.594 130.133 109.817H135.048ZM136.873 111V100.979H140.653C141.319 100.979 141.827 101.01 142.178 101.074C142.67 101.156 143.082 101.313 143.415 101.546C143.748 101.774 144.014 102.095 144.215 102.51C144.42 102.924 144.522 103.38 144.522 103.877C144.522 104.729 144.251 105.451 143.709 106.044C143.167 106.632 142.187 106.926 140.77 106.926H138.199V111H136.873ZM138.199 105.743H140.79C141.647 105.743 142.255 105.584 142.615 105.265C142.975 104.946 143.155 104.497 143.155 103.918C143.155 103.499 143.048 103.141 142.834 102.845C142.624 102.544 142.346 102.346 142 102.25C141.777 102.191 141.364 102.161 140.763 102.161H138.199V105.743Z" fill="#0055FB"/>
<path d="M156.431 108.833L157.647 108.642C157.716 109.129 157.905 109.503 158.215 109.763C158.529 110.022 158.967 110.152 159.527 110.152C160.092 110.152 160.512 110.038 160.785 109.811C161.059 109.578 161.195 109.307 161.195 108.997C161.195 108.719 161.075 108.5 160.833 108.341C160.664 108.231 160.245 108.092 159.575 107.924C158.673 107.696 158.046 107.5 157.695 107.336C157.349 107.167 157.085 106.937 156.902 106.646C156.725 106.349 156.636 106.023 156.636 105.668C156.636 105.344 156.709 105.046 156.854 104.772C157.005 104.494 157.208 104.264 157.463 104.082C157.654 103.941 157.914 103.822 158.242 103.727C158.575 103.626 158.93 103.576 159.309 103.576C159.878 103.576 160.377 103.658 160.806 103.822C161.239 103.986 161.558 104.21 161.763 104.492C161.968 104.77 162.109 105.144 162.187 105.613L160.983 105.777C160.929 105.404 160.769 105.112 160.505 104.902C160.245 104.693 159.876 104.588 159.397 104.588C158.832 104.588 158.429 104.681 158.188 104.868C157.946 105.055 157.825 105.274 157.825 105.524C157.825 105.684 157.875 105.827 157.976 105.955C158.076 106.087 158.233 106.197 158.447 106.283C158.57 106.329 158.933 106.434 159.534 106.598C160.405 106.83 161.011 107.021 161.353 107.172C161.699 107.318 161.97 107.532 162.166 107.814C162.362 108.097 162.46 108.448 162.46 108.867C162.46 109.277 162.339 109.665 162.098 110.029C161.861 110.389 161.517 110.67 161.065 110.87C160.614 111.066 160.104 111.164 159.534 111.164C158.591 111.164 157.871 110.968 157.374 110.576C156.882 110.184 156.567 109.603 156.431 108.833ZM163.923 113.782V103.74H165.044V104.684C165.308 104.314 165.607 104.039 165.939 103.856C166.272 103.67 166.675 103.576 167.149 103.576C167.769 103.576 168.316 103.736 168.79 104.055C169.264 104.374 169.622 104.825 169.863 105.408C170.105 105.987 170.226 106.623 170.226 107.315C170.226 108.058 170.091 108.728 169.822 109.325C169.558 109.918 169.171 110.373 168.66 110.692C168.154 111.007 167.621 111.164 167.061 111.164C166.65 111.164 166.281 111.077 165.953 110.904C165.63 110.731 165.363 110.512 165.153 110.248V113.782H163.923ZM165.037 107.411C165.037 108.345 165.226 109.036 165.604 109.482C165.983 109.929 166.441 110.152 166.979 110.152C167.525 110.152 167.993 109.922 168.38 109.462C168.772 108.997 168.968 108.279 168.968 107.309C168.968 106.383 168.776 105.691 168.394 105.23C168.015 104.77 167.562 104.54 167.033 104.54C166.509 104.54 166.044 104.786 165.639 105.278C165.238 105.766 165.037 106.477 165.037 107.411ZM176.686 108.662L177.957 108.819C177.757 109.562 177.385 110.139 176.843 110.549C176.3 110.959 175.608 111.164 174.765 111.164C173.703 111.164 172.86 110.838 172.235 110.187C171.616 109.53 171.306 108.612 171.306 107.432C171.306 106.21 171.62 105.262 172.249 104.588C172.878 103.913 173.694 103.576 174.696 103.576C175.667 103.576 176.46 103.907 177.075 104.567C177.69 105.228 177.998 106.158 177.998 107.356C177.998 107.429 177.996 107.539 177.991 107.685H172.577C172.623 108.482 172.848 109.093 173.254 109.517C173.66 109.94 174.165 110.152 174.771 110.152C175.223 110.152 175.608 110.034 175.927 109.797C176.246 109.56 176.499 109.182 176.686 108.662ZM172.646 106.673H176.699C176.645 106.062 176.49 105.604 176.234 105.299C175.842 104.825 175.334 104.588 174.71 104.588C174.145 104.588 173.669 104.777 173.281 105.155C172.898 105.534 172.687 106.039 172.646 106.673ZM184.479 108.662L185.75 108.819C185.549 109.562 185.178 110.139 184.636 110.549C184.093 110.959 183.401 111.164 182.558 111.164C181.496 111.164 180.653 110.838 180.028 110.187C179.409 109.53 179.099 108.612 179.099 107.432C179.099 106.21 179.413 105.262 180.042 104.588C180.671 103.913 181.487 103.576 182.489 103.576C183.46 103.576 184.253 103.907 184.868 104.567C185.483 105.228 185.791 106.158 185.791 107.356C185.791 107.429 185.789 107.539 185.784 107.685H180.37C180.416 108.482 180.641 109.093 181.047 109.517C181.452 109.94 181.958 110.152 182.564 110.152C183.016 110.152 183.401 110.034 183.72 109.797C184.039 109.56 184.292 109.182 184.479 108.662ZM180.438 106.673H184.492C184.438 106.062 184.283 105.604 184.027 105.299C183.635 104.825 183.127 104.588 182.503 104.588C181.938 104.588 181.462 104.777 181.074 105.155C180.691 105.534 180.479 106.039 180.438 106.673ZM192.012 111V110.084C191.551 110.804 190.875 111.164 189.981 111.164C189.403 111.164 188.869 111.005 188.382 110.686C187.899 110.367 187.523 109.922 187.254 109.353C186.99 108.778 186.857 108.12 186.857 107.377C186.857 106.652 186.978 105.996 187.22 105.408C187.461 104.816 187.824 104.362 188.307 104.048C188.79 103.733 189.33 103.576 189.927 103.576C190.364 103.576 190.754 103.67 191.096 103.856C191.438 104.039 191.715 104.278 191.93 104.574V100.979H193.153V111H192.012ZM188.122 107.377C188.122 108.307 188.318 109.002 188.71 109.462C189.102 109.922 189.564 110.152 190.098 110.152C190.635 110.152 191.091 109.934 191.465 109.496C191.843 109.054 192.032 108.382 192.032 107.479C192.032 106.486 191.841 105.757 191.458 105.292C191.075 104.827 190.604 104.595 190.043 104.595C189.496 104.595 189.038 104.818 188.669 105.265C188.304 105.711 188.122 106.415 188.122 107.377ZM195.437 105.142V103.74H196.838V105.142H195.437ZM195.437 111V109.599H196.838V111H195.437ZM201.343 113.946C200.664 113.09 200.09 112.087 199.62 110.938C199.151 109.79 198.916 108.601 198.916 107.37C198.916 106.285 199.091 105.246 199.442 104.253C199.853 103.1 200.486 101.951 201.343 100.808H202.225C201.673 101.756 201.309 102.432 201.131 102.838C200.853 103.467 200.634 104.123 200.475 104.807C200.279 105.659 200.181 106.516 200.181 107.377C200.181 109.569 200.862 111.759 202.225 113.946H201.343ZM206.237 109.38V106.632H203.51V105.483H206.237V102.756H207.399V105.483H210.127V106.632H207.399V109.38H206.237ZM216.122 111H214.892V103.159C214.595 103.442 214.206 103.724 213.723 104.007C213.244 104.289 212.813 104.501 212.431 104.643V103.453C213.119 103.13 213.72 102.738 214.235 102.277C214.75 101.817 215.115 101.37 215.329 100.938H216.122V111ZM219.28 106.058C219.28 104.873 219.401 103.92 219.643 103.2C219.889 102.476 220.251 101.917 220.729 101.525C221.213 101.133 221.819 100.938 222.548 100.938C223.086 100.938 223.557 101.047 223.963 101.266C224.368 101.48 224.703 101.792 224.968 102.202C225.232 102.608 225.439 103.104 225.59 103.692C225.74 104.276 225.815 105.064 225.815 106.058C225.815 107.233 225.695 108.184 225.453 108.908C225.212 109.628 224.849 110.187 224.366 110.583C223.888 110.975 223.282 111.171 222.548 111.171C221.582 111.171 220.823 110.825 220.271 110.132C219.611 109.298 219.28 107.94 219.28 106.058ZM220.545 106.058C220.545 107.703 220.736 108.799 221.119 109.346C221.507 109.888 221.983 110.159 222.548 110.159C223.113 110.159 223.587 109.886 223.97 109.339C224.357 108.792 224.551 107.698 224.551 106.058C224.551 104.408 224.357 103.312 223.97 102.77C223.587 102.227 223.108 101.956 222.534 101.956C221.969 101.956 221.518 102.195 221.181 102.674C220.757 103.285 220.545 104.412 220.545 106.058ZM227.736 111V109.599H229.138V111C229.138 111.515 229.047 111.93 228.864 112.244C228.682 112.563 228.393 112.809 227.996 112.982L227.654 112.456C227.914 112.342 228.105 112.174 228.229 111.95C228.352 111.731 228.42 111.415 228.434 111H227.736ZM233.896 109.38V106.632H231.168V105.483H233.896V102.756H235.058V105.483H237.785V106.632H235.058V109.38H233.896ZM243.78 111H242.55V103.159C242.254 103.442 241.864 103.724 241.381 104.007C240.902 104.289 240.472 104.501 240.089 104.643V103.453C240.777 103.13 241.379 102.738 241.894 102.277C242.409 101.817 242.773 101.37 242.987 100.938H243.78V111ZM246.938 106.058C246.938 104.873 247.059 103.92 247.301 103.2C247.547 102.476 247.909 101.917 248.388 101.525C248.871 101.133 249.477 100.938 250.206 100.938C250.744 100.938 251.215 101.047 251.621 101.266C252.027 101.48 252.362 101.792 252.626 102.202C252.89 102.608 253.098 103.104 253.248 103.692C253.398 104.276 253.474 105.064 253.474 106.058C253.474 107.233 253.353 108.184 253.111 108.908C252.87 109.628 252.507 110.187 252.024 110.583C251.546 110.975 250.94 111.171 250.206 111.171C249.24 111.171 248.481 110.825 247.93 110.132C247.269 109.298 246.938 107.94 246.938 106.058ZM248.203 106.058C248.203 107.703 248.395 108.799 248.777 109.346C249.165 109.888 249.641 110.159 250.206 110.159C250.771 110.159 251.245 109.886 251.628 109.339C252.015 108.792 252.209 107.698 252.209 106.058C252.209 104.408 252.015 103.312 251.628 102.77C251.245 102.227 250.767 101.956 250.192 101.956C249.627 101.956 249.176 102.195 248.839 102.674C248.415 103.285 248.203 104.412 248.203 106.058ZM255.88 113.946H254.998C256.361 111.759 257.042 109.569 257.042 107.377C257.042 106.52 256.944 105.67 256.748 104.827C256.593 104.144 256.377 103.487 256.099 102.858C255.921 102.448 255.554 101.765 254.998 100.808H255.88C256.737 101.951 257.37 103.1 257.78 104.253C258.131 105.246 258.307 106.285 258.307 107.37C258.307 108.601 258.07 109.79 257.596 110.938C257.126 112.087 256.554 113.09 255.88 113.946Z" fill="white"/>
<path fill-rule="evenodd" clip-rule="evenodd" d="M227 498H189V499H188V507H189V508H227V507H228V499H227V498ZM227 499V507H189V499H227Z" fill="#212121"/>
<rect x="189" y="499" width="38" height="5" fill="#FF4A4A"/>
<rect x="189" y="504" width="38" height="3" fill="#D82B2B"/>
<path fill-rule="evenodd" clip-rule="evenodd" d="M227 148H189V149H188V157H189V158H227V157H228V149H227V148ZM227 149V157H189V149H227Z" fill="#212121"/>
<rect x="189" y="149" width="38" height="5" fill="#2DB9D7"/>
<rect x="189" y="154" width="38" height="3" fill="#0088A5"/>
<path d="M204 491L206 489H210L212 491V495H204V491Z" fill="#43E27E"/>
<path d="M204 493H205V494H206V495H210V494H211V493H212V495L210 497H206L204 495V493Z" fill="#0D9841"/>
<path fill-rule="evenodd" clip-rule="evenodd" d="M210 488H206V489H205V490H204V491H203V495H204V496H205V497H206V498H210V497H211V496H212V495H213V491H212V490H211V489H210V488ZM210 489V490H211V491H212V495H211V496H210V497H206V496H205V495H204V491H205V490H206V489H210Z" fill="black"/>
<path fill-rule="evenodd" clip-rule="evenodd" d="M194 316H166V317H165V335H166V336H194V335H195V317H194V316ZM194 317V335H166V317H194Z" fill="#212121"/>
<rect x="166" y="317" width="28" height="16" fill="#E09E42"/>
<path d="M166 317H167V318H168V333H192V318H193V317H194V335H166L166 317Z" fill="#C17306"/>
<rect x="62" y="318" width="28" height="20" rx="3.5" fill="#FF55B1"/>
<path d="M68.7889 332.109C68.2993 332.109 67.8592 332.016 67.4686 331.828C67.0806 331.638 66.7707 331.378 66.5389 331.047C66.3072 330.716 66.1835 330.339 66.1678 329.914H67.3397C67.3684 330.258 67.5207 330.54 67.7967 330.762C68.0728 330.983 68.4035 331.094 68.7889 331.094C69.0962 331.094 69.3684 331.023 69.6053 330.883C69.8449 330.74 70.0324 330.543 70.1678 330.293C70.3059 330.043 70.3749 329.758 70.3749 329.437C70.3749 329.112 70.3046 328.822 70.1639 328.566C70.0233 328.311 69.8293 328.111 69.5819 327.965C69.3371 327.819 69.0559 327.745 68.7381 327.742C68.496 327.742 68.2525 327.784 68.0077 327.867C67.7629 327.951 67.565 328.06 67.4139 328.195L66.3085 328.031L66.7577 324H71.1561V325.035H67.7616L67.5077 327.273H67.5546C67.7108 327.122 67.9178 326.996 68.1756 326.895C68.4361 326.793 68.7147 326.742 69.0116 326.742C69.4986 326.742 69.9322 326.858 70.3124 327.09C70.6952 327.322 70.996 327.638 71.2147 328.039C71.4361 328.437 71.5454 328.896 71.5428 329.414C71.5454 329.932 71.4282 330.395 71.1913 330.801C70.9569 331.207 70.6314 331.527 70.2147 331.762C69.8006 331.993 69.3254 332.109 68.7889 332.109ZM75.8647 332.133C75.2476 332.13 74.7202 331.967 74.2827 331.645C73.8452 331.322 73.5106 330.852 73.2788 330.234C73.047 329.617 72.9312 328.874 72.9312 328.004C72.9312 327.137 73.047 326.396 73.2788 325.781C73.5132 325.167 73.8491 324.698 74.2866 324.375C74.7267 324.052 75.2528 323.891 75.8647 323.891C76.4767 323.891 77.0015 324.053 77.439 324.379C77.8765 324.702 78.2111 325.171 78.4429 325.785C78.6772 326.397 78.7944 327.137 78.7944 328.004C78.7944 328.876 78.6785 329.621 78.4468 330.238C78.215 330.853 77.8804 331.323 77.4429 331.648C77.0054 331.971 76.4793 332.133 75.8647 332.133ZM75.8647 331.09C76.4064 331.09 76.8296 330.826 77.1343 330.297C77.4416 329.768 77.5952 329.004 77.5952 328.004C77.5952 327.34 77.5249 326.779 77.3843 326.32C77.2463 325.859 77.047 325.51 76.7866 325.273C76.5288 325.034 76.2215 324.914 75.8647 324.914C75.3257 324.914 74.9025 325.18 74.5952 325.711C74.2879 326.242 74.133 327.007 74.1304 328.004C74.1304 328.671 74.1994 329.234 74.3374 329.695C74.478 330.154 74.6772 330.501 74.9351 330.738C75.1929 330.973 75.5028 331.09 75.8647 331.09ZM83.0753 332.133C82.4581 332.13 81.9308 331.967 81.4933 331.645C81.0558 331.322 80.7212 330.852 80.4894 330.234C80.2576 329.617 80.1417 328.874 80.1417 328.004C80.1417 327.137 80.2576 326.396 80.4894 325.781C80.7238 325.167 81.0597 324.698 81.4972 324.375C81.9373 324.052 82.4634 323.891 83.0753 323.891C83.6873 323.891 84.2121 324.053 84.6496 324.379C85.0871 324.702 85.4217 325.171 85.6535 325.785C85.8878 326.397 86.005 327.137 86.005 328.004C86.005 328.876 85.8891 329.621 85.6574 330.238C85.4256 330.853 85.091 331.323 84.6535 331.648C84.216 331.971 83.6899 332.133 83.0753 332.133ZM83.0753 331.09C83.617 331.09 84.0402 330.826 84.3449 330.297C84.6522 329.768 84.8058 329.004 84.8058 328.004C84.8058 327.34 84.7355 326.779 84.5949 326.32C84.4568 325.859 84.2576 325.51 83.9972 325.273C83.7394 325.034 83.4321 324.914 83.0753 324.914C82.5363 324.914 82.1131 325.18 81.8058 325.711C81.4985 326.242 81.3436 327.007 81.341 328.004C81.341 328.671 81.41 329.234 81.548 329.695C81.6886 330.154 81.8878 330.501 82.1456 330.738C82.4035 330.973 82.7134 331.09 83.0753 331.09Z" fill="white"/>
<path d="M96.5 78V578" stroke="#FF55B1"/>
<path d="M94 78H100" stroke="#FF55B1"/>
<path d="M94 578H100" stroke="#FF55B1"/>
<path d="M108 67H308" stroke="#FF55B1"/>
<path d="M108 64V70" stroke="#FF55B1"/>
<path d="M308 64V70" stroke="#FF55B1"/>
<rect x="194" y="40" width="28" height="20" rx="3.5" fill="#FF55B1"/>
<path d="M198.186 54V53.125L200.893 50.3203C201.182 50.0156 201.42 49.7487 201.608 49.5195C201.798 49.2878 201.94 49.0677 202.034 48.8594C202.127 48.651 202.174 48.4297 202.174 48.1953C202.174 47.9297 202.112 47.7005 201.987 47.5078C201.862 47.3125 201.691 47.1628 201.475 47.0586C201.259 46.9518 201.015 46.8984 200.744 46.8984C200.458 46.8984 200.208 46.957 199.994 47.0742C199.781 47.1914 199.617 47.3568 199.502 47.5703C199.388 47.7839 199.33 48.0339 199.33 48.3203H198.178C198.178 47.8333 198.29 47.4076 198.514 47.043C198.738 46.6784 199.045 46.3958 199.436 46.1953C199.827 45.9922 200.271 45.8906 200.768 45.8906C201.271 45.8906 201.713 45.9909 202.096 46.1914C202.481 46.3893 202.782 46.6602 202.998 47.0039C203.215 47.3451 203.323 47.7305 203.323 48.1602C203.323 48.457 203.267 48.7474 203.155 49.0312C203.045 49.3151 202.854 49.6315 202.58 49.9805C202.307 50.3268 201.927 50.7474 201.44 51.2422L199.85 52.9062V52.9648H203.452V54H198.186ZM207.827 54.1328C207.21 54.1302 206.683 53.9674 206.245 53.6445C205.808 53.3216 205.473 52.8516 205.241 52.2344C205.009 51.6172 204.894 50.8737 204.894 50.0039C204.894 49.1367 205.009 48.3958 205.241 47.7812C205.476 47.1667 205.812 46.6979 206.249 46.375C206.689 46.0521 207.215 45.8906 207.827 45.8906C208.439 45.8906 208.964 46.0534 209.401 46.3789C209.839 46.7018 210.174 47.1706 210.405 47.7852C210.64 48.3971 210.757 49.1367 210.757 50.0039C210.757 50.8763 210.641 51.6211 210.409 52.2383C210.177 52.8529 209.843 53.3229 209.405 53.6484C208.968 53.9714 208.442 54.1328 207.827 54.1328ZM207.827 53.0898C208.369 53.0898 208.792 52.8255 209.097 52.2969C209.404 51.7682 209.558 51.0039 209.558 50.0039C209.558 49.3398 209.487 48.7786 209.347 48.3203C209.209 47.8594 209.009 47.5104 208.749 47.2734C208.491 47.0339 208.184 46.9141 207.827 46.9141C207.288 46.9141 206.865 47.1797 206.558 47.7109C206.25 48.2422 206.095 49.0065 206.093 50.0039C206.093 50.6706 206.162 51.2344 206.3 51.6953C206.44 52.1536 206.64 52.5013 206.897 52.7383C207.155 52.9727 207.465 53.0898 207.827 53.0898ZM215.038 54.1328C214.421 54.1302 213.893 53.9674 213.456 53.6445C213.018 53.3216 212.684 52.8516 212.452 52.2344C212.22 51.6172 212.104 50.8737 212.104 50.0039C212.104 49.1367 212.22 48.3958 212.452 47.7812C212.686 47.1667 213.022 46.6979 213.46 46.375C213.9 46.0521 214.426 45.8906 215.038 45.8906C215.65 45.8906 216.174 46.0534 216.612 46.3789C217.049 46.7018 217.384 47.1706 217.616 47.7852C217.85 48.3971 217.967 49.1367 217.967 50.0039C217.967 50.8763 217.852 51.6211 217.62 52.2383C217.388 52.8529 217.053 53.3229 216.616 53.6484C216.178 53.9714 215.652 54.1328 215.038 54.1328ZM215.038 53.0898C215.579 53.0898 216.003 52.8255 216.307 52.2969C216.615 51.7682 216.768 51.0039 216.768 50.0039C216.768 49.3398 216.698 48.7786 216.557 48.3203C216.419 47.8594 216.22 47.5104 215.96 47.2734C215.702 47.0339 215.395 46.9141 215.038 46.9141C214.499 46.9141 214.075 47.1797 213.768 47.7109C213.461 48.2422 213.306 49.0065 213.303 50.0039C213.303 50.6706 213.372 51.2344 213.51 51.6953C213.651 52.1536 213.85 52.5013 214.108 52.7383C214.366 52.9727 214.676 53.0898 215.038 53.0898Z" fill="white"/>
<path d="M417.25 84.2002L421.25 80.2002H429.25L433.25 84.2002V92.2002H417.25V84.2002Z" fill="#43E27E"/>
<path d="M417.25 88.2002H419.25V90.2002H421.25V92.2002H429.25V90.2002H431.25V88.2002H433.25V92.2002L429.25 96.2002H421.25L417.25 92.2002V88.2002Z" fill="#0D9841"/>
<path fill-rule="evenodd" clip-rule="evenodd" d="M429.25 78.2002H421.25V80.2002H419.25V82.2002H417.25V84.2002H415.25V92.2002H417.25V94.2002H419.25V96.2002H421.25V98.2002H429.25V96.2002H431.25V94.2002H433.25V92.2002H435.25V84.2002H433.25V82.2002H431.25V80.2002H429.25V78.2002ZM429.25 80.2002V82.2002H431.25V84.2002H433.25V92.2002H431.25V94.2002H429.25V96.2002H421.25V94.2002H419.25V92.2002H417.25V84.2002H419.25V82.2002H421.25V80.2002H429.25Z" fill="black"/>
<path d="M403.75 78.2002V98.2002" stroke="#FF55B1"/>
<path d="M400.75 78.2002H406.75" stroke="#FF55B1"/>
<path d="M400.75 98.2002H406.75" stroke="#FF55B1"/>
<rect x="377.75" y="78.2002" width="19" height="20" rx="3.5" fill="#FF55B1"/>
<path d="M384.85 84.2002V92.2002H383.639V85.4111H383.592L381.678 86.6611V85.5049L383.674 84.2002H384.85ZM389.909 92.333C389.292 92.3304 388.764 92.1676 388.327 91.8447C387.889 91.5218 387.555 91.0518 387.323 90.4346C387.091 89.8174 386.975 89.0739 386.975 88.2041C386.975 87.3369 387.091 86.596 387.323 85.9814C387.557 85.3669 387.893 84.8981 388.331 84.5752C388.771 84.2523 389.297 84.0908 389.909 84.0908C390.521 84.0908 391.046 84.2536 391.483 84.5791C391.921 84.902 392.255 85.3708 392.487 85.9854C392.722 86.5973 392.839 87.3369 392.839 88.2041C392.839 89.0765 392.723 89.8213 392.491 90.4385C392.259 91.0531 391.925 91.5231 391.487 91.8486C391.05 92.1715 390.524 92.333 389.909 92.333ZM389.909 91.29C390.451 91.29 390.874 91.0257 391.179 90.4971C391.486 89.9684 391.639 89.2041 391.639 88.2041C391.639 87.54 391.569 86.9788 391.429 86.5205C391.291 86.0596 391.091 85.7106 390.831 85.4736C390.573 85.234 390.266 85.1143 389.909 85.1143C389.37 85.1143 388.947 85.3799 388.639 85.9111C388.332 86.4424 388.177 87.2067 388.175 88.2041C388.175 88.8708 388.244 89.4346 388.382 89.8955C388.522 90.3538 388.722 90.7015 388.979 90.9385C389.237 91.1729 389.547 91.29 389.909 91.29Z" fill="white"/>
<path d="M415 67H435" stroke="#FF55B1"/>
<path d="M415 64V70" stroke="#FF55B1"/>
<path d="M435 64V70" stroke="#FF55B1"/>
<rect x="416" y="40" width="19" height="20" rx="3.5" fill="#FF55B1"/>
<path d="M423.1 46V54H421.889V47.2109H421.842L419.928 48.4609V47.3047L421.924 46H423.1ZM428.159 54.1328C427.542 54.1302 427.014 53.9674 426.577 53.6445C426.139 53.3216 425.805 52.8516 425.573 52.2344C425.341 51.6172 425.225 50.8737 425.225 50.0039C425.225 49.1367 425.341 48.3958 425.573 47.7812C425.807 47.1667 426.143 46.6979 426.581 46.375C427.021 46.0521 427.547 45.8906 428.159 45.8906C428.771 45.8906 429.296 46.0534 429.733 46.3789C430.171 46.7018 430.505 47.1706 430.737 47.7852C430.972 48.3971 431.089 49.1367 431.089 50.0039C431.089 50.8763 430.973 51.6211 430.741 52.2383C430.509 52.8529 430.175 53.3229 429.737 53.6484C429.3 53.9714 428.774 54.1328 428.159 54.1328ZM428.159 53.0898C428.701 53.0898 429.124 52.8255 429.429 52.2969C429.736 51.7682 429.889 51.0039 429.889 50.0039C429.889 49.3398 429.819 48.7786 429.679 48.3203C429.541 47.8594 429.341 47.5104 429.081 47.2734C428.823 47.0339 428.516 46.9141 428.159 46.9141C427.62 46.9141 427.197 47.1797 426.889 47.7109C426.582 48.2422 426.427 49.0065 426.425 50.0039C426.425 50.6706 426.494 51.2344 426.632 51.6953C426.772 52.1536 426.972 52.5013 427.229 52.7383C427.487 52.9727 427.797 53.0898 428.159 53.0898Z" fill="white"/>
<path fill-rule="evenodd" clip-rule="evenodd" d="M463 232.2H387V234.2H385V250.2H387V252.2H463V250.2H465V234.2H463V232.2ZM463 234.2V250.2H387V234.2H463Z" fill="#212121"/>
<rect x="387" y="234.2" width="76" height="10" fill="#2DB9D7"/>
<rect x="387" y="244.2" width="76" height="6" fill="#0088A5"/>
<path d="M374 232.2V252.2" stroke="#FF55B1"/>
<path d="M371 232.2H377" stroke="#FF55B1"/>
<path d="M371 252.2H377" stroke="#FF55B1"/>
<rect x="348" y="232.2" width="19" height="20" rx="3.5" fill="#FF55B1"/>
<path d="M355.1 238.2V246.2H353.889V239.411H353.842L351.928 240.661V239.505L353.924 238.2H355.1ZM360.159 246.333C359.542 246.33 359.014 246.168 358.577 245.845C358.139 245.522 357.805 245.052 357.573 244.435C357.341 243.817 357.225 243.074 357.225 242.204C357.225 241.337 357.341 240.596 357.573 239.981C357.807 239.367 358.143 238.898 358.581 238.575C359.021 238.252 359.547 238.091 360.159 238.091C360.771 238.091 361.296 238.254 361.733 238.579C362.171 238.902 362.505 239.371 362.737 239.985C362.972 240.597 363.089 241.337 363.089 242.204C363.089 243.076 362.973 243.821 362.741 244.438C362.509 245.053 362.175 245.523 361.737 245.849C361.3 246.172 360.774 246.333 360.159 246.333ZM360.159 245.29C360.701 245.29 361.124 245.026 361.429 244.497C361.736 243.968 361.889 243.204 361.889 242.204C361.889 241.54 361.819 240.979 361.679 240.521C361.541 240.06 361.341 239.711 361.081 239.474C360.823 239.234 360.516 239.114 360.159 239.114C359.62 239.114 359.197 239.38 358.889 239.911C358.582 240.442 358.427 241.207 358.425 242.204C358.425 242.871 358.494 243.435 358.632 243.896C358.772 244.354 358.972 244.701 359.229 244.938C359.487 245.173 359.797 245.29 360.159 245.29Z" fill="white"/>
<path d="M385 221.2H465" stroke="#FF55B1"/>
<path d="M385 218.2V224.2" stroke="#FF55B1"/>
<path d="M465 218.2V224.2" stroke="#FF55B1"/>
<rect x="414" y="194.2" width="21" height="20" rx="3.5" fill="#FF55B1"/>
<path d="M417.898 206.638V205.661L421.355 200.2H422.124V201.638H421.636L419.163 205.552V205.614H423.902V206.638H417.898ZM421.691 208.2V206.341L421.698 205.896V200.2H422.843V208.2H421.691ZM428.158 208.333C427.541 208.33 427.013 208.168 426.576 207.845C426.138 207.522 425.804 207.052 425.572 206.435C425.34 205.817 425.224 205.074 425.224 204.204C425.224 203.337 425.34 202.596 425.572 201.981C425.806 201.367 426.142 200.898 426.58 200.575C427.02 200.252 427.546 200.091 428.158 200.091C428.77 200.091 429.295 200.254 429.732 200.579C430.17 200.902 430.504 201.371 430.736 201.985C430.971 202.597 431.088 203.337 431.088 204.204C431.088 205.076 430.972 205.821 430.74 206.438C430.508 207.053 430.174 207.523 429.736 207.849C429.299 208.172 428.773 208.333 428.158 208.333ZM428.158 207.29C428.7 207.29 429.123 207.026 429.428 206.497C429.735 205.968 429.888 205.204 429.888 204.204C429.888 203.54 429.818 202.979 429.678 202.521C429.54 202.06 429.34 201.711 429.08 201.474C428.822 201.234 428.515 201.114 428.158 201.114C427.619 201.114 427.196 201.38 426.888 201.911C426.581 202.442 426.426 203.207 426.424 204.204C426.424 204.871 426.493 205.435 426.631 205.896C426.771 206.354 426.971 206.701 427.228 206.938C427.486 207.173 427.796 207.29 428.158 207.29Z" fill="white"/>
<path fill-rule="evenodd" clip-rule="evenodd" d="M463 386.2H387V388.2H385V404.2H387V406.2H463V404.2H465V388.2H463V386.2ZM463 388.2V404.2H387V388.2H463Z" fill="#212121"/>
<rect x="387" y="388.2" width="76" height="10" fill="#FF4A4A"/>
<rect x="387" y="398.2" width="76" height="6" fill="#D82B2B"/>
<path d="M374 386.2V406.2" stroke="#FF55B1"/>
<path d="M371 386.2H377" stroke="#FF55B1"/>
<path d="M371 406.2H377" stroke="#FF55B1"/>
<rect x="348" y="386.2" width="19" height="20" rx="3.5" fill="#FF55B1"/>
<path d="M355.1 392.2V400.2H353.889V393.411H353.842L351.928 394.661V393.505L353.924 392.2H355.1ZM360.159 400.333C359.542 400.33 359.014 400.168 358.577 399.845C358.139 399.522 357.805 399.052 357.573 398.435C357.341 397.817 357.225 397.074 357.225 396.204C357.225 395.337 357.341 394.596 357.573 393.981C357.807 393.367 358.143 392.898 358.581 392.575C359.021 392.252 359.547 392.091 360.159 392.091C360.771 392.091 361.296 392.254 361.733 392.579C362.171 392.902 362.505 393.371 362.737 393.985C362.972 394.597 363.089 395.337 363.089 396.204C363.089 397.076 362.973 397.821 362.741 398.438C362.509 399.053 362.175 399.523 361.737 399.849C361.3 400.172 360.774 400.333 360.159 400.333ZM360.159 399.29C360.701 399.29 361.124 399.026 361.429 398.497C361.736 397.968 361.889 397.204 361.889 396.204C361.889 395.54 361.819 394.979 361.679 394.521C361.541 394.06 361.341 393.711 361.081 393.474C360.823 393.234 360.516 393.114 360.159 393.114C359.62 393.114 359.197 393.38 358.889 393.911C358.582 394.442 358.427 395.207 358.425 396.204C358.425 396.871 358.494 397.435 358.632 397.896C358.772 398.354 358.972 398.701 359.229 398.938C359.487 399.173 359.797 399.29 360.159 399.29Z" fill="white"/>
<path d="M385 375.2H465" stroke="#FF55B1"/>
<path d="M385 372.2V378.2" stroke="#FF55B1"/>
<path d="M465 372.2V378.2" stroke="#FF55B1"/>
<rect x="414" y="348.2" width="21" height="20" rx="3.5" fill="#FF55B1"/>
<path d="M417.898 360.638V359.661L421.355 354.2H422.124V355.638H421.636L419.163 359.552V359.614H423.902V360.638H417.898ZM421.691 362.2V360.341L421.698 359.896V354.2H422.843V362.2H421.691ZM428.158 362.333C427.541 362.33 427.013 362.168 426.576 361.845C426.138 361.522 425.804 361.052 425.572 360.435C425.34 359.817 425.224 359.074 425.224 358.204C425.224 357.337 425.34 356.596 425.572 355.981C425.806 355.367 426.142 354.898 426.58 354.575C427.02 354.252 427.546 354.091 428.158 354.091C428.77 354.091 429.295 354.254 429.732 354.579C430.17 354.902 430.504 355.371 430.736 355.985C430.971 356.597 431.088 357.337 431.088 358.204C431.088 359.076 430.972 359.821 430.74 360.438C430.508 361.053 430.174 361.523 429.736 361.849C429.299 362.172 428.773 362.333 428.158 362.333ZM428.158 361.29C428.7 361.29 429.123 361.026 429.428 360.497C429.735 359.968 429.888 359.204 429.888 358.204C429.888 357.54 429.818 356.979 429.678 356.521C429.54 356.06 429.34 355.711 429.08 355.474C428.822 355.234 428.515 355.114 428.158 355.114C427.619 355.114 427.196 355.38 426.888 355.911C426.581 356.442 426.426 357.207 426.424 358.204C426.424 358.871 426.493 359.435 426.631 359.896C426.771 360.354 426.971 360.701 427.228 360.938C427.486 361.173 427.796 361.29 428.158 361.29Z" fill="white"/>
<path fill-rule="evenodd" clip-rule="evenodd" d="M453 540.2H397V542.2H395V578.2H397V580.2H453V578.2H455V542.2H453V540.2ZM453 542.2V578.2H397V542.2H453Z" fill="#212121"/>
<rect x="397" y="542.2" width="56" height="32" fill="#E09E42"/>
<path d="M397 542.2H399V544.2H401V574.2H449V544.2H451V542.2H453V578.2H397L397 542.2Z" fill="#C17306"/>
<path d="M384 540.2V580.2" stroke="#FF55B1"/>
<path d="M381 540.2H387" stroke="#FF55B1"/>
<path d="M381 580.2H387" stroke="#FF55B1"/>
<rect x="358" y="548.2" width="20" height="20" rx="3.5" fill="#FF55B1"/>
<path d="M361.791 562.2V561.325L364.498 558.521C364.787 558.216 365.026 557.949 365.213 557.72C365.403 557.488 365.545 557.268 365.639 557.06C365.733 556.851 365.779 556.63 365.779 556.396C365.779 556.13 365.717 555.901 365.592 555.708C365.467 555.513 365.296 555.363 365.08 555.259C364.864 555.152 364.621 555.099 364.35 555.099C364.063 555.099 363.813 555.157 363.6 555.274C363.386 555.392 363.222 555.557 363.108 555.771C362.993 555.984 362.936 556.234 362.936 556.521H361.783C361.783 556.034 361.895 555.608 362.119 555.243C362.343 554.879 362.651 554.596 363.041 554.396C363.432 554.192 363.876 554.091 364.373 554.091C364.876 554.091 365.319 554.191 365.701 554.392C366.087 554.59 366.388 554.86 366.604 555.204C366.82 555.545 366.928 555.931 366.928 556.36C366.928 556.657 366.872 556.948 366.76 557.231C366.651 557.515 366.459 557.832 366.186 558.181C365.912 558.527 365.532 558.948 365.045 559.442L363.455 561.106V561.165H367.057V562.2H361.791ZM371.432 562.333C370.815 562.33 370.288 562.168 369.85 561.845C369.413 561.522 369.078 561.052 368.847 560.435C368.615 559.817 368.499 559.074 368.499 558.204C368.499 557.337 368.615 556.596 368.847 555.981C369.081 555.367 369.417 554.898 369.854 554.575C370.294 554.252 370.82 554.091 371.432 554.091C372.044 554.091 372.569 554.254 373.007 554.579C373.444 554.902 373.779 555.371 374.011 555.985C374.245 556.597 374.362 557.337 374.362 558.204C374.362 559.076 374.246 559.821 374.014 560.438C373.783 561.053 373.448 561.523 373.011 561.849C372.573 562.172 372.047 562.333 371.432 562.333ZM371.432 561.29C371.974 561.29 372.397 561.026 372.702 560.497C373.009 559.968 373.163 559.204 373.163 558.204C373.163 557.54 373.093 556.979 372.952 556.521C372.814 556.06 372.615 555.711 372.354 555.474C372.097 555.234 371.789 555.114 371.432 555.114C370.893 555.114 370.47 555.38 370.163 555.911C369.856 556.442 369.701 557.207 369.698 558.204C369.698 558.871 369.767 559.435 369.905 559.896C370.046 560.354 370.245 560.701 370.503 560.938C370.761 561.173 371.07 561.29 371.432 561.29Z" fill="white"/>
<path d="M395 529.2H455" stroke="#FF55B1"/>
<path d="M395 526.2V532.2" stroke="#FF55B1"/>
<path d="M455 526.2V532.2" stroke="#FF55B1"/>
<rect x="414" y="502.2" width="21" height="20" rx="3.5" fill="#FF55B1"/>
<path d="M420.904 516.31C420.368 516.31 419.889 516.217 419.467 516.032C419.048 515.847 418.716 515.591 418.471 515.263C418.229 514.932 418.098 514.549 418.08 514.114H419.307C419.322 514.351 419.402 514.557 419.545 514.731C419.691 514.903 419.881 515.036 420.115 515.13C420.35 515.224 420.61 515.271 420.897 515.271C421.212 515.271 421.49 515.216 421.733 515.106C421.977 514.997 422.169 514.845 422.307 514.649C422.445 514.451 422.514 514.224 422.514 513.966C422.514 513.698 422.445 513.462 422.307 513.259C422.171 513.053 421.972 512.892 421.709 512.774C421.449 512.657 421.134 512.599 420.764 512.599H420.088V511.614H420.764C421.061 511.614 421.321 511.561 421.545 511.454C421.772 511.347 421.949 511.199 422.076 511.009C422.204 510.816 422.268 510.591 422.268 510.333C422.268 510.086 422.212 509.871 422.1 509.688C421.99 509.504 421.834 509.359 421.631 509.255C421.431 509.151 421.194 509.099 420.92 509.099C420.66 509.099 420.416 509.147 420.19 509.243C419.966 509.337 419.783 509.472 419.643 509.649C419.502 509.824 419.427 510.034 419.416 510.278H418.248C418.261 509.846 418.389 509.466 418.631 509.138C418.876 508.81 419.199 508.553 419.6 508.368C420.001 508.183 420.446 508.091 420.936 508.091C421.449 508.091 421.891 508.191 422.264 508.392C422.639 508.59 422.928 508.854 423.131 509.185C423.337 509.515 423.438 509.877 423.436 510.271C423.438 510.718 423.313 511.099 423.061 511.411C422.811 511.724 422.477 511.933 422.061 512.04V512.103C422.592 512.183 423.003 512.394 423.295 512.735C423.589 513.076 423.735 513.5 423.733 514.005C423.735 514.445 423.613 514.84 423.365 515.188C423.121 515.537 422.786 515.812 422.362 516.013C421.937 516.211 421.451 516.31 420.904 516.31ZM428.104 516.333C427.487 516.33 426.96 516.168 426.522 515.845C426.085 515.522 425.75 515.052 425.518 514.435C425.287 513.817 425.171 513.074 425.171 512.204C425.171 511.337 425.287 510.596 425.518 509.981C425.753 509.367 426.089 508.898 426.526 508.575C426.966 508.252 427.492 508.091 428.104 508.091C428.716 508.091 429.241 508.254 429.679 508.579C430.116 508.902 430.451 509.371 430.682 509.985C430.917 510.597 431.034 511.337 431.034 512.204C431.034 513.076 430.918 513.821 430.686 514.438C430.455 515.053 430.12 515.523 429.682 515.849C429.245 516.172 428.719 516.333 428.104 516.333ZM428.104 515.29C428.646 515.29 429.069 515.026 429.374 514.497C429.681 513.968 429.835 513.204 429.835 512.204C429.835 511.54 429.764 510.979 429.624 510.521C429.486 510.06 429.287 509.711 429.026 509.474C428.768 509.234 428.461 509.114 428.104 509.114C427.565 509.114 427.142 509.38 426.835 509.911C426.527 510.442 426.373 511.207 426.37 512.204C426.37 512.871 426.439 513.435 426.577 513.896C426.718 514.354 426.917 514.701 427.175 514.938C427.432 515.173 427.742 515.29 428.104 515.29Z" fill="white"/>
<path d="M114.936 95.388C114.376 94.476 113.94 93.524 113.628 92.532C113.316 91.532 113.16 90.436 113.16 89.244C113.16 88.06 113.316 86.968 113.628 85.968C113.94 84.968 114.376 84.012 114.936 83.1L115.8 83.484C115.288 84.348 114.908 85.276 114.66 86.268C114.42 87.252 114.3 88.244 114.3 89.244C114.3 90.252 114.42 91.248 114.66 92.232C114.908 93.216 115.288 94.14 115.8 95.004L114.936 95.388ZM119.801 93.168C119.225 93.168 118.721 92.996 118.289 92.652C117.857 92.308 117.521 91.796 117.281 91.116C117.049 90.428 116.933 89.572 116.933 88.548C116.933 87.524 117.049 86.676 117.281 86.004C117.521 85.332 117.857 84.832 118.289 84.504C118.721 84.168 119.225 84 119.801 84C120.377 84 120.877 84.168 121.301 84.504C121.725 84.84 122.053 85.344 122.285 86.016C122.525 86.68 122.645 87.524 122.645 88.548C122.645 89.572 122.525 90.428 122.285 91.116C122.053 91.796 121.725 92.308 121.301 92.652C120.877 92.996 120.377 93.168 119.801 93.168ZM119.801 92.064C120.097 92.064 120.361 91.948 120.593 91.716C120.825 91.484 121.005 91.112 121.133 90.6C121.261 90.08 121.325 89.396 121.325 88.548C121.325 87.7 121.261 87.024 121.133 86.52C121.005 86.016 120.825 85.652 120.593 85.428C120.361 85.204 120.097 85.092 119.801 85.092C119.505 85.092 119.241 85.204 119.009 85.428C118.777 85.652 118.593 86.016 118.457 86.52C118.329 87.024 118.265 87.7 118.265 88.548C118.265 89.396 118.329 90.08 118.457 90.6C118.593 91.112 118.777 91.484 119.009 91.716C119.241 91.948 119.505 92.064 119.801 92.064ZM124.161 95.4L123.849 94.62C124.265 94.444 124.589 94.208 124.821 93.912C125.053 93.624 125.165 93.3 125.157 92.94L125.061 91.836L125.637 92.748C125.557 92.836 125.465 92.9 125.361 92.94C125.257 92.972 125.145 92.988 125.025 92.988C124.785 92.988 124.569 92.912 124.377 92.76C124.193 92.6 124.101 92.38 124.101 92.1C124.101 91.828 124.193 91.612 124.377 91.452C124.569 91.292 124.797 91.212 125.061 91.212C125.405 91.212 125.669 91.344 125.853 91.608C126.037 91.872 126.129 92.236 126.129 92.7C126.129 93.332 125.953 93.88 125.601 94.344C125.257 94.816 124.777 95.168 124.161 95.4ZM130.219 93.168C129.643 93.168 129.139 92.996 128.707 92.652C128.275 92.308 127.939 91.796 127.699 91.116C127.467 90.428 127.351 89.572 127.351 88.548C127.351 87.524 127.467 86.676 127.699 86.004C127.939 85.332 128.275 84.832 128.707 84.504C129.139 84.168 129.643 84 130.219 84C130.795 84 131.295 84.168 131.719 84.504C132.143 84.84 132.471 85.344 132.703 86.016C132.943 86.68 133.063 87.524 133.063 88.548C133.063 89.572 132.943 90.428 132.703 91.116C132.471 91.796 132.143 92.308 131.719 92.652C131.295 92.996 130.795 93.168 130.219 93.168ZM130.219 92.064C130.515 92.064 130.779 91.948 131.011 91.716C131.243 91.484 131.423 91.112 131.551 90.6C131.679 90.08 131.743 89.396 131.743 88.548C131.743 87.7 131.679 87.024 131.551 86.52C131.423 86.016 131.243 85.652 131.011 85.428C130.779 85.204 130.515 85.092 130.219 85.092C129.923 85.092 129.659 85.204 129.427 85.428C129.195 85.652 129.011 86.016 128.875 86.52C128.747 87.024 128.683 87.7 128.683 88.548C128.683 89.396 128.747 90.08 128.875 90.6C129.011 91.112 129.195 91.484 129.427 91.716C129.659 91.948 129.923 92.064 130.219 92.064ZM135.047 95.388L134.183 95.004C134.695 94.14 135.075 93.216 135.323 92.232C135.571 91.248 135.695 90.252 135.695 89.244C135.695 88.244 135.571 87.252 135.323 86.268C135.075 85.276 134.695 84.348 134.183 83.484L135.047 83.1C135.615 84.012 136.055 84.968 136.367 85.968C136.679 86.968 136.835 88.06 136.835 89.244C136.835 90.436 136.679 91.532 136.367 92.532C136.055 93.524 135.615 94.476 135.047 95.388Z" fill="#FF55B1"/>
<path d="M146.17 495.588C145.61 494.676 145.174 493.724 144.862 492.732C144.55 491.732 144.394 490.636 144.394 489.444C144.394 488.26 144.55 487.168 144.862 486.168C145.174 485.168 145.61 484.212 146.17 483.3L147.034 483.684C146.522 484.548 146.142 485.476 145.894 486.468C145.654 487.452 145.534 488.444 145.534 489.444C145.534 490.452 145.654 491.448 145.894 492.432C146.142 493.416 146.522 494.34 147.034 495.204L146.17 495.588ZM151.036 493.368C150.484 493.368 149.992 493.268 149.56 493.068C149.128 492.86 148.784 492.58 148.528 492.228C148.28 491.868 148.156 491.46 148.156 491.004C148.156 490.612 148.232 490.264 148.384 489.96C148.536 489.656 148.732 489.396 148.972 489.18C149.212 488.956 149.464 488.772 149.728 488.628V488.568C149.408 488.336 149.132 488.052 148.9 487.716C148.668 487.372 148.552 486.968 148.552 486.504C148.552 486.048 148.66 485.648 148.876 485.304C149.1 484.96 149.4 484.696 149.776 484.512C150.16 484.32 150.596 484.224 151.084 484.224C151.596 484.224 152.036 484.324 152.404 484.524C152.772 484.724 153.056 485 153.256 485.352C153.464 485.696 153.568 486.1 153.568 486.564C153.568 486.86 153.508 487.14 153.388 487.404C153.268 487.668 153.12 487.908 152.944 488.124C152.776 488.332 152.596 488.504 152.404 488.64V488.7C152.676 488.844 152.924 489.024 153.148 489.24C153.372 489.448 153.552 489.7 153.688 489.996C153.824 490.292 153.892 490.64 153.892 491.04C153.892 491.472 153.772 491.864 153.532 492.216C153.3 492.568 152.968 492.848 152.536 493.056C152.112 493.264 151.612 493.368 151.036 493.368ZM151.624 488.292C151.88 488.044 152.072 487.784 152.2 487.512C152.336 487.232 152.404 486.94 152.404 486.636C152.404 486.372 152.352 486.132 152.248 485.916C152.144 485.7 151.988 485.532 151.78 485.412C151.58 485.284 151.336 485.22 151.048 485.22C150.688 485.22 150.388 485.336 150.148 485.568C149.908 485.792 149.788 486.104 149.788 486.504C149.788 486.824 149.872 487.092 150.04 487.308C150.208 487.524 150.432 487.708 150.712 487.86C150.992 488.012 151.296 488.156 151.624 488.292ZM151.072 492.36C151.368 492.36 151.628 492.304 151.852 492.192C152.084 492.08 152.264 491.924 152.392 491.724C152.52 491.516 152.584 491.272 152.584 490.992C152.584 490.728 152.528 490.5 152.416 490.308C152.304 490.108 152.148 489.936 151.948 489.792C151.756 489.648 151.528 489.516 151.264 489.396C151 489.268 150.716 489.144 150.412 489.024C150.108 489.24 149.86 489.508 149.668 489.828C149.476 490.14 149.38 490.484 149.38 490.86C149.38 491.156 149.452 491.416 149.596 491.64C149.748 491.864 149.952 492.04 150.208 492.168C150.464 492.296 150.752 492.36 151.072 492.36ZM157.879 493.368C157.303 493.368 156.799 493.196 156.367 492.852C155.935 492.508 155.599 491.996 155.359 491.316C155.127 490.628 155.011 489.772 155.011 488.748C155.011 487.724 155.127 486.876 155.359 486.204C155.599 485.532 155.935 485.032 156.367 484.704C156.799 484.368 157.303 484.2 157.879 484.2C158.455 484.2 158.955 484.368 159.379 484.704C159.803 485.04 160.131 485.544 160.363 486.216C160.603 486.88 160.723 487.724 160.723 488.748C160.723 489.772 160.603 490.628 160.363 491.316C160.131 491.996 159.803 492.508 159.379 492.852C158.955 493.196 158.455 493.368 157.879 493.368ZM157.879 492.264C158.175 492.264 158.439 492.148 158.671 491.916C158.903 491.684 159.083 491.312 159.211 490.8C159.339 490.28 159.403 489.596 159.403 488.748C159.403 487.9 159.339 487.224 159.211 486.72C159.083 486.216 158.903 485.852 158.671 485.628C158.439 485.404 158.175 485.292 157.879 485.292C157.583 485.292 157.319 485.404 157.087 485.628C156.855 485.852 156.671 486.216 156.535 486.72C156.407 487.224 156.343 487.9 156.343 488.748C156.343 489.596 156.407 490.28 156.535 490.8C156.671 491.312 156.855 491.684 157.087 491.916C157.319 492.148 157.583 492.264 157.879 492.264ZM162.239 495.6L161.927 494.82C162.343 494.644 162.667 494.408 162.899 494.112C163.131 493.824 163.243 493.5 163.235 493.14L163.139 492.036L163.715 492.948C163.635 493.036 163.543 493.1 163.439 493.14C163.335 493.172 163.223 493.188 163.103 493.188C162.863 493.188 162.647 493.112 162.455 492.96C162.271 492.8 162.179 492.58 162.179 492.3C162.179 492.028 162.271 491.812 162.455 491.652C162.647 491.492 162.875 491.412 163.139 491.412C163.483 491.412 163.747 491.544 163.931 491.808C164.115 492.072 164.207 492.436 164.207 492.9C164.207 493.532 164.031 494.08 163.679 494.544C163.335 495.016 162.855 495.368 162.239 495.6ZM168.933 493.2V487.44C168.933 487.2 168.941 486.916 168.957 486.588C168.973 486.252 168.985 485.964 168.993 485.724H168.945C168.833 485.948 168.717 486.176 168.597 486.408C168.485 486.64 168.365 486.868 168.237 487.092L166.509 489.744H171.345V490.824H165.105V489.9L168.621 484.356H170.229V493.2H168.933ZM172.237 493.2V492.396C173.109 491.62 173.837 490.912 174.421 490.272C175.005 489.624 175.441 489.024 175.729 488.472C176.025 487.92 176.173 487.404 176.173 486.924C176.173 486.604 176.117 486.324 176.005 486.084C175.901 485.836 175.737 485.648 175.513 485.52C175.297 485.384 175.021 485.316 174.685 485.316C174.341 485.316 174.025 485.412 173.737 485.604C173.449 485.788 173.185 486.016 172.945 486.288L172.165 485.52C172.541 485.104 172.937 484.78 173.353 484.548C173.777 484.316 174.281 484.2 174.865 484.2C175.401 484.2 175.869 484.312 176.269 484.536C176.669 484.752 176.977 485.06 177.193 485.46C177.417 485.852 177.529 486.316 177.529 486.852C177.529 487.42 177.389 487.996 177.109 488.58C176.829 489.156 176.445 489.74 175.957 490.332C175.469 490.916 174.913 491.508 174.289 492.108C174.521 492.084 174.765 492.064 175.021 492.048C175.285 492.024 175.521 492.012 175.729 492.012H177.949V493.2H172.237ZM181.985 493.368C181.409 493.368 180.905 493.196 180.473 492.852C180.041 492.508 179.705 491.996 179.465 491.316C179.233 490.628 179.117 489.772 179.117 488.748C179.117 487.724 179.233 486.876 179.465 486.204C179.705 485.532 180.041 485.032 180.473 484.704C180.905 484.368 181.409 484.2 181.985 484.2C182.561 484.2 183.061 484.368 183.485 484.704C183.909 485.04 184.237 485.544 184.469 486.216C184.709 486.88 184.829 487.724 184.829 488.748C184.829 489.772 184.709 490.628 184.469 491.316C184.237 491.996 183.909 492.508 183.485 492.852C183.061 493.196 182.561 493.368 181.985 493.368ZM181.985 492.264C182.281 492.264 182.545 492.148 182.777 491.916C183.009 491.684 183.189 491.312 183.317 490.8C183.445 490.28 183.509 489.596 183.509 488.748C183.509 487.9 183.445 487.224 183.317 486.72C183.189 486.216 183.009 485.852 182.777 485.628C182.545 485.404 182.281 485.292 181.985 485.292C181.689 485.292 181.425 485.404 181.193 485.628C180.961 485.852 180.777 486.216 180.641 486.72C180.513 487.224 180.449 487.9 180.449 488.748C180.449 489.596 180.513 490.28 180.641 490.8C180.777 491.312 180.961 491.684 181.193 491.916C181.425 492.148 181.689 492.264 181.985 492.264ZM186.812 495.588L185.948 495.204C186.46 494.34 186.84 493.416 187.088 492.432C187.336 491.448 187.46 490.452 187.46 489.444C187.46 488.444 187.336 487.452 187.088 486.468C186.84 485.476 186.46 484.548 185.948 483.684L186.812 483.3C187.38 484.212 187.82 485.168 188.132 486.168C188.444 487.168 188.6 488.26 188.6 489.444C188.6 490.636 188.444 491.732 188.132 492.732C187.82 493.724 187.38 494.676 186.812 495.588Z" fill="#FF55B1"/>
<path d="M153.092 145.588C152.532 144.676 152.096 143.724 151.784 142.732C151.472 141.732 151.316 140.636 151.316 139.444C151.316 138.26 151.472 137.168 151.784 136.168C152.096 135.168 152.532 134.212 153.092 133.3L153.956 133.684C153.444 134.548 153.064 135.476 152.816 136.468C152.576 137.452 152.456 138.444 152.456 139.444C152.456 140.452 152.576 141.448 152.816 142.432C153.064 143.416 153.444 144.34 153.956 145.204L153.092 145.588ZM157.957 143.368C157.405 143.368 156.913 143.268 156.481 143.068C156.049 142.86 155.705 142.58 155.449 142.228C155.201 141.868 155.077 141.46 155.077 141.004C155.077 140.612 155.153 140.264 155.305 139.96C155.457 139.656 155.653 139.396 155.893 139.18C156.133 138.956 156.385 138.772 156.649 138.628V138.568C156.329 138.336 156.053 138.052 155.821 137.716C155.589 137.372 155.473 136.968 155.473 136.504C155.473 136.048 155.581 135.648 155.797 135.304C156.021 134.96 156.321 134.696 156.697 134.512C157.081 134.32 157.517 134.224 158.005 134.224C158.517 134.224 158.957 134.324 159.325 134.524C159.693 134.724 159.977 135 160.177 135.352C160.385 135.696 160.489 136.1 160.489 136.564C160.489 136.86 160.429 137.14 160.309 137.404C160.189 137.668 160.041 137.908 159.865 138.124C159.697 138.332 159.517 138.504 159.325 138.64V138.7C159.597 138.844 159.845 139.024 160.069 139.24C160.293 139.448 160.473 139.7 160.609 139.996C160.745 140.292 160.813 140.64 160.813 141.04C160.813 141.472 160.693 141.864 160.453 142.216C160.221 142.568 159.889 142.848 159.457 143.056C159.033 143.264 158.533 143.368 157.957 143.368ZM158.545 138.292C158.801 138.044 158.993 137.784 159.121 137.512C159.257 137.232 159.325 136.94 159.325 136.636C159.325 136.372 159.273 136.132 159.169 135.916C159.065 135.7 158.909 135.532 158.701 135.412C158.501 135.284 158.257 135.22 157.969 135.22C157.609 135.22 157.309 135.336 157.069 135.568C156.829 135.792 156.709 136.104 156.709 136.504C156.709 136.824 156.793 137.092 156.961 137.308C157.129 137.524 157.353 137.708 157.633 137.86C157.913 138.012 158.217 138.156 158.545 138.292ZM157.993 142.36C158.289 142.36 158.549 142.304 158.773 142.192C159.005 142.08 159.185 141.924 159.313 141.724C159.441 141.516 159.505 141.272 159.505 140.992C159.505 140.728 159.449 140.5 159.337 140.308C159.225 140.108 159.069 139.936 158.869 139.792C158.677 139.648 158.449 139.516 158.185 139.396C157.921 139.268 157.637 139.144 157.333 139.024C157.029 139.24 156.781 139.508 156.589 139.828C156.397 140.14 156.301 140.484 156.301 140.86C156.301 141.156 156.373 141.416 156.517 141.64C156.669 141.864 156.873 142.04 157.129 142.168C157.385 142.296 157.673 142.36 157.993 142.36ZM164.801 143.368C164.225 143.368 163.721 143.196 163.289 142.852C162.857 142.508 162.521 141.996 162.281 141.316C162.049 140.628 161.933 139.772 161.933 138.748C161.933 137.724 162.049 136.876 162.281 136.204C162.521 135.532 162.857 135.032 163.289 134.704C163.721 134.368 164.225 134.2 164.801 134.2C165.377 134.2 165.877 134.368 166.301 134.704C166.725 135.04 167.053 135.544 167.285 136.216C167.525 136.88 167.645 137.724 167.645 138.748C167.645 139.772 167.525 140.628 167.285 141.316C167.053 141.996 166.725 142.508 166.301 142.852C165.877 143.196 165.377 143.368 164.801 143.368ZM164.801 142.264C165.097 142.264 165.361 142.148 165.593 141.916C165.825 141.684 166.005 141.312 166.133 140.8C166.261 140.28 166.325 139.596 166.325 138.748C166.325 137.9 166.261 137.224 166.133 136.72C166.005 136.216 165.825 135.852 165.593 135.628C165.361 135.404 165.097 135.292 164.801 135.292C164.505 135.292 164.241 135.404 164.009 135.628C163.777 135.852 163.593 136.216 163.457 136.72C163.329 137.224 163.265 137.9 163.265 138.748C163.265 139.596 163.329 140.28 163.457 140.8C163.593 141.312 163.777 141.684 164.009 141.916C164.241 142.148 164.505 142.264 164.801 142.264ZM169.161 145.6L168.849 144.82C169.265 144.644 169.589 144.408 169.821 144.112C170.053 143.824 170.165 143.5 170.157 143.14L170.061 142.036L170.637 142.948C170.557 143.036 170.465 143.1 170.361 143.14C170.257 143.172 170.145 143.188 170.025 143.188C169.785 143.188 169.569 143.112 169.377 142.96C169.193 142.8 169.101 142.58 169.101 142.3C169.101 142.028 169.193 141.812 169.377 141.652C169.569 141.492 169.797 141.412 170.061 141.412C170.405 141.412 170.669 141.544 170.853 141.808C171.037 142.072 171.129 142.436 171.129 142.9C171.129 143.532 170.953 144.08 170.601 144.544C170.257 145.016 169.777 145.368 169.161 145.6ZM174.103 143.2C174.143 142.392 174.211 141.652 174.307 140.98C174.403 140.3 174.543 139.66 174.727 139.06C174.911 138.452 175.151 137.864 175.447 137.296C175.743 136.72 176.103 136.132 176.527 135.532H172.387V134.356H178.063V135.208C177.551 135.848 177.135 136.468 176.815 137.068C176.495 137.66 176.247 138.264 176.071 138.88C175.895 139.496 175.767 140.156 175.687 140.86C175.607 141.556 175.551 142.336 175.519 143.2H174.103ZM182.063 143.368C181.487 143.368 180.983 143.196 180.551 142.852C180.119 142.508 179.783 141.996 179.543 141.316C179.311 140.628 179.195 139.772 179.195 138.748C179.195 137.724 179.311 136.876 179.543 136.204C179.783 135.532 180.119 135.032 180.551 134.704C180.983 134.368 181.487 134.2 182.063 134.2C182.639 134.2 183.139 134.368 183.563 134.704C183.987 135.04 184.315 135.544 184.547 136.216C184.787 136.88 184.907 137.724 184.907 138.748C184.907 139.772 184.787 140.628 184.547 141.316C184.315 141.996 183.987 142.508 183.563 142.852C183.139 143.196 182.639 143.368 182.063 143.368ZM182.063 142.264C182.359 142.264 182.623 142.148 182.855 141.916C183.087 141.684 183.267 141.312 183.395 140.8C183.523 140.28 183.587 139.596 183.587 138.748C183.587 137.9 183.523 137.224 183.395 136.72C183.267 136.216 183.087 135.852 182.855 135.628C182.623 135.404 182.359 135.292 182.063 135.292C181.767 135.292 181.503 135.404 181.271 135.628C181.039 135.852 180.855 136.216 180.719 136.72C180.591 137.224 180.527 137.9 180.527 138.748C180.527 139.596 180.591 140.28 180.719 140.8C180.855 141.312 181.039 141.684 181.271 141.916C181.503 142.148 181.767 142.264 182.063 142.264ZM186.891 145.588L186.027 145.204C186.539 144.34 186.919 143.416 187.167 142.432C187.415 141.448 187.539 140.452 187.539 139.444C187.539 138.444 187.415 137.452 187.167 136.468C186.919 135.476 186.539 134.548 186.027 133.684L186.891 133.3C187.459 134.212 187.899 135.168 188.211 136.168C188.523 137.168 188.679 138.26 188.679 139.444C188.679 140.636 188.523 141.732 188.211 142.732C187.899 143.724 187.459 144.676 186.891 145.588Z" fill="#FF55B1"/>
<path fill-rule="evenodd" clip-rule="evenodd" d="M191 496.5H190V498H188.5V499H190V500.5H191V499H192.5V498H191V496.5Z" fill="#FF55B1"/>
<path fill-rule="evenodd" clip-rule="evenodd" d="M110.5 76H109.5V77.5H108V78.5H109.5V80H110.5V78.5H112V77.5H110.5V76Z" fill="#FF55B1"/>
<path fill-rule="evenodd" clip-rule="evenodd" d="M191 146.5H190V148H188.5V149H190V150.5H191V149H192.5V148H191V146.5Z" fill="#FF55B1"/>
</svg>
