<svg width="527" height="618" viewBox="0 0 527 618" fill="none" xmlns="http://www.w3.org/2000/svg">
<rect width="527" height="618" fill="#F5F5F5"/>
<rect x="111" y="78" width="200" height="500" fill="#73A343"/>
<path d="M135.983 540.992V551H134.719V542.571L132.169 543.501V542.359L135.785 540.992H135.983ZM143.701 547.097H141.042V546.023H143.701C144.216 546.023 144.633 545.941 144.952 545.777C145.271 545.613 145.504 545.385 145.649 545.094C145.8 544.802 145.875 544.469 145.875 544.096C145.875 543.754 145.8 543.433 145.649 543.132C145.504 542.831 145.271 542.59 144.952 542.407C144.633 542.22 144.216 542.127 143.701 542.127H141.35V551H140.03V541.047H143.701C144.453 541.047 145.089 541.177 145.608 541.437C146.128 541.696 146.522 542.056 146.791 542.517C147.06 542.972 147.194 543.494 147.194 544.082C147.194 544.72 147.06 545.265 146.791 545.716C146.522 546.167 146.128 546.511 145.608 546.748C145.089 546.98 144.453 547.097 143.701 547.097Z" fill="#FC0000"/>
<path d="M163.271 549.038C163.271 548.856 163.229 548.687 163.147 548.532C163.07 548.373 162.908 548.229 162.662 548.102C162.421 547.969 162.056 547.855 161.568 547.76C161.158 547.673 160.787 547.571 160.454 547.452C160.126 547.334 159.846 547.19 159.613 547.021C159.385 546.853 159.21 546.655 159.087 546.427C158.964 546.199 158.902 545.932 158.902 545.627C158.902 545.335 158.966 545.06 159.094 544.8C159.226 544.54 159.41 544.31 159.647 544.109C159.889 543.909 160.178 543.752 160.516 543.638C160.853 543.524 161.229 543.467 161.644 543.467C162.236 543.467 162.742 543.572 163.161 543.781C163.58 543.991 163.902 544.271 164.125 544.622C164.348 544.968 164.46 545.354 164.46 545.777H163.195C163.195 545.572 163.134 545.374 163.011 545.183C162.892 544.987 162.717 544.825 162.484 544.697C162.257 544.57 161.976 544.506 161.644 544.506C161.293 544.506 161.008 544.561 160.789 544.67C160.575 544.775 160.418 544.909 160.317 545.073C160.222 545.237 160.174 545.41 160.174 545.593C160.174 545.729 160.197 545.853 160.242 545.962C160.292 546.067 160.379 546.165 160.502 546.256C160.625 546.342 160.798 546.424 161.021 546.502C161.245 546.579 161.53 546.657 161.876 546.734C162.482 546.871 162.981 547.035 163.373 547.227C163.765 547.418 164.057 547.653 164.248 547.931C164.439 548.209 164.535 548.546 164.535 548.942C164.535 549.266 164.467 549.562 164.33 549.831C164.198 550.1 164.004 550.332 163.749 550.528C163.498 550.72 163.198 550.87 162.847 550.979C162.5 551.084 162.111 551.137 161.678 551.137C161.026 551.137 160.475 551.021 160.023 550.788C159.572 550.556 159.23 550.255 158.998 549.886C158.766 549.517 158.649 549.127 158.649 548.717H159.921C159.939 549.063 160.039 549.339 160.222 549.544C160.404 549.744 160.627 549.888 160.892 549.975C161.156 550.057 161.418 550.098 161.678 550.098C162.024 550.098 162.313 550.052 162.546 549.961C162.783 549.87 162.963 549.744 163.086 549.585C163.209 549.425 163.271 549.243 163.271 549.038ZM167.461 545.025V553.844H166.189V543.604H167.352L167.461 545.025ZM172.444 547.24V547.384C172.444 547.922 172.381 548.421 172.253 548.881C172.125 549.337 171.938 549.733 171.692 550.07C171.451 550.408 171.152 550.67 170.797 550.856C170.441 551.043 170.034 551.137 169.573 551.137C169.104 551.137 168.689 551.059 168.329 550.904C167.969 550.749 167.664 550.524 167.413 550.228C167.162 549.931 166.962 549.576 166.812 549.161C166.666 548.746 166.565 548.279 166.511 547.76V546.994C166.565 546.447 166.668 545.957 166.818 545.524C166.969 545.091 167.167 544.722 167.413 544.417C167.664 544.107 167.967 543.872 168.322 543.713C168.678 543.549 169.088 543.467 169.553 543.467C170.018 543.467 170.43 543.558 170.79 543.74C171.15 543.918 171.453 544.173 171.699 544.506C171.945 544.839 172.13 545.237 172.253 545.702C172.381 546.162 172.444 546.675 172.444 547.24ZM171.173 547.384V547.24C171.173 546.871 171.134 546.525 171.057 546.201C170.979 545.873 170.858 545.586 170.694 545.34C170.535 545.089 170.33 544.893 170.079 544.752C169.828 544.606 169.53 544.533 169.184 544.533C168.865 544.533 168.587 544.588 168.35 544.697C168.117 544.807 167.919 544.955 167.755 545.142C167.591 545.324 167.456 545.534 167.352 545.771C167.251 546.003 167.176 546.244 167.126 546.495V548.266C167.217 548.585 167.345 548.885 167.509 549.168C167.673 549.446 167.892 549.672 168.165 549.845C168.438 550.013 168.783 550.098 169.197 550.098C169.539 550.098 169.833 550.027 170.079 549.886C170.33 549.74 170.535 549.542 170.694 549.291C170.858 549.04 170.979 548.753 171.057 548.43C171.134 548.102 171.173 547.753 171.173 547.384ZM177.127 551.137C176.612 551.137 176.145 551.05 175.726 550.877C175.311 550.699 174.953 550.451 174.652 550.132C174.356 549.813 174.128 549.435 173.969 548.997C173.809 548.56 173.729 548.081 173.729 547.562V547.274C173.729 546.673 173.818 546.137 173.996 545.668C174.174 545.194 174.415 544.793 174.721 544.465C175.026 544.137 175.372 543.888 175.76 543.72C176.147 543.551 176.548 543.467 176.963 543.467C177.492 543.467 177.947 543.558 178.33 543.74C178.717 543.923 179.034 544.178 179.28 544.506C179.526 544.829 179.709 545.212 179.827 545.654C179.946 546.092 180.005 546.57 180.005 547.09V547.657H174.481V546.625H178.74V546.529C178.722 546.201 178.654 545.882 178.535 545.572C178.421 545.262 178.239 545.007 177.988 544.807C177.738 544.606 177.396 544.506 176.963 544.506C176.676 544.506 176.411 544.567 176.17 544.69C175.928 544.809 175.721 544.987 175.548 545.224C175.375 545.461 175.24 545.75 175.145 546.092C175.049 546.434 175.001 546.828 175.001 547.274V547.562C175.001 547.912 175.049 548.243 175.145 548.553C175.245 548.858 175.388 549.127 175.575 549.359C175.767 549.592 175.997 549.774 176.266 549.906C176.539 550.038 176.849 550.104 177.195 550.104C177.642 550.104 178.02 550.013 178.33 549.831C178.64 549.649 178.911 549.405 179.144 549.1L179.909 549.708C179.75 549.95 179.547 550.18 179.301 550.398C179.055 550.617 178.752 550.795 178.392 550.932C178.036 551.068 177.615 551.137 177.127 551.137ZM184.551 551.137C184.036 551.137 183.569 551.05 183.149 550.877C182.735 550.699 182.377 550.451 182.076 550.132C181.78 549.813 181.552 549.435 181.393 548.997C181.233 548.56 181.153 548.081 181.153 547.562V547.274C181.153 546.673 181.242 546.137 181.42 545.668C181.598 545.194 181.839 544.793 182.145 544.465C182.45 544.137 182.796 543.888 183.184 543.72C183.571 543.551 183.972 543.467 184.387 543.467C184.915 543.467 185.371 543.558 185.754 543.74C186.141 543.923 186.458 544.178 186.704 544.506C186.95 544.829 187.132 545.212 187.251 545.654C187.369 546.092 187.429 546.57 187.429 547.09V547.657H181.905V546.625H186.164V546.529C186.146 546.201 186.077 545.882 185.959 545.572C185.845 545.262 185.663 545.007 185.412 544.807C185.161 544.606 184.82 544.506 184.387 544.506C184.1 544.506 183.835 544.567 183.594 544.69C183.352 544.809 183.145 544.987 182.972 545.224C182.799 545.461 182.664 545.75 182.568 546.092C182.473 546.434 182.425 546.828 182.425 547.274V547.562C182.425 547.912 182.473 548.243 182.568 548.553C182.669 548.858 182.812 549.127 182.999 549.359C183.19 549.592 183.421 549.774 183.689 549.906C183.963 550.038 184.273 550.104 184.619 550.104C185.066 550.104 185.444 550.013 185.754 549.831C186.064 549.649 186.335 549.405 186.567 549.1L187.333 549.708C187.174 549.95 186.971 550.18 186.725 550.398C186.479 550.617 186.175 550.795 185.815 550.932C185.46 551.068 185.038 551.137 184.551 551.137ZM193.567 549.564V540.5H194.839V551H193.677L193.567 549.564ZM188.591 547.384V547.24C188.591 546.675 188.659 546.162 188.796 545.702C188.937 545.237 189.135 544.839 189.391 544.506C189.65 544.173 189.958 543.918 190.313 543.74C190.674 543.558 191.075 543.467 191.517 543.467C191.981 543.467 192.387 543.549 192.733 543.713C193.084 543.872 193.381 544.107 193.622 544.417C193.868 544.722 194.062 545.091 194.203 545.524C194.344 545.957 194.442 546.447 194.497 546.994V547.623C194.447 548.165 194.349 548.653 194.203 549.086C194.062 549.519 193.868 549.888 193.622 550.193C193.381 550.499 193.084 550.733 192.733 550.897C192.382 551.057 191.972 551.137 191.503 551.137C191.07 551.137 190.674 551.043 190.313 550.856C189.958 550.67 189.65 550.408 189.391 550.07C189.135 549.733 188.937 549.337 188.796 548.881C188.659 548.421 188.591 547.922 188.591 547.384ZM189.862 547.24V547.384C189.862 547.753 189.899 548.099 189.972 548.423C190.049 548.746 190.168 549.031 190.327 549.277C190.487 549.523 190.689 549.717 190.936 549.858C191.182 549.995 191.476 550.063 191.817 550.063C192.237 550.063 192.581 549.975 192.85 549.797C193.123 549.619 193.342 549.384 193.506 549.093C193.67 548.801 193.798 548.484 193.889 548.143V546.495C193.834 546.244 193.754 546.003 193.649 545.771C193.549 545.534 193.417 545.324 193.253 545.142C193.093 544.955 192.895 544.807 192.658 544.697C192.426 544.588 192.15 544.533 191.831 544.533C191.485 544.533 191.186 544.606 190.936 544.752C190.689 544.893 190.487 545.089 190.327 545.34C190.168 545.586 190.049 545.873 189.972 546.201C189.899 546.525 189.862 546.871 189.862 547.24ZM196.753 550.33C196.753 550.116 196.819 549.936 196.951 549.79C197.088 549.64 197.284 549.564 197.539 549.564C197.794 549.564 197.988 549.64 198.12 549.79C198.257 549.936 198.325 550.116 198.325 550.33C198.325 550.54 198.257 550.717 198.12 550.863C197.988 551.009 197.794 551.082 197.539 551.082C197.284 551.082 197.088 551.009 196.951 550.863C196.819 550.717 196.753 550.54 196.753 550.33ZM196.76 544.294C196.76 544.08 196.826 543.9 196.958 543.754C197.095 543.604 197.291 543.528 197.546 543.528C197.801 543.528 197.995 543.604 198.127 543.754C198.264 543.9 198.332 544.08 198.332 544.294C198.332 544.504 198.264 544.681 198.127 544.827C197.995 544.973 197.801 545.046 197.546 545.046C197.291 545.046 197.095 544.973 196.958 544.827C196.826 544.681 196.76 544.504 196.76 544.294ZM200.15 547.021V546.953C200.15 545.96 200.262 545.062 200.485 544.26C200.709 543.453 200.993 542.747 201.34 542.141C201.686 541.535 202.051 541.033 202.434 540.637C202.816 540.236 203.17 539.946 203.493 539.769L203.76 540.603C203.491 540.808 203.217 541.09 202.939 541.45C202.666 541.81 202.413 542.252 202.181 542.776C201.953 543.3 201.768 543.909 201.627 544.602C201.486 545.294 201.415 546.074 201.415 546.939V547.035C201.415 547.901 201.486 548.683 201.627 549.38C201.768 550.073 201.953 550.683 202.181 551.212C202.413 551.741 202.666 552.189 202.939 552.559C203.217 552.932 203.491 553.229 203.76 553.447L203.493 554.213C203.17 554.035 202.816 553.746 202.434 553.345C202.051 552.948 201.686 552.447 201.34 551.841C200.993 551.239 200.709 550.535 200.485 549.729C200.262 548.922 200.15 548.02 200.15 547.021ZM211.389 545.661V546.851H204.566V545.661H211.389ZM208.613 542.756V550.002H207.349V542.756H208.613ZM216.96 540.992V551H215.695V542.571L213.146 543.501V542.359L216.762 540.992H216.96ZM226.927 545.23V546.748C226.927 547.564 226.854 548.252 226.708 548.812C226.562 549.373 226.353 549.824 226.079 550.166C225.806 550.508 225.475 550.756 225.088 550.911C224.705 551.062 224.272 551.137 223.789 551.137C223.406 551.137 223.053 551.089 222.729 550.993C222.406 550.897 222.114 550.745 221.854 550.535C221.599 550.321 221.381 550.043 221.198 549.701C221.016 549.359 220.877 548.945 220.781 548.457C220.686 547.969 220.638 547.4 220.638 546.748V545.23C220.638 544.415 220.711 543.731 220.856 543.18C221.007 542.628 221.219 542.186 221.492 541.854C221.766 541.516 222.094 541.275 222.477 541.129C222.864 540.983 223.297 540.91 223.775 540.91C224.163 540.91 224.518 540.958 224.842 541.054C225.17 541.145 225.462 541.293 225.717 541.498C225.972 541.699 226.188 541.967 226.366 542.305C226.549 542.637 226.688 543.045 226.783 543.528C226.879 544.011 226.927 544.579 226.927 545.23ZM225.655 546.953V545.019C225.655 544.572 225.628 544.18 225.573 543.843C225.523 543.501 225.448 543.209 225.348 542.968C225.247 542.726 225.12 542.53 224.965 542.38C224.814 542.229 224.639 542.12 224.438 542.052C224.243 541.979 224.021 541.942 223.775 541.942C223.475 541.942 223.208 541.999 222.976 542.113C222.743 542.223 222.547 542.398 222.388 542.64C222.233 542.881 222.114 543.198 222.032 543.59C221.95 543.982 221.909 544.458 221.909 545.019V546.953C221.909 547.4 221.934 547.794 221.984 548.136C222.039 548.478 222.119 548.774 222.224 549.024C222.328 549.271 222.456 549.473 222.606 549.633C222.757 549.792 222.93 549.911 223.126 549.988C223.326 550.061 223.548 550.098 223.789 550.098C224.099 550.098 224.37 550.038 224.603 549.92C224.835 549.801 225.029 549.617 225.184 549.366C225.343 549.111 225.462 548.785 225.539 548.389C225.617 547.988 225.655 547.509 225.655 546.953ZM229.839 549.496V550.515C229.839 550.929 229.734 551.367 229.524 551.827C229.315 552.292 229.021 552.679 228.643 552.989L227.925 552.49C228.071 552.29 228.194 552.085 228.294 551.875C228.394 551.67 228.469 551.456 228.52 551.232C228.574 551.014 228.602 550.781 228.602 550.535V549.496H229.839ZM237.844 545.661V546.851H231.021V545.661H237.844ZM235.068 542.756V550.002H233.804V542.756H235.068ZM243.415 540.992V551H242.15V542.571L239.601 543.501V542.359L243.217 540.992H243.415ZM253.382 545.23V546.748C253.382 547.564 253.309 548.252 253.163 548.812C253.017 549.373 252.808 549.824 252.534 550.166C252.261 550.508 251.93 550.756 251.543 550.911C251.16 551.062 250.727 551.137 250.244 551.137C249.861 551.137 249.508 551.089 249.185 550.993C248.861 550.897 248.569 550.745 248.31 550.535C248.054 550.321 247.836 550.043 247.653 549.701C247.471 549.359 247.332 548.945 247.236 548.457C247.141 547.969 247.093 547.4 247.093 546.748V545.23C247.093 544.415 247.166 543.731 247.312 543.18C247.462 542.628 247.674 542.186 247.947 541.854C248.221 541.516 248.549 541.275 248.932 541.129C249.319 540.983 249.752 540.91 250.23 540.91C250.618 540.91 250.973 540.958 251.297 541.054C251.625 541.145 251.917 541.293 252.172 541.498C252.427 541.699 252.644 541.967 252.821 542.305C253.004 542.637 253.143 543.045 253.238 543.528C253.334 544.011 253.382 544.579 253.382 545.23ZM252.11 546.953V545.019C252.11 544.572 252.083 544.18 252.028 543.843C251.978 543.501 251.903 543.209 251.803 542.968C251.702 542.726 251.575 542.53 251.42 542.38C251.27 542.229 251.094 542.12 250.894 542.052C250.698 541.979 250.477 541.942 250.23 541.942C249.93 541.942 249.663 541.999 249.431 542.113C249.198 542.223 249.002 542.398 248.843 542.64C248.688 542.881 248.569 543.198 248.487 543.59C248.405 543.982 248.364 544.458 248.364 545.019V546.953C248.364 547.4 248.389 547.794 248.439 548.136C248.494 548.478 248.574 548.774 248.679 549.024C248.784 549.271 248.911 549.473 249.062 549.633C249.212 549.792 249.385 549.911 249.581 549.988C249.782 550.061 250.003 550.098 250.244 550.098C250.554 550.098 250.825 550.038 251.058 549.92C251.29 549.801 251.484 549.617 251.639 549.366C251.798 549.111 251.917 548.785 251.994 548.389C252.072 547.988 252.11 547.509 252.11 546.953ZM258.058 546.953V547.021C258.058 548.02 257.946 548.922 257.723 549.729C257.499 550.535 257.215 551.239 256.868 551.841C256.522 552.447 256.157 552.948 255.774 553.345C255.392 553.746 255.038 554.035 254.715 554.213L254.448 553.447C254.717 553.242 254.988 552.955 255.262 552.586C255.535 552.221 255.788 551.77 256.021 551.232C256.253 550.699 256.44 550.084 256.581 549.387C256.722 548.685 256.793 547.901 256.793 547.035V546.939C256.793 546.074 256.718 545.292 256.567 544.595C256.417 543.893 256.221 543.275 255.979 542.742C255.743 542.209 255.487 541.76 255.214 541.396C254.945 541.026 254.69 540.742 254.448 540.541L254.715 539.769C255.038 539.946 255.392 540.236 255.774 540.637C256.157 541.033 256.522 541.535 256.868 542.141C257.215 542.747 257.499 543.453 257.723 544.26C257.946 545.062 258.058 545.96 258.058 546.953Z" fill="white"/>
<path d="M138.349 109.961V111H131.834V110.091L135.095 106.461C135.496 106.014 135.806 105.636 136.024 105.326C136.248 105.012 136.403 104.731 136.489 104.485C136.58 104.235 136.626 103.979 136.626 103.72C136.626 103.392 136.558 103.095 136.421 102.831C136.289 102.562 136.093 102.348 135.833 102.188C135.573 102.029 135.259 101.949 134.89 101.949C134.448 101.949 134.078 102.036 133.782 102.209C133.491 102.378 133.272 102.615 133.126 102.92C132.98 103.225 132.907 103.576 132.907 103.973H131.643C131.643 103.412 131.766 102.899 132.012 102.435C132.258 101.97 132.622 101.601 133.105 101.327C133.589 101.049 134.183 100.91 134.89 100.91C135.519 100.91 136.056 101.022 136.503 101.245C136.95 101.464 137.291 101.774 137.528 102.175C137.77 102.571 137.891 103.036 137.891 103.569C137.891 103.861 137.84 104.157 137.74 104.458C137.645 104.754 137.51 105.05 137.337 105.347C137.168 105.643 136.97 105.935 136.742 106.222C136.519 106.509 136.28 106.791 136.024 107.069L133.358 109.961H138.349ZM143.701 107.097H141.042V106.023H143.701C144.216 106.023 144.633 105.941 144.952 105.777C145.271 105.613 145.504 105.385 145.649 105.094C145.8 104.802 145.875 104.469 145.875 104.096C145.875 103.754 145.8 103.433 145.649 103.132C145.504 102.831 145.271 102.59 144.952 102.407C144.633 102.22 144.216 102.127 143.701 102.127H141.35V111H140.03V101.047H143.701C144.453 101.047 145.089 101.177 145.608 101.437C146.128 101.696 146.522 102.056 146.791 102.517C147.06 102.972 147.194 103.494 147.194 104.082C147.194 104.72 147.06 105.265 146.791 105.716C146.522 106.167 146.128 106.511 145.608 106.748C145.089 106.98 144.453 107.097 143.701 107.097Z" fill="#0055FB"/>
<path d="M163.271 109.038C163.271 108.856 163.229 108.687 163.147 108.532C163.07 108.373 162.908 108.229 162.662 108.102C162.421 107.969 162.056 107.855 161.568 107.76C161.158 107.673 160.787 107.571 160.454 107.452C160.126 107.334 159.846 107.19 159.613 107.021C159.385 106.853 159.21 106.655 159.087 106.427C158.964 106.199 158.902 105.932 158.902 105.627C158.902 105.335 158.966 105.06 159.094 104.8C159.226 104.54 159.41 104.31 159.647 104.109C159.889 103.909 160.178 103.752 160.516 103.638C160.853 103.524 161.229 103.467 161.644 103.467C162.236 103.467 162.742 103.572 163.161 103.781C163.58 103.991 163.902 104.271 164.125 104.622C164.348 104.968 164.46 105.354 164.46 105.777H163.195C163.195 105.572 163.134 105.374 163.011 105.183C162.892 104.987 162.717 104.825 162.484 104.697C162.257 104.57 161.976 104.506 161.644 104.506C161.293 104.506 161.008 104.561 160.789 104.67C160.575 104.775 160.418 104.909 160.317 105.073C160.222 105.237 160.174 105.41 160.174 105.593C160.174 105.729 160.197 105.853 160.242 105.962C160.292 106.067 160.379 106.165 160.502 106.256C160.625 106.342 160.798 106.424 161.021 106.502C161.245 106.579 161.53 106.657 161.876 106.734C162.482 106.871 162.981 107.035 163.373 107.227C163.765 107.418 164.057 107.653 164.248 107.931C164.439 108.209 164.535 108.546 164.535 108.942C164.535 109.266 164.467 109.562 164.33 109.831C164.198 110.1 164.004 110.332 163.749 110.528C163.498 110.72 163.198 110.87 162.847 110.979C162.5 111.084 162.111 111.137 161.678 111.137C161.026 111.137 160.475 111.021 160.023 110.788C159.572 110.556 159.23 110.255 158.998 109.886C158.766 109.517 158.649 109.127 158.649 108.717H159.921C159.939 109.063 160.039 109.339 160.222 109.544C160.404 109.744 160.627 109.888 160.892 109.975C161.156 110.057 161.418 110.098 161.678 110.098C162.024 110.098 162.313 110.052 162.546 109.961C162.783 109.87 162.963 109.744 163.086 109.585C163.209 109.425 163.271 109.243 163.271 109.038ZM167.461 105.025V113.844H166.189V103.604H167.352L167.461 105.025ZM172.444 107.24V107.384C172.444 107.922 172.381 108.421 172.253 108.881C172.125 109.337 171.938 109.733 171.692 110.07C171.451 110.408 171.152 110.67 170.797 110.856C170.441 111.043 170.034 111.137 169.573 111.137C169.104 111.137 168.689 111.059 168.329 110.904C167.969 110.749 167.664 110.524 167.413 110.228C167.162 109.931 166.962 109.576 166.812 109.161C166.666 108.746 166.565 108.279 166.511 107.76V106.994C166.565 106.447 166.668 105.957 166.818 105.524C166.969 105.091 167.167 104.722 167.413 104.417C167.664 104.107 167.967 103.872 168.322 103.713C168.678 103.549 169.088 103.467 169.553 103.467C170.018 103.467 170.43 103.558 170.79 103.74C171.15 103.918 171.453 104.173 171.699 104.506C171.945 104.839 172.13 105.237 172.253 105.702C172.381 106.162 172.444 106.675 172.444 107.24ZM171.173 107.384V107.24C171.173 106.871 171.134 106.525 171.057 106.201C170.979 105.873 170.858 105.586 170.694 105.34C170.535 105.089 170.33 104.893 170.079 104.752C169.828 104.606 169.53 104.533 169.184 104.533C168.865 104.533 168.587 104.588 168.35 104.697C168.117 104.807 167.919 104.955 167.755 105.142C167.591 105.324 167.456 105.534 167.352 105.771C167.251 106.003 167.176 106.244 167.126 106.495V108.266C167.217 108.585 167.345 108.885 167.509 109.168C167.673 109.446 167.892 109.672 168.165 109.845C168.438 110.013 168.783 110.098 169.197 110.098C169.539 110.098 169.833 110.027 170.079 109.886C170.33 109.74 170.535 109.542 170.694 109.291C170.858 109.04 170.979 108.753 171.057 108.43C171.134 108.102 171.173 107.753 171.173 107.384ZM177.127 111.137C176.612 111.137 176.145 111.05 175.726 110.877C175.311 110.699 174.953 110.451 174.652 110.132C174.356 109.813 174.128 109.435 173.969 108.997C173.809 108.56 173.729 108.081 173.729 107.562V107.274C173.729 106.673 173.818 106.137 173.996 105.668C174.174 105.194 174.415 104.793 174.721 104.465C175.026 104.137 175.372 103.888 175.76 103.72C176.147 103.551 176.548 103.467 176.963 103.467C177.492 103.467 177.947 103.558 178.33 103.74C178.717 103.923 179.034 104.178 179.28 104.506C179.526 104.829 179.709 105.212 179.827 105.654C179.946 106.092 180.005 106.57 180.005 107.09V107.657H174.481V106.625H178.74V106.529C178.722 106.201 178.654 105.882 178.535 105.572C178.421 105.262 178.239 105.007 177.988 104.807C177.738 104.606 177.396 104.506 176.963 104.506C176.676 104.506 176.411 104.567 176.17 104.69C175.928 104.809 175.721 104.987 175.548 105.224C175.375 105.461 175.24 105.75 175.145 106.092C175.049 106.434 175.001 106.828 175.001 107.274V107.562C175.001 107.912 175.049 108.243 175.145 108.553C175.245 108.858 175.388 109.127 175.575 109.359C175.767 109.592 175.997 109.774 176.266 109.906C176.539 110.038 176.849 110.104 177.195 110.104C177.642 110.104 178.02 110.013 178.33 109.831C178.64 109.649 178.911 109.405 179.144 109.1L179.909 109.708C179.75 109.95 179.547 110.18 179.301 110.398C179.055 110.617 178.752 110.795 178.392 110.932C178.036 111.068 177.615 111.137 177.127 111.137ZM184.551 111.137C184.036 111.137 183.569 111.05 183.149 110.877C182.735 110.699 182.377 110.451 182.076 110.132C181.78 109.813 181.552 109.435 181.393 108.997C181.233 108.56 181.153 108.081 181.153 107.562V107.274C181.153 106.673 181.242 106.137 181.42 105.668C181.598 105.194 181.839 104.793 182.145 104.465C182.45 104.137 182.796 103.888 183.184 103.72C183.571 103.551 183.972 103.467 184.387 103.467C184.915 103.467 185.371 103.558 185.754 103.74C186.141 103.923 186.458 104.178 186.704 104.506C186.95 104.829 187.132 105.212 187.251 105.654C187.369 106.092 187.429 106.57 187.429 107.09V107.657H181.905V106.625H186.164V106.529C186.146 106.201 186.077 105.882 185.959 105.572C185.845 105.262 185.663 105.007 185.412 104.807C185.161 104.606 184.82 104.506 184.387 104.506C184.1 104.506 183.835 104.567 183.594 104.69C183.352 104.809 183.145 104.987 182.972 105.224C182.799 105.461 182.664 105.75 182.568 106.092C182.473 106.434 182.425 106.828 182.425 107.274V107.562C182.425 107.912 182.473 108.243 182.568 108.553C182.669 108.858 182.812 109.127 182.999 109.359C183.19 109.592 183.421 109.774 183.689 109.906C183.963 110.038 184.273 110.104 184.619 110.104C185.066 110.104 185.444 110.013 185.754 109.831C186.064 109.649 186.335 109.405 186.567 109.1L187.333 109.708C187.174 109.95 186.971 110.18 186.725 110.398C186.479 110.617 186.175 110.795 185.815 110.932C185.46 111.068 185.038 111.137 184.551 111.137ZM193.567 109.564V100.5H194.839V111H193.677L193.567 109.564ZM188.591 107.384V107.24C188.591 106.675 188.659 106.162 188.796 105.702C188.937 105.237 189.135 104.839 189.391 104.506C189.65 104.173 189.958 103.918 190.313 103.74C190.674 103.558 191.075 103.467 191.517 103.467C191.981 103.467 192.387 103.549 192.733 103.713C193.084 103.872 193.381 104.107 193.622 104.417C193.868 104.722 194.062 105.091 194.203 105.524C194.344 105.957 194.442 106.447 194.497 106.994V107.623C194.447 108.165 194.349 108.653 194.203 109.086C194.062 109.519 193.868 109.888 193.622 110.193C193.381 110.499 193.084 110.733 192.733 110.897C192.382 111.057 191.972 111.137 191.503 111.137C191.07 111.137 190.674 111.043 190.313 110.856C189.958 110.67 189.65 110.408 189.391 110.07C189.135 109.733 188.937 109.337 188.796 108.881C188.659 108.421 188.591 107.922 188.591 107.384ZM189.862 107.24V107.384C189.862 107.753 189.899 108.099 189.972 108.423C190.049 108.746 190.168 109.031 190.327 109.277C190.487 109.523 190.689 109.717 190.936 109.858C191.182 109.995 191.476 110.063 191.817 110.063C192.237 110.063 192.581 109.975 192.85 109.797C193.123 109.619 193.342 109.384 193.506 109.093C193.67 108.801 193.798 108.484 193.889 108.143V106.495C193.834 106.244 193.754 106.003 193.649 105.771C193.549 105.534 193.417 105.324 193.253 105.142C193.093 104.955 192.895 104.807 192.658 104.697C192.426 104.588 192.15 104.533 191.831 104.533C191.485 104.533 191.186 104.606 190.936 104.752C190.689 104.893 190.487 105.089 190.327 105.34C190.168 105.586 190.049 105.873 189.972 106.201C189.899 106.525 189.862 106.871 189.862 107.24ZM196.753 110.33C196.753 110.116 196.819 109.936 196.951 109.79C197.088 109.64 197.284 109.564 197.539 109.564C197.794 109.564 197.988 109.64 198.12 109.79C198.257 109.936 198.325 110.116 198.325 110.33C198.325 110.54 198.257 110.717 198.12 110.863C197.988 111.009 197.794 111.082 197.539 111.082C197.284 111.082 197.088 111.009 196.951 110.863C196.819 110.717 196.753 110.54 196.753 110.33ZM196.76 104.294C196.76 104.08 196.826 103.9 196.958 103.754C197.095 103.604 197.291 103.528 197.546 103.528C197.801 103.528 197.995 103.604 198.127 103.754C198.264 103.9 198.332 104.08 198.332 104.294C198.332 104.504 198.264 104.681 198.127 104.827C197.995 104.973 197.801 105.046 197.546 105.046C197.291 105.046 197.095 104.973 196.958 104.827C196.826 104.681 196.76 104.504 196.76 104.294ZM200.15 107.021V106.953C200.15 105.96 200.262 105.062 200.485 104.26C200.709 103.453 200.993 102.747 201.34 102.141C201.686 101.535 202.051 101.033 202.434 100.637C202.816 100.236 203.17 99.9463 203.493 99.7686L203.76 100.603C203.491 100.808 203.217 101.09 202.939 101.45C202.666 101.81 202.413 102.252 202.181 102.776C201.953 103.3 201.768 103.909 201.627 104.602C201.486 105.294 201.415 106.074 201.415 106.939V107.035C201.415 107.901 201.486 108.683 201.627 109.38C201.768 110.073 201.953 110.683 202.181 111.212C202.413 111.741 202.666 112.189 202.939 112.559C203.217 112.932 203.491 113.229 203.76 113.447L203.493 114.213C203.17 114.035 202.816 113.746 202.434 113.345C202.051 112.948 201.686 112.447 201.34 111.841C200.993 111.239 200.709 110.535 200.485 109.729C200.262 108.922 200.15 108.02 200.15 107.021ZM211.389 105.661V106.851H204.566V105.661H211.389ZM208.613 102.756V110.002H207.349V102.756H208.613ZM216.96 100.992V111H215.695V102.571L213.146 103.501V102.359L216.762 100.992H216.96ZM226.927 105.23V106.748C226.927 107.564 226.854 108.252 226.708 108.812C226.562 109.373 226.353 109.824 226.079 110.166C225.806 110.508 225.475 110.756 225.088 110.911C224.705 111.062 224.272 111.137 223.789 111.137C223.406 111.137 223.053 111.089 222.729 110.993C222.406 110.897 222.114 110.745 221.854 110.535C221.599 110.321 221.381 110.043 221.198 109.701C221.016 109.359 220.877 108.945 220.781 108.457C220.686 107.969 220.638 107.4 220.638 106.748V105.23C220.638 104.415 220.711 103.731 220.856 103.18C221.007 102.628 221.219 102.186 221.492 101.854C221.766 101.516 222.094 101.275 222.477 101.129C222.864 100.983 223.297 100.91 223.775 100.91C224.163 100.91 224.518 100.958 224.842 101.054C225.17 101.145 225.462 101.293 225.717 101.498C225.972 101.699 226.188 101.967 226.366 102.305C226.549 102.637 226.688 103.045 226.783 103.528C226.879 104.011 226.927 104.579 226.927 105.23ZM225.655 106.953V105.019C225.655 104.572 225.628 104.18 225.573 103.843C225.523 103.501 225.448 103.209 225.348 102.968C225.247 102.726 225.12 102.53 224.965 102.38C224.814 102.229 224.639 102.12 224.438 102.052C224.243 101.979 224.021 101.942 223.775 101.942C223.475 101.942 223.208 101.999 222.976 102.113C222.743 102.223 222.547 102.398 222.388 102.64C222.233 102.881 222.114 103.198 222.032 103.59C221.95 103.982 221.909 104.458 221.909 105.019V106.953C221.909 107.4 221.934 107.794 221.984 108.136C222.039 108.478 222.119 108.774 222.224 109.024C222.328 109.271 222.456 109.473 222.606 109.633C222.757 109.792 222.93 109.911 223.126 109.988C223.326 110.061 223.548 110.098 223.789 110.098C224.099 110.098 224.37 110.038 224.603 109.92C224.835 109.801 225.029 109.617 225.184 109.366C225.343 109.111 225.462 108.785 225.539 108.389C225.617 107.988 225.655 107.509 225.655 106.953ZM229.839 109.496V110.515C229.839 110.929 229.734 111.367 229.524 111.827C229.315 112.292 229.021 112.679 228.643 112.989L227.925 112.49C228.071 112.29 228.194 112.085 228.294 111.875C228.394 111.67 228.469 111.456 228.52 111.232C228.574 111.014 228.602 110.781 228.602 110.535V109.496H229.839ZM237.844 105.661V106.851H231.021V105.661H237.844ZM235.068 102.756V110.002H233.804V102.756H235.068ZM243.415 100.992V111H242.15V102.571L239.601 103.501V102.359L243.217 100.992H243.415ZM253.382 105.23V106.748C253.382 107.564 253.309 108.252 253.163 108.812C253.017 109.373 252.808 109.824 252.534 110.166C252.261 110.508 251.93 110.756 251.543 110.911C251.16 111.062 250.727 111.137 250.244 111.137C249.861 111.137 249.508 111.089 249.185 110.993C248.861 110.897 248.569 110.745 248.31 110.535C248.054 110.321 247.836 110.043 247.653 109.701C247.471 109.359 247.332 108.945 247.236 108.457C247.141 107.969 247.093 107.4 247.093 106.748V105.23C247.093 104.415 247.166 103.731 247.312 103.18C247.462 102.628 247.674 102.186 247.947 101.854C248.221 101.516 248.549 101.275 248.932 101.129C249.319 100.983 249.752 100.91 250.23 100.91C250.618 100.91 250.973 100.958 251.297 101.054C251.625 101.145 251.917 101.293 252.172 101.498C252.427 101.699 252.644 101.967 252.821 102.305C253.004 102.637 253.143 103.045 253.238 103.528C253.334 104.011 253.382 104.579 253.382 105.23ZM252.11 106.953V105.019C252.11 104.572 252.083 104.18 252.028 103.843C251.978 103.501 251.903 103.209 251.803 102.968C251.702 102.726 251.575 102.53 251.42 102.38C251.27 102.229 251.094 102.12 250.894 102.052C250.698 101.979 250.477 101.942 250.23 101.942C249.93 101.942 249.663 101.999 249.431 102.113C249.198 102.223 249.002 102.398 248.843 102.64C248.688 102.881 248.569 103.198 248.487 103.59C248.405 103.982 248.364 104.458 248.364 105.019V106.953C248.364 107.4 248.389 107.794 248.439 108.136C248.494 108.478 248.574 108.774 248.679 109.024C248.784 109.271 248.911 109.473 249.062 109.633C249.212 109.792 249.385 109.911 249.581 109.988C249.782 110.061 250.003 110.098 250.244 110.098C250.554 110.098 250.825 110.038 251.058 109.92C251.29 109.801 251.484 109.617 251.639 109.366C251.798 109.111 251.917 108.785 251.994 108.389C252.072 107.988 252.11 107.509 252.11 106.953ZM258.058 106.953V107.021C258.058 108.02 257.946 108.922 257.723 109.729C257.499 110.535 257.215 111.239 256.868 111.841C256.522 112.447 256.157 112.948 255.774 113.345C255.392 113.746 255.038 114.035 254.715 114.213L254.448 113.447C254.717 113.242 254.988 112.955 255.262 112.586C255.535 112.221 255.788 111.77 256.021 111.232C256.253 110.699 256.44 110.084 256.581 109.387C256.722 108.685 256.793 107.901 256.793 107.035V106.939C256.793 106.074 256.718 105.292 256.567 104.595C256.417 103.893 256.221 103.275 255.979 102.742C255.743 102.209 255.487 101.76 255.214 101.396C254.945 101.026 254.69 100.742 254.448 100.541L254.715 99.7686C255.038 99.9463 255.392 100.236 255.774 100.637C256.157 101.033 256.522 101.535 256.868 102.141C257.215 102.747 257.499 103.453 257.723 104.26C257.946 105.062 258.058 105.96 258.058 106.953Z" fill="white"/>
<path fill-rule="evenodd" clip-rule="evenodd" d="M230 498H192V499H191V502H192V503H230V502H231V499H230V498ZM230 499V502H192V499H230Z" fill="#212121"/>
<rect x="192" y="499" width="38" height="2" fill="#FF4A4A"/>
<rect x="192" y="501" width="38" height="1" fill="#D82B2B"/>
<path fill-rule="evenodd" clip-rule="evenodd" d="M230 148H192V149H191V152H192V153H230V152H231V149H230V148ZM230 149V152H192V149H230Z" fill="#212121"/>
<rect x="192" y="149" width="38" height="2" fill="#2DB9D7"/>
<rect x="192" y="151" width="38" height="1" fill="#0088A5"/>
<path fill-rule="evenodd" clip-rule="evenodd" d="M212 493H209V494H208V497H209V498H212V497H213V494H212V493ZM212 494V497H209V494H212Z" fill="#212121"/>
<rect x="209" y="494" width="3" height="2" fill="#43E27E"/>
<rect x="209" y="496" width="3" height="1" fill="#0D9841"/>
<path fill-rule="evenodd" clip-rule="evenodd" d="M197 316H169V317H168V335H169V336H197V335H198V317H197V316ZM197 317V335H169V317H197Z" fill="#212121"/>
<rect x="169" y="317" width="28" height="16" fill="#E09E42"/>
<path d="M169 317H170V318H171V333H195V318H196V317H197V335H169L169 317Z" fill="#C17306"/>
<rect x="65" y="318" width="28" height="20" rx="3.5" fill="#FF55B1"/>
<path d="M71.7889 332.109C71.2993 332.109 70.8592 332.016 70.4686 331.828C70.0806 331.638 69.7707 331.378 69.5389 331.047C69.3072 330.716 69.1835 330.339 69.1678 329.914H70.3397C70.3684 330.258 70.5207 330.54 70.7967 330.762C71.0728 330.983 71.4035 331.094 71.7889 331.094C72.0962 331.094 72.3684 331.023 72.6053 330.883C72.8449 330.74 73.0324 330.543 73.1678 330.293C73.3059 330.043 73.3749 329.758 73.3749 329.437C73.3749 329.112 73.3046 328.822 73.1639 328.566C73.0233 328.311 72.8293 328.111 72.5819 327.965C72.3371 327.819 72.0559 327.745 71.7381 327.742C71.496 327.742 71.2525 327.784 71.0077 327.867C70.7629 327.951 70.565 328.06 70.4139 328.195L69.3085 328.031L69.7577 324H74.1561V325.035H70.7616L70.5077 327.273H70.5546C70.7108 327.122 70.9178 326.996 71.1756 326.895C71.4361 326.793 71.7147 326.742 72.0116 326.742C72.4986 326.742 72.9322 326.858 73.3124 327.09C73.6952 327.322 73.996 327.638 74.2147 328.039C74.4361 328.437 74.5454 328.896 74.5428 329.414C74.5454 329.932 74.4282 330.395 74.1913 330.801C73.9569 331.207 73.6314 331.527 73.2147 331.762C72.8006 331.993 72.3254 332.109 71.7889 332.109ZM78.8647 332.133C78.2476 332.13 77.7202 331.967 77.2827 331.645C76.8452 331.322 76.5106 330.852 76.2788 330.234C76.047 329.617 75.9312 328.874 75.9312 328.004C75.9312 327.137 76.047 326.396 76.2788 325.781C76.5132 325.167 76.8491 324.698 77.2866 324.375C77.7267 324.052 78.2528 323.891 78.8647 323.891C79.4767 323.891 80.0015 324.053 80.439 324.379C80.8765 324.702 81.2111 325.171 81.4429 325.785C81.6772 326.397 81.7944 327.137 81.7944 328.004C81.7944 328.876 81.6785 329.621 81.4468 330.238C81.215 330.853 80.8804 331.323 80.4429 331.648C80.0054 331.971 79.4793 332.133 78.8647 332.133ZM78.8647 331.09C79.4064 331.09 79.8296 330.826 80.1343 330.297C80.4416 329.768 80.5952 329.004 80.5952 328.004C80.5952 327.34 80.5249 326.779 80.3843 326.32C80.2463 325.859 80.047 325.51 79.7866 325.273C79.5288 325.034 79.2215 324.914 78.8647 324.914C78.3257 324.914 77.9025 325.18 77.5952 325.711C77.2879 326.242 77.133 327.007 77.1304 328.004C77.1304 328.671 77.1994 329.234 77.3374 329.695C77.478 330.154 77.6772 330.501 77.9351 330.738C78.1929 330.973 78.5028 331.09 78.8647 331.09ZM86.0753 332.133C85.4581 332.13 84.9308 331.967 84.4933 331.645C84.0558 331.322 83.7212 330.852 83.4894 330.234C83.2576 329.617 83.1417 328.874 83.1417 328.004C83.1417 327.137 83.2576 326.396 83.4894 325.781C83.7238 325.167 84.0597 324.698 84.4972 324.375C84.9373 324.052 85.4634 323.891 86.0753 323.891C86.6873 323.891 87.2121 324.053 87.6496 324.379C88.0871 324.702 88.4217 325.171 88.6535 325.785C88.8878 326.397 89.005 327.137 89.005 328.004C89.005 328.876 88.8891 329.621 88.6574 330.238C88.4256 330.853 88.091 331.323 87.6535 331.648C87.216 331.971 86.6899 332.133 86.0753 332.133ZM86.0753 331.09C86.617 331.09 87.0402 330.826 87.3449 330.297C87.6522 329.768 87.8058 329.004 87.8058 328.004C87.8058 327.34 87.7355 326.779 87.5949 326.32C87.4568 325.859 87.2576 325.51 86.9972 325.273C86.7394 325.034 86.4321 324.914 86.0753 324.914C85.5363 324.914 85.1131 325.18 84.8058 325.711C84.4985 326.242 84.3436 327.007 84.341 328.004C84.341 328.671 84.41 329.234 84.548 329.695C84.6886 330.154 84.8878 330.501 85.1456 330.738C85.4035 330.973 85.7134 331.09 86.0753 331.09Z" fill="white"/>
<path d="M99.5 78V578" stroke="#FF55B1"/>
<path d="M97 78H103" stroke="#FF55B1"/>
<path d="M97 578H103" stroke="#FF55B1"/>
<path d="M111 67H311" stroke="#FF55B1"/>
<path d="M111 64V70" stroke="#FF55B1"/>
<path d="M311 64V70" stroke="#FF55B1"/>
<rect x="197" y="40" width="28" height="20" rx="3.5" fill="#FF55B1"/>
<path d="M201.186 54V53.125L203.893 50.3203C204.182 50.0156 204.42 49.7487 204.608 49.5195C204.798 49.2878 204.94 49.0677 205.034 48.8594C205.127 48.651 205.174 48.4297 205.174 48.1953C205.174 47.9297 205.112 47.7005 204.987 47.5078C204.862 47.3125 204.691 47.1628 204.475 47.0586C204.259 46.9518 204.015 46.8984 203.744 46.8984C203.458 46.8984 203.208 46.957 202.994 47.0742C202.781 47.1914 202.617 47.3568 202.502 47.5703C202.388 47.7839 202.33 48.0339 202.33 48.3203H201.178C201.178 47.8333 201.29 47.4076 201.514 47.043C201.738 46.6784 202.045 46.3958 202.436 46.1953C202.827 45.9922 203.271 45.8906 203.768 45.8906C204.271 45.8906 204.713 45.9909 205.096 46.1914C205.481 46.3893 205.782 46.6602 205.998 47.0039C206.215 47.3451 206.323 47.7305 206.323 48.1602C206.323 48.457 206.267 48.7474 206.155 49.0312C206.045 49.3151 205.854 49.6315 205.58 49.9805C205.307 50.3268 204.927 50.7474 204.44 51.2422L202.85 52.9062V52.9648H206.452V54H201.186ZM210.827 54.1328C210.21 54.1302 209.683 53.9674 209.245 53.6445C208.808 53.3216 208.473 52.8516 208.241 52.2344C208.009 51.6172 207.894 50.8737 207.894 50.0039C207.894 49.1367 208.009 48.3958 208.241 47.7812C208.476 47.1667 208.812 46.6979 209.249 46.375C209.689 46.0521 210.215 45.8906 210.827 45.8906C211.439 45.8906 211.964 46.0534 212.401 46.3789C212.839 46.7018 213.174 47.1706 213.405 47.7852C213.64 48.3971 213.757 49.1367 213.757 50.0039C213.757 50.8763 213.641 51.6211 213.409 52.2383C213.177 52.8529 212.843 53.3229 212.405 53.6484C211.968 53.9714 211.442 54.1328 210.827 54.1328ZM210.827 53.0898C211.369 53.0898 211.792 52.8255 212.097 52.2969C212.404 51.7682 212.558 51.0039 212.558 50.0039C212.558 49.3398 212.487 48.7786 212.347 48.3203C212.209 47.8594 212.009 47.5104 211.749 47.2734C211.491 47.0339 211.184 46.9141 210.827 46.9141C210.288 46.9141 209.865 47.1797 209.558 47.7109C209.25 48.2422 209.095 49.0065 209.093 50.0039C209.093 50.6706 209.162 51.2344 209.3 51.6953C209.44 52.1536 209.64 52.5013 209.897 52.7383C210.155 52.9727 210.465 53.0898 210.827 53.0898ZM218.038 54.1328C217.421 54.1302 216.893 53.9674 216.456 53.6445C216.018 53.3216 215.684 52.8516 215.452 52.2344C215.22 51.6172 215.104 50.8737 215.104 50.0039C215.104 49.1367 215.22 48.3958 215.452 47.7812C215.686 47.1667 216.022 46.6979 216.46 46.375C216.9 46.0521 217.426 45.8906 218.038 45.8906C218.65 45.8906 219.174 46.0534 219.612 46.3789C220.049 46.7018 220.384 47.1706 220.616 47.7852C220.85 48.3971 220.967 49.1367 220.967 50.0039C220.967 50.8763 220.852 51.6211 220.62 52.2383C220.388 52.8529 220.053 53.3229 219.616 53.6484C219.178 53.9714 218.652 54.1328 218.038 54.1328ZM218.038 53.0898C218.579 53.0898 219.003 52.8255 219.307 52.2969C219.615 51.7682 219.768 51.0039 219.768 50.0039C219.768 49.3398 219.698 48.7786 219.557 48.3203C219.419 47.8594 219.22 47.5104 218.96 47.2734C218.702 47.0339 218.395 46.9141 218.038 46.9141C217.499 46.9141 217.075 47.1797 216.768 47.7109C216.461 48.2422 216.306 49.0065 216.303 50.0039C216.303 50.6706 216.372 51.2344 216.51 51.6953C216.651 52.1536 216.85 52.5013 217.108 52.7383C217.366 52.9727 217.676 53.0898 218.038 53.0898Z" fill="white"/>
<path fill-rule="evenodd" clip-rule="evenodd" d="M424.25 78.2002H418.25V80.2002H416.25V86.2002H418.25V88.2002H424.25V86.2002H426.25V80.2002H424.25V78.2002ZM424.25 80.2002V86.2002H418.25V80.2002H424.25Z" fill="#212121"/>
<rect x="418.25" y="80.2002" width="6" height="4" fill="#43E27E"/>
<rect x="418.25" y="84.2002" width="6" height="2" fill="#0D9841"/>
<path d="M404.75 78.2002V88.2002" stroke="#FF55B1"/>
<path d="M401.75 78.2002H407.75" stroke="#FF55B1"/>
<path d="M401.75 88.2002H407.75" stroke="#FF55B1"/>
<rect x="384.75" y="73.2002" width="13" height="20" rx="3.5" fill="#FF55B1"/>
<path d="M391.25 87.3096C390.76 87.3096 390.32 87.2158 389.929 87.0283C389.541 86.8382 389.231 86.5778 389 86.2471C388.768 85.9163 388.644 85.5387 388.628 85.1143H389.8C389.829 85.458 389.981 85.7406 390.257 85.9619C390.533 86.1833 390.864 86.2939 391.25 86.2939C391.557 86.2939 391.829 86.2236 392.066 86.083C392.306 85.9398 392.493 85.7432 392.628 85.4932C392.766 85.2432 392.835 84.958 392.835 84.6377C392.835 84.3122 392.765 84.0218 392.625 83.7666C392.484 83.5114 392.29 83.3109 392.042 83.165C391.798 83.0192 391.516 82.945 391.199 82.9424C390.957 82.9424 390.713 82.984 390.468 83.0674C390.223 83.1507 390.026 83.2601 389.875 83.3955L388.769 83.2314L389.218 79.2002H393.617V80.2354H390.222L389.968 82.4736H390.015C390.171 82.3226 390.378 82.1963 390.636 82.0947C390.897 81.9932 391.175 81.9424 391.472 81.9424C391.959 81.9424 392.393 82.0583 392.773 82.29C393.156 82.5218 393.457 82.8382 393.675 83.2393C393.897 83.6377 394.006 84.096 394.003 84.6143C394.006 85.1325 393.889 85.5947 393.652 86.001C393.417 86.4072 393.092 86.7275 392.675 86.9619C392.261 87.1937 391.786 87.3096 391.25 87.3096Z" fill="white"/>
<path d="M416.25 67H426.25" stroke="#FF55B1"/>
<path d="M416.25 64V70" stroke="#FF55B1"/>
<path d="M426.25 64V70" stroke="#FF55B1"/>
<rect x="415.25" y="40" width="13" height="20" rx="3.5" fill="#FF55B1"/>
<path d="M421.75 54.1094C421.26 54.1094 420.82 54.0156 420.429 53.8281C420.041 53.638 419.731 53.3776 419.5 53.0469C419.268 52.7161 419.144 52.3385 419.128 51.9141H420.3C420.329 52.2578 420.481 52.5404 420.757 52.7617C421.033 52.9831 421.364 53.0937 421.75 53.0937C422.057 53.0937 422.329 53.0234 422.566 52.8828C422.806 52.7396 422.993 52.543 423.128 52.293C423.266 52.043 423.335 51.7578 423.335 51.4375C423.335 51.112 423.265 50.8216 423.125 50.5664C422.984 50.3112 422.79 50.1107 422.542 49.9648C422.298 49.819 422.016 49.7448 421.699 49.7422C421.457 49.7422 421.213 49.7839 420.968 49.8672C420.723 49.9505 420.526 50.0599 420.375 50.1953L419.269 50.0312L419.718 46H424.117V47.0352H420.722L420.468 49.2734H420.515C420.671 49.1224 420.878 48.9961 421.136 48.8945C421.397 48.793 421.675 48.7422 421.972 48.7422C422.459 48.7422 422.893 48.8581 423.273 49.0898C423.656 49.3216 423.957 49.638 424.175 50.0391C424.397 50.4375 424.506 50.8958 424.503 51.4141C424.506 51.9323 424.389 52.3945 424.152 52.8008C423.917 53.207 423.592 53.5273 423.175 53.7617C422.761 53.9935 422.286 54.1094 421.75 54.1094Z" fill="white"/>
<path fill-rule="evenodd" clip-rule="evenodd" d="M460 227.2H384V229.2H382V235.2H384V237.2H460V235.2H462V229.2H460V227.2ZM460 229.2V235.2H384V229.2H460Z" fill="#212121"/>
<rect x="384" y="229.2" width="76" height="4" fill="#2DB9D7"/>
<rect x="384" y="233.2" width="76" height="2" fill="#0088A5"/>
<path d="M371 227.2V237.2" stroke="#FF55B1"/>
<path d="M368 227.2H374" stroke="#FF55B1"/>
<path d="M368 237.2H374" stroke="#FF55B1"/>
<rect x="351" y="222.2" width="13" height="20" rx="3.5" fill="#FF55B1"/>
<path d="M357.5 236.31C357.01 236.31 356.57 236.216 356.179 236.028C355.791 235.838 355.481 235.578 355.25 235.247C355.018 234.916 354.894 234.539 354.878 234.114H356.05C356.079 234.458 356.231 234.741 356.507 234.962C356.783 235.183 357.114 235.294 357.5 235.294C357.807 235.294 358.079 235.224 358.316 235.083C358.556 234.94 358.743 234.743 358.878 234.493C359.016 234.243 359.085 233.958 359.085 233.638C359.085 233.312 359.015 233.022 358.875 232.767C358.734 232.511 358.54 232.311 358.292 232.165C358.048 232.019 357.766 231.945 357.449 231.942C357.207 231.942 356.963 231.984 356.718 232.067C356.473 232.151 356.276 232.26 356.125 232.396L355.019 232.231L355.468 228.2H359.867V229.235H356.472L356.218 231.474H356.265C356.421 231.323 356.628 231.196 356.886 231.095C357.147 230.993 357.425 230.942 357.722 230.942C358.209 230.942 358.643 231.058 359.023 231.29C359.406 231.522 359.707 231.838 359.925 232.239C360.147 232.638 360.256 233.096 360.253 233.614C360.256 234.132 360.139 234.595 359.902 235.001C359.667 235.407 359.342 235.728 358.925 235.962C358.511 236.194 358.036 236.31 357.5 236.31Z" fill="white"/>
<path d="M382 216.2H462" stroke="#FF55B1"/>
<path d="M382 213.2V219.2" stroke="#FF55B1"/>
<path d="M462 213.2V219.2" stroke="#FF55B1"/>
<rect x="411" y="189.2" width="21" height="20" rx="3.5" fill="#FF55B1"/>
<path d="M414.898 201.638V200.661L418.355 195.2H419.124V196.638H418.636L416.163 200.552V200.614H420.902V201.638H414.898ZM418.691 203.2V201.341L418.698 200.896V195.2H419.843V203.2H418.691ZM425.158 203.333C424.541 203.33 424.013 203.168 423.576 202.845C423.138 202.522 422.804 202.052 422.572 201.435C422.34 200.817 422.224 200.074 422.224 199.204C422.224 198.337 422.34 197.596 422.572 196.981C422.806 196.367 423.142 195.898 423.58 195.575C424.02 195.252 424.546 195.091 425.158 195.091C425.77 195.091 426.295 195.254 426.732 195.579C427.17 195.902 427.504 196.371 427.736 196.985C427.971 197.597 428.088 198.337 428.088 199.204C428.088 200.076 427.972 200.821 427.74 201.438C427.508 202.053 427.174 202.523 426.736 202.849C426.299 203.172 425.773 203.333 425.158 203.333ZM425.158 202.29C425.7 202.29 426.123 202.026 426.428 201.497C426.735 200.968 426.888 200.204 426.888 199.204C426.888 198.54 426.818 197.979 426.678 197.521C426.54 197.06 426.34 196.711 426.08 196.474C425.822 196.234 425.515 196.114 425.158 196.114C424.619 196.114 424.196 196.38 423.888 196.911C423.581 197.442 423.426 198.207 423.424 199.204C423.424 199.871 423.493 200.435 423.631 200.896C423.771 201.354 423.971 201.701 424.228 201.938C424.486 202.173 424.796 202.29 425.158 202.29Z" fill="white"/>
<path fill-rule="evenodd" clip-rule="evenodd" d="M460 376.2H384V378.2H382V384.2H384V386.2H460V384.2H462V378.2H460V376.2ZM460 378.2V384.2H384V378.2H460Z" fill="#212121"/>
<rect x="384" y="378.2" width="76" height="4" fill="#FF4A4A"/>
<rect x="384" y="382.2" width="76" height="2" fill="#D82B2B"/>
<path d="M371 376.2V386.2" stroke="#FF55B1"/>
<path d="M368 376.2H374" stroke="#FF55B1"/>
<path d="M368 386.2H374" stroke="#FF55B1"/>
<rect x="351" y="371.2" width="13" height="20" rx="3.5" fill="#FF55B1"/>
<path d="M357.5 385.31C357.01 385.31 356.57 385.216 356.179 385.028C355.791 384.838 355.481 384.578 355.25 384.247C355.018 383.916 354.894 383.539 354.878 383.114H356.05C356.079 383.458 356.231 383.741 356.507 383.962C356.783 384.183 357.114 384.294 357.5 384.294C357.807 384.294 358.079 384.224 358.316 384.083C358.556 383.94 358.743 383.743 358.878 383.493C359.016 383.243 359.085 382.958 359.085 382.638C359.085 382.312 359.015 382.022 358.875 381.767C358.734 381.511 358.54 381.311 358.292 381.165C358.048 381.019 357.766 380.945 357.449 380.942C357.207 380.942 356.963 380.984 356.718 381.067C356.473 381.151 356.276 381.26 356.125 381.396L355.019 381.231L355.468 377.2H359.867V378.235H356.472L356.218 380.474H356.265C356.421 380.323 356.628 380.196 356.886 380.095C357.147 379.993 357.425 379.942 357.722 379.942C358.209 379.942 358.643 380.058 359.023 380.29C359.406 380.522 359.707 380.838 359.925 381.239C360.147 381.638 360.256 382.096 360.253 382.614C360.256 383.132 360.139 383.595 359.902 384.001C359.667 384.407 359.342 384.728 358.925 384.962C358.511 385.194 358.036 385.31 357.5 385.31Z" fill="white"/>
<path d="M382 365.2H462" stroke="#FF55B1"/>
<path d="M382 362.2V368.2" stroke="#FF55B1"/>
<path d="M462 362.2V368.2" stroke="#FF55B1"/>
<rect x="411" y="338.2" width="21" height="20" rx="3.5" fill="#FF55B1"/>
<path d="M414.898 350.638V349.661L418.355 344.2H419.124V345.638H418.636L416.163 349.552V349.614H420.902V350.638H414.898ZM418.691 352.2V350.341L418.698 349.896V344.2H419.843V352.2H418.691ZM425.158 352.333C424.541 352.33 424.013 352.168 423.576 351.845C423.138 351.522 422.804 351.052 422.572 350.435C422.34 349.817 422.224 349.074 422.224 348.204C422.224 347.337 422.34 346.596 422.572 345.981C422.806 345.367 423.142 344.898 423.58 344.575C424.02 344.252 424.546 344.091 425.158 344.091C425.77 344.091 426.295 344.254 426.732 344.579C427.17 344.902 427.504 345.371 427.736 345.985C427.971 346.597 428.088 347.337 428.088 348.204C428.088 349.076 427.972 349.821 427.74 350.438C427.508 351.053 427.174 351.523 426.736 351.849C426.299 352.172 425.773 352.333 425.158 352.333ZM425.158 351.29C425.7 351.29 426.123 351.026 426.428 350.497C426.735 349.968 426.888 349.204 426.888 348.204C426.888 347.54 426.818 346.979 426.678 346.521C426.54 346.06 426.34 345.711 426.08 345.474C425.822 345.234 425.515 345.114 425.158 345.114C424.619 345.114 424.196 345.38 423.888 345.911C423.581 346.442 423.426 347.207 423.424 348.204C423.424 348.871 423.493 349.435 423.631 349.896C423.771 350.354 423.971 350.701 424.228 350.938C424.486 351.173 424.796 351.29 425.158 351.29Z" fill="white"/>
<path fill-rule="evenodd" clip-rule="evenodd" d="M453 525.2H397V527.2H395V563.2H397V565.2H453V563.2H455V527.2H453V525.2ZM453 527.2V563.2H397V527.2H453Z" fill="#212121"/>
<rect x="397" y="527.2" width="56" height="32" fill="#E09E42"/>
<path d="M397 527.2H399V529.2H401V559.2H449V529.2H451V527.2H453V563.2H397L397 527.2Z" fill="#C17306"/>
<path d="M384 525.2V565.2" stroke="#FF55B1"/>
<path d="M381 525.2H387" stroke="#FF55B1"/>
<path d="M381 565.2H387" stroke="#FF55B1"/>
<rect x="358" y="533.2" width="20" height="20" rx="3.5" fill="#FF55B1"/>
<path d="M361.791 547.2V546.325L364.498 543.521C364.787 543.216 365.026 542.949 365.213 542.72C365.403 542.488 365.545 542.268 365.639 542.06C365.733 541.851 365.779 541.63 365.779 541.396C365.779 541.13 365.717 540.901 365.592 540.708C365.467 540.513 365.296 540.363 365.08 540.259C364.864 540.152 364.621 540.099 364.35 540.099C364.063 540.099 363.813 540.157 363.6 540.274C363.386 540.392 363.222 540.557 363.108 540.771C362.993 540.984 362.936 541.234 362.936 541.521H361.783C361.783 541.034 361.895 540.608 362.119 540.243C362.343 539.879 362.651 539.596 363.041 539.396C363.432 539.192 363.876 539.091 364.373 539.091C364.876 539.091 365.319 539.191 365.701 539.392C366.087 539.59 366.388 539.86 366.604 540.204C366.82 540.545 366.928 540.931 366.928 541.36C366.928 541.657 366.872 541.948 366.76 542.231C366.651 542.515 366.459 542.832 366.186 543.181C365.912 543.527 365.532 543.948 365.045 544.442L363.455 546.106V546.165H367.057V547.2H361.791ZM371.432 547.333C370.815 547.33 370.288 547.168 369.85 546.845C369.413 546.522 369.078 546.052 368.847 545.435C368.615 544.817 368.499 544.074 368.499 543.204C368.499 542.337 368.615 541.596 368.847 540.981C369.081 540.367 369.417 539.898 369.854 539.575C370.294 539.252 370.82 539.091 371.432 539.091C372.044 539.091 372.569 539.254 373.007 539.579C373.444 539.902 373.779 540.371 374.011 540.985C374.245 541.597 374.362 542.337 374.362 543.204C374.362 544.076 374.246 544.821 374.014 545.438C373.783 546.053 373.448 546.523 373.011 546.849C372.573 547.172 372.047 547.333 371.432 547.333ZM371.432 546.29C371.974 546.29 372.397 546.026 372.702 545.497C373.009 544.968 373.163 544.204 373.163 543.204C373.163 542.54 373.093 541.979 372.952 541.521C372.814 541.06 372.615 540.711 372.354 540.474C372.097 540.234 371.789 540.114 371.432 540.114C370.893 540.114 370.47 540.38 370.163 540.911C369.856 541.442 369.701 542.207 369.698 543.204C369.698 543.871 369.767 544.435 369.905 544.896C370.046 545.354 370.245 545.701 370.503 545.938C370.761 546.173 371.07 546.29 371.432 546.29Z" fill="white"/>
<path d="M395 514.2H455" stroke="#FF55B1"/>
<path d="M395 511.2V517.2" stroke="#FF55B1"/>
<path d="M455 511.2V517.2" stroke="#FF55B1"/>
<rect x="414" y="487.2" width="21" height="20" rx="3.5" fill="#FF55B1"/>
<path d="M420.904 501.31C420.368 501.31 419.889 501.217 419.467 501.032C419.048 500.847 418.716 500.591 418.471 500.263C418.229 499.932 418.098 499.549 418.08 499.114H419.307C419.322 499.351 419.402 499.557 419.545 499.731C419.691 499.903 419.881 500.036 420.115 500.13C420.35 500.224 420.61 500.271 420.897 500.271C421.212 500.271 421.49 500.216 421.733 500.106C421.977 499.997 422.169 499.845 422.307 499.649C422.445 499.451 422.514 499.224 422.514 498.966C422.514 498.698 422.445 498.462 422.307 498.259C422.171 498.053 421.972 497.892 421.709 497.774C421.449 497.657 421.134 497.599 420.764 497.599H420.088V496.614H420.764C421.061 496.614 421.321 496.561 421.545 496.454C421.772 496.347 421.949 496.199 422.076 496.009C422.204 495.816 422.268 495.591 422.268 495.333C422.268 495.086 422.212 494.871 422.1 494.688C421.99 494.504 421.834 494.359 421.631 494.255C421.431 494.151 421.194 494.099 420.92 494.099C420.66 494.099 420.416 494.147 420.19 494.243C419.966 494.337 419.783 494.472 419.643 494.649C419.502 494.824 419.427 495.034 419.416 495.278H418.248C418.261 494.846 418.389 494.466 418.631 494.138C418.876 493.81 419.199 493.553 419.6 493.368C420.001 493.183 420.446 493.091 420.936 493.091C421.449 493.091 421.891 493.191 422.264 493.392C422.639 493.59 422.928 493.854 423.131 494.185C423.337 494.515 423.438 494.877 423.436 495.271C423.438 495.718 423.313 496.099 423.061 496.411C422.811 496.724 422.477 496.933 422.061 497.04V497.103C422.592 497.183 423.003 497.394 423.295 497.735C423.589 498.076 423.735 498.5 423.733 499.005C423.735 499.445 423.613 499.84 423.365 500.188C423.121 500.537 422.786 500.812 422.362 501.013C421.937 501.211 421.451 501.31 420.904 501.31ZM428.104 501.333C427.487 501.33 426.96 501.168 426.522 500.845C426.085 500.522 425.75 500.052 425.518 499.435C425.287 498.817 425.171 498.074 425.171 497.204C425.171 496.337 425.287 495.596 425.518 494.981C425.753 494.367 426.089 493.898 426.526 493.575C426.966 493.252 427.492 493.091 428.104 493.091C428.716 493.091 429.241 493.254 429.679 493.579C430.116 493.902 430.451 494.371 430.682 494.985C430.917 495.597 431.034 496.337 431.034 497.204C431.034 498.076 430.918 498.821 430.686 499.438C430.455 500.053 430.12 500.523 429.682 500.849C429.245 501.172 428.719 501.333 428.104 501.333ZM428.104 500.29C428.646 500.29 429.069 500.026 429.374 499.497C429.681 498.968 429.835 498.204 429.835 497.204C429.835 496.54 429.764 495.979 429.624 495.521C429.486 495.06 429.287 494.711 429.026 494.474C428.768 494.234 428.461 494.114 428.104 494.114C427.565 494.114 427.142 494.38 426.835 494.911C426.527 495.442 426.373 496.207 426.37 497.204C426.37 497.871 426.439 498.435 426.577 498.896C426.718 499.354 426.917 499.701 427.175 499.938C427.432 500.173 427.742 500.29 428.104 500.29Z" fill="white"/>
<path d="M114.936 95.388C114.376 94.476 113.94 93.524 113.628 92.532C113.316 91.532 113.16 90.436 113.16 89.244C113.16 88.06 113.316 86.968 113.628 85.968C113.94 84.968 114.376 84.012 114.936 83.1L115.8 83.484C115.288 84.348 114.908 85.276 114.66 86.268C114.42 87.252 114.3 88.244 114.3 89.244C114.3 90.252 114.42 91.248 114.66 92.232C114.908 93.216 115.288 94.14 115.8 95.004L114.936 95.388ZM119.801 93.168C119.225 93.168 118.721 92.996 118.289 92.652C117.857 92.308 117.521 91.796 117.281 91.116C117.049 90.428 116.933 89.572 116.933 88.548C116.933 87.524 117.049 86.676 117.281 86.004C117.521 85.332 117.857 84.832 118.289 84.504C118.721 84.168 119.225 84 119.801 84C120.377 84 120.877 84.168 121.301 84.504C121.725 84.84 122.053 85.344 122.285 86.016C122.525 86.68 122.645 87.524 122.645 88.548C122.645 89.572 122.525 90.428 122.285 91.116C122.053 91.796 121.725 92.308 121.301 92.652C120.877 92.996 120.377 93.168 119.801 93.168ZM119.801 92.064C120.097 92.064 120.361 91.948 120.593 91.716C120.825 91.484 121.005 91.112 121.133 90.6C121.261 90.08 121.325 89.396 121.325 88.548C121.325 87.7 121.261 87.024 121.133 86.52C121.005 86.016 120.825 85.652 120.593 85.428C120.361 85.204 120.097 85.092 119.801 85.092C119.505 85.092 119.241 85.204 119.009 85.428C118.777 85.652 118.593 86.016 118.457 86.52C118.329 87.024 118.265 87.7 118.265 88.548C118.265 89.396 118.329 90.08 118.457 90.6C118.593 91.112 118.777 91.484 119.009 91.716C119.241 91.948 119.505 92.064 119.801 92.064ZM124.161 95.4L123.849 94.62C124.265 94.444 124.589 94.208 124.821 93.912C125.053 93.624 125.165 93.3 125.157 92.94L125.061 91.836L125.637 92.748C125.557 92.836 125.465 92.9 125.361 92.94C125.257 92.972 125.145 92.988 125.025 92.988C124.785 92.988 124.569 92.912 124.377 92.76C124.193 92.6 124.101 92.38 124.101 92.1C124.101 91.828 124.193 91.612 124.377 91.452C124.569 91.292 124.797 91.212 125.061 91.212C125.405 91.212 125.669 91.344 125.853 91.608C126.037 91.872 126.129 92.236 126.129 92.7C126.129 93.332 125.953 93.88 125.601 94.344C125.257 94.816 124.777 95.168 124.161 95.4ZM130.219 93.168C129.643 93.168 129.139 92.996 128.707 92.652C128.275 92.308 127.939 91.796 127.699 91.116C127.467 90.428 127.351 89.572 127.351 88.548C127.351 87.524 127.467 86.676 127.699 86.004C127.939 85.332 128.275 84.832 128.707 84.504C129.139 84.168 129.643 84 130.219 84C130.795 84 131.295 84.168 131.719 84.504C132.143 84.84 132.471 85.344 132.703 86.016C132.943 86.68 133.063 87.524 133.063 88.548C133.063 89.572 132.943 90.428 132.703 91.116C132.471 91.796 132.143 92.308 131.719 92.652C131.295 92.996 130.795 93.168 130.219 93.168ZM130.219 92.064C130.515 92.064 130.779 91.948 131.011 91.716C131.243 91.484 131.423 91.112 131.551 90.6C131.679 90.08 131.743 89.396 131.743 88.548C131.743 87.7 131.679 87.024 131.551 86.52C131.423 86.016 131.243 85.652 131.011 85.428C130.779 85.204 130.515 85.092 130.219 85.092C129.923 85.092 129.659 85.204 129.427 85.428C129.195 85.652 129.011 86.016 128.875 86.52C128.747 87.024 128.683 87.7 128.683 88.548C128.683 89.396 128.747 90.08 128.875 90.6C129.011 91.112 129.195 91.484 129.427 91.716C129.659 91.948 129.923 92.064 130.219 92.064ZM135.047 95.388L134.183 95.004C134.695 94.14 135.075 93.216 135.323 92.232C135.571 91.248 135.695 90.252 135.695 89.244C135.695 88.244 135.571 87.252 135.323 86.268C135.075 85.276 134.695 84.348 134.183 83.484L135.047 83.1C135.615 84.012 136.055 84.968 136.367 85.968C136.679 86.968 136.835 88.06 136.835 89.244C136.835 90.436 136.679 91.532 136.367 92.532C136.055 93.524 135.615 94.476 135.047 95.388Z" fill="#FF55B1"/>
<path d="M146.17 495.588C145.61 494.676 145.174 493.724 144.862 492.732C144.55 491.732 144.394 490.636 144.394 489.444C144.394 488.26 144.55 487.168 144.862 486.168C145.174 485.168 145.61 484.212 146.17 483.3L147.034 483.684C146.522 484.548 146.142 485.476 145.894 486.468C145.654 487.452 145.534 488.444 145.534 489.444C145.534 490.452 145.654 491.448 145.894 492.432C146.142 493.416 146.522 494.34 147.034 495.204L146.17 495.588ZM151.036 493.368C150.484 493.368 149.992 493.268 149.56 493.068C149.128 492.86 148.784 492.58 148.528 492.228C148.28 491.868 148.156 491.46 148.156 491.004C148.156 490.612 148.232 490.264 148.384 489.96C148.536 489.656 148.732 489.396 148.972 489.18C149.212 488.956 149.464 488.772 149.728 488.628V488.568C149.408 488.336 149.132 488.052 148.9 487.716C148.668 487.372 148.552 486.968 148.552 486.504C148.552 486.048 148.66 485.648 148.876 485.304C149.1 484.96 149.4 484.696 149.776 484.512C150.16 484.32 150.596 484.224 151.084 484.224C151.596 484.224 152.036 484.324 152.404 484.524C152.772 484.724 153.056 485 153.256 485.352C153.464 485.696 153.568 486.1 153.568 486.564C153.568 486.86 153.508 487.14 153.388 487.404C153.268 487.668 153.12 487.908 152.944 488.124C152.776 488.332 152.596 488.504 152.404 488.64V488.7C152.676 488.844 152.924 489.024 153.148 489.24C153.372 489.448 153.552 489.7 153.688 489.996C153.824 490.292 153.892 490.64 153.892 491.04C153.892 491.472 153.772 491.864 153.532 492.216C153.3 492.568 152.968 492.848 152.536 493.056C152.112 493.264 151.612 493.368 151.036 493.368ZM151.624 488.292C151.88 488.044 152.072 487.784 152.2 487.512C152.336 487.232 152.404 486.94 152.404 486.636C152.404 486.372 152.352 486.132 152.248 485.916C152.144 485.7 151.988 485.532 151.78 485.412C151.58 485.284 151.336 485.22 151.048 485.22C150.688 485.22 150.388 485.336 150.148 485.568C149.908 485.792 149.788 486.104 149.788 486.504C149.788 486.824 149.872 487.092 150.04 487.308C150.208 487.524 150.432 487.708 150.712 487.86C150.992 488.012 151.296 488.156 151.624 488.292ZM151.072 492.36C151.368 492.36 151.628 492.304 151.852 492.192C152.084 492.08 152.264 491.924 152.392 491.724C152.52 491.516 152.584 491.272 152.584 490.992C152.584 490.728 152.528 490.5 152.416 490.308C152.304 490.108 152.148 489.936 151.948 489.792C151.756 489.648 151.528 489.516 151.264 489.396C151 489.268 150.716 489.144 150.412 489.024C150.108 489.24 149.86 489.508 149.668 489.828C149.476 490.14 149.38 490.484 149.38 490.86C149.38 491.156 149.452 491.416 149.596 491.64C149.748 491.864 149.952 492.04 150.208 492.168C150.464 492.296 150.752 492.36 151.072 492.36ZM157.879 493.368C157.303 493.368 156.799 493.196 156.367 492.852C155.935 492.508 155.599 491.996 155.359 491.316C155.127 490.628 155.011 489.772 155.011 488.748C155.011 487.724 155.127 486.876 155.359 486.204C155.599 485.532 155.935 485.032 156.367 484.704C156.799 484.368 157.303 484.2 157.879 484.2C158.455 484.2 158.955 484.368 159.379 484.704C159.803 485.04 160.131 485.544 160.363 486.216C160.603 486.88 160.723 487.724 160.723 488.748C160.723 489.772 160.603 490.628 160.363 491.316C160.131 491.996 159.803 492.508 159.379 492.852C158.955 493.196 158.455 493.368 157.879 493.368ZM157.879 492.264C158.175 492.264 158.439 492.148 158.671 491.916C158.903 491.684 159.083 491.312 159.211 490.8C159.339 490.28 159.403 489.596 159.403 488.748C159.403 487.9 159.339 487.224 159.211 486.72C159.083 486.216 158.903 485.852 158.671 485.628C158.439 485.404 158.175 485.292 157.879 485.292C157.583 485.292 157.319 485.404 157.087 485.628C156.855 485.852 156.671 486.216 156.535 486.72C156.407 487.224 156.343 487.9 156.343 488.748C156.343 489.596 156.407 490.28 156.535 490.8C156.671 491.312 156.855 491.684 157.087 491.916C157.319 492.148 157.583 492.264 157.879 492.264ZM162.239 495.6L161.927 494.82C162.343 494.644 162.667 494.408 162.899 494.112C163.131 493.824 163.243 493.5 163.235 493.14L163.139 492.036L163.715 492.948C163.635 493.036 163.543 493.1 163.439 493.14C163.335 493.172 163.223 493.188 163.103 493.188C162.863 493.188 162.647 493.112 162.455 492.96C162.271 492.8 162.179 492.58 162.179 492.3C162.179 492.028 162.271 491.812 162.455 491.652C162.647 491.492 162.875 491.412 163.139 491.412C163.483 491.412 163.747 491.544 163.931 491.808C164.115 492.072 164.207 492.436 164.207 492.9C164.207 493.532 164.031 494.08 163.679 494.544C163.335 495.016 162.855 495.368 162.239 495.6ZM168.933 493.2V487.44C168.933 487.2 168.941 486.916 168.957 486.588C168.973 486.252 168.985 485.964 168.993 485.724H168.945C168.833 485.948 168.717 486.176 168.597 486.408C168.485 486.64 168.365 486.868 168.237 487.092L166.509 489.744H171.345V490.824H165.105V489.9L168.621 484.356H170.229V493.2H168.933ZM172.237 493.2V492.396C173.109 491.62 173.837 490.912 174.421 490.272C175.005 489.624 175.441 489.024 175.729 488.472C176.025 487.92 176.173 487.404 176.173 486.924C176.173 486.604 176.117 486.324 176.005 486.084C175.901 485.836 175.737 485.648 175.513 485.52C175.297 485.384 175.021 485.316 174.685 485.316C174.341 485.316 174.025 485.412 173.737 485.604C173.449 485.788 173.185 486.016 172.945 486.288L172.165 485.52C172.541 485.104 172.937 484.78 173.353 484.548C173.777 484.316 174.281 484.2 174.865 484.2C175.401 484.2 175.869 484.312 176.269 484.536C176.669 484.752 176.977 485.06 177.193 485.46C177.417 485.852 177.529 486.316 177.529 486.852C177.529 487.42 177.389 487.996 177.109 488.58C176.829 489.156 176.445 489.74 175.957 490.332C175.469 490.916 174.913 491.508 174.289 492.108C174.521 492.084 174.765 492.064 175.021 492.048C175.285 492.024 175.521 492.012 175.729 492.012H177.949V493.2H172.237ZM181.985 493.368C181.409 493.368 180.905 493.196 180.473 492.852C180.041 492.508 179.705 491.996 179.465 491.316C179.233 490.628 179.117 489.772 179.117 488.748C179.117 487.724 179.233 486.876 179.465 486.204C179.705 485.532 180.041 485.032 180.473 484.704C180.905 484.368 181.409 484.2 181.985 484.2C182.561 484.2 183.061 484.368 183.485 484.704C183.909 485.04 184.237 485.544 184.469 486.216C184.709 486.88 184.829 487.724 184.829 488.748C184.829 489.772 184.709 490.628 184.469 491.316C184.237 491.996 183.909 492.508 183.485 492.852C183.061 493.196 182.561 493.368 181.985 493.368ZM181.985 492.264C182.281 492.264 182.545 492.148 182.777 491.916C183.009 491.684 183.189 491.312 183.317 490.8C183.445 490.28 183.509 489.596 183.509 488.748C183.509 487.9 183.445 487.224 183.317 486.72C183.189 486.216 183.009 485.852 182.777 485.628C182.545 485.404 182.281 485.292 181.985 485.292C181.689 485.292 181.425 485.404 181.193 485.628C180.961 485.852 180.777 486.216 180.641 486.72C180.513 487.224 180.449 487.9 180.449 488.748C180.449 489.596 180.513 490.28 180.641 490.8C180.777 491.312 180.961 491.684 181.193 491.916C181.425 492.148 181.689 492.264 181.985 492.264ZM186.812 495.588L185.948 495.204C186.46 494.34 186.84 493.416 187.088 492.432C187.336 491.448 187.46 490.452 187.46 489.444C187.46 488.444 187.336 487.452 187.088 486.468C186.84 485.476 186.46 484.548 185.948 483.684L186.812 483.3C187.38 484.212 187.82 485.168 188.132 486.168C188.444 487.168 188.6 488.26 188.6 489.444C188.6 490.636 188.444 491.732 188.132 492.732C187.82 493.724 187.38 494.676 186.812 495.588Z" fill="#FF55B1"/>
<path d="M153.092 145.588C152.532 144.676 152.096 143.724 151.784 142.732C151.472 141.732 151.316 140.636 151.316 139.444C151.316 138.26 151.472 137.168 151.784 136.168C152.096 135.168 152.532 134.212 153.092 133.3L153.956 133.684C153.444 134.548 153.064 135.476 152.816 136.468C152.576 137.452 152.456 138.444 152.456 139.444C152.456 140.452 152.576 141.448 152.816 142.432C153.064 143.416 153.444 144.34 153.956 145.204L153.092 145.588ZM157.957 143.368C157.405 143.368 156.913 143.268 156.481 143.068C156.049 142.86 155.705 142.58 155.449 142.228C155.201 141.868 155.077 141.46 155.077 141.004C155.077 140.612 155.153 140.264 155.305 139.96C155.457 139.656 155.653 139.396 155.893 139.18C156.133 138.956 156.385 138.772 156.649 138.628V138.568C156.329 138.336 156.053 138.052 155.821 137.716C155.589 137.372 155.473 136.968 155.473 136.504C155.473 136.048 155.581 135.648 155.797 135.304C156.021 134.96 156.321 134.696 156.697 134.512C157.081 134.32 157.517 134.224 158.005 134.224C158.517 134.224 158.957 134.324 159.325 134.524C159.693 134.724 159.977 135 160.177 135.352C160.385 135.696 160.489 136.1 160.489 136.564C160.489 136.86 160.429 137.14 160.309 137.404C160.189 137.668 160.041 137.908 159.865 138.124C159.697 138.332 159.517 138.504 159.325 138.64V138.7C159.597 138.844 159.845 139.024 160.069 139.24C160.293 139.448 160.473 139.7 160.609 139.996C160.745 140.292 160.813 140.64 160.813 141.04C160.813 141.472 160.693 141.864 160.453 142.216C160.221 142.568 159.889 142.848 159.457 143.056C159.033 143.264 158.533 143.368 157.957 143.368ZM158.545 138.292C158.801 138.044 158.993 137.784 159.121 137.512C159.257 137.232 159.325 136.94 159.325 136.636C159.325 136.372 159.273 136.132 159.169 135.916C159.065 135.7 158.909 135.532 158.701 135.412C158.501 135.284 158.257 135.22 157.969 135.22C157.609 135.22 157.309 135.336 157.069 135.568C156.829 135.792 156.709 136.104 156.709 136.504C156.709 136.824 156.793 137.092 156.961 137.308C157.129 137.524 157.353 137.708 157.633 137.86C157.913 138.012 158.217 138.156 158.545 138.292ZM157.993 142.36C158.289 142.36 158.549 142.304 158.773 142.192C159.005 142.08 159.185 141.924 159.313 141.724C159.441 141.516 159.505 141.272 159.505 140.992C159.505 140.728 159.449 140.5 159.337 140.308C159.225 140.108 159.069 139.936 158.869 139.792C158.677 139.648 158.449 139.516 158.185 139.396C157.921 139.268 157.637 139.144 157.333 139.024C157.029 139.24 156.781 139.508 156.589 139.828C156.397 140.14 156.301 140.484 156.301 140.86C156.301 141.156 156.373 141.416 156.517 141.64C156.669 141.864 156.873 142.04 157.129 142.168C157.385 142.296 157.673 142.36 157.993 142.36ZM164.801 143.368C164.225 143.368 163.721 143.196 163.289 142.852C162.857 142.508 162.521 141.996 162.281 141.316C162.049 140.628 161.933 139.772 161.933 138.748C161.933 137.724 162.049 136.876 162.281 136.204C162.521 135.532 162.857 135.032 163.289 134.704C163.721 134.368 164.225 134.2 164.801 134.2C165.377 134.2 165.877 134.368 166.301 134.704C166.725 135.04 167.053 135.544 167.285 136.216C167.525 136.88 167.645 137.724 167.645 138.748C167.645 139.772 167.525 140.628 167.285 141.316C167.053 141.996 166.725 142.508 166.301 142.852C165.877 143.196 165.377 143.368 164.801 143.368ZM164.801 142.264C165.097 142.264 165.361 142.148 165.593 141.916C165.825 141.684 166.005 141.312 166.133 140.8C166.261 140.28 166.325 139.596 166.325 138.748C166.325 137.9 166.261 137.224 166.133 136.72C166.005 136.216 165.825 135.852 165.593 135.628C165.361 135.404 165.097 135.292 164.801 135.292C164.505 135.292 164.241 135.404 164.009 135.628C163.777 135.852 163.593 136.216 163.457 136.72C163.329 137.224 163.265 137.9 163.265 138.748C163.265 139.596 163.329 140.28 163.457 140.8C163.593 141.312 163.777 141.684 164.009 141.916C164.241 142.148 164.505 142.264 164.801 142.264ZM169.161 145.6L168.849 144.82C169.265 144.644 169.589 144.408 169.821 144.112C170.053 143.824 170.165 143.5 170.157 143.14L170.061 142.036L170.637 142.948C170.557 143.036 170.465 143.1 170.361 143.14C170.257 143.172 170.145 143.188 170.025 143.188C169.785 143.188 169.569 143.112 169.377 142.96C169.193 142.8 169.101 142.58 169.101 142.3C169.101 142.028 169.193 141.812 169.377 141.652C169.569 141.492 169.797 141.412 170.061 141.412C170.405 141.412 170.669 141.544 170.853 141.808C171.037 142.072 171.129 142.436 171.129 142.9C171.129 143.532 170.953 144.08 170.601 144.544C170.257 145.016 169.777 145.368 169.161 145.6ZM174.103 143.2C174.143 142.392 174.211 141.652 174.307 140.98C174.403 140.3 174.543 139.66 174.727 139.06C174.911 138.452 175.151 137.864 175.447 137.296C175.743 136.72 176.103 136.132 176.527 135.532H172.387V134.356H178.063V135.208C177.551 135.848 177.135 136.468 176.815 137.068C176.495 137.66 176.247 138.264 176.071 138.88C175.895 139.496 175.767 140.156 175.687 140.86C175.607 141.556 175.551 142.336 175.519 143.2H174.103ZM182.063 143.368C181.487 143.368 180.983 143.196 180.551 142.852C180.119 142.508 179.783 141.996 179.543 141.316C179.311 140.628 179.195 139.772 179.195 138.748C179.195 137.724 179.311 136.876 179.543 136.204C179.783 135.532 180.119 135.032 180.551 134.704C180.983 134.368 181.487 134.2 182.063 134.2C182.639 134.2 183.139 134.368 183.563 134.704C183.987 135.04 184.315 135.544 184.547 136.216C184.787 136.88 184.907 137.724 184.907 138.748C184.907 139.772 184.787 140.628 184.547 141.316C184.315 141.996 183.987 142.508 183.563 142.852C183.139 143.196 182.639 143.368 182.063 143.368ZM182.063 142.264C182.359 142.264 182.623 142.148 182.855 141.916C183.087 141.684 183.267 141.312 183.395 140.8C183.523 140.28 183.587 139.596 183.587 138.748C183.587 137.9 183.523 137.224 183.395 136.72C183.267 136.216 183.087 135.852 182.855 135.628C182.623 135.404 182.359 135.292 182.063 135.292C181.767 135.292 181.503 135.404 181.271 135.628C181.039 135.852 180.855 136.216 180.719 136.72C180.591 137.224 180.527 137.9 180.527 138.748C180.527 139.596 180.591 140.28 180.719 140.8C180.855 141.312 181.039 141.684 181.271 141.916C181.503 142.148 181.767 142.264 182.063 142.264ZM186.891 145.588L186.027 145.204C186.539 144.34 186.919 143.416 187.167 142.432C187.415 141.448 187.539 140.452 187.539 139.444C187.539 138.444 187.415 137.452 187.167 136.468C186.919 135.476 186.539 134.548 186.027 133.684L186.891 133.3C187.459 134.212 187.899 135.168 188.211 136.168C188.523 137.168 188.679 138.26 188.679 139.444C188.679 140.636 188.523 141.732 188.211 142.732C187.899 143.724 187.459 144.676 186.891 145.588Z" fill="#FF55B1"/>
<path fill-rule="evenodd" clip-rule="evenodd" d="M191 496.5H190V498H188.5V499H190V500.5H191V499H192.5V498H191V496.5Z" fill="#FF55B1"/>
<path fill-rule="evenodd" clip-rule="evenodd" d="M110.5 76H109.5V77.5H108V78.5H109.5V80H110.5V78.5H112V77.5H110.5V76Z" fill="#FF55B1"/>
<path fill-rule="evenodd" clip-rule="evenodd" d="M191 146.5H190V148H188.5V149H190V150.5H191V149H192.5V148H191V146.5Z" fill="#FF55B1"/>
</svg>
