<svg width="30" height="25" viewBox="0 0 30 25" fill="none" xmlns="http://www.w3.org/2000/svg">
<rect x="0.5" y="1.30005" width="29" height="23" rx="3.5" stroke="#00A3FF"/>
<path d="M15.588 17.442C15.8307 17.106 16.1433 16.7467 16.526 16.364C16.918 15.9814 17.3147 15.6454 17.716 15.356L18.29 16.378C17.8793 16.686 17.4733 17.0454 17.072 17.456C16.6707 17.8574 16.2927 18.2774 15.938 18.716C15.5833 19.1454 15.2707 19.57 15 19.99C14.7293 19.57 14.4167 19.1454 14.062 18.716C13.7073 18.2774 13.3293 17.8574 12.928 17.456C12.5267 17.0454 12.1207 16.686 11.71 16.378L12.284 15.356C12.6853 15.6454 13.0773 15.9814 13.46 16.364C13.852 16.7467 14.1693 17.106 14.412 17.442V7.04005H15.588V17.442Z" fill="#00A3FF"/>
</svg>
