<svg width="24" height="25" viewBox="0 0 24 25" fill="none" xmlns="http://www.w3.org/2000/svg">
<rect x="0.5" y="0.899902" width="23" height="23" rx="3.5" stroke="#00A3FF"/>
<path d="M11.402 18.5959C10.7113 18.5959 10.1187 18.4512 9.624 18.1619C9.13867 17.8726 8.73733 17.4432 8.42 16.8739L9.554 16.0479C9.778 16.4399 10.03 16.7246 10.31 16.9019C10.59 17.0792 10.8933 17.1679 11.22 17.1679C11.7427 17.1679 12.13 17.0139 12.382 16.7059C12.634 16.3886 12.76 15.8519 12.76 15.0959V8.0819H14.398V15.2359C14.398 15.8519 14.2953 16.4166 14.09 16.9299C13.8847 17.4339 13.5627 17.8399 13.124 18.1479C12.6853 18.4466 12.1113 18.5959 11.402 18.5959Z" fill="#00A3FF"/>
</svg>
