<svg width="28" height="25" viewBox="0 0 28 25" fill="none" xmlns="http://www.w3.org/2000/svg">
<rect x="0.5" y="0.899902" width="27" height="23" rx="3.5" stroke="#00A3FF"/>
<path d="M9.358 18.3999V8.0819H11.234L13.11 13.3039C13.2313 13.6399 13.348 13.9852 13.46 14.3399C13.572 14.6852 13.684 15.0306 13.796 15.3759H13.866C13.9873 15.0306 14.0993 14.6852 14.202 14.3399C14.314 13.9852 14.426 13.6399 14.538 13.3039L16.386 8.0819H18.276V18.3999H16.764V13.3039C16.764 12.9959 16.7733 12.6552 16.792 12.2819C16.82 11.9086 16.848 11.5306 16.876 11.1479C16.9133 10.7652 16.9507 10.4199 16.988 10.1119H16.918L16.092 12.4919L14.3 17.4059H13.292L11.486 12.4919L10.66 10.1119H10.604C10.6413 10.4199 10.674 10.7652 10.702 11.1479C10.7393 11.5306 10.7673 11.9086 10.786 12.2819C10.814 12.6552 10.828 12.9959 10.828 13.3039V18.3999H9.358Z" fill="#00A3FF"/>
</svg>
