<svg width="27" height="25" viewBox="0 0 27 25" fill="none" xmlns="http://www.w3.org/2000/svg">
<rect x="0.5" y="0.899902" width="26" height="23" rx="3.5" stroke="#00A3FF"/>
<path d="M13.278 18.5959C12.4007 18.5959 11.6213 18.3766 10.94 17.9379C10.268 17.4992 9.74067 16.8786 9.358 16.0759C8.97533 15.2639 8.784 14.3072 8.784 13.2059C8.784 12.0952 8.97533 11.1479 9.358 10.3639C9.74067 9.57057 10.268 8.9639 10.94 8.5439C11.6213 8.11457 12.4007 7.8999 13.278 7.8999C14.1647 7.8999 14.944 8.11457 15.616 8.5439C16.288 8.9639 16.8153 9.57057 17.198 10.3639C17.5807 11.1479 17.772 12.0952 17.772 13.2059C17.772 14.3072 17.5807 15.2639 17.198 16.0759C16.8153 16.8786 16.288 17.4992 15.616 17.9379C14.944 18.3766 14.1647 18.5959 13.278 18.5959ZM13.278 17.1679C13.8473 17.1679 14.342 17.0046 14.762 16.6779C15.1913 16.3512 15.5227 15.8939 15.756 15.3059C15.9893 14.7086 16.106 14.0086 16.106 13.2059C16.106 12.4032 15.9893 11.7126 15.756 11.1339C15.5227 10.5459 15.1913 10.0979 14.762 9.7899C14.342 9.47257 13.8473 9.3139 13.278 9.3139C12.7087 9.3139 12.2093 9.47257 11.78 9.7899C11.36 10.0979 11.0333 10.5459 10.8 11.1339C10.576 11.7126 10.464 12.4032 10.464 13.2059C10.464 14.0086 10.576 14.7086 10.8 15.3059C11.0333 15.8939 11.36 16.3512 11.78 16.6779C12.2093 17.0046 12.7087 17.1679 13.278 17.1679Z" fill="#00A3FF"/>
</svg>
