<svg width="26" height="25" viewBox="0 0 26 25" fill="none" xmlns="http://www.w3.org/2000/svg">
<rect x="0.5" y="0.899902" width="25" height="23" rx="3.5" stroke="#00A3FF"/>
<path d="M9.358 18.3999V8.0819H12.48C13.2547 8.0819 13.936 8.18457 14.524 8.3899C15.112 8.5859 15.574 8.91257 15.91 9.3699C16.2553 9.8179 16.428 10.4339 16.428 11.2179C16.428 11.9646 16.26 12.5806 15.924 13.0659C15.588 13.5419 15.126 13.9012 14.538 14.1439C13.9593 14.3772 13.292 14.4939 12.536 14.4939H10.982V18.3999H9.358ZM10.982 13.1779H12.396C13.208 13.1779 13.8147 13.0192 14.216 12.7019C14.6173 12.3846 14.818 11.8899 14.818 11.2179C14.818 10.5272 14.608 10.0512 14.188 9.7899C13.768 9.52857 13.1473 9.3979 12.326 9.3979H10.982V13.1779Z" fill="#00A3FF"/>
</svg>
