<svg width="65" height="24" viewBox="0 0 65 24" fill="none" xmlns="http://www.w3.org/2000/svg">
<rect width="65" height="24" rx="4" fill="#00A3FF"/>
<path d="M9.358 18V7.682H12.48C13.2547 7.682 13.936 7.78467 14.524 7.99C15.112 8.186 15.574 8.51267 15.91 8.97C16.2553 9.418 16.428 10.034 16.428 10.818C16.428 11.5647 16.26 12.1807 15.924 12.666C15.588 13.142 15.126 13.5013 14.538 13.744C13.9593 13.9773 13.292 14.094 12.536 14.094H10.982V18H9.358ZM10.982 12.778H12.396C13.208 12.778 13.8147 12.6193 14.216 12.302C14.6173 11.9847 14.818 11.49 14.818 10.818C14.818 10.1273 14.608 9.65133 14.188 9.39C13.768 9.12867 13.1473 8.998 12.326 8.998H10.982V12.778ZM18.6601 21.22C18.4548 21.22 18.2728 21.206 18.1141 21.178C17.9648 21.15 17.8201 21.1127 17.6801 21.066L17.9881 19.806C18.0628 19.8247 18.1515 19.848 18.2541 19.876C18.3568 19.904 18.4595 19.918 18.5621 19.918C18.9821 19.918 19.3181 19.778 19.5701 19.498C19.8221 19.2273 20.0181 18.8867 20.1581 18.476L20.3261 17.944L17.2741 10.286H18.9121L20.3261 14.262C20.4475 14.6073 20.5641 14.9667 20.6761 15.34C20.7975 15.704 20.9188 16.068 21.0401 16.432H21.1101C21.2035 16.0773 21.3015 15.7133 21.4041 15.34C21.5068 14.9667 21.6095 14.6073 21.7121 14.262L22.9581 10.286H24.5121L21.6841 18.462C21.4881 19.0127 21.2548 19.4933 20.9841 19.904C20.7228 20.324 20.4055 20.646 20.0321 20.87C19.6588 21.1033 19.2015 21.22 18.6601 21.22ZM28.5014 18.196C27.9227 18.196 27.4607 18.084 27.1154 17.86C26.7794 17.6267 26.5367 17.3093 26.3874 16.908C26.238 16.4973 26.1634 16.0213 26.1634 15.48V11.588H25.0434V10.384L26.2474 10.286L26.4294 8.158H27.7734V10.286H29.7754V11.588H27.7734V15.494C27.7734 15.9513 27.862 16.3013 28.0394 16.544C28.2167 16.7773 28.506 16.894 28.9074 16.894C29.038 16.894 29.178 16.8753 29.3274 16.838C29.4767 16.8007 29.6074 16.7587 29.7194 16.712L30.0134 17.902C29.808 17.9673 29.5747 18.0327 29.3134 18.098C29.0614 18.1633 28.7907 18.196 28.5014 18.196ZM31.4621 18V6.842H33.0721V9.796L33.0021 11.322C33.3381 10.986 33.7068 10.7013 34.1081 10.468C34.5095 10.2253 34.9715 10.104 35.4941 10.104C36.3155 10.104 36.9128 10.37 37.2861 10.902C37.6688 11.4247 37.8601 12.176 37.8601 13.156V18H36.2501V13.352C36.2501 12.6893 36.1475 12.218 35.9421 11.938C35.7368 11.6487 35.4055 11.504 34.9481 11.504C34.5935 11.504 34.2761 11.5927 33.9961 11.77C33.7255 11.938 33.4175 12.1947 33.0721 12.54V18H31.4621ZM43.2515 18.196C42.6168 18.196 42.0195 18.0373 41.4595 17.72C40.9088 17.3933 40.4608 16.9313 40.1155 16.334C39.7795 15.7273 39.6115 14.9993 39.6115 14.15C39.6115 13.2913 39.7795 12.5633 40.1155 11.966C40.4608 11.3593 40.9088 10.8973 41.4595 10.58C42.0195 10.2627 42.6168 10.104 43.2515 10.104C43.7181 10.104 44.1708 10.1973 44.6095 10.384C45.0481 10.5613 45.4355 10.8227 45.7715 11.168C46.1075 11.5133 46.3735 11.938 46.5695 12.442C46.7655 12.9367 46.8635 13.506 46.8635 14.15C46.8635 14.9993 46.6908 15.7273 46.3455 16.334C46.0095 16.9313 45.5661 17.3933 45.0155 17.72C44.4741 18.0373 43.8861 18.196 43.2515 18.196ZM43.2515 16.852C43.6528 16.852 43.9981 16.74 44.2875 16.516C44.5861 16.292 44.8148 15.9793 44.9735 15.578C45.1321 15.1673 45.2115 14.6913 45.2115 14.15C45.2115 13.6087 45.1321 13.1373 44.9735 12.736C44.8148 12.3253 44.5861 12.008 44.2875 11.784C43.9981 11.5507 43.6528 11.434 43.2515 11.434C42.8408 11.434 42.4861 11.5507 42.1875 11.784C41.8981 12.008 41.6741 12.3253 41.5155 12.736C41.3568 13.1373 41.2775 13.6087 41.2775 14.15C41.2775 14.6913 41.3568 15.1673 41.5155 15.578C41.6741 15.9793 41.8981 16.292 42.1875 16.516C42.4861 16.74 42.8408 16.852 43.2515 16.852ZM48.7707 18V10.286H50.0867L50.2267 11.364H50.2547C50.6094 11.0187 50.9921 10.7247 51.4027 10.482C51.8134 10.23 52.2801 10.104 52.8027 10.104C53.6241 10.104 54.2214 10.37 54.5947 10.902C54.9774 11.4247 55.1687 12.176 55.1687 13.156V18H53.5587V13.352C53.5587 12.6893 53.4561 12.218 53.2507 11.938C53.0454 11.6487 52.7141 11.504 52.2567 11.504C51.9021 11.504 51.5847 11.5927 51.3047 11.77C51.0341 11.938 50.7261 12.1947 50.3807 12.54V18H48.7707Z" fill="white"/>
</svg>
