<svg width="25" height="25" viewBox="0 0 25 25" fill="none" xmlns="http://www.w3.org/2000/svg">
<rect x="0.5" y="1.30005" width="24" height="23" rx="3.5" stroke="#00A3FF"/>
<path d="M12.298 18.996C11.5887 18.996 10.9167 18.8607 10.282 18.59C9.65667 18.3194 9.106 17.946 8.63 17.47L9.582 16.35C9.95533 16.714 10.38 17.008 10.856 17.232C11.3413 17.456 11.836 17.568 12.34 17.568C12.956 17.568 13.4273 17.4327 13.754 17.162C14.09 16.8914 14.258 16.5414 14.258 16.112C14.258 15.7947 14.188 15.5427 14.048 15.356C13.908 15.16 13.712 14.9967 13.46 14.866C13.2173 14.7354 12.9373 14.6 12.62 14.46L11.192 13.844C10.856 13.704 10.5247 13.522 10.198 13.298C9.88067 13.0647 9.61467 12.7754 9.4 12.43C9.19467 12.0754 9.092 11.646 9.092 11.142C9.092 10.6007 9.23667 10.1154 9.526 9.68605C9.81533 9.25672 10.2167 8.92072 10.73 8.67805C11.2433 8.42605 11.8267 8.30005 12.48 8.30005C13.0867 8.30005 13.6607 8.41671 14.202 8.65005C14.7433 8.88338 15.2053 9.20072 15.588 9.60205L14.762 10.638C14.4353 10.3487 14.0853 10.1247 13.712 9.96605C13.348 9.79805 12.9373 9.71405 12.48 9.71405C11.948 9.71405 11.528 9.83538 11.22 10.078C10.912 10.3114 10.758 10.6287 10.758 11.03C10.758 11.3287 10.8373 11.576 10.996 11.772C11.1547 11.9587 11.36 12.1174 11.612 12.248C11.8733 12.3694 12.1393 12.486 12.41 12.598L13.824 13.2C14.2347 13.368 14.5987 13.5734 14.916 13.816C15.2333 14.0587 15.4807 14.3527 15.658 14.698C15.8353 15.0434 15.924 15.4727 15.924 15.986C15.924 16.5367 15.7793 17.0407 15.49 17.498C15.2007 17.946 14.7853 18.31 14.244 18.59C13.7027 18.8607 13.054 18.996 12.298 18.996Z" fill="#00A3FF"/>
</svg>
