<svg width="38" height="24" viewBox="0 0 38 24" fill="none" xmlns="http://www.w3.org/2000/svg">
<rect width="38" height="24" rx="4" fill="#00A3FF"/>
<path d="M11.808 18.196C11.2293 18.196 10.7673 18.084 10.422 17.86C10.086 17.6267 9.84333 17.3093 9.694 16.908C9.54467 16.4973 9.47 16.0213 9.47 15.48V11.588H8.35V10.384L9.554 10.286L9.736 8.158H11.08V10.286H13.082V11.588H11.08V15.494C11.08 15.9513 11.1687 16.3013 11.346 16.544C11.5233 16.7773 11.8127 16.894 12.214 16.894C12.3447 16.894 12.4847 16.8753 12.634 16.838C12.7833 16.8007 12.914 16.7587 13.026 16.712L13.32 17.902C13.1147 17.9673 12.8813 18.0327 12.62 18.098C12.368 18.1633 12.0973 18.196 11.808 18.196ZM16.1923 18.196C15.7536 18.196 15.3616 18.1027 15.0163 17.916C14.6803 17.7293 14.4143 17.468 14.2183 17.132C14.0223 16.796 13.9243 16.404 13.9243 15.956C13.9243 15.1253 14.2883 14.486 15.0163 14.038C15.7536 13.5807 16.925 13.2633 18.5303 13.086C18.521 12.7873 18.4743 12.512 18.3903 12.26C18.3063 12.008 18.157 11.8073 17.9423 11.658C17.737 11.4993 17.443 11.42 17.0603 11.42C16.659 11.42 16.2716 11.4993 15.8983 11.658C15.525 11.8167 15.1703 11.9987 14.8343 12.204L14.2323 11.112C14.503 10.944 14.8016 10.7853 15.1283 10.636C15.455 10.4773 15.805 10.3513 16.1783 10.258C16.5516 10.1553 16.939 10.104 17.3403 10.104C17.9843 10.104 18.5116 10.2347 18.9223 10.496C19.333 10.748 19.6363 11.1167 19.8323 11.602C20.0376 12.0873 20.1403 12.6753 20.1403 13.366V18H18.8243L18.6983 17.118H18.6423C18.297 17.4167 17.919 17.6733 17.5083 17.888C17.0976 18.0933 16.659 18.196 16.1923 18.196ZM16.6823 16.908C17.0183 16.908 17.331 16.8333 17.6203 16.684C17.9096 16.5253 18.213 16.2967 18.5303 15.998V14.122C17.7743 14.206 17.1723 14.332 16.7243 14.5C16.2763 14.6587 15.9543 14.85 15.7583 15.074C15.5716 15.2887 15.4783 15.5407 15.4783 15.83C15.4783 16.2127 15.595 16.488 15.8283 16.656C16.0616 16.824 16.3463 16.908 16.6823 16.908ZM25.071 21.458C24.455 21.458 23.9044 21.3787 23.419 21.22C22.9337 21.0707 22.551 20.8467 22.271 20.548C22.0004 20.2493 21.865 19.876 21.865 19.428C21.865 19.1013 21.963 18.7933 22.159 18.504C22.355 18.2147 22.6304 17.9627 22.985 17.748V17.692C22.789 17.5613 22.621 17.3933 22.481 17.188C22.3504 16.9733 22.285 16.712 22.285 16.404C22.285 16.096 22.3737 15.8207 22.551 15.578C22.7377 15.326 22.9384 15.1253 23.153 14.976V14.92C22.8824 14.7147 22.6444 14.4347 22.439 14.08C22.2337 13.7253 22.131 13.3193 22.131 12.862C22.131 12.2833 22.2664 11.7887 22.537 11.378C22.817 10.958 23.181 10.6407 23.629 10.426C24.0864 10.2113 24.581 10.104 25.113 10.104C25.337 10.104 25.5424 10.1227 25.729 10.16C25.925 10.188 26.093 10.23 26.233 10.286H28.963V11.504H27.507C27.647 11.6627 27.7637 11.8633 27.857 12.106C27.9504 12.3487 27.997 12.6147 27.997 12.904C27.997 13.464 27.8664 13.9447 27.605 14.346C27.353 14.738 27.0077 15.0413 26.569 15.256C26.1304 15.4613 25.645 15.564 25.113 15.564C24.945 15.564 24.763 15.5453 24.567 15.508C24.3804 15.4613 24.203 15.4053 24.035 15.34C23.9137 15.4427 23.811 15.5547 23.727 15.676C23.6524 15.7973 23.615 15.9513 23.615 16.138C23.615 16.362 23.7037 16.544 23.881 16.684C24.0677 16.824 24.4084 16.894 24.903 16.894H26.331C27.2364 16.894 27.9224 17.0433 28.389 17.342C28.8557 17.6313 29.089 18.1027 29.089 18.756C29.089 19.2507 28.9257 19.7033 28.599 20.114C28.2724 20.5247 27.8057 20.8513 27.199 21.094C26.6017 21.3367 25.8924 21.458 25.071 21.458ZM25.113 14.514C25.3744 14.514 25.617 14.4487 25.841 14.318C26.065 14.1873 26.2424 14.0007 26.373 13.758C26.5037 13.506 26.569 13.2073 26.569 12.862C26.569 12.5167 26.5037 12.2273 26.373 11.994C26.2424 11.7513 26.065 11.5647 25.841 11.434C25.6264 11.3033 25.3837 11.238 25.113 11.238C24.8424 11.238 24.595 11.3033 24.371 11.434C24.1564 11.5647 23.9837 11.7513 23.853 11.994C23.7224 12.2273 23.657 12.5167 23.657 12.862C23.657 13.2073 23.7224 13.506 23.853 13.758C23.993 14.0007 24.1704 14.1873 24.385 14.318C24.609 14.4487 24.8517 14.514 25.113 14.514ZM25.295 20.394C25.7524 20.394 26.1444 20.3287 26.471 20.198C26.7977 20.0673 27.0544 19.8947 27.241 19.68C27.4277 19.4747 27.521 19.2553 27.521 19.022C27.521 18.6953 27.3997 18.4713 27.157 18.35C26.9144 18.238 26.5597 18.182 26.093 18.182H24.931C24.7444 18.182 24.567 18.1727 24.399 18.154C24.231 18.1353 24.063 18.1073 23.895 18.07C23.671 18.238 23.5077 18.42 23.405 18.616C23.3024 18.812 23.251 19.0033 23.251 19.19C23.251 19.5633 23.433 19.8573 23.797 20.072C24.161 20.2867 24.6604 20.394 25.295 20.394Z" fill="white"/>
</svg>
