<svg width="25" height="25" viewBox="0 0 25 25" fill="none" xmlns="http://www.w3.org/2000/svg">
<rect x="0.5" y="0.899902" width="24" height="23" rx="3.5" stroke="#00A3FF"/>
<path d="M8.224 18.3999L11.178 13.0799L8.406 8.0819H10.212L11.458 10.5039C11.5887 10.7466 11.71 10.9892 11.822 11.2319C11.9433 11.4746 12.088 11.7546 12.256 12.0719H12.312C12.4427 11.7546 12.564 11.4746 12.676 11.2319C12.788 10.9892 12.9047 10.7466 13.026 10.5039L14.23 8.0819H15.938L13.18 13.1499L16.134 18.3999H14.328L12.97 15.8379C12.8393 15.5766 12.704 15.3106 12.564 15.0399C12.424 14.7599 12.2747 14.4659 12.116 14.1579H12.06C11.92 14.4659 11.7847 14.7599 11.654 15.0399C11.5233 15.3106 11.3927 15.5766 11.262 15.8379L9.946 18.3999H8.224Z" fill="#00A3FF"/>
</svg>
