<svg width="1094" height="547" viewBox="0 0 1094 547" fill="none" xmlns="http://www.w3.org/2000/svg">
<g clip-path="url(#clip0_3168_107346)">
<rect width="437.6" height="547" fill="#9DD9FA"/>
<path d="M166.649 98.4009C167.388 94.4786 167.775 90.4315 167.775 86.2931C167.775 50.7188 139.236 21.88 104.031 21.88C82.4907 21.88 63.4455 32.6764 51.9076 49.2065C40.8298 39.809 26.5423 34.1492 10.9469 34.1492C-23.92 34.1492 -52.2481 62.4367 -52.7886 97.5392H-52.7965C-91.9126 97.5392 -123.622 129.582 -123.622 169.11C-123.622 208.637 -91.9126 240.68 -52.7965 240.68H155.633C194.748 240.68 226.458 208.637 226.458 169.11C226.458 133.369 200.533 103.749 166.649 98.4009Z" fill="white"/>
<path d="M448.901 444.105C449.64 440.183 450.027 436.135 450.027 431.997C450.027 396.423 421.488 367.584 386.282 367.584C364.743 367.584 345.697 378.38 334.159 394.91C323.082 385.513 308.794 379.853 293.199 379.853C258.332 379.853 230.004 408.141 229.463 443.243H229.455C190.339 443.243 158.63 475.286 158.63 514.814C158.63 554.341 190.339 586.384 229.455 586.384H437.885C477 586.384 508.71 554.341 508.71 514.814C508.71 479.073 482.785 449.453 448.901 444.105Z" fill="white"/>
<path fill-rule="evenodd" clip-rule="evenodd" d="M258.731 240.681H233.569V241.775H232.475V250.527L233.569 250.527V251.621H258.731V250.527L259.825 250.527V241.775H258.731V240.681ZM258.731 241.775V250.527H233.569V241.775H258.731Z" fill="#212121"/>
<rect x="233.569" y="241.774" width="25.162" height="8.752" fill="#E09E42"/>
<path d="M233.569 241.774H234.663V242.868H235.757V248.338H256.543V242.868H257.637V241.774H258.731V250.526H233.569V241.774Z" fill="#C17306"/>
<path fill-rule="evenodd" clip-rule="evenodd" d="M245.056 253.809H219.894V254.903H218.8V263.655H219.894V264.749H245.056V263.655H246.15V254.903H245.056V253.809ZM245.056 254.903V263.655H219.894V254.903H245.056Z" fill="#212121"/>
<rect x="219.894" y="254.903" width="25.162" height="8.752" fill="#E09E42"/>
<path d="M219.894 254.903H220.988V255.997H222.082V261.467H242.868V255.997H243.962V254.903H245.056V263.655H219.894V254.903Z" fill="#C17306"/>
<path fill-rule="evenodd" clip-rule="evenodd" d="M287.175 240.681H262.013V241.775H260.919V250.527L262.013 250.527V251.621H287.175V250.527L288.269 250.527V241.775H287.175V240.681ZM287.175 241.775V250.527H262.013V241.775H287.175Z" fill="#212121"/>
<rect x="262.013" y="241.774" width="25.162" height="8.752" fill="#E09E42"/>
<path d="M262.013 241.774H263.107V242.868H264.201V248.338H284.987V242.868H286.081V241.774H287.175V250.526H262.013V241.774Z" fill="#C17306"/>
<path fill-rule="evenodd" clip-rule="evenodd" d="M301.397 253.809H276.235V254.903H275.141V263.655H276.235V264.749H301.397V263.655H302.491V254.903H301.397V253.809ZM301.397 254.903V263.655H276.235V254.903H301.397Z" fill="#212121"/>
<rect x="276.235" y="254.903" width="25.162" height="8.752" fill="#E09E42"/>
<path d="M276.235 254.903H277.329V255.997H278.423V261.467H299.209V255.997H300.303V254.903H301.397V263.655H276.235V254.903Z" fill="#C17306"/>
<path fill-rule="evenodd" clip-rule="evenodd" d="M258.731 266.937H233.569V268.031H232.475V276.783L233.569 276.783V277.877H258.731V276.783L259.825 276.783V268.031H258.731V266.937ZM258.731 268.031V276.783H233.569V268.031H258.731Z" fill="#212121"/>
<rect x="233.569" y="268.031" width="25.162" height="8.752" fill="#E09E42"/>
<path d="M233.569 268.031H234.663V269.125H235.757V274.595H256.543V269.125H257.637V268.031H258.731V276.783H233.569V268.031Z" fill="#C17306"/>
<path fill-rule="evenodd" clip-rule="evenodd" d="M287.175 266.937H262.013V268.031H260.919V276.783L262.013 276.783V277.877H287.175V276.783L288.269 276.783V268.031H287.175V266.937ZM287.175 268.031V276.783H262.013V268.031H287.175Z" fill="#212121"/>
<rect x="262.013" y="268.031" width="25.162" height="8.752" fill="#E09E42"/>
<path d="M262.013 268.031H263.107V269.125H264.201V274.595H284.987V269.125H286.081V268.031H287.175V276.783H262.013V268.031Z" fill="#C17306"/>
<path fill-rule="evenodd" clip-rule="evenodd" d="M344.063 266.937H318.901V268.031H317.807V276.783L318.901 276.783V277.877H344.063V276.783L345.157 276.783V268.031H344.063V266.937ZM344.063 268.031V276.783H318.901V268.031H344.063Z" fill="#212121"/>
<rect x="318.901" y="268.031" width="25.162" height="8.752" fill="#E09E42"/>
<path d="M318.901 268.031H319.995V269.125H321.089V274.595H341.875V269.125H342.969V268.031H344.063V276.783H318.901V268.031Z" fill="#C17306"/>
<path fill-rule="evenodd" clip-rule="evenodd" d="M372.507 266.937H347.345V268.031H346.251V276.783L347.345 276.783V277.877H372.507V276.783L373.601 276.783V268.031H372.507V266.937ZM372.507 268.031V276.783H347.345V268.031H372.507Z" fill="#212121"/>
<rect x="347.345" y="268.031" width="25.162" height="8.752" fill="#E09E42"/>
<path d="M347.345 268.031H348.439V269.125H349.533V274.595H370.319V269.125H371.413V268.031H372.507V276.783H347.345V268.031Z" fill="#C17306"/>
<path fill-rule="evenodd" clip-rule="evenodd" d="M372.507 240.681H347.345V241.775H346.251V250.527L347.345 250.527V251.621H372.507V250.527L373.601 250.527V241.775H372.507V240.681ZM372.507 241.775V250.527H347.345V241.775H372.507Z" fill="#212121"/>
<rect x="347.345" y="241.774" width="25.162" height="8.752" fill="#E09E42"/>
<path d="M347.345 241.774H348.439V242.868H349.533V248.338H370.319V242.868H371.413V241.774H372.507V250.526H347.345V241.774Z" fill="#C17306"/>
<path fill-rule="evenodd" clip-rule="evenodd" d="M358.832 253.809H333.67V254.903H332.576V263.655H333.67V264.749H358.832V263.655H359.926V254.903H358.832V253.809ZM358.832 254.903V263.655H333.67V254.903H358.832Z" fill="#212121"/>
<rect x="333.67" y="254.903" width="25.162" height="8.752" fill="#E09E42"/>
<path d="M333.67 254.903H334.764V255.997H335.858V261.467H356.644V255.997H357.738V254.903H358.832V263.655H333.67V254.903Z" fill="#C17306"/>
<path fill-rule="evenodd" clip-rule="evenodd" d="M388.37 253.809H363.208V254.903H362.114V263.655H363.208V264.749H388.37V263.655H389.464V254.903H388.37V253.809ZM388.37 254.903V263.655H363.208V254.903H388.37Z" fill="#212121"/>
<rect x="363.208" y="254.903" width="25.162" height="8.752" fill="#E09E42"/>
<path d="M363.208 254.903H364.302V255.997H365.396V261.467H386.182V255.997H387.276V254.903H388.37V263.655H363.208V254.903Z" fill="#C17306"/>
<path fill-rule="evenodd" clip-rule="evenodd" d="M400.951 266.937H375.789V268.031H374.695V276.783L375.789 276.783V277.877H400.951V276.783L402.045 276.783V268.031H400.951V266.937ZM400.951 268.031V276.783H375.789V268.031H400.951Z" fill="#212121"/>
<rect x="375.789" y="268.031" width="25.162" height="8.752" fill="#E09E42"/>
<path d="M375.789 268.031H376.883V269.125H377.977V274.595H398.763V269.125H399.857V268.031H400.951V276.783H375.789V268.031Z" fill="#C17306"/>
<path fill-rule="evenodd" clip-rule="evenodd" d="M258.731 293.191H233.569V294.285H232.475V303.037L233.569 303.037V304.131H258.731V303.037L259.825 303.037V294.285H258.731V293.191ZM258.731 294.285V303.037H233.569V294.285H258.731Z" fill="#212121"/>
<rect x="233.569" y="294.285" width="25.162" height="8.752" fill="#E09E42"/>
<path d="M233.569 294.285H234.663V295.379H235.757V300.849H256.543V295.379H257.637V294.285H258.731V303.037H233.569V294.285Z" fill="#C17306"/>
<path fill-rule="evenodd" clip-rule="evenodd" d="M258.731 280.063H233.569V281.157H232.475V289.909H233.569V291.003H258.731V289.909H259.825V281.157H258.731V280.063ZM258.731 281.157V289.909H233.569V281.157H258.731Z" fill="#212121"/>
<rect x="233.569" y="281.157" width="25.162" height="8.752" fill="#E09E42"/>
<path d="M233.569 281.157H234.663V282.251H235.757V287.721H256.543V282.251H257.637V281.157H258.731V289.909H233.569V281.157Z" fill="#C17306"/>
<path fill-rule="evenodd" clip-rule="evenodd" d="M344.063 293.191H318.901V294.285H317.807V303.037L318.901 303.037V304.131H344.063V303.037L345.157 303.037V294.285H344.063V293.191ZM344.063 294.285V303.037H318.901V294.285H344.063Z" fill="#212121"/>
<rect x="318.901" y="294.285" width="25.162" height="8.752" fill="#E09E42"/>
<path d="M318.901 294.285H319.995V295.379H321.089V300.849H341.875V295.379H342.969V294.285H344.063V303.037H318.901V294.285Z" fill="#C17306"/>
<path fill-rule="evenodd" clip-rule="evenodd" d="M344.063 280.063H318.901V281.157H317.807V289.909H318.901V291.003H344.063V289.909H345.157V281.157H344.063V280.063ZM344.063 281.157V289.909H318.901V281.157H344.063Z" fill="#212121"/>
<rect x="318.901" y="281.157" width="25.162" height="8.752" fill="#E09E42"/>
<path d="M318.901 281.157H319.995V282.251H321.089V287.721H341.875V282.251H342.969V281.157H344.063V289.909H318.901V281.157Z" fill="#C17306"/>
<path fill-rule="evenodd" clip-rule="evenodd" d="M400.951 293.191H375.789V294.285H374.695V303.037L375.789 303.037V304.131H400.951V303.037L402.045 303.037V294.285H400.951V293.191ZM400.951 294.285V303.037H375.789V294.285H400.951Z" fill="#212121"/>
<rect x="375.789" y="294.285" width="25.162" height="8.752" fill="#E09E42"/>
<path d="M375.789 294.285H376.883V295.379H377.977V300.849H398.763V295.379H399.857V294.285H400.951V303.037H375.789V294.285Z" fill="#C17306"/>
<path fill-rule="evenodd" clip-rule="evenodd" d="M400.951 280.063H375.789V281.157H374.695V289.909H375.789V291.003H400.951V289.909H402.045V281.157H400.951V280.063ZM400.951 281.157V289.909H375.789V281.157H400.951Z" fill="#212121"/>
<rect x="375.789" y="281.157" width="25.162" height="8.752" fill="#E09E42"/>
<path d="M375.789 281.157H376.883V282.251H377.977V287.721H398.763V282.251H399.857V281.157H400.951V289.909H375.789V281.157Z" fill="#C17306"/>
</g>
<rect x="437.6" width="218.8" height="547" fill="#435C46"/>
<rect x="437.6" width="218.8" height="547" fill="#54AFE3"/>
<path d="M461.918 471.036V477.856H460.535V469.764H461.881L461.918 471.036ZM464.446 469.719L464.438 471.006C464.324 470.981 464.214 470.966 464.109 470.961C464.01 470.951 463.895 470.946 463.765 470.946C463.446 470.946 463.165 470.996 462.92 471.095C462.676 471.195 462.469 471.335 462.3 471.514C462.13 471.694 461.995 471.908 461.896 472.157C461.801 472.402 461.739 472.671 461.709 472.965L461.32 473.189C461.32 472.701 461.367 472.242 461.462 471.813C461.562 471.385 461.714 471.006 461.918 470.677C462.123 470.343 462.382 470.083 462.696 469.899C463.015 469.709 463.394 469.615 463.833 469.615C463.932 469.615 464.047 469.627 464.177 469.652C464.306 469.672 464.396 469.694 464.446 469.719ZM468.933 478.006C468.37 478.006 467.859 477.911 467.4 477.721C466.946 477.527 466.555 477.255 466.226 476.906C465.902 476.557 465.652 476.143 465.478 475.665C465.303 475.186 465.216 474.663 465.216 474.094V473.78C465.216 473.122 465.313 472.536 465.508 472.023C465.702 471.504 465.967 471.065 466.301 470.706C466.635 470.348 467.014 470.076 467.437 469.891C467.861 469.707 468.3 469.615 468.754 469.615C469.332 469.615 469.83 469.714 470.249 469.914C470.673 470.113 471.02 470.392 471.289 470.751C471.558 471.105 471.757 471.524 471.887 472.008C472.017 472.486 472.082 473.01 472.082 473.578V474.199H466.039V473.07H470.698V472.965C470.678 472.606 470.603 472.257 470.474 471.918C470.349 471.579 470.15 471.3 469.875 471.08C469.601 470.861 469.227 470.751 468.754 470.751C468.439 470.751 468.15 470.819 467.886 470.953C467.622 471.083 467.395 471.277 467.206 471.537C467.016 471.796 466.869 472.112 466.764 472.486C466.66 472.86 466.607 473.292 466.607 473.78V474.094C466.607 474.478 466.66 474.84 466.764 475.179C466.874 475.513 467.031 475.807 467.235 476.061C467.445 476.315 467.697 476.515 467.991 476.659C468.29 476.804 468.629 476.876 469.008 476.876C469.496 476.876 469.91 476.777 470.249 476.577C470.588 476.378 470.885 476.111 471.139 475.777L471.977 476.443C471.802 476.707 471.58 476.959 471.311 477.198C471.042 477.437 470.71 477.632 470.317 477.781C469.928 477.931 469.467 478.006 468.933 478.006ZM475.073 471.372V477.856H473.682V469.764H474.998L475.073 471.372ZM474.789 473.503L474.146 473.481C474.151 472.928 474.223 472.417 474.362 471.948C474.502 471.474 474.709 471.063 474.983 470.714C475.257 470.365 475.599 470.096 476.008 469.906C476.417 469.712 476.89 469.615 477.429 469.615C477.808 469.615 478.157 469.669 478.476 469.779C478.795 469.884 479.071 470.051 479.306 470.28C479.54 470.51 479.722 470.804 479.852 471.163C479.981 471.522 480.046 471.955 480.046 472.464V477.856H478.663V472.531C478.663 472.107 478.59 471.768 478.446 471.514C478.306 471.26 478.107 471.075 477.847 470.961C477.588 470.841 477.284 470.781 476.935 470.781C476.526 470.781 476.185 470.854 475.911 470.998C475.636 471.143 475.417 471.342 475.252 471.596C475.088 471.851 474.968 472.142 474.893 472.471C474.824 472.795 474.789 473.14 474.789 473.503ZM480.031 472.741L479.104 473.025C479.109 472.581 479.181 472.155 479.321 471.746C479.465 471.337 479.672 470.973 479.941 470.654C480.216 470.335 480.552 470.083 480.951 469.899C481.35 469.709 481.806 469.615 482.32 469.615C482.753 469.615 483.137 469.672 483.471 469.787C483.81 469.901 484.095 470.078 484.324 470.318C484.558 470.552 484.735 470.854 484.855 471.223C484.974 471.591 485.034 472.03 485.034 472.539V477.856H483.643V472.524C483.643 472.07 483.571 471.719 483.426 471.469C483.287 471.215 483.087 471.038 482.828 470.938C482.574 470.834 482.27 470.781 481.916 470.781C481.612 470.781 481.342 470.834 481.108 470.938C480.874 471.043 480.677 471.188 480.517 471.372C480.358 471.552 480.236 471.758 480.151 471.993C480.071 472.227 480.031 472.476 480.031 472.741ZM491.9 476.472V472.307C491.9 471.988 491.835 471.711 491.705 471.477C491.581 471.237 491.391 471.053 491.137 470.923C490.883 470.794 490.568 470.729 490.194 470.729C489.845 470.729 489.539 470.789 489.275 470.908C489.015 471.028 488.811 471.185 488.661 471.38C488.517 471.574 488.445 471.783 488.445 472.008H487.061C487.061 471.719 487.136 471.432 487.285 471.148C487.435 470.864 487.649 470.607 487.928 470.377C488.213 470.143 488.552 469.959 488.946 469.824C489.344 469.684 489.788 469.615 490.277 469.615C490.865 469.615 491.384 469.714 491.832 469.914C492.286 470.113 492.64 470.415 492.894 470.819C493.153 471.218 493.283 471.719 493.283 472.322V476.091C493.283 476.36 493.306 476.647 493.35 476.951C493.4 477.255 493.473 477.517 493.567 477.736V477.856H492.124C492.054 477.696 491.999 477.485 491.959 477.22C491.92 476.951 491.9 476.702 491.9 476.472ZM492.139 472.95L492.154 473.922H490.755C490.362 473.922 490.01 473.955 489.701 474.019C489.392 474.079 489.133 474.172 488.923 474.296C488.714 474.421 488.554 474.578 488.445 474.767C488.335 474.952 488.28 475.169 488.28 475.418C488.28 475.672 488.337 475.904 488.452 476.113C488.567 476.323 488.739 476.49 488.968 476.615C489.202 476.734 489.489 476.794 489.828 476.794C490.252 476.794 490.626 476.704 490.95 476.525C491.274 476.345 491.531 476.126 491.72 475.867C491.915 475.607 492.019 475.356 492.034 475.111L492.625 475.777C492.59 475.986 492.495 476.218 492.341 476.472C492.186 476.727 491.979 476.971 491.72 477.205C491.466 477.435 491.162 477.627 490.808 477.781C490.459 477.931 490.065 478.006 489.626 478.006C489.078 478.006 488.597 477.898 488.183 477.684C487.774 477.47 487.455 477.183 487.226 476.824C487.001 476.46 486.889 476.054 486.889 475.605C486.889 475.171 486.974 474.79 487.143 474.461C487.313 474.127 487.557 473.85 487.876 473.631C488.195 473.406 488.579 473.237 489.028 473.122C489.477 473.007 489.978 472.95 490.531 472.95H492.139ZM496.963 469.764V477.856H495.572V469.764H496.963ZM495.467 467.618C495.467 467.394 495.534 467.204 495.669 467.05C495.808 466.895 496.013 466.818 496.282 466.818C496.546 466.818 496.748 466.895 496.888 467.05C497.032 467.204 497.105 467.394 497.105 467.618C497.105 467.832 497.032 468.017 496.888 468.171C496.748 468.321 496.546 468.396 496.282 468.396C496.013 468.396 495.808 468.321 495.669 468.171C495.534 468.017 495.467 467.832 495.467 467.618ZM500.567 471.492V477.856H499.184V469.764H500.492L500.567 471.492ZM500.238 473.503L499.662 473.481C499.667 472.928 499.75 472.417 499.909 471.948C500.069 471.474 500.293 471.063 500.582 470.714C500.871 470.365 501.215 470.096 501.614 469.906C502.018 469.712 502.464 469.615 502.953 469.615C503.352 469.615 503.711 469.669 504.03 469.779C504.349 469.884 504.621 470.053 504.845 470.288C505.074 470.522 505.249 470.826 505.368 471.2C505.488 471.569 505.548 472.02 505.548 472.554V477.856H504.157V472.539C504.157 472.115 504.095 471.776 503.97 471.522C503.845 471.262 503.663 471.075 503.424 470.961C503.185 470.841 502.891 470.781 502.542 470.781C502.198 470.781 501.883 470.854 501.599 470.998C501.32 471.143 501.078 471.342 500.874 471.596C500.674 471.851 500.517 472.142 500.403 472.471C500.293 472.795 500.238 473.14 500.238 473.503ZM512.832 466.369V477.856H511.448V466.369H512.832ZM512.503 473.503L511.927 473.481C511.932 472.928 512.014 472.417 512.174 471.948C512.333 471.474 512.558 471.063 512.847 470.714C513.136 470.365 513.48 470.096 513.879 469.906C514.283 469.712 514.729 469.615 515.218 469.615C515.616 469.615 515.975 469.669 516.295 469.779C516.614 469.884 516.885 470.053 517.11 470.288C517.339 470.522 517.514 470.826 517.633 471.2C517.753 471.569 517.813 472.02 517.813 472.554V477.856H516.422V472.539C516.422 472.115 516.359 471.776 516.235 471.522C516.11 471.262 515.928 471.075 515.689 470.961C515.449 470.841 515.155 470.781 514.806 470.781C514.462 470.781 514.148 470.854 513.864 470.998C513.585 471.143 513.343 471.342 513.139 471.596C512.939 471.851 512.782 472.142 512.667 472.471C512.558 472.795 512.503 473.14 512.503 473.503ZM524.655 476.472V472.307C524.655 471.988 524.591 471.711 524.461 471.477C524.336 471.237 524.147 471.053 523.893 470.923C523.638 470.794 523.324 470.729 522.95 470.729C522.601 470.729 522.295 470.789 522.031 470.908C521.771 471.028 521.567 471.185 521.417 471.38C521.273 471.574 521.2 471.783 521.2 472.008H519.817C519.817 471.719 519.892 471.432 520.041 471.148C520.191 470.864 520.405 470.607 520.684 470.377C520.969 470.143 521.308 469.959 521.701 469.824C522.1 469.684 522.544 469.615 523.033 469.615C523.621 469.615 524.139 469.714 524.588 469.914C525.042 470.113 525.396 470.415 525.65 470.819C525.909 471.218 526.039 471.719 526.039 472.322V476.091C526.039 476.36 526.061 476.647 526.106 476.951C526.156 477.255 526.228 477.517 526.323 477.736V477.856H524.88C524.81 477.696 524.755 477.485 524.715 477.22C524.675 476.951 524.655 476.702 524.655 476.472ZM524.895 472.95L524.91 473.922H523.511C523.117 473.922 522.766 473.955 522.457 474.019C522.148 474.079 521.888 474.172 521.679 474.296C521.47 474.421 521.31 474.578 521.2 474.767C521.091 474.952 521.036 475.169 521.036 475.418C521.036 475.672 521.093 475.904 521.208 476.113C521.323 476.323 521.495 476.49 521.724 476.615C521.958 476.734 522.245 476.794 522.584 476.794C523.008 476.794 523.382 476.704 523.706 476.525C524.03 476.345 524.287 476.126 524.476 475.867C524.67 475.607 524.775 475.356 524.79 475.111L525.381 475.777C525.346 475.986 525.251 476.218 525.097 476.472C524.942 476.727 524.735 476.971 524.476 477.205C524.222 477.435 523.918 477.627 523.564 477.781C523.215 477.931 522.821 478.006 522.382 478.006C521.834 478.006 521.352 477.898 520.939 477.684C520.53 477.47 520.211 477.183 519.981 476.824C519.757 476.46 519.645 476.054 519.645 475.605C519.645 475.171 519.73 474.79 519.899 474.461C520.069 474.127 520.313 473.85 520.632 473.631C520.951 473.406 521.335 473.237 521.784 473.122C522.232 473.007 522.734 472.95 523.287 472.95H524.895ZM529.599 471.036V477.856H528.215V469.764H529.561L529.599 471.036ZM532.127 469.719L532.119 471.006C532.004 470.981 531.895 470.966 531.79 470.961C531.69 470.951 531.576 470.946 531.446 470.946C531.127 470.946 530.845 470.996 530.601 471.095C530.357 471.195 530.15 471.335 529.98 471.514C529.811 471.694 529.676 471.908 529.576 472.157C529.482 472.402 529.419 472.671 529.389 472.965L529.001 473.189C529.001 472.701 529.048 472.242 529.143 471.813C529.242 471.385 529.394 471.006 529.599 470.677C529.803 470.343 530.062 470.083 530.377 469.899C530.696 469.709 531.075 469.615 531.513 469.615C531.613 469.615 531.728 469.627 531.857 469.652C531.987 469.672 532.077 469.694 532.127 469.719ZM538.356 476.285V466.369H539.747V477.856H538.476L538.356 476.285ZM532.912 473.9V473.743C532.912 473.125 532.987 472.564 533.136 472.06C533.291 471.552 533.508 471.115 533.787 470.751C534.071 470.387 534.407 470.108 534.796 469.914C535.19 469.714 535.629 469.615 536.113 469.615C536.621 469.615 537.065 469.704 537.444 469.884C537.828 470.058 538.152 470.315 538.416 470.654C538.685 470.988 538.897 471.392 539.052 471.866C539.206 472.339 539.313 472.875 539.373 473.474V474.162C539.318 474.755 539.211 475.288 539.052 475.762C538.897 476.236 538.685 476.639 538.416 476.973C538.152 477.308 537.828 477.564 537.444 477.744C537.06 477.918 536.611 478.006 536.098 478.006C535.624 478.006 535.19 477.903 534.796 477.699C534.407 477.494 534.071 477.208 533.787 476.839C533.508 476.47 533.291 476.036 533.136 475.538C532.987 475.034 532.912 474.488 532.912 473.9ZM534.303 473.743V473.9C534.303 474.304 534.343 474.683 534.422 475.037C534.507 475.391 534.637 475.702 534.811 475.971C534.986 476.241 535.208 476.452 535.477 476.607C535.746 476.757 536.068 476.831 536.442 476.831C536.9 476.831 537.277 476.734 537.571 476.54C537.87 476.345 538.109 476.089 538.289 475.769C538.468 475.45 538.608 475.104 538.708 474.73V472.928C538.648 472.653 538.561 472.389 538.446 472.135C538.336 471.876 538.192 471.646 538.012 471.447C537.838 471.242 537.621 471.08 537.361 470.961C537.107 470.841 536.806 470.781 536.457 470.781C536.078 470.781 535.751 470.861 535.477 471.021C535.208 471.175 534.986 471.39 534.811 471.664C534.637 471.933 534.507 472.247 534.422 472.606C534.343 472.96 534.303 473.339 534.303 473.743ZM545.693 466.369H547.084V476.285L546.964 477.856H545.693V466.369ZM552.55 473.743V473.9C552.55 474.488 552.481 475.034 552.341 475.538C552.201 476.036 551.997 476.47 551.728 476.839C551.458 477.208 551.129 477.494 550.741 477.699C550.352 477.903 549.905 478.006 549.402 478.006C548.888 478.006 548.437 477.918 548.048 477.744C547.664 477.564 547.34 477.308 547.076 476.973C546.812 476.639 546.6 476.236 546.44 475.762C546.286 475.288 546.179 474.755 546.119 474.162V473.474C546.179 472.875 546.286 472.339 546.44 471.866C546.6 471.392 546.812 470.988 547.076 470.654C547.34 470.315 547.664 470.058 548.048 469.884C548.432 469.704 548.878 469.615 549.387 469.615C549.895 469.615 550.347 469.714 550.741 469.914C551.134 470.108 551.463 470.387 551.728 470.751C551.997 471.115 552.201 471.552 552.341 472.06C552.481 472.564 552.55 473.125 552.55 473.743ZM551.159 473.9V473.743C551.159 473.339 551.122 472.96 551.047 472.606C550.972 472.247 550.853 471.933 550.688 471.664C550.524 471.39 550.307 471.175 550.038 471.021C549.768 470.861 549.437 470.781 549.043 470.781C548.694 470.781 548.39 470.841 548.131 470.961C547.876 471.08 547.659 471.242 547.48 471.447C547.3 471.646 547.153 471.876 547.039 472.135C546.929 472.389 546.847 472.653 546.792 472.928V474.73C546.872 475.079 547.001 475.415 547.181 475.74C547.365 476.059 547.61 476.32 547.914 476.525C548.223 476.729 548.604 476.831 549.058 476.831C549.432 476.831 549.751 476.757 550.015 476.607C550.284 476.452 550.501 476.241 550.666 475.971C550.835 475.702 550.96 475.391 551.04 475.037C551.119 474.683 551.159 474.304 551.159 473.9ZM555.684 471.036V477.856H554.3V469.764H555.646L555.684 471.036ZM558.212 469.719L558.204 471.006C558.089 470.981 557.98 470.966 557.875 470.961C557.775 470.951 557.661 470.946 557.531 470.946C557.212 470.946 556.93 470.996 556.686 471.095C556.442 471.195 556.235 471.335 556.065 471.514C555.896 471.694 555.761 471.908 555.661 472.157C555.567 472.402 555.504 472.671 555.474 472.965L555.086 473.189C555.086 472.701 555.133 472.242 555.228 471.813C555.327 471.385 555.479 471.006 555.684 470.677C555.888 470.343 556.148 470.083 556.462 469.899C556.781 469.709 557.16 469.615 557.598 469.615C557.698 469.615 557.813 469.627 557.942 469.652C558.072 469.672 558.162 469.694 558.212 469.719ZM560.994 469.764V477.856H559.603V469.764H560.994ZM559.498 467.618C559.498 467.394 559.565 467.204 559.7 467.05C559.839 466.895 560.044 466.818 560.313 466.818C560.577 466.818 560.779 466.895 560.919 467.05C561.063 467.204 561.136 467.394 561.136 467.618C561.136 467.832 561.063 468.017 560.919 468.171C560.779 468.321 560.577 468.396 560.313 468.396C560.044 468.396 559.839 468.321 559.7 468.171C559.565 468.017 559.498 467.832 559.498 467.618ZM566.453 476.869C566.782 476.869 567.086 476.801 567.365 476.667C567.644 476.532 567.874 476.348 568.053 476.113C568.233 475.874 568.335 475.602 568.36 475.298H569.676C569.651 475.777 569.489 476.223 569.19 476.637C568.896 477.046 568.51 477.377 568.031 477.632C567.552 477.881 567.026 478.006 566.453 478.006C565.845 478.006 565.314 477.898 564.86 477.684C564.411 477.47 564.037 477.175 563.738 476.801C563.444 476.428 563.222 475.999 563.073 475.515C562.928 475.027 562.856 474.511 562.856 473.967V473.653C562.856 473.11 562.928 472.596 563.073 472.112C563.222 471.624 563.444 471.193 563.738 470.819C564.037 470.445 564.411 470.151 564.86 469.936C565.314 469.722 565.845 469.615 566.453 469.615C567.086 469.615 567.64 469.744 568.113 470.004C568.587 470.258 568.958 470.607 569.227 471.051C569.502 471.489 569.651 471.988 569.676 472.546H568.36C568.335 472.212 568.24 471.911 568.076 471.641C567.916 471.372 567.697 471.158 567.418 470.998C567.143 470.834 566.822 470.751 566.453 470.751C566.029 470.751 565.673 470.836 565.383 471.006C565.099 471.17 564.872 471.395 564.703 471.679C564.538 471.958 564.419 472.27 564.344 472.614C564.274 472.953 564.239 473.299 564.239 473.653V473.967C564.239 474.321 564.274 474.67 564.344 475.014C564.414 475.358 564.531 475.67 564.695 475.949C564.865 476.228 565.092 476.452 565.376 476.622C565.665 476.787 566.024 476.869 566.453 476.869ZM572.623 466.369V477.856H571.232V466.369H572.623ZM577.566 469.764L574.036 473.541L572.062 475.59L571.95 474.117L573.363 472.427L575.876 469.764H577.566ZM576.302 477.856L573.415 473.997L574.133 472.763L577.932 477.856H576.302ZM578.935 477.123C578.935 476.889 579.007 476.692 579.151 476.532C579.301 476.368 579.515 476.285 579.795 476.285C580.074 476.285 580.286 476.368 580.43 476.532C580.58 476.692 580.655 476.889 580.655 477.123C580.655 477.352 580.58 477.547 580.43 477.706C580.286 477.866 580.074 477.946 579.795 477.946C579.515 477.946 579.301 477.866 579.151 477.706C579.007 477.547 578.935 477.352 578.935 477.123ZM578.942 470.52C578.942 470.285 579.014 470.088 579.159 469.929C579.308 469.764 579.523 469.682 579.802 469.682C580.081 469.682 580.293 469.764 580.438 469.929C580.587 470.088 580.662 470.285 580.662 470.52C580.662 470.749 580.587 470.943 580.438 471.103C580.293 471.262 580.081 471.342 579.802 471.342C579.523 471.342 579.308 471.262 579.159 471.103C579.014 470.943 578.942 470.749 578.942 470.52ZM593.189 471.544V473.204C593.189 474.097 593.109 474.85 592.949 475.463C592.79 476.076 592.56 476.57 592.261 476.944C591.962 477.318 591.601 477.589 591.177 477.759C590.758 477.923 590.284 478.006 589.756 478.006C589.337 478.006 588.951 477.953 588.597 477.848C588.243 477.744 587.924 477.577 587.64 477.347C587.36 477.113 587.121 476.809 586.922 476.435C586.722 476.061 586.57 475.607 586.465 475.074C586.361 474.54 586.308 473.917 586.308 473.204V471.544C586.308 470.652 586.388 469.904 586.548 469.301C586.712 468.697 586.944 468.214 587.243 467.85C587.542 467.481 587.901 467.217 588.32 467.057C588.744 466.897 589.218 466.818 589.741 466.818C590.165 466.818 590.554 466.87 590.908 466.975C591.267 467.074 591.586 467.236 591.865 467.461C592.144 467.68 592.381 467.974 592.575 468.343C592.775 468.707 592.927 469.153 593.032 469.682C593.136 470.21 593.189 470.831 593.189 471.544ZM591.798 473.429V471.312C591.798 470.824 591.768 470.395 591.708 470.026C591.653 469.652 591.571 469.333 591.461 469.069C591.351 468.804 591.212 468.59 591.042 468.426C590.878 468.261 590.686 468.141 590.466 468.067C590.252 467.987 590.01 467.947 589.741 467.947C589.412 467.947 589.12 468.009 588.866 468.134C588.612 468.254 588.397 468.445 588.223 468.71C588.053 468.974 587.924 469.32 587.834 469.749C587.744 470.178 587.699 470.699 587.699 471.312V473.429C587.699 473.917 587.727 474.349 587.782 474.722C587.841 475.096 587.929 475.42 588.043 475.695C588.158 475.964 588.298 476.186 588.462 476.36C588.627 476.535 588.816 476.664 589.031 476.749C589.25 476.829 589.492 476.869 589.756 476.869C590.095 476.869 590.392 476.804 590.646 476.674C590.9 476.545 591.112 476.343 591.282 476.069C591.456 475.789 591.586 475.433 591.67 474.999C591.755 474.56 591.798 474.037 591.798 473.429Z" fill="white"/>
<path d="M461.918 493.412V500.232H460.535V492.14H461.881L461.918 493.412ZM464.446 492.095L464.438 493.382C464.324 493.357 464.214 493.342 464.109 493.337C464.01 493.327 463.895 493.322 463.765 493.322C463.446 493.322 463.165 493.372 462.92 493.471C462.676 493.571 462.469 493.711 462.3 493.89C462.13 494.07 461.995 494.284 461.896 494.533C461.801 494.778 461.739 495.047 461.709 495.341L461.32 495.565C461.32 495.077 461.367 494.618 461.462 494.189C461.562 493.761 461.714 493.382 461.918 493.053C462.123 492.719 462.382 492.459 462.696 492.275C463.015 492.085 463.394 491.991 463.833 491.991C463.932 491.991 464.047 492.003 464.177 492.028C464.306 492.048 464.396 492.07 464.446 492.095ZM468.933 500.382C468.37 500.382 467.859 500.287 467.4 500.097C466.946 499.903 466.555 499.631 466.226 499.282C465.902 498.933 465.652 498.519 465.478 498.041C465.303 497.562 465.216 497.039 465.216 496.47V496.156C465.216 495.498 465.313 494.912 465.508 494.399C465.702 493.88 465.967 493.441 466.301 493.082C466.635 492.724 467.014 492.452 467.437 492.267C467.861 492.083 468.3 491.991 468.754 491.991C469.332 491.991 469.83 492.09 470.249 492.29C470.673 492.489 471.02 492.768 471.289 493.127C471.558 493.481 471.757 493.9 471.887 494.384C472.017 494.862 472.082 495.386 472.082 495.954V496.575H466.039V495.446H470.698V495.341C470.678 494.982 470.603 494.633 470.474 494.294C470.349 493.955 470.15 493.676 469.875 493.456C469.601 493.237 469.227 493.127 468.754 493.127C468.439 493.127 468.15 493.195 467.886 493.329C467.622 493.459 467.395 493.653 467.206 493.913C467.016 494.172 466.869 494.488 466.764 494.862C466.66 495.236 466.607 495.668 466.607 496.156V496.47C466.607 496.854 466.66 497.216 466.764 497.555C466.874 497.889 467.031 498.183 467.235 498.437C467.445 498.691 467.697 498.891 467.991 499.035C468.29 499.18 468.629 499.252 469.008 499.252C469.496 499.252 469.91 499.153 470.249 498.953C470.588 498.754 470.885 498.487 471.139 498.153L471.977 498.818C471.802 499.083 471.58 499.335 471.311 499.574C471.042 499.813 470.71 500.008 470.317 500.157C469.928 500.307 469.467 500.382 468.933 500.382ZM475.073 493.748V500.232H473.682V492.14H474.998L475.073 493.748ZM474.789 495.879L474.146 495.857C474.151 495.304 474.223 494.793 474.362 494.324C474.502 493.85 474.709 493.439 474.983 493.09C475.257 492.741 475.599 492.472 476.008 492.282C476.417 492.088 476.89 491.991 477.429 491.991C477.808 491.991 478.157 492.045 478.476 492.155C478.795 492.26 479.071 492.427 479.306 492.656C479.54 492.886 479.722 493.18 479.852 493.539C479.981 493.898 480.046 494.331 480.046 494.84V500.232H478.663V494.907C478.663 494.483 478.59 494.144 478.446 493.89C478.306 493.636 478.107 493.451 477.847 493.337C477.588 493.217 477.284 493.157 476.935 493.157C476.526 493.157 476.185 493.23 475.911 493.374C475.636 493.519 475.417 493.718 475.252 493.972C475.088 494.227 474.968 494.518 474.893 494.847C474.824 495.171 474.789 495.515 474.789 495.879ZM480.031 495.117L479.104 495.401C479.109 494.957 479.181 494.531 479.321 494.122C479.465 493.713 479.672 493.349 479.941 493.03C480.216 492.711 480.552 492.459 480.951 492.275C481.35 492.085 481.806 491.991 482.32 491.991C482.753 491.991 483.137 492.048 483.471 492.163C483.81 492.277 484.095 492.454 484.324 492.694C484.558 492.928 484.735 493.23 484.855 493.598C484.974 493.967 485.034 494.406 485.034 494.915V500.232H483.643V494.9C483.643 494.446 483.571 494.095 483.426 493.845C483.287 493.591 483.087 493.414 482.828 493.314C482.574 493.21 482.27 493.157 481.916 493.157C481.612 493.157 481.342 493.21 481.108 493.314C480.874 493.419 480.677 493.564 480.517 493.748C480.358 493.928 480.236 494.134 480.151 494.369C480.071 494.603 480.031 494.852 480.031 495.117ZM491.9 498.848V494.683C491.9 494.364 491.835 494.087 491.705 493.853C491.581 493.613 491.391 493.429 491.137 493.299C490.883 493.17 490.568 493.105 490.194 493.105C489.845 493.105 489.539 493.165 489.275 493.284C489.015 493.404 488.811 493.561 488.661 493.756C488.517 493.95 488.445 494.159 488.445 494.384H487.061C487.061 494.095 487.136 493.808 487.285 493.524C487.435 493.24 487.649 492.983 487.928 492.753C488.213 492.519 488.552 492.335 488.946 492.2C489.344 492.06 489.788 491.991 490.277 491.991C490.865 491.991 491.384 492.09 491.832 492.29C492.286 492.489 492.64 492.791 492.894 493.195C493.153 493.594 493.283 494.095 493.283 494.698V498.467C493.283 498.736 493.306 499.023 493.35 499.327C493.4 499.631 493.473 499.893 493.567 500.112V500.232H492.124C492.054 500.072 491.999 499.861 491.959 499.596C491.92 499.327 491.9 499.078 491.9 498.848ZM492.139 495.326L492.154 496.298H490.755C490.362 496.298 490.01 496.331 489.701 496.395C489.392 496.455 489.133 496.548 488.923 496.672C488.714 496.797 488.554 496.954 488.445 497.143C488.335 497.328 488.28 497.545 488.28 497.794C488.28 498.048 488.337 498.28 488.452 498.489C488.567 498.699 488.739 498.866 488.968 498.991C489.202 499.11 489.489 499.17 489.828 499.17C490.252 499.17 490.626 499.08 490.95 498.901C491.274 498.721 491.531 498.502 491.72 498.243C491.915 497.983 492.019 497.732 492.034 497.487L492.625 498.153C492.59 498.362 492.495 498.594 492.341 498.848C492.186 499.103 491.979 499.347 491.72 499.581C491.466 499.811 491.162 500.003 490.808 500.157C490.459 500.307 490.065 500.382 489.626 500.382C489.078 500.382 488.597 500.274 488.183 500.06C487.774 499.846 487.455 499.559 487.226 499.2C487.001 498.836 486.889 498.43 486.889 497.981C486.889 497.547 486.974 497.166 487.143 496.837C487.313 496.503 487.557 496.226 487.876 496.007C488.195 495.782 488.579 495.613 489.028 495.498C489.477 495.383 489.978 495.326 490.531 495.326H492.139ZM496.963 492.14V500.232H495.572V492.14H496.963ZM495.467 489.994C495.467 489.769 495.534 489.58 495.669 489.425C495.808 489.271 496.013 489.194 496.282 489.194C496.546 489.194 496.748 489.271 496.888 489.425C497.032 489.58 497.105 489.769 497.105 489.994C497.105 490.208 497.032 490.393 496.888 490.547C496.748 490.697 496.546 490.772 496.282 490.772C496.013 490.772 495.808 490.697 495.669 490.547C495.534 490.393 495.467 490.208 495.467 489.994ZM500.567 493.868V500.232H499.184V492.14H500.492L500.567 493.868ZM500.238 495.879L499.662 495.857C499.667 495.304 499.75 494.793 499.909 494.324C500.069 493.85 500.293 493.439 500.582 493.09C500.871 492.741 501.215 492.472 501.614 492.282C502.018 492.088 502.464 491.991 502.953 491.991C503.352 491.991 503.711 492.045 504.03 492.155C504.349 492.26 504.621 492.429 504.845 492.664C505.074 492.898 505.249 493.202 505.368 493.576C505.488 493.945 505.548 494.396 505.548 494.93V500.232H504.157V494.915C504.157 494.491 504.095 494.152 503.97 493.898C503.845 493.638 503.663 493.451 503.424 493.337C503.185 493.217 502.891 493.157 502.542 493.157C502.198 493.157 501.883 493.23 501.599 493.374C501.32 493.519 501.078 493.718 500.874 493.972C500.674 494.227 500.517 494.518 500.403 494.847C500.293 495.171 500.238 495.515 500.238 495.879ZM511.441 488.745H512.832V498.661L512.712 500.232H511.441V488.745ZM518.299 496.119V496.276C518.299 496.864 518.229 497.41 518.089 497.914C517.95 498.412 517.745 498.846 517.476 499.215C517.207 499.584 516.878 499.87 516.489 500.075C516.1 500.279 515.654 500.382 515.15 500.382C514.637 500.382 514.186 500.294 513.797 500.12C513.413 499.94 513.089 499.684 512.824 499.349C512.56 499.015 512.348 498.612 512.189 498.138C512.034 497.664 511.927 497.131 511.867 496.538V495.85C511.927 495.251 512.034 494.715 512.189 494.242C512.348 493.768 512.56 493.364 512.824 493.03C513.089 492.691 513.413 492.434 513.797 492.26C514.181 492.08 514.627 491.991 515.135 491.991C515.644 491.991 516.095 492.09 516.489 492.29C516.883 492.484 517.212 492.763 517.476 493.127C517.745 493.491 517.95 493.928 518.089 494.436C518.229 494.94 518.299 495.501 518.299 496.119ZM516.908 496.276V496.119C516.908 495.715 516.87 495.336 516.796 494.982C516.721 494.623 516.601 494.309 516.437 494.04C516.272 493.766 516.055 493.551 515.786 493.397C515.517 493.237 515.185 493.157 514.791 493.157C514.442 493.157 514.138 493.217 513.879 493.337C513.625 493.456 513.408 493.618 513.228 493.823C513.049 494.022 512.902 494.252 512.787 494.511C512.677 494.765 512.595 495.029 512.54 495.304V497.106C512.62 497.455 512.75 497.791 512.929 498.116C513.114 498.435 513.358 498.696 513.662 498.901C513.971 499.105 514.353 499.207 514.806 499.207C515.18 499.207 515.499 499.133 515.764 498.983C516.033 498.828 516.25 498.617 516.414 498.347C516.584 498.078 516.708 497.767 516.788 497.413C516.868 497.059 516.908 496.68 516.908 496.276ZM521.432 493.412V500.232H520.049V492.14H521.395L521.432 493.412ZM523.96 492.095L523.953 493.382C523.838 493.357 523.728 493.342 523.623 493.337C523.524 493.327 523.409 493.322 523.279 493.322C522.96 493.322 522.679 493.372 522.434 493.471C522.19 493.571 521.983 493.711 521.814 493.89C521.644 494.07 521.51 494.284 521.41 494.533C521.315 494.778 521.253 495.047 521.223 495.341L520.834 495.565C520.834 495.077 520.881 494.618 520.976 494.189C521.076 493.761 521.228 493.382 521.432 493.053C521.637 492.719 521.896 492.459 522.21 492.275C522.529 492.085 522.908 491.991 523.347 491.991C523.446 491.991 523.561 492.003 523.691 492.028C523.82 492.048 523.91 492.07 523.96 492.095ZM526.742 492.14V500.232H525.351V492.14H526.742ZM525.246 489.994C525.246 489.769 525.314 489.58 525.448 489.425C525.588 489.271 525.792 489.194 526.061 489.194C526.326 489.194 526.528 489.271 526.667 489.425C526.812 489.58 526.884 489.769 526.884 489.994C526.884 490.208 526.812 490.393 526.667 490.547C526.528 490.697 526.326 490.772 526.061 490.772C525.792 490.772 525.588 490.697 525.448 490.547C525.314 490.393 525.246 490.208 525.246 489.994ZM532.201 499.245C532.53 499.245 532.834 499.177 533.114 499.043C533.393 498.908 533.622 498.724 533.802 498.489C533.981 498.25 534.083 497.978 534.108 497.674H535.425C535.4 498.153 535.238 498.599 534.938 499.013C534.644 499.422 534.258 499.753 533.779 500.008C533.301 500.257 532.775 500.382 532.201 500.382C531.593 500.382 531.062 500.274 530.608 500.06C530.16 499.846 529.786 499.551 529.487 499.177C529.192 498.804 528.971 498.375 528.821 497.891C528.676 497.403 528.604 496.887 528.604 496.343V496.029C528.604 495.486 528.676 494.972 528.821 494.488C528.971 494 529.192 493.569 529.487 493.195C529.786 492.821 530.16 492.527 530.608 492.312C531.062 492.098 531.593 491.991 532.201 491.991C532.834 491.991 533.388 492.12 533.862 492.379C534.335 492.634 534.707 492.983 534.976 493.426C535.25 493.865 535.4 494.364 535.425 494.922H534.108C534.083 494.588 533.989 494.287 533.824 494.017C533.665 493.748 533.445 493.534 533.166 493.374C532.892 493.21 532.57 493.127 532.201 493.127C531.778 493.127 531.421 493.212 531.132 493.382C530.848 493.546 530.621 493.77 530.451 494.055C530.287 494.334 530.167 494.645 530.092 494.989C530.023 495.329 529.988 495.675 529.988 496.029V496.343C529.988 496.697 530.023 497.046 530.092 497.39C530.162 497.734 530.279 498.046 530.444 498.325C530.613 498.604 530.84 498.828 531.124 498.998C531.414 499.163 531.773 499.245 532.201 499.245ZM538.371 488.745V500.232H536.98V488.745H538.371ZM543.314 492.14L539.785 495.917L537.81 497.966L537.698 496.493L539.111 494.803L541.624 492.14H543.314ZM542.051 500.232L539.164 496.373L539.882 495.139L543.681 500.232H542.051ZM544.683 499.499C544.683 499.265 544.755 499.068 544.9 498.908C545.049 498.744 545.264 498.661 545.543 498.661C545.822 498.661 546.034 498.744 546.179 498.908C546.328 499.068 546.403 499.265 546.403 499.499C546.403 499.728 546.328 499.923 546.179 500.082C546.034 500.242 545.822 500.322 545.543 500.322C545.264 500.322 545.049 500.242 544.9 500.082C544.755 499.923 544.683 499.728 544.683 499.499ZM544.69 492.896C544.69 492.661 544.763 492.464 544.907 492.305C545.057 492.14 545.271 492.058 545.55 492.058C545.83 492.058 546.042 492.14 546.186 492.305C546.336 492.464 546.41 492.661 546.41 492.896C546.41 493.125 546.336 493.319 546.186 493.479C546.042 493.638 545.83 493.718 545.55 493.718C545.271 493.718 545.057 493.638 544.907 493.479C544.763 493.319 544.69 493.125 544.69 492.896ZM553.852 495.049L552.745 494.765L553.291 489.343H558.877V490.622H554.465L554.136 493.584C554.335 493.469 554.587 493.362 554.891 493.262C555.2 493.162 555.554 493.112 555.953 493.112C556.457 493.112 556.908 493.2 557.307 493.374C557.706 493.544 558.045 493.788 558.324 494.107C558.608 494.426 558.825 494.81 558.974 495.259C559.124 495.707 559.199 496.208 559.199 496.762C559.199 497.285 559.126 497.767 558.982 498.205C558.842 498.644 558.63 499.028 558.346 499.357C558.062 499.681 557.703 499.933 557.269 500.112C556.841 500.292 556.334 500.382 555.751 500.382C555.312 500.382 554.896 500.322 554.502 500.202C554.113 500.077 553.764 499.89 553.455 499.641C553.151 499.387 552.902 499.073 552.707 498.699C552.518 498.32 552.398 497.876 552.348 497.368H553.665C553.724 497.776 553.844 498.12 554.024 498.4C554.203 498.679 554.437 498.891 554.727 499.035C555.021 499.175 555.362 499.245 555.751 499.245C556.08 499.245 556.372 499.187 556.626 499.073C556.88 498.958 557.095 498.794 557.269 498.579C557.444 498.365 557.576 498.106 557.666 497.801C557.76 497.497 557.808 497.156 557.808 496.777C557.808 496.433 557.76 496.114 557.666 495.82C557.571 495.525 557.429 495.269 557.239 495.049C557.055 494.83 556.828 494.66 556.559 494.541C556.29 494.416 555.98 494.354 555.631 494.354C555.168 494.354 554.816 494.416 554.577 494.541C554.343 494.665 554.101 494.835 553.852 495.049Z" fill="white"/>
<path d="M460.874 525.122H459.909V520.221H460.874V519.287H461.824V518.337H464.826V519.287H465.76V520.221H466.709V521.339H465.607V520.39H464.657V519.44H461.977V520.39H461.042V524.969H461.977V525.903H464.657V524.969H465.607V524.02H466.709V525.122H465.76V526.072H464.826V527.037H461.824V526.072H460.874V525.122ZM467.567 523.07H468.532V522.12H472.315V519.44H468.7V521.339H467.567V519.287H468.532V518.337H472.484V519.287H473.418V525.903H474.367V527.037H473.265V526.072H471.534V527.037H468.532V526.072H467.567V523.07ZM471.365 525.903V524.969H472.315V523.238H468.7V525.903H471.365ZM477.614 519.44H475.7V518.337H477.614V515.488H478.717V518.337H481.551V519.44H478.717V525.903H481.551V527.037H478.549V526.072H477.614V519.44ZM483.848 525.122H482.883V520.221H483.848V519.287H484.798V518.337H487.8V519.287H488.734V520.221H489.683V521.339H488.581V520.39H487.631V519.44H484.951V520.39H484.016V524.969H484.951V525.903H487.631V524.969H488.581V524.02H489.683V525.122H488.734V526.072H487.8V527.037H484.798V526.072H483.848V525.122ZM490.541 515.488H491.674V519.287H492.456V518.337H495.458V519.287H496.392V520.221H497.341V527.037H496.239V520.39H495.289V519.44H492.609V520.39H491.674V527.037H490.541V515.488ZM501.033 515.488H502.151V517.556H501.033V515.488ZM501.033 518.337H502.151V527.037H501.033V518.337ZM505.857 518.337H506.99V519.287H507.772V518.337H510.774V519.287H511.708V520.221H512.657V527.037H511.555V520.39H510.605V519.44H507.925V520.39H506.99V527.037H505.857V518.337ZM513.515 524.969H514.48V524.173H513.515V523.07H514.48V522.289H513.515V519.287H514.48V518.337H518.432V519.287H519.213V518.337H520.315V519.44H519.366V522.289H518.432V523.238H514.648V524.02H519.366V524.969H520.315V527.037H519.366V527.986H514.48V527.037H513.515V524.969ZM518.263 522.12V519.44H514.648V522.12H518.263ZM519.213 526.853V525.122H514.648V526.853H519.213ZM528.831 515.488H529.964V519.287H530.746V518.337H533.748V519.287H534.682V520.221H535.631V525.122H534.682V526.072H533.748V527.037H530.746V526.072H529.964V527.037H528.831V515.488ZM530.899 524.969V525.903H533.579V524.969H534.529V520.39H533.579V519.44H530.899V520.39H529.964V524.969H530.899ZM536.489 523.07H537.454V522.12H541.237V519.44H537.622V521.339H536.489V519.287H537.454V518.337H541.406V519.287H542.34V525.903H543.289V527.037H542.187V526.072H540.456V527.037H537.454V526.072H536.489V523.07ZM540.287 525.903V524.969H541.237V523.238H537.622V525.903H540.287ZM546.981 515.488H548.099V527.037H546.981V515.488ZM554.639 515.488H555.757V527.037H554.639V515.488ZM561.822 518.337H563.889V520.39H561.822V518.337ZM561.822 524.02H563.889V526.072H561.822V524.02ZM575.744 525.122H574.779V524.02H575.912V524.969H576.847V525.903H579.527V524.969H580.477V521.339H579.527V520.39H576.847V521.339H575.912V522.289H574.779V514.554H580.63V515.657H575.912V520.221H576.694V519.287H579.696V520.221H580.63V521.171H581.579V525.122H580.63V526.072H579.696V527.037H576.694V526.072H575.744V525.122Z" fill="white"/>
<path fill-rule="evenodd" clip-rule="evenodd" d="M561.222 436.506H519.65V437.6H518.556V440.882H519.65V441.976H561.222V440.882H562.316V437.6H561.222V436.506ZM561.222 437.6V440.882H519.65V437.6H561.222Z" fill="#212121"/>
<rect x="519.65" y="437.6" width="41.572" height="2.188" fill="#43E27E"/>
<rect x="519.65" y="439.788" width="41.572" height="1.094" fill="#0D9841"/>
<path fill-rule="evenodd" clip-rule="evenodd" d="M542.624 431.036H539.342V432.13H538.248V435.412H539.342V436.506H542.624V435.412H543.718V432.13H542.624V431.036ZM542.624 432.13V435.412H539.342V432.13H542.624Z" fill="#212121"/>
<rect x="539.342" y="432.13" width="3.282" height="2.188" fill="#2DB9D7"/>
<rect x="539.342" y="434.318" width="3.282" height="1.094" fill="#0088A5"/>
<path fill-rule="evenodd" clip-rule="evenodd" d="M506.522 50.3237H481.36V51.4177H480.266V60.1697H481.36V61.2637H506.522V60.1697H507.616V51.4177H506.522V50.3237ZM506.522 51.4177V60.1697H481.36V51.4177H506.522Z" fill="#212121"/>
<rect x="481.36" y="51.4175" width="25.162" height="6.564" fill="#D11F1F"/>
<path d="M481.36 51.4175H482.454V52.5115H483.548V57.9815H504.334V52.5115H505.428V51.4175H506.522V60.1695H481.36V51.4175Z" fill="#AB0000"/>
<path fill-rule="evenodd" clip-rule="evenodd" d="M532.778 50.3235H507.616V51.4175H506.522V60.1695H507.616V61.2635H532.778V60.1695H533.872V51.4175H532.778V50.3235ZM532.778 51.4175V60.1695H507.616V51.4175H532.778Z" fill="#212121"/>
<rect x="507.616" y="51.4172" width="25.162" height="6.564" fill="#D11F1F"/>
<path d="M507.616 51.4172H508.71V52.5112H509.804V57.9812H530.59V52.5112H531.684V51.4172H532.778V60.1692H507.616V51.4172Z" fill="#AB0000"/>
<path fill-rule="evenodd" clip-rule="evenodd" d="M559.034 50.3235H533.872V51.4175H532.778V60.1695H533.872V61.2635H559.034V60.1695H560.128V51.4175H559.034V50.3235ZM559.034 51.4175V60.1695H533.872V51.4175H559.034Z" fill="#212121"/>
<rect x="533.872" y="51.4172" width="25.162" height="6.564" fill="#D11F1F"/>
<path d="M533.872 51.4172H534.966V52.5112H536.06V57.9812H556.846V52.5112H557.94V51.4172H559.034V60.1692H533.872V51.4172Z" fill="#AB0000"/>
<path fill-rule="evenodd" clip-rule="evenodd" d="M585.29 50.3235H560.128V51.4175H559.034V60.1695H560.128V61.2635H585.29V60.1695H586.384V51.4175H585.29V50.3235ZM585.29 51.4175V60.1695H560.128V51.4175H585.29Z" fill="#212121"/>
<rect x="560.128" y="51.4172" width="25.162" height="6.564" fill="#D11F1F"/>
<path d="M560.128 51.4172H561.222V52.5112H562.316V57.9812H583.102V52.5112H584.196V51.4172H585.29V60.1692H560.128V51.4172Z" fill="#AB0000"/>
<path fill-rule="evenodd" clip-rule="evenodd" d="M611.546 50.3235H586.384V51.4175H585.29V60.1695H586.384V61.2635H611.546V60.1695H612.64V51.4175H611.546V50.3235ZM611.546 51.4175V60.1695H586.384V51.4175H611.546Z" fill="#212121"/>
<rect x="586.384" y="51.4172" width="25.162" height="6.564" fill="#D11F1F"/>
<path d="M586.384 51.4172H587.478V52.5112H588.572V57.9812H609.358V52.5112H610.452V51.4172H611.546V60.1692H586.384V51.4172Z" fill="#AB0000"/>
<path fill-rule="evenodd" clip-rule="evenodd" d="M493.394 60.1697H468.232V61.2637H467.138V70.0157H468.232V71.1097H493.394V70.0157H494.488V61.2637H493.394V60.1697ZM493.394 61.2637V70.0157H468.232V61.2637H493.394Z" fill="#212121"/>
<rect x="468.232" y="61.2637" width="25.162" height="6.564" fill="#D11F1F"/>
<path d="M468.232 61.2637H469.326V62.3577H470.42V67.8277H491.206V62.3577H492.3V61.2637H493.394V70.0157H468.232V61.2637Z" fill="#AB0000"/>
<path fill-rule="evenodd" clip-rule="evenodd" d="M519.65 60.1697H494.488V61.2637H493.394V70.0157H494.488V71.1097H519.65V70.0157H520.744V61.2637H519.65V60.1697ZM519.65 61.2637V70.0157H494.488V61.2637H519.65Z" fill="#212121"/>
<rect x="494.488" y="61.2637" width="25.162" height="8.752" fill="#E09E42"/>
<path d="M494.488 61.2637H495.582V62.3577H496.676V67.8277H517.462V62.3577H518.556V61.2637H519.65V70.0157H494.488V61.2637Z" fill="#C17306"/>
<path fill-rule="evenodd" clip-rule="evenodd" d="M545.906 60.1697H520.744V61.2637H519.65V70.0157H520.744V71.1097H545.906V70.0157H547V61.2637H545.906V60.1697ZM545.906 61.2637V70.0157H520.744V61.2637H545.906Z" fill="#212121"/>
<rect x="520.744" y="61.2637" width="25.162" height="8.752" fill="#E09E42"/>
<path d="M520.744 61.2637H521.838V62.3577H522.932V67.8277H543.718V62.3577H544.812V61.2637H545.906V70.0157H520.744V61.2637Z" fill="#C17306"/>
<path fill-rule="evenodd" clip-rule="evenodd" d="M572.162 60.1697H547V61.2637H545.906V70.0157H547V71.1097H572.162V70.0157H573.256V61.2637H572.162V60.1697ZM572.162 61.2637V70.0157H547V61.2637H572.162Z" fill="#212121"/>
<rect x="547" y="61.2637" width="25.162" height="8.752" fill="#E09E42"/>
<path d="M547 61.2637H548.094V62.3577H549.188V67.8277H569.974V62.3577H571.068V61.2637H572.162V70.0157H547V61.2637Z" fill="#C17306"/>
<path fill-rule="evenodd" clip-rule="evenodd" d="M598.418 60.1697H573.256V61.2637H572.162V70.0157H573.256V71.1097H598.418V70.0157H599.512V61.2637H598.418V60.1697ZM598.418 61.2637V70.0157H573.256V61.2637H598.418Z" fill="#212121"/>
<rect x="573.256" y="61.2637" width="25.162" height="8.752" fill="#E09E42"/>
<path d="M573.256 61.2637H574.35V62.3577H575.444V67.8277H596.23V62.3577H597.324V61.2637H598.418V70.0157H573.256V61.2637Z" fill="#C17306"/>
<path fill-rule="evenodd" clip-rule="evenodd" d="M624.674 60.1697H599.512V61.2637H598.418V70.0157H599.512V71.1097H624.674V70.0157H625.768V61.2637H624.674V60.1697ZM624.674 61.2637V70.0157H599.512V61.2637H624.674Z" fill="#212121"/>
<rect x="599.512" y="61.2637" width="25.162" height="6.564" fill="#D11F1F"/>
<path d="M599.512 61.2637H600.606V62.3577H601.7V67.8277H622.486V62.3577H623.58V61.2637H624.674V70.0157H599.512V61.2637Z" fill="#AB0000"/>
<path fill-rule="evenodd" clip-rule="evenodd" d="M506.522 70.0166H481.36V71.1106H480.266V79.8626H481.36V80.9566H506.522V79.8626H507.616V71.1106H506.522V70.0166ZM506.522 71.1106V79.8626H481.36V71.1106H506.522Z" fill="#212121"/>
<rect x="481.36" y="71.1104" width="25.162" height="6.564" fill="#D11F1F"/>
<path d="M481.36 71.1104H482.454V72.2044H483.548V77.6744H504.334V72.2044H505.428V71.1104H506.522V79.8624H481.36V71.1104Z" fill="#AB0000"/>
<path fill-rule="evenodd" clip-rule="evenodd" d="M532.778 70.0166H507.616V71.1106H506.522V79.8626H507.616V80.9566H532.778V79.8626H533.872V71.1106H532.778V70.0166ZM532.778 71.1106V79.8626H507.616V71.1106H532.778Z" fill="#212121"/>
<rect x="507.616" y="71.1104" width="25.162" height="6.564" fill="#D11F1F"/>
<path d="M507.616 71.1104H508.71V72.2044H509.804V77.6744H530.59V72.2044H531.684V71.1104H532.778V79.8624H507.616V71.1104Z" fill="#AB0000"/>
<path fill-rule="evenodd" clip-rule="evenodd" d="M559.034 70.0166H533.872V71.1106H532.778V79.8626H533.872V80.9566H559.034V79.8626H560.128V71.1106H559.034V70.0166ZM559.034 71.1106V79.8626H533.872V71.1106H559.034Z" fill="#212121"/>
<rect x="533.872" y="71.1104" width="25.162" height="6.564" fill="#D11F1F"/>
<path d="M533.872 71.1104H534.966V72.2044H536.06V77.6744H556.846V72.2044H557.94V71.1104H559.034V79.8624H533.872V71.1104Z" fill="#AB0000"/>
<path fill-rule="evenodd" clip-rule="evenodd" d="M585.29 70.0166H560.128V71.1106H559.034V79.8626H560.128V80.9566H585.29V79.8626H586.384V71.1106H585.29V70.0166ZM585.29 71.1106V79.8626H560.128V71.1106H585.29Z" fill="#212121"/>
<rect x="560.128" y="71.1104" width="25.162" height="6.564" fill="#D11F1F"/>
<path d="M560.128 71.1104H561.222V72.2044H562.316V77.6744H583.102V72.2044H584.196V71.1104H585.29V79.8624H560.128V71.1104Z" fill="#AB0000"/>
<path fill-rule="evenodd" clip-rule="evenodd" d="M611.546 70.0166H586.384V71.1106H585.29V79.8626H586.384V80.9566H611.546V79.8626H612.64V71.1106H611.546V70.0166ZM611.546 71.1106V79.8626H586.384V71.1106H611.546Z" fill="#212121"/>
<rect x="586.384" y="71.1104" width="25.162" height="6.564" fill="#D11F1F"/>
<path d="M586.384 71.1104H587.478V72.2044H588.572V77.6744H609.358V72.2044H610.452V71.1104H611.546V79.8624H586.384V71.1104Z" fill="#AB0000"/>
<g clip-path="url(#clip1_3168_107346)">
<rect width="437.6" height="547" transform="translate(656.4)" fill="#9DD9FA"/>
<path fill-rule="evenodd" clip-rule="evenodd" d="M716.023 240.681H690.861V241.775H689.767V250.527L690.861 250.527V251.621H716.023V250.527L717.117 250.527V241.775H716.023V240.681ZM716.023 241.775V250.527H690.861V241.775H716.023Z" fill="#212121"/>
<rect x="690.861" y="241.774" width="25.162" height="8.752" fill="#E09E42"/>
<path d="M690.861 241.774H691.955V242.868H693.049V248.338H713.835V242.868H714.929V241.774H716.023V250.526H690.861V241.774Z" fill="#C17306"/>
<path fill-rule="evenodd" clip-rule="evenodd" d="M829.799 240.681H804.637V241.775H803.543V250.527L804.637 250.527V251.621H829.799V250.527L830.893 250.527V241.775H829.799V240.681ZM829.799 241.775V250.527H804.637V241.775H829.799Z" fill="#212121"/>
<rect x="804.637" y="241.774" width="25.162" height="8.752" fill="#E09E42"/>
<path d="M804.637 241.774H805.731V242.868H806.825V248.338H827.611V242.868H828.705V241.774H829.799V250.526H804.637V241.774Z" fill="#C17306"/>
<path fill-rule="evenodd" clip-rule="evenodd" d="M716.023 266.937H690.861V268.031H689.767V276.783L690.861 276.783V277.877H716.023V276.783L717.117 276.783V268.031H716.023V266.937ZM716.023 268.031V276.783H690.861V268.031H716.023Z" fill="#212121"/>
<rect x="690.861" y="268.031" width="25.162" height="8.752" fill="#E09E42"/>
<path d="M690.861 268.031H691.955V269.125H693.049V274.595H713.835V269.125H714.929V268.031H716.023V276.783H690.861V268.031Z" fill="#C17306"/>
<path fill-rule="evenodd" clip-rule="evenodd" d="M716.023 253.809H690.861V254.903H689.767V263.655H690.861V264.749H716.023V263.655H717.117V254.903H716.023V253.809ZM716.023 254.903V263.655H690.861V254.903H716.023Z" fill="#212121"/>
<rect x="690.861" y="254.903" width="25.162" height="8.752" fill="#E09E42"/>
<path d="M690.861 254.903H691.955V255.997H693.049V261.467H713.835V255.997H714.929V254.903H716.023V263.655H690.861V254.903Z" fill="#C17306"/>
<path fill-rule="evenodd" clip-rule="evenodd" d="M801.355 266.937H776.193V268.031H775.099V276.783L776.193 276.783V277.877H801.355V276.783L802.449 276.783V268.031H801.355V266.937ZM801.355 268.031V276.783H776.193V268.031H801.355Z" fill="#212121"/>
<rect x="776.193" y="268.031" width="25.162" height="8.752" fill="#E09E42"/>
<path d="M776.193 268.031H777.287V269.125H778.381V274.595H799.167V269.125H800.261V268.031H801.355V276.783H776.193V268.031Z" fill="#C17306"/>
<path fill-rule="evenodd" clip-rule="evenodd" d="M815.03 253.809H789.868V254.903H788.774V263.655H789.868V264.749H815.03V263.655H816.124V254.903H815.03V253.809ZM815.03 254.903V263.655H789.868V254.903H815.03Z" fill="#212121"/>
<rect x="789.868" y="254.903" width="25.162" height="8.752" fill="#E09E42"/>
<path d="M789.868 254.903H790.962V255.997H792.056V261.467H812.842V255.997H813.936V254.903H815.03V263.655H789.868V254.903Z" fill="#C17306"/>
<path fill-rule="evenodd" clip-rule="evenodd" d="M844.568 253.809H819.406V254.903H818.312V263.655H819.406V264.749H844.568V263.655H845.662V254.903H844.568V253.809ZM844.568 254.903V263.655H819.406V254.903H844.568Z" fill="#212121"/>
<rect x="819.406" y="254.903" width="25.162" height="8.752" fill="#E09E42"/>
<path d="M819.406 254.903H820.5V255.997H821.594V261.467H842.38V255.997H843.474V254.903H844.568V263.655H819.406V254.903Z" fill="#C17306"/>
<path fill-rule="evenodd" clip-rule="evenodd" d="M829.799 266.937H804.637V268.031H803.543V276.783L804.637 276.783V277.877H829.799V276.783L830.893 276.783V268.031H829.799V266.937ZM829.799 268.031V276.783H804.637V268.031H829.799Z" fill="#212121"/>
<rect x="804.637" y="268.031" width="25.162" height="8.752" fill="#E09E42"/>
<path d="M804.637 268.031H805.731V269.125H806.825V274.595H827.611V269.125H828.705V268.031H829.799V276.783H804.637V268.031Z" fill="#C17306"/>
<path fill-rule="evenodd" clip-rule="evenodd" d="M858.243 266.937H833.081V268.031H831.987V276.783L833.081 276.783V277.877H858.243V276.783L859.337 276.783V268.031H858.243V266.937ZM858.243 268.031V276.783H833.081V268.031H858.243Z" fill="#212121"/>
<rect x="833.081" y="268.031" width="25.162" height="8.752" fill="#E09E42"/>
<path d="M833.081 268.031H834.175V269.125H835.269V274.595H856.055V269.125H857.149V268.031H858.243V276.783H833.081V268.031Z" fill="#C17306"/>
<path fill-rule="evenodd" clip-rule="evenodd" d="M716.023 293.191H690.861V294.285H689.767V303.037L690.861 303.037V304.131H716.023V303.037L717.117 303.037V294.285H716.023V293.191ZM716.023 294.285V303.037H690.861V294.285H716.023Z" fill="#212121"/>
<rect x="690.861" y="294.286" width="25.162" height="8.752" fill="#E09E42"/>
<path d="M690.861 294.286H691.955V295.38H693.049V300.85H713.835V295.38H714.929V294.286H716.023V303.038H690.861V294.286Z" fill="#C17306"/>
<path fill-rule="evenodd" clip-rule="evenodd" d="M716.023 280.063H690.861V281.157H689.767V289.909H690.861V291.003H716.023V289.909H717.117V281.157H716.023V280.063ZM716.023 281.157V289.909H690.861V281.157H716.023Z" fill="#212121"/>
<rect x="690.861" y="281.158" width="25.162" height="8.752" fill="#E09E42"/>
<path d="M690.861 281.158H691.955V282.252H693.049V287.722H713.835V282.252H714.929V281.158H716.023V289.91H690.861V281.158Z" fill="#C17306"/>
<path fill-rule="evenodd" clip-rule="evenodd" d="M801.355 293.191H776.193V294.285H775.099V303.037L776.193 303.037V304.131H801.355V303.037L802.449 303.037V294.285H801.355V293.191ZM801.355 294.285V303.037H776.193V294.285H801.355Z" fill="#212121"/>
<rect x="776.193" y="294.286" width="25.162" height="8.752" fill="#E09E42"/>
<path d="M776.193 294.286H777.287V295.38H778.381V300.85H799.167V295.38H800.261V294.286H801.355V303.038H776.193V294.286Z" fill="#C17306"/>
<path fill-rule="evenodd" clip-rule="evenodd" d="M801.355 280.063H776.193V281.157H775.099V289.909H776.193V291.003H801.355V289.909H802.449V281.157H801.355V280.063ZM801.355 281.157V289.909H776.193V281.157H801.355Z" fill="#212121"/>
<rect x="776.193" y="281.158" width="25.162" height="8.752" fill="#E09E42"/>
<path d="M776.193 281.158H777.287V282.252H778.381V287.722H799.167V282.252H800.261V281.158H801.355V289.91H776.193V281.158Z" fill="#C17306"/>
<path fill-rule="evenodd" clip-rule="evenodd" d="M858.243 293.191H833.081V294.285H831.987V303.037L833.081 303.037V304.131H858.243V303.037L859.337 303.037V294.285H858.243V293.191ZM858.243 294.285V303.037H833.081V294.285H858.243Z" fill="#212121"/>
<rect x="833.081" y="294.286" width="25.162" height="8.752" fill="#E09E42"/>
<path d="M833.081 294.286H834.175V295.38H835.269V300.85H856.055V295.38H857.149V294.286H858.243V303.038H833.081V294.286Z" fill="#C17306"/>
<path fill-rule="evenodd" clip-rule="evenodd" d="M858.243 280.063H833.081V281.157H831.987V289.909H833.081V291.003H858.243V289.909H859.337V281.157H858.243V280.063ZM858.243 281.157V289.909H833.081V281.157H858.243Z" fill="#212121"/>
<rect x="833.081" y="281.158" width="25.162" height="8.752" fill="#E09E42"/>
<path d="M833.081 281.158H834.175V282.252H835.269V287.722H856.055V282.252H857.149V281.158H858.243V289.91H833.081V281.158Z" fill="#C17306"/>
<path d="M1015.59 444.105C1016.33 440.183 1016.72 436.135 1016.72 431.997C1016.72 396.423 988.18 367.584 952.975 367.584C931.435 367.584 912.389 378.38 900.852 394.91C889.774 385.513 875.486 379.853 859.891 379.853C825.024 379.853 796.696 408.141 796.155 443.243H796.147C757.031 443.243 725.322 475.286 725.322 514.814C725.322 554.341 757.031 586.384 796.147 586.384H1004.58C1043.69 586.384 1075.4 554.341 1075.4 514.814C1075.4 479.073 1049.48 449.453 1015.59 444.105Z" fill="white"/>
<path d="M674.731 85.458C674.221 82.9282 673.954 80.3178 673.954 77.6485C673.954 54.7031 693.664 36.1021 717.977 36.1021C732.853 36.1021 746.006 43.0657 753.975 53.7276C761.625 47.6662 771.493 44.0157 782.263 44.0157C806.343 44.0157 825.907 62.2611 826.281 84.9022H826.286C853.301 84.9022 875.2 105.57 875.2 131.065C875.2 156.56 853.301 177.228 826.286 177.228H682.339C655.325 177.228 633.426 156.56 633.426 131.065C633.426 108.012 651.33 88.9074 674.731 85.458Z" fill="white"/>
</g>
<defs>
<clipPath id="clip0_3168_107346">
<rect width="437.6" height="547" fill="white"/>
</clipPath>
<clipPath id="clip1_3168_107346">
<rect width="437.6" height="547" fill="white" transform="translate(656.4)"/>
</clipPath>
</defs>
</svg>
