<svg width="527" height="618" viewBox="0 0 527 618" fill="none" xmlns="http://www.w3.org/2000/svg">
<rect width="527" height="618" fill="#F5F5F5"/>
<rect x="111" y="78" width="200" height="500" fill="#435C46"/>
<rect x="111" y="78" width="200" height="500" fill="#54AFE3"/>
<path d="M133.229 508.766V515H131.964V507.604H133.194L133.229 508.766ZM135.539 507.562L135.532 508.738C135.427 508.715 135.327 508.702 135.231 508.697C135.14 508.688 135.035 508.684 134.917 508.684C134.625 508.684 134.368 508.729 134.145 508.82C133.921 508.911 133.732 509.039 133.577 509.203C133.422 509.367 133.299 509.563 133.208 509.791C133.121 510.014 133.064 510.26 133.037 510.529L132.682 510.734C132.682 510.288 132.725 509.868 132.812 509.477C132.903 509.085 133.042 508.738 133.229 508.438C133.415 508.132 133.652 507.895 133.939 507.727C134.231 507.553 134.577 507.467 134.979 507.467C135.07 507.467 135.174 507.478 135.293 507.501C135.411 507.519 135.493 507.54 135.539 507.562ZM139.641 515.137C139.126 515.137 138.659 515.05 138.239 514.877C137.825 514.699 137.467 514.451 137.166 514.132C136.87 513.813 136.642 513.435 136.482 512.997C136.323 512.56 136.243 512.081 136.243 511.562V511.274C136.243 510.673 136.332 510.137 136.51 509.668C136.688 509.194 136.929 508.793 137.234 508.465C137.54 508.137 137.886 507.888 138.273 507.72C138.661 507.551 139.062 507.467 139.477 507.467C140.005 507.467 140.461 507.558 140.844 507.74C141.231 507.923 141.548 508.178 141.794 508.506C142.04 508.829 142.222 509.212 142.341 509.654C142.459 510.092 142.519 510.57 142.519 511.09V511.657H136.995V510.625H141.254V510.529C141.236 510.201 141.167 509.882 141.049 509.572C140.935 509.262 140.753 509.007 140.502 508.807C140.251 508.606 139.91 508.506 139.477 508.506C139.189 508.506 138.925 508.567 138.684 508.69C138.442 508.809 138.235 508.987 138.062 509.224C137.888 509.461 137.754 509.75 137.658 510.092C137.562 510.434 137.515 510.828 137.515 511.274V511.562C137.515 511.912 137.562 512.243 137.658 512.553C137.758 512.858 137.902 513.127 138.089 513.359C138.28 513.592 138.51 513.774 138.779 513.906C139.053 514.038 139.363 514.104 139.709 514.104C140.156 514.104 140.534 514.013 140.844 513.831C141.154 513.649 141.425 513.405 141.657 513.1L142.423 513.708C142.263 513.95 142.061 514.18 141.814 514.398C141.568 514.617 141.265 514.795 140.905 514.932C140.55 515.068 140.128 515.137 139.641 515.137ZM145.253 509.073V515H143.981V507.604H145.185L145.253 509.073ZM144.993 511.021L144.405 511.001C144.41 510.495 144.476 510.028 144.604 509.6C144.731 509.167 144.92 508.791 145.171 508.472C145.422 508.153 145.734 507.907 146.107 507.733C146.481 507.556 146.914 507.467 147.406 507.467C147.753 507.467 148.072 507.517 148.363 507.617C148.655 507.713 148.908 507.866 149.122 508.075C149.336 508.285 149.503 508.554 149.621 508.882C149.74 509.21 149.799 509.606 149.799 510.071V515H148.534V510.133C148.534 509.745 148.468 509.436 148.336 509.203C148.208 508.971 148.026 508.802 147.789 508.697C147.552 508.588 147.274 508.533 146.955 508.533C146.581 508.533 146.269 508.599 146.019 508.731C145.768 508.864 145.567 509.046 145.417 509.278C145.267 509.511 145.157 509.777 145.089 510.078C145.025 510.374 144.993 510.689 144.993 511.021ZM149.785 510.324L148.938 510.584C148.942 510.178 149.008 509.789 149.136 509.415C149.268 509.041 149.457 508.709 149.703 508.417C149.954 508.125 150.261 507.895 150.626 507.727C150.991 507.553 151.408 507.467 151.877 507.467C152.273 507.467 152.624 507.519 152.93 507.624C153.24 507.729 153.499 507.891 153.709 508.109C153.923 508.324 154.085 508.599 154.194 508.937C154.304 509.274 154.358 509.675 154.358 510.14V515H153.087V510.126C153.087 509.711 153.021 509.39 152.889 509.162C152.761 508.93 152.579 508.768 152.342 508.677C152.109 508.581 151.831 508.533 151.508 508.533C151.23 508.533 150.984 508.581 150.77 508.677C150.555 508.772 150.375 508.905 150.229 509.073C150.084 509.237 149.972 509.426 149.895 509.641C149.822 509.855 149.785 510.083 149.785 510.324ZM160.634 513.735V509.928C160.634 509.636 160.575 509.383 160.456 509.169C160.342 508.95 160.169 508.782 159.937 508.663C159.704 508.545 159.417 508.485 159.075 508.485C158.756 508.485 158.476 508.54 158.234 508.649C157.997 508.759 157.811 508.902 157.674 509.08C157.542 509.258 157.476 509.449 157.476 509.654H156.211C156.211 509.39 156.279 509.128 156.416 508.868C156.553 508.608 156.749 508.374 157.004 508.164C157.264 507.95 157.574 507.781 157.934 507.658C158.298 507.531 158.704 507.467 159.15 507.467C159.688 507.467 160.162 507.558 160.572 507.74C160.987 507.923 161.311 508.198 161.543 508.567C161.78 508.932 161.898 509.39 161.898 509.941V513.387C161.898 513.633 161.919 513.895 161.96 514.173C162.006 514.451 162.072 514.69 162.158 514.891V515H160.839C160.775 514.854 160.725 514.66 160.688 514.419C160.652 514.173 160.634 513.945 160.634 513.735ZM160.853 510.516L160.866 511.404H159.588C159.228 511.404 158.907 511.434 158.624 511.493C158.341 511.548 158.104 511.632 157.913 511.746C157.722 511.86 157.576 512.004 157.476 512.177C157.375 512.345 157.325 512.544 157.325 512.771C157.325 513.004 157.378 513.216 157.482 513.407C157.587 513.599 157.744 513.751 157.954 513.865C158.168 513.975 158.43 514.029 158.74 514.029C159.128 514.029 159.469 513.947 159.766 513.783C160.062 513.619 160.297 513.419 160.47 513.182C160.647 512.945 160.743 512.715 160.757 512.491L161.297 513.1C161.265 513.291 161.178 513.503 161.037 513.735C160.896 513.968 160.707 514.191 160.47 514.405C160.237 514.615 159.959 514.79 159.636 514.932C159.317 515.068 158.957 515.137 158.556 515.137C158.054 515.137 157.615 515.039 157.236 514.843C156.863 514.647 156.571 514.385 156.361 514.057C156.156 513.724 156.054 513.353 156.054 512.942C156.054 512.546 156.131 512.197 156.286 511.896C156.441 511.591 156.664 511.338 156.956 511.138C157.248 510.933 157.599 510.778 158.009 510.673C158.419 510.568 158.877 510.516 159.383 510.516H160.853ZM165.262 507.604V515H163.99V507.604H165.262ZM163.895 505.642C163.895 505.437 163.956 505.263 164.079 505.122C164.207 504.981 164.394 504.91 164.64 504.91C164.881 504.91 165.066 504.981 165.193 505.122C165.326 505.263 165.392 505.437 165.392 505.642C165.392 505.838 165.326 506.006 165.193 506.147C165.066 506.284 164.881 506.353 164.64 506.353C164.394 506.353 164.207 506.284 164.079 506.147C163.956 506.006 163.895 505.838 163.895 505.642ZM168.557 509.183V515H167.292V507.604H168.488L168.557 509.183ZM168.256 511.021L167.729 511.001C167.734 510.495 167.809 510.028 167.955 509.6C168.101 509.167 168.306 508.791 168.57 508.472C168.835 508.153 169.149 507.907 169.514 507.733C169.883 507.556 170.291 507.467 170.737 507.467C171.102 507.467 171.43 507.517 171.722 507.617C172.013 507.713 172.262 507.868 172.467 508.082C172.676 508.296 172.836 508.574 172.945 508.916C173.055 509.253 173.109 509.666 173.109 510.153V515H171.838V510.14C171.838 509.752 171.781 509.442 171.667 509.21C171.553 508.973 171.387 508.802 171.168 508.697C170.949 508.588 170.68 508.533 170.361 508.533C170.047 508.533 169.76 508.599 169.5 508.731C169.245 508.864 169.024 509.046 168.837 509.278C168.655 509.511 168.511 509.777 168.406 510.078C168.306 510.374 168.256 510.689 168.256 511.021ZM179.768 504.5V515H178.503V504.5H179.768ZM179.467 511.021L178.94 511.001C178.945 510.495 179.02 510.028 179.166 509.6C179.312 509.167 179.517 508.791 179.781 508.472C180.046 508.153 180.36 507.907 180.725 507.733C181.094 507.556 181.502 507.467 181.948 507.467C182.313 507.467 182.641 507.517 182.933 507.617C183.224 507.713 183.473 507.868 183.678 508.082C183.887 508.296 184.047 508.574 184.156 508.916C184.266 509.253 184.32 509.666 184.32 510.153V515H183.049V510.14C183.049 509.752 182.992 509.442 182.878 509.21C182.764 508.973 182.598 508.802 182.379 508.697C182.16 508.588 181.891 508.533 181.572 508.533C181.258 508.533 180.971 508.599 180.711 508.731C180.456 508.864 180.235 509.046 180.048 509.278C179.866 509.511 179.722 509.777 179.617 510.078C179.517 510.374 179.467 510.689 179.467 511.021ZM190.575 513.735V509.928C190.575 509.636 190.516 509.383 190.397 509.169C190.284 508.95 190.11 508.782 189.878 508.663C189.646 508.545 189.358 508.485 189.017 508.485C188.698 508.485 188.417 508.54 188.176 508.649C187.939 508.759 187.752 508.902 187.615 509.08C187.483 509.258 187.417 509.449 187.417 509.654H186.152C186.152 509.39 186.221 509.128 186.357 508.868C186.494 508.608 186.69 508.374 186.945 508.164C187.205 507.95 187.515 507.781 187.875 507.658C188.24 507.531 188.645 507.467 189.092 507.467C189.63 507.467 190.104 507.558 190.514 507.74C190.928 507.923 191.252 508.198 191.484 508.567C191.721 508.932 191.84 509.39 191.84 509.941V513.387C191.84 513.633 191.86 513.895 191.901 514.173C191.947 514.451 192.013 514.69 192.1 514.891V515H190.78C190.716 514.854 190.666 514.66 190.63 514.419C190.593 514.173 190.575 513.945 190.575 513.735ZM190.794 510.516L190.808 511.404H189.529C189.169 511.404 188.848 511.434 188.565 511.493C188.283 511.548 188.046 511.632 187.854 511.746C187.663 511.86 187.517 512.004 187.417 512.177C187.317 512.345 187.267 512.544 187.267 512.771C187.267 513.004 187.319 513.216 187.424 513.407C187.529 513.599 187.686 513.751 187.896 513.865C188.11 513.975 188.372 514.029 188.682 514.029C189.069 514.029 189.411 513.947 189.707 513.783C190.003 513.619 190.238 513.419 190.411 513.182C190.589 512.945 190.685 512.715 190.698 512.491L191.238 513.1C191.206 513.291 191.12 513.503 190.979 513.735C190.837 513.968 190.648 514.191 190.411 514.405C190.179 514.615 189.901 514.79 189.577 514.932C189.258 515.068 188.898 515.137 188.497 515.137C187.996 515.137 187.556 515.039 187.178 514.843C186.804 514.647 186.512 514.385 186.303 514.057C186.098 513.724 185.995 513.353 185.995 512.942C185.995 512.546 186.073 512.197 186.228 511.896C186.382 511.591 186.606 511.338 186.897 511.138C187.189 510.933 187.54 510.778 187.95 510.673C188.36 510.568 188.818 510.516 189.324 510.516H190.794ZM195.094 508.766V515H193.829V507.604H195.06L195.094 508.766ZM197.404 507.562L197.397 508.738C197.293 508.715 197.192 508.702 197.097 508.697C197.006 508.688 196.901 508.684 196.782 508.684C196.491 508.684 196.233 508.729 196.01 508.82C195.786 508.911 195.597 509.039 195.442 509.203C195.287 509.367 195.164 509.563 195.073 509.791C194.987 510.014 194.93 510.26 194.902 510.529L194.547 510.734C194.547 510.288 194.59 509.868 194.677 509.477C194.768 509.085 194.907 508.738 195.094 508.438C195.281 508.132 195.518 507.895 195.805 507.727C196.096 507.553 196.443 507.467 196.844 507.467C196.935 507.467 197.04 507.478 197.158 507.501C197.277 507.519 197.359 507.54 197.404 507.562ZM203.099 513.564V504.5H204.37V515H203.208L203.099 513.564ZM198.122 511.384V511.24C198.122 510.675 198.19 510.162 198.327 509.702C198.468 509.237 198.667 508.839 198.922 508.506C199.182 508.173 199.489 507.918 199.845 507.74C200.205 507.558 200.606 507.467 201.048 507.467C201.513 507.467 201.918 507.549 202.265 507.713C202.616 507.872 202.912 508.107 203.153 508.417C203.399 508.722 203.593 509.091 203.734 509.524C203.876 509.957 203.974 510.447 204.028 510.994V511.623C203.978 512.165 203.88 512.653 203.734 513.086C203.593 513.519 203.399 513.888 203.153 514.193C202.912 514.499 202.616 514.733 202.265 514.897C201.914 515.057 201.504 515.137 201.034 515.137C200.601 515.137 200.205 515.043 199.845 514.856C199.489 514.67 199.182 514.408 198.922 514.07C198.667 513.733 198.468 513.337 198.327 512.881C198.19 512.421 198.122 511.922 198.122 511.384ZM199.394 511.24V511.384C199.394 511.753 199.43 512.099 199.503 512.423C199.58 512.746 199.699 513.031 199.858 513.277C200.018 513.523 200.221 513.717 200.467 513.858C200.713 513.995 201.007 514.063 201.349 514.063C201.768 514.063 202.112 513.975 202.381 513.797C202.654 513.619 202.873 513.384 203.037 513.093C203.201 512.801 203.329 512.484 203.42 512.143V510.495C203.365 510.244 203.285 510.003 203.181 509.771C203.08 509.534 202.948 509.324 202.784 509.142C202.625 508.955 202.426 508.807 202.189 508.697C201.957 508.588 201.681 508.533 201.362 508.533C201.016 508.533 200.717 508.606 200.467 508.752C200.221 508.893 200.018 509.089 199.858 509.34C199.699 509.586 199.58 509.873 199.503 510.201C199.43 510.525 199.394 510.871 199.394 511.24ZM209.805 504.5H211.076V513.564L210.967 515H209.805V504.5ZM216.073 511.24V511.384C216.073 511.922 216.009 512.421 215.882 512.881C215.754 513.337 215.567 513.733 215.321 514.07C215.075 514.408 214.774 514.67 214.419 514.856C214.063 515.043 213.656 515.137 213.195 515.137C212.726 515.137 212.313 515.057 211.958 514.897C211.607 514.733 211.311 514.499 211.069 514.193C210.828 513.888 210.634 513.519 210.488 513.086C210.347 512.653 210.249 512.165 210.194 511.623V510.994C210.249 510.447 210.347 509.957 210.488 509.524C210.634 509.091 210.828 508.722 211.069 508.417C211.311 508.107 211.607 507.872 211.958 507.713C212.309 507.549 212.717 507.467 213.182 507.467C213.646 507.467 214.059 507.558 214.419 507.74C214.779 507.918 215.08 508.173 215.321 508.506C215.567 508.839 215.754 509.237 215.882 509.702C216.009 510.162 216.073 510.675 216.073 511.24ZM214.802 511.384V511.24C214.802 510.871 214.768 510.525 214.699 510.201C214.631 509.873 214.521 509.586 214.371 509.34C214.221 509.089 214.022 508.893 213.776 508.752C213.53 508.606 213.227 508.533 212.867 508.533C212.548 508.533 212.27 508.588 212.033 508.697C211.801 508.807 211.603 508.955 211.438 509.142C211.274 509.324 211.14 509.534 211.035 509.771C210.935 510.003 210.86 510.244 210.81 510.495V512.143C210.882 512.462 211.001 512.769 211.165 513.065C211.334 513.357 211.557 513.596 211.835 513.783C212.118 513.97 212.466 514.063 212.881 514.063C213.223 514.063 213.514 513.995 213.756 513.858C214.002 513.717 214.2 513.523 214.351 513.277C214.506 513.031 214.619 512.746 214.692 512.423C214.765 512.099 214.802 511.753 214.802 511.384ZM218.938 508.766V515H217.673V507.604H218.903L218.938 508.766ZM221.248 507.562L221.241 508.738C221.136 508.715 221.036 508.702 220.94 508.697C220.849 508.688 220.744 508.684 220.626 508.684C220.334 508.684 220.077 508.729 219.854 508.82C219.63 508.911 219.441 509.039 219.286 509.203C219.131 509.367 219.008 509.563 218.917 509.791C218.83 510.014 218.773 510.26 218.746 510.529L218.391 510.734C218.391 510.288 218.434 509.868 218.521 509.477C218.612 509.085 218.751 508.738 218.938 508.438C219.124 508.132 219.361 507.895 219.648 507.727C219.94 507.553 220.286 507.467 220.688 507.467C220.779 507.467 220.883 507.478 221.002 507.501C221.12 507.519 221.202 507.54 221.248 507.562ZM223.791 507.604V515H222.52V507.604H223.791ZM222.424 505.642C222.424 505.437 222.485 505.263 222.608 505.122C222.736 504.981 222.923 504.91 223.169 504.91C223.41 504.91 223.595 504.981 223.723 505.122C223.855 505.263 223.921 505.437 223.921 505.642C223.921 505.838 223.855 506.006 223.723 506.147C223.595 506.284 223.41 506.353 223.169 506.353C222.923 506.353 222.736 506.284 222.608 506.147C222.485 506.006 222.424 505.838 222.424 505.642ZM228.781 514.098C229.082 514.098 229.36 514.036 229.615 513.913C229.87 513.79 230.08 513.621 230.244 513.407C230.408 513.188 230.502 512.94 230.524 512.662H231.728C231.705 513.1 231.557 513.507 231.283 513.886C231.014 514.259 230.661 514.562 230.224 514.795C229.786 515.023 229.305 515.137 228.781 515.137C228.225 515.137 227.74 515.039 227.325 514.843C226.915 514.647 226.573 514.378 226.3 514.036C226.031 513.694 225.828 513.302 225.691 512.86C225.559 512.414 225.493 511.942 225.493 511.445V511.158C225.493 510.661 225.559 510.192 225.691 509.75C225.828 509.303 226.031 508.909 226.3 508.567C226.573 508.226 226.915 507.957 227.325 507.761C227.74 507.565 228.225 507.467 228.781 507.467C229.36 507.467 229.866 507.585 230.299 507.822C230.732 508.055 231.071 508.374 231.317 508.779C231.568 509.18 231.705 509.636 231.728 510.146H230.524C230.502 509.841 230.415 509.565 230.265 509.319C230.119 509.073 229.918 508.877 229.663 508.731C229.412 508.581 229.118 508.506 228.781 508.506C228.394 508.506 228.068 508.583 227.804 508.738C227.544 508.889 227.337 509.094 227.182 509.354C227.031 509.609 226.922 509.894 226.854 510.208C226.79 510.518 226.758 510.835 226.758 511.158V511.445C226.758 511.769 226.79 512.088 226.854 512.402C226.917 512.717 227.024 513.002 227.175 513.257C227.33 513.512 227.537 513.717 227.797 513.872C228.061 514.022 228.389 514.098 228.781 514.098ZM234.421 504.5V515H233.149V504.5H234.421ZM238.939 507.604L235.713 511.056L233.908 512.929L233.806 511.582L235.098 510.037L237.395 507.604H238.939ZM237.784 515L235.146 511.473L235.802 510.345L239.274 515H237.784ZM240.19 514.33C240.19 514.116 240.257 513.936 240.389 513.79C240.525 513.64 240.721 513.564 240.977 513.564C241.232 513.564 241.425 513.64 241.558 513.79C241.694 513.936 241.763 514.116 241.763 514.33C241.763 514.54 241.694 514.717 241.558 514.863C241.425 515.009 241.232 515.082 240.977 515.082C240.721 515.082 240.525 515.009 240.389 514.863C240.257 514.717 240.19 514.54 240.19 514.33ZM240.197 508.294C240.197 508.08 240.263 507.9 240.396 507.754C240.532 507.604 240.728 507.528 240.983 507.528C241.239 507.528 241.432 507.604 241.564 507.754C241.701 507.9 241.77 508.08 241.77 508.294C241.77 508.504 241.701 508.681 241.564 508.827C241.432 508.973 241.239 509.046 240.983 509.046C240.728 509.046 240.532 508.973 240.396 508.827C240.263 508.681 240.197 508.504 240.197 508.294ZM253.22 509.23V510.748C253.22 511.564 253.147 512.252 253.001 512.812C252.855 513.373 252.646 513.824 252.372 514.166C252.099 514.508 251.768 514.756 251.381 514.911C250.998 515.062 250.565 515.137 250.082 515.137C249.699 515.137 249.346 515.089 249.022 514.993C248.699 514.897 248.407 514.745 248.147 514.535C247.892 514.321 247.674 514.043 247.491 513.701C247.309 513.359 247.17 512.945 247.074 512.457C246.979 511.969 246.931 511.4 246.931 510.748V509.23C246.931 508.415 247.004 507.731 247.149 507.18C247.3 506.628 247.512 506.186 247.785 505.854C248.059 505.516 248.387 505.275 248.77 505.129C249.157 504.983 249.59 504.91 250.068 504.91C250.456 504.91 250.811 504.958 251.135 505.054C251.463 505.145 251.755 505.293 252.01 505.498C252.265 505.699 252.481 505.967 252.659 506.305C252.841 506.637 252.98 507.045 253.076 507.528C253.172 508.011 253.22 508.579 253.22 509.23ZM251.948 510.953V509.019C251.948 508.572 251.921 508.18 251.866 507.843C251.816 507.501 251.741 507.209 251.641 506.968C251.54 506.726 251.413 506.53 251.258 506.38C251.107 506.229 250.932 506.12 250.731 506.052C250.535 505.979 250.314 505.942 250.068 505.942C249.768 505.942 249.501 505.999 249.269 506.113C249.036 506.223 248.84 506.398 248.681 506.64C248.526 506.881 248.407 507.198 248.325 507.59C248.243 507.982 248.202 508.458 248.202 509.019V510.953C248.202 511.4 248.227 511.794 248.277 512.136C248.332 512.478 248.412 512.774 248.517 513.024C248.621 513.271 248.749 513.473 248.899 513.633C249.05 513.792 249.223 513.911 249.419 513.988C249.619 514.061 249.84 514.098 250.082 514.098C250.392 514.098 250.663 514.038 250.896 513.92C251.128 513.801 251.322 513.617 251.477 513.366C251.636 513.111 251.755 512.785 251.832 512.389C251.91 511.988 251.948 511.509 251.948 510.953Z" fill="white"/>
<path d="M133.229 528.766V535H131.964V527.604H133.194L133.229 528.766ZM135.539 527.562L135.532 528.738C135.427 528.715 135.327 528.702 135.231 528.697C135.14 528.688 135.035 528.684 134.917 528.684C134.625 528.684 134.368 528.729 134.145 528.82C133.921 528.911 133.732 529.039 133.577 529.203C133.422 529.367 133.299 529.563 133.208 529.791C133.121 530.014 133.064 530.26 133.037 530.529L132.682 530.734C132.682 530.288 132.725 529.868 132.812 529.477C132.903 529.085 133.042 528.738 133.229 528.438C133.415 528.132 133.652 527.895 133.939 527.727C134.231 527.553 134.577 527.467 134.979 527.467C135.07 527.467 135.174 527.478 135.293 527.501C135.411 527.519 135.493 527.54 135.539 527.562ZM139.641 535.137C139.126 535.137 138.659 535.05 138.239 534.877C137.825 534.699 137.467 534.451 137.166 534.132C136.87 533.813 136.642 533.435 136.482 532.997C136.323 532.56 136.243 532.081 136.243 531.562V531.274C136.243 530.673 136.332 530.137 136.51 529.668C136.688 529.194 136.929 528.793 137.234 528.465C137.54 528.137 137.886 527.888 138.273 527.72C138.661 527.551 139.062 527.467 139.477 527.467C140.005 527.467 140.461 527.558 140.844 527.74C141.231 527.923 141.548 528.178 141.794 528.506C142.04 528.829 142.222 529.212 142.341 529.654C142.459 530.092 142.519 530.57 142.519 531.09V531.657H136.995V530.625H141.254V530.529C141.236 530.201 141.167 529.882 141.049 529.572C140.935 529.262 140.753 529.007 140.502 528.807C140.251 528.606 139.91 528.506 139.477 528.506C139.189 528.506 138.925 528.567 138.684 528.69C138.442 528.809 138.235 528.987 138.062 529.224C137.888 529.461 137.754 529.75 137.658 530.092C137.562 530.434 137.515 530.828 137.515 531.274V531.562C137.515 531.912 137.562 532.243 137.658 532.553C137.758 532.858 137.902 533.127 138.089 533.359C138.28 533.592 138.51 533.774 138.779 533.906C139.053 534.038 139.363 534.104 139.709 534.104C140.156 534.104 140.534 534.013 140.844 533.831C141.154 533.649 141.425 533.405 141.657 533.1L142.423 533.708C142.263 533.95 142.061 534.18 141.814 534.398C141.568 534.617 141.265 534.795 140.905 534.932C140.55 535.068 140.128 535.137 139.641 535.137ZM145.253 529.073V535H143.981V527.604H145.185L145.253 529.073ZM144.993 531.021L144.405 531.001C144.41 530.495 144.476 530.028 144.604 529.6C144.731 529.167 144.92 528.791 145.171 528.472C145.422 528.153 145.734 527.907 146.107 527.733C146.481 527.556 146.914 527.467 147.406 527.467C147.753 527.467 148.072 527.517 148.363 527.617C148.655 527.713 148.908 527.866 149.122 528.075C149.336 528.285 149.503 528.554 149.621 528.882C149.74 529.21 149.799 529.606 149.799 530.071V535H148.534V530.133C148.534 529.745 148.468 529.436 148.336 529.203C148.208 528.971 148.026 528.802 147.789 528.697C147.552 528.588 147.274 528.533 146.955 528.533C146.581 528.533 146.269 528.599 146.019 528.731C145.768 528.864 145.567 529.046 145.417 529.278C145.267 529.511 145.157 529.777 145.089 530.078C145.025 530.374 144.993 530.689 144.993 531.021ZM149.785 530.324L148.938 530.584C148.942 530.178 149.008 529.789 149.136 529.415C149.268 529.041 149.457 528.709 149.703 528.417C149.954 528.125 150.261 527.895 150.626 527.727C150.991 527.553 151.408 527.467 151.877 527.467C152.273 527.467 152.624 527.519 152.93 527.624C153.24 527.729 153.499 527.891 153.709 528.109C153.923 528.324 154.085 528.599 154.194 528.937C154.304 529.274 154.358 529.675 154.358 530.14V535H153.087V530.126C153.087 529.711 153.021 529.39 152.889 529.162C152.761 528.93 152.579 528.768 152.342 528.677C152.109 528.581 151.831 528.533 151.508 528.533C151.23 528.533 150.984 528.581 150.77 528.677C150.555 528.772 150.375 528.905 150.229 529.073C150.084 529.237 149.972 529.426 149.895 529.641C149.822 529.855 149.785 530.083 149.785 530.324ZM160.634 533.735V529.928C160.634 529.636 160.575 529.383 160.456 529.169C160.342 528.95 160.169 528.782 159.937 528.663C159.704 528.545 159.417 528.485 159.075 528.485C158.756 528.485 158.476 528.54 158.234 528.649C157.997 528.759 157.811 528.902 157.674 529.08C157.542 529.258 157.476 529.449 157.476 529.654H156.211C156.211 529.39 156.279 529.128 156.416 528.868C156.553 528.608 156.749 528.374 157.004 528.164C157.264 527.95 157.574 527.781 157.934 527.658C158.298 527.531 158.704 527.467 159.15 527.467C159.688 527.467 160.162 527.558 160.572 527.74C160.987 527.923 161.311 528.198 161.543 528.567C161.78 528.932 161.898 529.39 161.898 529.941V533.387C161.898 533.633 161.919 533.895 161.96 534.173C162.006 534.451 162.072 534.69 162.158 534.891V535H160.839C160.775 534.854 160.725 534.66 160.688 534.419C160.652 534.173 160.634 533.945 160.634 533.735ZM160.853 530.516L160.866 531.404H159.588C159.228 531.404 158.907 531.434 158.624 531.493C158.341 531.548 158.104 531.632 157.913 531.746C157.722 531.86 157.576 532.004 157.476 532.177C157.375 532.345 157.325 532.544 157.325 532.771C157.325 533.004 157.378 533.216 157.482 533.407C157.587 533.599 157.744 533.751 157.954 533.865C158.168 533.975 158.43 534.029 158.74 534.029C159.128 534.029 159.469 533.947 159.766 533.783C160.062 533.619 160.297 533.419 160.47 533.182C160.647 532.945 160.743 532.715 160.757 532.491L161.297 533.1C161.265 533.291 161.178 533.503 161.037 533.735C160.896 533.968 160.707 534.191 160.47 534.405C160.237 534.615 159.959 534.79 159.636 534.932C159.317 535.068 158.957 535.137 158.556 535.137C158.054 535.137 157.615 535.039 157.236 534.843C156.863 534.647 156.571 534.385 156.361 534.057C156.156 533.724 156.054 533.353 156.054 532.942C156.054 532.546 156.131 532.197 156.286 531.896C156.441 531.591 156.664 531.338 156.956 531.138C157.248 530.933 157.599 530.778 158.009 530.673C158.419 530.568 158.877 530.516 159.383 530.516H160.853ZM165.262 527.604V535H163.99V527.604H165.262ZM163.895 525.642C163.895 525.437 163.956 525.263 164.079 525.122C164.207 524.981 164.394 524.91 164.64 524.91C164.881 524.91 165.066 524.981 165.193 525.122C165.326 525.263 165.392 525.437 165.392 525.642C165.392 525.838 165.326 526.006 165.193 526.147C165.066 526.284 164.881 526.353 164.64 526.353C164.394 526.353 164.207 526.284 164.079 526.147C163.956 526.006 163.895 525.838 163.895 525.642ZM168.557 529.183V535H167.292V527.604H168.488L168.557 529.183ZM168.256 531.021L167.729 531.001C167.734 530.495 167.809 530.028 167.955 529.6C168.101 529.167 168.306 528.791 168.57 528.472C168.835 528.153 169.149 527.907 169.514 527.733C169.883 527.556 170.291 527.467 170.737 527.467C171.102 527.467 171.43 527.517 171.722 527.617C172.013 527.713 172.262 527.868 172.467 528.082C172.676 528.296 172.836 528.574 172.945 528.916C173.055 529.253 173.109 529.666 173.109 530.153V535H171.838V530.14C171.838 529.752 171.781 529.442 171.667 529.21C171.553 528.973 171.387 528.802 171.168 528.697C170.949 528.588 170.68 528.533 170.361 528.533C170.047 528.533 169.76 528.599 169.5 528.731C169.245 528.864 169.024 529.046 168.837 529.278C168.655 529.511 168.511 529.777 168.406 530.078C168.306 530.374 168.256 530.689 168.256 531.021ZM178.496 524.5H179.768V533.564L179.658 535H178.496V524.5ZM184.765 531.24V531.384C184.765 531.922 184.701 532.421 184.573 532.881C184.446 533.337 184.259 533.733 184.013 534.07C183.767 534.408 183.466 534.67 183.11 534.856C182.755 535.043 182.347 535.137 181.887 535.137C181.417 535.137 181.005 535.057 180.649 534.897C180.299 534.733 180.002 534.499 179.761 534.193C179.519 533.888 179.326 533.519 179.18 533.086C179.038 532.653 178.94 532.165 178.886 531.623V530.994C178.94 530.447 179.038 529.957 179.18 529.524C179.326 529.091 179.519 528.722 179.761 528.417C180.002 528.107 180.299 527.872 180.649 527.713C181 527.549 181.408 527.467 181.873 527.467C182.338 527.467 182.75 527.558 183.11 527.74C183.47 527.918 183.771 528.173 184.013 528.506C184.259 528.839 184.446 529.237 184.573 529.702C184.701 530.162 184.765 530.675 184.765 531.24ZM183.493 531.384V531.24C183.493 530.871 183.459 530.525 183.391 530.201C183.322 529.873 183.213 529.586 183.062 529.34C182.912 529.089 182.714 528.893 182.468 528.752C182.222 528.606 181.919 528.533 181.559 528.533C181.24 528.533 180.962 528.588 180.725 528.697C180.492 528.807 180.294 528.955 180.13 529.142C179.966 529.324 179.831 529.534 179.727 529.771C179.626 530.003 179.551 530.244 179.501 530.495V532.143C179.574 532.462 179.692 532.769 179.856 533.065C180.025 533.357 180.248 533.596 180.526 533.783C180.809 533.97 181.158 534.063 181.572 534.063C181.914 534.063 182.206 533.995 182.447 533.858C182.693 533.717 182.892 533.523 183.042 533.277C183.197 533.031 183.311 532.746 183.384 532.423C183.457 532.099 183.493 531.753 183.493 531.384ZM187.629 528.766V535H186.364V527.604H187.595L187.629 528.766ZM189.939 527.562L189.933 528.738C189.828 528.715 189.728 528.702 189.632 528.697C189.541 528.688 189.436 528.684 189.317 528.684C189.026 528.684 188.768 528.729 188.545 528.82C188.322 528.911 188.132 529.039 187.978 529.203C187.823 529.367 187.7 529.563 187.608 529.791C187.522 530.014 187.465 530.26 187.438 530.529L187.082 530.734C187.082 530.288 187.125 529.868 187.212 529.477C187.303 529.085 187.442 528.738 187.629 528.438C187.816 528.132 188.053 527.895 188.34 527.727C188.632 527.553 188.978 527.467 189.379 527.467C189.47 527.467 189.575 527.478 189.693 527.501C189.812 527.519 189.894 527.54 189.939 527.562ZM192.482 527.604V535H191.211V527.604H192.482ZM191.115 525.642C191.115 525.437 191.177 525.263 191.3 525.122C191.427 524.981 191.614 524.91 191.86 524.91C192.102 524.91 192.286 524.981 192.414 525.122C192.546 525.263 192.612 525.437 192.612 525.642C192.612 525.838 192.546 526.006 192.414 526.147C192.286 526.284 192.102 526.353 191.86 526.353C191.614 526.353 191.427 526.284 191.3 526.147C191.177 526.006 191.115 525.838 191.115 525.642ZM197.473 534.098C197.773 534.098 198.051 534.036 198.307 533.913C198.562 533.79 198.771 533.621 198.936 533.407C199.1 533.188 199.193 532.94 199.216 532.662H200.419C200.396 533.1 200.248 533.507 199.975 533.886C199.706 534.259 199.353 534.562 198.915 534.795C198.478 535.023 197.997 535.137 197.473 535.137C196.917 535.137 196.431 535.039 196.017 534.843C195.606 534.647 195.265 534.378 194.991 534.036C194.722 533.694 194.52 533.302 194.383 532.86C194.251 532.414 194.185 531.942 194.185 531.445V531.158C194.185 530.661 194.251 530.192 194.383 529.75C194.52 529.303 194.722 528.909 194.991 528.567C195.265 528.226 195.606 527.957 196.017 527.761C196.431 527.565 196.917 527.467 197.473 527.467C198.051 527.467 198.557 527.585 198.99 527.822C199.423 528.055 199.763 528.374 200.009 528.779C200.259 529.18 200.396 529.636 200.419 530.146H199.216C199.193 529.841 199.106 529.565 198.956 529.319C198.81 529.073 198.61 528.877 198.354 528.731C198.104 528.581 197.81 528.506 197.473 528.506C197.085 528.506 196.759 528.583 196.495 528.738C196.235 528.889 196.028 529.094 195.873 529.354C195.723 529.609 195.613 529.894 195.545 530.208C195.481 530.518 195.449 530.835 195.449 531.158V531.445C195.449 531.769 195.481 532.088 195.545 532.402C195.609 532.717 195.716 533.002 195.866 533.257C196.021 533.512 196.229 533.717 196.488 533.872C196.753 534.022 197.081 534.098 197.473 534.098ZM203.112 524.5V535H201.841V524.5H203.112ZM207.631 527.604L204.404 531.056L202.6 532.929L202.497 531.582L203.789 530.037L206.086 527.604H207.631ZM206.476 535L203.837 531.473L204.493 530.345L207.966 535H206.476ZM208.882 534.33C208.882 534.116 208.948 533.936 209.08 533.79C209.217 533.64 209.413 533.564 209.668 533.564C209.923 533.564 210.117 533.64 210.249 533.79C210.386 533.936 210.454 534.116 210.454 534.33C210.454 534.54 210.386 534.717 210.249 534.863C210.117 535.009 209.923 535.082 209.668 535.082C209.413 535.082 209.217 535.009 209.08 534.863C208.948 534.717 208.882 534.54 208.882 534.33ZM208.889 528.294C208.889 528.08 208.955 527.9 209.087 527.754C209.224 527.604 209.42 527.528 209.675 527.528C209.93 527.528 210.124 527.604 210.256 527.754C210.393 527.9 210.461 528.08 210.461 528.294C210.461 528.504 210.393 528.681 210.256 528.827C210.124 528.973 209.93 529.046 209.675 529.046C209.42 529.046 209.224 528.973 209.087 528.827C208.955 528.681 208.889 528.504 208.889 528.294ZM217.263 530.263L216.251 530.003L216.75 525.047H221.856V526.216H217.823L217.522 528.923C217.705 528.818 217.935 528.72 218.213 528.629C218.495 528.538 218.819 528.492 219.184 528.492C219.644 528.492 220.056 528.572 220.421 528.731C220.785 528.886 221.095 529.11 221.351 529.401C221.61 529.693 221.809 530.044 221.945 530.454C222.082 530.864 222.15 531.322 222.15 531.828C222.15 532.307 222.084 532.746 221.952 533.147C221.825 533.549 221.631 533.899 221.371 534.2C221.111 534.496 220.783 534.727 220.387 534.891C219.995 535.055 219.532 535.137 218.999 535.137C218.598 535.137 218.217 535.082 217.857 534.973C217.502 534.859 217.183 534.688 216.9 534.46C216.622 534.228 216.395 533.94 216.217 533.599C216.044 533.252 215.934 532.847 215.889 532.382H217.092C217.146 532.756 217.256 533.07 217.42 533.325C217.584 533.58 217.798 533.774 218.062 533.906C218.331 534.034 218.644 534.098 218.999 534.098C219.3 534.098 219.566 534.045 219.799 533.94C220.031 533.836 220.227 533.685 220.387 533.489C220.546 533.293 220.667 533.056 220.749 532.778C220.836 532.5 220.879 532.188 220.879 531.842C220.879 531.527 220.836 531.236 220.749 530.967C220.662 530.698 220.533 530.463 220.359 530.263C220.191 530.062 219.983 529.907 219.737 529.798C219.491 529.684 219.209 529.627 218.89 529.627C218.466 529.627 218.145 529.684 217.926 529.798C217.712 529.912 217.491 530.067 217.263 530.263Z" fill="white"/>
<path d="M134.924 554.098C135.225 554.098 135.503 554.036 135.758 553.913C136.013 553.79 136.223 553.621 136.387 553.407C136.551 553.188 136.644 552.94 136.667 552.662H137.87C137.847 553.1 137.699 553.507 137.426 553.886C137.157 554.259 136.804 554.562 136.366 554.795C135.929 555.023 135.448 555.137 134.924 555.137C134.368 555.137 133.882 555.039 133.468 554.843C133.058 554.647 132.716 554.378 132.442 554.036C132.174 553.694 131.971 553.302 131.834 552.86C131.702 552.414 131.636 551.942 131.636 551.445V551.158C131.636 550.661 131.702 550.192 131.834 549.75C131.971 549.303 132.174 548.909 132.442 548.567C132.716 548.226 133.058 547.957 133.468 547.761C133.882 547.565 134.368 547.467 134.924 547.467C135.503 547.467 136.008 547.585 136.441 547.822C136.874 548.055 137.214 548.374 137.46 548.779C137.711 549.18 137.847 549.636 137.87 550.146H136.667C136.644 549.841 136.558 549.565 136.407 549.319C136.261 549.073 136.061 548.877 135.806 548.731C135.555 548.581 135.261 548.506 134.924 548.506C134.536 548.506 134.211 548.583 133.946 548.738C133.687 548.889 133.479 549.094 133.324 549.354C133.174 549.609 133.064 549.894 132.996 550.208C132.932 550.518 132.9 550.835 132.9 551.158V551.445C132.9 551.769 132.932 552.088 132.996 552.402C133.06 552.717 133.167 553.002 133.317 553.257C133.472 553.512 133.68 553.717 133.939 553.872C134.204 554.022 134.532 554.098 134.924 554.098ZM143.653 553.735V549.928C143.653 549.636 143.594 549.383 143.476 549.169C143.362 548.95 143.188 548.782 142.956 548.663C142.724 548.545 142.437 548.485 142.095 548.485C141.776 548.485 141.495 548.54 141.254 548.649C141.017 548.759 140.83 548.902 140.693 549.08C140.561 549.258 140.495 549.449 140.495 549.654H139.23C139.23 549.39 139.299 549.128 139.436 548.868C139.572 548.608 139.768 548.374 140.023 548.164C140.283 547.95 140.593 547.781 140.953 547.658C141.318 547.531 141.723 547.467 142.17 547.467C142.708 547.467 143.182 547.558 143.592 547.74C144.007 547.923 144.33 548.198 144.562 548.567C144.799 548.932 144.918 549.39 144.918 549.941V553.387C144.918 553.633 144.938 553.895 144.979 554.173C145.025 554.451 145.091 554.69 145.178 554.891V555H143.858C143.795 554.854 143.744 554.66 143.708 554.419C143.672 554.173 143.653 553.945 143.653 553.735ZM143.872 550.516L143.886 551.404H142.607C142.247 551.404 141.926 551.434 141.644 551.493C141.361 551.548 141.124 551.632 140.933 551.746C140.741 551.86 140.595 552.004 140.495 552.177C140.395 552.345 140.345 552.544 140.345 552.771C140.345 553.004 140.397 553.216 140.502 553.407C140.607 553.599 140.764 553.751 140.974 553.865C141.188 553.975 141.45 554.029 141.76 554.029C142.147 554.029 142.489 553.947 142.785 553.783C143.081 553.619 143.316 553.419 143.489 553.182C143.667 552.945 143.763 552.715 143.776 552.491L144.316 553.1C144.285 553.291 144.198 553.503 144.057 553.735C143.915 553.968 143.726 554.191 143.489 554.405C143.257 554.615 142.979 554.79 142.655 554.932C142.336 555.068 141.976 555.137 141.575 555.137C141.074 555.137 140.634 555.039 140.256 554.843C139.882 554.647 139.59 554.385 139.381 554.057C139.176 553.724 139.073 553.353 139.073 552.942C139.073 552.546 139.151 552.197 139.306 551.896C139.461 551.591 139.684 551.338 139.976 551.138C140.267 550.933 140.618 550.778 141.028 550.673C141.438 550.568 141.896 550.516 142.402 550.516H143.872ZM150.004 547.604V548.574H146.005V547.604H150.004ZM147.358 545.806H148.623V553.168C148.623 553.419 148.662 553.608 148.739 553.735C148.817 553.863 148.917 553.947 149.04 553.988C149.163 554.029 149.295 554.05 149.437 554.05C149.541 554.05 149.651 554.041 149.765 554.022C149.883 554 149.972 553.981 150.031 553.968L150.038 555C149.938 555.032 149.806 555.062 149.642 555.089C149.482 555.121 149.288 555.137 149.061 555.137C148.751 555.137 148.466 555.075 148.206 554.952C147.946 554.829 147.739 554.624 147.584 554.337C147.434 554.045 147.358 553.653 147.358 553.161V545.806ZM154.447 554.098C154.748 554.098 155.026 554.036 155.281 553.913C155.536 553.79 155.746 553.621 155.91 553.407C156.074 553.188 156.168 552.94 156.19 552.662H157.394C157.371 553.1 157.223 553.507 156.949 553.886C156.68 554.259 156.327 554.562 155.89 554.795C155.452 555.023 154.971 555.137 154.447 555.137C153.891 555.137 153.406 555.039 152.991 554.843C152.581 554.647 152.239 554.378 151.966 554.036C151.697 553.694 151.494 553.302 151.357 552.86C151.225 552.414 151.159 551.942 151.159 551.445V551.158C151.159 550.661 151.225 550.192 151.357 549.75C151.494 549.303 151.697 548.909 151.966 548.567C152.239 548.226 152.581 547.957 152.991 547.761C153.406 547.565 153.891 547.467 154.447 547.467C155.026 547.467 155.532 547.585 155.965 547.822C156.398 548.055 156.737 548.374 156.983 548.779C157.234 549.18 157.371 549.636 157.394 550.146H156.19C156.168 549.841 156.081 549.565 155.931 549.319C155.785 549.073 155.584 548.877 155.329 548.731C155.078 548.581 154.785 548.506 154.447 548.506C154.06 548.506 153.734 548.583 153.47 548.738C153.21 548.889 153.003 549.094 152.848 549.354C152.697 549.609 152.588 549.894 152.52 550.208C152.456 550.518 152.424 550.835 152.424 551.158V551.445C152.424 551.769 152.456 552.088 152.52 552.402C152.583 552.717 152.69 553.002 152.841 553.257C152.996 553.512 153.203 553.717 153.463 553.872C153.727 554.022 154.055 554.098 154.447 554.098ZM160.08 544.5V555H158.815V544.5H160.08ZM159.779 551.021L159.253 551.001C159.257 550.495 159.333 550.028 159.479 549.6C159.624 549.167 159.829 548.791 160.094 548.472C160.358 548.153 160.673 547.907 161.037 547.733C161.406 547.556 161.814 547.467 162.261 547.467C162.625 547.467 162.953 547.517 163.245 547.617C163.537 547.713 163.785 547.868 163.99 548.082C164.2 548.296 164.359 548.574 164.469 548.916C164.578 549.253 164.633 549.666 164.633 550.153V555H163.361V550.14C163.361 549.752 163.304 549.442 163.19 549.21C163.076 548.973 162.91 548.802 162.691 548.697C162.473 548.588 162.204 548.533 161.885 548.533C161.57 548.533 161.283 548.599 161.023 548.731C160.768 548.864 160.547 549.046 160.36 549.278C160.178 549.511 160.035 549.777 159.93 550.078C159.829 550.374 159.779 550.689 159.779 551.021ZM167.9 547.604V555H166.629V547.604H167.9ZM166.533 545.642C166.533 545.437 166.595 545.263 166.718 545.122C166.845 544.981 167.032 544.91 167.278 544.91C167.52 544.91 167.704 544.981 167.832 545.122C167.964 545.263 168.03 545.437 168.03 545.642C168.03 545.838 167.964 546.006 167.832 546.147C167.704 546.284 167.52 546.353 167.278 546.353C167.032 546.353 166.845 546.284 166.718 546.147C166.595 546.006 166.533 545.838 166.533 545.642ZM171.195 549.183V555H169.931V547.604H171.127L171.195 549.183ZM170.895 551.021L170.368 551.001C170.373 550.495 170.448 550.028 170.594 549.6C170.74 549.167 170.945 548.791 171.209 548.472C171.473 548.153 171.788 547.907 172.152 547.733C172.521 547.556 172.929 547.467 173.376 547.467C173.741 547.467 174.069 547.517 174.36 547.617C174.652 547.713 174.9 547.868 175.105 548.082C175.315 548.296 175.475 548.574 175.584 548.916C175.693 549.253 175.748 549.666 175.748 550.153V555H174.477V550.14C174.477 549.752 174.42 549.442 174.306 549.21C174.192 548.973 174.025 548.802 173.807 548.697C173.588 548.588 173.319 548.533 173 548.533C172.686 548.533 172.398 548.599 172.139 548.731C171.883 548.864 171.662 549.046 171.476 549.278C171.293 549.511 171.15 549.777 171.045 550.078C170.945 550.374 170.895 550.689 170.895 551.021ZM182.461 547.604H183.609V554.843C183.609 555.494 183.477 556.05 183.213 556.511C182.949 556.971 182.579 557.32 182.105 557.557C181.636 557.798 181.094 557.919 180.479 557.919C180.223 557.919 179.923 557.878 179.576 557.796C179.234 557.718 178.897 557.584 178.564 557.393C178.236 557.206 177.961 556.953 177.737 556.634L178.4 555.882C178.71 556.256 179.034 556.515 179.371 556.661C179.713 556.807 180.05 556.88 180.383 556.88C180.784 556.88 181.13 556.805 181.422 556.654C181.714 556.504 181.939 556.281 182.099 555.984C182.263 555.693 182.345 555.333 182.345 554.904V549.23L182.461 547.604ZM177.368 551.384V551.24C177.368 550.675 177.434 550.162 177.566 549.702C177.703 549.237 177.897 548.839 178.147 548.506C178.403 548.173 178.71 547.918 179.07 547.74C179.43 547.558 179.836 547.467 180.287 547.467C180.752 547.467 181.158 547.549 181.504 547.713C181.855 547.872 182.151 548.107 182.393 548.417C182.639 548.722 182.832 549.091 182.974 549.524C183.115 549.957 183.213 550.447 183.268 550.994V551.623C183.217 552.165 183.119 552.653 182.974 553.086C182.832 553.519 182.639 553.888 182.393 554.193C182.151 554.499 181.855 554.733 181.504 554.897C181.153 555.057 180.743 555.137 180.273 555.137C179.831 555.137 179.43 555.043 179.07 554.856C178.715 554.67 178.41 554.408 178.154 554.07C177.899 553.733 177.703 553.337 177.566 552.881C177.434 552.421 177.368 551.922 177.368 551.384ZM178.633 551.24V551.384C178.633 551.753 178.669 552.099 178.742 552.423C178.82 552.746 178.936 553.031 179.091 553.277C179.25 553.523 179.453 553.717 179.699 553.858C179.945 553.995 180.239 554.063 180.581 554.063C181 554.063 181.347 553.975 181.62 553.797C181.894 553.619 182.11 553.384 182.27 553.093C182.434 552.801 182.561 552.484 182.652 552.143V550.495C182.602 550.244 182.525 550.003 182.42 549.771C182.32 549.534 182.188 549.324 182.023 549.142C181.864 548.955 181.666 548.807 181.429 548.697C181.192 548.588 180.914 548.533 180.595 548.533C180.248 548.533 179.95 548.606 179.699 548.752C179.453 548.893 179.25 549.089 179.091 549.34C178.936 549.586 178.82 549.873 178.742 550.201C178.669 550.525 178.633 550.871 178.633 551.24ZM188.996 544.5H190.268V553.564L190.158 555H188.996V544.5ZM195.265 551.24V551.384C195.265 551.922 195.201 552.421 195.073 552.881C194.946 553.337 194.759 553.733 194.513 554.07C194.267 554.408 193.966 554.67 193.61 554.856C193.255 555.043 192.847 555.137 192.387 555.137C191.917 555.137 191.505 555.057 191.149 554.897C190.799 554.733 190.502 554.499 190.261 554.193C190.019 553.888 189.826 553.519 189.68 553.086C189.538 552.653 189.44 552.165 189.386 551.623V550.994C189.44 550.447 189.538 549.957 189.68 549.524C189.826 549.091 190.019 548.722 190.261 548.417C190.502 548.107 190.799 547.872 191.149 547.713C191.5 547.549 191.908 547.467 192.373 547.467C192.838 547.467 193.25 547.558 193.61 547.74C193.97 547.918 194.271 548.173 194.513 548.506C194.759 548.839 194.946 549.237 195.073 549.702C195.201 550.162 195.265 550.675 195.265 551.24ZM193.993 551.384V551.24C193.993 550.871 193.959 550.525 193.891 550.201C193.822 549.873 193.713 549.586 193.562 549.34C193.412 549.089 193.214 548.893 192.968 548.752C192.722 548.606 192.419 548.533 192.059 548.533C191.74 548.533 191.462 548.588 191.225 548.697C190.992 548.807 190.794 548.955 190.63 549.142C190.466 549.324 190.331 549.534 190.227 549.771C190.126 550.003 190.051 550.244 190.001 550.495V552.143C190.074 552.462 190.192 552.769 190.356 553.065C190.525 553.357 190.748 553.596 191.026 553.783C191.309 553.97 191.658 554.063 192.072 554.063C192.414 554.063 192.706 553.995 192.947 553.858C193.193 553.717 193.392 553.523 193.542 553.277C193.697 553.031 193.811 552.746 193.884 552.423C193.957 552.099 193.993 551.753 193.993 551.384ZM201.226 553.735V549.928C201.226 549.636 201.166 549.383 201.048 549.169C200.934 548.95 200.761 548.782 200.528 548.663C200.296 548.545 200.009 548.485 199.667 548.485C199.348 548.485 199.068 548.54 198.826 548.649C198.589 548.759 198.402 548.902 198.266 549.08C198.133 549.258 198.067 549.449 198.067 549.654H196.803C196.803 549.39 196.871 549.128 197.008 548.868C197.145 548.608 197.34 548.374 197.596 548.164C197.855 547.95 198.165 547.781 198.525 547.658C198.89 547.531 199.296 547.467 199.742 547.467C200.28 547.467 200.754 547.558 201.164 547.74C201.579 547.923 201.902 548.198 202.135 548.567C202.372 548.932 202.49 549.39 202.49 549.941V553.387C202.49 553.633 202.511 553.895 202.552 554.173C202.597 554.451 202.663 554.69 202.75 554.891V555H201.431C201.367 554.854 201.317 554.66 201.28 554.419C201.244 554.173 201.226 553.945 201.226 553.735ZM201.444 550.516L201.458 551.404H200.18C199.82 551.404 199.498 551.434 199.216 551.493C198.933 551.548 198.696 551.632 198.505 551.746C198.313 551.86 198.168 552.004 198.067 552.177C197.967 552.345 197.917 552.544 197.917 552.771C197.917 553.004 197.969 553.216 198.074 553.407C198.179 553.599 198.336 553.751 198.546 553.865C198.76 553.975 199.022 554.029 199.332 554.029C199.719 554.029 200.061 553.947 200.357 553.783C200.654 553.619 200.888 553.419 201.062 553.182C201.239 552.945 201.335 552.715 201.349 552.491L201.889 553.1C201.857 553.291 201.77 553.503 201.629 553.735C201.488 553.968 201.299 554.191 201.062 554.405C200.829 554.615 200.551 554.79 200.228 554.932C199.909 555.068 199.549 555.137 199.147 555.137C198.646 555.137 198.206 555.039 197.828 554.843C197.454 554.647 197.163 554.385 196.953 554.057C196.748 553.724 196.646 553.353 196.646 552.942C196.646 552.546 196.723 552.197 196.878 551.896C197.033 551.591 197.256 551.338 197.548 551.138C197.84 550.933 198.19 550.778 198.601 550.673C199.011 550.568 199.469 550.516 199.975 550.516H201.444ZM205.854 544.5V555H204.582V544.5H205.854ZM209.258 544.5V555H207.986V544.5H209.258ZM211.233 554.33C211.233 554.116 211.299 553.936 211.432 553.79C211.568 553.64 211.764 553.564 212.02 553.564C212.275 553.564 212.468 553.64 212.601 553.79C212.737 553.936 212.806 554.116 212.806 554.33C212.806 554.54 212.737 554.717 212.601 554.863C212.468 555.009 212.275 555.082 212.02 555.082C211.764 555.082 211.568 555.009 211.432 554.863C211.299 554.717 211.233 554.54 211.233 554.33ZM211.24 548.294C211.24 548.08 211.306 547.9 211.438 547.754C211.575 547.604 211.771 547.528 212.026 547.528C212.282 547.528 212.475 547.604 212.607 547.754C212.744 547.9 212.812 548.08 212.812 548.294C212.812 548.504 212.744 548.681 212.607 548.827C212.475 548.973 212.282 549.046 212.026 549.046C211.771 549.046 211.575 548.973 211.438 548.827C211.306 548.681 211.24 548.504 211.24 548.294ZM219.614 550.263L218.603 550.003L219.102 545.047H224.208V546.216H220.175L219.874 548.923C220.056 548.818 220.286 548.72 220.564 548.629C220.847 548.538 221.171 548.492 221.535 548.492C221.995 548.492 222.408 548.572 222.772 548.731C223.137 548.886 223.447 549.11 223.702 549.401C223.962 549.693 224.16 550.044 224.297 550.454C224.434 550.864 224.502 551.322 224.502 551.828C224.502 552.307 224.436 552.746 224.304 553.147C224.176 553.549 223.982 553.899 223.723 554.2C223.463 554.496 223.135 554.727 222.738 554.891C222.346 555.055 221.884 555.137 221.351 555.137C220.95 555.137 220.569 555.082 220.209 554.973C219.854 554.859 219.535 554.688 219.252 554.46C218.974 554.228 218.746 553.94 218.568 553.599C218.395 553.252 218.286 552.847 218.24 552.382H219.443C219.498 552.756 219.607 553.07 219.771 553.325C219.936 553.58 220.15 553.774 220.414 553.906C220.683 554.034 220.995 554.098 221.351 554.098C221.651 554.098 221.918 554.045 222.15 553.94C222.383 553.836 222.579 553.685 222.738 553.489C222.898 553.293 223.019 553.056 223.101 552.778C223.187 552.5 223.23 552.188 223.23 551.842C223.23 551.527 223.187 551.236 223.101 550.967C223.014 550.698 222.884 550.463 222.711 550.263C222.542 550.062 222.335 549.907 222.089 549.798C221.843 549.684 221.56 549.627 221.241 549.627C220.817 549.627 220.496 549.684 220.277 549.798C220.063 549.912 219.842 550.067 219.614 550.263Z" fill="white"/>
<path fill-rule="evenodd" clip-rule="evenodd" d="M224 477H186V478H185V481H186V482H224V481H225V478H224V477ZM224 478V481H186V478H224Z" fill="#212121"/>
<rect x="186" y="478" width="38" height="2" fill="#43E27E"/>
<rect x="186" y="480" width="38" height="1" fill="#0D9841"/>
<path fill-rule="evenodd" clip-rule="evenodd" d="M207 472H204V473H203V476H204V477H207V476H208V473H207V472ZM207 473V476H204V473H207Z" fill="#212121"/>
<rect x="204" y="473" width="3" height="2" fill="#2DB9D7"/>
<rect x="204" y="475" width="3" height="1" fill="#0088A5"/>
<path fill-rule="evenodd" clip-rule="evenodd" d="M174 124H151V125H150V133H151V134H174V133H175V125H174V124ZM174 125V133H151V125H174Z" fill="#212121"/>
<rect x="151" y="125" width="23" height="6" fill="#D11F1F"/>
<path d="M151 125H152V126H153V131H172V126H173V125H174V133H151V125Z" fill="#AB0000"/>
<path fill-rule="evenodd" clip-rule="evenodd" d="M198 124H175V125H174V133H175V134H198V133H199V125H198V124ZM198 125V133H175V125H198Z" fill="#212121"/>
<rect x="175" y="125" width="23" height="6" fill="#D11F1F"/>
<path d="M175 125H176V126H177V131H196V126H197V125H198V133H175V125Z" fill="#AB0000"/>
<path fill-rule="evenodd" clip-rule="evenodd" d="M222 124H199V125H198V133H199V134H222V133H223V125H222V124ZM222 125V133H199V125H222Z" fill="#212121"/>
<rect x="199" y="125" width="23" height="6" fill="#D11F1F"/>
<path d="M199 125H200V126H201V131H220V126H221V125H222V133H199V125Z" fill="#AB0000"/>
<path fill-rule="evenodd" clip-rule="evenodd" d="M246 124H223V125H222V133H223V134H246V133H247V125H246V124ZM246 125V133H223V125H246Z" fill="#212121"/>
<rect x="223" y="125" width="23" height="6" fill="#D11F1F"/>
<path d="M223 125H224V126H225V131H244V126H245V125H246V133H223V125Z" fill="#AB0000"/>
<path fill-rule="evenodd" clip-rule="evenodd" d="M270 124H247V125H246V133H247V134H270V133H271V125H270V124ZM270 125V133H247V125H270Z" fill="#212121"/>
<rect x="247" y="125" width="23" height="6" fill="#D11F1F"/>
<path d="M247 125H248V126H249V131H268V126H269V125H270V133H247V125Z" fill="#AB0000"/>
<path fill-rule="evenodd" clip-rule="evenodd" d="M162 133H139V134H138V142H139V143H162V142H163V134H162V133ZM162 134V142H139V134H162Z" fill="#212121"/>
<rect x="139" y="134" width="23" height="6" fill="#D11F1F"/>
<path d="M139 134H140V135H141V140H160V135H161V134H162V142H139V134Z" fill="#AB0000"/>
<path fill-rule="evenodd" clip-rule="evenodd" d="M186 133H163V134H162V142H163V143H186V142H187V134H186V133ZM186 134V142H163V134H186Z" fill="#212121"/>
<rect x="163" y="134" width="23" height="8" fill="#E09E42"/>
<path d="M163 134H164V135H165V140H184V135H185V134H186V142H163V134Z" fill="#C17306"/>
<path fill-rule="evenodd" clip-rule="evenodd" d="M210 133H187V134H186V142H187V143H210V142H211V134H210V133ZM210 134V142H187V134H210Z" fill="#212121"/>
<rect x="187" y="134" width="23" height="8" fill="#E09E42"/>
<path d="M187 134H188V135H189V140H208V135H209V134H210V142H187V134Z" fill="#C17306"/>
<path fill-rule="evenodd" clip-rule="evenodd" d="M234 133H211V134H210V142H211V143H234V142H235V134H234V133ZM234 134V142H211V134H234Z" fill="#212121"/>
<rect x="211" y="134" width="23" height="8" fill="#E09E42"/>
<path d="M211 134H212V135H213V140H232V135H233V134H234V142H211V134Z" fill="#C17306"/>
<path fill-rule="evenodd" clip-rule="evenodd" d="M258 133H235V134H234V142H235V143H258V142H259V134H258V133ZM258 134V142H235V134H258Z" fill="#212121"/>
<rect x="235" y="134" width="23" height="8" fill="#E09E42"/>
<path d="M235 134H236V135H237V140H256V135H257V134H258V142H235V134Z" fill="#C17306"/>
<path fill-rule="evenodd" clip-rule="evenodd" d="M282 133H259V134H258V142H259V143H282V142H283V134H282V133ZM282 134V142H259V134H282Z" fill="#212121"/>
<rect x="259" y="134" width="23" height="6" fill="#D11F1F"/>
<path d="M259 134H260V135H261V140H280V135H281V134H282V142H259V134Z" fill="#AB0000"/>
<path fill-rule="evenodd" clip-rule="evenodd" d="M174 142H151V143H150V151H151V152H174V151H175V143H174V142ZM174 143V151H151V143H174Z" fill="#212121"/>
<rect x="151" y="143" width="23" height="6" fill="#D11F1F"/>
<path d="M151 143H152V144H153V149H172V144H173V143H174V151H151V143Z" fill="#AB0000"/>
<path fill-rule="evenodd" clip-rule="evenodd" d="M198 142H175V143H174V151H175V152H198V151H199V143H198V142ZM198 143V151H175V143H198Z" fill="#212121"/>
<rect x="175" y="143" width="23" height="6" fill="#D11F1F"/>
<path d="M175 143H176V144H177V149H196V144H197V143H198V151H175V143Z" fill="#AB0000"/>
<path fill-rule="evenodd" clip-rule="evenodd" d="M222 142H199V143H198V151H199V152H222V151H223V143H222V142ZM222 143V151H199V143H222Z" fill="#212121"/>
<rect x="199" y="143" width="23" height="6" fill="#D11F1F"/>
<path d="M199 143H200V144H201V149H220V144H221V143H222V151H199V143Z" fill="#AB0000"/>
<path fill-rule="evenodd" clip-rule="evenodd" d="M246 142H223V143H222V151H223V152H246V151H247V143H246V142ZM246 143V151H223V143H246Z" fill="#212121"/>
<rect x="223" y="143" width="23" height="6" fill="#D11F1F"/>
<path d="M223 143H224V144H225V149H244V144H245V143H246V151H223V143Z" fill="#AB0000"/>
<path fill-rule="evenodd" clip-rule="evenodd" d="M270 142H247V143H246V151H247V152H270V151H271V143H270V142ZM270 143V151H247V143H270Z" fill="#212121"/>
<rect x="247" y="143" width="23" height="6" fill="#D11F1F"/>
<path d="M247 143H248V144H249V149H268V144H269V143H270V151H247V143Z" fill="#AB0000"/>
<rect x="65" y="318" width="28" height="20" rx="3.5" fill="#FF55B1"/>
<path d="M71.7889 332.109C71.2993 332.109 70.8592 332.016 70.4686 331.828C70.0806 331.638 69.7707 331.378 69.5389 331.047C69.3072 330.716 69.1835 330.339 69.1678 329.914H70.3397C70.3684 330.258 70.5207 330.54 70.7967 330.762C71.0728 330.983 71.4035 331.094 71.7889 331.094C72.0962 331.094 72.3684 331.023 72.6053 330.883C72.8449 330.74 73.0324 330.543 73.1678 330.293C73.3059 330.043 73.3749 329.758 73.3749 329.437C73.3749 329.112 73.3046 328.822 73.1639 328.566C73.0233 328.311 72.8293 328.111 72.5819 327.965C72.3371 327.819 72.0559 327.745 71.7381 327.742C71.496 327.742 71.2525 327.784 71.0077 327.867C70.7629 327.951 70.565 328.06 70.4139 328.195L69.3085 328.031L69.7577 324H74.1561V325.035H70.7616L70.5077 327.273H70.5546C70.7108 327.122 70.9178 326.996 71.1756 326.895C71.4361 326.793 71.7147 326.742 72.0116 326.742C72.4986 326.742 72.9322 326.858 73.3124 327.09C73.6952 327.322 73.996 327.638 74.2147 328.039C74.4361 328.437 74.5454 328.896 74.5428 329.414C74.5454 329.932 74.4282 330.395 74.1913 330.801C73.9569 331.207 73.6314 331.527 73.2147 331.762C72.8006 331.993 72.3254 332.109 71.7889 332.109ZM78.8647 332.133C78.2476 332.13 77.7202 331.967 77.2827 331.645C76.8452 331.322 76.5106 330.852 76.2788 330.234C76.047 329.617 75.9312 328.874 75.9312 328.004C75.9312 327.137 76.047 326.396 76.2788 325.781C76.5132 325.167 76.8491 324.698 77.2866 324.375C77.7267 324.052 78.2528 323.891 78.8647 323.891C79.4767 323.891 80.0015 324.053 80.439 324.379C80.8765 324.702 81.2111 325.171 81.4429 325.785C81.6772 326.397 81.7944 327.137 81.7944 328.004C81.7944 328.876 81.6785 329.621 81.4468 330.238C81.215 330.853 80.8804 331.323 80.4429 331.648C80.0054 331.971 79.4793 332.133 78.8647 332.133ZM78.8647 331.09C79.4064 331.09 79.8296 330.826 80.1343 330.297C80.4416 329.768 80.5952 329.004 80.5952 328.004C80.5952 327.34 80.5249 326.779 80.3843 326.32C80.2463 325.859 80.047 325.51 79.7866 325.273C79.5288 325.034 79.2215 324.914 78.8647 324.914C78.3257 324.914 77.9025 325.18 77.5952 325.711C77.2879 326.242 77.133 327.007 77.1304 328.004C77.1304 328.671 77.1994 329.234 77.3374 329.695C77.478 330.154 77.6772 330.501 77.9351 330.738C78.1929 330.973 78.5028 331.09 78.8647 331.09ZM86.0753 332.133C85.4581 332.13 84.9308 331.967 84.4933 331.645C84.0558 331.322 83.7212 330.852 83.4894 330.234C83.2576 329.617 83.1417 328.874 83.1417 328.004C83.1417 327.137 83.2576 326.396 83.4894 325.781C83.7238 325.167 84.0597 324.698 84.4972 324.375C84.9373 324.052 85.4634 323.891 86.0753 323.891C86.6873 323.891 87.2121 324.053 87.6496 324.379C88.0871 324.702 88.4217 325.171 88.6535 325.785C88.8878 326.397 89.005 327.137 89.005 328.004C89.005 328.876 88.8891 329.621 88.6574 330.238C88.4256 330.853 88.091 331.323 87.6535 331.648C87.216 331.971 86.6899 332.133 86.0753 332.133ZM86.0753 331.09C86.617 331.09 87.0402 330.826 87.3449 330.297C87.6522 329.768 87.8058 329.004 87.8058 328.004C87.8058 327.34 87.7355 326.779 87.5949 326.32C87.4568 325.859 87.2576 325.51 86.9972 325.273C86.7394 325.034 86.4321 324.914 86.0753 324.914C85.5363 324.914 85.1131 325.18 84.8058 325.711C84.4985 326.242 84.3436 327.007 84.341 328.004C84.341 328.671 84.41 329.234 84.548 329.695C84.6886 330.154 84.8878 330.501 85.1456 330.738C85.4035 330.973 85.7134 331.09 86.0753 331.09Z" fill="white"/>
<path d="M99.5 78V578" stroke="#FF55B1"/>
<path d="M97 78H103" stroke="#FF55B1"/>
<path d="M97 578H103" stroke="#FF55B1"/>
<path d="M111 67H311" stroke="#FF55B1"/>
<path d="M111 64V70" stroke="#FF55B1"/>
<path d="M311 64V70" stroke="#FF55B1"/>
<rect x="197" y="40" width="28" height="20" rx="3.5" fill="#FF55B1"/>
<path d="M201.186 54V53.125L203.893 50.3203C204.182 50.0156 204.42 49.7487 204.608 49.5195C204.798 49.2878 204.94 49.0677 205.034 48.8594C205.127 48.651 205.174 48.4297 205.174 48.1953C205.174 47.9297 205.112 47.7005 204.987 47.5078C204.862 47.3125 204.691 47.1628 204.475 47.0586C204.259 46.9518 204.015 46.8984 203.744 46.8984C203.458 46.8984 203.208 46.957 202.994 47.0742C202.781 47.1914 202.617 47.3568 202.502 47.5703C202.388 47.7839 202.33 48.0339 202.33 48.3203H201.178C201.178 47.8333 201.29 47.4076 201.514 47.043C201.738 46.6784 202.045 46.3958 202.436 46.1953C202.827 45.9922 203.271 45.8906 203.768 45.8906C204.271 45.8906 204.713 45.9909 205.096 46.1914C205.481 46.3893 205.782 46.6602 205.998 47.0039C206.215 47.3451 206.323 47.7305 206.323 48.1602C206.323 48.457 206.267 48.7474 206.155 49.0312C206.045 49.3151 205.854 49.6315 205.58 49.9805C205.307 50.3268 204.927 50.7474 204.44 51.2422L202.85 52.9062V52.9648H206.452V54H201.186ZM210.827 54.1328C210.21 54.1302 209.683 53.9674 209.245 53.6445C208.808 53.3216 208.473 52.8516 208.241 52.2344C208.009 51.6172 207.894 50.8737 207.894 50.0039C207.894 49.1367 208.009 48.3958 208.241 47.7812C208.476 47.1667 208.812 46.6979 209.249 46.375C209.689 46.0521 210.215 45.8906 210.827 45.8906C211.439 45.8906 211.964 46.0534 212.401 46.3789C212.839 46.7018 213.174 47.1706 213.405 47.7852C213.64 48.3971 213.757 49.1367 213.757 50.0039C213.757 50.8763 213.641 51.6211 213.409 52.2383C213.177 52.8529 212.843 53.3229 212.405 53.6484C211.968 53.9714 211.442 54.1328 210.827 54.1328ZM210.827 53.0898C211.369 53.0898 211.792 52.8255 212.097 52.2969C212.404 51.7682 212.558 51.0039 212.558 50.0039C212.558 49.3398 212.487 48.7786 212.347 48.3203C212.209 47.8594 212.009 47.5104 211.749 47.2734C211.491 47.0339 211.184 46.9141 210.827 46.9141C210.288 46.9141 209.865 47.1797 209.558 47.7109C209.25 48.2422 209.095 49.0065 209.093 50.0039C209.093 50.6706 209.162 51.2344 209.3 51.6953C209.44 52.1536 209.64 52.5013 209.897 52.7383C210.155 52.9727 210.465 53.0898 210.827 53.0898ZM218.038 54.1328C217.421 54.1302 216.893 53.9674 216.456 53.6445C216.018 53.3216 215.684 52.8516 215.452 52.2344C215.22 51.6172 215.104 50.8737 215.104 50.0039C215.104 49.1367 215.22 48.3958 215.452 47.7812C215.686 47.1667 216.022 46.6979 216.46 46.375C216.9 46.0521 217.426 45.8906 218.038 45.8906C218.65 45.8906 219.174 46.0534 219.612 46.3789C220.049 46.7018 220.384 47.1706 220.616 47.7852C220.85 48.3971 220.967 49.1367 220.967 50.0039C220.967 50.8763 220.852 51.6211 220.62 52.2383C220.388 52.8529 220.053 53.3229 219.616 53.6484C219.178 53.9714 218.652 54.1328 218.038 54.1328ZM218.038 53.0898C218.579 53.0898 219.003 52.8255 219.307 52.2969C219.615 51.7682 219.768 51.0039 219.768 50.0039C219.768 49.3398 219.698 48.7786 219.557 48.3203C219.419 47.8594 219.22 47.5104 218.96 47.2734C218.702 47.0339 218.395 46.9141 218.038 46.9141C217.499 46.9141 217.075 47.1797 216.768 47.7109C216.461 48.2422 216.306 49.0065 216.303 50.0039C216.303 50.6706 216.372 51.2344 216.51 51.6953C216.651 52.1536 216.85 52.5013 217.108 52.7383C217.366 52.9727 217.676 53.0898 218.038 53.0898Z" fill="white"/>
<path fill-rule="evenodd" clip-rule="evenodd" d="M423.938 78H417.938V80H415.938V86H417.938V88H423.938V86H425.938V80H423.938V78ZM423.938 80V86H417.938V80H423.938Z" fill="#212121"/>
<rect x="417.938" y="80" width="6" height="4" fill="#2DB9D7"/>
<rect x="417.938" y="84" width="6" height="2" fill="#0088A5"/>
<path d="M405.062 78V88" stroke="#FF55B1"/>
<path d="M402.062 78H408.062" stroke="#FF55B1"/>
<path d="M402.062 88H408.062" stroke="#FF55B1"/>
<rect x="385.062" y="73" width="13" height="20" rx="3.5" fill="#FF55B1"/>
<path d="M391.562 87.1094C391.072 87.1094 390.632 87.0156 390.242 86.8281C389.854 86.638 389.544 86.3776 389.312 86.0469C389.08 85.7161 388.957 85.3385 388.941 84.9141H390.113C390.141 85.2578 390.294 85.5404 390.57 85.7617C390.846 85.9831 391.177 86.0937 391.562 86.0937C391.869 86.0937 392.141 86.0234 392.378 85.8828C392.618 85.7396 392.806 85.543 392.941 85.293C393.079 85.043 393.148 84.7578 393.148 84.4375C393.148 84.112 393.078 83.8216 392.937 83.5664C392.796 83.3112 392.602 83.1107 392.355 82.9648C392.11 82.819 391.829 82.7448 391.511 82.7422C391.269 82.7422 391.026 82.7839 390.781 82.8672C390.536 82.9505 390.338 83.0599 390.187 83.1953L389.082 83.0312L389.531 79H393.929V80.0352H390.535L390.281 82.2734H390.328C390.484 82.1224 390.691 81.9961 390.949 81.8945C391.209 81.793 391.488 81.7422 391.785 81.7422C392.272 81.7422 392.705 81.8581 393.085 82.0898C393.468 82.3216 393.769 82.638 393.988 83.0391C394.209 83.4375 394.319 83.8958 394.316 84.4141C394.319 84.9323 394.201 85.3945 393.964 85.8008C393.73 86.207 393.404 86.5273 392.988 86.7617C392.574 86.9935 392.098 87.1094 391.562 87.1094Z" fill="white"/>
<path d="M415.938 67H425.938" stroke="#FF55B1"/>
<path d="M415.938 64V70" stroke="#FF55B1"/>
<path d="M425.938 64V70" stroke="#FF55B1"/>
<rect x="414.938" y="40" width="13" height="20" rx="3.5" fill="#FF55B1"/>
<path d="M421.437 54.1094C420.947 54.1094 420.507 54.0156 420.117 53.8281C419.729 53.638 419.419 53.3776 419.187 53.0469C418.955 52.7161 418.832 52.3385 418.816 51.9141H419.988C420.016 52.2578 420.169 52.5404 420.445 52.7617C420.721 52.9831 421.052 53.0937 421.437 53.0937C421.744 53.0937 422.016 53.0234 422.253 52.8828C422.493 52.7396 422.681 52.543 422.816 52.293C422.954 52.043 423.023 51.7578 423.023 51.4375C423.023 51.112 422.953 50.8216 422.812 50.5664C422.671 50.3112 422.477 50.1107 422.23 49.9648C421.985 49.819 421.704 49.7448 421.386 49.7422C421.144 49.7422 420.901 49.7839 420.656 49.8672C420.411 49.9505 420.213 50.0599 420.062 50.1953L418.957 50.0312L419.406 46H423.804V47.0352H420.41L420.156 49.2734H420.203C420.359 49.1224 420.566 48.9961 420.824 48.8945C421.084 48.793 421.363 48.7422 421.66 48.7422C422.147 48.7422 422.58 48.8581 422.96 49.0898C423.343 49.3216 423.644 49.638 423.863 50.0391C424.084 50.4375 424.194 50.8958 424.191 51.4141C424.194 51.9323 424.076 52.3945 423.839 52.8008C423.605 53.207 423.279 53.5273 422.863 53.7617C422.449 53.9935 421.973 54.1094 421.437 54.1094Z" fill="white"/>
<path fill-rule="evenodd" clip-rule="evenodd" d="M460 231H384V233H382V239H384V241H460V239H462V233H460V231ZM460 233V239H384V233H460Z" fill="#212121"/>
<rect x="384" y="233" width="76" height="4" fill="#43E27E"/>
<rect x="384" y="237" width="76" height="2" fill="#0D9841"/>
<path d="M371 231V241" stroke="#FF55B1"/>
<path d="M368 231H374" stroke="#FF55B1"/>
<path d="M368 241H374" stroke="#FF55B1"/>
<rect x="351" y="226" width="13" height="20" rx="3.5" fill="#FF55B1"/>
<path d="M357.5 240.109C357.01 240.109 356.57 240.016 356.179 239.828C355.791 239.638 355.481 239.378 355.25 239.047C355.018 238.716 354.894 238.339 354.878 237.914H356.05C356.079 238.258 356.231 238.54 356.507 238.762C356.783 238.983 357.114 239.094 357.5 239.094C357.807 239.094 358.079 239.023 358.316 238.883C358.556 238.74 358.743 238.543 358.878 238.293C359.016 238.043 359.085 237.758 359.085 237.437C359.085 237.112 359.015 236.822 358.875 236.566C358.734 236.311 358.54 236.111 358.292 235.965C358.048 235.819 357.766 235.745 357.449 235.742C357.207 235.742 356.963 235.784 356.718 235.867C356.473 235.951 356.276 236.06 356.125 236.195L355.019 236.031L355.468 232H359.867V233.035H356.472L356.218 235.273H356.265C356.421 235.122 356.628 234.996 356.886 234.895C357.147 234.793 357.425 234.742 357.722 234.742C358.209 234.742 358.643 234.858 359.023 235.09C359.406 235.322 359.707 235.638 359.925 236.039C360.147 236.437 360.256 236.896 360.253 237.414C360.256 237.932 360.139 238.395 359.902 238.801C359.667 239.207 359.342 239.527 358.925 239.762C358.511 239.993 358.036 240.109 357.5 240.109Z" fill="white"/>
<path d="M382 220H462" stroke="#FF55B1"/>
<path d="M382 217V223" stroke="#FF55B1"/>
<path d="M462 217V223" stroke="#FF55B1"/>
<rect x="411" y="193" width="21" height="20" rx="3.5" fill="#FF55B1"/>
<path d="M414.898 205.438V204.461L418.355 199H419.124V200.437H418.636L416.163 204.352V204.414H420.902V205.438H414.898ZM418.691 207V205.141L418.698 204.695V199H419.843V207H418.691ZM425.158 207.133C424.541 207.13 424.013 206.967 423.576 206.645C423.138 206.322 422.804 205.852 422.572 205.234C422.34 204.617 422.224 203.874 422.224 203.004C422.224 202.137 422.34 201.396 422.572 200.781C422.806 200.167 423.142 199.698 423.58 199.375C424.02 199.052 424.546 198.891 425.158 198.891C425.77 198.891 426.295 199.053 426.732 199.379C427.17 199.702 427.504 200.171 427.736 200.785C427.971 201.397 428.088 202.137 428.088 203.004C428.088 203.876 427.972 204.621 427.74 205.238C427.508 205.853 427.174 206.323 426.736 206.648C426.299 206.971 425.773 207.133 425.158 207.133ZM425.158 206.09C425.7 206.09 426.123 205.826 426.428 205.297C426.735 204.768 426.888 204.004 426.888 203.004C426.888 202.34 426.818 201.779 426.678 201.32C426.54 200.859 426.34 200.51 426.08 200.273C425.822 200.034 425.515 199.914 425.158 199.914C424.619 199.914 424.196 200.18 423.888 200.711C423.581 201.242 423.426 202.007 423.424 203.004C423.424 203.671 423.493 204.234 423.631 204.695C423.771 205.154 423.971 205.501 424.228 205.738C424.486 205.973 424.796 206.09 425.158 206.09Z" fill="white"/>
<path fill-rule="evenodd" clip-rule="evenodd" d="M448 384H402V386H400V402H402V404H448V402H450V386H448V384ZM448 386V402H402V386H448Z" fill="#212121"/>
<rect x="402" y="386" width="46" height="16" fill="#E09E42"/>
<path d="M402 386H404V388H406V398H444V388H446V386H448V402H402V386Z" fill="#C17306"/>
<path d="M389 384V404" stroke="#FF55B1"/>
<path d="M386 384H392" stroke="#FF55B1"/>
<path d="M386 404H392" stroke="#FF55B1"/>
<rect x="363" y="384" width="19" height="20" rx="3.5" fill="#FF55B1"/>
<path d="M370.1 390V398H368.889V391.211H368.842L366.928 392.461V391.305L368.924 390H370.1ZM375.159 398.133C374.542 398.13 374.014 397.967 373.577 397.645C373.139 397.322 372.805 396.852 372.573 396.234C372.341 395.617 372.225 394.874 372.225 394.004C372.225 393.137 372.341 392.396 372.573 391.781C372.807 391.167 373.143 390.698 373.581 390.375C374.021 390.052 374.547 389.891 375.159 389.891C375.771 389.891 376.296 390.053 376.733 390.379C377.171 390.702 377.505 391.171 377.737 391.785C377.972 392.397 378.089 393.137 378.089 394.004C378.089 394.876 377.973 395.621 377.741 396.238C377.509 396.853 377.175 397.323 376.737 397.648C376.3 397.971 375.774 398.133 375.159 398.133ZM375.159 397.09C375.701 397.09 376.124 396.826 376.429 396.297C376.736 395.768 376.889 395.004 376.889 394.004C376.889 393.34 376.819 392.779 376.679 392.32C376.541 391.859 376.341 391.51 376.081 391.273C375.823 391.034 375.516 390.914 375.159 390.914C374.62 390.914 374.197 391.18 373.889 391.711C373.582 392.242 373.427 393.007 373.425 394.004C373.425 394.671 373.494 395.234 373.632 395.695C373.772 396.154 373.972 396.501 374.229 396.738C374.487 396.973 374.797 397.09 375.159 397.09Z" fill="white"/>
<path d="M400 373H450" stroke="#FF55B1"/>
<path d="M400 370V376" stroke="#FF55B1"/>
<path d="M450 370V376" stroke="#FF55B1"/>
<rect x="415" y="346" width="20" height="20" rx="3.5" fill="#FF55B1"/>
<path d="M418.931 360V359.125L421.638 356.32C421.927 356.016 422.165 355.749 422.353 355.52C422.543 355.288 422.685 355.068 422.778 354.859C422.872 354.651 422.919 354.43 422.919 354.195C422.919 353.93 422.857 353.701 422.732 353.508C422.607 353.313 422.436 353.163 422.22 353.059C422.004 352.952 421.76 352.898 421.489 352.898C421.203 352.898 420.953 352.957 420.739 353.074C420.526 353.191 420.362 353.357 420.247 353.57C420.133 353.784 420.075 354.034 420.075 354.32H418.923C418.923 353.833 419.035 353.408 419.259 353.043C419.483 352.678 419.79 352.396 420.181 352.195C420.571 351.992 421.015 351.891 421.513 351.891C422.015 351.891 422.458 351.991 422.841 352.191C423.226 352.389 423.527 352.66 423.743 353.004C423.959 353.345 424.068 353.73 424.068 354.16C424.068 354.457 424.012 354.747 423.9 355.031C423.79 355.315 423.599 355.632 423.325 355.98C423.052 356.327 422.672 356.747 422.185 357.242L420.595 358.906V358.965H424.196V360H418.931ZM428.428 360.109C427.938 360.109 427.498 360.016 427.107 359.828C426.719 359.638 426.409 359.378 426.178 359.047C425.946 358.716 425.822 358.339 425.806 357.914H426.978C427.007 358.258 427.159 358.54 427.435 358.762C427.711 358.983 428.042 359.094 428.428 359.094C428.735 359.094 429.007 359.023 429.244 358.883C429.484 358.74 429.671 358.543 429.806 358.293C429.944 358.043 430.013 357.758 430.013 357.437C430.013 357.112 429.943 356.822 429.803 356.566C429.662 356.311 429.468 356.111 429.221 355.965C428.976 355.819 428.694 355.745 428.377 355.742C428.135 355.742 427.891 355.784 427.646 355.867C427.402 355.951 427.204 356.06 427.053 356.195L425.947 356.031L426.396 352H430.795V353.035H427.4L427.146 355.273H427.193C427.349 355.122 427.556 354.996 427.814 354.895C428.075 354.793 428.353 354.742 428.65 354.742C429.137 354.742 429.571 354.858 429.951 355.09C430.334 355.322 430.635 355.638 430.853 356.039C431.075 356.437 431.184 356.896 431.181 357.414C431.184 357.932 431.067 358.395 430.83 358.801C430.596 359.207 430.27 359.527 429.853 359.762C429.439 359.993 428.964 360.109 428.428 360.109Z" fill="white"/>
<path fill-rule="evenodd" clip-rule="evenodd" d="M448 542H402V544H400V560H402V562H448V560H450V544H448V542ZM448 544V560H402V544H448Z" fill="#212121"/>
<rect x="402" y="544" width="46" height="12" fill="#D11F1F"/>
<path d="M402 544H404V546H406V556H444V546H446V544H448V560H402V544Z" fill="#AB0000"/>
<path d="M389 542V562" stroke="#FF55B1"/>
<path d="M386 542H392" stroke="#FF55B1"/>
<path d="M386 562H392" stroke="#FF55B1"/>
<rect x="363" y="542" width="19" height="20" rx="3.5" fill="#FF55B1"/>
<path d="M370.1 548V556H368.889V549.211H368.842L366.928 550.461V549.305L368.924 548H370.1ZM375.159 556.133C374.542 556.13 374.014 555.967 373.577 555.645C373.139 555.322 372.805 554.852 372.573 554.234C372.341 553.617 372.225 552.874 372.225 552.004C372.225 551.137 372.341 550.396 372.573 549.781C372.807 549.167 373.143 548.698 373.581 548.375C374.021 548.052 374.547 547.891 375.159 547.891C375.771 547.891 376.296 548.053 376.733 548.379C377.171 548.702 377.505 549.171 377.737 549.785C377.972 550.397 378.089 551.137 378.089 552.004C378.089 552.876 377.973 553.621 377.741 554.238C377.509 554.853 377.175 555.323 376.737 555.648C376.3 555.971 375.774 556.133 375.159 556.133ZM375.159 555.09C375.701 555.09 376.124 554.826 376.429 554.297C376.736 553.768 376.889 553.004 376.889 552.004C376.889 551.34 376.819 550.779 376.679 550.32C376.541 549.859 376.341 549.51 376.081 549.273C375.823 549.034 375.516 548.914 375.159 548.914C374.62 548.914 374.197 549.18 373.889 549.711C373.582 550.242 373.427 551.007 373.425 552.004C373.425 552.671 373.494 553.234 373.632 553.695C373.772 554.154 373.972 554.501 374.229 554.738C374.487 554.973 374.797 555.09 375.159 555.09Z" fill="white"/>
<path d="M400 531H450" stroke="#FF55B1"/>
<path d="M400 528V534" stroke="#FF55B1"/>
<path d="M450 528V534" stroke="#FF55B1"/>
<rect x="415" y="504" width="20" height="20" rx="3.5" fill="#FF55B1"/>
<path d="M418.931 518V517.125L421.638 514.32C421.927 514.016 422.165 513.749 422.353 513.52C422.543 513.288 422.685 513.068 422.778 512.859C422.872 512.651 422.919 512.43 422.919 512.195C422.919 511.93 422.857 511.701 422.732 511.508C422.607 511.313 422.436 511.163 422.22 511.059C422.004 510.952 421.76 510.898 421.489 510.898C421.203 510.898 420.953 510.957 420.739 511.074C420.526 511.191 420.362 511.357 420.247 511.57C420.133 511.784 420.075 512.034 420.075 512.32H418.923C418.923 511.833 419.035 511.408 419.259 511.043C419.483 510.678 419.79 510.396 420.181 510.195C420.571 509.992 421.015 509.891 421.513 509.891C422.015 509.891 422.458 509.991 422.841 510.191C423.226 510.389 423.527 510.66 423.743 511.004C423.959 511.345 424.068 511.73 424.068 512.16C424.068 512.457 424.012 512.747 423.9 513.031C423.79 513.315 423.599 513.632 423.325 513.98C423.052 514.327 422.672 514.747 422.185 515.242L420.595 516.906V516.965H424.196V518H418.931ZM428.428 518.109C427.938 518.109 427.498 518.016 427.107 517.828C426.719 517.638 426.409 517.378 426.178 517.047C425.946 516.716 425.822 516.339 425.806 515.914H426.978C427.007 516.258 427.159 516.54 427.435 516.762C427.711 516.983 428.042 517.094 428.428 517.094C428.735 517.094 429.007 517.023 429.244 516.883C429.484 516.74 429.671 516.543 429.806 516.293C429.944 516.043 430.013 515.758 430.013 515.437C430.013 515.112 429.943 514.822 429.803 514.566C429.662 514.311 429.468 514.111 429.221 513.965C428.976 513.819 428.694 513.745 428.377 513.742C428.135 513.742 427.891 513.784 427.646 513.867C427.402 513.951 427.204 514.06 427.053 514.195L425.947 514.031L426.396 510H430.795V511.035H427.4L427.146 513.273H427.193C427.349 513.122 427.556 512.996 427.814 512.895C428.075 512.793 428.353 512.742 428.65 512.742C429.137 512.742 429.571 512.858 429.951 513.09C430.334 513.322 430.635 513.638 430.853 514.039C431.075 514.437 431.184 514.896 431.181 515.414C431.184 515.932 431.067 516.395 430.83 516.801C430.596 517.207 430.27 517.527 429.853 517.762C429.439 517.993 428.964 518.109 428.428 518.109Z" fill="white"/>
<path d="M114.936 95.388C114.376 94.476 113.94 93.524 113.628 92.532C113.316 91.532 113.16 90.436 113.16 89.244C113.16 88.06 113.316 86.968 113.628 85.968C113.94 84.968 114.376 84.012 114.936 83.1L115.8 83.484C115.288 84.348 114.908 85.276 114.66 86.268C114.42 87.252 114.3 88.244 114.3 89.244C114.3 90.252 114.42 91.248 114.66 92.232C114.908 93.216 115.288 94.14 115.8 95.004L114.936 95.388ZM119.801 93.168C119.225 93.168 118.721 92.996 118.289 92.652C117.857 92.308 117.521 91.796 117.281 91.116C117.049 90.428 116.933 89.572 116.933 88.548C116.933 87.524 117.049 86.676 117.281 86.004C117.521 85.332 117.857 84.832 118.289 84.504C118.721 84.168 119.225 84 119.801 84C120.377 84 120.877 84.168 121.301 84.504C121.725 84.84 122.053 85.344 122.285 86.016C122.525 86.68 122.645 87.524 122.645 88.548C122.645 89.572 122.525 90.428 122.285 91.116C122.053 91.796 121.725 92.308 121.301 92.652C120.877 92.996 120.377 93.168 119.801 93.168ZM119.801 92.064C120.097 92.064 120.361 91.948 120.593 91.716C120.825 91.484 121.005 91.112 121.133 90.6C121.261 90.08 121.325 89.396 121.325 88.548C121.325 87.7 121.261 87.024 121.133 86.52C121.005 86.016 120.825 85.652 120.593 85.428C120.361 85.204 120.097 85.092 119.801 85.092C119.505 85.092 119.241 85.204 119.009 85.428C118.777 85.652 118.593 86.016 118.457 86.52C118.329 87.024 118.265 87.7 118.265 88.548C118.265 89.396 118.329 90.08 118.457 90.6C118.593 91.112 118.777 91.484 119.009 91.716C119.241 91.948 119.505 92.064 119.801 92.064ZM124.161 95.4L123.849 94.62C124.265 94.444 124.589 94.208 124.821 93.912C125.053 93.624 125.165 93.3 125.157 92.94L125.061 91.836L125.637 92.748C125.557 92.836 125.465 92.9 125.361 92.94C125.257 92.972 125.145 92.988 125.025 92.988C124.785 92.988 124.569 92.912 124.377 92.76C124.193 92.6 124.101 92.38 124.101 92.1C124.101 91.828 124.193 91.612 124.377 91.452C124.569 91.292 124.797 91.212 125.061 91.212C125.405 91.212 125.669 91.344 125.853 91.608C126.037 91.872 126.129 92.236 126.129 92.7C126.129 93.332 125.953 93.88 125.601 94.344C125.257 94.816 124.777 95.168 124.161 95.4ZM130.219 93.168C129.643 93.168 129.139 92.996 128.707 92.652C128.275 92.308 127.939 91.796 127.699 91.116C127.467 90.428 127.351 89.572 127.351 88.548C127.351 87.524 127.467 86.676 127.699 86.004C127.939 85.332 128.275 84.832 128.707 84.504C129.139 84.168 129.643 84 130.219 84C130.795 84 131.295 84.168 131.719 84.504C132.143 84.84 132.471 85.344 132.703 86.016C132.943 86.68 133.063 87.524 133.063 88.548C133.063 89.572 132.943 90.428 132.703 91.116C132.471 91.796 132.143 92.308 131.719 92.652C131.295 92.996 130.795 93.168 130.219 93.168ZM130.219 92.064C130.515 92.064 130.779 91.948 131.011 91.716C131.243 91.484 131.423 91.112 131.551 90.6C131.679 90.08 131.743 89.396 131.743 88.548C131.743 87.7 131.679 87.024 131.551 86.52C131.423 86.016 131.243 85.652 131.011 85.428C130.779 85.204 130.515 85.092 130.219 85.092C129.923 85.092 129.659 85.204 129.427 85.428C129.195 85.652 129.011 86.016 128.875 86.52C128.747 87.024 128.683 87.7 128.683 88.548C128.683 89.396 128.747 90.08 128.875 90.6C129.011 91.112 129.195 91.484 129.427 91.716C129.659 91.948 129.923 92.064 130.219 92.064ZM135.047 95.388L134.183 95.004C134.695 94.14 135.075 93.216 135.323 92.232C135.571 91.248 135.695 90.252 135.695 89.244C135.695 88.244 135.571 87.252 135.323 86.268C135.075 85.276 134.695 84.348 134.183 83.484L135.047 83.1C135.615 84.012 136.055 84.968 136.367 85.968C136.679 86.968 136.835 88.06 136.835 89.244C136.835 90.436 136.679 91.532 136.367 92.532C136.055 93.524 135.615 94.476 135.047 95.388Z" fill="#FF55B1"/>
<path d="M140.17 475.388C139.61 474.476 139.174 473.524 138.862 472.532C138.55 471.532 138.394 470.436 138.394 469.244C138.394 468.06 138.55 466.968 138.862 465.968C139.174 464.968 139.61 464.012 140.17 463.1L141.034 463.484C140.522 464.348 140.142 465.276 139.894 466.268C139.654 467.252 139.534 468.244 139.534 469.244C139.534 470.252 139.654 471.248 139.894 472.232C140.142 473.216 140.522 474.14 141.034 475.004L140.17 475.388ZM143.92 473C143.96 472.192 144.028 471.452 144.124 470.78C144.22 470.1 144.36 469.46 144.544 468.86C144.728 468.252 144.968 467.664 145.264 467.096C145.56 466.52 145.92 465.932 146.344 465.332H142.204V464.156H147.88V465.008C147.368 465.648 146.952 466.268 146.632 466.868C146.312 467.46 146.064 468.064 145.888 468.68C145.712 469.296 145.584 469.956 145.504 470.66C145.424 471.356 145.368 472.136 145.336 473H143.92ZM151.663 473.168C151.207 473.168 150.799 473.112 150.439 473C150.079 472.888 149.763 472.74 149.491 472.556C149.219 472.372 148.979 472.18 148.771 471.98L149.431 471.08C149.599 471.248 149.783 471.404 149.983 471.548C150.183 471.684 150.407 471.796 150.655 471.884C150.911 471.972 151.195 472.016 151.507 472.016C151.835 472.016 152.131 471.944 152.395 471.8C152.659 471.648 152.867 471.432 153.019 471.152C153.171 470.864 153.247 470.524 153.247 470.132C153.247 469.556 153.091 469.108 152.779 468.788C152.475 468.468 152.071 468.308 151.567 468.308C151.287 468.308 151.047 468.348 150.847 468.428C150.647 468.508 150.419 468.632 150.163 468.8L149.479 468.356L149.743 464.156H154.219V465.332H150.943L150.739 467.588C150.931 467.492 151.123 467.42 151.315 467.372C151.507 467.316 151.719 467.288 151.951 467.288C152.447 467.288 152.899 467.388 153.307 467.588C153.715 467.788 154.039 468.096 154.279 468.512C154.519 468.92 154.639 469.448 154.639 470.096C154.639 470.744 154.499 471.3 154.219 471.764C153.939 472.22 153.571 472.568 153.115 472.808C152.667 473.048 152.183 473.168 151.663 473.168ZM156.239 475.4L155.927 474.62C156.343 474.444 156.667 474.208 156.899 473.912C157.131 473.624 157.243 473.3 157.235 472.94L157.139 471.836L157.715 472.748C157.635 472.836 157.543 472.9 157.439 472.94C157.335 472.972 157.223 472.988 157.103 472.988C156.863 472.988 156.647 472.912 156.455 472.76C156.271 472.6 156.179 472.38 156.179 472.1C156.179 471.828 156.271 471.612 156.455 471.452C156.647 471.292 156.875 471.212 157.139 471.212C157.483 471.212 157.747 471.344 157.931 471.608C158.115 471.872 158.207 472.236 158.207 472.7C158.207 473.332 158.031 473.88 157.679 474.344C157.335 474.816 156.855 475.168 156.239 475.4ZM162.933 473V467.24C162.933 467 162.941 466.716 162.957 466.388C162.973 466.052 162.985 465.764 162.993 465.524H162.945C162.833 465.748 162.717 465.976 162.597 466.208C162.485 466.44 162.365 466.668 162.237 466.892L160.509 469.544H165.345V470.624H159.105V469.7L162.621 464.156H164.229V473H162.933ZM169.141 473.168C168.565 473.168 168.061 472.996 167.629 472.652C167.197 472.308 166.861 471.796 166.621 471.116C166.389 470.428 166.273 469.572 166.273 468.548C166.273 467.524 166.389 466.676 166.621 466.004C166.861 465.332 167.197 464.832 167.629 464.504C168.061 464.168 168.565 464 169.141 464C169.717 464 170.217 464.168 170.641 464.504C171.065 464.84 171.393 465.344 171.625 466.016C171.865 466.68 171.985 467.524 171.985 468.548C171.985 469.572 171.865 470.428 171.625 471.116C171.393 471.796 171.065 472.308 170.641 472.652C170.217 472.996 169.717 473.168 169.141 473.168ZM169.141 472.064C169.437 472.064 169.701 471.948 169.933 471.716C170.165 471.484 170.345 471.112 170.473 470.6C170.601 470.08 170.665 469.396 170.665 468.548C170.665 467.7 170.601 467.024 170.473 466.52C170.345 466.016 170.165 465.652 169.933 465.428C169.701 465.204 169.437 465.092 169.141 465.092C168.845 465.092 168.581 465.204 168.349 465.428C168.117 465.652 167.933 466.016 167.797 466.52C167.669 467.024 167.605 467.7 167.605 468.548C167.605 469.396 167.669 470.08 167.797 470.6C167.933 471.112 168.117 471.484 168.349 471.716C168.581 471.948 168.845 472.064 169.141 472.064ZM175.985 473.168C175.409 473.168 174.905 472.996 174.473 472.652C174.041 472.308 173.705 471.796 173.465 471.116C173.233 470.428 173.117 469.572 173.117 468.548C173.117 467.524 173.233 466.676 173.465 466.004C173.705 465.332 174.041 464.832 174.473 464.504C174.905 464.168 175.409 464 175.985 464C176.561 464 177.061 464.168 177.485 464.504C177.909 464.84 178.237 465.344 178.469 466.016C178.709 466.68 178.829 467.524 178.829 468.548C178.829 469.572 178.709 470.428 178.469 471.116C178.237 471.796 177.909 472.308 177.485 472.652C177.061 472.996 176.561 473.168 175.985 473.168ZM175.985 472.064C176.281 472.064 176.545 471.948 176.777 471.716C177.009 471.484 177.189 471.112 177.317 470.6C177.445 470.08 177.509 469.396 177.509 468.548C177.509 467.7 177.445 467.024 177.317 466.52C177.189 466.016 177.009 465.652 176.777 465.428C176.545 465.204 176.281 465.092 175.985 465.092C175.689 465.092 175.425 465.204 175.193 465.428C174.961 465.652 174.777 466.016 174.641 466.52C174.513 467.024 174.449 467.7 174.449 468.548C174.449 469.396 174.513 470.08 174.641 470.6C174.777 471.112 174.961 471.484 175.193 471.716C175.425 471.948 175.689 472.064 175.985 472.064ZM180.812 475.388L179.948 475.004C180.46 474.14 180.84 473.216 181.088 472.232C181.336 471.248 181.46 470.252 181.46 469.244C181.46 468.244 181.336 467.252 181.088 466.268C180.84 465.276 180.46 464.348 179.948 463.484L180.812 463.1C181.38 464.012 181.82 464.968 182.132 465.968C182.444 466.968 182.6 468.06 182.6 469.244C182.6 470.436 182.444 471.532 182.132 472.532C181.82 473.524 181.38 474.476 180.812 475.388Z" fill="#FF55B1"/>
<path d="M206.17 470.388C205.61 469.476 205.174 468.524 204.862 467.532C204.55 466.532 204.394 465.436 204.394 464.244C204.394 463.06 204.55 461.968 204.862 460.968C205.174 459.968 205.61 459.012 206.17 458.1L207.034 458.484C206.522 459.348 206.142 460.276 205.894 461.268C205.654 462.252 205.534 463.244 205.534 464.244C205.534 465.252 205.654 466.248 205.894 467.232C206.142 468.216 206.522 469.14 207.034 470.004L206.17 470.388ZM210.532 468.168C210.02 468.168 209.576 468.076 209.2 467.892C208.832 467.7 208.52 467.476 208.264 467.22L209.02 466.356C209.196 466.556 209.412 466.716 209.668 466.836C209.924 466.956 210.188 467.016 210.46 467.016C210.74 467.016 211.004 466.952 211.252 466.824C211.508 466.696 211.728 466.488 211.912 466.2C212.104 465.912 212.252 465.528 212.356 465.048C212.468 464.568 212.524 463.98 212.524 463.284C212.524 462.548 212.452 461.944 212.308 461.472C212.164 460.992 211.96 460.64 211.696 460.416C211.44 460.184 211.132 460.068 210.772 460.068C210.516 460.068 210.284 460.144 210.076 460.296C209.868 460.44 209.704 460.648 209.584 460.92C209.464 461.192 209.404 461.52 209.404 461.904C209.404 462.28 209.456 462.6 209.56 462.864C209.672 463.128 209.836 463.332 210.052 463.476C210.268 463.612 210.528 463.68 210.832 463.68C211.112 463.68 211.4 463.592 211.696 463.416C211.992 463.24 212.272 462.952 212.536 462.552L212.596 463.572C212.428 463.796 212.232 463.992 212.008 464.16C211.784 464.328 211.552 464.46 211.312 464.556C211.072 464.644 210.832 464.688 210.592 464.688C210.104 464.688 209.672 464.584 209.296 464.376C208.928 464.168 208.636 463.86 208.42 463.452C208.212 463.036 208.108 462.52 208.108 461.904C208.108 461.32 208.228 460.812 208.468 460.38C208.716 459.94 209.04 459.6 209.44 459.36C209.84 459.12 210.276 459 210.748 459C211.172 459 211.568 459.088 211.936 459.264C212.312 459.432 212.636 459.692 212.908 460.044C213.188 460.396 213.408 460.84 213.568 461.376C213.728 461.912 213.808 462.548 213.808 463.284C213.808 464.148 213.72 464.892 213.544 465.516C213.368 466.132 213.124 466.636 212.812 467.028C212.5 467.412 212.148 467.7 211.756 467.892C211.364 468.076 210.956 468.168 210.532 468.168ZM217.663 468.168C217.199 468.168 216.787 468.112 216.427 468C216.075 467.888 215.763 467.74 215.491 467.556C215.219 467.364 214.983 467.16 214.783 466.944L215.455 466.056C215.719 466.312 216.019 466.536 216.355 466.728C216.691 466.92 217.087 467.016 217.543 467.016C217.879 467.016 218.171 466.96 218.419 466.848C218.667 466.728 218.859 466.56 218.995 466.344C219.139 466.128 219.211 465.864 219.211 465.552C219.211 465.232 219.131 464.952 218.971 464.712C218.819 464.464 218.551 464.276 218.167 464.148C217.791 464.012 217.271 463.944 216.607 463.944V462.912C217.191 462.912 217.647 462.848 217.975 462.72C218.311 462.584 218.551 462.4 218.695 462.168C218.847 461.936 218.923 461.672 218.923 461.376C218.923 460.992 218.803 460.688 218.563 460.464C218.323 460.232 217.991 460.116 217.567 460.116C217.231 460.116 216.915 460.192 216.619 460.344C216.331 460.488 216.059 460.684 215.803 460.932L215.083 460.068C215.435 459.748 215.819 459.492 216.235 459.3C216.651 459.1 217.111 459 217.615 459C218.143 459 218.611 459.092 219.019 459.276C219.427 459.452 219.747 459.708 219.979 460.044C220.211 460.38 220.327 460.792 220.327 461.28C220.327 461.784 220.187 462.212 219.907 462.564C219.635 462.916 219.267 463.18 218.803 463.356V463.404C219.139 463.492 219.443 463.636 219.715 463.836C219.995 464.028 220.215 464.276 220.375 464.58C220.535 464.884 220.615 465.232 220.615 465.624C220.615 466.152 220.479 466.608 220.207 466.992C219.943 467.368 219.587 467.66 219.139 467.868C218.691 468.068 218.199 468.168 217.663 468.168ZM222.239 470.4L221.927 469.62C222.343 469.444 222.667 469.208 222.899 468.912C223.131 468.624 223.243 468.3 223.235 467.94L223.139 466.836L223.715 467.748C223.635 467.836 223.543 467.9 223.439 467.94C223.335 467.972 223.223 467.988 223.103 467.988C222.863 467.988 222.647 467.912 222.455 467.76C222.271 467.6 222.179 467.38 222.179 467.1C222.179 466.828 222.271 466.612 222.455 466.452C222.647 466.292 222.875 466.212 223.139 466.212C223.483 466.212 223.747 466.344 223.931 466.608C224.115 466.872 224.207 467.236 224.207 467.7C224.207 468.332 224.031 468.88 223.679 469.344C223.335 469.816 222.855 470.168 222.239 470.4ZM228.081 468.168C227.617 468.168 227.205 468.112 226.845 468C226.493 467.888 226.181 467.74 225.909 467.556C225.637 467.364 225.401 467.16 225.201 466.944L225.873 466.056C226.137 466.312 226.437 466.536 226.773 466.728C227.109 466.92 227.505 467.016 227.961 467.016C228.297 467.016 228.589 466.96 228.837 466.848C229.085 466.728 229.277 466.56 229.413 466.344C229.557 466.128 229.629 465.864 229.629 465.552C229.629 465.232 229.549 464.952 229.389 464.712C229.237 464.464 228.969 464.276 228.585 464.148C228.209 464.012 227.689 463.944 227.025 463.944V462.912C227.609 462.912 228.065 462.848 228.393 462.72C228.729 462.584 228.969 462.4 229.113 462.168C229.265 461.936 229.341 461.672 229.341 461.376C229.341 460.992 229.221 460.688 228.981 460.464C228.741 460.232 228.409 460.116 227.985 460.116C227.649 460.116 227.333 460.192 227.037 460.344C226.749 460.488 226.477 460.684 226.221 460.932L225.501 460.068C225.853 459.748 226.237 459.492 226.653 459.3C227.069 459.1 227.529 459 228.033 459C228.561 459 229.029 459.092 229.437 459.276C229.845 459.452 230.165 459.708 230.397 460.044C230.629 460.38 230.745 460.792 230.745 461.28C230.745 461.784 230.605 462.212 230.325 462.564C230.053 462.916 229.685 463.18 229.221 463.356V463.404C229.557 463.492 229.861 463.636 230.133 463.836C230.413 464.028 230.633 464.276 230.793 464.58C230.953 464.884 231.033 465.232 231.033 465.624C231.033 466.152 230.897 466.608 230.625 466.992C230.361 467.368 230.005 467.66 229.557 467.868C229.109 468.068 228.617 468.168 228.081 468.168ZM234.637 468.168C234.125 468.168 233.681 468.076 233.305 467.892C232.937 467.7 232.625 467.476 232.369 467.22L233.125 466.356C233.301 466.556 233.517 466.716 233.773 466.836C234.029 466.956 234.293 467.016 234.565 467.016C234.845 467.016 235.109 466.952 235.357 466.824C235.613 466.696 235.833 466.488 236.017 466.2C236.209 465.912 236.357 465.528 236.461 465.048C236.573 464.568 236.629 463.98 236.629 463.284C236.629 462.548 236.557 461.944 236.413 461.472C236.269 460.992 236.065 460.64 235.801 460.416C235.545 460.184 235.237 460.068 234.877 460.068C234.621 460.068 234.389 460.144 234.181 460.296C233.973 460.44 233.809 460.648 233.689 460.92C233.569 461.192 233.509 461.52 233.509 461.904C233.509 462.28 233.561 462.6 233.665 462.864C233.777 463.128 233.941 463.332 234.157 463.476C234.373 463.612 234.633 463.68 234.937 463.68C235.217 463.68 235.505 463.592 235.801 463.416C236.097 463.24 236.377 462.952 236.641 462.552L236.701 463.572C236.533 463.796 236.337 463.992 236.113 464.16C235.889 464.328 235.657 464.46 235.417 464.556C235.177 464.644 234.937 464.688 234.697 464.688C234.209 464.688 233.777 464.584 233.401 464.376C233.033 464.168 232.741 463.86 232.525 463.452C232.317 463.036 232.213 462.52 232.213 461.904C232.213 461.32 232.333 460.812 232.573 460.38C232.821 459.94 233.145 459.6 233.545 459.36C233.945 459.12 234.381 459 234.853 459C235.277 459 235.673 459.088 236.041 459.264C236.417 459.432 236.741 459.692 237.013 460.044C237.293 460.396 237.513 460.84 237.673 461.376C237.833 461.912 237.913 462.548 237.913 463.284C237.913 464.148 237.825 464.892 237.649 465.516C237.473 466.132 237.229 466.636 236.917 467.028C236.605 467.412 236.253 467.7 235.861 467.892C235.469 468.076 235.061 468.168 234.637 468.168ZM241.769 468.168C241.313 468.168 240.905 468.112 240.545 468C240.185 467.888 239.869 467.74 239.597 467.556C239.325 467.372 239.085 467.18 238.877 466.98L239.537 466.08C239.705 466.248 239.889 466.404 240.089 466.548C240.289 466.684 240.513 466.796 240.761 466.884C241.017 466.972 241.301 467.016 241.613 467.016C241.941 467.016 242.237 466.944 242.501 466.8C242.765 466.648 242.973 466.432 243.125 466.152C243.277 465.864 243.353 465.524 243.353 465.132C243.353 464.556 243.197 464.108 242.885 463.788C242.581 463.468 242.177 463.308 241.673 463.308C241.393 463.308 241.153 463.348 240.953 463.428C240.753 463.508 240.525 463.632 240.269 463.8L239.585 463.356L239.849 459.156H244.325V460.332H241.049L240.845 462.588C241.037 462.492 241.229 462.42 241.421 462.372C241.613 462.316 241.825 462.288 242.057 462.288C242.553 462.288 243.005 462.388 243.413 462.588C243.821 462.788 244.145 463.096 244.385 463.512C244.625 463.92 244.745 464.448 244.745 465.096C244.745 465.744 244.605 466.3 244.325 466.764C244.045 467.22 243.677 467.568 243.221 467.808C242.773 468.048 242.289 468.168 241.769 468.168ZM246.812 470.388L245.948 470.004C246.46 469.14 246.84 468.216 247.088 467.232C247.336 466.248 247.46 465.252 247.46 464.244C247.46 463.244 247.336 462.252 247.088 461.268C246.84 460.276 246.46 459.348 245.948 458.484L246.812 458.1C247.38 459.012 247.82 459.968 248.132 460.968C248.444 461.968 248.6 463.06 248.6 464.244C248.6 465.436 248.444 466.532 248.132 467.532C247.82 468.524 247.38 469.476 246.812 470.388Z" fill="#FF55B1"/>
<path fill-rule="evenodd" clip-rule="evenodd" d="M184.5 476H183.5V477.5H182V478.5H183.5V480H184.5V478.5H186V477.5H184.5V476Z" fill="#FF55B1"/>
<path fill-rule="evenodd" clip-rule="evenodd" d="M109.5 76H108.5V77.5H107V78.5H108.5V80H109.5V78.5H111V77.5H109.5V76Z" fill="#FF55B1"/>
<path fill-rule="evenodd" clip-rule="evenodd" d="M203.5 471H202.5V472.5H201V473.5H202.5V475H203.5V473.5H205V472.5H203.5V471Z" fill="#FF55B1"/>
</svg>
