<svg width="527" height="606" viewBox="0 0 527 606" fill="none" xmlns="http://www.w3.org/2000/svg">
<rect width="527" height="606" fill="#F5F5F5"/>
<rect x="95" y="80" width="30" height="20" rx="10" fill="#212121"/>
<path d="M106.588 95.168C106.012 95.168 105.508 94.996 105.076 94.652C104.644 94.308 104.308 93.796 104.068 93.116C103.836 92.428 103.72 91.572 103.72 90.548C103.72 89.524 103.836 88.676 104.068 88.004C104.308 87.332 104.644 86.832 105.076 86.504C105.508 86.168 106.012 86 106.588 86C107.164 86 107.664 86.168 108.088 86.504C108.512 86.84 108.84 87.344 109.072 88.016C109.312 88.68 109.432 89.524 109.432 90.548C109.432 91.572 109.312 92.428 109.072 93.116C108.84 93.796 108.512 94.308 108.088 94.652C107.664 94.996 107.164 95.168 106.588 95.168ZM106.588 94.064C106.884 94.064 107.148 93.948 107.38 93.716C107.612 93.484 107.792 93.112 107.92 92.6C108.048 92.08 108.112 91.396 108.112 90.548C108.112 89.7 108.048 89.024 107.92 88.52C107.792 88.016 107.612 87.652 107.38 87.428C107.148 87.204 106.884 87.092 106.588 87.092C106.292 87.092 106.028 87.204 105.796 87.428C105.564 87.652 105.38 88.016 105.244 88.52C105.116 89.024 105.052 89.7 105.052 90.548C105.052 91.396 105.116 92.08 105.244 92.6C105.38 93.112 105.564 93.484 105.796 93.716C106.028 93.948 106.292 94.064 106.588 94.064ZM111.02 95V93.86H112.964V87.716H111.38V86.84C111.796 86.768 112.156 86.676 112.46 86.564C112.772 86.452 113.056 86.316 113.312 86.156H114.356V93.86H116.072V95H111.02Z" fill="white"/>
<path d="M235.588 97.388C235.028 96.476 234.592 95.524 234.28 94.532C233.968 93.532 233.812 92.436 233.812 91.244C233.812 90.06 233.968 88.968 234.28 87.968C234.592 86.968 235.028 86.012 235.588 85.1L236.452 85.484C235.94 86.348 235.56 87.276 235.312 88.268C235.072 89.252 234.952 90.244 234.952 91.244C234.952 92.252 235.072 93.248 235.312 94.232C235.56 95.216 235.94 96.14 236.452 97.004L235.588 97.388ZM247.341 89.48H243.525V92.672H242.517V89.48H238.701V88.484H242.517V85.304H243.525V88.484H247.341V89.48ZM247.401 93.836V94.832H238.701V93.836H247.401ZM251.337 95C251.377 94.192 251.445 93.452 251.541 92.78C251.637 92.1 251.777 91.46 251.961 90.86C252.145 90.252 252.385 89.664 252.681 89.096C252.977 88.52 253.337 87.932 253.761 87.332H249.621V86.156H255.297V87.008C254.785 87.648 254.369 88.268 254.049 88.868C253.729 89.46 253.481 90.064 253.305 90.68C253.129 91.296 253.001 91.956 252.921 92.66C252.841 93.356 252.785 94.136 252.753 95H251.337ZM256.813 97.4L256.501 96.62C256.917 96.444 257.241 96.208 257.473 95.912C257.705 95.624 257.817 95.3 257.809 94.94L257.713 93.836L258.289 94.748C258.209 94.836 258.117 94.9 258.013 94.94C257.909 94.972 257.797 94.988 257.677 94.988C257.437 94.988 257.221 94.912 257.029 94.76C256.845 94.6 256.753 94.38 256.753 94.1C256.753 93.828 256.845 93.612 257.029 93.452C257.221 93.292 257.449 93.212 257.713 93.212C258.057 93.212 258.321 93.344 258.505 93.608C258.689 93.872 258.781 94.236 258.781 94.7C258.781 95.332 258.605 95.88 258.253 96.344C257.909 96.816 257.429 97.168 256.813 97.4ZM272.455 89.48H268.639V92.672H267.631V89.48H263.815V88.484H267.631V85.304H268.639V88.484H272.455V89.48ZM272.515 93.836V94.832H263.815V93.836H272.515ZM276.451 95C276.491 94.192 276.559 93.452 276.655 92.78C276.751 92.1 276.891 91.46 277.075 90.86C277.259 90.252 277.499 89.664 277.795 89.096C278.091 88.52 278.451 87.932 278.875 87.332H274.735V86.156H280.411V87.008C279.899 87.648 279.483 88.268 279.163 88.868C278.843 89.46 278.595 90.064 278.419 90.68C278.243 91.296 278.115 91.956 278.035 92.66C277.955 93.356 277.899 94.136 277.867 95H276.451ZM282.395 97.388L281.531 97.004C282.043 96.14 282.423 95.216 282.671 94.232C282.919 93.248 283.043 92.252 283.043 91.244C283.043 90.244 282.919 89.252 282.671 88.268C282.423 87.276 282.043 86.348 281.531 85.484L282.395 85.1C282.963 86.012 283.403 86.968 283.715 87.968C284.027 88.968 284.183 90.06 284.183 91.244C284.183 92.436 284.027 93.532 283.715 94.532C283.403 95.524 282.963 96.476 282.395 97.388Z" fill="#A35BFF"/>
<path d="M346.744 97.388C346.184 96.476 345.748 95.524 345.436 94.532C345.124 93.532 344.968 92.436 344.968 91.244C344.968 90.06 345.124 88.968 345.436 87.968C345.748 86.968 346.184 86.012 346.744 85.1L347.608 85.484C347.096 86.348 346.716 87.276 346.468 88.268C346.228 89.252 346.108 90.244 346.108 91.244C346.108 92.252 346.228 93.248 346.468 94.232C346.716 95.216 347.096 96.14 347.608 97.004L346.744 97.388ZM358.498 89.48H354.682V92.672H353.674V89.48H349.858V88.484H353.674V85.304H354.682V88.484H358.498V89.48ZM358.558 93.836V94.832H349.858V93.836H358.558ZM361.198 95V93.86H363.142V87.716H361.558V86.84C361.974 86.768 362.334 86.676 362.638 86.564C362.95 86.452 363.234 86.316 363.49 86.156H364.534V93.86H366.25V95H361.198ZM370.453 95.168C369.877 95.168 369.373 94.996 368.941 94.652C368.509 94.308 368.173 93.796 367.933 93.116C367.701 92.428 367.585 91.572 367.585 90.548C367.585 89.524 367.701 88.676 367.933 88.004C368.173 87.332 368.509 86.832 368.941 86.504C369.373 86.168 369.877 86 370.453 86C371.029 86 371.529 86.168 371.953 86.504C372.377 86.84 372.705 87.344 372.937 88.016C373.177 88.68 373.297 89.524 373.297 90.548C373.297 91.572 373.177 92.428 372.937 93.116C372.705 93.796 372.377 94.308 371.953 94.652C371.529 94.996 371.029 95.168 370.453 95.168ZM370.453 94.064C370.749 94.064 371.013 93.948 371.245 93.716C371.477 93.484 371.657 93.112 371.785 92.6C371.913 92.08 371.977 91.396 371.977 90.548C371.977 89.7 371.913 89.024 371.785 88.52C371.657 88.016 371.477 87.652 371.245 87.428C371.013 87.204 370.749 87.092 370.453 87.092C370.157 87.092 369.893 87.204 369.661 87.428C369.429 87.652 369.245 88.016 369.109 88.52C368.981 89.024 368.917 89.7 368.917 90.548C368.917 91.396 368.981 92.08 369.109 92.6C369.245 93.112 369.429 93.484 369.661 93.716C369.893 93.948 370.157 94.064 370.453 94.064ZM374.813 97.4L374.501 96.62C374.917 96.444 375.241 96.208 375.473 95.912C375.705 95.624 375.817 95.3 375.809 94.94L375.713 93.836L376.289 94.748C376.209 94.836 376.117 94.9 376.013 94.94C375.909 94.972 375.797 94.988 375.677 94.988C375.437 94.988 375.221 94.912 375.029 94.76C374.845 94.6 374.753 94.38 374.753 94.1C374.753 93.828 374.845 93.612 375.029 93.452C375.221 93.292 375.449 93.212 375.713 93.212C376.057 93.212 376.321 93.344 376.505 93.608C376.689 93.872 376.781 94.236 376.781 94.7C376.781 95.332 376.605 95.88 376.253 96.344C375.909 96.816 375.429 97.168 374.813 97.4ZM390.455 89.48H386.639V92.672H385.631V89.48H381.815V88.484H385.631V85.304H386.639V88.484H390.455V89.48ZM390.515 93.836V94.832H381.815V93.836H390.515ZM393.155 95V93.86H395.099V87.716H393.515V86.84C393.931 86.768 394.291 86.676 394.595 86.564C394.907 86.452 395.191 86.316 395.447 86.156H396.491V93.86H398.207V95H393.155ZM402.411 95.168C401.835 95.168 401.331 94.996 400.899 94.652C400.467 94.308 400.131 93.796 399.891 93.116C399.659 92.428 399.543 91.572 399.543 90.548C399.543 89.524 399.659 88.676 399.891 88.004C400.131 87.332 400.467 86.832 400.899 86.504C401.331 86.168 401.835 86 402.411 86C402.987 86 403.487 86.168 403.911 86.504C404.335 86.84 404.663 87.344 404.895 88.016C405.135 88.68 405.255 89.524 405.255 90.548C405.255 91.572 405.135 92.428 404.895 93.116C404.663 93.796 404.335 94.308 403.911 94.652C403.487 94.996 402.987 95.168 402.411 95.168ZM402.411 94.064C402.707 94.064 402.971 93.948 403.203 93.716C403.435 93.484 403.615 93.112 403.743 92.6C403.871 92.08 403.935 91.396 403.935 90.548C403.935 89.7 403.871 89.024 403.743 88.52C403.615 88.016 403.435 87.652 403.203 87.428C402.971 87.204 402.707 87.092 402.411 87.092C402.115 87.092 401.851 87.204 401.619 87.428C401.387 87.652 401.203 88.016 401.067 88.52C400.939 89.024 400.875 89.7 400.875 90.548C400.875 91.396 400.939 92.08 401.067 92.6C401.203 93.112 401.387 93.484 401.619 93.716C401.851 93.948 402.115 94.064 402.411 94.064ZM407.238 97.388L406.374 97.004C406.886 96.14 407.266 95.216 407.514 94.232C407.762 93.248 407.886 92.252 407.886 91.244C407.886 90.244 407.762 89.252 407.514 88.268C407.266 87.276 406.886 86.348 406.374 85.484L407.238 85.1C407.806 86.012 408.246 86.968 408.558 87.968C408.87 88.968 409.026 90.06 409.026 91.244C409.026 92.436 408.87 93.532 408.558 94.532C408.246 95.524 407.806 96.476 407.238 97.388Z" fill="#A35BFF"/>
<path d="M404.207 162.707C404.598 162.317 404.598 161.683 404.207 161.293L397.843 154.929C397.453 154.538 396.819 154.538 396.429 154.929C396.038 155.319 396.038 155.953 396.429 156.343L402.086 162L396.429 167.657C396.038 168.047 396.038 168.681 396.429 169.071C396.819 169.462 397.453 169.462 397.843 169.071L404.207 162.707ZM363.5 162V163H403.5V162V161H363.5V162Z" fill="#9E9E9E"/>
<path d="M359.895 111.542C359.895 110.99 359.447 110.542 358.895 110.542L349.895 110.542C349.343 110.542 348.895 110.99 348.895 111.542C348.895 112.095 349.343 112.542 349.895 112.542L357.895 112.542L357.895 120.542C357.895 121.095 358.343 121.542 358.895 121.542C359.447 121.542 359.895 121.095 359.895 120.542L359.895 111.542ZM316.469 153.969L317.176 154.676L359.602 112.249L358.895 111.542L358.188 110.835L315.762 153.262L316.469 153.969Z" fill="#7A3BCB"/>
<path d="M352 177H276V175H352V177ZM276 175H274V159H276V175ZM354 175H352V159H354V175ZM352 159H276V157H352V159Z" fill="#212121"/>
<rect x="276" y="159" width="76" height="10" fill="#43E27E"/>
<rect x="276" y="169" width="76" height="6" fill="#0D9841"/>
<path opacity="0.3" d="M313.991 153.077C314.544 153.077 314.991 152.63 314.991 152.077L314.991 143.077C314.991 142.525 314.544 142.077 313.991 142.077C313.439 142.077 312.991 142.525 312.991 143.077L312.991 151.077L304.991 151.077C304.439 151.077 303.991 151.525 303.991 152.077C303.991 152.63 304.439 153.077 304.991 153.077L313.991 153.077ZM285.707 123.793L285 124.5L313.284 152.784L313.991 152.077L314.698 151.37L286.414 123.086L285.707 123.793Z" fill="#A35BFF"/>
<path d="M271 113.5L275 109.5H283L287 113.5V121.5H271V113.5Z" fill="#2DB9D7"/>
<path d="M271 117.5H273V119.5H275V121.5H283V119.5H285V117.5H287V121.5L283 125.5H275L271 121.5V117.5Z" fill="#0088A5"/>
<path fill-rule="evenodd" clip-rule="evenodd" d="M283 107.5H275V109.5H273V111.5H271V113.5H269V121.5H271V123.5H273V125.5H275V127.5H283V125.5H285V123.5H287V121.5H289V113.5H287V111.5H285V109.5H283V107.5ZM283 109.5V111.5H285V113.5H287V121.5H285V123.5H283V125.5H275V123.5H273V121.5H271V113.5H273V111.5H275V109.5H283Z" fill="black"/>
<rect x="95" y="250" width="30" height="20" rx="10" fill="#212121"/>
<path d="M106.588 265.168C106.012 265.168 105.508 264.996 105.076 264.652C104.644 264.308 104.308 263.796 104.068 263.116C103.836 262.428 103.72 261.572 103.72 260.548C103.72 259.524 103.836 258.676 104.068 258.004C104.308 257.332 104.644 256.832 105.076 256.504C105.508 256.168 106.012 256 106.588 256C107.164 256 107.664 256.168 108.088 256.504C108.512 256.84 108.84 257.344 109.072 258.016C109.312 258.68 109.432 259.524 109.432 260.548C109.432 261.572 109.312 262.428 109.072 263.116C108.84 263.796 108.512 264.308 108.088 264.652C107.664 264.996 107.164 265.168 106.588 265.168ZM106.588 264.064C106.884 264.064 107.148 263.948 107.38 263.716C107.612 263.484 107.792 263.112 107.92 262.6C108.048 262.08 108.112 261.396 108.112 260.548C108.112 259.7 108.048 259.024 107.92 258.52C107.792 258.016 107.612 257.652 107.38 257.428C107.148 257.204 106.884 257.092 106.588 257.092C106.292 257.092 106.028 257.204 105.796 257.428C105.564 257.652 105.38 258.016 105.244 258.52C105.116 259.024 105.052 259.7 105.052 260.548C105.052 261.396 105.116 262.08 105.244 262.6C105.38 263.112 105.564 263.484 105.796 263.716C106.028 263.948 106.292 264.064 106.588 264.064ZM110.528 265V264.196C111.4 263.42 112.128 262.712 112.712 262.072C113.296 261.424 113.732 260.824 114.02 260.272C114.316 259.72 114.464 259.204 114.464 258.724C114.464 258.404 114.408 258.124 114.296 257.884C114.192 257.636 114.028 257.448 113.804 257.32C113.588 257.184 113.312 257.116 112.976 257.116C112.632 257.116 112.316 257.212 112.028 257.404C111.74 257.588 111.476 257.816 111.236 258.088L110.456 257.32C110.832 256.904 111.228 256.58 111.644 256.348C112.068 256.116 112.572 256 113.156 256C113.692 256 114.16 256.112 114.56 256.336C114.96 256.552 115.268 256.86 115.484 257.26C115.708 257.652 115.82 258.116 115.82 258.652C115.82 259.22 115.68 259.796 115.4 260.38C115.12 260.956 114.736 261.54 114.248 262.132C113.76 262.716 113.204 263.308 112.58 263.908C112.812 263.884 113.056 263.864 113.312 263.848C113.576 263.824 113.812 263.812 114.02 263.812H116.24V265H110.528Z" fill="white"/>
<path d="M195.557 267.388C194.997 266.476 194.561 265.524 194.249 264.532C193.937 263.532 193.781 262.436 193.781 261.244C193.781 260.06 193.937 258.968 194.249 257.968C194.561 256.968 194.997 256.012 195.557 255.1L196.421 255.484C195.909 256.348 195.529 257.276 195.281 258.268C195.041 259.252 194.921 260.244 194.921 261.244C194.921 262.252 195.041 263.248 195.281 264.232C195.529 265.216 195.909 266.14 196.421 267.004L195.557 267.388ZM207.31 259.48H203.494V262.672H202.486V259.48H198.67V258.484H202.486V255.304H203.494V258.484H207.31V259.48ZM207.37 263.836V264.832H198.67V263.836H207.37ZM211.306 265C211.346 264.192 211.414 263.452 211.51 262.78C211.606 262.1 211.746 261.46 211.93 260.86C212.114 260.252 212.354 259.664 212.65 259.096C212.946 258.52 213.306 257.932 213.73 257.332H209.59V256.156H215.266V257.008C214.754 257.648 214.338 258.268 214.018 258.868C213.698 259.46 213.45 260.064 213.274 260.68C213.098 261.296 212.97 261.956 212.89 262.66C212.81 263.356 212.754 264.136 212.722 265H211.306ZM220.43 261.604C220.166 261.604 219.926 261.548 219.71 261.436C219.502 261.324 219.306 261.196 219.122 261.052C218.946 260.908 218.77 260.78 218.594 260.668C218.426 260.556 218.246 260.5 218.054 260.5C217.862 260.5 217.682 260.568 217.514 260.704C217.346 260.832 217.19 261.032 217.046 261.304L216.29 260.764C216.562 260.308 216.854 259.98 217.166 259.78C217.478 259.58 217.786 259.48 218.09 259.48C218.362 259.48 218.602 259.54 218.81 259.66C219.018 259.772 219.21 259.9 219.386 260.044C219.57 260.18 219.746 260.304 219.914 260.416C220.09 260.528 220.27 260.584 220.454 260.584C220.646 260.584 220.826 260.52 220.994 260.392C221.162 260.264 221.322 260.06 221.474 259.78L222.218 260.344C221.946 260.792 221.654 261.116 221.342 261.316C221.038 261.508 220.734 261.604 220.43 261.604ZM223.698 265V263.86H225.642V257.716H224.058V256.84C224.474 256.768 224.834 256.676 225.138 256.564C225.45 256.452 225.734 256.316 225.99 256.156H227.034V263.86H228.75V265H223.698ZM232.953 265.168C232.377 265.168 231.873 264.996 231.441 264.652C231.009 264.308 230.673 263.796 230.433 263.116C230.201 262.428 230.085 261.572 230.085 260.548C230.085 259.524 230.201 258.676 230.433 258.004C230.673 257.332 231.009 256.832 231.441 256.504C231.873 256.168 232.377 256 232.953 256C233.529 256 234.029 256.168 234.453 256.504C234.877 256.84 235.205 257.344 235.437 258.016C235.677 258.68 235.797 259.524 235.797 260.548C235.797 261.572 235.677 262.428 235.437 263.116C235.205 263.796 234.877 264.308 234.453 264.652C234.029 264.996 233.529 265.168 232.953 265.168ZM232.953 264.064C233.249 264.064 233.513 263.948 233.745 263.716C233.977 263.484 234.157 263.112 234.285 262.6C234.413 262.08 234.477 261.396 234.477 260.548C234.477 259.7 234.413 259.024 234.285 258.52C234.157 258.016 233.977 257.652 233.745 257.428C233.513 257.204 233.249 257.092 232.953 257.092C232.657 257.092 232.393 257.204 232.161 257.428C231.929 257.652 231.745 258.016 231.609 258.52C231.481 259.024 231.417 259.7 231.417 260.548C231.417 261.396 231.481 262.08 231.609 262.6C231.745 263.112 231.929 263.484 232.161 263.716C232.393 263.948 232.657 264.064 232.953 264.064ZM237.313 267.4L237.001 266.62C237.417 266.444 237.741 266.208 237.973 265.912C238.205 265.624 238.317 265.3 238.309 264.94L238.213 263.836L238.789 264.748C238.709 264.836 238.617 264.9 238.513 264.94C238.409 264.972 238.297 264.988 238.177 264.988C237.937 264.988 237.721 264.912 237.529 264.76C237.345 264.6 237.253 264.38 237.253 264.1C237.253 263.828 237.345 263.612 237.529 263.452C237.721 263.292 237.949 263.212 238.213 263.212C238.557 263.212 238.821 263.344 239.005 263.608C239.189 263.872 239.281 264.236 239.281 264.7C239.281 265.332 239.105 265.88 238.753 266.344C238.409 266.816 237.929 267.168 237.313 267.4ZM252.955 259.48H249.139V262.672H248.131V259.48H244.315V258.484H248.131V255.304H249.139V258.484H252.955V259.48ZM253.015 263.836V264.832H244.315V263.836H253.015ZM256.951 265C256.991 264.192 257.059 263.452 257.155 262.78C257.251 262.1 257.391 261.46 257.575 260.86C257.759 260.252 257.999 259.664 258.295 259.096C258.591 258.52 258.951 257.932 259.375 257.332H255.235V256.156H260.911V257.008C260.399 257.648 259.983 258.268 259.663 258.868C259.343 259.46 259.095 260.064 258.919 260.68C258.743 261.296 258.615 261.956 258.535 262.66C258.455 263.356 258.399 264.136 258.367 265H256.951ZM266.075 261.604C265.811 261.604 265.571 261.548 265.355 261.436C265.147 261.324 264.951 261.196 264.767 261.052C264.591 260.908 264.415 260.78 264.239 260.668C264.071 260.556 263.891 260.5 263.699 260.5C263.507 260.5 263.327 260.568 263.159 260.704C262.991 260.832 262.835 261.032 262.691 261.304L261.935 260.764C262.207 260.308 262.499 259.98 262.811 259.78C263.123 259.58 263.431 259.48 263.735 259.48C264.007 259.48 264.247 259.54 264.455 259.66C264.663 259.772 264.855 259.9 265.031 260.044C265.215 260.18 265.391 260.304 265.559 260.416C265.735 260.528 265.915 260.584 266.099 260.584C266.291 260.584 266.471 260.52 266.639 260.392C266.807 260.264 266.967 260.06 267.119 259.78L267.863 260.344C267.591 260.792 267.299 261.116 266.987 261.316C266.683 261.508 266.379 261.604 266.075 261.604ZM269.342 265V263.86H271.286V257.716H269.702V256.84C270.118 256.768 270.478 256.676 270.782 256.564C271.094 256.452 271.378 256.316 271.634 256.156H272.678V263.86H274.394V265H269.342ZM278.598 265.168C278.022 265.168 277.518 264.996 277.086 264.652C276.654 264.308 276.318 263.796 276.078 263.116C275.846 262.428 275.73 261.572 275.73 260.548C275.73 259.524 275.846 258.676 276.078 258.004C276.318 257.332 276.654 256.832 277.086 256.504C277.518 256.168 278.022 256 278.598 256C279.174 256 279.674 256.168 280.098 256.504C280.522 256.84 280.85 257.344 281.082 258.016C281.322 258.68 281.442 259.524 281.442 260.548C281.442 261.572 281.322 262.428 281.082 263.116C280.85 263.796 280.522 264.308 280.098 264.652C279.674 264.996 279.174 265.168 278.598 265.168ZM278.598 264.064C278.894 264.064 279.158 263.948 279.39 263.716C279.622 263.484 279.802 263.112 279.93 262.6C280.058 262.08 280.122 261.396 280.122 260.548C280.122 259.7 280.058 259.024 279.93 258.52C279.802 258.016 279.622 257.652 279.39 257.428C279.158 257.204 278.894 257.092 278.598 257.092C278.302 257.092 278.038 257.204 277.806 257.428C277.574 257.652 277.39 258.016 277.254 258.52C277.126 259.024 277.062 259.7 277.062 260.548C277.062 261.396 277.126 262.08 277.254 262.6C277.39 263.112 277.574 263.484 277.806 263.716C278.038 263.948 278.302 264.064 278.598 264.064ZM283.426 267.388L282.562 267.004C283.074 266.14 283.454 265.216 283.702 264.232C283.95 263.248 284.074 262.252 284.074 261.244C284.074 260.244 283.95 259.252 283.702 258.268C283.454 257.276 283.074 256.348 282.562 255.484L283.426 255.1C283.994 256.012 284.434 256.968 284.746 257.968C285.058 258.968 285.214 260.06 285.214 261.244C285.214 262.436 285.058 263.532 284.746 264.532C284.434 265.524 283.994 266.476 283.426 267.388Z" fill="#A35BFF"/>
<path d="M360.588 267.388C360.028 266.476 359.592 265.524 359.28 264.532C358.968 263.532 358.812 262.436 358.812 261.244C358.812 260.06 358.968 258.968 359.28 257.968C359.592 256.968 360.028 256.012 360.588 255.1L361.452 255.484C360.94 256.348 360.56 257.276 360.312 258.268C360.072 259.252 359.952 260.244 359.952 261.244C359.952 262.252 360.072 263.248 360.312 264.232C360.56 265.216 360.94 266.14 361.452 267.004L360.588 267.388ZM372.341 259.48H368.525V262.672H367.517V259.48H363.701V258.484H367.517V255.304H368.525V258.484H372.341V259.48ZM372.401 263.836V264.832H363.701V263.836H372.401ZM376.337 265C376.377 264.192 376.445 263.452 376.541 262.78C376.637 262.1 376.777 261.46 376.961 260.86C377.145 260.252 377.385 259.664 377.681 259.096C377.977 258.52 378.337 257.932 378.761 257.332H374.621V256.156H380.297V257.008C379.785 257.648 379.369 258.268 379.049 258.868C378.729 259.46 378.481 260.064 378.305 260.68C378.129 261.296 378.001 261.956 377.921 262.66C377.841 263.356 377.785 264.136 377.753 265H376.337ZM381.813 267.4L381.501 266.62C381.917 266.444 382.241 266.208 382.473 265.912C382.705 265.624 382.817 265.3 382.809 264.94L382.713 263.836L383.289 264.748C383.209 264.836 383.117 264.9 383.013 264.94C382.909 264.972 382.797 264.988 382.677 264.988C382.437 264.988 382.221 264.912 382.029 264.76C381.845 264.6 381.753 264.38 381.753 264.1C381.753 263.828 381.845 263.612 382.029 263.452C382.221 263.292 382.449 263.212 382.713 263.212C383.057 263.212 383.321 263.344 383.505 263.608C383.689 263.872 383.781 264.236 383.781 264.7C383.781 265.332 383.605 265.88 383.253 266.344C382.909 266.816 382.429 267.168 381.813 267.4ZM397.455 259.48H393.639V262.672H392.631V259.48H388.815V258.484H392.631V255.304H393.639V258.484H397.455V259.48ZM397.515 263.836V264.832H388.815V263.836H397.515ZM401.451 265C401.491 264.192 401.559 263.452 401.655 262.78C401.751 262.1 401.891 261.46 402.075 260.86C402.259 260.252 402.499 259.664 402.795 259.096C403.091 258.52 403.451 257.932 403.875 257.332H399.735V256.156H405.411V257.008C404.899 257.648 404.483 258.268 404.163 258.868C403.843 259.46 403.595 260.064 403.419 260.68C403.243 261.296 403.115 261.956 403.035 262.66C402.955 263.356 402.899 264.136 402.867 265H401.451ZM407.395 267.388L406.531 267.004C407.043 266.14 407.423 265.216 407.671 264.232C407.919 263.248 408.043 262.252 408.043 261.244C408.043 260.244 407.919 259.252 407.671 258.268C407.423 257.276 407.043 256.348 406.531 255.484L407.395 255.1C407.963 256.012 408.403 256.968 408.715 257.968C409.027 258.968 409.183 260.06 409.183 261.244C409.183 262.436 409.027 263.532 408.715 264.532C408.403 265.524 407.963 266.476 407.395 267.388Z" fill="#A35BFF"/>
<path d="M359.895 281.542C359.895 280.99 359.447 280.542 358.895 280.542L349.895 280.542C349.343 280.542 348.895 280.99 348.895 281.542C348.895 282.095 349.343 282.542 349.895 282.542L357.895 282.542L357.895 290.542C357.895 291.095 358.343 291.542 358.895 291.542C359.447 291.542 359.895 291.095 359.895 290.542L359.895 281.542ZM316.469 323.969L317.176 324.676L359.602 282.249L358.895 281.542L358.188 280.835L315.762 323.262L316.469 323.969Z" fill="#7A3BCB"/>
<path d="M354 349H278V347H354V349ZM278 347H276V331H278V347ZM356 347H354V331H356V347ZM354 331H278V329H354V331Z" fill="#212121"/>
<rect x="278" y="331" width="76" height="10" fill="#43E27E"/>
<rect x="278" y="341" width="76" height="6" fill="#0D9841"/>
<path opacity="0.3" d="M314.991 323.077C315.544 323.077 315.991 322.63 315.991 322.077L315.991 313.077C315.991 312.525 315.544 312.077 314.991 312.077C314.439 312.077 313.991 312.525 313.991 313.077L313.991 321.077L305.991 321.077C305.439 321.077 304.991 321.525 304.991 322.077C304.991 322.63 305.439 323.077 305.991 323.077L314.991 323.077ZM286.707 293.793L286 294.5L314.284 322.784L314.991 322.077L315.698 321.37L287.414 293.086L286.707 293.793Z" fill="#A35BFF"/>
<path d="M272 283.5L276 279.5H284L288 283.5V291.5H272V283.5Z" fill="#2DB9D7"/>
<path d="M272 287.5H274V289.5H276V291.5H284V289.5H286V287.5H288V291.5L284 295.5H276L272 291.5V287.5Z" fill="#0088A5"/>
<path fill-rule="evenodd" clip-rule="evenodd" d="M284 277.5H276V279.5H274V281.5H272V283.5H270V291.5H272V293.5H274V295.5H276V297.5H284V295.5H286V293.5H288V291.5H290V283.5H288V281.5H286V279.5H284V277.5ZM284 279.5V281.5H286V283.5H288V291.5H286V293.5H284V295.5H276V293.5H274V291.5H272V283.5H274V281.5H276V279.5H284Z" fill="black"/>
<rect x="95" y="419" width="30" height="20" rx="10" fill="#212121"/>
<path d="M106.588 434.168C106.012 434.168 105.508 433.996 105.076 433.652C104.644 433.308 104.308 432.796 104.068 432.116C103.836 431.428 103.72 430.572 103.72 429.548C103.72 428.524 103.836 427.676 104.068 427.004C104.308 426.332 104.644 425.832 105.076 425.504C105.508 425.168 106.012 425 106.588 425C107.164 425 107.664 425.168 108.088 425.504C108.512 425.84 108.84 426.344 109.072 427.016C109.312 427.68 109.432 428.524 109.432 429.548C109.432 430.572 109.312 431.428 109.072 432.116C108.84 432.796 108.512 433.308 108.088 433.652C107.664 433.996 107.164 434.168 106.588 434.168ZM106.588 433.064C106.884 433.064 107.148 432.948 107.38 432.716C107.612 432.484 107.792 432.112 107.92 431.6C108.048 431.08 108.112 430.396 108.112 429.548C108.112 428.7 108.048 428.024 107.92 427.52C107.792 427.016 107.612 426.652 107.38 426.428C107.148 426.204 106.884 426.092 106.588 426.092C106.292 426.092 106.028 426.204 105.796 426.428C105.564 426.652 105.38 427.016 105.244 427.52C105.116 428.024 105.052 428.7 105.052 429.548C105.052 430.396 105.116 431.08 105.244 431.6C105.38 432.112 105.564 432.484 105.796 432.716C106.028 432.948 106.292 433.064 106.588 433.064ZM113.216 434.168C112.752 434.168 112.34 434.112 111.98 434C111.628 433.888 111.316 433.74 111.044 433.556C110.772 433.364 110.536 433.16 110.336 432.944L111.008 432.056C111.272 432.312 111.572 432.536 111.908 432.728C112.244 432.92 112.64 433.016 113.096 433.016C113.432 433.016 113.724 432.96 113.972 432.848C114.22 432.728 114.412 432.56 114.548 432.344C114.692 432.128 114.764 431.864 114.764 431.552C114.764 431.232 114.684 430.952 114.524 430.712C114.372 430.464 114.104 430.276 113.72 430.148C113.344 430.012 112.824 429.944 112.16 429.944V428.912C112.744 428.912 113.2 428.848 113.528 428.72C113.864 428.584 114.104 428.4 114.248 428.168C114.4 427.936 114.476 427.672 114.476 427.376C114.476 426.992 114.356 426.688 114.116 426.464C113.876 426.232 113.544 426.116 113.12 426.116C112.784 426.116 112.468 426.192 112.172 426.344C111.884 426.488 111.612 426.684 111.356 426.932L110.636 426.068C110.988 425.748 111.372 425.492 111.788 425.3C112.204 425.1 112.664 425 113.168 425C113.696 425 114.164 425.092 114.572 425.276C114.98 425.452 115.3 425.708 115.532 426.044C115.764 426.38 115.88 426.792 115.88 427.28C115.88 427.784 115.74 428.212 115.46 428.564C115.188 428.916 114.82 429.18 114.356 429.356V429.404C114.692 429.492 114.996 429.636 115.268 429.836C115.548 430.028 115.768 430.276 115.928 430.58C116.088 430.884 116.168 431.232 116.168 431.624C116.168 432.152 116.032 432.608 115.76 432.992C115.496 433.368 115.14 433.66 114.692 433.868C114.244 434.068 113.752 434.168 113.216 434.168Z" fill="white"/>
<path d="M199.588 436.388C199.028 435.476 198.592 434.524 198.28 433.532C197.968 432.532 197.812 431.436 197.812 430.244C197.812 429.06 197.968 427.968 198.28 426.968C198.592 425.968 199.028 425.012 199.588 424.1L200.452 424.484C199.94 425.348 199.56 426.276 199.312 427.268C199.072 428.252 198.952 429.244 198.952 430.244C198.952 431.252 199.072 432.248 199.312 433.232C199.56 434.216 199.94 435.14 200.452 436.004L199.588 436.388ZM211.341 428.48H207.525V431.672H206.517V428.48H202.701V427.484H206.517V424.304H207.525V427.484H211.341V428.48ZM211.401 432.836V433.832H202.701V432.836H211.401ZM215.337 434C215.377 433.192 215.445 432.452 215.541 431.78C215.637 431.1 215.777 430.46 215.961 429.86C216.145 429.252 216.385 428.664 216.681 428.096C216.977 427.52 217.337 426.932 217.761 426.332H213.621V425.156H219.297V426.008C218.785 426.648 218.369 427.268 218.049 427.868C217.729 428.46 217.481 429.064 217.305 429.68C217.129 430.296 217.001 430.956 216.921 431.66C216.841 432.356 216.785 433.136 216.753 434H215.337ZM220.813 436.4L220.501 435.62C220.917 435.444 221.241 435.208 221.473 434.912C221.705 434.624 221.817 434.3 221.809 433.94L221.713 432.836L222.289 433.748C222.209 433.836 222.117 433.9 222.013 433.94C221.909 433.972 221.797 433.988 221.677 433.988C221.437 433.988 221.221 433.912 221.029 433.76C220.845 433.6 220.753 433.38 220.753 433.1C220.753 432.828 220.845 432.612 221.029 432.452C221.221 432.292 221.449 432.212 221.713 432.212C222.057 432.212 222.321 432.344 222.505 432.608C222.689 432.872 222.781 433.236 222.781 433.7C222.781 434.332 222.605 434.88 222.253 435.344C221.909 435.816 221.429 436.168 220.813 436.4ZM236.455 428.48H232.639V431.672H231.631V428.48H227.815V427.484H231.631V424.304H232.639V427.484H236.455V428.48ZM236.515 432.836V433.832H227.815V432.836H236.515ZM240.451 434C240.491 433.192 240.559 432.452 240.655 431.78C240.751 431.1 240.891 430.46 241.075 429.86C241.259 429.252 241.499 428.664 241.795 428.096C242.091 427.52 242.451 426.932 242.875 426.332H238.735V425.156H244.411V426.008C243.899 426.648 243.483 427.268 243.163 427.868C242.843 428.46 242.595 429.064 242.419 429.68C242.243 430.296 242.115 430.956 242.035 431.66C241.955 432.356 241.899 433.136 241.867 434H240.451ZM246.395 436.388L245.531 436.004C246.043 435.14 246.423 434.216 246.671 433.232C246.919 432.248 247.043 431.252 247.043 430.244C247.043 429.244 246.919 428.252 246.671 427.268C246.423 426.276 246.043 425.348 245.531 424.484L246.395 424.1C246.963 425.012 247.403 425.968 247.715 426.968C248.027 427.968 248.183 429.06 248.183 430.244C248.183 431.436 248.027 432.532 247.715 433.532C247.403 434.524 246.963 435.476 246.395 436.388Z" fill="#A35BFF"/>
<path opacity="0.3" d="M328.991 509.077C329.544 509.077 329.991 508.63 329.991 508.077L329.991 499.077C329.991 498.525 329.544 498.077 328.991 498.077C328.439 498.077 327.991 498.525 327.991 499.077L327.991 507.077L319.991 507.077C319.439 507.077 318.991 507.525 318.991 508.077C318.991 508.63 319.439 509.077 319.991 509.077L328.991 509.077ZM300.707 479.793L300 480.5L328.284 508.784L328.991 508.077L329.698 507.37L301.414 479.086L300.707 479.793Z" fill="#A35BFF"/>
<path d="M258 437.5C257.448 437.5 257 437.948 257 438.5L257 447.5C257 448.052 257.448 448.5 258 448.5C258.552 448.5 259 448.052 259 447.5L259 439.5L267 439.5C267.552 439.5 268 439.052 268 438.5C268 437.948 267.552 437.5 267 437.5L258 437.5ZM258 438.5L257.293 439.207L285.577 467.491L286.284 466.784L286.991 466.077L258.707 437.793L258 438.5Z" fill="#7A3BCB"/>
<path d="M228.793 517.293C228.402 517.683 228.402 518.317 228.793 518.707L235.157 525.071C235.547 525.462 236.181 525.462 236.571 525.071C236.962 524.681 236.962 524.047 236.571 523.657L230.914 518L236.571 512.343C236.962 511.953 236.962 511.319 236.571 510.929C236.181 510.538 235.547 510.538 235.157 510.929L228.793 517.293ZM229.5 518V519H269.5V518V517H229.5V518Z" fill="#9E9E9E"/>
<path d="M353 533H277V531H353V533ZM277 531H275V515H277V531ZM355 531H353V515H355V531ZM353 515H277V513H353V515Z" fill="#212121"/>
<rect x="277" y="515" width="76" height="10" fill="#43E27E"/>
<rect x="277" y="525" width="76" height="6" fill="#0D9841"/>
<path d="M290 474L294 470H302L306 474V482H290V474Z" fill="#2DB9D7"/>
<path d="M290 478H292V480H294V482H302V480H304V478H306V482L302 486H294L290 482V478Z" fill="#0088A5"/>
<path fill-rule="evenodd" clip-rule="evenodd" d="M302 468H294V470H292V472H290V474H288V482H290V484H292V486H294V488H302V486H304V484H306V482H308V474H306V472H304V470H302V468ZM302 470V472H304V474H306V482H304V484H302V486H294V484H292V482H290V474H292V472H294V470H302Z" fill="black"/>
<path d="M357.526 483.388C356.41 481.564 355.75 479.632 355.75 477.244C355.75 474.88 356.41 472.924 357.526 471.112L358.39 471.484C357.358 473.212 356.878 475.24 356.878 477.244C356.878 479.26 357.358 481.288 358.39 483.004L357.526 483.388ZM369.267 475.48H365.451V478.672H364.443V475.48H360.627V474.484H364.443V471.304H365.451V474.484H369.267V475.48ZM369.327 479.836V480.832H360.627V479.836H369.327ZM371.979 481V479.86H373.911V473.716H372.327V472.84C373.155 472.684 373.743 472.48 374.247 472.156H375.291V479.86H377.019V481H371.979ZM381.211 481.156C379.483 481.156 378.355 479.62 378.355 476.548C378.355 473.488 379.483 472 381.211 472C382.939 472 384.067 473.5 384.067 476.548C384.067 479.62 382.939 481.156 381.211 481.156ZM381.211 480.064C382.111 480.064 382.747 479.104 382.747 476.548C382.747 474.016 382.111 473.092 381.211 473.092C380.311 473.092 379.675 474.016 379.675 476.548C379.675 479.104 380.311 480.064 381.211 480.064ZM385.583 483.4L385.271 482.62C386.099 482.284 386.579 481.672 386.579 480.976C386.531 480.988 386.495 480.988 386.447 480.988C385.955 480.988 385.523 480.676 385.523 480.1C385.523 479.56 385.955 479.212 386.483 479.212C387.155 479.212 387.551 479.776 387.551 480.7C387.551 481.96 386.819 482.932 385.583 483.4ZM390.525 481C390.681 477.772 391.245 475.708 392.949 473.332H388.797V472.156H394.485V473.008C392.409 475.588 392.085 477.544 391.941 481H390.525ZM396.469 483.388L395.605 483.004C396.637 481.288 397.117 479.26 397.117 477.244C397.117 475.24 396.637 473.212 395.605 471.484L396.469 471.112C397.597 472.924 398.257 474.88 398.257 477.244C398.257 479.632 397.597 481.564 396.469 483.388Z" fill="#A35BFF"/>
</svg>
