<svg width="527" height="618" viewBox="0 0 527 618" fill="none" xmlns="http://www.w3.org/2000/svg">
<rect width="527" height="618" fill="#F5F5F5"/>
<rect x="111" y="78" width="200" height="500" fill="#435C46"/>
<rect x="111" y="78" width="200" height="500" fill="#54AFE3"/>
<path d="M131.909 519V511.74H133.017V512.841C133.299 512.326 133.559 511.986 133.796 511.822C134.037 511.658 134.302 511.576 134.589 511.576C135.004 511.576 135.425 511.708 135.854 511.973L135.43 513.114C135.129 512.937 134.828 512.848 134.527 512.848C134.258 512.848 134.017 512.93 133.803 513.094C133.589 513.253 133.436 513.477 133.345 513.764C133.208 514.201 133.14 514.68 133.14 515.199V519H131.909ZM141.555 516.662L142.826 516.819C142.626 517.562 142.254 518.139 141.712 518.549C141.17 518.959 140.477 519.164 139.634 519.164C138.572 519.164 137.729 518.838 137.104 518.187C136.485 517.53 136.175 516.612 136.175 515.432C136.175 514.21 136.489 513.262 137.118 512.588C137.747 511.913 138.563 511.576 139.565 511.576C140.536 511.576 141.329 511.907 141.944 512.567C142.56 513.228 142.867 514.158 142.867 515.356C142.867 515.429 142.865 515.539 142.86 515.685H137.446C137.492 516.482 137.717 517.093 138.123 517.517C138.529 517.94 139.035 518.152 139.641 518.152C140.092 518.152 140.477 518.034 140.796 517.797C141.115 517.56 141.368 517.182 141.555 516.662ZM137.515 514.673H141.568C141.514 514.062 141.359 513.604 141.104 513.299C140.712 512.825 140.203 512.588 139.579 512.588C139.014 512.588 138.538 512.777 138.15 513.155C137.768 513.534 137.556 514.039 137.515 514.673ZM144.378 519V511.74H145.479V512.759C145.706 512.403 146.009 512.118 146.388 511.904C146.766 511.686 147.197 511.576 147.68 511.576C148.217 511.576 148.657 511.688 148.999 511.911C149.345 512.134 149.589 512.447 149.73 512.848C150.305 512 151.052 511.576 151.973 511.576C152.693 511.576 153.246 511.777 153.634 512.178C154.021 512.574 154.215 513.187 154.215 514.017V519H152.991V514.427C152.991 513.935 152.95 513.581 152.868 513.367C152.791 513.148 152.647 512.973 152.438 512.841C152.228 512.709 151.982 512.643 151.699 512.643C151.189 512.643 150.765 512.813 150.428 513.155C150.09 513.493 149.922 514.035 149.922 514.782V519H148.691V514.283C148.691 513.736 148.591 513.326 148.391 513.053C148.19 512.779 147.862 512.643 147.406 512.643C147.06 512.643 146.739 512.734 146.442 512.916C146.151 513.098 145.939 513.365 145.807 513.716C145.674 514.067 145.608 514.573 145.608 515.233V519H144.378ZM160.777 518.104C160.322 518.492 159.882 518.765 159.458 518.925C159.039 519.084 158.588 519.164 158.104 519.164C157.307 519.164 156.694 518.97 156.266 518.583C155.837 518.191 155.623 517.692 155.623 517.086C155.623 516.73 155.703 516.407 155.862 516.115C156.026 515.819 156.238 515.582 156.498 515.404C156.762 515.227 157.059 515.092 157.387 515.001C157.628 514.937 157.993 514.876 158.48 514.816C159.474 514.698 160.205 514.557 160.675 514.393C160.679 514.224 160.682 514.117 160.682 514.071C160.682 513.57 160.565 513.217 160.333 513.012C160.019 512.734 159.551 512.595 158.932 512.595C158.353 512.595 157.924 512.697 157.646 512.902C157.373 513.103 157.17 513.461 157.038 513.976L155.835 513.812C155.944 513.297 156.124 512.882 156.375 512.567C156.626 512.248 156.988 512.005 157.462 511.836C157.936 511.663 158.485 511.576 159.109 511.576C159.729 511.576 160.233 511.649 160.62 511.795C161.007 511.941 161.292 512.125 161.475 512.349C161.657 512.567 161.785 512.845 161.857 513.183C161.898 513.392 161.919 513.771 161.919 514.317V515.958C161.919 517.102 161.944 517.826 161.994 518.132C162.049 518.433 162.154 518.722 162.309 519H161.023C160.896 518.745 160.814 518.446 160.777 518.104ZM160.675 515.356C160.228 515.539 159.558 515.694 158.665 515.821C158.159 515.894 157.801 515.976 157.592 516.067C157.382 516.159 157.22 516.293 157.106 516.471C156.993 516.644 156.936 516.838 156.936 517.052C156.936 517.38 157.059 517.653 157.305 517.872C157.555 518.091 157.92 518.2 158.398 518.2C158.872 518.2 159.294 518.098 159.663 517.893C160.032 517.683 160.303 517.398 160.477 517.038C160.609 516.76 160.675 516.35 160.675 515.808V515.356ZM163.84 510.394V508.979H165.07V510.394H163.84ZM163.84 519V511.74H165.07V519H163.84ZM166.95 519V511.74H168.058V512.772C168.591 511.975 169.361 511.576 170.368 511.576C170.806 511.576 171.207 511.656 171.571 511.815C171.94 511.97 172.216 512.175 172.398 512.431C172.581 512.686 172.708 512.989 172.781 513.34C172.827 513.568 172.85 513.966 172.85 514.536V519H171.619V514.584C171.619 514.083 171.571 513.709 171.476 513.463C171.38 513.212 171.209 513.014 170.963 512.868C170.721 512.718 170.437 512.643 170.108 512.643C169.584 512.643 169.131 512.809 168.748 513.142C168.37 513.474 168.181 514.105 168.181 515.035V519H166.95ZM178.64 519V508.979H179.87V512.574C180.444 511.909 181.169 511.576 182.044 511.576C182.582 511.576 183.049 511.683 183.445 511.897C183.842 512.107 184.124 512.399 184.293 512.772C184.466 513.146 184.553 513.688 184.553 514.399V519H183.322V514.399C183.322 513.784 183.188 513.338 182.919 513.06C182.655 512.777 182.279 512.636 181.791 512.636C181.426 512.636 181.082 512.731 180.759 512.923C180.44 513.11 180.212 513.365 180.075 513.688C179.938 514.012 179.87 514.459 179.87 515.028V519H178.64ZM191.17 518.104C190.714 518.492 190.274 518.765 189.851 518.925C189.431 519.084 188.98 519.164 188.497 519.164C187.7 519.164 187.087 518.97 186.658 518.583C186.23 518.191 186.016 517.692 186.016 517.086C186.016 516.73 186.095 516.407 186.255 516.115C186.419 515.819 186.631 515.582 186.891 515.404C187.155 515.227 187.451 515.092 187.779 515.001C188.021 514.937 188.385 514.876 188.873 514.816C189.867 514.698 190.598 514.557 191.067 514.393C191.072 514.224 191.074 514.117 191.074 514.071C191.074 513.57 190.958 513.217 190.726 513.012C190.411 512.734 189.944 512.595 189.324 512.595C188.745 512.595 188.317 512.697 188.039 512.902C187.766 513.103 187.563 513.461 187.431 513.976L186.228 513.812C186.337 513.297 186.517 512.882 186.768 512.567C187.018 512.248 187.381 512.005 187.854 511.836C188.328 511.663 188.878 511.576 189.502 511.576C190.122 511.576 190.625 511.649 191.013 511.795C191.4 511.941 191.685 512.125 191.867 512.349C192.049 512.567 192.177 512.845 192.25 513.183C192.291 513.392 192.312 513.771 192.312 514.317V515.958C192.312 517.102 192.337 517.826 192.387 518.132C192.441 518.433 192.546 518.722 192.701 519H191.416C191.288 518.745 191.206 518.446 191.17 518.104ZM191.067 515.356C190.621 515.539 189.951 515.694 189.058 515.821C188.552 515.894 188.194 515.976 187.984 516.067C187.775 516.159 187.613 516.293 187.499 516.471C187.385 516.644 187.328 516.838 187.328 517.052C187.328 517.38 187.451 517.653 187.697 517.872C187.948 518.091 188.312 518.2 188.791 518.2C189.265 518.2 189.687 518.098 190.056 517.893C190.425 517.683 190.696 517.398 190.869 517.038C191.001 516.76 191.067 516.35 191.067 515.808V515.356ZM194.212 519V511.74H195.319V512.841C195.602 512.326 195.862 511.986 196.099 511.822C196.34 511.658 196.604 511.576 196.892 511.576C197.306 511.576 197.728 511.708 198.156 511.973L197.732 513.114C197.432 512.937 197.131 512.848 196.83 512.848C196.561 512.848 196.32 512.93 196.105 513.094C195.891 513.253 195.739 513.477 195.647 513.764C195.511 514.201 195.442 514.68 195.442 515.199V519H194.212ZM203.598 519V518.084C203.137 518.804 202.461 519.164 201.567 519.164C200.989 519.164 200.455 519.005 199.968 518.686C199.485 518.367 199.109 517.922 198.84 517.353C198.576 516.778 198.443 516.12 198.443 515.377C198.443 514.652 198.564 513.996 198.806 513.408C199.047 512.816 199.41 512.362 199.893 512.048C200.376 511.733 200.916 511.576 201.513 511.576C201.95 511.576 202.34 511.67 202.682 511.856C203.023 512.039 203.301 512.278 203.516 512.574V508.979H204.739V519H203.598ZM199.708 515.377C199.708 516.307 199.904 517.002 200.296 517.462C200.688 517.922 201.15 518.152 201.684 518.152C202.221 518.152 202.677 517.934 203.051 517.496C203.429 517.054 203.618 516.382 203.618 515.479C203.618 514.486 203.427 513.757 203.044 513.292C202.661 512.827 202.189 512.595 201.629 512.595C201.082 512.595 200.624 512.818 200.255 513.265C199.89 513.711 199.708 514.415 199.708 515.377ZM211.712 519H210.57V508.979H211.801V512.554C212.32 511.902 212.983 511.576 213.79 511.576C214.237 511.576 214.658 511.667 215.055 511.85C215.456 512.027 215.784 512.28 216.039 512.608C216.299 512.932 216.502 513.324 216.647 513.784C216.793 514.244 216.866 514.737 216.866 515.261C216.866 516.505 216.559 517.466 215.943 518.146C215.328 518.825 214.59 519.164 213.729 519.164C212.872 519.164 212.2 518.806 211.712 518.091V519ZM211.698 515.315C211.698 516.186 211.817 516.815 212.054 517.202C212.441 517.836 212.965 518.152 213.626 518.152C214.164 518.152 214.629 517.92 215.021 517.455C215.412 516.986 215.608 516.288 215.608 515.363C215.608 514.415 215.419 513.716 215.041 513.265C214.667 512.813 214.214 512.588 213.681 512.588C213.143 512.588 212.678 512.823 212.286 513.292C211.894 513.757 211.698 514.431 211.698 515.315ZM218.356 519V511.74H219.464V512.841C219.746 512.326 220.006 511.986 220.243 511.822C220.485 511.658 220.749 511.576 221.036 511.576C221.451 511.576 221.872 511.708 222.301 511.973L221.877 513.114C221.576 512.937 221.275 512.848 220.975 512.848C220.706 512.848 220.464 512.93 220.25 513.094C220.036 513.253 219.883 513.477 219.792 513.764C219.655 514.201 219.587 514.68 219.587 515.199V519H218.356ZM223.039 510.394V508.979H224.27V510.394H223.039ZM223.039 519V511.74H224.27V519H223.039ZM230.887 516.341L232.097 516.498C231.965 517.332 231.625 517.986 231.078 518.46C230.536 518.929 229.868 519.164 229.075 519.164C228.082 519.164 227.282 518.84 226.676 518.193C226.074 517.542 225.773 516.61 225.773 515.397C225.773 514.614 225.903 513.928 226.163 513.34C226.423 512.752 226.817 512.312 227.346 512.021C227.879 511.724 228.458 511.576 229.082 511.576C229.87 511.576 230.515 511.777 231.017 512.178C231.518 512.574 231.839 513.139 231.98 513.873L230.784 514.058C230.67 513.57 230.467 513.203 230.176 512.957C229.889 512.711 229.54 512.588 229.13 512.588C228.51 512.588 228.007 512.811 227.619 513.258C227.232 513.7 227.038 514.402 227.038 515.363C227.038 516.339 227.225 517.047 227.599 517.489C227.972 517.931 228.46 518.152 229.062 518.152C229.545 518.152 229.948 518.004 230.271 517.708C230.595 517.412 230.8 516.956 230.887 516.341ZM233.156 519V508.979H234.387V514.693L237.299 511.74H238.892L236.116 514.434L239.172 519H237.654L235.255 515.288L234.387 516.122V519H233.156ZM240.491 513.142V511.74H241.893V513.142H240.491ZM240.491 519V517.599H241.893V519H240.491ZM247.601 514.058C247.601 512.873 247.721 511.92 247.963 511.2C248.209 510.476 248.571 509.917 249.05 509.525C249.533 509.133 250.139 508.938 250.868 508.938C251.406 508.938 251.878 509.047 252.283 509.266C252.689 509.48 253.024 509.792 253.288 510.202C253.552 510.608 253.76 511.104 253.91 511.692C254.061 512.276 254.136 513.064 254.136 514.058C254.136 515.233 254.015 516.184 253.773 516.908C253.532 517.628 253.17 518.187 252.687 518.583C252.208 518.975 251.602 519.171 250.868 519.171C249.902 519.171 249.143 518.825 248.592 518.132C247.931 517.298 247.601 515.94 247.601 514.058ZM248.865 514.058C248.865 515.703 249.057 516.799 249.439 517.346C249.827 517.888 250.303 518.159 250.868 518.159C251.433 518.159 251.907 517.886 252.29 517.339C252.677 516.792 252.871 515.698 252.871 514.058C252.871 512.408 252.677 511.312 252.29 510.77C251.907 510.227 251.429 509.956 250.854 509.956C250.289 509.956 249.838 510.195 249.501 510.674C249.077 511.285 248.865 512.412 248.865 514.058Z" fill="white"/>
<path d="M131.909 535V527.74H133.017V528.841C133.299 528.326 133.559 527.986 133.796 527.822C134.037 527.658 134.302 527.576 134.589 527.576C135.004 527.576 135.425 527.708 135.854 527.973L135.43 529.114C135.129 528.937 134.828 528.848 134.527 528.848C134.258 528.848 134.017 528.93 133.803 529.094C133.589 529.253 133.436 529.477 133.345 529.764C133.208 530.201 133.14 530.68 133.14 531.199V535H131.909ZM141.555 532.662L142.826 532.819C142.626 533.562 142.254 534.139 141.712 534.549C141.17 534.959 140.477 535.164 139.634 535.164C138.572 535.164 137.729 534.838 137.104 534.187C136.485 533.53 136.175 532.612 136.175 531.432C136.175 530.21 136.489 529.262 137.118 528.588C137.747 527.913 138.563 527.576 139.565 527.576C140.536 527.576 141.329 527.907 141.944 528.567C142.56 529.228 142.867 530.158 142.867 531.356C142.867 531.429 142.865 531.539 142.86 531.685H137.446C137.492 532.482 137.717 533.093 138.123 533.517C138.529 533.94 139.035 534.152 139.641 534.152C140.092 534.152 140.477 534.034 140.796 533.797C141.115 533.56 141.368 533.182 141.555 532.662ZM137.515 530.673H141.568C141.514 530.062 141.359 529.604 141.104 529.299C140.712 528.825 140.203 528.588 139.579 528.588C139.014 528.588 138.538 528.777 138.15 529.155C137.768 529.534 137.556 530.039 137.515 530.673ZM144.378 535V527.74H145.479V528.759C145.706 528.403 146.009 528.118 146.388 527.904C146.766 527.686 147.197 527.576 147.68 527.576C148.217 527.576 148.657 527.688 148.999 527.911C149.345 528.134 149.589 528.447 149.73 528.848C150.305 528 151.052 527.576 151.973 527.576C152.693 527.576 153.246 527.777 153.634 528.178C154.021 528.574 154.215 529.187 154.215 530.017V535H152.991V530.427C152.991 529.935 152.95 529.581 152.868 529.367C152.791 529.148 152.647 528.973 152.438 528.841C152.228 528.709 151.982 528.643 151.699 528.643C151.189 528.643 150.765 528.813 150.428 529.155C150.09 529.493 149.922 530.035 149.922 530.782V535H148.691V530.283C148.691 529.736 148.591 529.326 148.391 529.053C148.19 528.779 147.862 528.643 147.406 528.643C147.06 528.643 146.739 528.734 146.442 528.916C146.151 529.098 145.939 529.365 145.807 529.716C145.674 530.067 145.608 530.573 145.608 531.233V535H144.378ZM160.777 534.104C160.322 534.492 159.882 534.765 159.458 534.925C159.039 535.084 158.588 535.164 158.104 535.164C157.307 535.164 156.694 534.97 156.266 534.583C155.837 534.191 155.623 533.692 155.623 533.086C155.623 532.73 155.703 532.407 155.862 532.115C156.026 531.819 156.238 531.582 156.498 531.404C156.762 531.227 157.059 531.092 157.387 531.001C157.628 530.937 157.993 530.876 158.48 530.816C159.474 530.698 160.205 530.557 160.675 530.393C160.679 530.224 160.682 530.117 160.682 530.071C160.682 529.57 160.565 529.217 160.333 529.012C160.019 528.734 159.551 528.595 158.932 528.595C158.353 528.595 157.924 528.697 157.646 528.902C157.373 529.103 157.17 529.461 157.038 529.976L155.835 529.812C155.944 529.297 156.124 528.882 156.375 528.567C156.626 528.248 156.988 528.005 157.462 527.836C157.936 527.663 158.485 527.576 159.109 527.576C159.729 527.576 160.233 527.649 160.62 527.795C161.007 527.941 161.292 528.125 161.475 528.349C161.657 528.567 161.785 528.845 161.857 529.183C161.898 529.392 161.919 529.771 161.919 530.317V531.958C161.919 533.102 161.944 533.826 161.994 534.132C162.049 534.433 162.154 534.722 162.309 535H161.023C160.896 534.745 160.814 534.446 160.777 534.104ZM160.675 531.356C160.228 531.539 159.558 531.694 158.665 531.821C158.159 531.894 157.801 531.976 157.592 532.067C157.382 532.159 157.22 532.293 157.106 532.471C156.993 532.644 156.936 532.838 156.936 533.052C156.936 533.38 157.059 533.653 157.305 533.872C157.555 534.091 157.92 534.2 158.398 534.2C158.872 534.2 159.294 534.098 159.663 533.893C160.032 533.683 160.303 533.398 160.477 533.038C160.609 532.76 160.675 532.35 160.675 531.808V531.356ZM163.84 526.394V524.979H165.07V526.394H163.84ZM163.84 535V527.74H165.07V535H163.84ZM166.95 535V527.74H168.058V528.772C168.591 527.975 169.361 527.576 170.368 527.576C170.806 527.576 171.207 527.656 171.571 527.815C171.94 527.97 172.216 528.175 172.398 528.431C172.581 528.686 172.708 528.989 172.781 529.34C172.827 529.568 172.85 529.966 172.85 530.536V535H171.619V530.584C171.619 530.083 171.571 529.709 171.476 529.463C171.38 529.212 171.209 529.014 170.963 528.868C170.721 528.718 170.437 528.643 170.108 528.643C169.584 528.643 169.131 528.809 168.748 529.142C168.37 529.474 168.181 530.105 168.181 531.035V535H166.95ZM179.774 535H178.633V524.979H179.863V528.554C180.383 527.902 181.046 527.576 181.853 527.576C182.299 527.576 182.721 527.667 183.117 527.85C183.518 528.027 183.846 528.28 184.102 528.608C184.361 528.932 184.564 529.324 184.71 529.784C184.856 530.244 184.929 530.737 184.929 531.261C184.929 532.505 184.621 533.466 184.006 534.146C183.391 534.825 182.652 535.164 181.791 535.164C180.934 535.164 180.262 534.806 179.774 534.091V535ZM179.761 531.315C179.761 532.186 179.879 532.815 180.116 533.202C180.504 533.836 181.028 534.152 181.688 534.152C182.226 534.152 182.691 533.92 183.083 533.455C183.475 532.986 183.671 532.288 183.671 531.363C183.671 530.415 183.482 529.716 183.104 529.265C182.73 528.813 182.276 528.588 181.743 528.588C181.205 528.588 180.741 528.823 180.349 529.292C179.957 529.757 179.761 530.431 179.761 531.315ZM186.419 535V527.74H187.526V528.841C187.809 528.326 188.069 527.986 188.306 527.822C188.547 527.658 188.812 527.576 189.099 527.576C189.513 527.576 189.935 527.708 190.363 527.973L189.939 529.114C189.639 528.937 189.338 528.848 189.037 528.848C188.768 528.848 188.527 528.93 188.312 529.094C188.098 529.253 187.946 529.477 187.854 529.764C187.718 530.201 187.649 530.68 187.649 531.199V535H186.419ZM191.102 526.394V524.979H192.332V526.394H191.102ZM191.102 535V527.74H192.332V535H191.102ZM198.949 532.341L200.159 532.498C200.027 533.332 199.688 533.986 199.141 534.46C198.598 534.929 197.931 535.164 197.138 535.164C196.144 535.164 195.344 534.84 194.738 534.193C194.137 533.542 193.836 532.61 193.836 531.397C193.836 530.614 193.966 529.928 194.226 529.34C194.485 528.752 194.88 528.312 195.408 528.021C195.941 527.724 196.52 527.576 197.145 527.576C197.933 527.576 198.578 527.777 199.079 528.178C199.58 528.574 199.902 529.139 200.043 529.873L198.847 530.058C198.733 529.57 198.53 529.203 198.238 528.957C197.951 528.711 197.603 528.588 197.192 528.588C196.573 528.588 196.069 528.811 195.682 529.258C195.294 529.7 195.101 530.402 195.101 531.363C195.101 532.339 195.287 533.047 195.661 533.489C196.035 533.931 196.522 534.152 197.124 534.152C197.607 534.152 198.01 534.004 198.334 533.708C198.658 533.412 198.863 532.956 198.949 532.341ZM201.219 535V524.979H202.449V530.693L205.361 527.74H206.954L204.179 530.434L207.234 535H205.717L203.317 531.288L202.449 532.122V535H201.219ZM208.554 529.142V527.74H209.955V529.142H208.554ZM208.554 535V533.599H209.955V535H208.554ZM215.663 532.375L216.955 532.266C217.051 532.895 217.272 533.368 217.618 533.688C217.969 534.002 218.391 534.159 218.883 534.159C219.475 534.159 219.977 533.936 220.387 533.489C220.797 533.043 221.002 532.45 221.002 531.712C221.002 531.01 220.804 530.456 220.407 530.051C220.015 529.645 219.5 529.442 218.862 529.442C218.466 529.442 218.108 529.534 217.789 529.716C217.47 529.894 217.219 530.126 217.037 530.413L215.882 530.263L216.853 525.115H221.836V526.291H217.837L217.297 528.984C217.898 528.565 218.53 528.355 219.19 528.355C220.065 528.355 220.804 528.659 221.405 529.265C222.007 529.871 222.308 530.65 222.308 531.603C222.308 532.509 222.043 533.293 221.515 533.954C220.872 534.765 219.995 535.171 218.883 535.171C217.971 535.171 217.226 534.916 216.647 534.405C216.073 533.895 215.745 533.218 215.663 532.375Z" fill="white"/>
<path d="M136.66 548.341L137.87 548.498C137.738 549.332 137.398 549.986 136.852 550.46C136.309 550.929 135.642 551.164 134.849 551.164C133.855 551.164 133.055 550.84 132.449 550.193C131.848 549.542 131.547 548.61 131.547 547.397C131.547 546.614 131.677 545.928 131.937 545.34C132.196 544.752 132.59 544.312 133.119 544.021C133.652 543.724 134.231 543.576 134.855 543.576C135.644 543.576 136.289 543.777 136.79 544.178C137.291 544.574 137.613 545.139 137.754 545.873L136.558 546.058C136.444 545.57 136.241 545.203 135.949 544.957C135.662 544.711 135.313 544.588 134.903 544.588C134.284 544.588 133.78 544.811 133.393 545.258C133.005 545.7 132.812 546.402 132.812 547.363C132.812 548.339 132.998 549.047 133.372 549.489C133.746 549.931 134.233 550.152 134.835 550.152C135.318 550.152 135.721 550.004 136.045 549.708C136.368 549.412 136.574 548.956 136.66 548.341ZM143.66 550.104C143.204 550.492 142.765 550.765 142.341 550.925C141.922 551.084 141.47 551.164 140.987 551.164C140.19 551.164 139.577 550.97 139.148 550.583C138.72 550.191 138.506 549.692 138.506 549.086C138.506 548.73 138.586 548.407 138.745 548.115C138.909 547.819 139.121 547.582 139.381 547.404C139.645 547.227 139.941 547.092 140.27 547.001C140.511 546.937 140.876 546.876 141.363 546.816C142.357 546.698 143.088 546.557 143.558 546.393C143.562 546.224 143.564 546.117 143.564 546.071C143.564 545.57 143.448 545.217 143.216 545.012C142.901 544.734 142.434 544.595 141.814 544.595C141.236 544.595 140.807 544.697 140.529 544.902C140.256 545.103 140.053 545.461 139.921 545.976L138.718 545.812C138.827 545.297 139.007 544.882 139.258 544.567C139.508 544.248 139.871 544.005 140.345 543.836C140.819 543.663 141.368 543.576 141.992 543.576C142.612 543.576 143.116 543.649 143.503 543.795C143.89 543.941 144.175 544.125 144.357 544.349C144.54 544.567 144.667 544.845 144.74 545.183C144.781 545.392 144.802 545.771 144.802 546.317V547.958C144.802 549.102 144.827 549.826 144.877 550.132C144.932 550.433 145.036 550.722 145.191 551H143.906C143.779 550.745 143.697 550.446 143.66 550.104ZM143.558 547.356C143.111 547.539 142.441 547.694 141.548 547.821C141.042 547.894 140.684 547.976 140.475 548.067C140.265 548.159 140.103 548.293 139.989 548.471C139.875 548.644 139.818 548.838 139.818 549.052C139.818 549.38 139.941 549.653 140.188 549.872C140.438 550.091 140.803 550.2 141.281 550.2C141.755 550.2 142.177 550.098 142.546 549.893C142.915 549.683 143.186 549.398 143.359 549.038C143.492 548.76 143.558 548.35 143.558 547.808V547.356ZM149.402 549.899L149.58 550.986C149.234 551.059 148.924 551.096 148.65 551.096C148.204 551.096 147.857 551.025 147.611 550.884C147.365 550.743 147.192 550.558 147.092 550.33C146.992 550.098 146.941 549.612 146.941 548.874V544.697H146.039V543.74H146.941V541.942L148.165 541.204V543.74H149.402V544.697H148.165V548.942C148.165 549.293 148.186 549.519 148.227 549.619C148.272 549.719 148.343 549.799 148.438 549.858C148.539 549.918 148.68 549.947 148.862 549.947C148.999 549.947 149.179 549.931 149.402 549.899ZM155.35 548.341L156.56 548.498C156.427 549.332 156.088 549.986 155.541 550.46C154.999 550.929 154.331 551.164 153.538 551.164C152.545 551.164 151.745 550.84 151.139 550.193C150.537 549.542 150.236 548.61 150.236 547.397C150.236 546.614 150.366 545.928 150.626 545.34C150.886 544.752 151.28 544.312 151.809 544.021C152.342 543.724 152.921 543.576 153.545 543.576C154.333 543.576 154.978 543.777 155.479 544.178C155.981 544.574 156.302 545.139 156.443 545.873L155.247 546.058C155.133 545.57 154.93 545.203 154.639 544.957C154.352 544.711 154.003 544.588 153.593 544.588C152.973 544.588 152.469 544.811 152.082 545.258C151.695 545.7 151.501 546.402 151.501 547.363C151.501 548.339 151.688 549.047 152.062 549.489C152.435 549.931 152.923 550.152 153.524 550.152C154.007 550.152 154.411 550.004 154.734 549.708C155.058 549.412 155.263 548.956 155.35 548.341ZM157.612 551V540.979H158.843V544.574C159.417 543.909 160.142 543.576 161.017 543.576C161.554 543.576 162.021 543.683 162.418 543.897C162.814 544.107 163.097 544.399 163.266 544.772C163.439 545.146 163.525 545.688 163.525 546.399V551H162.295V546.399C162.295 545.784 162.16 545.338 161.892 545.06C161.627 544.777 161.251 544.636 160.764 544.636C160.399 544.636 160.055 544.731 159.731 544.923C159.412 545.11 159.185 545.365 159.048 545.688C158.911 546.012 158.843 546.459 158.843 547.028V551H157.612ZM165.412 542.394V540.979H166.643V542.394H165.412ZM165.412 551V543.74H166.643V551H165.412ZM168.522 551V543.74H169.63V544.772C170.163 543.975 170.933 543.576 171.94 543.576C172.378 543.576 172.779 543.656 173.144 543.815C173.513 543.97 173.788 544.175 173.971 544.431C174.153 544.686 174.281 544.989 174.354 545.34C174.399 545.568 174.422 545.966 174.422 546.536V551H173.191V546.584C173.191 546.083 173.144 545.709 173.048 545.463C172.952 545.212 172.781 545.014 172.535 544.868C172.294 544.718 172.009 544.643 171.681 544.643C171.157 544.643 170.703 544.809 170.32 545.142C169.942 545.474 169.753 546.105 169.753 547.035V551H168.522ZM176.09 551.602L177.286 551.779C177.336 552.148 177.475 552.417 177.703 552.586C178.008 552.814 178.425 552.928 178.954 552.928C179.524 552.928 179.964 552.814 180.273 552.586C180.583 552.358 180.793 552.039 180.902 551.629C180.966 551.378 180.996 550.852 180.991 550.05C180.453 550.683 179.784 551 178.981 551C177.983 551 177.211 550.64 176.664 549.92C176.117 549.2 175.844 548.336 175.844 547.329C175.844 546.636 175.969 545.998 176.22 545.415C176.47 544.827 176.833 544.374 177.307 544.055C177.785 543.736 178.346 543.576 178.988 543.576C179.845 543.576 180.551 543.923 181.107 544.615V543.74H182.242V550.016C182.242 551.146 182.126 551.946 181.894 552.415C181.666 552.889 181.301 553.263 180.8 553.536C180.303 553.81 179.69 553.946 178.961 553.946C178.095 553.946 177.396 553.75 176.862 553.358C176.329 552.971 176.072 552.385 176.09 551.602ZM177.108 547.24C177.108 548.193 177.298 548.888 177.676 549.325C178.054 549.763 178.528 549.981 179.098 549.981C179.663 549.981 180.137 549.765 180.52 549.332C180.902 548.895 181.094 548.211 181.094 547.281C181.094 546.393 180.896 545.723 180.499 545.271C180.107 544.82 179.633 544.595 179.077 544.595C178.53 544.595 178.065 544.818 177.683 545.265C177.3 545.707 177.108 546.365 177.108 547.24ZM189.14 551H187.998V540.979H189.229V544.554C189.748 543.902 190.411 543.576 191.218 543.576C191.664 543.576 192.086 543.667 192.482 543.85C192.883 544.027 193.212 544.28 193.467 544.608C193.727 544.932 193.929 545.324 194.075 545.784C194.221 546.244 194.294 546.737 194.294 547.261C194.294 548.505 193.986 549.466 193.371 550.146C192.756 550.825 192.018 551.164 191.156 551.164C190.299 551.164 189.627 550.806 189.14 550.091V551ZM189.126 547.315C189.126 548.186 189.244 548.815 189.481 549.202C189.869 549.836 190.393 550.152 191.054 550.152C191.591 550.152 192.056 549.92 192.448 549.455C192.84 548.986 193.036 548.288 193.036 547.363C193.036 546.415 192.847 545.716 192.469 545.265C192.095 544.813 191.642 544.588 191.108 544.588C190.571 544.588 190.106 544.823 189.714 545.292C189.322 545.757 189.126 546.431 189.126 547.315ZM200.535 550.104C200.079 550.492 199.64 550.765 199.216 550.925C198.797 551.084 198.345 551.164 197.862 551.164C197.065 551.164 196.452 550.97 196.023 550.583C195.595 550.191 195.381 549.692 195.381 549.086C195.381 548.73 195.461 548.407 195.62 548.115C195.784 547.819 195.996 547.582 196.256 547.404C196.52 547.227 196.816 547.092 197.145 547.001C197.386 546.937 197.751 546.876 198.238 546.816C199.232 546.698 199.963 546.557 200.433 546.393C200.437 546.224 200.439 546.117 200.439 546.071C200.439 545.57 200.323 545.217 200.091 545.012C199.776 544.734 199.309 544.595 198.689 544.595C198.111 544.595 197.682 544.697 197.404 544.902C197.131 545.103 196.928 545.461 196.796 545.976L195.593 545.812C195.702 545.297 195.882 544.882 196.133 544.567C196.383 544.248 196.746 544.005 197.22 543.836C197.694 543.663 198.243 543.576 198.867 543.576C199.487 543.576 199.991 543.649 200.378 543.795C200.765 543.941 201.05 544.125 201.232 544.349C201.415 544.567 201.542 544.845 201.615 545.183C201.656 545.392 201.677 545.771 201.677 546.317V547.958C201.677 549.102 201.702 549.826 201.752 550.132C201.807 550.433 201.911 550.722 202.066 551H200.781C200.654 550.745 200.572 550.446 200.535 550.104ZM200.433 547.356C199.986 547.539 199.316 547.694 198.423 547.821C197.917 547.894 197.559 547.976 197.35 548.067C197.14 548.159 196.978 548.293 196.864 548.471C196.75 548.644 196.693 548.838 196.693 549.052C196.693 549.38 196.816 549.653 197.062 549.872C197.313 550.091 197.678 550.2 198.156 550.2C198.63 550.2 199.052 550.098 199.421 549.893C199.79 549.683 200.061 549.398 200.234 549.038C200.367 548.76 200.433 548.35 200.433 547.808V547.356ZM203.563 551V540.979H204.794V551H203.563ZM206.681 551V540.979H207.911V551H206.681ZM210.167 545.142V543.74H211.568V545.142H210.167ZM210.167 551V549.599H211.568V551H210.167ZM217.276 548.375L218.568 548.266C218.664 548.895 218.885 549.368 219.231 549.688C219.582 550.002 220.004 550.159 220.496 550.159C221.089 550.159 221.59 549.936 222 549.489C222.41 549.043 222.615 548.45 222.615 547.712C222.615 547.01 222.417 546.456 222.021 546.051C221.629 545.645 221.114 545.442 220.476 545.442C220.079 545.442 219.721 545.534 219.402 545.716C219.083 545.894 218.833 546.126 218.65 546.413L217.495 546.263L218.466 541.115H223.449V542.291H219.45L218.91 544.984C219.512 544.565 220.143 544.355 220.804 544.355C221.679 544.355 222.417 544.659 223.019 545.265C223.62 545.871 223.921 546.65 223.921 547.603C223.921 548.509 223.657 549.293 223.128 549.954C222.485 550.765 221.608 551.171 220.496 551.171C219.585 551.171 218.84 550.916 218.261 550.405C217.687 549.895 217.358 549.218 217.276 548.375Z" fill="white"/>
<path fill-rule="evenodd" clip-rule="evenodd" d="M230 478H192V479H191V487H192V488H230V487H231V479H230V478ZM230 479V487H192V479H230Z" fill="#212121"/>
<rect x="192" y="479" width="38" height="5" fill="#43E27E"/>
<rect x="192" y="484" width="38" height="3" fill="#0D9841"/>
<path d="M207 471L209 469H213L215 471V475H207V471Z" fill="#2DB9D7"/>
<path d="M207 473H208V474H209V475H213V474H214V473H215V475L213 477H209L207 475V473Z" fill="#0088A5"/>
<path fill-rule="evenodd" clip-rule="evenodd" d="M213 468H209V469H208V470H207V471H206V475H207V476H208V477H209V478H213V477H214V476H215V475H216V471H215V470H214V469H213V468ZM213 469V470H214V471H215V475H214V476H213V477H209V476H208V475H207V471H208V470H209V469H213Z" fill="black"/>
<path fill-rule="evenodd" clip-rule="evenodd" d="M174 124H151V125H150V133H151V134H174V133H175V125H174V124ZM174 125V133H151V125H174Z" fill="#212121"/>
<rect x="151" y="125" width="23" height="6" fill="#D11F1F"/>
<path d="M151 125H152V126H153V131H172V126H173V125H174V133H151V125Z" fill="#AB0000"/>
<path fill-rule="evenodd" clip-rule="evenodd" d="M198 124H175V125H174V133H175V134H198V133H199V125H198V124ZM198 125V133H175V125H198Z" fill="#212121"/>
<rect x="175" y="125" width="23" height="6" fill="#D11F1F"/>
<path d="M175 125H176V126H177V131H196V126H197V125H198V133H175V125Z" fill="#AB0000"/>
<path fill-rule="evenodd" clip-rule="evenodd" d="M222 124H199V125H198V133H199V134H222V133H223V125H222V124ZM222 125V133H199V125H222Z" fill="#212121"/>
<rect x="199" y="125" width="23" height="6" fill="#D11F1F"/>
<path d="M199 125H200V126H201V131H220V126H221V125H222V133H199V125Z" fill="#AB0000"/>
<path fill-rule="evenodd" clip-rule="evenodd" d="M246 124H223V125H222V133H223V134H246V133H247V125H246V124ZM246 125V133H223V125H246Z" fill="#212121"/>
<rect x="223" y="125" width="23" height="6" fill="#D11F1F"/>
<path d="M223 125H224V126H225V131H244V126H245V125H246V133H223V125Z" fill="#AB0000"/>
<path fill-rule="evenodd" clip-rule="evenodd" d="M270 124H247V125H246V133H247V134H270V133H271V125H270V124ZM270 125V133H247V125H270Z" fill="#212121"/>
<rect x="247" y="125" width="23" height="6" fill="#D11F1F"/>
<path d="M247 125H248V126H249V131H268V126H269V125H270V133H247V125Z" fill="#AB0000"/>
<path fill-rule="evenodd" clip-rule="evenodd" d="M162 133H139V134H138V142H139V143H162V142H163V134H162V133ZM162 134V142H139V134H162Z" fill="#212121"/>
<rect x="139" y="134" width="23" height="6" fill="#D11F1F"/>
<path d="M139 134H140V135H141V140H160V135H161V134H162V142H139V134Z" fill="#AB0000"/>
<path fill-rule="evenodd" clip-rule="evenodd" d="M186 133H163V134H162V142H163V143H186V142H187V134H186V133ZM186 134V142H163V134H186Z" fill="#212121"/>
<rect x="163" y="134" width="23" height="8" fill="#E09E42"/>
<path d="M163 134H164V135H165V140H184V135H185V134H186V142H163V134Z" fill="#C17306"/>
<path fill-rule="evenodd" clip-rule="evenodd" d="M210 133H187V134H186V142H187V143H210V142H211V134H210V133ZM210 134V142H187V134H210Z" fill="#212121"/>
<rect x="187" y="134" width="23" height="8" fill="#E09E42"/>
<path d="M187 134H188V135H189V140H208V135H209V134H210V142H187V134Z" fill="#C17306"/>
<path fill-rule="evenodd" clip-rule="evenodd" d="M234 133H211V134H210V142H211V143H234V142H235V134H234V133ZM234 134V142H211V134H234Z" fill="#212121"/>
<rect x="211" y="134" width="23" height="8" fill="#E09E42"/>
<path d="M211 134H212V135H213V140H232V135H233V134H234V142H211V134Z" fill="#C17306"/>
<path fill-rule="evenodd" clip-rule="evenodd" d="M258 133H235V134H234V142H235V143H258V142H259V134H258V133ZM258 134V142H235V134H258Z" fill="#212121"/>
<rect x="235" y="134" width="23" height="8" fill="#E09E42"/>
<path d="M235 134H236V135H237V140H256V135H257V134H258V142H235V134Z" fill="#C17306"/>
<path fill-rule="evenodd" clip-rule="evenodd" d="M282 133H259V134H258V142H259V143H282V142H283V134H282V133ZM282 134V142H259V134H282Z" fill="#212121"/>
<rect x="259" y="134" width="23" height="6" fill="#D11F1F"/>
<path d="M259 134H260V135H261V140H280V135H281V134H282V142H259V134Z" fill="#AB0000"/>
<path fill-rule="evenodd" clip-rule="evenodd" d="M174 142H151V143H150V151H151V152H174V151H175V143H174V142ZM174 143V151H151V143H174Z" fill="#212121"/>
<rect x="151" y="143" width="23" height="6" fill="#D11F1F"/>
<path d="M151 143H152V144H153V149H172V144H173V143H174V151H151V143Z" fill="#AB0000"/>
<path fill-rule="evenodd" clip-rule="evenodd" d="M198 142H175V143H174V151H175V152H198V151H199V143H198V142ZM198 143V151H175V143H198Z" fill="#212121"/>
<rect x="175" y="143" width="23" height="6" fill="#D11F1F"/>
<path d="M175 143H176V144H177V149H196V144H197V143H198V151H175V143Z" fill="#AB0000"/>
<path fill-rule="evenodd" clip-rule="evenodd" d="M222 142H199V143H198V151H199V152H222V151H223V143H222V142ZM222 143V151H199V143H222Z" fill="#212121"/>
<rect x="199" y="143" width="23" height="6" fill="#D11F1F"/>
<path d="M199 143H200V144H201V149H220V144H221V143H222V151H199V143Z" fill="#AB0000"/>
<path fill-rule="evenodd" clip-rule="evenodd" d="M246 142H223V143H222V151H223V152H246V151H247V143H246V142ZM246 143V151H223V143H246Z" fill="#212121"/>
<rect x="223" y="143" width="23" height="6" fill="#D11F1F"/>
<path d="M223 143H224V144H225V149H244V144H245V143H246V151H223V143Z" fill="#AB0000"/>
<path fill-rule="evenodd" clip-rule="evenodd" d="M270 142H247V143H246V151H247V152H270V151H271V143H270V142ZM270 143V151H247V143H270Z" fill="#212121"/>
<rect x="247" y="143" width="23" height="6" fill="#D11F1F"/>
<path d="M247 143H248V144H249V149H268V144H269V143H270V151H247V143Z" fill="#AB0000"/>
<rect x="65" y="318" width="28" height="20" rx="3.5" fill="#FF55B1"/>
<path d="M71.7889 332.109C71.2993 332.109 70.8592 332.016 70.4686 331.828C70.0806 331.638 69.7707 331.378 69.5389 331.047C69.3072 330.716 69.1835 330.339 69.1678 329.914H70.3397C70.3684 330.258 70.5207 330.54 70.7967 330.762C71.0728 330.983 71.4035 331.094 71.7889 331.094C72.0962 331.094 72.3684 331.023 72.6053 330.883C72.8449 330.74 73.0324 330.543 73.1678 330.293C73.3059 330.043 73.3749 329.758 73.3749 329.437C73.3749 329.112 73.3046 328.822 73.1639 328.566C73.0233 328.311 72.8293 328.111 72.5819 327.965C72.3371 327.819 72.0559 327.745 71.7381 327.742C71.496 327.742 71.2525 327.784 71.0077 327.867C70.7629 327.951 70.565 328.06 70.4139 328.195L69.3085 328.031L69.7577 324H74.1561V325.035H70.7616L70.5077 327.273H70.5546C70.7108 327.122 70.9178 326.996 71.1756 326.895C71.4361 326.793 71.7147 326.742 72.0116 326.742C72.4986 326.742 72.9322 326.858 73.3124 327.09C73.6952 327.322 73.996 327.638 74.2147 328.039C74.4361 328.437 74.5454 328.896 74.5428 329.414C74.5454 329.932 74.4282 330.395 74.1913 330.801C73.9569 331.207 73.6314 331.527 73.2147 331.762C72.8006 331.993 72.3254 332.109 71.7889 332.109ZM78.8647 332.133C78.2476 332.13 77.7202 331.967 77.2827 331.645C76.8452 331.322 76.5106 330.852 76.2788 330.234C76.047 329.617 75.9312 328.874 75.9312 328.004C75.9312 327.137 76.047 326.396 76.2788 325.781C76.5132 325.167 76.8491 324.698 77.2866 324.375C77.7267 324.052 78.2528 323.891 78.8647 323.891C79.4767 323.891 80.0015 324.053 80.439 324.379C80.8765 324.702 81.2111 325.171 81.4429 325.785C81.6772 326.397 81.7944 327.137 81.7944 328.004C81.7944 328.876 81.6785 329.621 81.4468 330.238C81.215 330.853 80.8804 331.323 80.4429 331.648C80.0054 331.971 79.4793 332.133 78.8647 332.133ZM78.8647 331.09C79.4064 331.09 79.8296 330.826 80.1343 330.297C80.4416 329.768 80.5952 329.004 80.5952 328.004C80.5952 327.34 80.5249 326.779 80.3843 326.32C80.2463 325.859 80.047 325.51 79.7866 325.273C79.5288 325.034 79.2215 324.914 78.8647 324.914C78.3257 324.914 77.9025 325.18 77.5952 325.711C77.2879 326.242 77.133 327.007 77.1304 328.004C77.1304 328.671 77.1994 329.234 77.3374 329.695C77.478 330.154 77.6772 330.501 77.9351 330.738C78.1929 330.973 78.5028 331.09 78.8647 331.09ZM86.0753 332.133C85.4581 332.13 84.9308 331.967 84.4933 331.645C84.0558 331.322 83.7212 330.852 83.4894 330.234C83.2576 329.617 83.1417 328.874 83.1417 328.004C83.1417 327.137 83.2576 326.396 83.4894 325.781C83.7238 325.167 84.0597 324.698 84.4972 324.375C84.9373 324.052 85.4634 323.891 86.0753 323.891C86.6873 323.891 87.2121 324.053 87.6496 324.379C88.0871 324.702 88.4217 325.171 88.6535 325.785C88.8878 326.397 89.005 327.137 89.005 328.004C89.005 328.876 88.8891 329.621 88.6574 330.238C88.4256 330.853 88.091 331.323 87.6535 331.648C87.216 331.971 86.6899 332.133 86.0753 332.133ZM86.0753 331.09C86.617 331.09 87.0402 330.826 87.3449 330.297C87.6522 329.768 87.8058 329.004 87.8058 328.004C87.8058 327.34 87.7355 326.779 87.5949 326.32C87.4568 325.859 87.2576 325.51 86.9972 325.273C86.7394 325.034 86.4321 324.914 86.0753 324.914C85.5363 324.914 85.1131 325.18 84.8058 325.711C84.4985 326.242 84.3436 327.007 84.341 328.004C84.341 328.671 84.41 329.234 84.548 329.695C84.6886 330.154 84.8878 330.501 85.1456 330.738C85.4035 330.973 85.7134 331.09 86.0753 331.09Z" fill="white"/>
<path d="M99.5 78V578" stroke="#FF55B1"/>
<path d="M97 78H103" stroke="#FF55B1"/>
<path d="M97 578H103" stroke="#FF55B1"/>
<path d="M111 67H311" stroke="#FF55B1"/>
<path d="M111 64V70" stroke="#FF55B1"/>
<path d="M311 64V70" stroke="#FF55B1"/>
<rect x="197" y="40" width="28" height="20" rx="3.5" fill="#FF55B1"/>
<path d="M201.186 54V53.125L203.893 50.3203C204.182 50.0156 204.42 49.7487 204.608 49.5195C204.798 49.2878 204.94 49.0677 205.034 48.8594C205.127 48.651 205.174 48.4297 205.174 48.1953C205.174 47.9297 205.112 47.7005 204.987 47.5078C204.862 47.3125 204.691 47.1628 204.475 47.0586C204.259 46.9518 204.015 46.8984 203.744 46.8984C203.458 46.8984 203.208 46.957 202.994 47.0742C202.781 47.1914 202.617 47.3568 202.502 47.5703C202.388 47.7839 202.33 48.0339 202.33 48.3203H201.178C201.178 47.8333 201.29 47.4076 201.514 47.043C201.738 46.6784 202.045 46.3958 202.436 46.1953C202.827 45.9922 203.271 45.8906 203.768 45.8906C204.271 45.8906 204.713 45.9909 205.096 46.1914C205.481 46.3893 205.782 46.6602 205.998 47.0039C206.215 47.3451 206.323 47.7305 206.323 48.1602C206.323 48.457 206.267 48.7474 206.155 49.0312C206.045 49.3151 205.854 49.6315 205.58 49.9805C205.307 50.3268 204.927 50.7474 204.44 51.2422L202.85 52.9062V52.9648H206.452V54H201.186ZM210.827 54.1328C210.21 54.1302 209.683 53.9674 209.245 53.6445C208.808 53.3216 208.473 52.8516 208.241 52.2344C208.009 51.6172 207.894 50.8737 207.894 50.0039C207.894 49.1367 208.009 48.3958 208.241 47.7812C208.476 47.1667 208.812 46.6979 209.249 46.375C209.689 46.0521 210.215 45.8906 210.827 45.8906C211.439 45.8906 211.964 46.0534 212.401 46.3789C212.839 46.7018 213.174 47.1706 213.405 47.7852C213.64 48.3971 213.757 49.1367 213.757 50.0039C213.757 50.8763 213.641 51.6211 213.409 52.2383C213.177 52.8529 212.843 53.3229 212.405 53.6484C211.968 53.9714 211.442 54.1328 210.827 54.1328ZM210.827 53.0898C211.369 53.0898 211.792 52.8255 212.097 52.2969C212.404 51.7682 212.558 51.0039 212.558 50.0039C212.558 49.3398 212.487 48.7786 212.347 48.3203C212.209 47.8594 212.009 47.5104 211.749 47.2734C211.491 47.0339 211.184 46.9141 210.827 46.9141C210.288 46.9141 209.865 47.1797 209.558 47.7109C209.25 48.2422 209.095 49.0065 209.093 50.0039C209.093 50.6706 209.162 51.2344 209.3 51.6953C209.44 52.1536 209.64 52.5013 209.897 52.7383C210.155 52.9727 210.465 53.0898 210.827 53.0898ZM218.038 54.1328C217.421 54.1302 216.893 53.9674 216.456 53.6445C216.018 53.3216 215.684 52.8516 215.452 52.2344C215.22 51.6172 215.104 50.8737 215.104 50.0039C215.104 49.1367 215.22 48.3958 215.452 47.7812C215.686 47.1667 216.022 46.6979 216.46 46.375C216.9 46.0521 217.426 45.8906 218.038 45.8906C218.65 45.8906 219.174 46.0534 219.612 46.3789C220.049 46.7018 220.384 47.1706 220.616 47.7852C220.85 48.3971 220.967 49.1367 220.967 50.0039C220.967 50.8763 220.852 51.6211 220.62 52.2383C220.388 52.8529 220.053 53.3229 219.616 53.6484C219.178 53.9714 218.652 54.1328 218.038 54.1328ZM218.038 53.0898C218.579 53.0898 219.003 52.8255 219.307 52.2969C219.615 51.7682 219.768 51.0039 219.768 50.0039C219.768 49.3398 219.698 48.7786 219.557 48.3203C219.419 47.8594 219.22 47.5104 218.96 47.2734C218.702 47.0339 218.395 46.9141 218.038 46.9141C217.499 46.9141 217.075 47.1797 216.768 47.7109C216.461 48.2422 216.306 49.0065 216.303 50.0039C216.303 50.6706 216.372 51.2344 216.51 51.6953C216.651 52.1536 216.85 52.5013 217.108 52.7383C217.366 52.9727 217.676 53.0898 218.038 53.0898Z" fill="white"/>
<path d="M417 84L421 80H429L433 84V92H417V84Z" fill="#2DB9D7"/>
<path d="M417 88H419V90H421V92H429V90H431V88H433V92L429 96H421L417 92V88Z" fill="#0088A5"/>
<path fill-rule="evenodd" clip-rule="evenodd" d="M429 78H421V80H419V82H417V84H415V92H417V94H419V96H421V98H429V96H431V94H433V92H435V84H433V82H431V80H429V78ZM429 80V82H431V84H433V92H431V94H429V96H421V94H419V92H417V84H419V82H421V80H429Z" fill="black"/>
<rect x="378" y="78" width="19" height="20" rx="3.5" fill="#FF55B1"/>
<path d="M385.1 84V92H383.889V85.2109H383.842L381.928 86.4609V85.3047L383.924 84H385.1ZM390.159 92.1328C389.542 92.1302 389.015 91.9674 388.577 91.6445C388.14 91.3216 387.805 90.8516 387.574 90.2344C387.342 89.6172 387.226 88.8737 387.226 88.0039C387.226 87.1367 387.342 86.3958 387.574 85.7812C387.808 85.1667 388.144 84.6979 388.581 84.375C389.021 84.0521 389.548 83.8906 390.159 83.8906C390.771 83.8906 391.296 84.0534 391.734 84.3789C392.171 84.7018 392.506 85.1706 392.738 85.7852C392.972 86.3971 393.089 87.1367 393.089 88.0039C393.089 88.8763 392.973 89.6211 392.742 90.2383C392.51 90.8529 392.175 91.3229 391.738 91.6484C391.3 91.9714 390.774 92.1328 390.159 92.1328ZM390.159 91.0898C390.701 91.0898 391.124 90.8255 391.429 90.2969C391.736 89.7682 391.89 89.0039 391.89 88.0039C391.89 87.3398 391.82 86.7786 391.679 86.3203C391.541 85.8594 391.342 85.5104 391.081 85.2734C390.824 85.0339 390.516 84.9141 390.159 84.9141C389.62 84.9141 389.197 85.1797 388.89 85.7109C388.583 86.2422 388.428 87.0065 388.425 88.0039C388.425 88.6706 388.494 89.2344 388.632 89.6953C388.773 90.1536 388.972 90.5013 389.23 90.7383C389.488 90.9727 389.798 91.0898 390.159 91.0898Z" fill="white"/>
<path d="M404 78V98" stroke="#FF55B1"/>
<path d="M401 78H407" stroke="#FF55B1"/>
<path d="M401 98H407" stroke="#FF55B1"/>
<rect x="415.5" y="40" width="19" height="20" rx="3.5" fill="#FF55B1"/>
<path d="M422.6 46V54H421.389V47.2109H421.342L419.428 48.4609V47.3047L421.424 46H422.6ZM427.659 54.1328C427.042 54.1302 426.515 53.9674 426.077 53.6445C425.64 53.3216 425.305 52.8516 425.074 52.2344C424.842 51.6172 424.726 50.8737 424.726 50.0039C424.726 49.1367 424.842 48.3958 425.074 47.7812C425.308 47.1667 425.644 46.6979 426.081 46.375C426.521 46.0521 427.048 45.8906 427.659 45.8906C428.271 45.8906 428.796 46.0534 429.234 46.3789C429.671 46.7018 430.006 47.1706 430.238 47.7852C430.472 48.3971 430.589 49.1367 430.589 50.0039C430.589 50.8763 430.473 51.6211 430.242 52.2383C430.01 52.8529 429.675 53.3229 429.238 53.6484C428.8 53.9714 428.274 54.1328 427.659 54.1328ZM427.659 53.0898C428.201 53.0898 428.624 52.8255 428.929 52.2969C429.236 51.7682 429.39 51.0039 429.39 50.0039C429.39 49.3398 429.32 48.7786 429.179 48.3203C429.041 47.8594 428.842 47.5104 428.581 47.2734C428.324 47.0339 428.016 46.9141 427.659 46.9141C427.12 46.9141 426.697 47.1797 426.39 47.7109C426.083 48.2422 425.928 49.0065 425.925 50.0039C425.925 50.6706 425.994 51.2344 426.132 51.6953C426.273 52.1536 426.472 52.5013 426.73 52.7383C426.988 52.9727 427.298 53.0898 427.659 53.0898Z" fill="white"/>
<path d="M415 67H435" stroke="#FF55B1"/>
<path d="M415 64V70" stroke="#FF55B1"/>
<path d="M435 64V70" stroke="#FF55B1"/>
<path fill-rule="evenodd" clip-rule="evenodd" d="M460 236H384V238H382V254H384V256H460V254H462V238H460V236ZM460 238V254H384V238H460Z" fill="#212121"/>
<rect x="384" y="238" width="76" height="10" fill="#43E27E"/>
<rect x="384" y="248" width="76" height="6" fill="#0D9841"/>
<rect x="345" y="236" width="19" height="20" rx="3.5" fill="#FF55B1"/>
<path d="M352.1 242V250H350.889V243.211H350.842L348.928 244.461V243.305L350.924 242H352.1ZM357.159 250.133C356.542 250.13 356.014 249.967 355.577 249.645C355.139 249.322 354.805 248.852 354.573 248.234C354.341 247.617 354.225 246.874 354.225 246.004C354.225 245.137 354.341 244.396 354.573 243.781C354.807 243.167 355.143 242.698 355.581 242.375C356.021 242.052 356.547 241.891 357.159 241.891C357.771 241.891 358.296 242.053 358.733 242.379C359.171 242.702 359.505 243.171 359.737 243.785C359.972 244.397 360.089 245.137 360.089 246.004C360.089 246.876 359.973 247.621 359.741 248.238C359.509 248.853 359.175 249.323 358.737 249.648C358.3 249.971 357.774 250.133 357.159 250.133ZM357.159 249.09C357.701 249.09 358.124 248.826 358.429 248.297C358.736 247.768 358.889 247.004 358.889 246.004C358.889 245.34 358.819 244.779 358.679 244.32C358.541 243.859 358.341 243.51 358.081 243.273C357.823 243.034 357.516 242.914 357.159 242.914C356.62 242.914 356.197 243.18 355.889 243.711C355.582 244.242 355.427 245.007 355.425 246.004C355.425 246.671 355.494 247.234 355.632 247.695C355.772 248.154 355.972 248.501 356.229 248.738C356.487 248.973 356.797 249.09 357.159 249.09Z" fill="white"/>
<path d="M371 236V256" stroke="#FF55B1"/>
<path d="M368 236H374" stroke="#FF55B1"/>
<path d="M368 256H374" stroke="#FF55B1"/>
<path d="M382 225H462" stroke="#FF55B1"/>
<path d="M382 222V228" stroke="#FF55B1"/>
<path d="M462 222V228" stroke="#FF55B1"/>
<rect x="411" y="198" width="21" height="20" rx="3.5" fill="#FF55B1"/>
<path d="M414.898 210.438V209.461L418.355 204H419.124V205.437H418.636L416.163 209.352V209.414H420.902V210.438H414.898ZM418.691 212V210.141L418.698 209.695V204H419.843V212H418.691ZM425.158 212.133C424.541 212.13 424.013 211.967 423.576 211.645C423.138 211.322 422.804 210.852 422.572 210.234C422.34 209.617 422.224 208.874 422.224 208.004C422.224 207.137 422.34 206.396 422.572 205.781C422.806 205.167 423.142 204.698 423.58 204.375C424.02 204.052 424.546 203.891 425.158 203.891C425.77 203.891 426.295 204.053 426.732 204.379C427.17 204.702 427.504 205.171 427.736 205.785C427.971 206.397 428.088 207.137 428.088 208.004C428.088 208.876 427.972 209.621 427.74 210.238C427.508 210.853 427.174 211.323 426.736 211.648C426.299 211.971 425.773 212.133 425.158 212.133ZM425.158 211.09C425.7 211.09 426.123 210.826 426.428 210.297C426.735 209.768 426.888 209.004 426.888 208.004C426.888 207.34 426.818 206.779 426.678 206.32C426.54 205.859 426.34 205.51 426.08 205.273C425.822 205.034 425.515 204.914 425.158 204.914C424.619 204.914 424.196 205.18 423.888 205.711C423.581 206.242 423.426 207.007 423.424 208.004C423.424 208.671 423.493 209.234 423.631 209.695C423.771 210.154 423.971 210.501 424.228 210.738C424.486 210.973 424.796 211.09 425.158 211.09Z" fill="white"/>
<path fill-rule="evenodd" clip-rule="evenodd" d="M448 394H402V396H400V412H402V414H448V412H450V396H448V394ZM448 396V412H402V396H448Z" fill="#212121"/>
<rect x="402" y="396" width="46" height="16" fill="#E09E42"/>
<path d="M402 396H404V398H406V408H444V398H446V396H448V412H402V396Z" fill="#C17306"/>
<path d="M389 394V414" stroke="#FF55B1"/>
<path d="M386 394H392" stroke="#FF55B1"/>
<path d="M386 414H392" stroke="#FF55B1"/>
<rect x="363" y="394" width="19" height="20" rx="3.5" fill="#FF55B1"/>
<path d="M370.1 400V408H368.889V401.211H368.842L366.928 402.461V401.305L368.924 400H370.1ZM375.159 408.133C374.542 408.13 374.014 407.967 373.577 407.645C373.139 407.322 372.805 406.852 372.573 406.234C372.341 405.617 372.225 404.874 372.225 404.004C372.225 403.137 372.341 402.396 372.573 401.781C372.807 401.167 373.143 400.698 373.581 400.375C374.021 400.052 374.547 399.891 375.159 399.891C375.771 399.891 376.296 400.053 376.733 400.379C377.171 400.702 377.505 401.171 377.737 401.785C377.972 402.397 378.089 403.137 378.089 404.004C378.089 404.876 377.973 405.621 377.741 406.238C377.509 406.853 377.175 407.323 376.737 407.648C376.3 407.971 375.774 408.133 375.159 408.133ZM375.159 407.09C375.701 407.09 376.124 406.826 376.429 406.297C376.736 405.768 376.889 405.004 376.889 404.004C376.889 403.34 376.819 402.779 376.679 402.32C376.541 401.859 376.341 401.51 376.081 401.273C375.823 401.034 375.516 400.914 375.159 400.914C374.62 400.914 374.197 401.18 373.889 401.711C373.582 402.242 373.427 403.007 373.425 404.004C373.425 404.671 373.494 405.234 373.632 405.695C373.772 406.154 373.972 406.501 374.229 406.738C374.487 406.973 374.797 407.09 375.159 407.09Z" fill="white"/>
<path d="M400 383H450" stroke="#FF55B1"/>
<path d="M400 380V386" stroke="#FF55B1"/>
<path d="M450 380V386" stroke="#FF55B1"/>
<rect x="415" y="356" width="20" height="20" rx="3.5" fill="#FF55B1"/>
<path d="M418.931 370V369.125L421.638 366.32C421.927 366.016 422.165 365.749 422.353 365.52C422.543 365.288 422.685 365.068 422.778 364.859C422.872 364.651 422.919 364.43 422.919 364.195C422.919 363.93 422.857 363.701 422.732 363.508C422.607 363.313 422.436 363.163 422.22 363.059C422.004 362.952 421.76 362.898 421.489 362.898C421.203 362.898 420.953 362.957 420.739 363.074C420.526 363.191 420.362 363.357 420.247 363.57C420.133 363.784 420.075 364.034 420.075 364.32H418.923C418.923 363.833 419.035 363.408 419.259 363.043C419.483 362.678 419.79 362.396 420.181 362.195C420.571 361.992 421.015 361.891 421.513 361.891C422.015 361.891 422.458 361.991 422.841 362.191C423.226 362.389 423.527 362.66 423.743 363.004C423.959 363.345 424.068 363.73 424.068 364.16C424.068 364.457 424.012 364.747 423.9 365.031C423.79 365.315 423.599 365.632 423.325 365.98C423.052 366.327 422.672 366.747 422.185 367.242L420.595 368.906V368.965H424.196V370H418.931ZM428.428 370.109C427.938 370.109 427.498 370.016 427.107 369.828C426.719 369.638 426.409 369.378 426.178 369.047C425.946 368.716 425.822 368.339 425.806 367.914H426.978C427.007 368.258 427.159 368.54 427.435 368.762C427.711 368.983 428.042 369.094 428.428 369.094C428.735 369.094 429.007 369.023 429.244 368.883C429.484 368.74 429.671 368.543 429.806 368.293C429.944 368.043 430.013 367.758 430.013 367.437C430.013 367.112 429.943 366.822 429.803 366.566C429.662 366.311 429.468 366.111 429.221 365.965C428.976 365.819 428.694 365.745 428.377 365.742C428.135 365.742 427.891 365.784 427.646 365.867C427.402 365.951 427.204 366.06 427.053 366.195L425.947 366.031L426.396 362H430.795V363.035H427.4L427.146 365.273H427.193C427.349 365.122 427.556 364.996 427.814 364.895C428.075 364.793 428.353 364.742 428.65 364.742C429.137 364.742 429.571 364.858 429.951 365.09C430.334 365.322 430.635 365.638 430.853 366.039C431.075 366.437 431.184 366.896 431.181 367.414C431.184 367.932 431.067 368.395 430.83 368.801C430.596 369.207 430.27 369.527 429.853 369.762C429.439 369.993 428.964 370.109 428.428 370.109Z" fill="white"/>
<path fill-rule="evenodd" clip-rule="evenodd" d="M448 552H402V554H400V570H402V572H448V570H450V554H448V552ZM448 554V570H402V554H448Z" fill="#212121"/>
<rect x="402" y="554" width="46" height="12" fill="#D11F1F"/>
<path d="M402 554H404V556H406V566H444V556H446V554H448V570H402V554Z" fill="#AB0000"/>
<path d="M389 552V572" stroke="#FF55B1"/>
<path d="M386 552H392" stroke="#FF55B1"/>
<path d="M386 572H392" stroke="#FF55B1"/>
<rect x="363" y="552" width="19" height="20" rx="3.5" fill="#FF55B1"/>
<path d="M370.1 558V566H368.889V559.211H368.842L366.928 560.461V559.305L368.924 558H370.1ZM375.159 566.133C374.542 566.13 374.014 565.967 373.577 565.645C373.139 565.322 372.805 564.852 372.573 564.234C372.341 563.617 372.225 562.874 372.225 562.004C372.225 561.137 372.341 560.396 372.573 559.781C372.807 559.167 373.143 558.698 373.581 558.375C374.021 558.052 374.547 557.891 375.159 557.891C375.771 557.891 376.296 558.053 376.733 558.379C377.171 558.702 377.505 559.171 377.737 559.785C377.972 560.397 378.089 561.137 378.089 562.004C378.089 562.876 377.973 563.621 377.741 564.238C377.509 564.853 377.175 565.323 376.737 565.648C376.3 565.971 375.774 566.133 375.159 566.133ZM375.159 565.09C375.701 565.09 376.124 564.826 376.429 564.297C376.736 563.768 376.889 563.004 376.889 562.004C376.889 561.34 376.819 560.779 376.679 560.32C376.541 559.859 376.341 559.51 376.081 559.273C375.823 559.034 375.516 558.914 375.159 558.914C374.62 558.914 374.197 559.18 373.889 559.711C373.582 560.242 373.427 561.007 373.425 562.004C373.425 562.671 373.494 563.234 373.632 563.695C373.772 564.154 373.972 564.501 374.229 564.738C374.487 564.973 374.797 565.09 375.159 565.09Z" fill="white"/>
<path d="M400 541H450" stroke="#FF55B1"/>
<path d="M400 538V544" stroke="#FF55B1"/>
<path d="M450 538V544" stroke="#FF55B1"/>
<rect x="415" y="514" width="20" height="20" rx="3.5" fill="#FF55B1"/>
<path d="M418.931 528V527.125L421.638 524.32C421.927 524.016 422.165 523.749 422.353 523.52C422.543 523.288 422.685 523.068 422.778 522.859C422.872 522.651 422.919 522.43 422.919 522.195C422.919 521.93 422.857 521.701 422.732 521.508C422.607 521.313 422.436 521.163 422.22 521.059C422.004 520.952 421.76 520.898 421.489 520.898C421.203 520.898 420.953 520.957 420.739 521.074C420.526 521.191 420.362 521.357 420.247 521.57C420.133 521.784 420.075 522.034 420.075 522.32H418.923C418.923 521.833 419.035 521.408 419.259 521.043C419.483 520.678 419.79 520.396 420.181 520.195C420.571 519.992 421.015 519.891 421.513 519.891C422.015 519.891 422.458 519.991 422.841 520.191C423.226 520.389 423.527 520.66 423.743 521.004C423.959 521.345 424.068 521.73 424.068 522.16C424.068 522.457 424.012 522.747 423.9 523.031C423.79 523.315 423.599 523.632 423.325 523.98C423.052 524.327 422.672 524.747 422.185 525.242L420.595 526.906V526.965H424.196V528H418.931ZM428.428 528.109C427.938 528.109 427.498 528.016 427.107 527.828C426.719 527.638 426.409 527.378 426.178 527.047C425.946 526.716 425.822 526.339 425.806 525.914H426.978C427.007 526.258 427.159 526.54 427.435 526.762C427.711 526.983 428.042 527.094 428.428 527.094C428.735 527.094 429.007 527.023 429.244 526.883C429.484 526.74 429.671 526.543 429.806 526.293C429.944 526.043 430.013 525.758 430.013 525.437C430.013 525.112 429.943 524.822 429.803 524.566C429.662 524.311 429.468 524.111 429.221 523.965C428.976 523.819 428.694 523.745 428.377 523.742C428.135 523.742 427.891 523.784 427.646 523.867C427.402 523.951 427.204 524.06 427.053 524.195L425.947 524.031L426.396 520H430.795V521.035H427.4L427.146 523.273H427.193C427.349 523.122 427.556 522.996 427.814 522.895C428.075 522.793 428.353 522.742 428.65 522.742C429.137 522.742 429.571 522.858 429.951 523.09C430.334 523.322 430.635 523.638 430.853 524.039C431.075 524.437 431.184 524.896 431.181 525.414C431.184 525.932 431.067 526.395 430.83 526.801C430.596 527.207 430.27 527.527 429.853 527.762C429.439 527.993 428.964 528.109 428.428 528.109Z" fill="white"/>
<path d="M116.936 95.388C116.376 94.476 115.94 93.524 115.628 92.532C115.316 91.532 115.16 90.436 115.16 89.244C115.16 88.06 115.316 86.968 115.628 85.968C115.94 84.968 116.376 84.012 116.936 83.1L117.8 83.484C117.288 84.348 116.908 85.276 116.66 86.268C116.42 87.252 116.3 88.244 116.3 89.244C116.3 90.252 116.42 91.248 116.66 92.232C116.908 93.216 117.288 94.14 117.8 95.004L116.936 95.388ZM121.801 93.168C121.225 93.168 120.721 92.996 120.289 92.652C119.857 92.308 119.521 91.796 119.281 91.116C119.049 90.428 118.933 89.572 118.933 88.548C118.933 87.524 119.049 86.676 119.281 86.004C119.521 85.332 119.857 84.832 120.289 84.504C120.721 84.168 121.225 84 121.801 84C122.377 84 122.877 84.168 123.301 84.504C123.725 84.84 124.053 85.344 124.285 86.016C124.525 86.68 124.645 87.524 124.645 88.548C124.645 89.572 124.525 90.428 124.285 91.116C124.053 91.796 123.725 92.308 123.301 92.652C122.877 92.996 122.377 93.168 121.801 93.168ZM121.801 92.064C122.097 92.064 122.361 91.948 122.593 91.716C122.825 91.484 123.005 91.112 123.133 90.6C123.261 90.08 123.325 89.396 123.325 88.548C123.325 87.7 123.261 87.024 123.133 86.52C123.005 86.016 122.825 85.652 122.593 85.428C122.361 85.204 122.097 85.092 121.801 85.092C121.505 85.092 121.241 85.204 121.009 85.428C120.777 85.652 120.593 86.016 120.457 86.52C120.329 87.024 120.265 87.7 120.265 88.548C120.265 89.396 120.329 90.08 120.457 90.6C120.593 91.112 120.777 91.484 121.009 91.716C121.241 91.948 121.505 92.064 121.801 92.064ZM126.161 95.4L125.849 94.62C126.265 94.444 126.589 94.208 126.821 93.912C127.053 93.624 127.165 93.3 127.157 92.94L127.061 91.836L127.637 92.748C127.557 92.836 127.465 92.9 127.361 92.94C127.257 92.972 127.145 92.988 127.025 92.988C126.785 92.988 126.569 92.912 126.377 92.76C126.193 92.6 126.101 92.38 126.101 92.1C126.101 91.828 126.193 91.612 126.377 91.452C126.569 91.292 126.797 91.212 127.061 91.212C127.405 91.212 127.669 91.344 127.853 91.608C128.037 91.872 128.129 92.236 128.129 92.7C128.129 93.332 127.953 93.88 127.601 94.344C127.257 94.816 126.777 95.168 126.161 95.4ZM132.219 93.168C131.643 93.168 131.139 92.996 130.707 92.652C130.275 92.308 129.939 91.796 129.699 91.116C129.467 90.428 129.351 89.572 129.351 88.548C129.351 87.524 129.467 86.676 129.699 86.004C129.939 85.332 130.275 84.832 130.707 84.504C131.139 84.168 131.643 84 132.219 84C132.795 84 133.295 84.168 133.719 84.504C134.143 84.84 134.471 85.344 134.703 86.016C134.943 86.68 135.063 87.524 135.063 88.548C135.063 89.572 134.943 90.428 134.703 91.116C134.471 91.796 134.143 92.308 133.719 92.652C133.295 92.996 132.795 93.168 132.219 93.168ZM132.219 92.064C132.515 92.064 132.779 91.948 133.011 91.716C133.243 91.484 133.423 91.112 133.551 90.6C133.679 90.08 133.743 89.396 133.743 88.548C133.743 87.7 133.679 87.024 133.551 86.52C133.423 86.016 133.243 85.652 133.011 85.428C132.779 85.204 132.515 85.092 132.219 85.092C131.923 85.092 131.659 85.204 131.427 85.428C131.195 85.652 131.011 86.016 130.875 86.52C130.747 87.024 130.683 87.7 130.683 88.548C130.683 89.396 130.747 90.08 130.875 90.6C131.011 91.112 131.195 91.484 131.427 91.716C131.659 91.948 131.923 92.064 132.219 92.064ZM137.047 95.388L136.183 95.004C136.695 94.14 137.075 93.216 137.323 92.232C137.571 91.248 137.695 90.252 137.695 89.244C137.695 88.244 137.571 87.252 137.323 86.268C137.075 85.276 136.695 84.348 136.183 83.484L137.047 83.1C137.615 84.012 138.055 84.968 138.367 85.968C138.679 86.968 138.835 88.06 138.835 89.244C138.835 90.436 138.679 91.532 138.367 92.532C138.055 93.524 137.615 94.476 137.047 95.388Z" fill="#DE006A"/>
<path d="M147.17 475.388C146.61 474.476 146.174 473.524 145.862 472.532C145.55 471.532 145.394 470.436 145.394 469.244C145.394 468.06 145.55 466.968 145.862 465.968C146.174 464.968 146.61 464.012 147.17 463.1L148.034 463.484C147.522 464.348 147.142 465.276 146.894 466.268C146.654 467.252 146.534 468.244 146.534 469.244C146.534 470.252 146.654 471.248 146.894 472.232C147.142 473.216 147.522 474.14 148.034 475.004L147.17 475.388ZM152.036 473.168C151.484 473.168 150.992 473.068 150.56 472.868C150.128 472.66 149.784 472.38 149.528 472.028C149.28 471.668 149.156 471.26 149.156 470.804C149.156 470.412 149.232 470.064 149.384 469.76C149.536 469.456 149.732 469.196 149.972 468.98C150.212 468.756 150.464 468.572 150.728 468.428V468.368C150.408 468.136 150.132 467.852 149.9 467.516C149.668 467.172 149.552 466.768 149.552 466.304C149.552 465.848 149.66 465.448 149.876 465.104C150.1 464.76 150.4 464.496 150.776 464.312C151.16 464.12 151.596 464.024 152.084 464.024C152.596 464.024 153.036 464.124 153.404 464.324C153.772 464.524 154.056 464.8 154.256 465.152C154.464 465.496 154.568 465.9 154.568 466.364C154.568 466.66 154.508 466.94 154.388 467.204C154.268 467.468 154.12 467.708 153.944 467.924C153.776 468.132 153.596 468.304 153.404 468.44V468.5C153.676 468.644 153.924 468.824 154.148 469.04C154.372 469.248 154.552 469.5 154.688 469.796C154.824 470.092 154.892 470.44 154.892 470.84C154.892 471.272 154.772 471.664 154.532 472.016C154.3 472.368 153.968 472.648 153.536 472.856C153.112 473.064 152.612 473.168 152.036 473.168ZM152.624 468.092C152.88 467.844 153.072 467.584 153.2 467.312C153.336 467.032 153.404 466.74 153.404 466.436C153.404 466.172 153.352 465.932 153.248 465.716C153.144 465.5 152.988 465.332 152.78 465.212C152.58 465.084 152.336 465.02 152.048 465.02C151.688 465.02 151.388 465.136 151.148 465.368C150.908 465.592 150.788 465.904 150.788 466.304C150.788 466.624 150.872 466.892 151.04 467.108C151.208 467.324 151.432 467.508 151.712 467.66C151.992 467.812 152.296 467.956 152.624 468.092ZM152.072 472.16C152.368 472.16 152.628 472.104 152.852 471.992C153.084 471.88 153.264 471.724 153.392 471.524C153.52 471.316 153.584 471.072 153.584 470.792C153.584 470.528 153.528 470.3 153.416 470.108C153.304 469.908 153.148 469.736 152.948 469.592C152.756 469.448 152.528 469.316 152.264 469.196C152 469.068 151.716 468.944 151.412 468.824C151.108 469.04 150.86 469.308 150.668 469.628C150.476 469.94 150.38 470.284 150.38 470.66C150.38 470.956 150.452 471.216 150.596 471.44C150.748 471.664 150.952 471.84 151.208 471.968C151.464 472.096 151.752 472.16 152.072 472.16ZM158.879 473.168C158.303 473.168 157.799 472.996 157.367 472.652C156.935 472.308 156.599 471.796 156.359 471.116C156.127 470.428 156.011 469.572 156.011 468.548C156.011 467.524 156.127 466.676 156.359 466.004C156.599 465.332 156.935 464.832 157.367 464.504C157.799 464.168 158.303 464 158.879 464C159.455 464 159.955 464.168 160.379 464.504C160.803 464.84 161.131 465.344 161.363 466.016C161.603 466.68 161.723 467.524 161.723 468.548C161.723 469.572 161.603 470.428 161.363 471.116C161.131 471.796 160.803 472.308 160.379 472.652C159.955 472.996 159.455 473.168 158.879 473.168ZM158.879 472.064C159.175 472.064 159.439 471.948 159.671 471.716C159.903 471.484 160.083 471.112 160.211 470.6C160.339 470.08 160.403 469.396 160.403 468.548C160.403 467.7 160.339 467.024 160.211 466.52C160.083 466.016 159.903 465.652 159.671 465.428C159.439 465.204 159.175 465.092 158.879 465.092C158.583 465.092 158.319 465.204 158.087 465.428C157.855 465.652 157.671 466.016 157.535 466.52C157.407 467.024 157.343 467.7 157.343 468.548C157.343 469.396 157.407 470.08 157.535 470.6C157.671 471.112 157.855 471.484 158.087 471.716C158.319 471.948 158.583 472.064 158.879 472.064ZM163.239 475.4L162.927 474.62C163.343 474.444 163.667 474.208 163.899 473.912C164.131 473.624 164.243 473.3 164.235 472.94L164.139 471.836L164.715 472.748C164.635 472.836 164.543 472.9 164.439 472.94C164.335 472.972 164.223 472.988 164.103 472.988C163.863 472.988 163.647 472.912 163.455 472.76C163.271 472.6 163.179 472.38 163.179 472.1C163.179 471.828 163.271 471.612 163.455 471.452C163.647 471.292 163.875 471.212 164.139 471.212C164.483 471.212 164.747 471.344 164.931 471.608C165.115 471.872 165.207 472.236 165.207 472.7C165.207 473.332 165.031 473.88 164.679 474.344C164.335 474.816 163.855 475.168 163.239 475.4ZM169.933 473V467.24C169.933 467 169.941 466.716 169.957 466.388C169.973 466.052 169.985 465.764 169.993 465.524H169.945C169.833 465.748 169.717 465.976 169.597 466.208C169.485 466.44 169.365 466.668 169.237 466.892L167.509 469.544H172.345V470.624H166.105V469.7L169.621 464.156H171.229V473H169.933ZM176.141 473.168C175.565 473.168 175.061 472.996 174.629 472.652C174.197 472.308 173.861 471.796 173.621 471.116C173.389 470.428 173.273 469.572 173.273 468.548C173.273 467.524 173.389 466.676 173.621 466.004C173.861 465.332 174.197 464.832 174.629 464.504C175.061 464.168 175.565 464 176.141 464C176.717 464 177.217 464.168 177.641 464.504C178.065 464.84 178.393 465.344 178.625 466.016C178.865 466.68 178.985 467.524 178.985 468.548C178.985 469.572 178.865 470.428 178.625 471.116C178.393 471.796 178.065 472.308 177.641 472.652C177.217 472.996 176.717 473.168 176.141 473.168ZM176.141 472.064C176.437 472.064 176.701 471.948 176.933 471.716C177.165 471.484 177.345 471.112 177.473 470.6C177.601 470.08 177.665 469.396 177.665 468.548C177.665 467.7 177.601 467.024 177.473 466.52C177.345 466.016 177.165 465.652 176.933 465.428C176.701 465.204 176.437 465.092 176.141 465.092C175.845 465.092 175.581 465.204 175.349 465.428C175.117 465.652 174.933 466.016 174.797 466.52C174.669 467.024 174.605 467.7 174.605 468.548C174.605 469.396 174.669 470.08 174.797 470.6C174.933 471.112 175.117 471.484 175.349 471.716C175.581 471.948 175.845 472.064 176.141 472.064ZM182.985 473.168C182.409 473.168 181.905 472.996 181.473 472.652C181.041 472.308 180.705 471.796 180.465 471.116C180.233 470.428 180.117 469.572 180.117 468.548C180.117 467.524 180.233 466.676 180.465 466.004C180.705 465.332 181.041 464.832 181.473 464.504C181.905 464.168 182.409 464 182.985 464C183.561 464 184.061 464.168 184.485 464.504C184.909 464.84 185.237 465.344 185.469 466.016C185.709 466.68 185.829 467.524 185.829 468.548C185.829 469.572 185.709 470.428 185.469 471.116C185.237 471.796 184.909 472.308 184.485 472.652C184.061 472.996 183.561 473.168 182.985 473.168ZM182.985 472.064C183.281 472.064 183.545 471.948 183.777 471.716C184.009 471.484 184.189 471.112 184.317 470.6C184.445 470.08 184.509 469.396 184.509 468.548C184.509 467.7 184.445 467.024 184.317 466.52C184.189 466.016 184.009 465.652 183.777 465.428C183.545 465.204 183.281 465.092 182.985 465.092C182.689 465.092 182.425 465.204 182.193 465.428C181.961 465.652 181.777 466.016 181.641 466.52C181.513 467.024 181.449 467.7 181.449 468.548C181.449 469.396 181.513 470.08 181.641 470.6C181.777 471.112 181.961 471.484 182.193 471.716C182.425 471.948 182.689 472.064 182.985 472.064ZM187.812 475.388L186.948 475.004C187.46 474.14 187.84 473.216 188.088 472.232C188.336 471.248 188.46 470.252 188.46 469.244C188.46 468.244 188.336 467.252 188.088 466.268C187.84 465.276 187.46 464.348 186.948 463.484L187.812 463.1C188.38 464.012 188.82 464.968 189.132 465.968C189.444 466.968 189.6 468.06 189.6 469.244C189.6 470.436 189.444 471.532 189.132 472.532C188.82 473.524 188.38 474.476 187.812 475.388Z" fill="#DE006A"/>
<path d="M209.17 465.388C208.61 464.476 208.174 463.524 207.862 462.532C207.55 461.532 207.394 460.436 207.394 459.244C207.394 458.06 207.55 456.968 207.862 455.968C208.174 454.968 208.61 454.012 209.17 453.1L210.034 453.484C209.522 454.348 209.142 455.276 208.894 456.268C208.654 457.252 208.534 458.244 208.534 459.244C208.534 460.252 208.654 461.248 208.894 462.232C209.142 463.216 209.522 464.14 210.034 465.004L209.17 465.388ZM213.532 463.168C213.02 463.168 212.576 463.076 212.2 462.892C211.832 462.7 211.52 462.476 211.264 462.22L212.02 461.356C212.196 461.556 212.412 461.716 212.668 461.836C212.924 461.956 213.188 462.016 213.46 462.016C213.74 462.016 214.004 461.952 214.252 461.824C214.508 461.696 214.728 461.488 214.912 461.2C215.104 460.912 215.252 460.528 215.356 460.048C215.468 459.568 215.524 458.98 215.524 458.284C215.524 457.548 215.452 456.944 215.308 456.472C215.164 455.992 214.96 455.64 214.696 455.416C214.44 455.184 214.132 455.068 213.772 455.068C213.516 455.068 213.284 455.144 213.076 455.296C212.868 455.44 212.704 455.648 212.584 455.92C212.464 456.192 212.404 456.52 212.404 456.904C212.404 457.28 212.456 457.6 212.56 457.864C212.672 458.128 212.836 458.332 213.052 458.476C213.268 458.612 213.528 458.68 213.832 458.68C214.112 458.68 214.4 458.592 214.696 458.416C214.992 458.24 215.272 457.952 215.536 457.552L215.596 458.572C215.428 458.796 215.232 458.992 215.008 459.16C214.784 459.328 214.552 459.46 214.312 459.556C214.072 459.644 213.832 459.688 213.592 459.688C213.104 459.688 212.672 459.584 212.296 459.376C211.928 459.168 211.636 458.86 211.42 458.452C211.212 458.036 211.108 457.52 211.108 456.904C211.108 456.32 211.228 455.812 211.468 455.38C211.716 454.94 212.04 454.6 212.44 454.36C212.84 454.12 213.276 454 213.748 454C214.172 454 214.568 454.088 214.936 454.264C215.312 454.432 215.636 454.692 215.908 455.044C216.188 455.396 216.408 455.84 216.568 456.376C216.728 456.912 216.808 457.548 216.808 458.284C216.808 459.148 216.72 459.892 216.544 460.516C216.368 461.132 216.124 461.636 215.812 462.028C215.5 462.412 215.148 462.7 214.756 462.892C214.364 463.076 213.956 463.168 213.532 463.168ZM220.663 463.168C220.207 463.168 219.799 463.112 219.439 463C219.079 462.888 218.763 462.74 218.491 462.556C218.219 462.372 217.979 462.18 217.771 461.98L218.431 461.08C218.599 461.248 218.783 461.404 218.983 461.548C219.183 461.684 219.407 461.796 219.655 461.884C219.911 461.972 220.195 462.016 220.507 462.016C220.835 462.016 221.131 461.944 221.395 461.8C221.659 461.648 221.867 461.432 222.019 461.152C222.171 460.864 222.247 460.524 222.247 460.132C222.247 459.556 222.091 459.108 221.779 458.788C221.475 458.468 221.071 458.308 220.567 458.308C220.287 458.308 220.047 458.348 219.847 458.428C219.647 458.508 219.419 458.632 219.163 458.8L218.479 458.356L218.743 454.156H223.219V455.332H219.943L219.739 457.588C219.931 457.492 220.123 457.42 220.315 457.372C220.507 457.316 220.719 457.288 220.951 457.288C221.447 457.288 221.899 457.388 222.307 457.588C222.715 457.788 223.039 458.096 223.279 458.512C223.519 458.92 223.639 459.448 223.639 460.096C223.639 460.744 223.499 461.3 223.219 461.764C222.939 462.22 222.571 462.568 222.115 462.808C221.667 463.048 221.183 463.168 220.663 463.168ZM225.239 465.4L224.927 464.62C225.343 464.444 225.667 464.208 225.899 463.912C226.131 463.624 226.243 463.3 226.235 462.94L226.139 461.836L226.715 462.748C226.635 462.836 226.543 462.9 226.439 462.94C226.335 462.972 226.223 462.988 226.103 462.988C225.863 462.988 225.647 462.912 225.455 462.76C225.271 462.6 225.179 462.38 225.179 462.1C225.179 461.828 225.271 461.612 225.455 461.452C225.647 461.292 225.875 461.212 226.139 461.212C226.483 461.212 226.747 461.344 226.931 461.608C227.115 461.872 227.207 462.236 227.207 462.7C227.207 463.332 227.031 463.88 226.679 464.344C226.335 464.816 225.855 465.168 225.239 465.4ZM231.081 463.168C230.617 463.168 230.205 463.112 229.845 463C229.493 462.888 229.181 462.74 228.909 462.556C228.637 462.364 228.401 462.16 228.201 461.944L228.873 461.056C229.137 461.312 229.437 461.536 229.773 461.728C230.109 461.92 230.505 462.016 230.961 462.016C231.297 462.016 231.589 461.96 231.837 461.848C232.085 461.728 232.277 461.56 232.413 461.344C232.557 461.128 232.629 460.864 232.629 460.552C232.629 460.232 232.549 459.952 232.389 459.712C232.237 459.464 231.969 459.276 231.585 459.148C231.209 459.012 230.689 458.944 230.025 458.944V457.912C230.609 457.912 231.065 457.848 231.393 457.72C231.729 457.584 231.969 457.4 232.113 457.168C232.265 456.936 232.341 456.672 232.341 456.376C232.341 455.992 232.221 455.688 231.981 455.464C231.741 455.232 231.409 455.116 230.985 455.116C230.649 455.116 230.333 455.192 230.037 455.344C229.749 455.488 229.477 455.684 229.221 455.932L228.501 455.068C228.853 454.748 229.237 454.492 229.653 454.3C230.069 454.1 230.529 454 231.033 454C231.561 454 232.029 454.092 232.437 454.276C232.845 454.452 233.165 454.708 233.397 455.044C233.629 455.38 233.745 455.792 233.745 456.28C233.745 456.784 233.605 457.212 233.325 457.564C233.053 457.916 232.685 458.18 232.221 458.356V458.404C232.557 458.492 232.861 458.636 233.133 458.836C233.413 459.028 233.633 459.276 233.793 459.58C233.953 459.884 234.033 460.232 234.033 460.624C234.033 461.152 233.897 461.608 233.625 461.992C233.361 462.368 233.005 462.66 232.557 462.868C232.109 463.068 231.617 463.168 231.081 463.168ZM237.637 463.168C237.125 463.168 236.681 463.076 236.305 462.892C235.937 462.7 235.625 462.476 235.369 462.22L236.125 461.356C236.301 461.556 236.517 461.716 236.773 461.836C237.029 461.956 237.293 462.016 237.565 462.016C237.845 462.016 238.109 461.952 238.357 461.824C238.613 461.696 238.833 461.488 239.017 461.2C239.209 460.912 239.357 460.528 239.461 460.048C239.573 459.568 239.629 458.98 239.629 458.284C239.629 457.548 239.557 456.944 239.413 456.472C239.269 455.992 239.065 455.64 238.801 455.416C238.545 455.184 238.237 455.068 237.877 455.068C237.621 455.068 237.389 455.144 237.181 455.296C236.973 455.44 236.809 455.648 236.689 455.92C236.569 456.192 236.509 456.52 236.509 456.904C236.509 457.28 236.561 457.6 236.665 457.864C236.777 458.128 236.941 458.332 237.157 458.476C237.373 458.612 237.633 458.68 237.937 458.68C238.217 458.68 238.505 458.592 238.801 458.416C239.097 458.24 239.377 457.952 239.641 457.552L239.701 458.572C239.533 458.796 239.337 458.992 239.113 459.16C238.889 459.328 238.657 459.46 238.417 459.556C238.177 459.644 237.937 459.688 237.697 459.688C237.209 459.688 236.777 459.584 236.401 459.376C236.033 459.168 235.741 458.86 235.525 458.452C235.317 458.036 235.213 457.52 235.213 456.904C235.213 456.32 235.333 455.812 235.573 455.38C235.821 454.94 236.145 454.6 236.545 454.36C236.945 454.12 237.381 454 237.853 454C238.277 454 238.673 454.088 239.041 454.264C239.417 454.432 239.741 454.692 240.013 455.044C240.293 455.396 240.513 455.84 240.673 456.376C240.833 456.912 240.913 457.548 240.913 458.284C240.913 459.148 240.825 459.892 240.649 460.516C240.473 461.132 240.229 461.636 239.917 462.028C239.605 462.412 239.253 462.7 238.861 462.892C238.469 463.076 238.061 463.168 237.637 463.168ZM244.985 463.168C244.409 463.168 243.905 462.996 243.473 462.652C243.041 462.308 242.705 461.796 242.465 461.116C242.233 460.428 242.117 459.572 242.117 458.548C242.117 457.524 242.233 456.676 242.465 456.004C242.705 455.332 243.041 454.832 243.473 454.504C243.905 454.168 244.409 454 244.985 454C245.561 454 246.061 454.168 246.485 454.504C246.909 454.84 247.237 455.344 247.469 456.016C247.709 456.68 247.829 457.524 247.829 458.548C247.829 459.572 247.709 460.428 247.469 461.116C247.237 461.796 246.909 462.308 246.485 462.652C246.061 462.996 245.561 463.168 244.985 463.168ZM244.985 462.064C245.281 462.064 245.545 461.948 245.777 461.716C246.009 461.484 246.189 461.112 246.317 460.6C246.445 460.08 246.509 459.396 246.509 458.548C246.509 457.7 246.445 457.024 246.317 456.52C246.189 456.016 246.009 455.652 245.777 455.428C245.545 455.204 245.281 455.092 244.985 455.092C244.689 455.092 244.425 455.204 244.193 455.428C243.961 455.652 243.777 456.016 243.641 456.52C243.513 457.024 243.449 457.7 243.449 458.548C243.449 459.396 243.513 460.08 243.641 460.6C243.777 461.112 243.961 461.484 244.193 461.716C244.425 461.948 244.689 462.064 244.985 462.064ZM249.812 465.388L248.948 465.004C249.46 464.14 249.84 463.216 250.088 462.232C250.336 461.248 250.46 460.252 250.46 459.244C250.46 458.244 250.336 457.252 250.088 456.268C249.84 455.276 249.46 454.348 248.948 453.484L249.812 453.1C250.38 454.012 250.82 454.968 251.132 455.968C251.444 456.968 251.6 458.06 251.6 459.244C251.6 460.436 251.444 461.532 251.132 462.532C250.82 463.524 250.38 464.476 249.812 465.388Z" fill="#DE006A"/>
<path fill-rule="evenodd" clip-rule="evenodd" d="M191.5 476H190.5V477.5H189V478.5H190.5V480H191.5V478.5H193V477.5H191.5V476Z" fill="#DE006A"/>
<path fill-rule="evenodd" clip-rule="evenodd" d="M111.5 76H110.5V77.5H109V78.5H110.5V80H111.5V78.5H113V77.5H111.5V76Z" fill="#DE006A"/>
<path fill-rule="evenodd" clip-rule="evenodd" d="M206.5 466H205.5V467.5H204V468.5H205.5V470H206.5V468.5H208V467.5H206.5V466Z" fill="#DE006A"/>
</svg>
