<svg width="527" height="400" viewBox="0 0 527 400" fill="none" xmlns="http://www.w3.org/2000/svg">
<rect width="527" height="398.801" transform="translate(0 0.800049)" fill="#F5F5F5"/>
<rect x="123.5" y="40.8" width="70" height="20" rx="10" fill="#212121"/>
<path d="M135.068 55.968C134.612 55.968 134.204 55.912 133.844 55.8C133.484 55.688 133.168 55.54 132.896 55.356C132.624 55.172 132.384 54.98 132.176 54.78L132.836 53.88C133.004 54.048 133.188 54.204 133.388 54.348C133.588 54.484 133.812 54.596 134.06 54.684C134.316 54.772 134.6 54.816 134.912 54.816C135.24 54.816 135.536 54.748 135.8 54.612C136.064 54.468 136.272 54.264 136.424 54C136.576 53.736 136.652 53.424 136.652 53.064C136.652 52.52 136.496 52.096 136.184 51.792C135.88 51.488 135.476 51.336 134.972 51.336C134.692 51.336 134.452 51.38 134.252 51.468C134.052 51.548 133.824 51.672 133.568 51.84L132.884 51.408L133.148 47.208H137.624V48.384H134.348L134.144 50.64C134.336 50.544 134.528 50.472 134.72 50.424C134.912 50.368 135.124 50.34 135.356 50.34C135.852 50.34 136.304 50.436 136.712 50.628C137.12 50.812 137.444 51.104 137.684 51.504C137.924 51.896 138.044 52.4 138.044 53.016C138.044 53.64 137.904 54.172 137.624 54.612C137.344 55.052 136.976 55.388 136.52 55.62C136.072 55.852 135.588 55.968 135.068 55.968ZM144.223 55.968C143.775 55.968 143.327 55.88 142.879 55.704C142.439 55.528 142.059 55.308 141.739 55.044L142.399 54.144C142.687 54.376 142.979 54.564 143.275 54.708C143.579 54.844 143.907 54.912 144.259 54.912C144.651 54.912 144.939 54.828 145.123 54.66C145.315 54.484 145.411 54.272 145.411 54.024C145.411 53.824 145.339 53.656 145.195 53.52C145.059 53.384 144.879 53.268 144.655 53.172C144.431 53.068 144.199 52.972 143.959 52.884C143.663 52.772 143.371 52.64 143.083 52.488C142.803 52.328 142.571 52.128 142.387 51.888C142.203 51.64 142.111 51.332 142.111 50.964C142.111 50.588 142.203 50.256 142.387 49.968C142.579 49.68 142.851 49.452 143.203 49.284C143.555 49.116 143.975 49.032 144.463 49.032C144.903 49.032 145.303 49.108 145.663 49.26C146.031 49.412 146.343 49.596 146.599 49.812L145.963 50.664C145.731 50.496 145.495 50.36 145.255 50.256C145.015 50.144 144.763 50.088 144.499 50.088C144.131 50.088 143.859 50.168 143.683 50.328C143.507 50.48 143.419 50.672 143.419 50.904C143.419 51.088 143.483 51.24 143.611 51.36C143.739 51.48 143.907 51.584 144.115 51.672C144.331 51.76 144.559 51.852 144.799 51.948C145.031 52.028 145.259 52.124 145.483 52.236C145.715 52.34 145.923 52.468 146.107 52.62C146.291 52.764 146.439 52.944 146.551 53.16C146.671 53.368 146.731 53.628 146.731 53.94C146.731 54.308 146.635 54.648 146.443 54.96C146.251 55.272 145.971 55.52 145.603 55.704C145.235 55.88 144.775 55.968 144.223 55.968ZM150.96 55.968C150.36 55.968 149.816 55.832 149.328 55.56C148.84 55.28 148.452 54.884 148.164 54.372C147.876 53.852 147.732 53.228 147.732 52.5C147.732 51.964 147.816 51.484 147.984 51.06C148.152 50.628 148.38 50.264 148.668 49.968C148.956 49.664 149.28 49.432 149.64 49.272C150 49.112 150.368 49.032 150.744 49.032C151.328 49.032 151.82 49.164 152.22 49.428C152.62 49.684 152.924 50.048 153.132 50.52C153.34 50.984 153.444 51.528 153.444 52.152C153.444 52.288 153.436 52.42 153.42 52.548C153.412 52.668 153.396 52.772 153.372 52.86H149.088C149.128 53.276 149.236 53.636 149.412 53.94C149.596 54.236 149.832 54.468 150.12 54.636C150.416 54.796 150.752 54.876 151.128 54.876C151.424 54.876 151.7 54.832 151.956 54.744C152.212 54.656 152.46 54.536 152.7 54.384L153.18 55.26C152.876 55.46 152.536 55.628 152.16 55.764C151.792 55.9 151.392 55.968 150.96 55.968ZM149.076 51.9H152.244C152.244 51.34 152.116 50.904 151.86 50.592C151.612 50.28 151.248 50.124 150.768 50.124C150.496 50.124 150.24 50.192 150 50.328C149.76 50.464 149.556 50.664 149.388 50.928C149.228 51.192 149.124 51.516 149.076 51.9ZM154.997 55.8V49.188H156.125L156.245 50.112H156.269C156.573 49.816 156.901 49.564 157.253 49.356C157.605 49.14 158.005 49.032 158.453 49.032C159.157 49.032 159.669 49.26 159.989 49.716C160.317 50.164 160.481 50.808 160.481 51.648V55.8H159.101V51.816C159.101 51.248 159.013 50.844 158.837 50.604C158.661 50.356 158.377 50.232 157.985 50.232C157.681 50.232 157.409 50.308 157.169 50.46C156.937 50.604 156.673 50.824 156.377 51.12V55.8H154.997ZM164.273 55.968C163.825 55.968 163.377 55.88 162.929 55.704C162.489 55.528 162.109 55.308 161.789 55.044L162.449 54.144C162.737 54.376 163.029 54.564 163.325 54.708C163.629 54.844 163.957 54.912 164.309 54.912C164.701 54.912 164.989 54.828 165.173 54.66C165.365 54.484 165.461 54.272 165.461 54.024C165.461 53.824 165.389 53.656 165.245 53.52C165.109 53.384 164.929 53.268 164.705 53.172C164.481 53.068 164.249 52.972 164.009 52.884C163.713 52.772 163.421 52.64 163.133 52.488C162.853 52.328 162.621 52.128 162.437 51.888C162.253 51.64 162.161 51.332 162.161 50.964C162.161 50.588 162.253 50.256 162.437 49.968C162.629 49.68 162.901 49.452 163.253 49.284C163.605 49.116 164.025 49.032 164.513 49.032C164.953 49.032 165.353 49.108 165.713 49.26C166.081 49.412 166.393 49.596 166.649 49.812L166.013 50.664C165.781 50.496 165.545 50.36 165.305 50.256C165.065 50.144 164.813 50.088 164.549 50.088C164.181 50.088 163.909 50.168 163.733 50.328C163.557 50.48 163.469 50.672 163.469 50.904C163.469 51.088 163.533 51.24 163.661 51.36C163.789 51.48 163.957 51.584 164.165 51.672C164.381 51.76 164.609 51.852 164.849 51.948C165.081 52.028 165.309 52.124 165.533 52.236C165.765 52.34 165.973 52.468 166.157 52.62C166.341 52.764 166.489 52.944 166.601 53.16C166.721 53.368 166.781 53.628 166.781 53.94C166.781 54.308 166.685 54.648 166.493 54.96C166.301 55.272 166.021 55.52 165.653 55.704C165.285 55.88 164.825 55.968 164.273 55.968ZM170.903 55.968C170.359 55.968 169.847 55.832 169.367 55.56C168.895 55.28 168.511 54.884 168.215 54.372C167.927 53.852 167.783 53.228 167.783 52.5C167.783 51.764 167.927 51.14 168.215 50.628C168.511 50.108 168.895 49.712 169.367 49.44C169.847 49.168 170.359 49.032 170.903 49.032C171.303 49.032 171.691 49.112 172.067 49.272C172.443 49.424 172.775 49.648 173.063 49.944C173.351 50.24 173.579 50.604 173.747 51.036C173.915 51.46 173.999 51.948 173.999 52.5C173.999 53.228 173.851 53.852 173.555 54.372C173.267 54.884 172.887 55.28 172.415 55.56C171.951 55.832 171.447 55.968 170.903 55.968ZM170.903 54.816C171.247 54.816 171.543 54.72 171.791 54.528C172.047 54.336 172.243 54.068 172.379 53.724C172.515 53.372 172.583 52.964 172.583 52.5C172.583 52.036 172.515 51.632 172.379 51.288C172.243 50.936 172.047 50.664 171.791 50.472C171.543 50.272 171.247 50.172 170.903 50.172C170.551 50.172 170.247 50.272 169.991 50.472C169.743 50.664 169.551 50.936 169.415 51.288C169.279 51.632 169.211 52.036 169.211 52.5C169.211 52.964 169.279 53.372 169.415 53.724C169.551 54.068 169.743 54.336 169.991 54.528C170.247 54.72 170.551 54.816 170.903 54.816ZM175.634 55.8V49.188H176.762L176.882 50.376H176.906C177.146 49.952 177.43 49.624 177.758 49.392C178.086 49.152 178.43 49.032 178.79 49.032C178.95 49.032 179.086 49.044 179.198 49.068C179.31 49.092 179.418 49.124 179.522 49.164L179.282 50.376C179.162 50.336 179.054 50.308 178.958 50.292C178.862 50.276 178.746 50.268 178.61 50.268C178.346 50.268 178.066 50.376 177.77 50.592C177.474 50.8 177.222 51.168 177.014 51.696V55.8H175.634ZM182.215 55.968C181.767 55.968 181.319 55.88 180.871 55.704C180.431 55.528 180.051 55.308 179.731 55.044L180.391 54.144C180.679 54.376 180.971 54.564 181.267 54.708C181.571 54.844 181.899 54.912 182.251 54.912C182.643 54.912 182.931 54.828 183.115 54.66C183.307 54.484 183.403 54.272 183.403 54.024C183.403 53.824 183.331 53.656 183.187 53.52C183.051 53.384 182.871 53.268 182.647 53.172C182.423 53.068 182.191 52.972 181.951 52.884C181.655 52.772 181.363 52.64 181.075 52.488C180.795 52.328 180.563 52.128 180.379 51.888C180.195 51.64 180.103 51.332 180.103 50.964C180.103 50.588 180.195 50.256 180.379 49.968C180.571 49.68 180.843 49.452 181.195 49.284C181.547 49.116 181.967 49.032 182.455 49.032C182.895 49.032 183.295 49.108 183.655 49.26C184.023 49.412 184.335 49.596 184.591 49.812L183.955 50.664C183.723 50.496 183.487 50.36 183.247 50.256C183.007 50.144 182.755 50.088 182.491 50.088C182.123 50.088 181.851 50.168 181.675 50.328C181.499 50.48 181.411 50.672 181.411 50.904C181.411 51.088 181.475 51.24 181.603 51.36C181.731 51.48 181.899 51.584 182.107 51.672C182.323 51.76 182.551 51.852 182.791 51.948C183.023 52.028 183.251 52.124 183.475 52.236C183.707 52.34 183.915 52.468 184.099 52.62C184.283 52.764 184.431 52.944 184.543 53.16C184.663 53.368 184.723 53.628 184.723 53.94C184.723 54.308 184.627 54.648 184.435 54.96C184.243 55.272 183.963 55.52 183.595 55.704C183.227 55.88 182.767 55.968 182.215 55.968Z" fill="white"/>
<rect x="157.5" y="80.8" width="2" height="50" fill="#FF0000"/>
<rect x="115.5" y="129.2" width="44" height="2" fill="#FFBB55"/>
<rect x="157.5" y="129.2" width="44" height="2" fill="#00A3FF"/>
<rect x="157.5" y="129.626" width="60" height="2" transform="rotate(-45 157.5 129.626)" fill="#00A3FF"/>
<rect x="158.926" y="131.04" width="60" height="2" transform="rotate(-135 158.926 131.04)" fill="#FFBB55"/>
<path d="M139 116.2L141 114.2L143 112.2H173L175 114.2L177 116.2V144.2L175 146.2L173 148.2H143L141 146.2L139 144.2V116.2Z" fill="#AAAAAA"/>
<path fill-rule="evenodd" clip-rule="evenodd" d="M153 115.2H163V118.2H153V115.2ZM174 118.2V128.2H172V118.2H174ZM145 128.2L145 118.2L142 118.2V128.2H145Z" fill="#DEDEDE"/>
<path fill-rule="evenodd" clip-rule="evenodd" d="M163 117.2H153V118.2H163V117.2ZM143 118.2L143 128.2H142V118.2L143 118.2ZM172 118.2V128.2H171V118.2L172 118.2Z" fill="#B6B6B6"/>
<path fill-rule="evenodd" clip-rule="evenodd" d="M143 110.2H173V112.2H143V110.2ZM141 114.2V112.2H143V114.2H141ZM139 116.2V114.2H141V116.2H139ZM141 146.2V144.2H139V133.2V116.2H137V133.2H133V146.2H139H141ZM143 148.2H141V146.2H143V148.2ZM173 148.2V150.2H143V148.2H173ZM175 146.2V148.2H173V146.2H175ZM177 116.2H179V133.2H183V146.2H177H175V144.2H177V133.2V116.2ZM175 114.2H177V116.2H175V114.2ZM175 114.2V112.2H173V114.2H175Z" fill="black"/>
<path fill-rule="evenodd" clip-rule="evenodd" d="M139 142.2H141V144.2H139V142.2ZM143 146.2H141V144.2H143V146.2ZM173 146.2V148.2H143V146.2H173ZM175 144.2V146.2H173V144.2H175ZM175 144.2V142.2H177V144.2H175Z" fill="#7B7B7B"/>
<rect x="151" y="123.2" width="14" height="14" fill="#2D3648"/>
<path fill-rule="evenodd" clip-rule="evenodd" d="M163 138.2H162V135.2H160V138.2H159V135.2L157 135.2V138.2H156V135.2H154L154 138.2H153L153 135.2H150V134.2H153L153 132.2H150V131.2H153L153 129.2H150V128.2H153L153 126.2H150V125.2H153L153 122.2H154L154 125.2H156V122.2H157V125.2H159V122.2H160V125.2H162V122.2H163V125.2H166V126.2H163V128.2H166V129.2H163L163 131.2H166V132.2H163V134.2H166V135.2H163V138.2ZM162 126.2H160V128.2H162V126.2ZM162 129.2H160V131.2H162V129.2ZM162 132.2H160V134.2H162V132.2ZM159 134.2V132.2L157 132.2V134.2L159 134.2ZM156 134.2V132.2H154V134.2H156ZM154 131.2H156V129.2H154L154 131.2ZM154 128.2H156V126.2H154V128.2ZM157 126.2V128.2H159V126.2H157ZM159 129.2H157V131.2H159V129.2Z" fill="#FFCC19"/>
<rect x="152" y="124.2" width="12" height="12" fill="#2D3648"/>
<rect x="153" y="125.2" width="10" height="10" fill="#D9D9D9"/>
<rect x="153" y="133.2" width="10" height="2" fill="#A7A7A7"/>
<rect x="153" y="131.2" width="10" height="2" fill="#BCBCBC"/>
<path fill-rule="evenodd" clip-rule="evenodd" d="M154 125.2H153V126.2H154V125.2ZM163 125.2H162V126.2H163V125.2ZM162 134.2H163V135.2H162V134.2ZM154 134.2H153V135.2H154V134.2Z" fill="#2D3648"/>
<rect x="123.5" y="250.2" width="70" height="20" rx="10" fill="#212121"/>
<path d="M135.068 265.368C134.604 265.368 134.192 265.312 133.832 265.2C133.48 265.088 133.168 264.94 132.896 264.756C132.624 264.564 132.388 264.36 132.188 264.144L132.86 263.256C133.124 263.512 133.424 263.736 133.76 263.928C134.096 264.12 134.492 264.216 134.948 264.216C135.284 264.216 135.576 264.16 135.824 264.048C136.072 263.936 136.264 263.776 136.4 263.568C136.544 263.36 136.616 263.112 136.616 262.824C136.616 262.504 136.536 262.232 136.376 262.008C136.224 261.776 135.956 261.596 135.572 261.468C135.196 261.34 134.676 261.276 134.012 261.276V260.244C134.596 260.244 135.052 260.18 135.38 260.052C135.716 259.916 135.956 259.74 136.1 259.524C136.252 259.3 136.328 259.052 136.328 258.78C136.328 258.396 136.208 258.096 135.968 257.88C135.728 257.656 135.396 257.544 134.972 257.544C134.636 257.544 134.32 257.624 134.024 257.784C133.736 257.936 133.464 258.136 133.208 258.384L132.488 257.52C132.84 257.208 133.224 256.952 133.64 256.752C134.056 256.544 134.516 256.44 135.02 256.44C135.548 256.44 136.016 256.528 136.424 256.704C136.832 256.88 137.152 257.136 137.384 257.472C137.616 257.8 137.732 258.2 137.732 258.672C137.732 259.168 137.592 259.584 137.312 259.92C137.04 260.248 136.672 260.5 136.208 260.676V260.736C136.544 260.816 136.848 260.952 137.12 261.144C137.4 261.336 137.62 261.58 137.78 261.876C137.94 262.164 138.02 262.504 138.02 262.896C138.02 263.416 137.884 263.86 137.612 264.228C137.348 264.596 136.992 264.88 136.544 265.08C136.096 265.272 135.604 265.368 135.068 265.368ZM144.223 265.368C143.775 265.368 143.327 265.28 142.879 265.104C142.439 264.928 142.059 264.708 141.739 264.444L142.399 263.544C142.687 263.776 142.979 263.964 143.275 264.108C143.579 264.244 143.907 264.312 144.259 264.312C144.651 264.312 144.939 264.228 145.123 264.06C145.315 263.884 145.411 263.672 145.411 263.424C145.411 263.224 145.339 263.056 145.195 262.92C145.059 262.784 144.879 262.668 144.655 262.572C144.431 262.468 144.199 262.372 143.959 262.284C143.663 262.172 143.371 262.04 143.083 261.888C142.803 261.728 142.571 261.528 142.387 261.288C142.203 261.04 142.111 260.732 142.111 260.364C142.111 259.988 142.203 259.656 142.387 259.368C142.579 259.08 142.851 258.852 143.203 258.684C143.555 258.516 143.975 258.432 144.463 258.432C144.903 258.432 145.303 258.508 145.663 258.66C146.031 258.812 146.343 258.996 146.599 259.212L145.963 260.064C145.731 259.896 145.495 259.76 145.255 259.656C145.015 259.544 144.763 259.488 144.499 259.488C144.131 259.488 143.859 259.568 143.683 259.728C143.507 259.88 143.419 260.072 143.419 260.304C143.419 260.488 143.483 260.64 143.611 260.76C143.739 260.88 143.907 260.984 144.115 261.072C144.331 261.16 144.559 261.252 144.799 261.348C145.031 261.428 145.259 261.524 145.483 261.636C145.715 261.74 145.923 261.868 146.107 262.02C146.291 262.164 146.439 262.344 146.551 262.56C146.671 262.768 146.731 263.028 146.731 263.34C146.731 263.708 146.635 264.048 146.443 264.36C146.251 264.672 145.971 264.92 145.603 265.104C145.235 265.28 144.775 265.368 144.223 265.368ZM150.96 265.368C150.36 265.368 149.816 265.232 149.328 264.96C148.84 264.68 148.452 264.284 148.164 263.772C147.876 263.252 147.732 262.628 147.732 261.9C147.732 261.364 147.816 260.884 147.984 260.46C148.152 260.028 148.38 259.664 148.668 259.368C148.956 259.064 149.28 258.832 149.64 258.672C150 258.512 150.368 258.432 150.744 258.432C151.328 258.432 151.82 258.564 152.22 258.828C152.62 259.084 152.924 259.448 153.132 259.92C153.34 260.384 153.444 260.928 153.444 261.552C153.444 261.688 153.436 261.82 153.42 261.948C153.412 262.068 153.396 262.172 153.372 262.26H149.088C149.128 262.676 149.236 263.036 149.412 263.34C149.596 263.636 149.832 263.868 150.12 264.036C150.416 264.196 150.752 264.276 151.128 264.276C151.424 264.276 151.7 264.232 151.956 264.144C152.212 264.056 152.46 263.936 152.7 263.784L153.18 264.66C152.876 264.86 152.536 265.028 152.16 265.164C151.792 265.3 151.392 265.368 150.96 265.368ZM149.076 261.3H152.244C152.244 260.74 152.116 260.304 151.86 259.992C151.612 259.68 151.248 259.524 150.768 259.524C150.496 259.524 150.24 259.592 150 259.728C149.76 259.864 149.556 260.064 149.388 260.328C149.228 260.592 149.124 260.916 149.076 261.3ZM154.997 265.2V258.588H156.125L156.245 259.512H156.269C156.573 259.216 156.901 258.964 157.253 258.756C157.605 258.54 158.005 258.432 158.453 258.432C159.157 258.432 159.669 258.66 159.989 259.116C160.317 259.564 160.481 260.208 160.481 261.048V265.2H159.101V261.216C159.101 260.648 159.013 260.244 158.837 260.004C158.661 259.756 158.377 259.632 157.985 259.632C157.681 259.632 157.409 259.708 157.169 259.86C156.937 260.004 156.673 260.224 156.377 260.52V265.2H154.997ZM164.273 265.368C163.825 265.368 163.377 265.28 162.929 265.104C162.489 264.928 162.109 264.708 161.789 264.444L162.449 263.544C162.737 263.776 163.029 263.964 163.325 264.108C163.629 264.244 163.957 264.312 164.309 264.312C164.701 264.312 164.989 264.228 165.173 264.06C165.365 263.884 165.461 263.672 165.461 263.424C165.461 263.224 165.389 263.056 165.245 262.92C165.109 262.784 164.929 262.668 164.705 262.572C164.481 262.468 164.249 262.372 164.009 262.284C163.713 262.172 163.421 262.04 163.133 261.888C162.853 261.728 162.621 261.528 162.437 261.288C162.253 261.04 162.161 260.732 162.161 260.364C162.161 259.988 162.253 259.656 162.437 259.368C162.629 259.08 162.901 258.852 163.253 258.684C163.605 258.516 164.025 258.432 164.513 258.432C164.953 258.432 165.353 258.508 165.713 258.66C166.081 258.812 166.393 258.996 166.649 259.212L166.013 260.064C165.781 259.896 165.545 259.76 165.305 259.656C165.065 259.544 164.813 259.488 164.549 259.488C164.181 259.488 163.909 259.568 163.733 259.728C163.557 259.88 163.469 260.072 163.469 260.304C163.469 260.488 163.533 260.64 163.661 260.76C163.789 260.88 163.957 260.984 164.165 261.072C164.381 261.16 164.609 261.252 164.849 261.348C165.081 261.428 165.309 261.524 165.533 261.636C165.765 261.74 165.973 261.868 166.157 262.02C166.341 262.164 166.489 262.344 166.601 262.56C166.721 262.768 166.781 263.028 166.781 263.34C166.781 263.708 166.685 264.048 166.493 264.36C166.301 264.672 166.021 264.92 165.653 265.104C165.285 265.28 164.825 265.368 164.273 265.368ZM170.903 265.368C170.359 265.368 169.847 265.232 169.367 264.96C168.895 264.68 168.511 264.284 168.215 263.772C167.927 263.252 167.783 262.628 167.783 261.9C167.783 261.164 167.927 260.54 168.215 260.028C168.511 259.508 168.895 259.112 169.367 258.84C169.847 258.568 170.359 258.432 170.903 258.432C171.303 258.432 171.691 258.512 172.067 258.672C172.443 258.824 172.775 259.048 173.063 259.344C173.351 259.64 173.579 260.004 173.747 260.436C173.915 260.86 173.999 261.348 173.999 261.9C173.999 262.628 173.851 263.252 173.555 263.772C173.267 264.284 172.887 264.68 172.415 264.96C171.951 265.232 171.447 265.368 170.903 265.368ZM170.903 264.216C171.247 264.216 171.543 264.12 171.791 263.928C172.047 263.736 172.243 263.468 172.379 263.124C172.515 262.772 172.583 262.364 172.583 261.9C172.583 261.436 172.515 261.032 172.379 260.688C172.243 260.336 172.047 260.064 171.791 259.872C171.543 259.672 171.247 259.572 170.903 259.572C170.551 259.572 170.247 259.672 169.991 259.872C169.743 260.064 169.551 260.336 169.415 260.688C169.279 261.032 169.211 261.436 169.211 261.9C169.211 262.364 169.279 262.772 169.415 263.124C169.551 263.468 169.743 263.736 169.991 263.928C170.247 264.12 170.551 264.216 170.903 264.216ZM175.634 265.2V258.588H176.762L176.882 259.776H176.906C177.146 259.352 177.43 259.024 177.758 258.792C178.086 258.552 178.43 258.432 178.79 258.432C178.95 258.432 179.086 258.444 179.198 258.468C179.31 258.492 179.418 258.524 179.522 258.564L179.282 259.776C179.162 259.736 179.054 259.708 178.958 259.692C178.862 259.676 178.746 259.668 178.61 259.668C178.346 259.668 178.066 259.776 177.77 259.992C177.474 260.2 177.222 260.568 177.014 261.096V265.2H175.634ZM182.215 265.368C181.767 265.368 181.319 265.28 180.871 265.104C180.431 264.928 180.051 264.708 179.731 264.444L180.391 263.544C180.679 263.776 180.971 263.964 181.267 264.108C181.571 264.244 181.899 264.312 182.251 264.312C182.643 264.312 182.931 264.228 183.115 264.06C183.307 263.884 183.403 263.672 183.403 263.424C183.403 263.224 183.331 263.056 183.187 262.92C183.051 262.784 182.871 262.668 182.647 262.572C182.423 262.468 182.191 262.372 181.951 262.284C181.655 262.172 181.363 262.04 181.075 261.888C180.795 261.728 180.563 261.528 180.379 261.288C180.195 261.04 180.103 260.732 180.103 260.364C180.103 259.988 180.195 259.656 180.379 259.368C180.571 259.08 180.843 258.852 181.195 258.684C181.547 258.516 181.967 258.432 182.455 258.432C182.895 258.432 183.295 258.508 183.655 258.66C184.023 258.812 184.335 258.996 184.591 259.212L183.955 260.064C183.723 259.896 183.487 259.76 183.247 259.656C183.007 259.544 182.755 259.488 182.491 259.488C182.123 259.488 181.851 259.568 181.675 259.728C181.499 259.88 181.411 260.072 181.411 260.304C181.411 260.488 181.475 260.64 181.603 260.76C181.731 260.88 181.899 260.984 182.107 261.072C182.323 261.16 182.551 261.252 182.791 261.348C183.023 261.428 183.251 261.524 183.475 261.636C183.707 261.74 183.915 261.868 184.099 262.02C184.283 262.164 184.431 262.344 184.543 262.56C184.663 262.768 184.723 263.028 184.723 263.34C184.723 263.708 184.627 264.048 184.435 264.36C184.243 264.672 183.963 264.92 183.595 265.104C183.227 265.28 182.767 265.368 182.215 265.368Z" fill="white"/>
<rect x="157.5" y="290.2" width="2" height="50" fill="#FF0000"/>
<rect x="115.5" y="338.601" width="44" height="2" fill="#FFBB55"/>
<rect x="157.5" y="338.601" width="44" height="2" fill="#00A3FF"/>
<path d="M139 325.601L141 323.601L143 321.601H173L175 323.601L177 325.601V353.601L175 355.601L173 357.601H143L141 355.601L139 353.601V325.601Z" fill="#AAAAAA"/>
<path fill-rule="evenodd" clip-rule="evenodd" d="M153 324.601H163V327.601H153V324.601ZM174 327.601V337.601H172V327.601H174ZM145 337.601L145 327.601L142 327.601V337.601H145Z" fill="#DEDEDE"/>
<path fill-rule="evenodd" clip-rule="evenodd" d="M163 326.601H153V327.601H163V326.601ZM143 327.601L143 337.601H142V327.601L143 327.601ZM172 327.601V337.601H171V327.601L172 327.601Z" fill="#B6B6B6"/>
<path fill-rule="evenodd" clip-rule="evenodd" d="M143 319.601H173V321.601H143V319.601ZM141 323.601V321.601H143V323.601H141ZM139 325.601V323.601H141V325.601H139ZM141 355.601V353.601H139V342.601V325.601H137V342.601H133V355.601H139H141ZM143 357.601H141V355.601H143V357.601ZM173 357.601V359.601H143V357.601H173ZM175 355.601V357.601H173V355.601H175ZM177 325.601H179V342.601H183V355.601H177H175V353.601H177V342.601V325.601ZM175 323.601H177V325.601H175V323.601ZM175 323.601V321.601H173V323.601H175Z" fill="black"/>
<path fill-rule="evenodd" clip-rule="evenodd" d="M139 351.601H141V353.601H139V351.601ZM143 355.601H141V353.601H143V355.601ZM173 355.601V357.601H143V355.601H173ZM175 353.601V355.601H173V353.601H175ZM175 353.601V351.601H177V353.601H175Z" fill="#7B7B7B"/>
<rect x="151" y="332.601" width="14" height="14" fill="#2D3648"/>
<path fill-rule="evenodd" clip-rule="evenodd" d="M163 347.601H162V344.601H160V347.601H159V344.601L157 344.601V347.601H156V344.601H154L154 347.601H153L153 344.601H150V343.601H153L153 341.601H150V340.601H153L153 338.601H150V337.601H153L153 335.601H150V334.601H153L153 331.601H154L154 334.601H156V331.601H157V334.601H159V331.601H160V334.601H162V331.601H163V334.601H166V335.601H163V337.601H166V338.601H163L163 340.601H166V341.601H163V343.601H166V344.601H163V347.601ZM162 335.601H160V337.601H162V335.601ZM162 338.601H160V340.601H162V338.601ZM162 341.601H160V343.601H162V341.601ZM159 343.601V341.601L157 341.601V343.601L159 343.601ZM156 343.601V341.601H154V343.601H156ZM154 340.601H156V338.601H154L154 340.601ZM154 337.601H156V335.601H154V337.601ZM157 335.601V337.601H159V335.601H157ZM159 338.601H157V340.601H159V338.601Z" fill="#FFCC19"/>
<rect x="152" y="333.601" width="12" height="12" fill="#2D3648"/>
<rect x="153" y="334.601" width="10" height="10" fill="#D9D9D9"/>
<rect x="153" y="342.601" width="10" height="2" fill="#A7A7A7"/>
<rect x="153" y="340.601" width="10" height="2" fill="#BCBCBC"/>
<path fill-rule="evenodd" clip-rule="evenodd" d="M154 334.601H153V335.601H154V334.601ZM163 334.601H162V335.601H163V334.601ZM162 343.601H163V344.601H162V343.601ZM154 343.601H153V344.601H154V343.601Z" fill="#2D3648"/>
<rect x="364" y="40.8" width="45" height="20" rx="3.5" fill="#FF55B1"/>
<path d="M371.172 46.8V54.8H369.961V48.011H369.914L368 49.261V48.1047L369.996 46.8H371.172ZM373.446 54.8V53.925L376.153 51.1204C376.442 50.8157 376.68 50.5487 376.868 50.3196C377.058 50.0878 377.2 49.8678 377.293 49.6594C377.387 49.4511 377.434 49.2297 377.434 48.9954C377.434 48.7297 377.372 48.5006 377.247 48.3079C377.122 48.1125 376.951 47.9628 376.735 47.8586C376.519 47.7519 376.275 47.6985 376.004 47.6985C375.718 47.6985 375.468 47.7571 375.254 47.8743C375.041 47.9915 374.877 48.1568 374.762 48.3704C374.648 48.5839 374.59 48.8339 374.59 49.1204H373.438C373.438 48.6334 373.55 48.2076 373.774 47.843C373.998 47.4784 374.305 47.1959 374.696 46.9954C375.086 46.7922 375.53 46.6907 376.028 46.6907C376.53 46.6907 376.973 46.7909 377.356 46.9915C377.741 47.1894 378.042 47.4602 378.258 47.804C378.474 48.1451 378.583 48.5305 378.583 48.9602C378.583 49.2571 378.527 49.5474 378.415 49.8313C378.305 50.1152 378.114 50.4316 377.84 50.7805C377.567 51.1269 377.187 51.5474 376.7 52.0422L375.11 53.7063V53.7649H378.711V54.8H373.446ZM381.087 54.8743C380.874 54.8743 380.69 54.7987 380.536 54.6477C380.383 54.4941 380.306 54.3092 380.306 54.093C380.306 53.8795 380.383 53.6972 380.536 53.5461C380.69 53.3925 380.874 53.3157 381.087 53.3157C381.301 53.3157 381.484 53.3925 381.638 53.5461C381.792 53.6972 381.868 53.8795 381.868 54.093C381.868 54.2362 381.832 54.3678 381.759 54.4875C381.689 54.6047 381.595 54.6985 381.478 54.7688C381.361 54.8391 381.23 54.8743 381.087 54.8743ZM386.039 54.9094C385.549 54.9094 385.109 54.8157 384.719 54.6282C384.331 54.4381 384.021 54.1777 383.789 53.8469C383.557 53.5162 383.433 53.1386 383.418 52.7141H384.59C384.618 53.0579 384.771 53.3404 385.047 53.5618C385.323 53.7831 385.653 53.8938 386.039 53.8938C386.346 53.8938 386.618 53.8235 386.855 53.6829C387.095 53.5396 387.282 53.343 387.418 53.093C387.556 52.843 387.625 52.5579 387.625 52.2375C387.625 51.912 387.555 51.6217 387.414 51.3665C387.273 51.1112 387.079 50.9107 386.832 50.7649C386.587 50.6191 386.306 50.5448 385.988 50.5422C385.746 50.5422 385.502 50.5839 385.258 50.6672C385.013 50.7506 384.815 50.8599 384.664 50.9954L383.558 50.8313L384.008 46.8H388.406V47.8352H385.012L384.758 50.0735H384.805C384.961 49.9224 385.168 49.7961 385.426 49.6946C385.686 49.593 385.965 49.5422 386.262 49.5422C386.749 49.5422 387.182 49.6581 387.562 49.8899C387.945 50.1217 388.246 50.4381 388.465 50.8391C388.686 51.2375 388.795 51.6959 388.793 52.2141C388.795 52.7323 388.678 53.1946 388.441 53.6008C388.207 54.0071 387.881 54.3274 387.465 54.5618C387.051 54.7935 386.575 54.9094 386.039 54.9094ZM392.873 54.9211C392.292 54.9211 391.792 54.7896 391.373 54.5266C390.956 54.261 390.636 53.8951 390.412 53.429C390.188 52.9628 390.076 52.429 390.076 51.8274C390.076 51.218 390.19 50.6803 390.419 50.2141C390.649 49.7454 390.971 49.3795 391.388 49.1165C391.805 48.8534 392.296 48.7219 392.861 48.7219C393.317 48.7219 393.723 48.8066 394.08 48.9758C394.436 49.1425 394.724 49.3769 394.943 49.679C395.164 49.981 395.296 50.3339 395.337 50.7375H394.201C394.138 50.4563 393.995 50.2141 393.771 50.011C393.55 49.8079 393.253 49.7063 392.88 49.7063C392.555 49.7063 392.27 49.7922 392.025 49.9641C391.783 50.1334 391.594 50.3756 391.458 50.6907C391.323 51.0032 391.255 51.373 391.255 51.8C391.255 52.2375 391.322 52.6152 391.455 52.9329C391.587 53.2506 391.775 53.4967 392.017 53.6711C392.262 53.8456 392.55 53.9329 392.88 53.9329C393.102 53.9329 393.302 53.8925 393.482 53.8118C393.664 53.7284 393.817 53.6099 393.939 53.4563C394.064 53.3027 394.151 53.1178 394.201 52.9016H395.337C395.296 53.2896 395.169 53.636 394.958 53.9407C394.748 54.2454 394.465 54.4849 394.111 54.6594C393.759 54.8339 393.346 54.9211 392.873 54.9211ZM396.696 54.8V48.8H397.817V49.7766H397.892C398.017 49.4459 398.221 49.1881 398.505 49.0032C398.789 48.8157 399.129 48.7219 399.525 48.7219C399.926 48.7219 400.261 48.8157 400.532 49.0032C400.806 49.1907 401.008 49.4485 401.138 49.7766H401.2C401.344 49.4563 401.571 49.2011 401.884 49.011C402.196 48.8183 402.569 48.7219 403.001 48.7219C403.545 48.7219 403.989 48.8925 404.333 49.2336C404.679 49.5748 404.853 50.0891 404.853 50.7766V54.8H403.685V50.886C403.685 50.4797 403.574 50.1855 403.353 50.0032C403.131 49.8209 402.867 49.7297 402.56 49.7297C402.179 49.7297 401.884 49.8469 401.673 50.0813C401.462 50.3131 401.357 50.6112 401.357 50.9758V54.8H400.192V50.8118C400.192 50.4862 400.091 50.2245 399.888 50.0266C399.685 49.8287 399.42 49.7297 399.095 49.7297C398.873 49.7297 398.669 49.7883 398.482 49.9055C398.297 50.0201 398.147 50.1803 398.032 50.386C397.92 50.5917 397.864 50.83 397.864 51.1008V54.8H396.696Z" fill="white"/>
<path d="M361.5 67.8H411.5" stroke="#FF55B1"/>
<path d="M361.5 64.8V70.8" stroke="#FF55B1"/>
<path d="M411.5 64.8V70.8" stroke="#FF55B1"/>
<path d="M367.5 84.8L369.5 82.8L371.5 80.8H401.5L403.5 82.8L405.5 84.8V112.8L403.5 114.8L401.5 116.8H371.5L369.5 114.8L367.5 112.8V84.8Z" fill="#FAD300"/>
<path fill-rule="evenodd" clip-rule="evenodd" d="M381.5 83.8H391.5V86.8H381.5V83.8ZM402.5 86.8V96.8H400.5V86.8H402.5ZM373.5 96.8L373.5 86.8L370.5 86.8V96.8H373.5Z" fill="#DEDEDE"/>
<path fill-rule="evenodd" clip-rule="evenodd" d="M391.5 85.8H381.5V86.8H391.5V85.8ZM371.5 86.8L371.5 96.8H370.5V86.8L371.5 86.8ZM400.5 86.8V96.8H399.5V86.8L400.5 86.8Z" fill="#B6B6B6"/>
<path fill-rule="evenodd" clip-rule="evenodd" d="M371.5 78.8H401.5V80.8H371.5V78.8ZM369.5 82.8V80.8H371.5V82.8H369.5ZM367.5 84.8V82.8H369.5V84.8H367.5ZM369.5 114.8V112.8H367.5V101.8V84.8H365.5V101.8H361.5V114.8H367.5H369.5ZM371.5 116.8H369.5V114.8H371.5V116.8ZM401.5 116.8V118.8H371.5V116.8H401.5ZM403.5 114.8V116.8H401.5V114.8H403.5ZM405.5 84.8H407.5V101.8H411.5V114.8H405.5H403.5V112.8H405.5V101.8V84.8ZM403.5 82.8H405.5V84.8H403.5V82.8ZM403.5 82.8V80.8H401.5V82.8H403.5Z" fill="black"/>
<path fill-rule="evenodd" clip-rule="evenodd" d="M367.5 110.8H369.5V112.8H367.5V110.8ZM371.5 114.8H369.5V112.8H371.5V114.8ZM401.5 114.8V116.8H371.5V114.8H401.5ZM403.5 112.8V114.8H401.5V112.8H403.5ZM403.5 112.8V110.8H405.5V112.8H403.5Z" fill="black" fill-opacity="0.3"/>
<rect x="379.5" y="91.8" width="14" height="14" fill="#2D3648"/>
<path fill-rule="evenodd" clip-rule="evenodd" d="M391.5 106.8H390.5V103.8H388.5V106.8H387.5V103.8L385.5 103.8V106.8H384.5V103.8H382.5L382.5 106.8H381.5L381.5 103.8H378.5V102.8H381.5L381.5 100.8H378.5V99.8H381.5L381.5 97.8H378.5V96.8H381.5L381.5 94.8H378.5V93.8H381.5L381.5 90.8H382.5L382.5 93.8H384.5V90.8H385.5V93.8H387.5V90.8H388.5V93.8H390.5V90.8H391.5V93.8H394.5V94.8H391.5V96.8H394.5V97.8H391.5L391.5 99.8H394.5V100.8H391.5V102.8H394.5V103.8H391.5V106.8ZM390.5 94.8H388.5V96.8H390.5V94.8ZM390.5 97.8H388.5V99.8H390.5V97.8ZM390.5 100.8H388.5V102.8H390.5V100.8ZM387.5 102.8V100.8L385.5 100.8V102.8L387.5 102.8ZM384.5 102.8V100.8H382.5V102.8H384.5ZM382.5 99.8H384.5V97.8H382.5L382.5 99.8ZM382.5 96.8H384.5V94.8H382.5V96.8ZM385.5 94.8V96.8H387.5V94.8H385.5ZM387.5 97.8H385.5V99.8H387.5V97.8Z" fill="#FFCC19"/>
<rect x="380.5" y="92.8" width="12" height="12" fill="#2D3648"/>
<rect x="381.5" y="93.8" width="10" height="10" fill="#D9D9D9"/>
<rect x="381.5" y="101.8" width="10" height="2" fill="#A7A7A7"/>
<rect x="381.5" y="99.8" width="10" height="2" fill="#BCBCBC"/>
<path fill-rule="evenodd" clip-rule="evenodd" d="M382.5 93.8H381.5V94.8H382.5V93.8ZM391.5 93.8H390.5V94.8H391.5V93.8ZM390.5 102.8H391.5V103.8H390.5V102.8ZM382.5 102.8H381.5V103.8H382.5V102.8Z" fill="#2D3648"/>
<path d="M367.5 164.8L369.5 162.8L371.5 160.8H401.5L403.5 162.8L405.5 164.8V192.8L403.5 194.8L401.5 196.8H371.5L369.5 194.8L367.5 192.8V164.8Z" fill="#F56499"/>
<path fill-rule="evenodd" clip-rule="evenodd" d="M381.5 163.8H391.5V166.8H381.5V163.8ZM402.5 166.8V176.8H400.5V166.8H402.5ZM373.5 176.8L373.5 166.8L370.5 166.8V176.8H373.5Z" fill="#DEDEDE"/>
<path fill-rule="evenodd" clip-rule="evenodd" d="M391.5 165.8H381.5V166.8H391.5V165.8ZM371.5 166.8L371.5 176.8H370.5V166.8L371.5 166.8ZM400.5 166.8V176.8H399.5V166.8L400.5 166.8Z" fill="#B6B6B6"/>
<path fill-rule="evenodd" clip-rule="evenodd" d="M371.5 158.8H401.5V160.8H371.5V158.8ZM369.5 162.8V160.8H371.5V162.8H369.5ZM367.5 164.8V162.8H369.5V164.8H367.5ZM369.5 194.8V192.8H367.5V181.8V164.8H365.5V181.8H361.5V194.8H367.5H369.5ZM371.5 196.8H369.5V194.8H371.5V196.8ZM401.5 196.8V198.8H371.5V196.8H401.5ZM403.5 194.8V196.8H401.5V194.8H403.5ZM405.5 164.8H407.5V181.8H411.5V194.8H405.5H403.5V192.8H405.5V181.8V164.8ZM403.5 162.8H405.5V164.8H403.5V162.8ZM403.5 162.8V160.8H401.5V162.8H403.5Z" fill="black"/>
<path fill-rule="evenodd" clip-rule="evenodd" d="M367.5 190.8H369.5V192.8H367.5V190.8ZM371.5 194.8H369.5V192.8H371.5V194.8ZM401.5 194.8V196.8H371.5V194.8H401.5ZM403.5 192.8V194.8H401.5V192.8H403.5ZM403.5 192.8V190.8H405.5V192.8H403.5Z" fill="black" fill-opacity="0.3"/>
<rect x="379.5" y="171.8" width="14" height="14" fill="#2D3648"/>
<path fill-rule="evenodd" clip-rule="evenodd" d="M391.5 186.8H390.5V183.8H388.5V186.8H387.5V183.8L385.5 183.8V186.8H384.5V183.8H382.5L382.5 186.8H381.5L381.5 183.8H378.5V182.8H381.5L381.5 180.8H378.5V179.8H381.5L381.5 177.8H378.5V176.8H381.5L381.5 174.8H378.5V173.8H381.5L381.5 170.8H382.5L382.5 173.8H384.5V170.8H385.5V173.8H387.5V170.8H388.5V173.8H390.5V170.8H391.5V173.8H394.5V174.8H391.5V176.8H394.5V177.8H391.5L391.5 179.8H394.5V180.8H391.5V182.8H394.5V183.8H391.5V186.8ZM390.5 174.8H388.5V176.8H390.5V174.8ZM390.5 177.8H388.5V179.8H390.5V177.8ZM390.5 180.8H388.5V182.8H390.5V180.8ZM387.5 182.8V180.8L385.5 180.8V182.8L387.5 182.8ZM384.5 182.8V180.8H382.5V182.8H384.5ZM382.5 179.8H384.5V177.8H382.5L382.5 179.8ZM382.5 176.8H384.5V174.8H382.5V176.8ZM385.5 174.8V176.8H387.5V174.8H385.5ZM387.5 177.8H385.5V179.8H387.5V177.8Z" fill="#FFCC19"/>
<rect x="380.5" y="172.8" width="12" height="12" fill="#2D3648"/>
<rect x="381.5" y="173.8" width="10" height="10" fill="#D9D9D9"/>
<rect x="381.5" y="181.8" width="10" height="2" fill="#A7A7A7"/>
<rect x="381.5" y="179.8" width="10" height="2" fill="#BCBCBC"/>
<path fill-rule="evenodd" clip-rule="evenodd" d="M382.5 173.8H381.5V174.8H382.5V173.8ZM391.5 173.8H390.5V174.8H391.5V173.8ZM390.5 182.8H391.5V183.8H390.5V182.8ZM382.5 182.8H381.5V183.8H382.5V182.8Z" fill="#2D3648"/>
<path d="M367.5 244.8L369.5 242.8L371.5 240.8H401.5L403.5 242.8L405.5 244.8V272.8L403.5 274.8L401.5 276.8H371.5L369.5 274.8L367.5 272.8V244.8Z" fill="#00C9E6"/>
<path fill-rule="evenodd" clip-rule="evenodd" d="M381.5 243.8H391.5V246.8H381.5V243.8ZM402.5 246.8V256.8H400.5V246.8H402.5ZM373.5 256.8L373.5 246.8L370.5 246.8V256.8H373.5Z" fill="#DEDEDE"/>
<path fill-rule="evenodd" clip-rule="evenodd" d="M391.5 245.8H381.5V246.8H391.5V245.8ZM371.5 246.8L371.5 256.8H370.5V246.8L371.5 246.8ZM400.5 246.8V256.8H399.5V246.8L400.5 246.8Z" fill="#B6B6B6"/>
<path fill-rule="evenodd" clip-rule="evenodd" d="M371.5 238.8H401.5V240.8H371.5V238.8ZM369.5 242.8V240.8H371.5V242.8H369.5ZM367.5 244.8V242.8H369.5V244.8H367.5ZM369.5 274.8V272.8H367.5V261.8V244.8H365.5V261.8H361.5V274.8H367.5H369.5ZM371.5 276.8H369.5V274.8H371.5V276.8ZM401.5 276.8V278.8H371.5V276.8H401.5ZM403.5 274.8V276.8H401.5V274.8H403.5ZM405.5 244.8H407.5V261.8H411.5V274.8H405.5H403.5V272.8H405.5V261.8V244.8ZM403.5 242.8H405.5V244.8H403.5V242.8ZM403.5 242.8V240.8H401.5V242.8H403.5Z" fill="black"/>
<path fill-rule="evenodd" clip-rule="evenodd" d="M367.5 270.8H369.5V272.8H367.5V270.8ZM371.5 274.8H369.5V272.8H371.5V274.8ZM401.5 274.8V276.8H371.5V274.8H401.5ZM403.5 272.8V274.8H401.5V272.8H403.5ZM403.5 272.8V270.8H405.5V272.8H403.5Z" fill="black" fill-opacity="0.3"/>
<rect x="379.5" y="251.8" width="14" height="14" fill="#2D3648"/>
<path fill-rule="evenodd" clip-rule="evenodd" d="M391.5 266.8H390.5V263.8H388.5V266.8H387.5V263.8L385.5 263.8V266.8H384.5V263.8H382.5L382.5 266.8H381.5L381.5 263.8H378.5V262.8H381.5L381.5 260.8H378.5V259.8H381.5L381.5 257.8H378.5V256.8H381.5L381.5 254.8H378.5V253.8H381.5L381.5 250.8H382.5L382.5 253.8H384.5V250.8H385.5V253.8H387.5V250.8H388.5V253.8H390.5V250.8H391.5V253.8H394.5V254.8H391.5V256.8H394.5V257.8H391.5L391.5 259.8H394.5V260.8H391.5V262.8H394.5V263.8H391.5V266.8ZM390.5 254.8H388.5V256.8H390.5V254.8ZM390.5 257.8H388.5V259.8H390.5V257.8ZM390.5 260.8H388.5V262.8H390.5V260.8ZM387.5 262.8V260.8L385.5 260.8V262.8L387.5 262.8ZM384.5 262.8V260.8H382.5V262.8H384.5ZM382.5 259.8H384.5V257.8H382.5L382.5 259.8ZM382.5 256.8H384.5V254.8H382.5V256.8ZM385.5 254.8V256.8H387.5V254.8H385.5ZM387.5 257.8H385.5V259.8H387.5V257.8Z" fill="#FFCC19"/>
<rect x="380.5" y="252.8" width="12" height="12" fill="#2D3648"/>
<rect x="381.5" y="253.8" width="10" height="10" fill="#D9D9D9"/>
<rect x="381.5" y="261.8" width="10" height="2" fill="#A7A7A7"/>
<rect x="381.5" y="259.8" width="10" height="2" fill="#BCBCBC"/>
<path fill-rule="evenodd" clip-rule="evenodd" d="M382.5 253.8H381.5V254.8H382.5V253.8ZM391.5 253.8H390.5V254.8H391.5V253.8ZM390.5 262.8H391.5V263.8H390.5V262.8ZM382.5 262.8H381.5V263.8H382.5V262.8Z" fill="#2D3648"/>
<path d="M367.5 324.8L369.5 322.8L371.5 320.8H401.5L403.5 322.8L405.5 324.8V352.8L403.5 354.8L401.5 356.8H371.5L369.5 354.8L367.5 352.8V324.8Z" fill="#61C95F"/>
<path fill-rule="evenodd" clip-rule="evenodd" d="M381.5 323.8H391.5V326.8H381.5V323.8ZM402.5 326.8V336.8H400.5V326.8H402.5ZM373.5 336.8L373.5 326.8L370.5 326.8V336.8H373.5Z" fill="#DEDEDE"/>
<path fill-rule="evenodd" clip-rule="evenodd" d="M391.5 325.8H381.5V326.8H391.5V325.8ZM371.5 326.8L371.5 336.8H370.5V326.8L371.5 326.8ZM400.5 326.8V336.8H399.5V326.8L400.5 326.8Z" fill="#B6B6B6"/>
<path fill-rule="evenodd" clip-rule="evenodd" d="M371.5 318.8H401.5V320.8H371.5V318.8ZM369.5 322.8V320.8H371.5V322.8H369.5ZM367.5 324.8V322.8H369.5V324.8H367.5ZM369.5 354.8V352.8H367.5V341.8V324.8H365.5V341.8H361.5V354.8H367.5H369.5ZM371.5 356.8H369.5V354.8H371.5V356.8ZM401.5 356.8V358.8H371.5V356.8H401.5ZM403.5 354.8V356.8H401.5V354.8H403.5ZM405.5 324.8H407.5V341.8H411.5V354.8H405.5H403.5V352.8H405.5V341.8V324.8ZM403.5 322.8H405.5V324.8H403.5V322.8ZM403.5 322.8V320.8H401.5V322.8H403.5Z" fill="black"/>
<path fill-rule="evenodd" clip-rule="evenodd" d="M367.5 350.8H369.5V352.8H367.5V350.8ZM371.5 354.8H369.5V352.8H371.5V354.8ZM401.5 354.8V356.8H371.5V354.8H401.5ZM403.5 352.8V354.8H401.5V352.8H403.5ZM403.5 352.8V350.8H405.5V352.8H403.5Z" fill="black" fill-opacity="0.3"/>
<rect x="379.5" y="331.8" width="14" height="14" fill="#2D3648"/>
<path fill-rule="evenodd" clip-rule="evenodd" d="M391.5 346.8H390.5V343.8H388.5V346.8H387.5V343.8L385.5 343.8V346.8H384.5V343.8H382.5L382.5 346.8H381.5L381.5 343.8H378.5V342.8H381.5L381.5 340.8H378.5V339.8H381.5L381.5 337.8H378.5V336.8H381.5L381.5 334.8H378.5V333.8H381.5L381.5 330.8H382.5L382.5 333.8H384.5V330.8H385.5V333.8H387.5V330.8H388.5V333.8H390.5V330.8H391.5V333.8H394.5V334.8H391.5V336.8H394.5V337.8H391.5L391.5 339.8H394.5V340.8H391.5V342.8H394.5V343.8H391.5V346.8ZM390.5 334.8H388.5V336.8H390.5V334.8ZM390.5 337.8H388.5V339.8H390.5V337.8ZM390.5 340.8H388.5V342.8H390.5V340.8ZM387.5 342.8V340.8L385.5 340.8V342.8L387.5 342.8ZM384.5 342.8V340.8H382.5V342.8H384.5ZM382.5 339.8H384.5V337.8H382.5L382.5 339.8ZM382.5 336.8H384.5V334.8H382.5V336.8ZM385.5 334.8V336.8H387.5V334.8H385.5ZM387.5 337.8H385.5V339.8H387.5V337.8Z" fill="#FFCC19"/>
<rect x="380.5" y="332.8" width="12" height="12" fill="#2D3648"/>
<rect x="381.5" y="333.8" width="10" height="10" fill="#D9D9D9"/>
<rect x="381.5" y="341.8" width="10" height="2" fill="#A7A7A7"/>
<rect x="381.5" y="339.8" width="10" height="2" fill="#BCBCBC"/>
<path fill-rule="evenodd" clip-rule="evenodd" d="M382.5 333.8H381.5V334.8H382.5V333.8ZM391.5 333.8H390.5V334.8H391.5V333.8ZM390.5 342.8H391.5V343.8H390.5V342.8ZM382.5 342.8H381.5V343.8H382.5V342.8Z" fill="#2D3648"/>
<rect x="308" y="88.8" width="35" height="20" rx="3.5" fill="#FF55B1"/>
<path d="M315.008 94.8V102.8H313.797V96.011H313.751L311.836 97.261V96.1047L313.833 94.8H315.008ZM320.068 102.933C319.45 102.93 318.923 102.767 318.486 102.445C318.048 102.122 317.713 101.652 317.482 101.034C317.25 100.417 317.134 99.6737 317.134 98.804C317.134 97.9368 317.25 97.1959 317.482 96.5813C317.716 95.9667 318.052 95.498 318.489 95.175C318.93 94.8521 319.456 94.6907 320.068 94.6907C320.68 94.6907 321.204 94.8534 321.642 95.179C322.079 95.5019 322.414 95.9706 322.646 96.5852C322.88 97.1972 322.997 97.9368 322.997 98.804C322.997 99.6764 322.881 100.421 322.65 101.038C322.418 101.653 322.083 102.123 321.646 102.448C321.208 102.771 320.682 102.933 320.068 102.933ZM320.068 101.89C320.609 101.89 321.032 101.626 321.337 101.097C321.644 100.568 321.798 99.804 321.798 98.804C321.798 98.1399 321.728 97.5787 321.587 97.1204C321.449 96.6594 321.25 96.3105 320.989 96.0735C320.732 95.8339 320.424 95.7141 320.068 95.7141C319.528 95.7141 319.105 95.9797 318.798 96.511C318.491 97.0422 318.336 97.8066 318.333 98.804C318.333 99.4706 318.402 100.034 318.54 100.495C318.681 100.954 318.88 101.301 319.138 101.538C319.396 101.773 319.706 101.89 320.068 101.89ZM327.036 102.921C326.455 102.921 325.955 102.79 325.536 102.527C325.119 102.261 324.799 101.895 324.575 101.429C324.351 100.963 324.239 100.429 324.239 99.8274C324.239 99.218 324.354 98.6803 324.583 98.2141C324.812 97.7454 325.135 97.3795 325.552 97.1165C325.968 96.8534 326.459 96.7219 327.024 96.7219C327.48 96.7219 327.886 96.8066 328.243 96.9758C328.6 97.1425 328.888 97.3769 329.106 97.679C329.328 97.981 329.459 98.3339 329.501 98.7375H328.364C328.302 98.4563 328.158 98.2141 327.934 98.011C327.713 97.8079 327.416 97.7063 327.044 97.7063C326.718 97.7063 326.433 97.7922 326.188 97.9641C325.946 98.1334 325.757 98.3756 325.622 98.6907C325.486 99.0032 325.419 99.373 325.419 99.8C325.419 100.238 325.485 100.615 325.618 100.933C325.751 101.251 325.938 101.497 326.18 101.671C326.425 101.846 326.713 101.933 327.044 101.933C327.265 101.933 327.466 101.892 327.645 101.812C327.828 101.728 327.98 101.61 328.102 101.456C328.227 101.303 328.315 101.118 328.364 100.902H329.501C329.459 101.29 329.333 101.636 329.122 101.941C328.911 102.245 328.628 102.485 328.274 102.659C327.923 102.834 327.51 102.921 327.036 102.921ZM330.86 102.8V96.8H331.981V97.7766H332.055C332.18 97.4459 332.385 97.1881 332.668 97.0032C332.952 96.8157 333.292 96.7219 333.688 96.7219C334.089 96.7219 334.425 96.8157 334.696 97.0032C334.969 97.1907 335.171 97.4485 335.301 97.7766H335.364C335.507 97.4563 335.735 97.2011 336.047 97.011C336.36 96.8183 336.732 96.7219 337.165 96.7219C337.709 96.7219 338.153 96.8925 338.497 97.2336C338.843 97.5748 339.016 98.0891 339.016 98.7766V102.8H337.848V98.886C337.848 98.4797 337.737 98.1855 337.516 98.0032C337.295 97.8209 337.03 97.7297 336.723 97.7297C336.343 97.7297 336.047 97.8469 335.836 98.0813C335.625 98.3131 335.52 98.6112 335.52 98.9758V102.8H334.356V98.8118C334.356 98.4862 334.254 98.2245 334.051 98.0266C333.848 97.8287 333.584 97.7297 333.258 97.7297C333.037 97.7297 332.832 97.7883 332.645 97.9055C332.46 98.0201 332.31 98.1803 332.196 98.386C332.084 98.5917 332.028 98.83 332.028 99.1008V102.8H330.86Z" fill="white"/>
<path d="M350 78.8V118.8" stroke="#FF55B1"/>
<path d="M347 78.8H353" stroke="#FF55B1"/>
<path d="M347 118.8H353" stroke="#FF55B1"/>
</svg>
