<svg width="527" height="559" viewBox="0 0 527 559" fill="none" xmlns="http://www.w3.org/2000/svg">
<rect width="527" height="558" transform="translate(0 0.800049)" fill="#F5F5F5"/>
<rect x="73.5" y="120.4" width="70" height="20" rx="10" fill="#212121"/>
<path d="M85.0676 135.568C84.6116 135.568 84.2036 135.512 83.8436 135.4C83.4836 135.288 83.1676 135.14 82.8956 134.956C82.6236 134.772 82.3836 134.58 82.1756 134.38L82.8356 133.48C83.0036 133.648 83.1876 133.804 83.3876 133.948C83.5876 134.084 83.8116 134.196 84.0596 134.284C84.3156 134.372 84.5996 134.416 84.9116 134.416C85.2396 134.416 85.5356 134.348 85.7996 134.212C86.0636 134.068 86.2716 133.864 86.4236 133.6C86.5756 133.336 86.6516 133.024 86.6516 132.664C86.6516 132.12 86.4956 131.696 86.1836 131.392C85.8796 131.088 85.4756 130.936 84.9716 130.936C84.6916 130.936 84.4516 130.98 84.2516 131.068C84.0516 131.148 83.8236 131.272 83.5676 131.44L82.8836 131.008L83.1476 126.808H87.6236V127.984H84.3476L84.1436 130.24C84.3356 130.144 84.5276 130.072 84.7196 130.024C84.9116 129.968 85.1236 129.94 85.3556 129.94C85.8516 129.94 86.3036 130.036 86.7116 130.228C87.1196 130.412 87.4436 130.704 87.6836 131.104C87.9236 131.496 88.0436 132 88.0436 132.616C88.0436 133.24 87.9036 133.772 87.6236 134.212C87.3436 134.652 86.9756 134.988 86.5196 135.22C86.0716 135.452 85.5876 135.568 85.0676 135.568ZM94.2226 135.568C93.7746 135.568 93.3266 135.48 92.8786 135.304C92.4386 135.128 92.0586 134.908 91.7386 134.644L92.3986 133.744C92.6866 133.976 92.9786 134.164 93.2746 134.308C93.5786 134.444 93.9066 134.512 94.2586 134.512C94.6506 134.512 94.9386 134.428 95.1226 134.26C95.3146 134.084 95.4106 133.872 95.4106 133.624C95.4106 133.424 95.3386 133.256 95.1946 133.12C95.0586 132.984 94.8786 132.868 94.6546 132.772C94.4306 132.668 94.1986 132.572 93.9586 132.484C93.6626 132.372 93.3706 132.24 93.0826 132.088C92.8026 131.928 92.5706 131.728 92.3866 131.488C92.2026 131.24 92.1106 130.932 92.1106 130.564C92.1106 130.188 92.2026 129.856 92.3866 129.568C92.5786 129.28 92.8506 129.052 93.2026 128.884C93.5546 128.716 93.9746 128.632 94.4626 128.632C94.9026 128.632 95.3026 128.708 95.6626 128.86C96.0306 129.012 96.3426 129.196 96.5986 129.412L95.9626 130.264C95.7306 130.096 95.4946 129.96 95.2546 129.856C95.0146 129.744 94.7626 129.688 94.4986 129.688C94.1306 129.688 93.8586 129.768 93.6826 129.928C93.5066 130.08 93.4186 130.272 93.4186 130.504C93.4186 130.688 93.4826 130.84 93.6106 130.96C93.7386 131.08 93.9066 131.184 94.1146 131.272C94.3306 131.36 94.5586 131.452 94.7986 131.548C95.0306 131.628 95.2586 131.724 95.4826 131.836C95.7146 131.94 95.9226 132.068 96.1066 132.22C96.2906 132.364 96.4386 132.544 96.5506 132.76C96.6706 132.968 96.7306 133.228 96.7306 133.54C96.7306 133.908 96.6346 134.248 96.4426 134.56C96.2506 134.872 95.9706 135.12 95.6026 135.304C95.2346 135.48 94.7746 135.568 94.2226 135.568ZM100.96 135.568C100.36 135.568 99.8163 135.432 99.3283 135.16C98.8403 134.88 98.4523 134.484 98.1643 133.972C97.8763 133.452 97.7323 132.828 97.7323 132.1C97.7323 131.564 97.8163 131.084 97.9843 130.66C98.1523 130.228 98.3803 129.864 98.6683 129.568C98.9563 129.264 99.2803 129.032 99.6403 128.872C100 128.712 100.368 128.632 100.744 128.632C101.328 128.632 101.82 128.764 102.22 129.028C102.62 129.284 102.924 129.648 103.132 130.12C103.34 130.584 103.444 131.128 103.444 131.752C103.444 131.888 103.436 132.02 103.42 132.148C103.412 132.268 103.396 132.372 103.372 132.46H99.0883C99.1283 132.876 99.2363 133.236 99.4123 133.54C99.5963 133.836 99.8323 134.068 100.12 134.236C100.416 134.396 100.752 134.476 101.128 134.476C101.424 134.476 101.7 134.432 101.956 134.344C102.212 134.256 102.46 134.136 102.7 133.984L103.18 134.86C102.876 135.06 102.536 135.228 102.16 135.364C101.792 135.5 101.392 135.568 100.96 135.568ZM99.0763 131.5H102.244C102.244 130.94 102.116 130.504 101.86 130.192C101.612 129.88 101.248 129.724 100.768 129.724C100.496 129.724 100.24 129.792 100 129.928C99.7603 130.064 99.5563 130.264 99.3883 130.528C99.2283 130.792 99.1243 131.116 99.0763 131.5ZM104.997 135.4V128.788H106.125L106.245 129.712H106.269C106.573 129.416 106.901 129.164 107.253 128.956C107.605 128.74 108.005 128.632 108.453 128.632C109.157 128.632 109.669 128.86 109.989 129.316C110.317 129.764 110.481 130.408 110.481 131.248V135.4H109.101V131.416C109.101 130.848 109.013 130.444 108.837 130.204C108.661 129.956 108.377 129.832 107.985 129.832C107.681 129.832 107.409 129.908 107.169 130.06C106.937 130.204 106.673 130.424 106.377 130.72V135.4H104.997ZM114.273 135.568C113.825 135.568 113.377 135.48 112.929 135.304C112.489 135.128 112.109 134.908 111.789 134.644L112.449 133.744C112.737 133.976 113.029 134.164 113.325 134.308C113.629 134.444 113.957 134.512 114.309 134.512C114.701 134.512 114.989 134.428 115.173 134.26C115.365 134.084 115.461 133.872 115.461 133.624C115.461 133.424 115.389 133.256 115.245 133.12C115.109 132.984 114.929 132.868 114.705 132.772C114.481 132.668 114.249 132.572 114.009 132.484C113.713 132.372 113.421 132.24 113.133 132.088C112.853 131.928 112.621 131.728 112.437 131.488C112.253 131.24 112.161 130.932 112.161 130.564C112.161 130.188 112.253 129.856 112.437 129.568C112.629 129.28 112.901 129.052 113.253 128.884C113.605 128.716 114.025 128.632 114.513 128.632C114.953 128.632 115.353 128.708 115.713 128.86C116.081 129.012 116.393 129.196 116.649 129.412L116.013 130.264C115.781 130.096 115.545 129.96 115.305 129.856C115.065 129.744 114.813 129.688 114.549 129.688C114.181 129.688 113.909 129.768 113.733 129.928C113.557 130.08 113.469 130.272 113.469 130.504C113.469 130.688 113.533 130.84 113.661 130.96C113.789 131.08 113.957 131.184 114.165 131.272C114.381 131.36 114.609 131.452 114.849 131.548C115.081 131.628 115.309 131.724 115.533 131.836C115.765 131.94 115.973 132.068 116.157 132.22C116.341 132.364 116.489 132.544 116.601 132.76C116.721 132.968 116.781 133.228 116.781 133.54C116.781 133.908 116.685 134.248 116.493 134.56C116.301 134.872 116.021 135.12 115.653 135.304C115.285 135.48 114.825 135.568 114.273 135.568ZM120.903 135.568C120.359 135.568 119.847 135.432 119.367 135.16C118.895 134.88 118.511 134.484 118.215 133.972C117.927 133.452 117.783 132.828 117.783 132.1C117.783 131.364 117.927 130.74 118.215 130.228C118.511 129.708 118.895 129.312 119.367 129.04C119.847 128.768 120.359 128.632 120.903 128.632C121.303 128.632 121.691 128.712 122.067 128.872C122.443 129.024 122.775 129.248 123.063 129.544C123.351 129.84 123.579 130.204 123.747 130.636C123.915 131.06 123.999 131.548 123.999 132.1C123.999 132.828 123.851 133.452 123.555 133.972C123.267 134.484 122.887 134.88 122.415 135.16C121.951 135.432 121.447 135.568 120.903 135.568ZM120.903 134.416C121.247 134.416 121.543 134.32 121.791 134.128C122.047 133.936 122.243 133.668 122.379 133.324C122.515 132.972 122.583 132.564 122.583 132.1C122.583 131.636 122.515 131.232 122.379 130.888C122.243 130.536 122.047 130.264 121.791 130.072C121.543 129.872 121.247 129.772 120.903 129.772C120.551 129.772 120.247 129.872 119.991 130.072C119.743 130.264 119.551 130.536 119.415 130.888C119.279 131.232 119.211 131.636 119.211 132.1C119.211 132.564 119.279 132.972 119.415 133.324C119.551 133.668 119.743 133.936 119.991 134.128C120.247 134.32 120.551 134.416 120.903 134.416ZM125.634 135.4V128.788H126.762L126.882 129.976H126.906C127.146 129.552 127.43 129.224 127.758 128.992C128.086 128.752 128.43 128.632 128.79 128.632C128.95 128.632 129.086 128.644 129.198 128.668C129.31 128.692 129.418 128.724 129.522 128.764L129.282 129.976C129.162 129.936 129.054 129.908 128.958 129.892C128.862 129.876 128.746 129.868 128.61 129.868C128.346 129.868 128.066 129.976 127.77 130.192C127.474 130.4 127.222 130.768 127.014 131.296V135.4H125.634ZM132.215 135.568C131.767 135.568 131.319 135.48 130.871 135.304C130.431 135.128 130.051 134.908 129.731 134.644L130.391 133.744C130.679 133.976 130.971 134.164 131.267 134.308C131.571 134.444 131.899 134.512 132.251 134.512C132.643 134.512 132.931 134.428 133.115 134.26C133.307 134.084 133.403 133.872 133.403 133.624C133.403 133.424 133.331 133.256 133.187 133.12C133.051 132.984 132.871 132.868 132.647 132.772C132.423 132.668 132.191 132.572 131.951 132.484C131.655 132.372 131.363 132.24 131.075 132.088C130.795 131.928 130.563 131.728 130.379 131.488C130.195 131.24 130.103 130.932 130.103 130.564C130.103 130.188 130.195 129.856 130.379 129.568C130.571 129.28 130.843 129.052 131.195 128.884C131.547 128.716 131.967 128.632 132.455 128.632C132.895 128.632 133.295 128.708 133.655 128.86C134.023 129.012 134.335 129.196 134.591 129.412L133.955 130.264C133.723 130.096 133.487 129.96 133.247 129.856C133.007 129.744 132.755 129.688 132.491 129.688C132.123 129.688 131.851 129.768 131.675 129.928C131.499 130.08 131.411 130.272 131.411 130.504C131.411 130.688 131.475 130.84 131.603 130.96C131.731 131.08 131.899 131.184 132.107 131.272C132.323 131.36 132.551 131.452 132.791 131.548C133.023 131.628 133.251 131.724 133.475 131.836C133.707 131.94 133.915 132.068 134.099 132.22C134.283 132.364 134.431 132.544 134.543 132.76C134.663 132.968 134.723 133.228 134.723 133.54C134.723 133.908 134.627 134.248 134.435 134.56C134.243 134.872 133.963 135.12 133.595 135.304C133.227 135.48 132.767 135.568 132.215 135.568Z" fill="white"/>
<rect x="107.5" y="160.4" width="2" height="50" fill="#FF0000"/>
<rect x="65.5" y="208.8" width="44" height="2" fill="#FFBB55"/>
<rect x="107.5" y="208.8" width="44" height="2" fill="#00A3FF"/>
<rect x="107.5" y="209.226" width="60" height="2" transform="rotate(-45 107.5 209.226)" fill="#00A3FF"/>
<rect x="108.926" y="210.64" width="60" height="2" transform="rotate(-135 108.926 210.64)" fill="#FFBB55"/>
<path d="M89 195.8L91 193.8L93 191.8H123L125 193.8L127 195.8V223.8L125 225.8L123 227.8H93L91 225.8L89 223.8V195.8Z" fill="#AAAAAA"/>
<path fill-rule="evenodd" clip-rule="evenodd" d="M103 194.8H113V197.8H103V194.8ZM124 197.8V207.8H122V197.8H124ZM95 207.8L95 197.8L92 197.8V207.8H95Z" fill="#DEDEDE"/>
<path fill-rule="evenodd" clip-rule="evenodd" d="M113 196.8H103V197.8H113V196.8ZM93 197.8L93 207.8H92V197.8L93 197.8ZM122 197.8V207.8H121V197.8L122 197.8Z" fill="#B6B6B6"/>
<path fill-rule="evenodd" clip-rule="evenodd" d="M93 189.8H123V191.8H93V189.8ZM91 193.8V191.8H93V193.8H91ZM89 195.8V193.8H91V195.8H89ZM91 225.8V223.8H89V212.8V195.8H87V212.8H83V225.8H89H91ZM93 227.8H91V225.8H93V227.8ZM123 227.8V229.8H93V227.8H123ZM125 225.8V227.8H123V225.8H125ZM127 195.8H129V212.8H133V225.8H127H125V223.8H127V212.8V195.8ZM125 193.8H127V195.8H125V193.8ZM125 193.8V191.8H123V193.8H125Z" fill="black"/>
<path fill-rule="evenodd" clip-rule="evenodd" d="M89 221.8H91V223.8H89V221.8ZM93 225.8H91V223.8H93V225.8ZM123 225.8V227.8H93V225.8H123ZM125 223.8V225.8H123V223.8H125ZM125 223.8V221.8H127V223.8H125Z" fill="#7B7B7B"/>
<rect x="101" y="202.8" width="14" height="14" fill="#2D3648"/>
<path fill-rule="evenodd" clip-rule="evenodd" d="M113 217.8H112V214.8H110V217.8H109V214.8L107 214.8V217.8H106V214.8H104L104 217.8H103L103 214.8H100V213.8H103L103 211.8H100V210.8H103L103 208.8H100V207.8H103L103 205.8H100V204.8H103L103 201.8H104L104 204.8H106V201.8H107V204.8H109V201.8H110V204.8H112V201.8H113V204.8H116V205.8H113V207.8H116V208.8H113L113 210.8H116V211.8H113V213.8H116V214.8H113V217.8ZM112 205.8H110V207.8H112V205.8ZM112 208.8H110V210.8H112V208.8ZM112 211.8H110V213.8H112V211.8ZM109 213.8V211.8L107 211.8V213.8L109 213.8ZM106 213.8V211.8H104V213.8H106ZM104 210.8H106V208.8H104L104 210.8ZM104 207.8H106V205.8H104V207.8ZM107 205.8V207.8H109V205.8H107ZM109 208.8H107V210.8H109V208.8Z" fill="#FFCC19"/>
<rect x="102" y="203.8" width="12" height="12" fill="#2D3648"/>
<rect x="103" y="204.8" width="10" height="10" fill="#D9D9D9"/>
<rect x="103" y="212.8" width="10" height="2" fill="#A7A7A7"/>
<rect x="103" y="210.8" width="10" height="2" fill="#BCBCBC"/>
<path fill-rule="evenodd" clip-rule="evenodd" d="M104 204.8H103V205.8H104V204.8ZM113 204.8H112V205.8H113V204.8ZM112 213.8H113V214.8H112V213.8ZM104 213.8H103V214.8H104V213.8Z" fill="#2D3648"/>
<rect x="73.5" y="329.8" width="70" height="20" rx="10" fill="#212121"/>
<path d="M85.0676 344.968C84.6036 344.968 84.1916 344.912 83.8316 344.8C83.4796 344.688 83.1676 344.54 82.8956 344.356C82.6236 344.164 82.3876 343.96 82.1876 343.744L82.8596 342.856C83.1236 343.112 83.4236 343.336 83.7596 343.528C84.0956 343.72 84.4916 343.816 84.9476 343.816C85.2836 343.816 85.5756 343.76 85.8236 343.648C86.0716 343.536 86.2636 343.376 86.3996 343.168C86.5436 342.96 86.6156 342.712 86.6156 342.424C86.6156 342.104 86.5356 341.832 86.3756 341.608C86.2236 341.376 85.9556 341.196 85.5716 341.068C85.1956 340.94 84.6756 340.876 84.0116 340.876V339.844C84.5956 339.844 85.0516 339.78 85.3796 339.652C85.7156 339.516 85.9556 339.34 86.0996 339.124C86.2516 338.9 86.3276 338.652 86.3276 338.38C86.3276 337.996 86.2076 337.696 85.9676 337.48C85.7276 337.256 85.3956 337.144 84.9716 337.144C84.6356 337.144 84.3196 337.224 84.0236 337.384C83.7356 337.536 83.4636 337.736 83.2076 337.984L82.4876 337.12C82.8396 336.808 83.2236 336.552 83.6396 336.352C84.0556 336.144 84.5156 336.04 85.0196 336.04C85.5476 336.04 86.0156 336.128 86.4236 336.304C86.8316 336.48 87.1516 336.736 87.3836 337.072C87.6156 337.4 87.7316 337.8 87.7316 338.272C87.7316 338.768 87.5916 339.184 87.3116 339.52C87.0396 339.848 86.6716 340.1 86.2076 340.276V340.336C86.5436 340.416 86.8476 340.552 87.1196 340.744C87.3996 340.936 87.6196 341.18 87.7796 341.476C87.9396 341.764 88.0196 342.104 88.0196 342.496C88.0196 343.016 87.8836 343.46 87.6116 343.828C87.3476 344.196 86.9916 344.48 86.5436 344.68C86.0956 344.872 85.6036 344.968 85.0676 344.968ZM94.2226 344.968C93.7746 344.968 93.3266 344.88 92.8786 344.704C92.4386 344.528 92.0586 344.308 91.7386 344.044L92.3986 343.144C92.6866 343.376 92.9786 343.564 93.2746 343.708C93.5786 343.844 93.9066 343.912 94.2586 343.912C94.6506 343.912 94.9386 343.828 95.1226 343.66C95.3146 343.484 95.4106 343.272 95.4106 343.024C95.4106 342.824 95.3386 342.656 95.1946 342.52C95.0586 342.384 94.8786 342.268 94.6546 342.172C94.4306 342.068 94.1986 341.972 93.9586 341.884C93.6626 341.772 93.3706 341.64 93.0826 341.488C92.8026 341.328 92.5706 341.128 92.3866 340.888C92.2026 340.64 92.1106 340.332 92.1106 339.964C92.1106 339.588 92.2026 339.256 92.3866 338.968C92.5786 338.68 92.8506 338.452 93.2026 338.284C93.5546 338.116 93.9746 338.032 94.4626 338.032C94.9026 338.032 95.3026 338.108 95.6626 338.26C96.0306 338.412 96.3426 338.596 96.5986 338.812L95.9626 339.664C95.7306 339.496 95.4946 339.36 95.2546 339.256C95.0146 339.144 94.7626 339.088 94.4986 339.088C94.1306 339.088 93.8586 339.168 93.6826 339.328C93.5066 339.48 93.4186 339.672 93.4186 339.904C93.4186 340.088 93.4826 340.24 93.6106 340.36C93.7386 340.48 93.9066 340.584 94.1146 340.672C94.3306 340.76 94.5586 340.852 94.7986 340.948C95.0306 341.028 95.2586 341.124 95.4826 341.236C95.7146 341.34 95.9226 341.468 96.1066 341.62C96.2906 341.764 96.4386 341.944 96.5506 342.16C96.6706 342.368 96.7306 342.628 96.7306 342.94C96.7306 343.308 96.6346 343.648 96.4426 343.96C96.2506 344.272 95.9706 344.52 95.6026 344.704C95.2346 344.88 94.7746 344.968 94.2226 344.968ZM100.96 344.968C100.36 344.968 99.8163 344.832 99.3283 344.56C98.8403 344.28 98.4523 343.884 98.1643 343.372C97.8763 342.852 97.7323 342.228 97.7323 341.5C97.7323 340.964 97.8163 340.484 97.9843 340.06C98.1523 339.628 98.3803 339.264 98.6683 338.968C98.9563 338.664 99.2803 338.432 99.6403 338.272C100 338.112 100.368 338.032 100.744 338.032C101.328 338.032 101.82 338.164 102.22 338.428C102.62 338.684 102.924 339.048 103.132 339.52C103.34 339.984 103.444 340.528 103.444 341.152C103.444 341.288 103.436 341.42 103.42 341.548C103.412 341.668 103.396 341.772 103.372 341.86H99.0883C99.1283 342.276 99.2363 342.636 99.4123 342.94C99.5963 343.236 99.8323 343.468 100.12 343.636C100.416 343.796 100.752 343.876 101.128 343.876C101.424 343.876 101.7 343.832 101.956 343.744C102.212 343.656 102.46 343.536 102.7 343.384L103.18 344.26C102.876 344.46 102.536 344.628 102.16 344.764C101.792 344.9 101.392 344.968 100.96 344.968ZM99.0763 340.9H102.244C102.244 340.34 102.116 339.904 101.86 339.592C101.612 339.28 101.248 339.124 100.768 339.124C100.496 339.124 100.24 339.192 100 339.328C99.7603 339.464 99.5563 339.664 99.3883 339.928C99.2283 340.192 99.1243 340.516 99.0763 340.9ZM104.997 344.8V338.188H106.125L106.245 339.112H106.269C106.573 338.816 106.901 338.564 107.253 338.356C107.605 338.14 108.005 338.032 108.453 338.032C109.157 338.032 109.669 338.26 109.989 338.716C110.317 339.164 110.481 339.808 110.481 340.648V344.8H109.101V340.816C109.101 340.248 109.013 339.844 108.837 339.604C108.661 339.356 108.377 339.232 107.985 339.232C107.681 339.232 107.409 339.308 107.169 339.46C106.937 339.604 106.673 339.824 106.377 340.12V344.8H104.997ZM114.273 344.968C113.825 344.968 113.377 344.88 112.929 344.704C112.489 344.528 112.109 344.308 111.789 344.044L112.449 343.144C112.737 343.376 113.029 343.564 113.325 343.708C113.629 343.844 113.957 343.912 114.309 343.912C114.701 343.912 114.989 343.828 115.173 343.66C115.365 343.484 115.461 343.272 115.461 343.024C115.461 342.824 115.389 342.656 115.245 342.52C115.109 342.384 114.929 342.268 114.705 342.172C114.481 342.068 114.249 341.972 114.009 341.884C113.713 341.772 113.421 341.64 113.133 341.488C112.853 341.328 112.621 341.128 112.437 340.888C112.253 340.64 112.161 340.332 112.161 339.964C112.161 339.588 112.253 339.256 112.437 338.968C112.629 338.68 112.901 338.452 113.253 338.284C113.605 338.116 114.025 338.032 114.513 338.032C114.953 338.032 115.353 338.108 115.713 338.26C116.081 338.412 116.393 338.596 116.649 338.812L116.013 339.664C115.781 339.496 115.545 339.36 115.305 339.256C115.065 339.144 114.813 339.088 114.549 339.088C114.181 339.088 113.909 339.168 113.733 339.328C113.557 339.48 113.469 339.672 113.469 339.904C113.469 340.088 113.533 340.24 113.661 340.36C113.789 340.48 113.957 340.584 114.165 340.672C114.381 340.76 114.609 340.852 114.849 340.948C115.081 341.028 115.309 341.124 115.533 341.236C115.765 341.34 115.973 341.468 116.157 341.62C116.341 341.764 116.489 341.944 116.601 342.16C116.721 342.368 116.781 342.628 116.781 342.94C116.781 343.308 116.685 343.648 116.493 343.96C116.301 344.272 116.021 344.52 115.653 344.704C115.285 344.88 114.825 344.968 114.273 344.968ZM120.903 344.968C120.359 344.968 119.847 344.832 119.367 344.56C118.895 344.28 118.511 343.884 118.215 343.372C117.927 342.852 117.783 342.228 117.783 341.5C117.783 340.764 117.927 340.14 118.215 339.628C118.511 339.108 118.895 338.712 119.367 338.44C119.847 338.168 120.359 338.032 120.903 338.032C121.303 338.032 121.691 338.112 122.067 338.272C122.443 338.424 122.775 338.648 123.063 338.944C123.351 339.24 123.579 339.604 123.747 340.036C123.915 340.46 123.999 340.948 123.999 341.5C123.999 342.228 123.851 342.852 123.555 343.372C123.267 343.884 122.887 344.28 122.415 344.56C121.951 344.832 121.447 344.968 120.903 344.968ZM120.903 343.816C121.247 343.816 121.543 343.72 121.791 343.528C122.047 343.336 122.243 343.068 122.379 342.724C122.515 342.372 122.583 341.964 122.583 341.5C122.583 341.036 122.515 340.632 122.379 340.288C122.243 339.936 122.047 339.664 121.791 339.472C121.543 339.272 121.247 339.172 120.903 339.172C120.551 339.172 120.247 339.272 119.991 339.472C119.743 339.664 119.551 339.936 119.415 340.288C119.279 340.632 119.211 341.036 119.211 341.5C119.211 341.964 119.279 342.372 119.415 342.724C119.551 343.068 119.743 343.336 119.991 343.528C120.247 343.72 120.551 343.816 120.903 343.816ZM125.634 344.8V338.188H126.762L126.882 339.376H126.906C127.146 338.952 127.43 338.624 127.758 338.392C128.086 338.152 128.43 338.032 128.79 338.032C128.95 338.032 129.086 338.044 129.198 338.068C129.31 338.092 129.418 338.124 129.522 338.164L129.282 339.376C129.162 339.336 129.054 339.308 128.958 339.292C128.862 339.276 128.746 339.268 128.61 339.268C128.346 339.268 128.066 339.376 127.77 339.592C127.474 339.8 127.222 340.168 127.014 340.696V344.8H125.634ZM132.215 344.968C131.767 344.968 131.319 344.88 130.871 344.704C130.431 344.528 130.051 344.308 129.731 344.044L130.391 343.144C130.679 343.376 130.971 343.564 131.267 343.708C131.571 343.844 131.899 343.912 132.251 343.912C132.643 343.912 132.931 343.828 133.115 343.66C133.307 343.484 133.403 343.272 133.403 343.024C133.403 342.824 133.331 342.656 133.187 342.52C133.051 342.384 132.871 342.268 132.647 342.172C132.423 342.068 132.191 341.972 131.951 341.884C131.655 341.772 131.363 341.64 131.075 341.488C130.795 341.328 130.563 341.128 130.379 340.888C130.195 340.64 130.103 340.332 130.103 339.964C130.103 339.588 130.195 339.256 130.379 338.968C130.571 338.68 130.843 338.452 131.195 338.284C131.547 338.116 131.967 338.032 132.455 338.032C132.895 338.032 133.295 338.108 133.655 338.26C134.023 338.412 134.335 338.596 134.591 338.812L133.955 339.664C133.723 339.496 133.487 339.36 133.247 339.256C133.007 339.144 132.755 339.088 132.491 339.088C132.123 339.088 131.851 339.168 131.675 339.328C131.499 339.48 131.411 339.672 131.411 339.904C131.411 340.088 131.475 340.24 131.603 340.36C131.731 340.48 131.899 340.584 132.107 340.672C132.323 340.76 132.551 340.852 132.791 340.948C133.023 341.028 133.251 341.124 133.475 341.236C133.707 341.34 133.915 341.468 134.099 341.62C134.283 341.764 134.431 341.944 134.543 342.16C134.663 342.368 134.723 342.628 134.723 342.94C134.723 343.308 134.627 343.648 134.435 343.96C134.243 344.272 133.963 344.52 133.595 344.704C133.227 344.88 132.767 344.968 132.215 344.968Z" fill="white"/>
<rect x="107.5" y="369.8" width="2" height="50" fill="#FF0000"/>
<rect x="65.5" y="418.2" width="44" height="2" fill="#FFBB55"/>
<rect x="107.5" y="418.2" width="44" height="2" fill="#00A3FF"/>
<path d="M89 405.2L91 403.2L93 401.2H123L125 403.2L127 405.2V433.2L125 435.2L123 437.2H93L91 435.2L89 433.2V405.2Z" fill="#AAAAAA"/>
<path fill-rule="evenodd" clip-rule="evenodd" d="M103 404.2H113V407.2H103V404.2ZM124 407.2V417.2H122V407.2H124ZM95 417.2L95 407.2L92 407.2V417.2H95Z" fill="#DEDEDE"/>
<path fill-rule="evenodd" clip-rule="evenodd" d="M113 406.2H103V407.2H113V406.2ZM93 407.2L93 417.2H92V407.2L93 407.2ZM122 407.2V417.2H121V407.2L122 407.2Z" fill="#B6B6B6"/>
<path fill-rule="evenodd" clip-rule="evenodd" d="M93 399.2H123V401.2H93V399.2ZM91 403.2V401.2H93V403.2H91ZM89 405.2V403.2H91V405.2H89ZM91 435.2V433.2H89V422.2V405.2H87V422.2H83V435.2H89H91ZM93 437.2H91V435.2H93V437.2ZM123 437.2V439.2H93V437.2H123ZM125 435.2V437.2H123V435.2H125ZM127 405.2H129V422.2H133V435.2H127H125V433.2H127V422.2V405.2ZM125 403.2H127V405.2H125V403.2ZM125 403.2V401.2H123V403.2H125Z" fill="black"/>
<path fill-rule="evenodd" clip-rule="evenodd" d="M89 431.2H91V433.2H89V431.2ZM93 435.2H91V433.2H93V435.2ZM123 435.2V437.2H93V435.2H123ZM125 433.2V435.2H123V433.2H125ZM125 433.2V431.2H127V433.2H125Z" fill="#7B7B7B"/>
<rect x="101" y="412.2" width="14" height="14" fill="#2D3648"/>
<path fill-rule="evenodd" clip-rule="evenodd" d="M113 427.2H112V424.2H110V427.2H109V424.2L107 424.2V427.2H106V424.2H104L104 427.2H103L103 424.2H100V423.2H103L103 421.2H100V420.2H103L103 418.2H100V417.2H103L103 415.2H100V414.2H103L103 411.2H104L104 414.2H106V411.2H107V414.2H109V411.2H110V414.2H112V411.2H113V414.2H116V415.2H113V417.2H116V418.2H113L113 420.2H116V421.2H113V423.2H116V424.2H113V427.2ZM112 415.2H110V417.2H112V415.2ZM112 418.2H110V420.2H112V418.2ZM112 421.2H110V423.2H112V421.2ZM109 423.2V421.2L107 421.2V423.2L109 423.2ZM106 423.2V421.2H104V423.2H106ZM104 420.2H106V418.2H104L104 420.2ZM104 417.2H106V415.2H104V417.2ZM107 415.2V417.2H109V415.2H107ZM109 418.2H107V420.2H109V418.2Z" fill="#FFCC19"/>
<rect x="102" y="413.2" width="12" height="12" fill="#2D3648"/>
<rect x="103" y="414.2" width="10" height="10" fill="#D9D9D9"/>
<rect x="103" y="422.2" width="10" height="2" fill="#A7A7A7"/>
<rect x="103" y="420.2" width="10" height="2" fill="#BCBCBC"/>
<path fill-rule="evenodd" clip-rule="evenodd" d="M104 414.2H103V415.2H104V414.2ZM113 414.2H112V415.2H113V414.2ZM112 423.2H113V424.2H112V423.2ZM104 423.2H103V424.2H104V423.2Z" fill="#2D3648"/>
<rect x="254" y="40.8" width="45" height="20" rx="3.5" fill="#FF55B1"/>
<path d="M261.172 46.8V54.8H259.961V48.011H259.914L258 49.261V48.1047L259.996 46.8H261.172ZM263.446 54.8V53.925L266.153 51.1204C266.442 50.8157 266.68 50.5487 266.868 50.3196C267.058 50.0878 267.2 49.8678 267.293 49.6594C267.387 49.4511 267.434 49.2297 267.434 48.9954C267.434 48.7297 267.372 48.5006 267.247 48.3079C267.122 48.1125 266.951 47.9628 266.735 47.8586C266.519 47.7519 266.275 47.6985 266.004 47.6985C265.718 47.6985 265.468 47.7571 265.254 47.8743C265.041 47.9915 264.877 48.1568 264.762 48.3704C264.648 48.5839 264.59 48.8339 264.59 49.1204H263.438C263.438 48.6334 263.55 48.2076 263.774 47.843C263.998 47.4784 264.305 47.1959 264.696 46.9954C265.086 46.7922 265.53 46.6907 266.028 46.6907C266.53 46.6907 266.973 46.7909 267.356 46.9915C267.741 47.1894 268.042 47.4602 268.258 47.804C268.474 48.1451 268.583 48.5305 268.583 48.9602C268.583 49.2571 268.527 49.5474 268.415 49.8313C268.305 50.1152 268.114 50.4316 267.84 50.7805C267.567 51.1269 267.187 51.5474 266.7 52.0422L265.11 53.7063V53.7649H268.711V54.8H263.446ZM271.087 54.8743C270.874 54.8743 270.69 54.7987 270.536 54.6477C270.383 54.4941 270.306 54.3092 270.306 54.093C270.306 53.8795 270.383 53.6972 270.536 53.5461C270.69 53.3925 270.874 53.3157 271.087 53.3157C271.301 53.3157 271.484 53.3925 271.638 53.5461C271.792 53.6972 271.868 53.8795 271.868 54.093C271.868 54.2362 271.832 54.3678 271.759 54.4875C271.689 54.6047 271.595 54.6985 271.478 54.7688C271.361 54.8391 271.23 54.8743 271.087 54.8743ZM276.039 54.9094C275.549 54.9094 275.109 54.8157 274.719 54.6282C274.331 54.4381 274.021 54.1777 273.789 53.8469C273.557 53.5162 273.433 53.1386 273.418 52.7141H274.59C274.618 53.0579 274.771 53.3404 275.047 53.5618C275.323 53.7831 275.653 53.8938 276.039 53.8938C276.346 53.8938 276.618 53.8235 276.855 53.6829C277.095 53.5396 277.282 53.343 277.418 53.093C277.556 52.843 277.625 52.5579 277.625 52.2375C277.625 51.912 277.555 51.6217 277.414 51.3665C277.273 51.1112 277.079 50.9107 276.832 50.7649C276.587 50.6191 276.306 50.5448 275.988 50.5422C275.746 50.5422 275.502 50.5839 275.258 50.6672C275.013 50.7506 274.815 50.8599 274.664 50.9954L273.558 50.8313L274.008 46.8H278.406V47.8352H275.012L274.758 50.0735H274.805C274.961 49.9224 275.168 49.7961 275.426 49.6946C275.686 49.593 275.965 49.5422 276.262 49.5422C276.749 49.5422 277.182 49.6581 277.562 49.8899C277.945 50.1217 278.246 50.4381 278.465 50.8391C278.686 51.2375 278.795 51.6959 278.793 52.2141C278.795 52.7323 278.678 53.1946 278.441 53.6008C278.207 54.0071 277.881 54.3274 277.465 54.5618C277.051 54.7935 276.575 54.9094 276.039 54.9094ZM282.873 54.9211C282.292 54.9211 281.792 54.7896 281.373 54.5266C280.956 54.261 280.636 53.8951 280.412 53.429C280.188 52.9628 280.076 52.429 280.076 51.8274C280.076 51.218 280.19 50.6803 280.419 50.2141C280.649 49.7454 280.971 49.3795 281.388 49.1165C281.805 48.8534 282.296 48.7219 282.861 48.7219C283.317 48.7219 283.723 48.8066 284.08 48.9758C284.436 49.1425 284.724 49.3769 284.943 49.679C285.164 49.981 285.296 50.3339 285.337 50.7375H284.201C284.138 50.4563 283.995 50.2141 283.771 50.011C283.55 49.8079 283.253 49.7063 282.88 49.7063C282.555 49.7063 282.27 49.7922 282.025 49.9641C281.783 50.1334 281.594 50.3756 281.458 50.6907C281.323 51.0032 281.255 51.373 281.255 51.8C281.255 52.2375 281.322 52.6152 281.455 52.9329C281.587 53.2506 281.775 53.4967 282.017 53.6711C282.262 53.8456 282.55 53.9329 282.88 53.9329C283.102 53.9329 283.302 53.8925 283.482 53.8118C283.664 53.7284 283.817 53.6099 283.939 53.4563C284.064 53.3027 284.151 53.1178 284.201 52.9016H285.337C285.296 53.2896 285.169 53.636 284.958 53.9407C284.748 54.2454 284.465 54.4849 284.111 54.6594C283.759 54.8339 283.346 54.9211 282.873 54.9211ZM286.696 54.8V48.8H287.817V49.7766H287.892C288.017 49.4459 288.221 49.1881 288.505 49.0032C288.789 48.8157 289.129 48.7219 289.525 48.7219C289.926 48.7219 290.261 48.8157 290.532 49.0032C290.806 49.1907 291.008 49.4485 291.138 49.7766H291.2C291.344 49.4563 291.571 49.2011 291.884 49.011C292.196 48.8183 292.569 48.7219 293.001 48.7219C293.545 48.7219 293.989 48.8925 294.333 49.2336C294.679 49.5748 294.853 50.0891 294.853 50.7766V54.8H293.685V50.886C293.685 50.4797 293.574 50.1855 293.353 50.0032C293.131 49.8209 292.867 49.7297 292.56 49.7297C292.179 49.7297 291.884 49.8469 291.673 50.0813C291.462 50.3131 291.357 50.6112 291.357 50.9758V54.8H290.192V50.8118C290.192 50.4862 290.091 50.2245 289.888 50.0266C289.685 49.8287 289.42 49.7297 289.095 49.7297C288.873 49.7297 288.669 49.7883 288.482 49.9055C288.297 50.0201 288.147 50.1803 288.032 50.386C287.92 50.5917 287.864 50.83 287.864 51.1008V54.8H286.696Z" fill="white"/>
<path d="M251.5 67.8H301.5" stroke="#FF55B1"/>
<path d="M251.5 64.8V70.8" stroke="#FF55B1"/>
<path d="M301.5 64.8V70.8" stroke="#FF55B1"/>
<path d="M257.5 84.8L259.5 82.8L261.5 80.8H291.5L293.5 82.8L295.5 84.8V112.8L293.5 114.8L291.5 116.8H261.5L259.5 114.8L257.5 112.8V84.8Z" fill="#E22F17"/>
<path fill-rule="evenodd" clip-rule="evenodd" d="M271.5 83.8H281.5V86.8H271.5V83.8ZM292.5 86.8V96.8H290.5V86.8H292.5ZM263.5 96.8L263.5 86.8L260.5 86.8V96.8H263.5Z" fill="#DEDEDE"/>
<path fill-rule="evenodd" clip-rule="evenodd" d="M281.5 85.8H271.5V86.8H281.5V85.8ZM261.5 86.8L261.5 96.8H260.5V86.8L261.5 86.8ZM290.5 86.8V96.8H289.5V86.8L290.5 86.8Z" fill="#B6B6B6"/>
<path fill-rule="evenodd" clip-rule="evenodd" d="M261.5 78.8H291.5V80.8H261.5V78.8ZM259.5 82.8V80.8H261.5V82.8H259.5ZM257.5 84.8V82.8H259.5V84.8H257.5ZM259.5 114.8V112.8H257.5V101.8V84.8H255.5V101.8H251.5V114.8H257.5H259.5ZM261.5 116.8H259.5V114.8H261.5V116.8ZM291.5 116.8V118.8H261.5V116.8H291.5ZM293.5 114.8V116.8H291.5V114.8H293.5ZM295.5 84.8H297.5V101.8H301.5V114.8H295.5H293.5V112.8H295.5V101.8V84.8ZM293.5 82.8H295.5V84.8H293.5V82.8ZM293.5 82.8V80.8H291.5V82.8H293.5Z" fill="black"/>
<path fill-rule="evenodd" clip-rule="evenodd" d="M257.5 110.8H259.5V112.8H257.5V110.8ZM261.5 114.8H259.5V112.8H261.5V114.8ZM291.5 114.8V116.8H261.5V114.8H291.5ZM293.5 112.8V114.8H291.5V112.8H293.5ZM293.5 112.8V110.8H295.5V112.8H293.5Z" fill="#BB0A0A"/>
<rect x="269.5" y="91.8" width="14" height="14" fill="#2D3648"/>
<path fill-rule="evenodd" clip-rule="evenodd" d="M281.5 106.8H280.5V103.8H278.5V106.8H277.5V103.8L275.5 103.8V106.8H274.5V103.8H272.5L272.5 106.8H271.5L271.5 103.8H268.5V102.8H271.5L271.5 100.8H268.5V99.8H271.5L271.5 97.8H268.5V96.8H271.5L271.5 94.8H268.5V93.8H271.5L271.5 90.8H272.5L272.5 93.8H274.5V90.8H275.5V93.8H277.5V90.8H278.5V93.8H280.5V90.8H281.5V93.8H284.5V94.8H281.5V96.8H284.5V97.8H281.5L281.5 99.8H284.5V100.8H281.5V102.8H284.5V103.8H281.5V106.8ZM280.5 94.8H278.5V96.8H280.5V94.8ZM280.5 97.8H278.5V99.8H280.5V97.8ZM280.5 100.8H278.5V102.8H280.5V100.8ZM277.5 102.8V100.8L275.5 100.8V102.8L277.5 102.8ZM274.5 102.8V100.8H272.5V102.8H274.5ZM272.5 99.8H274.5V97.8H272.5L272.5 99.8ZM272.5 96.8H274.5V94.8H272.5V96.8ZM275.5 94.8V96.8H277.5V94.8H275.5ZM277.5 97.8H275.5V99.8H277.5V97.8Z" fill="#FFCC19"/>
<rect x="270.5" y="92.8" width="12" height="12" fill="#2D3648"/>
<rect x="271.5" y="93.8" width="10" height="10" fill="#D9D9D9"/>
<rect x="271.5" y="101.8" width="10" height="2" fill="#A7A7A7"/>
<rect x="271.5" y="99.8" width="10" height="2" fill="#BCBCBC"/>
<path fill-rule="evenodd" clip-rule="evenodd" d="M272.5 93.8H271.5V94.8H272.5V93.8ZM281.5 93.8H280.5V94.8H281.5V93.8ZM280.5 102.8H281.5V103.8H280.5V102.8ZM272.5 102.8H271.5V103.8H272.5V102.8Z" fill="#2D3648"/>
<path d="M257.5 164.8L259.5 162.8L261.5 160.8H291.5L293.5 162.8L295.5 164.8V192.8L293.5 194.8L291.5 196.8H261.5L259.5 194.8L257.5 192.8V164.8Z" fill="#61C95F"/>
<path fill-rule="evenodd" clip-rule="evenodd" d="M271.5 163.8H281.5V166.8H271.5V163.8ZM292.5 166.8V176.8H290.5V166.8H292.5ZM263.5 176.8L263.5 166.8L260.5 166.8V176.8H263.5Z" fill="#DEDEDE"/>
<path fill-rule="evenodd" clip-rule="evenodd" d="M281.5 165.8H271.5V166.8H281.5V165.8ZM261.5 166.8L261.5 176.8H260.5V166.8L261.5 166.8ZM290.5 166.8V176.8H289.5V166.8L290.5 166.8Z" fill="#B6B6B6"/>
<path fill-rule="evenodd" clip-rule="evenodd" d="M261.5 158.8H291.5V160.8H261.5V158.8ZM259.5 162.8V160.8H261.5V162.8H259.5ZM257.5 164.8V162.8H259.5V164.8H257.5ZM259.5 194.8V192.8H257.5V181.8V164.8H255.5V181.8H251.5V194.8H257.5H259.5ZM261.5 196.8H259.5V194.8H261.5V196.8ZM291.5 196.8V198.8H261.5V196.8H291.5ZM293.5 194.8V196.8H291.5V194.8H293.5ZM295.5 164.8H297.5V181.8H301.5V194.8H295.5H293.5V192.8H295.5V181.8V164.8ZM293.5 162.8H295.5V164.8H293.5V162.8ZM293.5 162.8V160.8H291.5V162.8H293.5Z" fill="black"/>
<path fill-rule="evenodd" clip-rule="evenodd" d="M257.5 190.8H259.5V192.8H257.5V190.8ZM261.5 194.8H259.5V192.8H261.5V194.8ZM291.5 194.8V196.8H261.5V194.8H291.5ZM293.5 192.8V194.8H291.5V192.8H293.5ZM293.5 192.8V190.8H295.5V192.8H293.5Z" fill="#47902E"/>
<rect x="269.5" y="171.8" width="14" height="14" fill="#2D3648"/>
<path fill-rule="evenodd" clip-rule="evenodd" d="M281.5 186.8H280.5V183.8H278.5V186.8H277.5V183.8L275.5 183.8V186.8H274.5V183.8H272.5L272.5 186.8H271.5L271.5 183.8H268.5V182.8H271.5L271.5 180.8H268.5V179.8H271.5L271.5 177.8H268.5V176.8H271.5L271.5 174.8H268.5V173.8H271.5L271.5 170.8H272.5L272.5 173.8H274.5V170.8H275.5V173.8H277.5V170.8H278.5V173.8H280.5V170.8H281.5V173.8H284.5V174.8H281.5V176.8H284.5V177.8H281.5L281.5 179.8H284.5V180.8H281.5V182.8H284.5V183.8H281.5V186.8ZM280.5 174.8H278.5V176.8H280.5V174.8ZM280.5 177.8H278.5V179.8H280.5V177.8ZM280.5 180.8H278.5V182.8H280.5V180.8ZM277.5 182.8V180.8L275.5 180.8V182.8L277.5 182.8ZM274.5 182.8V180.8H272.5V182.8H274.5ZM272.5 179.8H274.5V177.8H272.5L272.5 179.8ZM272.5 176.8H274.5V174.8H272.5V176.8ZM275.5 174.8V176.8H277.5V174.8H275.5ZM277.5 177.8H275.5V179.8H277.5V177.8Z" fill="#FFCC19"/>
<rect x="270.5" y="172.8" width="12" height="12" fill="#2D3648"/>
<rect x="271.5" y="173.8" width="10" height="10" fill="#D9D9D9"/>
<rect x="271.5" y="181.8" width="10" height="2" fill="#A7A7A7"/>
<rect x="271.5" y="179.8" width="10" height="2" fill="#BCBCBC"/>
<path fill-rule="evenodd" clip-rule="evenodd" d="M272.5 173.8H271.5V174.8H272.5V173.8ZM281.5 173.8H280.5V174.8H281.5V173.8ZM280.5 182.8H281.5V183.8H280.5V182.8ZM272.5 182.8H271.5V183.8H272.5V182.8Z" fill="#2D3648"/>
<path d="M257.5 244.8L259.5 242.8L261.5 240.8H291.5L293.5 242.8L295.5 244.8V272.8L293.5 274.8L291.5 276.8H261.5L259.5 274.8L257.5 272.8V244.8Z" fill="#00C9E6"/>
<path fill-rule="evenodd" clip-rule="evenodd" d="M271.5 243.8H281.5V246.8H271.5V243.8ZM292.5 246.8V256.8H290.5V246.8H292.5ZM263.5 256.8L263.5 246.8L260.5 246.8V256.8H263.5Z" fill="#DEDEDE"/>
<path fill-rule="evenodd" clip-rule="evenodd" d="M281.5 245.8H271.5V246.8H281.5V245.8ZM261.5 246.8L261.5 256.8H260.5V246.8L261.5 246.8ZM290.5 246.8V256.8H289.5V246.8L290.5 246.8Z" fill="#B6B6B6"/>
<path fill-rule="evenodd" clip-rule="evenodd" d="M261.5 238.8H291.5V240.8H261.5V238.8ZM259.5 242.8V240.8H261.5V242.8H259.5ZM257.5 244.8V242.8H259.5V244.8H257.5ZM259.5 274.8V272.8H257.5V261.8V244.8H255.5V261.8H251.5V274.8H257.5H259.5ZM261.5 276.8H259.5V274.8H261.5V276.8ZM291.5 276.8V278.8H261.5V276.8H291.5ZM293.5 274.8V276.8H291.5V274.8H293.5ZM295.5 244.8H297.5V261.8H301.5V274.8H295.5H293.5V272.8H295.5V261.8V244.8ZM293.5 242.8H295.5V244.8H293.5V242.8ZM293.5 242.8V240.8H291.5V242.8H293.5Z" fill="black"/>
<path fill-rule="evenodd" clip-rule="evenodd" d="M257.5 270.8H259.5V272.8H257.5V270.8ZM261.5 274.8H259.5V272.8H261.5V274.8ZM291.5 274.8V276.8H261.5V274.8H291.5ZM293.5 272.8V274.8H291.5V272.8H293.5ZM293.5 272.8V270.8H295.5V272.8H293.5Z" fill="#0083C5"/>
<rect x="269.5" y="251.8" width="14" height="14" fill="#2D3648"/>
<path fill-rule="evenodd" clip-rule="evenodd" d="M281.5 266.8H280.5V263.8H278.5V266.8H277.5V263.8L275.5 263.8V266.8H274.5V263.8H272.5L272.5 266.8H271.5L271.5 263.8H268.5V262.8H271.5L271.5 260.8H268.5V259.8H271.5L271.5 257.8H268.5V256.8H271.5L271.5 254.8H268.5V253.8H271.5L271.5 250.8H272.5L272.5 253.8H274.5V250.8H275.5V253.8H277.5V250.8H278.5V253.8H280.5V250.8H281.5V253.8H284.5V254.8H281.5V256.8H284.5V257.8H281.5L281.5 259.8H284.5V260.8H281.5V262.8H284.5V263.8H281.5V266.8ZM280.5 254.8H278.5V256.8H280.5V254.8ZM280.5 257.8H278.5V259.8H280.5V257.8ZM280.5 260.8H278.5V262.8H280.5V260.8ZM277.5 262.8V260.8L275.5 260.8V262.8L277.5 262.8ZM274.5 262.8V260.8H272.5V262.8H274.5ZM272.5 259.8H274.5V257.8H272.5L272.5 259.8ZM272.5 256.8H274.5V254.8H272.5V256.8ZM275.5 254.8V256.8H277.5V254.8H275.5ZM277.5 257.8H275.5V259.8H277.5V257.8Z" fill="#FFCC19"/>
<rect x="270.5" y="252.8" width="12" height="12" fill="#2D3648"/>
<rect x="271.5" y="253.8" width="10" height="10" fill="#D9D9D9"/>
<rect x="271.5" y="261.8" width="10" height="2" fill="#A7A7A7"/>
<rect x="271.5" y="259.8" width="10" height="2" fill="#BCBCBC"/>
<path fill-rule="evenodd" clip-rule="evenodd" d="M272.5 253.8H271.5V254.8H272.5V253.8ZM281.5 253.8H280.5V254.8H281.5V253.8ZM280.5 262.8H281.5V263.8H280.5V262.8ZM272.5 262.8H271.5V263.8H272.5V262.8Z" fill="#2D3648"/>
<path d="M257.5 324.8L259.5 322.8L261.5 320.8H291.5L293.5 322.8L295.5 324.8V352.8L293.5 354.8L291.5 356.8H261.5L259.5 354.8L257.5 352.8V324.8Z" fill="#F56499"/>
<path fill-rule="evenodd" clip-rule="evenodd" d="M271.5 323.8H281.5V326.8H271.5V323.8ZM292.5 326.8V336.8H290.5V326.8H292.5ZM263.5 336.8L263.5 326.8L260.5 326.8V336.8H263.5Z" fill="#DEDEDE"/>
<path fill-rule="evenodd" clip-rule="evenodd" d="M281.5 325.8H271.5V326.8H281.5V325.8ZM261.5 326.8L261.5 336.8H260.5V326.8L261.5 326.8ZM290.5 326.8V336.8H289.5V326.8L290.5 326.8Z" fill="#B6B6B6"/>
<path fill-rule="evenodd" clip-rule="evenodd" d="M261.5 318.8H291.5V320.8H261.5V318.8ZM259.5 322.8V320.8H261.5V322.8H259.5ZM257.5 324.8V322.8H259.5V324.8H257.5ZM259.5 354.8V352.8H257.5V341.8V324.8H255.5V341.8H251.5V354.8H257.5H259.5ZM261.5 356.8H259.5V354.8H261.5V356.8ZM291.5 356.8V358.8H261.5V356.8H291.5ZM293.5 354.8V356.8H291.5V354.8H293.5ZM295.5 324.8H297.5V341.8H301.5V354.8H295.5H293.5V352.8H295.5V341.8V324.8ZM293.5 322.8H295.5V324.8H293.5V322.8ZM293.5 322.8V320.8H291.5V322.8H293.5Z" fill="black"/>
<path fill-rule="evenodd" clip-rule="evenodd" d="M257.5 350.8H259.5V352.8H257.5V350.8ZM261.5 354.8H259.5V352.8H261.5V354.8ZM291.5 354.8V356.8H261.5V354.8H291.5ZM293.5 352.8V354.8H291.5V352.8H293.5ZM293.5 352.8V350.8H295.5V352.8H293.5Z" fill="#D81E62"/>
<rect x="269.5" y="331.8" width="14" height="14" fill="#2D3648"/>
<path fill-rule="evenodd" clip-rule="evenodd" d="M281.5 346.8H280.5V343.8H278.5V346.8H277.5V343.8L275.5 343.8V346.8H274.5V343.8H272.5L272.5 346.8H271.5L271.5 343.8H268.5V342.8H271.5L271.5 340.8H268.5V339.8H271.5L271.5 337.8H268.5V336.8H271.5L271.5 334.8H268.5V333.8H271.5L271.5 330.8H272.5L272.5 333.8H274.5V330.8H275.5V333.8H277.5V330.8H278.5V333.8H280.5V330.8H281.5V333.8H284.5V334.8H281.5V336.8H284.5V337.8H281.5L281.5 339.8H284.5V340.8H281.5V342.8H284.5V343.8H281.5V346.8ZM280.5 334.8H278.5V336.8H280.5V334.8ZM280.5 337.8H278.5V339.8H280.5V337.8ZM280.5 340.8H278.5V342.8H280.5V340.8ZM277.5 342.8V340.8L275.5 340.8V342.8L277.5 342.8ZM274.5 342.8V340.8H272.5V342.8H274.5ZM272.5 339.8H274.5V337.8H272.5L272.5 339.8ZM272.5 336.8H274.5V334.8H272.5V336.8ZM275.5 334.8V336.8H277.5V334.8H275.5ZM277.5 337.8H275.5V339.8H277.5V337.8Z" fill="#FFCC19"/>
<rect x="270.5" y="332.8" width="12" height="12" fill="#2D3648"/>
<rect x="271.5" y="333.8" width="10" height="10" fill="#D9D9D9"/>
<rect x="271.5" y="341.8" width="10" height="2" fill="#A7A7A7"/>
<rect x="271.5" y="339.8" width="10" height="2" fill="#BCBCBC"/>
<path fill-rule="evenodd" clip-rule="evenodd" d="M272.5 333.8H271.5V334.8H272.5V333.8ZM281.5 333.8H280.5V334.8H281.5V333.8ZM280.5 342.8H281.5V343.8H280.5V342.8ZM272.5 342.8H271.5V343.8H272.5V342.8Z" fill="#2D3648"/>
<path d="M257.5 404.8L259.5 402.8L261.5 400.8H291.5L293.5 402.8L295.5 404.8V432.8L293.5 434.8L291.5 436.8H261.5L259.5 434.8L257.5 432.8V404.8Z" fill="#FAD300"/>
<path fill-rule="evenodd" clip-rule="evenodd" d="M271.5 403.8H281.5V406.8H271.5V403.8ZM292.5 406.8V416.8H290.5V406.8H292.5ZM263.5 416.8L263.5 406.8L260.5 406.8V416.8H263.5Z" fill="#DEDEDE"/>
<path fill-rule="evenodd" clip-rule="evenodd" d="M281.5 405.8H271.5V406.8H281.5V405.8ZM261.5 406.8L261.5 416.8H260.5V406.8L261.5 406.8ZM290.5 406.8V416.8H289.5V406.8L290.5 406.8Z" fill="#B6B6B6"/>
<path fill-rule="evenodd" clip-rule="evenodd" d="M261.5 398.8H291.5V400.8H261.5V398.8ZM259.5 402.8V400.8H261.5V402.8H259.5ZM257.5 404.8V402.8H259.5V404.8H257.5ZM259.5 434.8V432.8H257.5V421.8V404.8H255.5V421.8H251.5V434.8H257.5H259.5ZM261.5 436.8H259.5V434.8H261.5V436.8ZM291.5 436.8V438.8H261.5V436.8H291.5ZM293.5 434.8V436.8H291.5V434.8H293.5ZM295.5 404.8H297.5V421.8H301.5V434.8H295.5H293.5V432.8H295.5V421.8V404.8ZM293.5 402.8H295.5V404.8H293.5V402.8ZM293.5 402.8V400.8H291.5V402.8H293.5Z" fill="black"/>
<path fill-rule="evenodd" clip-rule="evenodd" d="M257.5 430.8H259.5V432.8H257.5V430.8ZM261.5 434.8H259.5V432.8H261.5V434.8ZM291.5 434.8V436.8H261.5V434.8H291.5ZM293.5 432.8V434.8H291.5V432.8H293.5ZM293.5 432.8V430.8H295.5V432.8H293.5Z" fill="#9C8400"/>
<rect x="269.5" y="411.8" width="14" height="14" fill="#2D3648"/>
<path fill-rule="evenodd" clip-rule="evenodd" d="M281.5 426.8H280.5V423.8H278.5V426.8H277.5V423.8L275.5 423.8V426.8H274.5V423.8H272.5L272.5 426.8H271.5L271.5 423.8H268.5V422.8H271.5L271.5 420.8H268.5V419.8H271.5L271.5 417.8H268.5V416.8H271.5L271.5 414.8H268.5V413.8H271.5L271.5 410.8H272.5L272.5 413.8H274.5V410.8H275.5V413.8H277.5V410.8H278.5V413.8H280.5V410.8H281.5V413.8H284.5V414.8H281.5V416.8H284.5V417.8H281.5L281.5 419.8H284.5V420.8H281.5V422.8H284.5V423.8H281.5V426.8ZM280.5 414.8H278.5V416.8H280.5V414.8ZM280.5 417.8H278.5V419.8H280.5V417.8ZM280.5 420.8H278.5V422.8H280.5V420.8ZM277.5 422.8V420.8L275.5 420.8V422.8L277.5 422.8ZM274.5 422.8V420.8H272.5V422.8H274.5ZM272.5 419.8H274.5V417.8H272.5L272.5 419.8ZM272.5 416.8H274.5V414.8H272.5V416.8ZM275.5 414.8V416.8H277.5V414.8H275.5ZM277.5 417.8H275.5V419.8H277.5V417.8Z" fill="#FFCC19"/>
<rect x="270.5" y="412.8" width="12" height="12" fill="#2D3648"/>
<rect x="271.5" y="413.8" width="10" height="10" fill="#D9D9D9"/>
<rect x="271.5" y="421.8" width="10" height="2" fill="#A7A7A7"/>
<rect x="271.5" y="419.8" width="10" height="2" fill="#BCBCBC"/>
<path fill-rule="evenodd" clip-rule="evenodd" d="M272.5 413.8H271.5V414.8H272.5V413.8ZM281.5 413.8H280.5V414.8H281.5V413.8ZM280.5 422.8H281.5V423.8H280.5V422.8ZM272.5 422.8H271.5V423.8H272.5V422.8Z" fill="#2D3648"/>
<path d="M257.5 484.8L259.5 482.8L261.5 480.8H291.5L293.5 482.8L295.5 484.8V512.8L293.5 514.8L291.5 516.8H261.5L259.5 514.8L257.5 512.8V484.8Z" fill="#E09E42"/>
<path fill-rule="evenodd" clip-rule="evenodd" d="M271.5 483.8H281.5V486.8H271.5V483.8ZM292.5 486.8V496.8H290.5V486.8H292.5ZM263.5 496.8L263.5 486.8L260.5 486.8V496.8H263.5Z" fill="#DEDEDE"/>
<path fill-rule="evenodd" clip-rule="evenodd" d="M281.5 485.8H271.5V486.8H281.5V485.8ZM261.5 486.8L261.5 496.8H260.5V486.8L261.5 486.8ZM290.5 486.8V496.8H289.5V486.8L290.5 486.8Z" fill="#B6B6B6"/>
<path fill-rule="evenodd" clip-rule="evenodd" d="M261.5 478.8H291.5V480.8H261.5V478.8ZM259.5 482.8V480.8H261.5V482.8H259.5ZM257.5 484.8V482.8H259.5V484.8H257.5ZM259.5 514.8V512.8H257.5V501.8V484.8H255.5V501.8H251.5V514.8H257.5H259.5ZM261.5 516.8H259.5V514.8H261.5V516.8ZM291.5 516.8V518.8H261.5V516.8H291.5ZM293.5 514.8V516.8H291.5V514.8H293.5ZM295.5 484.8H297.5V501.8H301.5V514.8H295.5H293.5V512.8H295.5V501.8V484.8ZM293.5 482.8H295.5V484.8H293.5V482.8ZM293.5 482.8V480.8H291.5V482.8H293.5Z" fill="black"/>
<path fill-rule="evenodd" clip-rule="evenodd" d="M257.5 510.8H259.5V512.8H257.5V510.8ZM261.5 514.8H259.5V512.8H261.5V514.8ZM291.5 514.8V516.8H261.5V514.8H291.5ZM293.5 512.8V514.8H291.5V512.8H293.5ZM293.5 512.8V510.8H295.5V512.8H293.5Z" fill="#AE7527"/>
<rect x="269.5" y="491.8" width="14" height="14" fill="#2D3648"/>
<path fill-rule="evenodd" clip-rule="evenodd" d="M281.5 506.8H280.5V503.8H278.5V506.8H277.5V503.8L275.5 503.8V506.8H274.5V503.8H272.5L272.5 506.8H271.5L271.5 503.8H268.5V502.8H271.5L271.5 500.8H268.5V499.8H271.5L271.5 497.8H268.5V496.8H271.5L271.5 494.8H268.5V493.8H271.5L271.5 490.8H272.5L272.5 493.8H274.5V490.8H275.5V493.8H277.5V490.8H278.5V493.8H280.5V490.8H281.5V493.8H284.5V494.8H281.5V496.8H284.5V497.8H281.5L281.5 499.8H284.5V500.8H281.5V502.8H284.5V503.8H281.5V506.8ZM280.5 494.8H278.5V496.8H280.5V494.8ZM280.5 497.8H278.5V499.8H280.5V497.8ZM280.5 500.8H278.5V502.8H280.5V500.8ZM277.5 502.8V500.8L275.5 500.8V502.8L277.5 502.8ZM274.5 502.8V500.8H272.5V502.8H274.5ZM272.5 499.8H274.5V497.8H272.5L272.5 499.8ZM272.5 496.8H274.5V494.8H272.5V496.8ZM275.5 494.8V496.8H277.5V494.8H275.5ZM277.5 497.8H275.5V499.8H277.5V497.8Z" fill="#FFCC19"/>
<rect x="270.5" y="492.8" width="12" height="12" fill="#2D3648"/>
<rect x="271.5" y="493.8" width="10" height="10" fill="#D9D9D9"/>
<rect x="271.5" y="501.8" width="10" height="2" fill="#A7A7A7"/>
<rect x="271.5" y="499.8" width="10" height="2" fill="#BCBCBC"/>
<path fill-rule="evenodd" clip-rule="evenodd" d="M272.5 493.8H271.5V494.8H272.5V493.8ZM281.5 493.8H280.5V494.8H281.5V493.8ZM280.5 502.8H281.5V503.8H280.5V502.8ZM272.5 502.8H271.5V503.8H272.5V502.8Z" fill="#2D3648"/>
<rect x="414" y="40.8" width="35" height="20" rx="3.5" fill="#FF55B1"/>
<path d="M421.148 46.8V54.8H419.937V48.011H419.89L417.976 49.261V48.1047L419.972 46.8H421.148ZM426.063 54.9094C425.573 54.9094 425.133 54.8157 424.742 54.6282C424.354 54.4381 424.044 54.1777 423.813 53.8469C423.581 53.5162 423.457 53.1386 423.442 52.7141H424.613C424.642 53.0579 424.794 53.3404 425.07 53.5618C425.347 53.7831 425.677 53.8938 426.063 53.8938C426.37 53.8938 426.642 53.8235 426.879 53.6829C427.119 53.5396 427.306 53.343 427.442 53.093C427.58 52.843 427.649 52.5579 427.649 52.2375C427.649 51.912 427.578 51.6217 427.438 51.3665C427.297 51.1112 427.103 50.9107 426.856 50.7649C426.611 50.6191 426.33 50.5448 426.012 50.5422C425.77 50.5422 425.526 50.5839 425.281 50.6672C425.037 50.7506 424.839 50.8599 424.688 50.9954L423.582 50.8313L424.031 46.8H428.43V47.8352H425.035L424.781 50.0735H424.828C424.985 49.9224 425.192 49.7961 425.449 49.6946C425.71 49.593 425.988 49.5422 426.285 49.5422C426.772 49.5422 427.206 49.6581 427.586 49.8899C427.969 50.1217 428.27 50.4381 428.488 50.8391C428.71 51.2375 428.819 51.6959 428.817 52.2141C428.819 52.7323 428.702 53.1946 428.465 53.6008C428.231 54.0071 427.905 54.3274 427.488 54.5618C427.074 54.7935 426.599 54.9094 426.063 54.9094ZM432.896 54.9211C432.316 54.9211 431.816 54.7896 431.396 54.5266C430.98 54.261 430.659 53.8951 430.435 53.429C430.211 52.9628 430.099 52.429 430.099 51.8274C430.099 51.218 430.214 50.6803 430.443 50.2141C430.672 49.7454 430.995 49.3795 431.412 49.1165C431.829 48.8534 432.319 48.7219 432.885 48.7219C433.34 48.7219 433.747 48.8066 434.103 48.9758C434.46 49.1425 434.748 49.3769 434.967 49.679C435.188 49.981 435.319 50.3339 435.361 50.7375H434.224C434.162 50.4563 434.019 50.2141 433.795 50.011C433.573 49.8079 433.277 49.7063 432.904 49.7063C432.579 49.7063 432.293 49.7922 432.049 49.9641C431.806 50.1334 431.618 50.3756 431.482 50.6907C431.347 51.0032 431.279 51.373 431.279 51.8C431.279 52.2375 431.346 52.6152 431.478 52.9329C431.611 53.2506 431.799 53.4967 432.041 53.6711C432.286 53.8456 432.573 53.9329 432.904 53.9329C433.125 53.9329 433.326 53.8925 433.506 53.8118C433.688 53.7284 433.84 53.6099 433.963 53.4563C434.088 53.3027 434.175 53.1178 434.224 52.9016H435.361C435.319 53.2896 435.193 53.636 434.982 53.9407C434.771 54.2454 434.489 54.4849 434.135 54.6594C433.783 54.8339 433.37 54.9211 432.896 54.9211ZM436.72 54.8V48.8H437.841V49.7766H437.915C438.04 49.4459 438.245 49.1881 438.529 49.0032C438.813 48.8157 439.152 48.7219 439.548 48.7219C439.949 48.7219 440.285 48.8157 440.556 49.0032C440.83 49.1907 441.031 49.4485 441.162 49.7766H441.224C441.367 49.4563 441.595 49.2011 441.908 49.011C442.22 48.8183 442.593 48.7219 443.025 48.7219C443.569 48.7219 444.013 48.8925 444.357 49.2336C444.703 49.5748 444.876 50.0891 444.876 50.7766V54.8H443.708V50.886C443.708 50.4797 443.598 50.1855 443.376 50.0032C443.155 49.8209 442.891 49.7297 442.583 49.7297C442.203 49.7297 441.908 49.8469 441.697 50.0813C441.486 50.3131 441.38 50.6112 441.38 50.9758V54.8H440.216V50.8118C440.216 50.4862 440.115 50.2245 439.912 50.0266C439.708 49.8287 439.444 49.7297 439.119 49.7297C438.897 49.7297 438.693 49.7883 438.505 49.9055C438.32 50.0201 438.171 50.1803 438.056 50.386C437.944 50.5917 437.888 50.83 437.888 51.1008V54.8H436.72Z" fill="white"/>
<path d="M401.5 67.8H461.5" stroke="#FF55B1"/>
<path d="M401.5 64.8V70.8" stroke="#FF55B1"/>
<path d="M461.5 64.8V70.8" stroke="#FF55B1"/>
<rect x="401.5" y="112.8" width="2" height="56" fill="black"/>
<rect x="459.5" y="112.8" width="2" height="56" fill="black"/>
<rect x="451.5" y="112.8" width="2" height="56" fill="black"/>
<rect x="409.5" y="112.8" width="2" height="56" fill="black"/>
<rect x="403.5" y="112.8" width="6" height="56" fill="white"/>
<rect x="453.5" y="112.8" width="6" height="56" fill="white"/>
<rect x="409.5" y="116.8" width="44" height="32" fill="#2D7700"/>
<rect x="403.5" y="110.8" width="6" height="2" fill="black"/>
<rect x="403.5" y="168.8" width="6" height="2" fill="black"/>
<rect x="453.5" y="110.8" width="6" height="2" fill="black"/>
<rect x="409.5" y="114.8" width="44" height="2" fill="black"/>
<rect x="411.5" y="116.8" width="40" height="2" fill="#68B03C"/>
<rect x="409.5" y="148.8" width="44" height="2" fill="black"/>
<rect x="453.5" y="168.8" width="6" height="2" fill="black"/>
<rect x="409.5" y="116.8" width="2" height="32" fill="#1A4500"/>
<rect x="451.5" y="116.8" width="2" height="32" fill="#1A4500"/>
<rect x="403.5" y="112.8" width="2" height="56" fill="#BDBDBD"/>
<rect x="453.5" y="112.8" width="2" height="56" fill="#BDBDBD"/>
<path d="M432.5 138.8H430.5L428.5 136.8L426.5 134.8L424.5 132.8L422.5 130.8V128.8L440.5 128.8V130.8L438.5 132.8L436.5 134.8L434.5 136.8L432.5 138.8Z" fill="#59E900"/>
<rect x="420.5" y="128.8" width="2" height="2" fill="black"/>
<rect x="422.5" y="130.8" width="2" height="2" fill="black"/>
<rect x="424.5" y="132.8" width="2" height="2" fill="black"/>
<rect x="426.5" y="134.8" width="2" height="2" fill="black"/>
<rect x="428.5" y="136.8" width="2" height="2" fill="black"/>
<rect x="430.5" y="138.8" width="2" height="2" fill="black"/>
<rect x="440.5" y="128.8" width="2" height="2" fill="black"/>
<rect x="438.5" y="130.8" width="2" height="2" fill="black"/>
<rect x="436.5" y="132.8" width="2" height="2" fill="black"/>
<rect x="434.5" y="134.8" width="2" height="2" fill="black"/>
<rect x="432.5" y="136.8" width="2" height="2" fill="black"/>
<rect x="422.5" y="126.8" width="18" height="2" fill="black"/>
<rect x="401.5" y="212.8" width="2" height="56" fill="black"/>
<rect x="459.5" y="212.8" width="2" height="56" fill="black"/>
<rect x="451.5" y="212.8" width="2" height="56" fill="black"/>
<rect x="409.5" y="212.8" width="2" height="56" fill="black"/>
<rect x="403.5" y="212.8" width="6" height="56" fill="white"/>
<rect x="453.5" y="212.8" width="6" height="56" fill="white"/>
<rect x="409.5" y="216.8" width="44" height="32" fill="#EDB900"/>
<rect x="403.5" y="210.8" width="6" height="2" fill="black"/>
<rect x="403.5" y="268.8" width="6" height="2" fill="black"/>
<rect x="453.5" y="210.8" width="6" height="2" fill="black"/>
<rect x="409.5" y="214.8" width="44" height="2" fill="black"/>
<rect x="411.5" y="216.8" width="40" height="2" fill="#FFD646"/>
<rect x="409.5" y="248.8" width="44" height="2" fill="black"/>
<rect x="453.5" y="268.8" width="6" height="2" fill="black"/>
<rect x="409.5" y="216.8" width="2" height="32" fill="#CB9E00"/>
<rect x="451.5" y="216.8" width="2" height="32" fill="#CB9E00"/>
<rect x="403.5" y="212.8" width="2" height="56" fill="#BDBDBD"/>
<rect x="453.5" y="212.8" width="2" height="56" fill="#BDBDBD"/>
<rect x="420.914" y="235.356" width="2" height="10" transform="rotate(-45 420.914 235.356)" fill="black"/>
<rect x="420.914" y="232.528" width="4" height="2" transform="rotate(-45 420.914 232.528)" fill="black"/>
<rect x="428.692" y="233.235" width="11" height="2" transform="rotate(-45 428.692 233.235)" fill="black"/>
<rect x="429.399" y="241.013" width="16" height="2" transform="rotate(-45 429.399 241.013)" fill="black"/>
<rect x="425.157" y="231.114" width="2" height="6" transform="rotate(-45 425.157 231.114)" fill="black"/>
<rect x="437.885" y="226.871" width="2" height="4" transform="rotate(-45 437.885 226.871)" fill="black"/>
<path fill-rule="evenodd" clip-rule="evenodd" d="M425.157 231.114L422.329 233.942L426.571 238.185L429.4 241.013L432.228 238.185L440.713 229.699L437.885 226.871L429.4 235.356L425.157 231.114Z" fill="#D9D9D9"/>
<rect x="196" y="89.2004" width="35" height="20" rx="3.5" fill="#FF55B1"/>
<path d="M203.008 95.2004V103.2H201.797V96.4114H201.751L199.836 97.6614V96.5051L201.833 95.2004H203.008ZM208.068 103.333C207.45 103.331 206.923 103.168 206.486 102.845C206.048 102.522 205.713 102.052 205.482 101.435C205.25 100.818 205.134 100.074 205.134 99.2043C205.134 98.3372 205.25 97.5963 205.482 96.9817C205.716 96.3671 206.052 95.8984 206.489 95.5754C206.93 95.2525 207.456 95.0911 208.068 95.0911C208.68 95.0911 209.204 95.2538 209.642 95.5793C210.079 95.9023 210.414 96.371 210.646 96.9856C210.88 97.5976 210.997 98.3372 210.997 99.2043C210.997 100.077 210.881 100.822 210.65 101.439C210.418 102.053 210.083 102.523 209.646 102.849C209.208 103.172 208.682 103.333 208.068 103.333ZM208.068 102.29C208.609 102.29 209.032 102.026 209.337 101.497C209.644 100.969 209.798 100.204 209.798 99.2043C209.798 98.5403 209.728 97.9791 209.587 97.5208C209.449 97.0598 209.25 96.7109 208.989 96.4739C208.732 96.2343 208.424 96.1145 208.068 96.1145C207.528 96.1145 207.105 96.3801 206.798 96.9114C206.491 97.4426 206.336 98.2069 206.333 99.2043C206.333 99.871 206.402 100.435 206.54 100.896C206.681 101.354 206.88 101.702 207.138 101.939C207.396 102.173 207.706 102.29 208.068 102.29ZM215.036 103.322C214.455 103.322 213.955 103.19 213.536 102.927C213.119 102.661 212.799 102.295 212.575 101.829C212.351 101.363 212.239 100.829 212.239 100.228C212.239 99.6184 212.354 99.0806 212.583 98.6145C212.812 98.1458 213.135 97.7799 213.552 97.5168C213.968 97.2538 214.459 97.1223 215.024 97.1223C215.48 97.1223 215.886 97.2069 216.243 97.3762C216.6 97.5429 216.888 97.7773 217.106 98.0793C217.328 98.3814 217.459 98.7343 217.501 99.1379H216.364C216.302 98.8567 216.158 98.6145 215.934 98.4114C215.713 98.2083 215.416 98.1067 215.044 98.1067C214.718 98.1067 214.433 98.1926 214.188 98.3645C213.946 98.5338 213.757 98.776 213.622 99.0911C213.486 99.4036 213.419 99.7734 213.419 100.2C213.419 100.638 213.485 101.016 213.618 101.333C213.751 101.651 213.938 101.897 214.18 102.072C214.425 102.246 214.713 102.333 215.044 102.333C215.265 102.333 215.466 102.293 215.645 102.212C215.828 102.129 215.98 102.01 216.102 101.857C216.227 101.703 216.315 101.518 216.364 101.302H217.501C217.459 101.69 217.333 102.036 217.122 102.341C216.911 102.646 216.628 102.885 216.274 103.06C215.923 103.234 215.51 103.322 215.036 103.322ZM218.86 103.2V97.2004H219.981V98.177H220.055C220.18 97.8463 220.385 97.5885 220.668 97.4036C220.952 97.2161 221.292 97.1223 221.688 97.1223C222.089 97.1223 222.425 97.2161 222.696 97.4036C222.969 97.5911 223.171 97.8489 223.301 98.177H223.364C223.507 97.8567 223.735 97.6015 224.047 97.4114C224.36 97.2187 224.732 97.1223 225.165 97.1223C225.709 97.1223 226.153 97.2929 226.497 97.634C226.843 97.9752 227.016 98.4895 227.016 99.177V103.2H225.848V99.2864C225.848 98.8801 225.737 98.5859 225.516 98.4036C225.295 98.2213 225.03 98.1301 224.723 98.1301C224.343 98.1301 224.047 98.2473 223.836 98.4817C223.625 98.7135 223.52 99.0116 223.52 99.3762V103.2H222.356V99.2122C222.356 98.8866 222.254 98.6249 222.051 98.427C221.848 98.2291 221.584 98.1301 221.258 98.1301C221.037 98.1301 220.832 98.1887 220.645 98.3059C220.46 98.4205 220.31 98.5806 220.196 98.7864C220.084 98.9921 220.028 99.2304 220.028 99.5012V103.2H218.86Z" fill="white"/>
<path d="M238 79.2004V119.2" stroke="#FF55B1"/>
<path d="M235 79.2004H241" stroke="#FF55B1"/>
<path d="M235 119.2H241" stroke="#FF55B1"/>
<rect x="345" y="131.2" width="35" height="20" rx="3.5" fill="#FF55B1"/>
<path d="M352.148 137.2V145.2H350.937V138.411H350.89L348.976 139.661V138.505L350.972 137.2H352.148ZM357.063 145.31C356.573 145.31 356.133 145.216 355.742 145.029C355.354 144.838 355.044 144.578 354.813 144.247C354.581 143.917 354.457 143.539 354.442 143.115H355.613C355.642 143.458 355.794 143.741 356.07 143.962C356.347 144.184 356.677 144.294 357.063 144.294C357.37 144.294 357.642 144.224 357.879 144.083C358.119 143.94 358.306 143.743 358.442 143.493C358.58 143.243 358.649 142.958 358.649 142.638C358.649 142.312 358.578 142.022 358.438 141.767C358.297 141.512 358.103 141.311 357.856 141.165C357.611 141.019 357.33 140.945 357.012 140.943C356.77 140.943 356.526 140.984 356.281 141.068C356.037 141.151 355.839 141.26 355.688 141.396L354.582 141.232L355.031 137.2H359.43V138.236H356.035L355.781 140.474H355.828C355.985 140.323 356.192 140.197 356.449 140.095C356.71 139.993 356.988 139.943 357.285 139.943C357.772 139.943 358.206 140.059 358.586 140.29C358.969 140.522 359.27 140.838 359.488 141.24C359.71 141.638 359.819 142.096 359.817 142.615C359.819 143.133 359.702 143.595 359.465 144.001C359.231 144.407 358.905 144.728 358.488 144.962C358.074 145.194 357.599 145.31 357.063 145.31ZM363.896 145.322C363.316 145.322 362.816 145.19 362.396 144.927C361.98 144.661 361.659 144.295 361.435 143.829C361.211 143.363 361.099 142.829 361.099 142.228C361.099 141.618 361.214 141.081 361.443 140.615C361.672 140.146 361.995 139.78 362.412 139.517C362.829 139.254 363.319 139.122 363.885 139.122C364.34 139.122 364.747 139.207 365.103 139.376C365.46 139.543 365.748 139.777 365.967 140.079C366.188 140.381 366.319 140.734 366.361 141.138H365.224C365.162 140.857 365.019 140.615 364.795 140.411C364.573 140.208 364.277 140.107 363.904 140.107C363.579 140.107 363.293 140.193 363.049 140.365C362.806 140.534 362.618 140.776 362.482 141.091C362.347 141.404 362.279 141.773 362.279 142.2C362.279 142.638 362.346 143.016 362.478 143.333C362.611 143.651 362.799 143.897 363.041 144.072C363.286 144.246 363.573 144.333 363.904 144.333C364.125 144.333 364.326 144.293 364.506 144.212C364.688 144.129 364.84 144.01 364.963 143.857C365.088 143.703 365.175 143.518 365.224 143.302H366.361C366.319 143.69 366.193 144.036 365.982 144.341C365.771 144.646 365.489 144.885 365.135 145.06C364.783 145.234 364.37 145.322 363.896 145.322ZM367.72 145.2V139.2H368.841V140.177H368.915C369.04 139.846 369.245 139.588 369.529 139.404C369.813 139.216 370.152 139.122 370.548 139.122C370.949 139.122 371.285 139.216 371.556 139.404C371.83 139.591 372.031 139.849 372.162 140.177H372.224C372.367 139.857 372.595 139.601 372.908 139.411C373.22 139.219 373.593 139.122 374.025 139.122C374.569 139.122 375.013 139.293 375.357 139.634C375.703 139.975 375.876 140.49 375.876 141.177V145.2H374.708V141.286C374.708 140.88 374.598 140.586 374.376 140.404C374.155 140.221 373.891 140.13 373.583 140.13C373.203 140.13 372.908 140.247 372.697 140.482C372.486 140.713 372.38 141.012 372.38 141.376V145.2H371.216V141.212C371.216 140.887 371.115 140.625 370.912 140.427C370.708 140.229 370.444 140.13 370.119 140.13C369.897 140.13 369.693 140.189 369.505 140.306C369.32 140.42 369.171 140.581 369.056 140.786C368.944 140.992 368.888 141.23 368.888 141.501V145.2H367.72Z" fill="white"/>
<path d="M387 111.2V171.2" stroke="#FF55B1"/>
<path d="M384 111.2H390" stroke="#FF55B1"/>
<path d="M384 171.2H390" stroke="#FF55B1"/>
<rect x="345" y="231.2" width="35" height="20" rx="3.5" fill="#FF55B1"/>
<path d="M352.148 237.2V245.2H350.937V238.411H350.89L348.976 239.661V238.505L350.972 237.2H352.148ZM357.063 245.31C356.573 245.31 356.133 245.216 355.742 245.029C355.354 244.838 355.044 244.578 354.813 244.247C354.581 243.917 354.457 243.539 354.442 243.115H355.613C355.642 243.458 355.794 243.741 356.07 243.962C356.347 244.184 356.677 244.294 357.063 244.294C357.37 244.294 357.642 244.224 357.879 244.083C358.119 243.94 358.306 243.743 358.442 243.493C358.58 243.243 358.649 242.958 358.649 242.638C358.649 242.312 358.578 242.022 358.438 241.767C358.297 241.512 358.103 241.311 357.856 241.165C357.611 241.019 357.33 240.945 357.012 240.943C356.77 240.943 356.526 240.984 356.281 241.068C356.037 241.151 355.839 241.26 355.688 241.396L354.582 241.232L355.031 237.2H359.43V238.236H356.035L355.781 240.474H355.828C355.985 240.323 356.192 240.197 356.449 240.095C356.71 239.993 356.988 239.943 357.285 239.943C357.772 239.943 358.206 240.059 358.586 240.29C358.969 240.522 359.27 240.838 359.488 241.24C359.71 241.638 359.819 242.096 359.817 242.615C359.819 243.133 359.702 243.595 359.465 244.001C359.231 244.407 358.905 244.728 358.488 244.962C358.074 245.194 357.599 245.31 357.063 245.31ZM363.896 245.322C363.316 245.322 362.816 245.19 362.396 244.927C361.98 244.661 361.659 244.295 361.435 243.829C361.211 243.363 361.099 242.829 361.099 242.228C361.099 241.618 361.214 241.081 361.443 240.615C361.672 240.146 361.995 239.78 362.412 239.517C362.829 239.254 363.319 239.122 363.885 239.122C364.34 239.122 364.747 239.207 365.103 239.376C365.46 239.543 365.748 239.777 365.967 240.079C366.188 240.381 366.319 240.734 366.361 241.138H365.224C365.162 240.857 365.019 240.615 364.795 240.411C364.573 240.208 364.277 240.107 363.904 240.107C363.579 240.107 363.293 240.193 363.049 240.365C362.806 240.534 362.618 240.776 362.482 241.091C362.347 241.404 362.279 241.773 362.279 242.2C362.279 242.638 362.346 243.016 362.478 243.333C362.611 243.651 362.799 243.897 363.041 244.072C363.286 244.246 363.573 244.333 363.904 244.333C364.125 244.333 364.326 244.293 364.506 244.212C364.688 244.129 364.84 244.01 364.963 243.857C365.088 243.703 365.175 243.518 365.224 243.302H366.361C366.319 243.69 366.193 244.036 365.982 244.341C365.771 244.646 365.489 244.885 365.135 245.06C364.783 245.234 364.37 245.322 363.896 245.322ZM367.72 245.2V239.2H368.841V240.177H368.915C369.04 239.846 369.245 239.588 369.529 239.404C369.813 239.216 370.152 239.122 370.548 239.122C370.949 239.122 371.285 239.216 371.556 239.404C371.83 239.591 372.031 239.849 372.162 240.177H372.224C372.367 239.857 372.595 239.601 372.908 239.411C373.22 239.219 373.593 239.122 374.025 239.122C374.569 239.122 375.013 239.293 375.357 239.634C375.703 239.975 375.876 240.49 375.876 241.177V245.2H374.708V241.286C374.708 240.88 374.598 240.586 374.376 240.404C374.155 240.221 373.891 240.13 373.583 240.13C373.203 240.13 372.908 240.247 372.697 240.482C372.486 240.713 372.38 241.012 372.38 241.376V245.2H371.216V241.212C371.216 240.887 371.115 240.625 370.912 240.427C370.708 240.229 370.444 240.13 370.119 240.13C369.897 240.13 369.693 240.189 369.505 240.306C369.32 240.42 369.171 240.581 369.056 240.786C368.944 240.992 368.888 241.23 368.888 241.501V245.2H367.72Z" fill="white"/>
<path d="M387 211.2V271.2" stroke="#FF55B1"/>
<path d="M384 211.2H390" stroke="#FF55B1"/>
<path d="M384 271.2H390" stroke="#FF55B1"/>
</svg>
