<svg width="527" height="269" viewBox="0 0 527 269" fill="none" xmlns="http://www.w3.org/2000/svg">
<rect width="527" height="268" transform="translate(0 0.60083)" fill="#F5F5F5"/>
<rect x="114.5" y="40.6008" width="72" height="20" rx="10" fill="#212121"/>
<path d="M123.873 55.6008V46.7568H129.093V47.9328H125.265V50.3928H128.505V51.5688H125.265V54.4128H129.225V55.6008H123.873ZM130.948 55.6008V48.9888H132.076L132.196 49.9128H132.22C132.524 49.6168 132.852 49.3648 133.204 49.1568C133.556 48.9408 133.956 48.8328 134.404 48.8328C135.108 48.8328 135.62 49.0608 135.94 49.5168C136.268 49.9648 136.432 50.6088 136.432 51.4488V55.6008H135.052V51.6168C135.052 51.0488 134.964 50.6448 134.788 50.4048C134.612 50.1568 134.328 50.0328 133.936 50.0328C133.632 50.0328 133.36 50.1088 133.12 50.2608C132.888 50.4048 132.624 50.6248 132.328 50.9208V55.6008H130.948ZM140.705 55.7688C140.161 55.7688 139.685 55.6328 139.277 55.3608C138.869 55.0888 138.553 54.6928 138.329 54.1728C138.105 53.6528 137.993 53.0288 137.993 52.3008C137.993 51.5888 138.125 50.9728 138.389 50.4528C138.661 49.9328 139.009 49.5328 139.433 49.2528C139.865 48.9728 140.325 48.8328 140.813 48.8328C141.197 48.8328 141.521 48.9008 141.785 49.0368C142.057 49.1648 142.325 49.3448 142.589 49.5768L142.541 48.4848V46.0368H143.921V55.6008H142.793L142.673 54.8568H142.637C142.389 55.1128 142.101 55.3288 141.773 55.5048C141.445 55.6808 141.089 55.7688 140.705 55.7688ZM141.041 54.6048C141.321 54.6048 141.581 54.5408 141.821 54.4128C142.061 54.2848 142.301 54.0808 142.541 53.8008V50.5848C142.301 50.3688 142.061 50.2168 141.821 50.1288C141.581 50.0328 141.337 49.9848 141.089 49.9848C140.785 49.9848 140.505 50.0808 140.249 50.2728C140.001 50.4568 139.801 50.7208 139.649 51.0648C139.497 51.4008 139.421 51.8088 139.421 52.2888C139.421 52.7848 139.485 53.2088 139.613 53.5608C139.741 53.9048 139.925 54.1648 140.165 54.3408C140.413 54.5168 140.705 54.6048 141.041 54.6048ZM148.69 58.2768V48.9888H149.818L149.938 49.7208H149.962C150.258 49.4808 150.578 49.2728 150.922 49.0968C151.266 48.9208 151.626 48.8328 152.002 48.8328C152.554 48.8328 153.026 48.9728 153.418 49.2528C153.81 49.5328 154.106 49.9248 154.306 50.4288C154.506 50.9248 154.606 51.5128 154.606 52.1928C154.606 52.9448 154.47 53.5888 154.198 54.1248C153.934 54.6608 153.586 55.0688 153.154 55.3488C152.722 55.6288 152.258 55.7688 151.762 55.7688C151.474 55.7688 151.182 55.7048 150.886 55.5768C150.59 55.4408 150.306 55.2528 150.034 55.0128L150.07 56.1408V58.2768H148.69ZM151.498 54.6048C151.818 54.6048 152.102 54.5128 152.35 54.3288C152.606 54.1448 152.806 53.8768 152.95 53.5248C153.102 53.1648 153.178 52.7288 153.178 52.2168C153.178 51.7528 153.122 51.3568 153.01 51.0288C152.906 50.6928 152.742 50.4368 152.518 50.2608C152.294 50.0768 151.998 49.9848 151.63 49.9848C151.374 49.9848 151.118 50.0528 150.862 50.1888C150.614 50.3168 150.35 50.5168 150.07 50.7888V54.0168C150.326 54.2328 150.578 54.3848 150.826 54.4728C151.074 54.5608 151.298 54.6048 151.498 54.6048ZM158.901 55.7688C158.357 55.7688 157.845 55.6328 157.365 55.3608C156.893 55.0808 156.509 54.6848 156.213 54.1728C155.925 53.6528 155.781 53.0288 155.781 52.3008C155.781 51.5648 155.925 50.9408 156.213 50.4288C156.509 49.9088 156.893 49.5128 157.365 49.2408C157.845 48.9688 158.357 48.8328 158.901 48.8328C159.301 48.8328 159.689 48.9128 160.065 49.0728C160.441 49.2248 160.773 49.4488 161.061 49.7448C161.349 50.0408 161.577 50.4048 161.745 50.8368C161.913 51.2608 161.997 51.7488 161.997 52.3008C161.997 53.0288 161.849 53.6528 161.553 54.1728C161.265 54.6848 160.885 55.0808 160.413 55.3608C159.949 55.6328 159.445 55.7688 158.901 55.7688ZM158.901 54.6168C159.245 54.6168 159.541 54.5208 159.789 54.3288C160.045 54.1368 160.241 53.8688 160.377 53.5248C160.513 53.1728 160.581 52.7648 160.581 52.3008C160.581 51.8368 160.513 51.4328 160.377 51.0888C160.241 50.7368 160.045 50.4648 159.789 50.2728C159.541 50.0728 159.245 49.9728 158.901 49.9728C158.549 49.9728 158.245 50.0728 157.989 50.2728C157.741 50.4648 157.549 50.7368 157.413 51.0888C157.277 51.4328 157.209 51.8368 157.209 52.3008C157.209 52.7648 157.277 53.1728 157.413 53.5248C157.549 53.8688 157.741 54.1368 157.989 54.3288C158.245 54.5208 158.549 54.6168 158.901 54.6168ZM163.632 55.6008V48.9888H165.012V55.6008H163.632ZM164.328 47.7648C164.064 47.7648 163.852 47.6888 163.692 47.5368C163.54 47.3848 163.464 47.1808 163.464 46.9248C163.464 46.6848 163.54 46.4888 163.692 46.3368C163.852 46.1848 164.064 46.1088 164.328 46.1088C164.576 46.1088 164.78 46.1848 164.94 46.3368C165.1 46.4888 165.18 46.6848 165.18 46.9248C165.18 47.1808 165.1 47.3848 164.94 47.5368C164.78 47.6888 164.576 47.7648 164.328 47.7648ZM167.089 55.6008V48.9888H168.217L168.337 49.9128H168.361C168.665 49.6168 168.993 49.3648 169.345 49.1568C169.697 48.9408 170.097 48.8328 170.545 48.8328C171.249 48.8328 171.761 49.0608 172.081 49.5168C172.409 49.9648 172.573 50.6088 172.573 51.4488V55.6008H171.193V51.6168C171.193 51.0488 171.105 50.6448 170.929 50.4048C170.753 50.1568 170.469 50.0328 170.077 50.0328C169.773 50.0328 169.501 50.1088 169.261 50.2608C169.029 50.4048 168.765 50.6248 168.469 50.9208V55.6008H167.089ZM176.797 55.7688C176.301 55.7688 175.905 55.6728 175.609 55.4808C175.321 55.2808 175.113 55.0088 174.985 54.6648C174.857 54.3128 174.793 53.9048 174.793 53.4408V50.1048H173.833V49.0728L174.865 48.9888L175.021 47.1648H176.173V48.9888H177.889V50.1048H176.173V53.4528C176.173 53.8448 176.249 54.1448 176.401 54.3528C176.553 54.5528 176.801 54.6528 177.145 54.6528C177.257 54.6528 177.377 54.6368 177.505 54.6048C177.633 54.5728 177.745 54.5368 177.841 54.4968L178.093 55.5168C177.917 55.5728 177.717 55.6288 177.493 55.6848C177.277 55.7408 177.045 55.7688 176.797 55.7688Z" fill="white"/>
<rect x="93.5" y="158.601" width="35" height="20" rx="3.5" fill="#FF55B1"/>
<path d="M100.648 164.601V172.601H99.4371V165.812H99.3902L97.4761 167.062V165.906L99.4722 164.601H100.648ZM105.563 172.71C105.073 172.71 104.633 172.616 104.242 172.429C103.854 172.239 103.544 171.978 103.313 171.648C103.081 171.317 102.957 170.939 102.942 170.515H104.113C104.142 170.859 104.294 171.141 104.57 171.363C104.847 171.584 105.177 171.695 105.563 171.695C105.87 171.695 106.142 171.624 106.379 171.484C106.619 171.34 106.806 171.144 106.942 170.894C107.08 170.644 107.149 170.359 107.149 170.038C107.149 169.713 107.078 169.422 106.938 169.167C106.797 168.912 106.603 168.712 106.356 168.566C106.111 168.42 105.83 168.346 105.512 168.343C105.27 168.343 105.026 168.385 104.781 168.468C104.537 168.551 104.339 168.661 104.188 168.796L103.082 168.632L103.531 164.601H107.93V165.636H104.535L104.281 167.874H104.328C104.485 167.723 104.692 167.597 104.949 167.495C105.21 167.394 105.488 167.343 105.785 167.343C106.272 167.343 106.706 167.459 107.086 167.691C107.469 167.922 107.77 168.239 107.988 168.64C108.21 169.038 108.319 169.497 108.317 170.015C108.319 170.533 108.202 170.995 107.965 171.402C107.731 171.808 107.405 172.128 106.988 172.363C106.574 172.594 106.099 172.71 105.563 172.71ZM112.396 172.722C111.816 172.722 111.316 172.59 110.896 172.327C110.48 172.062 110.159 171.696 109.935 171.23C109.711 170.764 109.599 170.23 109.599 169.628C109.599 169.019 109.714 168.481 109.943 168.015C110.172 167.546 110.495 167.18 110.912 166.917C111.329 166.654 111.819 166.523 112.385 166.523C112.84 166.523 113.247 166.607 113.603 166.777C113.96 166.943 114.248 167.178 114.467 167.48C114.688 167.782 114.819 168.135 114.861 168.538H113.724C113.662 168.257 113.519 168.015 113.295 167.812C113.073 167.609 112.777 167.507 112.404 167.507C112.079 167.507 111.793 167.593 111.549 167.765C111.306 167.934 111.118 168.176 110.982 168.491C110.847 168.804 110.779 169.174 110.779 169.601C110.779 170.038 110.846 170.416 110.978 170.734C111.111 171.051 111.299 171.297 111.541 171.472C111.786 171.646 112.073 171.734 112.404 171.734C112.625 171.734 112.826 171.693 113.006 171.613C113.188 171.529 113.34 171.411 113.463 171.257C113.588 171.103 113.675 170.919 113.724 170.702H114.861C114.819 171.09 114.693 171.437 114.482 171.741C114.271 172.046 113.989 172.286 113.635 172.46C113.283 172.635 112.87 172.722 112.396 172.722ZM116.22 172.601V166.601H117.341V167.577H117.415C117.54 167.247 117.745 166.989 118.029 166.804C118.313 166.616 118.652 166.523 119.048 166.523C119.449 166.523 119.785 166.616 120.056 166.804C120.33 166.991 120.531 167.249 120.662 167.577H120.724C120.867 167.257 121.095 167.002 121.408 166.812C121.72 166.619 122.093 166.523 122.525 166.523C123.069 166.523 123.513 166.693 123.857 167.034C124.203 167.376 124.376 167.89 124.376 168.577V172.601H123.208V168.687C123.208 168.281 123.098 167.986 122.876 167.804C122.655 167.622 122.391 167.531 122.083 167.531C121.703 167.531 121.408 167.648 121.197 167.882C120.986 168.114 120.88 168.412 120.88 168.777V172.601H119.716V168.613C119.716 168.287 119.615 168.025 119.412 167.827C119.208 167.629 118.944 167.531 118.619 167.531C118.397 167.531 118.193 167.589 118.005 167.706C117.82 167.821 117.671 167.981 117.556 168.187C117.444 168.392 117.388 168.631 117.388 168.902V172.601H116.22Z" fill="white"/>
<path d="M135.5 138.601V198.601" stroke="#FF55B1"/>
<path d="M132.5 138.601H138.5" stroke="#FF55B1"/>
<path d="M132.5 198.601H138.5" stroke="#FF55B1"/>
<rect x="160" y="101.001" width="35" height="20" rx="3.5" fill="#FF55B1"/>
<path d="M167.148 107.001V115.001H165.937V108.212H165.89L163.976 109.462V108.306L165.972 107.001H167.148ZM172.063 115.111C171.573 115.111 171.133 115.017 170.742 114.829C170.354 114.639 170.044 114.379 169.813 114.048C169.581 113.717 169.457 113.34 169.442 112.915H170.613C170.642 113.259 170.794 113.542 171.07 113.763C171.347 113.984 171.677 114.095 172.063 114.095C172.37 114.095 172.642 114.025 172.879 113.884C173.119 113.741 173.306 113.544 173.442 113.294C173.58 113.044 173.649 112.759 173.649 112.439C173.649 112.113 173.578 111.823 173.438 111.568C173.297 111.312 173.103 111.112 172.856 110.966C172.611 110.82 172.33 110.746 172.012 110.743C171.77 110.743 171.526 110.785 171.281 110.868C171.037 110.952 170.839 111.061 170.688 111.197L169.582 111.032L170.031 107.001H174.43V108.036H171.035L170.781 110.275H170.828C170.985 110.124 171.192 109.997 171.449 109.896C171.71 109.794 171.988 109.743 172.285 109.743C172.772 109.743 173.206 109.859 173.586 110.091C173.969 110.323 174.27 110.639 174.488 111.04C174.71 111.439 174.819 111.897 174.817 112.415C174.819 112.934 174.702 113.396 174.465 113.802C174.231 114.208 173.905 114.529 173.488 114.763C173.074 114.995 172.599 115.111 172.063 115.111ZM178.896 115.122C178.316 115.122 177.816 114.991 177.396 114.728C176.98 114.462 176.659 114.096 176.435 113.63C176.211 113.164 176.099 112.63 176.099 112.029C176.099 111.419 176.214 110.881 176.443 110.415C176.672 109.947 176.995 109.581 177.412 109.318C177.829 109.055 178.319 108.923 178.885 108.923C179.34 108.923 179.747 109.008 180.103 109.177C180.46 109.344 180.748 109.578 180.967 109.88C181.188 110.182 181.319 110.535 181.361 110.939H180.224C180.162 110.657 180.019 110.415 179.795 110.212C179.573 110.009 179.277 109.907 178.904 109.907C178.579 109.907 178.293 109.993 178.049 110.165C177.806 110.335 177.618 110.577 177.482 110.892C177.347 111.204 177.279 111.574 177.279 112.001C177.279 112.439 177.346 112.816 177.478 113.134C177.611 113.452 177.799 113.698 178.041 113.872C178.286 114.047 178.573 114.134 178.904 114.134C179.125 114.134 179.326 114.094 179.506 114.013C179.688 113.93 179.84 113.811 179.963 113.657C180.088 113.504 180.175 113.319 180.224 113.103H181.361C181.319 113.491 181.193 113.837 180.982 114.142C180.771 114.447 180.489 114.686 180.135 114.861C179.783 115.035 179.37 115.122 178.896 115.122ZM182.72 115.001V109.001H183.841V109.978H183.915C184.04 109.647 184.245 109.389 184.529 109.204C184.813 109.017 185.152 108.923 185.548 108.923C185.949 108.923 186.285 109.017 186.556 109.204C186.83 109.392 187.031 109.65 187.162 109.978H187.224C187.367 109.657 187.595 109.402 187.908 109.212C188.22 109.019 188.593 108.923 189.025 108.923C189.569 108.923 190.013 109.094 190.357 109.435C190.703 109.776 190.876 110.29 190.876 110.978V115.001H189.708V111.087C189.708 110.681 189.598 110.387 189.376 110.204C189.155 110.022 188.891 109.931 188.583 109.931C188.203 109.931 187.908 110.048 187.697 110.282C187.486 110.514 187.38 110.812 187.38 111.177V115.001H186.216V111.013C186.216 110.687 186.115 110.426 185.912 110.228C185.708 110.03 185.444 109.931 185.119 109.931C184.897 109.931 184.693 109.99 184.505 110.107C184.32 110.221 184.171 110.381 184.056 110.587C183.944 110.793 183.888 111.031 183.888 111.302V115.001H182.72Z" fill="white"/>
<path d="M147.5 128.001H207.5" stroke="#FF55B1"/>
<path d="M147.5 125.001V131.001" stroke="#FF55B1"/>
<path d="M207.5 125.001V131.001" stroke="#FF55B1"/>
<path fill-rule="evenodd" clip-rule="evenodd" d="M155.5 140.601H149.5V196.601H155.5V140.601ZM205.5 140.601H199.5V196.601H205.5V140.601Z" fill="white"/>
<path fill-rule="evenodd" clip-rule="evenodd" d="M151.5 140.601H149.5V196.601H151.5V140.601ZM201.5 140.601H199.5V196.601H201.5V140.601Z" fill="#BDBDBD"/>
<rect x="155.5" y="144.601" width="44" height="32" fill="#E22F17"/>
<path fill-rule="evenodd" clip-rule="evenodd" d="M157.5 144.601H155.5V176.601H157.5V144.601ZM199.5 144.601H197.5V176.601H199.5V144.601Z" fill="black" fill-opacity="0.3"/>
<rect x="157.5" y="144.601" width="40" height="2" fill="white" fill-opacity="0.3"/>
<rect x="166.914" y="163.157" width="2" height="10" transform="rotate(-45 166.914 163.157)" fill="black"/>
<rect x="166.914" y="160.329" width="4" height="2" transform="rotate(-45 166.914 160.329)" fill="black"/>
<rect x="174.692" y="161.036" width="11" height="2" transform="rotate(-45 174.692 161.036)" fill="black"/>
<rect x="175.399" y="168.814" width="16" height="2" transform="rotate(-45 175.399 168.814)" fill="black"/>
<rect x="171.157" y="158.915" width="2" height="6" transform="rotate(-45 171.157 158.915)" fill="black"/>
<rect x="183.885" y="154.672" width="2" height="4" transform="rotate(-45 183.885 154.672)" fill="black"/>
<path fill-rule="evenodd" clip-rule="evenodd" d="M171.157 158.914L168.329 161.743L172.571 165.986L175.4 168.814L178.228 165.986L186.713 157.5L183.885 154.672L175.4 163.157L171.157 158.914Z" fill="#D9D9D9"/>
<path fill-rule="evenodd" clip-rule="evenodd" d="M155.5 138.601H149.5V140.601H147.5V196.601H149.5V198.601H155.5V196.601H157.5V178.601H197.5V196.601H199.5V198.601H205.5V196.601H207.5V140.601H205.5V138.601H199.5V140.601H197.5V142.601H157.5V140.601H155.5V138.601ZM155.5 140.601V142.601V144.601H157.5H197.5H199.5V142.601V140.601H205.5V196.601H199.5V178.601V176.601H197.5H157.5H155.5V178.601V196.601H149.5V140.601H155.5Z" fill="black"/>
<rect x="338.5" y="40.6008" width="85" height="20" rx="10" fill="#212121"/>
<path d="M351.383 55.7688C350.831 55.7688 350.315 55.6688 349.835 55.4688C349.363 55.2608 348.947 54.9608 348.587 54.5688C348.227 54.1768 347.947 53.7008 347.747 53.1408C347.547 52.5728 347.447 51.9248 347.447 51.1968C347.447 50.4768 347.551 49.8328 347.759 49.2648C347.967 48.6968 348.251 48.2168 348.611 47.8248C348.971 47.4248 349.395 47.1208 349.883 46.9128C350.371 46.7048 350.895 46.6008 351.455 46.6008C351.999 46.6008 352.483 46.7128 352.907 46.9368C353.331 47.1608 353.679 47.4208 353.951 47.7168L353.207 48.6048C352.975 48.3728 352.715 48.1848 352.427 48.0408C352.147 47.8888 351.831 47.8128 351.479 47.8128C350.967 47.8128 350.515 47.9488 350.123 48.2208C349.739 48.4928 349.435 48.8768 349.211 49.3728C348.995 49.8688 348.887 50.4648 348.887 51.1608C348.887 51.8568 348.991 52.4608 349.199 52.9728C349.407 53.4768 349.703 53.8648 350.087 54.1368C350.471 54.4088 350.923 54.5448 351.443 54.5448C351.843 54.5448 352.199 54.4608 352.511 54.2928C352.831 54.1168 353.123 53.8848 353.387 53.5968L354.143 54.4848C353.783 54.9008 353.375 55.2208 352.919 55.4448C352.471 55.6608 351.959 55.7688 351.383 55.7688ZM355.577 55.6008V46.0368H356.957V48.5688L356.897 49.8768C357.185 49.5888 357.501 49.3448 357.845 49.1448C358.189 48.9368 358.585 48.8328 359.033 48.8328C359.737 48.8328 360.249 49.0608 360.569 49.5168C360.897 49.9648 361.061 50.6088 361.061 51.4488V55.6008H359.681V51.6168C359.681 51.0488 359.593 50.6448 359.417 50.4048C359.241 50.1568 358.957 50.0328 358.565 50.0328C358.261 50.0328 357.989 50.1088 357.749 50.2608C357.517 50.4048 357.253 50.6248 356.957 50.9208V55.6008H355.577ZM365.79 55.7688C365.19 55.7688 364.646 55.6328 364.158 55.3608C363.67 55.0808 363.282 54.6848 362.994 54.1728C362.706 53.6528 362.562 53.0288 362.562 52.3008C362.562 51.7648 362.646 51.2848 362.814 50.8608C362.982 50.4288 363.21 50.0648 363.498 49.7688C363.786 49.4648 364.11 49.2328 364.47 49.0728C364.83 48.9128 365.198 48.8328 365.574 48.8328C366.158 48.8328 366.65 48.9648 367.05 49.2288C367.45 49.4848 367.754 49.8488 367.962 50.3208C368.17 50.7848 368.274 51.3288 368.274 51.9528C368.274 52.0888 368.266 52.2208 368.25 52.3488C368.242 52.4688 368.226 52.5728 368.202 52.6608H363.918C363.958 53.0768 364.066 53.4368 364.242 53.7408C364.426 54.0368 364.662 54.2688 364.95 54.4368C365.246 54.5968 365.582 54.6768 365.958 54.6768C366.254 54.6768 366.53 54.6328 366.786 54.5448C367.042 54.4568 367.29 54.3368 367.53 54.1848L368.01 55.0608C367.706 55.2608 367.366 55.4288 366.99 55.5648C366.622 55.7008 366.222 55.7688 365.79 55.7688ZM363.906 51.7008H367.074C367.074 51.1408 366.946 50.7048 366.69 50.3928C366.442 50.0808 366.078 49.9248 365.598 49.9248C365.326 49.9248 365.07 49.9928 364.83 50.1288C364.59 50.2648 364.386 50.4648 364.218 50.7288C364.058 50.9928 363.954 51.3168 363.906 51.7008ZM372.515 55.7688C371.915 55.7688 371.379 55.6328 370.907 55.3608C370.435 55.0808 370.059 54.6848 369.779 54.1728C369.499 53.6528 369.359 53.0288 369.359 52.3008C369.359 51.5648 369.511 50.9408 369.815 50.4288C370.119 49.9088 370.519 49.5128 371.015 49.2408C371.511 48.9688 372.047 48.8328 372.623 48.8328C373.047 48.8328 373.415 48.9048 373.727 49.0488C374.039 49.1928 374.315 49.3728 374.555 49.5888L373.871 50.4888C373.695 50.3288 373.511 50.2048 373.319 50.1168C373.127 50.0208 372.919 49.9728 372.695 49.9728C372.327 49.9728 371.999 50.0728 371.711 50.2728C371.423 50.4648 371.195 50.7368 371.027 51.0888C370.867 51.4328 370.787 51.8368 370.787 52.3008C370.787 52.7648 370.867 53.1728 371.027 53.5248C371.187 53.8688 371.407 54.1368 371.687 54.3288C371.967 54.5208 372.287 54.6168 372.647 54.6168C372.927 54.6168 373.187 54.5608 373.427 54.4488C373.667 54.3288 373.887 54.1848 374.087 54.0168L374.663 54.9408C374.359 55.2128 374.019 55.4208 373.643 55.5648C373.267 55.7008 372.891 55.7688 372.515 55.7688ZM376.026 55.6008V46.0368H377.382V52.1928H377.43L379.986 48.9888H381.522L379.29 51.6888L381.774 55.6008H380.274L378.486 52.6128L377.382 53.8848V55.6008H376.026ZM385.624 58.2768V48.9888H386.752L386.872 49.7208H386.896C387.192 49.4808 387.512 49.2728 387.856 49.0968C388.2 48.9208 388.56 48.8328 388.936 48.8328C389.488 48.8328 389.96 48.9728 390.352 49.2528C390.744 49.5328 391.04 49.9248 391.24 50.4288C391.44 50.9248 391.54 51.5128 391.54 52.1928C391.54 52.9448 391.404 53.5888 391.132 54.1248C390.868 54.6608 390.52 55.0688 390.088 55.3488C389.656 55.6288 389.192 55.7688 388.696 55.7688C388.408 55.7688 388.116 55.7048 387.82 55.5768C387.524 55.4408 387.24 55.2528 386.968 55.0128L387.004 56.1408V58.2768H385.624ZM388.432 54.6048C388.752 54.6048 389.036 54.5128 389.284 54.3288C389.54 54.1448 389.74 53.8768 389.884 53.5248C390.036 53.1648 390.112 52.7288 390.112 52.2168C390.112 51.7528 390.056 51.3568 389.944 51.0288C389.84 50.6928 389.676 50.4368 389.452 50.2608C389.228 50.0768 388.932 49.9848 388.564 49.9848C388.308 49.9848 388.052 50.0528 387.796 50.1888C387.548 50.3168 387.284 50.5168 387.004 50.7888V54.0168C387.26 54.2328 387.512 54.3848 387.76 54.4728C388.008 54.5608 388.232 54.6048 388.432 54.6048ZM395.835 55.7688C395.291 55.7688 394.779 55.6328 394.299 55.3608C393.827 55.0808 393.443 54.6848 393.147 54.1728C392.859 53.6528 392.715 53.0288 392.715 52.3008C392.715 51.5648 392.859 50.9408 393.147 50.4288C393.443 49.9088 393.827 49.5128 394.299 49.2408C394.779 48.9688 395.291 48.8328 395.835 48.8328C396.235 48.8328 396.623 48.9128 396.999 49.0728C397.375 49.2248 397.707 49.4488 397.995 49.7448C398.283 50.0408 398.511 50.4048 398.679 50.8368C398.847 51.2608 398.931 51.7488 398.931 52.3008C398.931 53.0288 398.783 53.6528 398.487 54.1728C398.199 54.6848 397.819 55.0808 397.347 55.3608C396.883 55.6328 396.379 55.7688 395.835 55.7688ZM395.835 54.6168C396.179 54.6168 396.475 54.5208 396.723 54.3288C396.979 54.1368 397.175 53.8688 397.311 53.5248C397.447 53.1728 397.515 52.7648 397.515 52.3008C397.515 51.8368 397.447 51.4328 397.311 51.0888C397.175 50.7368 396.979 50.4648 396.723 50.2728C396.475 50.0728 396.179 49.9728 395.835 49.9728C395.483 49.9728 395.179 50.0728 394.923 50.2728C394.675 50.4648 394.483 50.7368 394.347 51.0888C394.211 51.4328 394.143 51.8368 394.143 52.3008C394.143 52.7648 394.211 53.1728 394.347 53.5248C394.483 53.8688 394.675 54.1368 394.923 54.3288C395.179 54.5208 395.483 54.6168 395.835 54.6168ZM400.565 55.6008V48.9888H401.945V55.6008H400.565ZM401.261 47.7648C400.997 47.7648 400.785 47.6888 400.625 47.5368C400.473 47.3848 400.397 47.1808 400.397 46.9248C400.397 46.6848 400.473 46.4888 400.625 46.3368C400.785 46.1848 400.997 46.1088 401.261 46.1088C401.509 46.1088 401.713 46.1848 401.873 46.3368C402.033 46.4888 402.113 46.6848 402.113 46.9248C402.113 47.1808 402.033 47.3848 401.873 47.5368C401.713 47.6888 401.509 47.7648 401.261 47.7648ZM404.023 55.6008V48.9888H405.151L405.271 49.9128H405.295C405.599 49.6168 405.927 49.3648 406.279 49.1568C406.631 48.9408 407.031 48.8328 407.479 48.8328C408.183 48.8328 408.695 49.0608 409.015 49.5168C409.343 49.9648 409.507 50.6088 409.507 51.4488V55.6008H408.127V51.6168C408.127 51.0488 408.039 50.6448 407.863 50.4048C407.687 50.1568 407.403 50.0328 407.011 50.0328C406.707 50.0328 406.435 50.1088 406.195 50.2608C405.963 50.4048 405.699 50.6248 405.403 50.9208V55.6008H404.023ZM413.731 55.7688C413.235 55.7688 412.839 55.6728 412.543 55.4808C412.255 55.2808 412.047 55.0088 411.919 54.6648C411.791 54.3128 411.727 53.9048 411.727 53.4408V50.1048H410.767V49.0728L411.799 48.9888L411.955 47.1648H413.107V48.9888H414.823V50.1048H413.107V53.4528C413.107 53.8448 413.183 54.1448 413.335 54.3528C413.487 54.5528 413.735 54.6528 414.079 54.6528C414.191 54.6528 414.311 54.6368 414.439 54.6048C414.567 54.5728 414.679 54.5368 414.775 54.4968L415.027 55.5168C414.851 55.5728 414.651 55.6288 414.427 55.6848C414.211 55.7408 413.979 55.7688 413.731 55.7688Z" fill="white"/>
<path d="M344 108.601C344 113.019 340.418 116.601 336 116.601C331.582 116.601 328 113.019 328 108.601C328 104.183 331.582 100.601 336 100.601C340.418 100.601 344 104.183 344 108.601Z" fill="white"/>
<path fill-rule="evenodd" clip-rule="evenodd" d="M340 108.601C340 110.81 338.209 112.601 336 112.601C333.791 112.601 332 110.81 332 108.601C332 106.392 333.791 104.601 336 104.601C338.209 104.601 340 106.392 340 108.601ZM343.418 111.601C342.232 114.533 339.357 116.601 336 116.601C331.582 116.601 328 113.019 328 108.601C328 104.183 331.582 100.601 336 100.601C339.357 100.601 342.232 102.669 343.418 105.601H347V111.601H343.418Z" fill="black"/>
<rect x="347" y="105.601" width="68" height="6" fill="#9E9E9E"/>
<path d="M434 108.601C434 113.019 430.418 116.601 426 116.601C421.582 116.601 418 113.019 418 108.601C418 104.183 421.582 100.601 426 100.601C430.418 100.601 434 104.183 434 108.601Z" fill="white"/>
<path fill-rule="evenodd" clip-rule="evenodd" d="M430 108.601C430 110.81 428.209 112.601 426 112.601C423.791 112.601 422 110.81 422 108.601C422 106.392 423.791 104.601 426 104.601C428.209 104.601 430 106.392 430 108.601ZM434 108.601C434 113.019 430.418 116.601 426 116.601C422.643 116.601 419.768 114.533 418.582 111.601H415V105.601H418.582C419.768 102.669 422.643 100.601 426 100.601C430.418 100.601 434 104.183 434 108.601Z" fill="black"/>
<path d="M344 164.601C344 169.019 340.418 172.601 336 172.601C331.582 172.601 328 169.019 328 164.601C328 160.183 331.582 156.601 336 156.601C340.418 156.601 344 160.183 344 164.601Z" fill="white"/>
<path fill-rule="evenodd" clip-rule="evenodd" d="M340 164.601C340 166.81 338.209 168.601 336 168.601C333.791 168.601 332 166.81 332 164.601C332 162.392 333.791 160.601 336 160.601C338.209 160.601 340 162.392 340 164.601ZM343.418 167.601C342.232 170.533 339.357 172.601 336 172.601C331.582 172.601 328 169.019 328 164.601C328 160.183 331.582 156.601 336 156.601C339.357 156.601 342.232 158.669 343.418 161.601H347V167.601H343.418Z" fill="black"/>
<rect x="347" y="161.601" width="68" height="6" fill="#F14047"/>
<path d="M434 164.601C434 169.019 430.418 172.601 426 172.601C421.582 172.601 418 169.019 418 164.601C418 160.183 421.582 156.601 426 156.601C430.418 156.601 434 160.183 434 164.601Z" fill="white"/>
<path fill-rule="evenodd" clip-rule="evenodd" d="M430 164.601C430 166.81 428.209 168.601 426 168.601C423.791 168.601 422 166.81 422 164.601C422 162.392 423.791 160.601 426 160.601C428.209 160.601 430 162.392 430 164.601ZM434 164.601C434 169.019 430.418 172.601 426 172.601C422.643 172.601 419.768 170.533 418.582 167.601H415V161.601H418.581C419.768 158.669 422.643 156.601 426 156.601C430.418 156.601 434 160.183 434 164.601Z" fill="black"/>
<path d="M344 220.601C344 225.019 340.418 228.601 336 228.601C331.582 228.601 328 225.019 328 220.601C328 216.183 331.582 212.601 336 212.601C340.418 212.601 344 216.183 344 220.601Z" fill="white"/>
<path fill-rule="evenodd" clip-rule="evenodd" d="M340 220.601C340 222.81 338.209 224.601 336 224.601C333.791 224.601 332 222.81 332 220.601C332 218.392 333.791 216.601 336 216.601C338.209 216.601 340 218.392 340 220.601ZM343.418 223.601C342.232 226.533 339.357 228.601 336 228.601C331.582 228.601 328 225.019 328 220.601C328 216.183 331.582 212.601 336 212.601C339.357 212.601 342.232 214.669 343.418 217.601H347V223.601H343.418Z" fill="black"/>
<rect x="347" y="217.601" width="68" height="6" fill="#00FF5F"/>
<path d="M434 220.601C434 225.019 430.418 228.601 426 228.601C421.582 228.601 418 225.019 418 220.601C418 216.183 421.582 212.601 426 212.601C430.418 212.601 434 216.183 434 220.601Z" fill="white"/>
<path fill-rule="evenodd" clip-rule="evenodd" d="M430 220.601C430 222.81 428.209 224.601 426 224.601C423.791 224.601 422 222.81 422 220.601C422 218.392 423.791 216.601 426 216.601C428.209 216.601 430 218.392 430 220.601ZM434 220.601C434 225.019 430.418 228.601 426 228.601C422.643 228.601 419.768 226.533 418.582 223.601H415V217.601H418.581C419.768 214.669 422.643 212.601 426 212.601C430.418 212.601 434 216.183 434 220.601Z" fill="black"/>
</svg>
