<svg width="1094" height="766" viewBox="0 0 1094 766" fill="none" xmlns="http://www.w3.org/2000/svg">
<rect width="1094" height="105.024" fill="#80AA4F"/>
<rect width="1094" height="4.376" transform="matrix(1 0 0 -1 0 109.4)" fill="#689237"/>
<rect y="109.4" width="27.35" height="2.188" fill="#F14047"/>
<rect width="27.35" height="2.188" transform="matrix(1 0 0 -1 0 113.776)" fill="#C5272D"/>
<rect width="27.35" height="2.188" transform="matrix(1 0 0 -1 0 115.964)" fill="#AC181E"/>
<rect x="27.3501" y="109.4" width="27.35" height="2.188" fill="white"/>
<rect width="27.35" height="2.188" transform="matrix(1 0 0 -1 27.3501 113.776)" fill="#DEDEDE"/>
<rect width="27.35" height="2.188" transform="matrix(1 0 0 -1 27.3501 115.964)" fill="#C7C7C7"/>
<rect x="54.7" y="109.4" width="27.35" height="2.188" fill="#F14047"/>
<rect width="27.35" height="2.188" transform="matrix(1 0 0 -1 54.7 113.776)" fill="#C5272D"/>
<rect width="27.35" height="2.188" transform="matrix(1 0 0 -1 54.7 115.964)" fill="#AC181E"/>
<rect x="82.05" y="109.4" width="27.35" height="2.188" fill="white"/>
<rect width="27.35" height="2.188" transform="matrix(1 0 0 -1 82.05 113.776)" fill="#DEDEDE"/>
<rect width="27.35" height="2.188" transform="matrix(1 0 0 -1 82.05 115.964)" fill="#C7C7C7"/>
<rect x="109.4" y="109.4" width="27.35" height="2.188" fill="#F14047"/>
<rect width="27.35" height="2.188" transform="matrix(1 0 0 -1 109.4 113.776)" fill="#C5272D"/>
<rect width="27.35" height="2.188" transform="matrix(1 0 0 -1 109.4 115.964)" fill="#AC181E"/>
<rect x="136.75" y="109.4" width="27.35" height="2.188" fill="white"/>
<rect width="27.35" height="2.188" transform="matrix(1 0 0 -1 136.75 113.776)" fill="#DEDEDE"/>
<rect width="27.35" height="2.188" transform="matrix(1 0 0 -1 136.75 115.964)" fill="#C7C7C7"/>
<rect x="164.1" y="109.4" width="27.35" height="2.188" fill="#F14047"/>
<rect width="27.35" height="2.188" transform="matrix(1 0 0 -1 164.1 113.776)" fill="#C5272D"/>
<rect width="27.35" height="2.188" transform="matrix(1 0 0 -1 164.1 115.964)" fill="#AC181E"/>
<rect x="191.45" y="109.4" width="27.35" height="2.188" fill="white"/>
<rect width="27.35" height="2.188" transform="matrix(1 0 0 -1 191.45 113.776)" fill="#DEDEDE"/>
<rect width="27.35" height="2.188" transform="matrix(1 0 0 -1 191.45 115.964)" fill="#C7C7C7"/>
<rect x="218.8" y="109.4" width="27.35" height="2.188" fill="#F14047"/>
<rect width="27.35" height="2.188" transform="matrix(1 0 0 -1 218.8 113.776)" fill="#C5272D"/>
<rect width="27.35" height="2.188" transform="matrix(1 0 0 -1 218.8 115.964)" fill="#AC181E"/>
<rect x="246.15" y="109.4" width="27.35" height="2.188" fill="white"/>
<rect width="27.35" height="2.188" transform="matrix(1 0 0 -1 246.15 113.776)" fill="#DEDEDE"/>
<rect width="27.35" height="2.188" transform="matrix(1 0 0 -1 246.15 115.964)" fill="#C7C7C7"/>
<rect x="273.5" y="109.4" width="27.35" height="2.188" fill="#F14047"/>
<rect width="27.35" height="2.188" transform="matrix(1 0 0 -1 273.5 113.776)" fill="#C5272D"/>
<rect width="27.35" height="2.188" transform="matrix(1 0 0 -1 273.5 115.964)" fill="#AC181E"/>
<rect x="300.85" y="109.4" width="27.35" height="2.188" fill="white"/>
<rect width="27.35" height="2.188" transform="matrix(1 0 0 -1 300.85 113.776)" fill="#DEDEDE"/>
<rect width="27.35" height="2.188" transform="matrix(1 0 0 -1 300.85 115.964)" fill="#C7C7C7"/>
<rect x="328.2" y="109.4" width="27.35" height="2.188" fill="#F14047"/>
<rect width="27.35" height="2.188" transform="matrix(1 0 0 -1 328.2 113.776)" fill="#C5272D"/>
<rect width="27.35" height="2.188" transform="matrix(1 0 0 -1 328.2 115.964)" fill="#AC181E"/>
<rect x="355.55" y="109.4" width="27.35" height="2.188" fill="white"/>
<rect width="27.35" height="2.188" transform="matrix(1 0 0 -1 355.55 113.776)" fill="#DEDEDE"/>
<rect width="27.35" height="2.188" transform="matrix(1 0 0 -1 355.55 115.964)" fill="#C7C7C7"/>
<rect x="382.9" y="109.4" width="27.35" height="2.188" fill="#F14047"/>
<rect width="27.35" height="2.188" transform="matrix(1 0 0 -1 382.9 113.776)" fill="#C5272D"/>
<rect width="27.35" height="2.188" transform="matrix(1 0 0 -1 382.9 115.964)" fill="#AC181E"/>
<rect x="410.25" y="109.4" width="27.35" height="2.188" fill="white"/>
<rect width="27.35" height="2.188" transform="matrix(1 0 0 -1 410.25 113.776)" fill="#DEDEDE"/>
<rect width="27.35" height="2.188" transform="matrix(1 0 0 -1 410.25 115.964)" fill="#C7C7C7"/>
<rect x="437.6" y="109.4" width="27.35" height="2.188" fill="#F14047"/>
<rect width="27.35" height="2.188" transform="matrix(1 0 0 -1 437.6 113.776)" fill="#C5272D"/>
<rect width="27.35" height="2.188" transform="matrix(1 0 0 -1 437.6 115.964)" fill="#AC181E"/>
<rect x="464.95" y="109.4" width="27.35" height="2.188" fill="white"/>
<rect width="27.35" height="2.188" transform="matrix(1 0 0 -1 464.95 113.776)" fill="#DEDEDE"/>
<rect width="27.35" height="2.188" transform="matrix(1 0 0 -1 464.95 115.964)" fill="#C7C7C7"/>
<rect x="492.3" y="109.4" width="27.35" height="2.188" fill="#F14047"/>
<rect width="27.35" height="2.188" transform="matrix(1 0 0 -1 492.3 113.776)" fill="#C5272D"/>
<rect width="27.35" height="2.188" transform="matrix(1 0 0 -1 492.3 115.964)" fill="#AC181E"/>
<rect x="519.65" y="109.4" width="27.35" height="2.188" fill="white"/>
<rect width="27.35" height="2.188" transform="matrix(1 0 0 -1 519.65 113.776)" fill="#DEDEDE"/>
<rect width="27.35" height="2.188" transform="matrix(1 0 0 -1 519.65 115.964)" fill="#C7C7C7"/>
<rect x="547" y="109.4" width="27.35" height="2.188" fill="#F14047"/>
<rect width="27.35" height="2.188" transform="matrix(1 0 0 -1 547 113.776)" fill="#C5272D"/>
<rect width="27.35" height="2.188" transform="matrix(1 0 0 -1 547 115.964)" fill="#AC181E"/>
<rect x="574.35" y="109.4" width="27.35" height="2.188" fill="white"/>
<rect width="27.35" height="2.188" transform="matrix(1 0 0 -1 574.35 113.776)" fill="#DEDEDE"/>
<rect width="27.35" height="2.188" transform="matrix(1 0 0 -1 574.35 115.964)" fill="#C7C7C7"/>
<rect x="601.7" y="109.4" width="27.35" height="2.188" fill="#F14047"/>
<rect width="27.35" height="2.188" transform="matrix(1 0 0 -1 601.7 113.776)" fill="#C5272D"/>
<rect width="27.35" height="2.188" transform="matrix(1 0 0 -1 601.7 115.964)" fill="#AC181E"/>
<rect x="629.05" y="109.4" width="27.35" height="2.188" fill="white"/>
<rect width="27.35" height="2.188" transform="matrix(1 0 0 -1 629.05 113.776)" fill="#DEDEDE"/>
<rect width="27.35" height="2.188" transform="matrix(1 0 0 -1 629.05 115.964)" fill="#C7C7C7"/>
<rect x="656.4" y="109.4" width="27.35" height="2.188" fill="#F14047"/>
<rect width="27.35" height="2.188" transform="matrix(1 0 0 -1 656.4 113.776)" fill="#C5272D"/>
<rect width="27.35" height="2.188" transform="matrix(1 0 0 -1 656.4 115.964)" fill="#AC181E"/>
<rect x="683.75" y="109.4" width="27.35" height="2.188" fill="white"/>
<rect width="27.35" height="2.188" transform="matrix(1 0 0 -1 683.75 113.776)" fill="#DEDEDE"/>
<rect width="27.35" height="2.188" transform="matrix(1 0 0 -1 683.75 115.964)" fill="#C7C7C7"/>
<rect x="711.1" y="109.4" width="27.35" height="2.188" fill="#F14047"/>
<rect width="27.35" height="2.188" transform="matrix(1 0 0 -1 711.1 113.776)" fill="#C5272D"/>
<rect width="27.35" height="2.188" transform="matrix(1 0 0 -1 711.1 115.964)" fill="#AC181E"/>
<rect x="738.45" y="109.4" width="27.35" height="2.188" fill="white"/>
<rect width="27.35" height="2.188" transform="matrix(1 0 0 -1 738.45 113.776)" fill="#DEDEDE"/>
<rect width="27.35" height="2.188" transform="matrix(1 0 0 -1 738.45 115.964)" fill="#C7C7C7"/>
<rect x="765.8" y="109.4" width="27.35" height="2.188" fill="#F14047"/>
<rect width="27.35" height="2.188" transform="matrix(1 0 0 -1 765.8 113.776)" fill="#C5272D"/>
<rect width="27.35" height="2.188" transform="matrix(1 0 0 -1 765.8 115.964)" fill="#AC181E"/>
<rect x="793.15" y="109.4" width="27.35" height="2.188" fill="white"/>
<rect width="27.35" height="2.188" transform="matrix(1 0 0 -1 793.15 113.776)" fill="#DEDEDE"/>
<rect width="27.35" height="2.188" transform="matrix(1 0 0 -1 793.15 115.964)" fill="#C7C7C7"/>
<rect x="820.5" y="109.4" width="27.35" height="2.188" fill="#F14047"/>
<rect width="27.35" height="2.188" transform="matrix(1 0 0 -1 820.5 113.776)" fill="#C5272D"/>
<rect width="27.35" height="2.188" transform="matrix(1 0 0 -1 820.5 115.964)" fill="#AC181E"/>
<rect x="847.85" y="109.4" width="27.35" height="2.188" fill="white"/>
<rect width="27.35" height="2.188" transform="matrix(1 0 0 -1 847.85 113.776)" fill="#DEDEDE"/>
<rect width="27.35" height="2.188" transform="matrix(1 0 0 -1 847.85 115.964)" fill="#C7C7C7"/>
<rect x="875.2" y="109.4" width="27.35" height="2.188" fill="#F14047"/>
<rect width="27.35" height="2.188" transform="matrix(1 0 0 -1 875.2 113.776)" fill="#C5272D"/>
<rect width="27.35" height="2.188" transform="matrix(1 0 0 -1 875.2 115.964)" fill="#AC181E"/>
<rect x="902.55" y="109.4" width="27.35" height="2.188" fill="white"/>
<rect width="27.35" height="2.188" transform="matrix(1 0 0 -1 902.55 113.776)" fill="#DEDEDE"/>
<rect width="27.35" height="2.188" transform="matrix(1 0 0 -1 902.55 115.964)" fill="#C7C7C7"/>
<rect x="929.9" y="109.4" width="27.35" height="2.188" fill="#F14047"/>
<rect width="27.35" height="2.188" transform="matrix(1 0 0 -1 929.9 113.776)" fill="#C5272D"/>
<rect width="27.35" height="2.188" transform="matrix(1 0 0 -1 929.9 115.964)" fill="#AC181E"/>
<rect x="957.25" y="109.4" width="27.35" height="2.188" fill="white"/>
<rect width="27.35" height="2.188" transform="matrix(1 0 0 -1 957.25 113.776)" fill="#DEDEDE"/>
<rect width="27.35" height="2.188" transform="matrix(1 0 0 -1 957.25 115.964)" fill="#C7C7C7"/>
<rect x="984.6" y="109.4" width="27.35" height="2.188" fill="#F14047"/>
<rect width="27.35" height="2.188" transform="matrix(1 0 0 -1 984.6 113.776)" fill="#C5272D"/>
<rect width="27.35" height="2.188" transform="matrix(1 0 0 -1 984.6 115.964)" fill="#AC181E"/>
<rect x="1011.95" y="109.4" width="27.35" height="2.188" fill="white"/>
<rect width="27.35" height="2.188" transform="matrix(1 0 0 -1 1011.95 113.776)" fill="#DEDEDE"/>
<rect width="27.35" height="2.188" transform="matrix(1 0 0 -1 1011.95 115.964)" fill="#C7C7C7"/>
<rect x="1039.3" y="109.4" width="27.35" height="2.188" fill="#F14047"/>
<rect width="27.35" height="2.188" transform="matrix(1 0 0 -1 1039.3 113.776)" fill="#C5272D"/>
<rect width="27.35" height="2.188" transform="matrix(1 0 0 -1 1039.3 115.964)" fill="#AC181E"/>
<rect x="1066.65" y="109.4" width="27.35" height="2.188" fill="white"/>
<rect width="27.35" height="2.188" transform="matrix(1 0 0 -1 1066.65 113.776)" fill="#DEDEDE"/>
<rect width="27.35" height="2.188" transform="matrix(1 0 0 -1 1066.65 115.964)" fill="#C7C7C7"/>
<rect width="1094" height="4.376" transform="matrix(1 0 0 -1 0 120.34)" fill="#444444"/>
<g clip-path="url(#clip0_3168_119615)">
<rect width="1094" height="492.3" transform="translate(0 120.34)" fill="#5E5E5E"/>
<g opacity="0.5">
<path d="M0 120.34H65.64V175.04H10.94V229.74H65.64V284.44H10.94V339.14H65.64V393.84H10.94V448.54H65.64V503.24H10.94V557.94H65.64V612.64H0V120.34Z" fill="white"/>
<path d="M120.34 557.94H65.64V503.24H120.34V448.54H65.64V393.84H120.34V339.14H65.64V284.44H120.34V229.74H65.64V175.04H120.34V120.34H131.28V612.64H120.34V557.94Z" fill="white"/>
</g>
<rect width="1137.76" height="492.3" transform="translate(131.28 120.34)" fill="#5E5E5E"/>
<rect x="196.92" y="172.853" width="87.52" height="4.376" fill="white"/>
<rect x="350.08" y="172.853" width="87.52" height="4.376" fill="white"/>
<rect x="503.24" y="172.853" width="87.52" height="4.376" fill="white"/>
<rect x="656.4" y="172.853" width="87.52" height="4.376" fill="white"/>
<rect x="809.56" y="172.853" width="87.52" height="4.376" fill="white"/>
<rect x="962.72" y="172.853" width="87.52" height="4.376" fill="white"/>
<rect x="196.92" y="227.552" width="87.52" height="4.376" fill="white"/>
<rect x="350.08" y="227.553" width="87.52" height="4.376" fill="white"/>
<rect x="503.24" y="227.553" width="87.52" height="4.376" fill="white"/>
<rect x="656.4" y="227.553" width="87.52" height="4.376" fill="white"/>
<rect x="809.56" y="227.553" width="87.52" height="4.376" fill="white"/>
<rect x="962.72" y="227.553" width="87.52" height="4.376" fill="white"/>
<rect x="196.92" y="282.252" width="87.52" height="4.376" fill="white"/>
<rect x="350.08" y="282.252" width="87.52" height="4.376" fill="white"/>
<rect x="503.24" y="282.252" width="87.52" height="4.376" fill="white"/>
<rect x="656.4" y="282.252" width="87.52" height="4.376" fill="white"/>
<rect x="809.56" y="282.252" width="87.52" height="4.376" fill="white"/>
<rect x="962.72" y="282.252" width="87.52" height="4.376" fill="white"/>
<rect x="196.92" y="336.952" width="87.52" height="4.376" fill="white"/>
<rect x="350.08" y="336.952" width="87.52" height="4.376" fill="white"/>
<rect x="503.24" y="336.952" width="87.52" height="4.376" fill="white"/>
<rect x="656.4" y="336.952" width="87.52" height="4.376" fill="white"/>
<rect x="809.56" y="336.952" width="87.52" height="4.376" fill="white"/>
<rect x="962.72" y="336.952" width="87.52" height="4.376" fill="white"/>
<rect x="196.92" y="391.652" width="87.52" height="4.376" fill="white"/>
<rect x="350.08" y="391.652" width="87.52" height="4.376" fill="white"/>
<rect x="503.24" y="391.652" width="87.52" height="4.376" fill="white"/>
<rect x="656.4" y="391.652" width="87.52" height="4.376" fill="white"/>
<rect x="809.56" y="391.652" width="87.52" height="4.376" fill="white"/>
<rect x="962.72" y="391.652" width="87.52" height="4.376" fill="white"/>
<rect x="196.92" y="446.353" width="87.52" height="4.376" fill="white"/>
<rect x="350.08" y="446.353" width="87.52" height="4.376" fill="white"/>
<rect x="503.24" y="446.353" width="87.52" height="4.376" fill="white"/>
<rect x="656.4" y="446.353" width="87.52" height="4.376" fill="white"/>
<rect x="809.56" y="446.353" width="87.52" height="4.376" fill="white"/>
<rect x="962.72" y="446.353" width="87.52" height="4.376" fill="white"/>
<rect x="196.92" y="501.052" width="87.52" height="4.376" fill="white"/>
<rect x="350.08" y="501.053" width="87.52" height="4.376" fill="white"/>
<rect x="503.24" y="501.053" width="87.52" height="4.376" fill="white"/>
<rect x="656.4" y="501.053" width="87.52" height="4.376" fill="white"/>
<rect x="809.56" y="501.053" width="87.52" height="4.376" fill="white"/>
<rect x="962.72" y="501.053" width="87.52" height="4.376" fill="white"/>
<rect x="196.92" y="555.752" width="87.52" height="4.376" fill="white"/>
<rect x="350.08" y="555.752" width="87.52" height="4.376" fill="white"/>
<rect x="503.24" y="555.752" width="87.52" height="4.376" fill="white"/>
<rect x="656.4" y="555.752" width="87.52" height="4.376" fill="white"/>
<rect x="809.56" y="555.752" width="87.52" height="4.376" fill="white"/>
<rect x="962.72" y="555.752" width="87.52" height="4.376" fill="white"/>
</g>
<rect width="1094" height="2.188" transform="matrix(1 0 0 -1 0 614.828)" fill="#444444"/>
<rect y="614.828" width="27.35" height="2.188" fill="#F14047"/>
<rect width="27.35" height="2.188" transform="matrix(1 0 0 -1 0 619.204)" fill="#C5272D"/>
<rect width="27.35" height="2.188" transform="matrix(1 0 0 -1 0 621.392)" fill="#AC181E"/>
<rect x="27.3501" y="614.828" width="27.35" height="2.188" fill="white"/>
<rect width="27.35" height="2.188" transform="matrix(1 0 0 -1 27.3501 619.204)" fill="#DEDEDE"/>
<rect width="27.35" height="2.188" transform="matrix(1 0 0 -1 27.3501 621.392)" fill="#C7C7C7"/>
<rect x="54.7" y="614.828" width="27.35" height="2.188" fill="#F14047"/>
<rect width="27.35" height="2.188" transform="matrix(1 0 0 -1 54.7 619.204)" fill="#C5272D"/>
<rect width="27.35" height="2.188" transform="matrix(1 0 0 -1 54.7 621.392)" fill="#AC181E"/>
<rect x="82.05" y="614.828" width="27.35" height="2.188" fill="white"/>
<rect width="27.35" height="2.188" transform="matrix(1 0 0 -1 82.05 619.204)" fill="#DEDEDE"/>
<rect width="27.35" height="2.188" transform="matrix(1 0 0 -1 82.05 621.392)" fill="#C7C7C7"/>
<rect x="109.4" y="614.828" width="27.35" height="2.188" fill="#F14047"/>
<rect width="27.35" height="2.188" transform="matrix(1 0 0 -1 109.4 619.204)" fill="#C5272D"/>
<rect width="27.35" height="2.188" transform="matrix(1 0 0 -1 109.4 621.392)" fill="#AC181E"/>
<rect x="136.75" y="614.828" width="27.35" height="2.188" fill="white"/>
<rect width="27.35" height="2.188" transform="matrix(1 0 0 -1 136.75 619.204)" fill="#DEDEDE"/>
<rect width="27.35" height="2.188" transform="matrix(1 0 0 -1 136.75 621.392)" fill="#C7C7C7"/>
<rect x="164.1" y="614.828" width="27.35" height="2.188" fill="#F14047"/>
<rect width="27.35" height="2.188" transform="matrix(1 0 0 -1 164.1 619.204)" fill="#C5272D"/>
<rect width="27.35" height="2.188" transform="matrix(1 0 0 -1 164.1 621.392)" fill="#AC181E"/>
<rect x="191.45" y="614.828" width="27.35" height="2.188" fill="white"/>
<rect width="27.35" height="2.188" transform="matrix(1 0 0 -1 191.45 619.204)" fill="#DEDEDE"/>
<rect width="27.35" height="2.188" transform="matrix(1 0 0 -1 191.45 621.392)" fill="#C7C7C7"/>
<rect x="218.8" y="614.828" width="27.35" height="2.188" fill="#F14047"/>
<rect width="27.35" height="2.188" transform="matrix(1 0 0 -1 218.8 619.204)" fill="#C5272D"/>
<rect width="27.35" height="2.188" transform="matrix(1 0 0 -1 218.8 621.392)" fill="#AC181E"/>
<rect x="246.15" y="614.828" width="27.35" height="2.188" fill="white"/>
<rect width="27.35" height="2.188" transform="matrix(1 0 0 -1 246.15 619.204)" fill="#DEDEDE"/>
<rect width="27.35" height="2.188" transform="matrix(1 0 0 -1 246.15 621.392)" fill="#C7C7C7"/>
<rect x="273.5" y="614.828" width="27.35" height="2.188" fill="#F14047"/>
<rect width="27.35" height="2.188" transform="matrix(1 0 0 -1 273.5 619.204)" fill="#C5272D"/>
<rect width="27.35" height="2.188" transform="matrix(1 0 0 -1 273.5 621.392)" fill="#AC181E"/>
<rect x="300.85" y="614.828" width="27.35" height="2.188" fill="white"/>
<rect width="27.35" height="2.188" transform="matrix(1 0 0 -1 300.85 619.204)" fill="#DEDEDE"/>
<rect width="27.35" height="2.188" transform="matrix(1 0 0 -1 300.85 621.392)" fill="#C7C7C7"/>
<rect x="328.2" y="614.828" width="27.35" height="2.188" fill="#F14047"/>
<rect width="27.35" height="2.188" transform="matrix(1 0 0 -1 328.2 619.204)" fill="#C5272D"/>
<rect width="27.35" height="2.188" transform="matrix(1 0 0 -1 328.2 621.392)" fill="#AC181E"/>
<rect x="355.55" y="614.828" width="27.35" height="2.188" fill="white"/>
<rect width="27.35" height="2.188" transform="matrix(1 0 0 -1 355.55 619.204)" fill="#DEDEDE"/>
<rect width="27.35" height="2.188" transform="matrix(1 0 0 -1 355.55 621.392)" fill="#C7C7C7"/>
<rect x="382.9" y="614.828" width="27.35" height="2.188" fill="#F14047"/>
<rect width="27.35" height="2.188" transform="matrix(1 0 0 -1 382.9 619.204)" fill="#C5272D"/>
<rect width="27.35" height="2.188" transform="matrix(1 0 0 -1 382.9 621.392)" fill="#AC181E"/>
<rect x="410.25" y="614.828" width="27.35" height="2.188" fill="white"/>
<rect width="27.35" height="2.188" transform="matrix(1 0 0 -1 410.25 619.204)" fill="#DEDEDE"/>
<rect width="27.35" height="2.188" transform="matrix(1 0 0 -1 410.25 621.392)" fill="#C7C7C7"/>
<rect x="437.6" y="614.828" width="27.35" height="2.188" fill="#F14047"/>
<rect width="27.35" height="2.188" transform="matrix(1 0 0 -1 437.6 619.204)" fill="#C5272D"/>
<rect width="27.35" height="2.188" transform="matrix(1 0 0 -1 437.6 621.392)" fill="#AC181E"/>
<rect x="464.95" y="614.828" width="27.35" height="2.188" fill="white"/>
<rect width="27.35" height="2.188" transform="matrix(1 0 0 -1 464.95 619.204)" fill="#DEDEDE"/>
<rect width="27.35" height="2.188" transform="matrix(1 0 0 -1 464.95 621.392)" fill="#C7C7C7"/>
<rect x="492.3" y="614.828" width="27.35" height="2.188" fill="#F14047"/>
<rect width="27.35" height="2.188" transform="matrix(1 0 0 -1 492.3 619.204)" fill="#C5272D"/>
<rect width="27.35" height="2.188" transform="matrix(1 0 0 -1 492.3 621.392)" fill="#AC181E"/>
<rect x="519.65" y="614.828" width="27.35" height="2.188" fill="white"/>
<rect width="27.35" height="2.188" transform="matrix(1 0 0 -1 519.65 619.204)" fill="#DEDEDE"/>
<rect width="27.35" height="2.188" transform="matrix(1 0 0 -1 519.65 621.392)" fill="#C7C7C7"/>
<rect x="547" y="614.828" width="27.35" height="2.188" fill="#F14047"/>
<rect width="27.35" height="2.188" transform="matrix(1 0 0 -1 547 619.204)" fill="#C5272D"/>
<rect width="27.35" height="2.188" transform="matrix(1 0 0 -1 547 621.392)" fill="#AC181E"/>
<rect x="574.35" y="614.828" width="27.35" height="2.188" fill="white"/>
<rect width="27.35" height="2.188" transform="matrix(1 0 0 -1 574.35 619.204)" fill="#DEDEDE"/>
<rect width="27.35" height="2.188" transform="matrix(1 0 0 -1 574.35 621.392)" fill="#C7C7C7"/>
<rect x="601.7" y="614.828" width="27.35" height="2.188" fill="#F14047"/>
<rect width="27.35" height="2.188" transform="matrix(1 0 0 -1 601.7 619.204)" fill="#C5272D"/>
<rect width="27.35" height="2.188" transform="matrix(1 0 0 -1 601.7 621.392)" fill="#AC181E"/>
<rect x="629.05" y="614.828" width="27.35" height="2.188" fill="white"/>
<rect width="27.35" height="2.188" transform="matrix(1 0 0 -1 629.05 619.204)" fill="#DEDEDE"/>
<rect width="27.35" height="2.188" transform="matrix(1 0 0 -1 629.05 621.392)" fill="#C7C7C7"/>
<rect x="656.4" y="614.828" width="27.35" height="2.188" fill="#F14047"/>
<rect width="27.35" height="2.188" transform="matrix(1 0 0 -1 656.4 619.204)" fill="#C5272D"/>
<rect width="27.35" height="2.188" transform="matrix(1 0 0 -1 656.4 621.392)" fill="#AC181E"/>
<rect x="683.75" y="614.828" width="27.35" height="2.188" fill="white"/>
<rect width="27.35" height="2.188" transform="matrix(1 0 0 -1 683.75 619.204)" fill="#DEDEDE"/>
<rect width="27.35" height="2.188" transform="matrix(1 0 0 -1 683.75 621.392)" fill="#C7C7C7"/>
<rect x="711.1" y="614.828" width="27.35" height="2.188" fill="#F14047"/>
<rect width="27.35" height="2.188" transform="matrix(1 0 0 -1 711.1 619.204)" fill="#C5272D"/>
<rect width="27.35" height="2.188" transform="matrix(1 0 0 -1 711.1 621.392)" fill="#AC181E"/>
<rect x="738.45" y="614.828" width="27.35" height="2.188" fill="white"/>
<rect width="27.35" height="2.188" transform="matrix(1 0 0 -1 738.45 619.204)" fill="#DEDEDE"/>
<rect width="27.35" height="2.188" transform="matrix(1 0 0 -1 738.45 621.392)" fill="#C7C7C7"/>
<rect x="765.8" y="614.828" width="27.35" height="2.188" fill="#F14047"/>
<rect width="27.35" height="2.188" transform="matrix(1 0 0 -1 765.8 619.204)" fill="#C5272D"/>
<rect width="27.35" height="2.188" transform="matrix(1 0 0 -1 765.8 621.392)" fill="#AC181E"/>
<rect x="793.15" y="614.828" width="27.35" height="2.188" fill="white"/>
<rect width="27.35" height="2.188" transform="matrix(1 0 0 -1 793.15 619.204)" fill="#DEDEDE"/>
<rect width="27.35" height="2.188" transform="matrix(1 0 0 -1 793.15 621.392)" fill="#C7C7C7"/>
<rect x="820.5" y="614.828" width="27.35" height="2.188" fill="#F14047"/>
<rect width="27.35" height="2.188" transform="matrix(1 0 0 -1 820.5 619.204)" fill="#C5272D"/>
<rect width="27.35" height="2.188" transform="matrix(1 0 0 -1 820.5 621.392)" fill="#AC181E"/>
<rect x="847.85" y="614.828" width="27.35" height="2.188" fill="white"/>
<rect width="27.35" height="2.188" transform="matrix(1 0 0 -1 847.85 619.204)" fill="#DEDEDE"/>
<rect width="27.35" height="2.188" transform="matrix(1 0 0 -1 847.85 621.392)" fill="#C7C7C7"/>
<rect x="875.2" y="614.828" width="27.35" height="2.188" fill="#F14047"/>
<rect width="27.35" height="2.188" transform="matrix(1 0 0 -1 875.2 619.204)" fill="#C5272D"/>
<rect width="27.35" height="2.188" transform="matrix(1 0 0 -1 875.2 621.392)" fill="#AC181E"/>
<rect x="902.55" y="614.828" width="27.35" height="2.188" fill="white"/>
<rect width="27.35" height="2.188" transform="matrix(1 0 0 -1 902.55 619.204)" fill="#DEDEDE"/>
<rect width="27.35" height="2.188" transform="matrix(1 0 0 -1 902.55 621.392)" fill="#C7C7C7"/>
<rect x="929.9" y="614.828" width="27.35" height="2.188" fill="#F14047"/>
<rect width="27.35" height="2.188" transform="matrix(1 0 0 -1 929.9 619.204)" fill="#C5272D"/>
<rect width="27.35" height="2.188" transform="matrix(1 0 0 -1 929.9 621.392)" fill="#AC181E"/>
<rect x="957.25" y="614.828" width="27.35" height="2.188" fill="white"/>
<rect width="27.35" height="2.188" transform="matrix(1 0 0 -1 957.25 619.204)" fill="#DEDEDE"/>
<rect width="27.35" height="2.188" transform="matrix(1 0 0 -1 957.25 621.392)" fill="#C7C7C7"/>
<rect x="984.6" y="614.828" width="27.35" height="2.188" fill="#F14047"/>
<rect width="27.35" height="2.188" transform="matrix(1 0 0 -1 984.6 619.204)" fill="#C5272D"/>
<rect width="27.35" height="2.188" transform="matrix(1 0 0 -1 984.6 621.392)" fill="#AC181E"/>
<rect x="1011.95" y="614.828" width="27.35" height="2.188" fill="white"/>
<rect width="27.35" height="2.188" transform="matrix(1 0 0 -1 1011.95 619.204)" fill="#DEDEDE"/>
<rect width="27.35" height="2.188" transform="matrix(1 0 0 -1 1011.95 621.392)" fill="#C7C7C7"/>
<rect x="1039.3" y="614.828" width="27.35" height="2.188" fill="#F14047"/>
<rect width="27.35" height="2.188" transform="matrix(1 0 0 -1 1039.3 619.204)" fill="#C5272D"/>
<rect width="27.35" height="2.188" transform="matrix(1 0 0 -1 1039.3 621.392)" fill="#AC181E"/>
<rect x="1066.65" y="614.828" width="27.35" height="2.188" fill="white"/>
<rect width="27.35" height="2.188" transform="matrix(1 0 0 -1 1066.65 619.204)" fill="#DEDEDE"/>
<rect width="27.35" height="2.188" transform="matrix(1 0 0 -1 1066.65 621.392)" fill="#C7C7C7"/>
<rect y="621.392" width="1094" height="2.188" fill="#AED680"/>
<rect y="623.58" width="1094" height="131.28" fill="#80AA4F"/>
<rect x="125.81" y="688.126" width="4.376" height="13.128" fill="#45724A"/>
<rect x="125.81" y="688.126" width="4.376" height="13.128" fill="#538716"/>
<rect x="134.562" y="692.502" width="4.376" height="8.752" fill="#45724A"/>
<rect x="134.562" y="692.502" width="4.376" height="8.752" fill="#538716"/>
<rect x="117.058" y="705.63" width="4.376" height="4.376" fill="#45724A"/>
<rect x="117.058" y="705.63" width="4.376" height="4.376" fill="#538716"/>
<rect x="112.682" y="701.254" width="4.376" height="4.376" fill="#45724A"/>
<rect x="112.682" y="701.254" width="4.376" height="4.376" fill="#538716"/>
<rect x="627.956" y="688.126" width="4.376" height="13.128" fill="#45724A"/>
<rect x="627.956" y="688.126" width="4.376" height="13.128" fill="#538716"/>
<rect x="636.708" y="692.502" width="4.376" height="8.752" fill="#45724A"/>
<rect x="636.708" y="692.502" width="4.376" height="8.752" fill="#538716"/>
<rect x="619.204" y="705.63" width="4.376" height="4.376" fill="#45724A"/>
<rect x="619.204" y="705.63" width="4.376" height="4.376" fill="#538716"/>
<rect x="614.828" y="701.254" width="4.376" height="4.376" fill="#45724A"/>
<rect x="614.828" y="701.254" width="4.376" height="4.376" fill="#538716"/>
<rect x="910.208" y="688.126" width="4.376" height="13.128" fill="#45724A"/>
<rect x="910.208" y="688.126" width="4.376" height="13.128" fill="#538716"/>
<rect x="918.96" y="692.502" width="4.376" height="8.752" fill="#45724A"/>
<rect x="918.96" y="692.502" width="4.376" height="8.752" fill="#538716"/>
<rect x="901.456" y="705.63" width="4.376" height="4.376" fill="#45724A"/>
<rect x="901.456" y="705.63" width="4.376" height="4.376" fill="#538716"/>
<rect x="897.08" y="701.254" width="4.376" height="4.376" fill="#45724A"/>
<rect x="897.08" y="701.254" width="4.376" height="4.376" fill="#538716"/>
<rect width="1094" height="10.94" transform="matrix(1 0 0 -1 0 765.8)" fill="#689237"/>
<rect x="177.228" y="42.666" width="4.376" height="13.128" fill="#45724A"/>
<rect x="177.228" y="42.666" width="4.376" height="13.128" fill="#538716"/>
<rect x="168.476" y="51.418" width="4.376" height="4.376" fill="#45724A"/>
<rect x="168.476" y="51.418" width="4.376" height="4.376" fill="#538716"/>
<rect x="164.1" y="47.042" width="4.376" height="4.376" fill="#45724A"/>
<rect x="164.1" y="47.042" width="4.376" height="4.376" fill="#538716"/>
<rect x="383.994" y="55.7939" width="4.376" height="13.128" fill="#45724A"/>
<rect x="383.994" y="55.7939" width="4.376" height="13.128" fill="#538716"/>
<rect x="392.746" y="60.1699" width="4.376" height="8.752" fill="#45724A"/>
<rect x="392.746" y="60.1699" width="4.376" height="8.752" fill="#538716"/>
<rect x="375.242" y="73.2981" width="4.376" height="4.376" fill="#45724A"/>
<rect x="375.242" y="73.2981" width="4.376" height="4.376" fill="#538716"/>
<rect x="370.866" y="68.9221" width="4.376" height="4.376" fill="#45724A"/>
<rect x="370.866" y="68.9221" width="4.376" height="4.376" fill="#538716"/>
<path d="M521.838 19.6924C521.838 17.2756 523.797 15.3164 526.214 15.3164H1078.68C1081.1 15.3164 1083.06 17.2756 1083.06 19.6924V89.7084C1083.06 92.1252 1081.1 94.0844 1078.68 94.0844H526.214C523.797 94.0844 521.838 92.1252 521.838 89.7084V19.6924Z" fill="#2D3648"/>
<path d="M521.838 15.3164C521.838 12.8996 523.797 10.9404 526.214 10.9404H1078.68C1081.1 10.9404 1083.06 12.8996 1083.06 15.3164V85.3324C1083.06 87.7492 1081.1 89.7084 1078.68 89.7084H526.214C523.797 89.7084 521.838 87.7492 521.838 85.3324V15.3164Z" fill="#4A5468"/>
<path d="M537.453 55.8984H536.488V53.846H537.622V55.7452H538.556V56.6795H541.236V55.7452H542.186V53.0649H541.236V52.1153H538.403V51.1657H537.453V50.2161H536.488V47.2142H537.453V46.2646H538.403V45.3303H541.405V46.2646H542.339V47.2142H543.289V49.2819H542.186V47.3827H541.236V46.4331H538.556V47.3827H537.622V50.063H538.556V50.9973H541.405V51.9469H542.339V52.8964H543.289V55.8984H542.339V56.848H541.405V57.8129H538.403V56.848H537.453V55.8984ZM545.111 55.8984H544.146V47.2142H545.111V46.2646H546.061V45.3303H549.063V46.2646H549.997V47.2142H550.947V49.2819H549.844V47.3827H548.894V46.4331H546.214V47.3827H545.28V55.7452H546.214V56.6795H548.894V55.7452H549.844V52.8964H550.947V55.8984H549.997V56.848H549.063V57.8129H546.061V56.848H545.111V55.8984ZM552.769 55.8984H551.804V47.2142H552.769V46.2646H553.719V45.3303H556.721V46.2646H557.655V47.2142H558.605V55.8984H557.655V56.848H556.721V57.8129H553.719V56.848H552.769V55.8984ZM553.872 55.7452V56.6795H556.552V55.7452H557.502V47.3827H556.552V46.4331H553.872V47.3827H552.938V55.7452H553.872ZM559.462 45.3303H564.379V46.2646H565.313V47.2142H566.263V50.2161H565.313V51.1657H564.379V51.9469H565.313V54.7956H566.263V57.8129H565.16V54.9488H564.21V52.1153H560.596V57.8129H559.462V45.3303ZM564.21 50.9973V50.063H565.16V47.3827H564.21V46.4331H560.596V50.9973H564.21ZM567.12 45.3303H573.921V46.4331H568.254V50.9973H572.971V52.1153H568.254V56.6795H573.921V57.8129H567.12V45.3303Z" fill="#FF6F6F"/>
<path d="M608.631 24.3606H612.845V25.1615H613.646V25.9754H614.46V29.3624H613.646V30.1764H612.845V30.9903H609.603V35.06H608.631V24.3606ZM612.701 30.0319V29.218H613.515V26.1198H612.701V25.3059H609.603V30.0319H612.701ZM618.438 25.3059H616.823V24.3606H619.396V35.06H618.438V25.3059ZM623.781 27.6033H625.553V29.3624H623.781V27.6033ZM623.781 32.4738H625.553V34.2329H623.781V32.4738Z" fill="#A0ABC0"/>
<path d="M638.13 25.3059H636.515V24.3606H639.088V35.06H638.13V25.3059ZM641.451 31.6598H642.278V30.8459H643.092V30.0319H644.707V29.218H645.521V28.4172H646.335V26.1198H645.521V25.3059H643.224V26.1198H642.423V28.5485H641.451V25.9754H642.278V25.1615H643.092V24.3606H645.665V25.1615H646.466V25.9754H647.28V28.5485H646.466V29.3624H645.665V30.1764H644.851V30.9903H643.224V31.8042H642.423V34.0885H647.28V35.06H641.451V31.6598ZM648.842 33.419H648.015V31.6598H648.987V33.2877H649.788V34.0885H652.085V33.2877H652.899V30.9903H652.085V30.1764H649.656V29.218H652.085V28.4172H652.899V26.1198H652.085V25.3059H649.788V26.1198H648.987V27.7477H648.015V25.9754H648.842V25.1615H649.656V24.3606H652.229V25.1615H653.03V25.9754H653.844V28.5485H653.03V29.3624H652.229V30.0319H653.03V30.8459H653.844V33.419H653.03V34.2329H652.229V35.06H649.656V34.2329H648.842V33.419ZM654.238 32.4738H655.052V31.6598H655.853V30.0319H656.627V28.4172H657.428V26.7893H658.229V25.1615H659.03V24.3606H659.949V32.4738H660.749V33.419H659.949V35.06H659.03V33.419H654.238V32.4738ZM659.03 32.4738V26.9337H658.373V28.5485H657.572V30.1764H656.772V31.8042H655.971V32.4738H659.03ZM661.97 33.419H661.143V32.4738H662.115V33.2877H662.916V34.0885H665.213V33.2877H666.027V30.1764H665.213V29.3624H662.916V30.1764H662.115V30.9903H661.143V24.3606H666.158V25.3059H662.115V29.218H662.784V28.4172H665.357V29.218H666.158V30.0319H666.972V33.419H666.158V34.2329H665.357V35.06H662.784V34.2329H661.97V33.419ZM674.271 27.6033H675.243V28.4172H675.912V27.6033H676.857V28.4172H678.341V27.6033H679.286V28.4172H680.1V35.06H679.155V28.5485H678.485V29.3624H677.671V35.06H676.713V28.5485H676.044V29.3624H675.243V35.06H674.271V27.6033Z" fill="white"/>
<path d="M728.971 24.3606H733.185V25.1615H733.986V25.9754H734.8V29.3624H733.986V30.1764H733.185V30.9903H729.943V35.06H728.971V24.3606ZM733.041 30.0319V29.218H733.855V26.1198H733.041V25.3059H729.943V30.0319H733.041ZM735.535 31.6598H736.362V30.8459H737.176V30.0319H738.791V29.218H739.605V28.4172H740.419V26.1198H739.605V25.3059H737.307V26.1198H736.507V28.5485H735.535V25.9754H736.362V25.1615H737.176V24.3606H739.749V25.1615H740.55V25.9754H741.364V28.5485H740.55V29.3624H739.749V30.1764H738.935V30.9903H737.307V31.8042H736.507V34.0885H741.364V35.06H735.535V31.6598ZM744.121 27.6033H745.893V29.3624H744.121V27.6033ZM744.121 32.4738H745.893V34.2329H744.121V32.4738Z" fill="#A0ABC0"/>
<path d="M756.054 33.419H755.227V25.9754H756.054V25.1615H756.868V24.3606H759.441V25.1615H760.242V25.9754H761.056V33.419H760.242V34.2329H759.441V35.06H756.868V34.2329H756.054V33.419ZM756.999 33.2877V34.0885H759.297V33.2877H760.111V26.1198H759.297V25.3059H756.999V26.1198H756.199V33.2877H756.999ZM768.355 27.6033H769.327V28.4172H769.996V27.6033H770.941V28.4172H772.425V27.6033H773.37V28.4172H774.184V35.06H773.239V28.5485H772.569V29.3624H771.755V35.06H770.797V28.5485H770.127V29.3624H769.327V35.06H768.355V27.6033Z" fill="white"/>
<path d="M849.311 24.3606H853.526V25.1615H854.326V25.9754H855.14V29.3624H854.326V30.1764H853.526V30.9903H850.283V35.06H849.311V24.3606ZM853.381 30.0319V29.218H854.195V26.1198H853.381V25.3059H850.283V30.0319H853.381ZM856.702 33.419H855.875V31.6598H856.847V33.2877H857.648V34.0885H859.945V33.2877H860.759V30.9903H859.945V30.1764H857.516V29.218H859.945V28.4172H860.759V26.1198H859.945V25.3059H857.648V26.1198H856.847V27.7477H855.875V25.9754H856.702V25.1615H857.516V24.3606H860.09V25.1615H860.89V25.9754H861.704V28.5485H860.89V29.3624H860.09V30.0319H860.89V30.8459H861.704V33.419H860.89V34.2329H860.09V35.06H857.516V34.2329H856.702V33.419ZM864.461 27.6033H866.233V29.3624H864.461V27.6033ZM864.461 32.4738H866.233V34.2329H864.461V32.4738Z" fill="#A0ABC0"/>
<path d="M876.394 33.419H875.567V25.9754H876.394V25.1615H877.208V24.3606H879.782V25.1615H880.582V25.9754H881.396V33.419H880.582V34.2329H879.782V35.06H877.208V34.2329H876.394V33.419ZM877.34 33.2877V34.0885H879.637V33.2877H880.451V26.1198H879.637V25.3059H877.34V26.1198H876.539V33.2877H877.34ZM888.695 27.6033H889.667V28.4172H890.336V27.6033H891.282V28.4172H892.765V27.6033H893.71V28.4172H894.524V35.06H893.579V28.5485H892.91V29.3624H892.096V35.06H891.137V28.5485H890.468V29.3624H889.667V35.06H888.695V27.6033Z" fill="white"/>
<path d="M969.651 24.3606H973.865V25.1615H974.666V25.9754H975.48V29.3624H974.666V30.1764H973.865V30.9903H970.623V35.06H969.651V24.3606ZM973.721 30.0319V29.218H974.535V26.1198H973.721V25.3059H970.623V30.0319H973.721ZM975.874 32.4738H976.688V31.6598H977.489V30.0319H978.263V28.4172H979.064V26.7893H979.865V25.1615H980.666V24.3606H981.585V32.4738H982.385V33.419H981.585V35.06H980.666V33.419H975.874V32.4738ZM980.666 32.4738V26.9337H980.009V28.5485H979.208V30.1764H978.408V31.8042H977.607V32.4738H980.666ZM984.801 27.6033H986.573V29.3624H984.801V27.6033ZM984.801 32.4738H986.573V34.2329H984.801V32.4738Z" fill="#A0ABC0"/>
<path d="M996.734 33.419H995.907V25.9754H996.734V25.1615H997.548V24.3606H1000.12V25.1615H1000.92V25.9754H1001.74V33.419H1000.92V34.2329H1000.12V35.06H997.548V34.2329H996.734V33.419ZM997.68 33.2877V34.0885H999.977V33.2877H1000.79V26.1198H999.977V25.3059H997.68V26.1198H996.879V33.2877H997.68ZM1009.04 27.6033H1010.01V28.4172H1010.68V27.6033H1011.62V28.4172H1013.1V27.6033H1014.05V28.4172H1014.86V35.06H1013.92V28.5485H1013.25V29.3624H1012.44V35.06H1011.48V28.5485H1010.81V29.3624H1010.01V35.06H1009.04V27.6033Z" fill="white"/>
<rect x="258.184" y="204.578" width="56.888" height="10.94" fill="#A8A8A8"/>
<rect x="273.5" y="184.886" width="19.692" height="2.188" fill="black"/>
<rect x="255.996" y="187.074" width="6.564" height="2.188" fill="black"/>
<rect x="297.568" y="188.168" width="15.316" height="2.188" fill="black"/>
<rect x="317.26" y="194.732" width="2.188" height="17.504" fill="black"/>
<rect x="312.884" y="212.236" width="2.188" height="3.282" fill="black"/>
<rect x="273.5" y="187.074" width="19.692" height="17.504" fill="#F0F0F0"/>
<rect x="258.184" y="190.356" width="13.128" height="18.598" fill="#F0F0F0"/>
<rect x="255.996" y="189.262" width="6.564" height="17.504" fill="#F0F0F0"/>
<rect x="299.756" y="190.356" width="13.128" height="17.504" fill="#F0F0F0"/>
<rect x="312.884" y="192.544" width="2.188" height="17.504" fill="#C8C8C8"/>
<rect x="315.072" y="194.732" width="2.188" height="17.504" fill="#A8A8A8"/>
<rect x="299.756" y="213.33" width="8.752" height="2.188" fill="#2D3648"/>
<rect x="271.312" y="213.33" width="8.752" height="2.188" fill="#2D3648"/>
<rect x="262.56" y="190.356" width="2.188" height="18.598" fill="#A8A8A8"/>
<rect x="255.996" y="206.766" width="2.188" height="6.564" fill="black"/>
<rect x="253.808" y="189.262" width="2.188" height="17.504" fill="black"/>
<rect x="258.184" y="206.766" width="4.376" height="2.188" fill="#A8A8A8"/>
<rect x="293.192" y="187.074" width="2.188" height="17.504" fill="#1C274C"/>
<rect x="295.38" y="189.262" width="2.188" height="16.41" fill="#1C274C"/>
<rect x="269.124" y="190.356" width="2.188" height="18.598" fill="#1C274C"/>
<rect x="297.568" y="190.356" width="2.188" height="16.41" fill="#1C274C"/>
<rect x="271.312" y="189.262" width="2.188" height="17.504" fill="#1C274C"/>
<rect x="278.97" y="204.578" width="12.034" height="2.188" fill="#1C274C"/>
<rect x="280.064" y="206.766" width="14.222" height="2.188" fill="#1C274C"/>
<rect x="315.072" y="212.236" width="2.188" height="2.188" fill="black"/>
<rect x="315.072" y="192.544" width="2.188" height="2.188" fill="black"/>
<rect x="312.884" y="190.356" width="2.188" height="2.188" fill="black"/>
<rect x="271.312" y="211.142" width="8.752" height="2.188" fill="black"/>
<rect x="297.568" y="213.33" width="2.188" height="2.188" fill="black"/>
<rect x="280.064" y="213.33" width="2.188" height="2.188" fill="black"/>
<rect x="269.124" y="213.33" width="2.188" height="2.188" fill="black"/>
<rect x="258.184" y="213.33" width="2.188" height="2.188" fill="black"/>
<rect x="299.756" y="211.142" width="8.752" height="2.188" fill="black"/>
<rect x="308.508" y="213.33" width="2.188" height="2.188" fill="black"/>
<rect x="295.38" y="187.074" width="2.188" height="2.188" fill="black"/>
<rect x="271.312" y="187.074" width="2.188" height="2.188" fill="black"/>
<rect x="293.192" y="184.886" width="2.188" height="2.188" fill="black"/>
<rect x="260.372" y="215.518" width="52.512" height="2.188" fill="black"/>
<rect x="262.56" y="188.168" width="8.752" height="2.188" fill="black"/>
<rect x="597.324" y="532.778" width="56.888" height="10.94" fill="#A8A8A8"/>
<rect x="612.64" y="513.086" width="19.692" height="2.188" fill="black"/>
<rect x="595.136" y="515.274" width="6.564" height="2.188" fill="black"/>
<rect x="636.708" y="516.368" width="15.316" height="2.188" fill="black"/>
<rect x="656.4" y="522.932" width="2.188" height="17.504" fill="black"/>
<rect x="652.024" y="540.436" width="2.188" height="3.282" fill="black"/>
<rect x="612.64" y="515.274" width="19.692" height="17.504" fill="#F0F0F0"/>
<rect x="597.324" y="518.556" width="13.128" height="18.598" fill="#F0F0F0"/>
<rect x="595.136" y="517.462" width="6.564" height="17.504" fill="#F0F0F0"/>
<rect x="638.896" y="518.556" width="13.128" height="17.504" fill="#F0F0F0"/>
<rect x="652.024" y="520.744" width="2.188" height="17.504" fill="#C8C8C8"/>
<rect x="654.212" y="522.932" width="2.188" height="17.504" fill="#A8A8A8"/>
<rect x="638.896" y="541.53" width="8.752" height="2.188" fill="#2D3648"/>
<rect x="610.452" y="541.53" width="8.752" height="2.188" fill="#2D3648"/>
<rect x="601.7" y="518.556" width="2.188" height="18.598" fill="#A8A8A8"/>
<rect x="595.136" y="534.966" width="2.188" height="6.564" fill="black"/>
<rect x="592.948" y="517.462" width="2.188" height="17.504" fill="black"/>
<rect x="597.324" y="534.966" width="4.376" height="2.188" fill="#A8A8A8"/>
<rect x="632.332" y="515.274" width="2.188" height="17.504" fill="#1C274C"/>
<rect x="634.52" y="517.462" width="2.188" height="16.41" fill="#1C274C"/>
<rect x="608.264" y="518.556" width="2.188" height="18.598" fill="#1C274C"/>
<rect x="636.708" y="518.556" width="2.188" height="16.41" fill="#1C274C"/>
<rect x="610.452" y="517.462" width="2.188" height="17.504" fill="#1C274C"/>
<rect x="618.11" y="532.778" width="12.034" height="2.188" fill="#1C274C"/>
<rect x="619.204" y="534.966" width="14.222" height="2.188" fill="#1C274C"/>
<rect x="654.212" y="540.436" width="2.188" height="2.188" fill="black"/>
<rect x="654.212" y="520.744" width="2.188" height="2.188" fill="black"/>
<rect x="652.024" y="518.556" width="2.188" height="2.188" fill="black"/>
<rect x="610.452" y="539.342" width="8.752" height="2.188" fill="black"/>
<rect x="636.708" y="541.53" width="2.188" height="2.188" fill="black"/>
<rect x="619.204" y="541.53" width="2.188" height="2.188" fill="black"/>
<rect x="608.264" y="541.53" width="2.188" height="2.188" fill="black"/>
<rect x="597.324" y="541.53" width="2.188" height="2.188" fill="black"/>
<rect x="638.896" y="539.342" width="8.752" height="2.188" fill="black"/>
<rect x="647.648" y="541.53" width="2.188" height="2.188" fill="black"/>
<rect x="634.52" y="515.274" width="2.188" height="2.188" fill="black"/>
<rect x="610.452" y="515.274" width="2.188" height="2.188" fill="black"/>
<rect x="632.332" y="513.086" width="2.188" height="2.188" fill="black"/>
<rect x="599.512" y="543.718" width="52.512" height="2.188" fill="black"/>
<rect x="601.7" y="516.368" width="8.752" height="2.188" fill="black"/>
<rect x="210.048" y="424.472" width="56.888" height="10.94" fill="#A8A8A8"/>
<rect x="225.364" y="404.78" width="19.692" height="2.188" fill="black"/>
<rect x="207.86" y="406.968" width="6.564" height="2.188" fill="black"/>
<rect x="249.432" y="408.062" width="15.316" height="2.188" fill="black"/>
<rect x="269.124" y="414.626" width="2.188" height="17.504" fill="black"/>
<rect x="264.748" y="432.13" width="2.188" height="3.282" fill="black"/>
<rect x="225.364" y="406.968" width="19.692" height="17.504" fill="#F0F0F0"/>
<rect x="210.048" y="410.25" width="13.128" height="18.598" fill="#F0F0F0"/>
<rect x="207.86" y="409.156" width="6.564" height="17.504" fill="#F0F0F0"/>
<rect x="251.62" y="410.25" width="13.128" height="17.504" fill="#F0F0F0"/>
<rect x="264.748" y="412.438" width="2.188" height="17.504" fill="#C8C8C8"/>
<rect x="266.936" y="414.626" width="2.188" height="17.504" fill="#A8A8A8"/>
<rect x="251.62" y="433.224" width="8.752" height="2.188" fill="#2D3648"/>
<rect x="223.176" y="433.224" width="8.752" height="2.188" fill="#2D3648"/>
<rect x="214.424" y="410.25" width="2.188" height="18.598" fill="#A8A8A8"/>
<rect x="207.86" y="426.66" width="2.188" height="6.564" fill="black"/>
<rect x="205.672" y="409.156" width="2.188" height="17.504" fill="black"/>
<rect x="210.048" y="426.66" width="4.376" height="2.188" fill="#A8A8A8"/>
<rect x="245.056" y="406.968" width="2.188" height="17.504" fill="#1C274C"/>
<rect x="247.244" y="409.156" width="2.188" height="16.41" fill="#1C274C"/>
<rect x="220.988" y="410.25" width="2.188" height="18.598" fill="#1C274C"/>
<rect x="249.432" y="410.25" width="2.188" height="16.41" fill="#1C274C"/>
<rect x="223.176" y="409.156" width="2.188" height="17.504" fill="#1C274C"/>
<rect x="230.834" y="424.472" width="12.034" height="2.188" fill="#1C274C"/>
<rect x="231.928" y="426.66" width="14.222" height="2.188" fill="#1C274C"/>
<rect x="266.936" y="432.13" width="2.188" height="2.188" fill="black"/>
<rect x="266.936" y="412.438" width="2.188" height="2.188" fill="black"/>
<rect x="264.748" y="410.25" width="2.188" height="2.188" fill="black"/>
<rect x="223.176" y="431.036" width="8.752" height="2.188" fill="black"/>
<rect x="249.432" y="433.224" width="2.188" height="2.188" fill="black"/>
<rect x="231.928" y="433.224" width="2.188" height="2.188" fill="black"/>
<rect x="220.988" y="433.224" width="2.188" height="2.188" fill="black"/>
<rect x="210.048" y="433.224" width="2.188" height="2.188" fill="black"/>
<rect x="251.62" y="431.036" width="8.752" height="2.188" fill="black"/>
<rect x="260.372" y="433.224" width="2.188" height="2.188" fill="black"/>
<rect x="247.244" y="406.968" width="2.188" height="2.188" fill="black"/>
<rect x="223.176" y="406.968" width="2.188" height="2.188" fill="black"/>
<rect x="245.056" y="404.78" width="2.188" height="2.188" fill="black"/>
<rect x="212.236" y="435.412" width="52.512" height="2.188" fill="black"/>
<rect x="214.424" y="408.062" width="8.752" height="2.188" fill="black"/>
<rect x="323.824" y="313.978" width="56.888" height="10.94" fill="#A8A8A8"/>
<rect x="339.14" y="294.286" width="19.692" height="2.188" fill="black"/>
<rect x="321.636" y="296.474" width="6.564" height="2.188" fill="black"/>
<rect x="363.208" y="297.568" width="15.316" height="2.188" fill="black"/>
<rect x="382.9" y="304.132" width="2.188" height="17.504" fill="black"/>
<rect x="378.524" y="321.636" width="2.188" height="3.282" fill="black"/>
<rect x="339.14" y="296.474" width="19.692" height="17.504" fill="#F0F0F0"/>
<rect x="323.824" y="299.756" width="13.128" height="18.598" fill="#F0F0F0"/>
<rect x="321.636" y="298.662" width="6.564" height="17.504" fill="#F0F0F0"/>
<rect x="365.396" y="299.756" width="13.128" height="17.504" fill="#F0F0F0"/>
<rect x="378.524" y="301.944" width="2.188" height="17.504" fill="#C8C8C8"/>
<rect x="380.712" y="304.132" width="2.188" height="17.504" fill="#A8A8A8"/>
<rect x="365.396" y="322.73" width="8.752" height="2.188" fill="#2D3648"/>
<rect x="336.952" y="322.73" width="8.752" height="2.188" fill="#2D3648"/>
<rect x="328.2" y="299.756" width="2.188" height="18.598" fill="#A8A8A8"/>
<rect x="321.636" y="316.166" width="2.188" height="6.564" fill="black"/>
<rect x="319.448" y="298.662" width="2.188" height="17.504" fill="black"/>
<rect x="323.824" y="316.166" width="4.376" height="2.188" fill="#A8A8A8"/>
<rect x="358.832" y="296.474" width="2.188" height="17.504" fill="#1C274C"/>
<rect x="361.02" y="298.662" width="2.188" height="16.41" fill="#1C274C"/>
<rect x="334.764" y="299.756" width="2.188" height="18.598" fill="#1C274C"/>
<rect x="363.208" y="299.756" width="2.188" height="16.41" fill="#1C274C"/>
<rect x="336.952" y="298.662" width="2.188" height="17.504" fill="#1C274C"/>
<rect x="344.61" y="313.978" width="12.034" height="2.188" fill="#1C274C"/>
<rect x="345.704" y="316.166" width="14.222" height="2.188" fill="#1C274C"/>
<rect x="380.712" y="321.636" width="2.188" height="2.188" fill="black"/>
<rect x="380.712" y="301.944" width="2.188" height="2.188" fill="black"/>
<rect x="378.524" y="299.756" width="2.188" height="2.188" fill="black"/>
<rect x="336.952" y="320.542" width="8.752" height="2.188" fill="black"/>
<rect x="363.208" y="322.73" width="2.188" height="2.188" fill="black"/>
<rect x="345.704" y="322.73" width="2.188" height="2.188" fill="black"/>
<rect x="334.764" y="322.73" width="2.188" height="2.188" fill="black"/>
<rect x="323.824" y="322.73" width="2.188" height="2.188" fill="black"/>
<rect x="365.396" y="320.542" width="8.752" height="2.188" fill="black"/>
<rect x="374.148" y="322.73" width="2.188" height="2.188" fill="black"/>
<rect x="361.02" y="296.474" width="2.188" height="2.188" fill="black"/>
<rect x="336.952" y="296.474" width="2.188" height="2.188" fill="black"/>
<rect x="358.832" y="294.286" width="2.188" height="2.188" fill="black"/>
<rect x="326.012" y="324.918" width="52.512" height="2.188" fill="black"/>
<rect x="328.2" y="297.568" width="8.752" height="2.188" fill="black"/>
<rect x="15.3159" y="149.878" width="56.888" height="10.94" fill="#710000"/>
<rect x="30.6321" y="130.186" width="19.692" height="2.188" fill="black"/>
<rect x="13.1279" y="132.374" width="6.564" height="2.188" fill="black"/>
<rect x="54.7" y="133.468" width="15.316" height="2.188" fill="black"/>
<rect x="74.3921" y="140.032" width="2.188" height="17.504" fill="black"/>
<rect x="70.0161" y="157.536" width="2.188" height="3.282" fill="black"/>
<rect x="30.6321" y="132.374" width="19.692" height="17.504" fill="#D11F1F"/>
<rect x="15.3159" y="135.656" width="13.128" height="18.598" fill="#D11F1F"/>
<rect x="13.1279" y="134.562" width="6.564" height="17.504" fill="#D11F1F"/>
<rect x="56.8879" y="135.656" width="13.128" height="17.504" fill="#D11F1F"/>
<rect x="70.0161" y="137.844" width="2.188" height="17.504" fill="#AC181E"/>
<rect x="72.2041" y="140.032" width="2.188" height="17.504" fill="#710000"/>
<rect x="56.8879" y="158.63" width="8.752" height="2.188" fill="#2D3648"/>
<rect x="28.4441" y="158.63" width="8.752" height="2.188" fill="#2D3648"/>
<rect x="19.6919" y="135.656" width="2.188" height="18.598" fill="#710000"/>
<rect x="13.1279" y="152.066" width="2.188" height="6.564" fill="black"/>
<rect x="10.9399" y="134.562" width="2.188" height="17.504" fill="black"/>
<rect x="15.3159" y="152.066" width="4.376" height="2.188" fill="#710000"/>
<rect x="50.324" y="132.374" width="2.188" height="17.504" fill="#1C274C"/>
<rect x="52.512" y="134.562" width="2.188" height="16.41" fill="#1C274C"/>
<rect x="26.2561" y="135.656" width="2.188" height="18.598" fill="#1C274C"/>
<rect x="54.7" y="135.656" width="2.188" height="16.41" fill="#1C274C"/>
<rect x="28.4441" y="134.562" width="2.188" height="17.504" fill="#1C274C"/>
<rect x="36.1021" y="149.878" width="12.034" height="2.188" fill="#1C274C"/>
<rect x="37.196" y="152.066" width="14.222" height="2.188" fill="#1C274C"/>
<rect x="72.2041" y="157.536" width="2.188" height="2.188" fill="black"/>
<rect x="72.2041" y="137.844" width="2.188" height="2.188" fill="black"/>
<rect x="70.0161" y="135.656" width="2.188" height="2.188" fill="black"/>
<rect x="28.4441" y="156.442" width="8.752" height="2.188" fill="black"/>
<rect x="54.7" y="158.63" width="2.188" height="2.188" fill="black"/>
<rect x="37.196" y="158.63" width="2.188" height="2.188" fill="black"/>
<rect x="26.2561" y="158.63" width="2.188" height="2.188" fill="black"/>
<rect x="15.3159" y="158.63" width="2.188" height="2.188" fill="black"/>
<rect x="56.8879" y="156.442" width="8.752" height="2.188" fill="black"/>
<rect x="65.6399" y="158.63" width="2.188" height="2.188" fill="black"/>
<rect x="52.512" y="132.374" width="2.188" height="2.188" fill="black"/>
<rect x="28.4441" y="132.374" width="2.188" height="2.188" fill="black"/>
<rect x="50.324" y="130.186" width="2.188" height="2.188" fill="black"/>
<rect x="17.5039" y="160.818" width="52.512" height="2.188" fill="black"/>
<rect x="19.6919" y="133.468" width="8.752" height="2.188" fill="black"/>
<rect x="15.3159" y="259.278" width="56.888" height="10.94" fill="#034E99"/>
<rect x="30.6321" y="239.586" width="19.692" height="2.188" fill="black"/>
<rect x="13.1279" y="241.774" width="6.564" height="2.188" fill="black"/>
<rect x="54.7" y="242.868" width="15.316" height="2.188" fill="black"/>
<rect x="74.3921" y="249.432" width="2.188" height="17.504" fill="black"/>
<rect x="70.0161" y="266.936" width="2.188" height="3.282" fill="black"/>
<rect x="30.6321" y="241.774" width="19.692" height="17.504" fill="#00A3FF"/>
<rect x="15.3159" y="245.056" width="13.128" height="18.598" fill="#00A3FF"/>
<rect x="13.1279" y="243.962" width="6.564" height="17.504" fill="#00A3FF"/>
<rect x="56.8879" y="245.056" width="13.128" height="17.504" fill="#00A3FF"/>
<rect x="70.0161" y="247.244" width="2.188" height="17.504" fill="#1976D2"/>
<rect x="72.2041" y="249.432" width="2.188" height="17.504" fill="#034E99"/>
<rect x="56.8879" y="268.03" width="8.752" height="2.188" fill="#2D3648"/>
<rect x="28.4441" y="268.03" width="8.752" height="2.188" fill="#2D3648"/>
<rect x="19.6919" y="245.056" width="2.188" height="18.598" fill="#034E99"/>
<rect x="13.1279" y="261.466" width="2.188" height="6.564" fill="black"/>
<rect x="10.9399" y="243.962" width="2.188" height="17.504" fill="black"/>
<rect x="15.3159" y="261.466" width="4.376" height="2.188" fill="#034E99"/>
<rect x="50.324" y="241.774" width="2.188" height="17.504" fill="#1C274C"/>
<rect x="52.512" y="243.962" width="2.188" height="16.41" fill="#1C274C"/>
<rect x="26.2561" y="245.056" width="2.188" height="18.598" fill="#1C274C"/>
<rect x="54.7" y="245.056" width="2.188" height="16.41" fill="#1C274C"/>
<rect x="28.4441" y="243.962" width="2.188" height="17.504" fill="#1C274C"/>
<rect x="36.1021" y="259.278" width="12.034" height="2.188" fill="#1C274C"/>
<rect x="37.196" y="261.466" width="14.222" height="2.188" fill="#1C274C"/>
<rect x="72.2041" y="266.936" width="2.188" height="2.188" fill="black"/>
<rect x="72.2041" y="247.244" width="2.188" height="2.188" fill="black"/>
<rect x="70.0161" y="245.056" width="2.188" height="2.188" fill="black"/>
<rect x="28.4441" y="265.842" width="8.752" height="2.188" fill="black"/>
<rect x="54.7" y="268.03" width="2.188" height="2.188" fill="black"/>
<rect x="37.196" y="268.03" width="2.188" height="2.188" fill="black"/>
<rect x="26.2561" y="268.03" width="2.188" height="2.188" fill="black"/>
<rect x="15.3159" y="268.03" width="2.188" height="2.188" fill="black"/>
<rect x="56.8879" y="265.842" width="8.752" height="2.188" fill="black"/>
<rect x="65.6399" y="268.03" width="2.188" height="2.188" fill="black"/>
<rect x="52.512" y="241.774" width="2.188" height="2.188" fill="black"/>
<rect x="28.4441" y="241.774" width="2.188" height="2.188" fill="black"/>
<rect x="50.324" y="239.586" width="2.188" height="2.188" fill="black"/>
<rect x="17.5039" y="270.218" width="52.512" height="2.188" fill="black"/>
<rect x="19.6919" y="242.868" width="8.752" height="2.188" fill="black"/>
<rect x="15.3159" y="368.678" width="56.888" height="10.94" fill="#9C5B00"/>
<rect x="30.6321" y="348.986" width="19.692" height="2.188" fill="black"/>
<rect x="13.1279" y="351.174" width="6.564" height="2.188" fill="black"/>
<rect x="54.7" y="352.268" width="15.316" height="2.188" fill="black"/>
<rect x="74.3921" y="358.832" width="2.188" height="17.504" fill="black"/>
<rect x="70.0161" y="376.336" width="2.188" height="3.282" fill="black"/>
<rect x="30.6321" y="351.174" width="19.692" height="17.504" fill="#E09E42"/>
<rect x="15.3159" y="354.456" width="13.128" height="18.598" fill="#E09E42"/>
<rect x="13.1279" y="353.362" width="6.564" height="17.504" fill="#E09E42"/>
<rect x="56.8879" y="354.456" width="13.128" height="17.504" fill="#E09E42"/>
<rect x="70.0161" y="356.644" width="2.188" height="17.504" fill="#C17306"/>
<rect x="72.2041" y="358.832" width="2.188" height="17.504" fill="#9C5B00"/>
<rect x="56.8879" y="377.43" width="8.752" height="2.188" fill="#2D3648"/>
<rect x="28.4441" y="377.43" width="8.752" height="2.188" fill="#2D3648"/>
<rect x="19.6919" y="354.456" width="2.188" height="18.598" fill="#9C5B00"/>
<rect x="13.1279" y="370.866" width="2.188" height="6.564" fill="black"/>
<rect x="10.9399" y="353.362" width="2.188" height="17.504" fill="black"/>
<rect x="15.3159" y="370.866" width="4.376" height="2.188" fill="#9C5B00"/>
<rect x="50.324" y="351.174" width="2.188" height="17.504" fill="#1C274C"/>
<rect x="52.512" y="353.362" width="2.188" height="16.41" fill="#1C274C"/>
<rect x="26.2561" y="354.456" width="2.188" height="18.598" fill="#1C274C"/>
<rect x="54.7" y="354.456" width="2.188" height="16.41" fill="#1C274C"/>
<rect x="28.4441" y="353.362" width="2.188" height="17.504" fill="#1C274C"/>
<rect x="36.1021" y="368.678" width="12.034" height="2.188" fill="#1C274C"/>
<rect x="37.196" y="370.866" width="14.222" height="2.188" fill="#1C274C"/>
<rect x="72.2041" y="376.336" width="2.188" height="2.188" fill="black"/>
<rect x="72.2041" y="356.644" width="2.188" height="2.188" fill="black"/>
<rect x="70.0161" y="354.456" width="2.188" height="2.188" fill="black"/>
<rect x="28.4441" y="375.242" width="8.752" height="2.188" fill="black"/>
<rect x="54.7" y="377.43" width="2.188" height="2.188" fill="black"/>
<rect x="37.196" y="377.43" width="2.188" height="2.188" fill="black"/>
<rect x="26.2561" y="377.43" width="2.188" height="2.188" fill="black"/>
<rect x="15.3159" y="377.43" width="2.188" height="2.188" fill="black"/>
<rect x="56.8879" y="375.242" width="8.752" height="2.188" fill="black"/>
<rect x="65.6399" y="377.43" width="2.188" height="2.188" fill="black"/>
<rect x="52.512" y="351.174" width="2.188" height="2.188" fill="black"/>
<rect x="28.4441" y="351.174" width="2.188" height="2.188" fill="black"/>
<rect x="50.324" y="348.986" width="2.188" height="2.188" fill="black"/>
<rect x="17.5039" y="379.618" width="52.512" height="2.188" fill="black"/>
<rect x="19.6919" y="352.268" width="8.752" height="2.188" fill="black"/>
<rect x="15.3159" y="478.078" width="56.888" height="10.94" fill="#4E9000"/>
<rect x="30.6321" y="458.386" width="19.692" height="2.188" fill="black"/>
<rect x="13.1279" y="460.574" width="6.564" height="2.188" fill="black"/>
<rect x="54.7" y="461.668" width="15.316" height="2.188" fill="black"/>
<rect x="74.3921" y="468.232" width="2.188" height="17.504" fill="black"/>
<rect x="70.0161" y="485.736" width="2.188" height="3.282" fill="black"/>
<rect x="30.6321" y="460.574" width="19.692" height="17.504" fill="#43E27E"/>
<rect x="15.3159" y="463.856" width="13.128" height="18.598" fill="#43E27E"/>
<rect x="13.1279" y="462.762" width="6.564" height="17.504" fill="#43E27E"/>
<rect x="56.8879" y="463.856" width="13.128" height="17.504" fill="#43E27E"/>
<rect x="70.0161" y="466.044" width="2.188" height="17.504" fill="#538716"/>
<rect x="72.2041" y="468.232" width="2.188" height="17.504" fill="#4E9000"/>
<rect x="56.8879" y="486.83" width="8.752" height="2.188" fill="#2D3648"/>
<rect x="28.4441" y="486.83" width="8.752" height="2.188" fill="#2D3648"/>
<rect x="19.6919" y="463.856" width="2.188" height="18.598" fill="#4E9000"/>
<rect x="13.1279" y="480.266" width="2.188" height="6.564" fill="black"/>
<rect x="10.9399" y="462.762" width="2.188" height="17.504" fill="black"/>
<rect x="15.3159" y="480.266" width="4.376" height="2.188" fill="#4E9000"/>
<rect x="50.324" y="460.574" width="2.188" height="17.504" fill="#1C274C"/>
<rect x="52.512" y="462.762" width="2.188" height="16.41" fill="#1C274C"/>
<rect x="26.2561" y="463.856" width="2.188" height="18.598" fill="#1C274C"/>
<rect x="54.7" y="463.856" width="2.188" height="16.41" fill="#1C274C"/>
<rect x="28.4441" y="462.762" width="2.188" height="17.504" fill="#1C274C"/>
<rect x="36.1021" y="478.078" width="12.034" height="2.188" fill="#1C274C"/>
<rect x="37.196" y="480.266" width="14.222" height="2.188" fill="#1C274C"/>
<rect x="72.2041" y="485.736" width="2.188" height="2.188" fill="black"/>
<rect x="72.2041" y="466.044" width="2.188" height="2.188" fill="black"/>
<rect x="70.0161" y="463.856" width="2.188" height="2.188" fill="black"/>
<rect x="28.4441" y="484.642" width="8.752" height="2.188" fill="black"/>
<rect x="54.7" y="486.83" width="2.188" height="2.188" fill="black"/>
<rect x="37.196" y="486.83" width="2.188" height="2.188" fill="black"/>
<rect x="26.2561" y="486.83" width="2.188" height="2.188" fill="black"/>
<rect x="15.3159" y="486.83" width="2.188" height="2.188" fill="black"/>
<rect x="56.8879" y="484.642" width="8.752" height="2.188" fill="black"/>
<rect x="65.6399" y="486.83" width="2.188" height="2.188" fill="black"/>
<rect x="52.512" y="460.574" width="2.188" height="2.188" fill="black"/>
<rect x="28.4441" y="460.574" width="2.188" height="2.188" fill="black"/>
<rect x="50.324" y="458.386" width="2.188" height="2.188" fill="black"/>
<rect x="17.5039" y="489.018" width="52.512" height="2.188" fill="black"/>
<rect x="19.6919" y="461.668" width="8.752" height="2.188" fill="black"/>
<rect x="611.546" y="68.9221" width="56.888" height="10.94" fill="#710000"/>
<rect x="626.862" y="49.23" width="19.692" height="2.188" fill="black"/>
<rect x="609.358" y="51.418" width="6.564" height="2.188" fill="black"/>
<rect x="650.93" y="52.512" width="15.316" height="2.188" fill="black"/>
<rect x="670.622" y="59.0759" width="2.188" height="17.504" fill="black"/>
<rect x="666.246" y="76.5801" width="2.188" height="3.282" fill="black"/>
<rect x="626.862" y="51.418" width="19.692" height="17.504" fill="#D11F1F"/>
<rect x="611.546" y="54.7" width="13.128" height="18.598" fill="#D11F1F"/>
<rect x="609.358" y="53.606" width="6.564" height="17.504" fill="#D11F1F"/>
<rect x="653.118" y="54.7" width="13.128" height="17.504" fill="#D11F1F"/>
<rect x="666.246" y="56.8879" width="2.188" height="17.504" fill="#AC181E"/>
<rect x="668.434" y="59.0759" width="2.188" height="17.504" fill="#710000"/>
<rect x="653.118" y="77.6741" width="8.752" height="2.188" fill="#2D3648"/>
<rect x="624.674" y="77.6741" width="8.752" height="2.188" fill="#2D3648"/>
<rect x="615.922" y="54.7" width="2.188" height="18.598" fill="#710000"/>
<rect x="609.358" y="71.1101" width="2.188" height="6.564" fill="black"/>
<rect x="607.17" y="53.606" width="2.188" height="17.504" fill="black"/>
<rect x="611.546" y="71.1101" width="4.376" height="2.188" fill="#710000"/>
<rect x="646.554" y="51.418" width="2.188" height="17.504" fill="#1C274C"/>
<rect x="648.742" y="53.606" width="2.188" height="16.41" fill="#1C274C"/>
<rect x="622.486" y="54.7" width="2.188" height="18.598" fill="#1C274C"/>
<rect x="650.93" y="54.7" width="2.188" height="16.41" fill="#1C274C"/>
<rect x="624.674" y="53.606" width="2.188" height="17.504" fill="#1C274C"/>
<rect x="632.332" y="68.9221" width="12.034" height="2.188" fill="#1C274C"/>
<rect x="633.426" y="71.1101" width="14.222" height="2.188" fill="#1C274C"/>
<rect x="668.434" y="76.5801" width="2.188" height="2.188" fill="black"/>
<rect x="668.434" y="56.8879" width="2.188" height="2.188" fill="black"/>
<rect x="666.246" y="54.7" width="2.188" height="2.188" fill="black"/>
<rect x="624.674" y="75.4861" width="8.752" height="2.188" fill="black"/>
<rect x="650.93" y="77.6741" width="2.188" height="2.188" fill="black"/>
<rect x="633.426" y="77.6741" width="2.188" height="2.188" fill="black"/>
<rect x="622.486" y="77.6741" width="2.188" height="2.188" fill="black"/>
<rect x="611.546" y="77.6741" width="2.188" height="2.188" fill="black"/>
<rect x="653.118" y="75.4861" width="8.752" height="2.188" fill="black"/>
<rect x="661.87" y="77.6741" width="2.188" height="2.188" fill="black"/>
<rect x="648.742" y="51.418" width="2.188" height="2.188" fill="black"/>
<rect x="624.674" y="51.418" width="2.188" height="2.188" fill="black"/>
<rect x="646.554" y="49.23" width="2.188" height="2.188" fill="black"/>
<rect x="613.734" y="79.8621" width="52.512" height="2.188" fill="black"/>
<rect x="615.922" y="52.512" width="8.752" height="2.188" fill="black"/>
<rect x="731.886" y="68.9221" width="56.888" height="10.94" fill="#034E99"/>
<rect x="747.202" y="49.23" width="19.692" height="2.188" fill="black"/>
<rect x="729.698" y="51.418" width="6.564" height="2.188" fill="black"/>
<rect x="771.27" y="52.512" width="15.316" height="2.188" fill="black"/>
<rect x="790.962" y="59.0759" width="2.188" height="17.504" fill="black"/>
<rect x="786.586" y="76.5801" width="2.188" height="3.282" fill="black"/>
<rect x="747.202" y="51.418" width="19.692" height="17.504" fill="#00A3FF"/>
<rect x="731.886" y="54.7" width="13.128" height="18.598" fill="#00A3FF"/>
<rect x="729.698" y="53.606" width="6.564" height="17.504" fill="#00A3FF"/>
<rect x="773.458" y="54.7" width="13.128" height="17.504" fill="#00A3FF"/>
<rect x="786.586" y="56.8879" width="2.188" height="17.504" fill="#1976D2"/>
<rect x="788.774" y="59.0759" width="2.188" height="17.504" fill="#034E99"/>
<rect x="773.458" y="77.6741" width="8.752" height="2.188" fill="#2D3648"/>
<rect x="745.014" y="77.6741" width="8.752" height="2.188" fill="#2D3648"/>
<rect x="736.262" y="54.7" width="2.188" height="18.598" fill="#034E99"/>
<rect x="729.698" y="71.1101" width="2.188" height="6.564" fill="black"/>
<rect x="727.51" y="53.606" width="2.188" height="17.504" fill="black"/>
<rect x="731.886" y="71.1101" width="4.376" height="2.188" fill="#034E99"/>
<rect x="766.894" y="51.418" width="2.188" height="17.504" fill="#1C274C"/>
<rect x="769.082" y="53.606" width="2.188" height="16.41" fill="#1C274C"/>
<rect x="742.826" y="54.7" width="2.188" height="18.598" fill="#1C274C"/>
<rect x="771.27" y="54.7" width="2.188" height="16.41" fill="#1C274C"/>
<rect x="745.014" y="53.606" width="2.188" height="17.504" fill="#1C274C"/>
<rect x="752.672" y="68.9221" width="12.034" height="2.188" fill="#1C274C"/>
<rect x="753.766" y="71.1101" width="14.222" height="2.188" fill="#1C274C"/>
<rect x="788.774" y="76.5801" width="2.188" height="2.188" fill="black"/>
<rect x="788.774" y="56.8879" width="2.188" height="2.188" fill="black"/>
<rect x="786.586" y="54.7" width="2.188" height="2.188" fill="black"/>
<rect x="745.014" y="75.4861" width="8.752" height="2.188" fill="black"/>
<rect x="771.27" y="77.6741" width="2.188" height="2.188" fill="black"/>
<rect x="753.766" y="77.6741" width="2.188" height="2.188" fill="black"/>
<rect x="742.826" y="77.6741" width="2.188" height="2.188" fill="black"/>
<rect x="731.886" y="77.6741" width="2.188" height="2.188" fill="black"/>
<rect x="773.458" y="75.4861" width="8.752" height="2.188" fill="black"/>
<rect x="782.21" y="77.6741" width="2.188" height="2.188" fill="black"/>
<rect x="769.082" y="51.418" width="2.188" height="2.188" fill="black"/>
<rect x="745.014" y="51.418" width="2.188" height="2.188" fill="black"/>
<rect x="766.894" y="49.23" width="2.188" height="2.188" fill="black"/>
<rect x="734.074" y="79.8621" width="52.512" height="2.188" fill="black"/>
<rect x="736.262" y="52.512" width="8.752" height="2.188" fill="black"/>
<rect x="852.226" y="68.9221" width="56.888" height="10.94" fill="#9C5B00"/>
<rect x="867.542" y="49.23" width="19.692" height="2.188" fill="black"/>
<rect x="850.038" y="51.418" width="6.564" height="2.188" fill="black"/>
<rect x="891.61" y="52.512" width="15.316" height="2.188" fill="black"/>
<rect x="911.302" y="59.0759" width="2.188" height="17.504" fill="black"/>
<rect x="906.926" y="76.5801" width="2.188" height="3.282" fill="black"/>
<rect x="867.542" y="51.418" width="19.692" height="17.504" fill="#E09E42"/>
<rect x="852.226" y="54.7" width="13.128" height="18.598" fill="#E09E42"/>
<rect x="850.038" y="53.606" width="6.564" height="17.504" fill="#E09E42"/>
<rect x="893.798" y="54.7" width="13.128" height="17.504" fill="#E09E42"/>
<rect x="906.926" y="56.8879" width="2.188" height="17.504" fill="#C17306"/>
<rect x="909.114" y="59.0759" width="2.188" height="17.504" fill="#9C5B00"/>
<rect x="893.798" y="77.6741" width="8.752" height="2.188" fill="#2D3648"/>
<rect x="865.354" y="77.6741" width="8.752" height="2.188" fill="#2D3648"/>
<rect x="856.602" y="54.7" width="2.188" height="18.598" fill="#9C5B00"/>
<rect x="850.038" y="71.1101" width="2.188" height="6.564" fill="black"/>
<rect x="847.85" y="53.606" width="2.188" height="17.504" fill="black"/>
<rect x="852.226" y="71.1101" width="4.376" height="2.188" fill="#9C5B00"/>
<rect x="887.234" y="51.418" width="2.188" height="17.504" fill="#1C274C"/>
<rect x="889.422" y="53.606" width="2.188" height="16.41" fill="#1C274C"/>
<rect x="863.166" y="54.7" width="2.188" height="18.598" fill="#1C274C"/>
<rect x="891.61" y="54.7" width="2.188" height="16.41" fill="#1C274C"/>
<rect x="865.354" y="53.606" width="2.188" height="17.504" fill="#1C274C"/>
<rect x="873.012" y="68.9221" width="12.034" height="2.188" fill="#1C274C"/>
<rect x="874.106" y="71.1101" width="14.222" height="2.188" fill="#1C274C"/>
<rect x="909.114" y="76.5801" width="2.188" height="2.188" fill="black"/>
<rect x="909.114" y="56.8879" width="2.188" height="2.188" fill="black"/>
<rect x="906.926" y="54.7" width="2.188" height="2.188" fill="black"/>
<rect x="865.354" y="75.4861" width="8.752" height="2.188" fill="black"/>
<rect x="891.61" y="77.6741" width="2.188" height="2.188" fill="black"/>
<rect x="874.106" y="77.6741" width="2.188" height="2.188" fill="black"/>
<rect x="863.166" y="77.6741" width="2.188" height="2.188" fill="black"/>
<rect x="852.226" y="77.6741" width="2.188" height="2.188" fill="black"/>
<rect x="893.798" y="75.4861" width="8.752" height="2.188" fill="black"/>
<rect x="902.55" y="77.6741" width="2.188" height="2.188" fill="black"/>
<rect x="889.422" y="51.418" width="2.188" height="2.188" fill="black"/>
<rect x="865.354" y="51.418" width="2.188" height="2.188" fill="black"/>
<rect x="887.234" y="49.23" width="2.188" height="2.188" fill="black"/>
<rect x="854.414" y="79.8621" width="52.512" height="2.188" fill="black"/>
<rect x="856.602" y="52.512" width="8.752" height="2.188" fill="black"/>
<rect x="972.566" y="68.9221" width="56.888" height="10.94" fill="#4E9000"/>
<rect x="987.882" y="49.23" width="19.692" height="2.188" fill="black"/>
<rect x="970.378" y="51.418" width="6.564" height="2.188" fill="black"/>
<rect x="1011.95" y="52.512" width="15.316" height="2.188" fill="black"/>
<rect x="1031.64" y="59.0759" width="2.188" height="17.504" fill="black"/>
<rect x="1027.27" y="76.5801" width="2.188" height="3.282" fill="black"/>
<rect x="987.882" y="51.418" width="19.692" height="17.504" fill="#43E27E"/>
<rect x="972.566" y="54.7" width="13.128" height="18.598" fill="#43E27E"/>
<rect x="970.378" y="53.606" width="6.564" height="17.504" fill="#43E27E"/>
<rect x="1014.14" y="54.7" width="13.128" height="17.504" fill="#43E27E"/>
<rect x="1027.27" y="56.8879" width="2.188" height="17.504" fill="#538716"/>
<rect x="1029.45" y="59.0759" width="2.188" height="17.504" fill="#4E9000"/>
<rect x="1014.14" y="77.6741" width="8.752" height="2.188" fill="#2D3648"/>
<rect x="985.694" y="77.6741" width="8.752" height="2.188" fill="#2D3648"/>
<rect x="976.942" y="54.7" width="2.188" height="18.598" fill="#4E9000"/>
<rect x="970.378" y="71.1101" width="2.188" height="6.564" fill="black"/>
<rect x="968.19" y="53.606" width="2.188" height="17.504" fill="black"/>
<rect x="972.566" y="71.1101" width="4.376" height="2.188" fill="#4E9000"/>
<rect x="1007.57" y="51.418" width="2.188" height="17.504" fill="#1C274C"/>
<rect x="1009.76" y="53.606" width="2.188" height="16.41" fill="#1C274C"/>
<rect x="983.506" y="54.7" width="2.188" height="18.598" fill="#1C274C"/>
<rect x="1011.95" y="54.7" width="2.188" height="16.41" fill="#1C274C"/>
<rect x="985.694" y="53.606" width="2.188" height="17.504" fill="#1C274C"/>
<rect x="993.352" y="68.9221" width="12.034" height="2.188" fill="#1C274C"/>
<rect x="994.446" y="71.1101" width="14.222" height="2.188" fill="#1C274C"/>
<rect x="1029.45" y="76.5801" width="2.188" height="2.188" fill="black"/>
<rect x="1029.45" y="56.8879" width="2.188" height="2.188" fill="black"/>
<rect x="1027.27" y="54.7" width="2.188" height="2.188" fill="black"/>
<rect x="985.694" y="75.4861" width="8.752" height="2.188" fill="black"/>
<rect x="1011.95" y="77.6741" width="2.188" height="2.188" fill="black"/>
<rect x="994.446" y="77.6741" width="2.188" height="2.188" fill="black"/>
<rect x="983.506" y="77.6741" width="2.188" height="2.188" fill="black"/>
<rect x="972.566" y="77.6741" width="2.188" height="2.188" fill="black"/>
<rect x="1014.14" y="75.4861" width="8.752" height="2.188" fill="black"/>
<rect x="1022.89" y="77.6741" width="2.188" height="2.188" fill="black"/>
<rect x="1009.76" y="51.418" width="2.188" height="2.188" fill="black"/>
<rect x="985.694" y="51.418" width="2.188" height="2.188" fill="black"/>
<rect x="1007.57" y="49.23" width="2.188" height="2.188" fill="black"/>
<rect x="974.754" y="79.8621" width="52.512" height="2.188" fill="black"/>
<rect x="976.942" y="52.512" width="8.752" height="2.188" fill="black"/>
<path d="M917.866 518.556L937.558 516.368L944.122 522.932V538.248L937.558 544.812H922.242L917.866 542.624L915.678 540.436V520.744L917.866 518.556Z" fill="#9F6900"/>
<path d="M937.558 544.812L926.618 544.812L926.618 542.624L924.43 542.624L924.43 540.436L922.242 540.436L922.242 538.248L920.054 538.248L920.054 522.932L922.242 522.932L922.242 520.744L922.242 518.556L924.43 516.368L937.558 516.368L941.934 518.556L944.122 520.744L944.122 540.436L941.934 542.624L937.558 544.812Z" fill="#FFD600"/>
<rect x="924.43" y="514.18" width="15.316" height="2.188" fill="black"/>
<rect x="944.122" y="522.932" width="2.188" height="15.316" fill="black"/>
<rect x="913.49" y="522.932" width="2.188" height="15.316" fill="black"/>
<rect x="915.678" y="518.556" width="2.188" height="4.376" fill="black"/>
<rect x="917.866" y="516.368" width="4.376" height="2.188" fill="black"/>
<rect x="915.678" y="538.248" width="2.188" height="4.376" fill="black"/>
<rect x="922.242" y="516.368" width="2.188" height="2.188" fill="black"/>
<rect x="917.866" y="542.624" width="4.376" height="2.188" fill="black"/>
<rect x="937.558" y="516.368" width="4.376" height="2.188" fill="black"/>
<rect x="937.558" y="542.624" width="4.376" height="2.188" fill="black"/>
<rect x="941.934" y="518.556" width="2.188" height="4.376" fill="black"/>
<rect x="941.934" y="538.248" width="2.188" height="4.376" fill="black"/>
<rect x="922.242" y="544.812" width="15.316" height="2.188" fill="black"/>
<path d="M929.9 522.932H932.526H934.276V538.248H929.9V522.932Z" fill="#9F6900"/>
<path d="M1027.27 409.156L1046.96 406.968L1053.52 413.532V428.848L1046.96 435.412H1031.64L1027.27 433.224L1025.08 431.036V411.344L1027.27 409.156Z" fill="#9F6900"/>
<path d="M1046.96 435.412L1036.02 435.412L1036.02 433.224L1033.83 433.224L1033.83 431.036L1031.64 431.036L1031.64 428.848L1029.45 428.848L1029.45 413.532L1031.64 413.532L1031.64 411.344L1031.64 409.156L1033.83 406.968L1046.96 406.968L1051.33 409.156L1053.52 411.344V431.036L1051.33 433.224L1046.96 435.412Z" fill="#FFD600"/>
<rect x="1033.83" y="404.78" width="15.316" height="2.188" fill="black"/>
<rect x="1053.52" y="413.532" width="2.188" height="15.316" fill="black"/>
<rect x="1022.89" y="413.532" width="2.188" height="15.316" fill="black"/>
<rect x="1025.08" y="409.156" width="2.188" height="4.376" fill="black"/>
<rect x="1027.27" y="406.968" width="4.376" height="2.188" fill="black"/>
<rect x="1025.08" y="428.848" width="2.188" height="4.376" fill="black"/>
<rect x="1031.64" y="406.968" width="2.188" height="2.188" fill="black"/>
<rect x="1027.27" y="433.224" width="4.376" height="2.188" fill="black"/>
<rect x="1046.96" y="406.968" width="4.376" height="2.188" fill="black"/>
<rect x="1046.96" y="433.224" width="4.376" height="2.188" fill="black"/>
<rect x="1051.33" y="409.156" width="2.188" height="4.376" fill="black"/>
<rect x="1051.33" y="428.848" width="2.188" height="4.376" fill="black"/>
<rect x="1031.64" y="435.412" width="15.316" height="2.188" fill="black"/>
<path d="M1039.3 413.532H1041.93H1043.68V428.848H1039.3V413.532Z" fill="#9F6900"/>
<defs>
<clipPath id="clip0_3168_119615">
<rect width="1094" height="492.3" fill="white" transform="translate(0 120.34)"/>
</clipPath>
</defs>
</svg>
