<svg width="527" height="582" viewBox="0 0 527 582" fill="none" xmlns="http://www.w3.org/2000/svg">
<rect width="527" height="580.82" transform="translate(0 0.800049)" fill="#F5F5F5"/>
<g clip-path="url(#clip0_3168_120632)">
<rect width="200" height="450" transform="translate(96.6799 50.8)" fill="#5E5E5E"/>
<g opacity="0.5">
<path d="M96.6799 50.8H156.68V100.8H106.68V150.8H156.68V200.8H106.68V250.8H156.68V300.8H106.68V350.8H156.68V400.8H106.68V450.8H156.68V500.8H96.6799V50.8Z" fill="white"/>
<path d="M206.68 450.8H156.68V400.8H206.68V350.8H156.68V300.8H206.68V250.8H156.68V200.8H206.68V150.8H156.68V100.8H206.68V50.8H216.68V500.8H206.68V450.8Z" fill="white"/>
</g>
<rect width="1040" height="450" transform="translate(216.68 50.8)" fill="#5E5E5E"/>
<rect x="276.68" y="98.8" width="80" height="4" fill="white"/>
<rect x="276.68" y="148.8" width="80" height="4" fill="white"/>
<rect x="276.68" y="198.8" width="80" height="4" fill="white"/>
<rect x="276.68" y="248.8" width="80" height="4" fill="white"/>
<rect x="276.68" y="298.8" width="80" height="4" fill="white"/>
<rect x="276.68" y="348.8" width="80" height="4" fill="white"/>
<rect x="276.68" y="398.8" width="80" height="4" fill="white"/>
<rect x="276.68" y="448.8" width="80" height="4" fill="white"/>
</g>
<path d="M307.18 50.8V500.8" stroke="#FF55B1"/>
<path d="M304.68 50.8H310.68" stroke="#FF55B1"/>
<path d="M304.68 500.8H310.68" stroke="#FF55B1"/>
<rect x="314.68" y="265.8" width="28" height="20" rx="3.5" fill="#FF55B1"/>
<path d="M318.612 278.238V277.261L322.069 271.8H322.838V273.238H322.35L319.878 277.152V277.214H324.616V278.238H318.612ZM322.405 279.8V277.941L322.413 277.495V271.8H323.557V279.8H322.405ZM328.728 279.909C328.238 279.909 327.798 279.816 327.407 279.628C327.019 279.438 326.71 279.178 326.478 278.847C326.246 278.516 326.122 278.139 326.107 277.714H327.279C327.307 278.058 327.46 278.34 327.736 278.562C328.012 278.783 328.342 278.894 328.728 278.894C329.035 278.894 329.307 278.823 329.544 278.683C329.784 278.54 329.971 278.343 330.107 278.093C330.245 277.843 330.314 277.558 330.314 277.238C330.314 276.912 330.243 276.622 330.103 276.366C329.962 276.111 329.768 275.911 329.521 275.765C329.276 275.619 328.995 275.545 328.677 275.542C328.435 275.542 328.191 275.584 327.947 275.667C327.702 275.751 327.504 275.86 327.353 275.995L326.247 275.831L326.697 271.8H331.095V272.835H327.7L327.447 275.073H327.493C327.65 274.922 327.857 274.796 328.115 274.695C328.375 274.593 328.654 274.542 328.95 274.542C329.437 274.542 329.871 274.658 330.251 274.89C330.634 275.122 330.935 275.438 331.154 275.839C331.375 276.238 331.484 276.696 331.482 277.214C331.484 277.732 331.367 278.195 331.13 278.601C330.896 279.007 330.57 279.327 330.154 279.562C329.74 279.794 329.264 279.909 328.728 279.909ZM335.804 279.933C335.186 279.93 334.659 279.767 334.222 279.445C333.784 279.122 333.449 278.652 333.218 278.034C332.986 277.417 332.87 276.674 332.87 275.804C332.87 274.937 332.986 274.196 333.218 273.581C333.452 272.967 333.788 272.498 334.225 272.175C334.666 271.852 335.192 271.691 335.804 271.691C336.416 271.691 336.94 271.853 337.378 272.179C337.815 272.502 338.15 272.971 338.382 273.585C338.616 274.197 338.733 274.937 338.733 275.804C338.733 276.676 338.617 277.421 338.386 278.038C338.154 278.653 337.819 279.123 337.382 279.448C336.944 279.771 336.418 279.933 335.804 279.933ZM335.804 278.89C336.345 278.89 336.768 278.626 337.073 278.097C337.38 277.568 337.534 276.804 337.534 275.804C337.534 275.14 337.464 274.579 337.323 274.12C337.185 273.659 336.986 273.31 336.725 273.073C336.468 272.834 336.16 272.714 335.804 272.714C335.265 272.714 334.841 272.98 334.534 273.511C334.227 274.042 334.072 274.807 334.069 275.804C334.069 276.471 334.138 277.034 334.276 277.495C334.417 277.954 334.616 278.301 334.874 278.538C335.132 278.773 335.442 278.89 335.804 278.89Z" fill="white"/>
<path d="M52.772 58.188C52.212 57.276 51.776 56.324 51.464 55.332C51.152 54.332 50.996 53.236 50.996 52.044C50.996 50.86 51.152 49.768 51.464 48.768C51.776 47.768 52.212 46.812 52.772 45.9L53.636 46.284C53.124 47.148 52.744 48.076 52.496 49.068C52.256 50.052 52.136 51.044 52.136 52.044C52.136 53.052 52.256 54.048 52.496 55.032C52.744 56.016 53.124 56.94 53.636 57.804L52.772 58.188ZM57.6373 55.968C57.0613 55.968 56.5573 55.796 56.1253 55.452C55.6933 55.108 55.3573 54.596 55.1173 53.916C54.8853 53.228 54.7693 52.372 54.7693 51.348C54.7693 50.324 54.8853 49.476 55.1173 48.804C55.3573 48.132 55.6933 47.632 56.1253 47.304C56.5573 46.968 57.0613 46.8 57.6373 46.8C58.2133 46.8 58.7133 46.968 59.1373 47.304C59.5613 47.64 59.8893 48.144 60.1213 48.816C60.3613 49.48 60.4813 50.324 60.4813 51.348C60.4813 52.372 60.3613 53.228 60.1213 53.916C59.8893 54.596 59.5613 55.108 59.1373 55.452C58.7133 55.796 58.2133 55.968 57.6373 55.968ZM57.6373 54.864C57.9333 54.864 58.1973 54.748 58.4293 54.516C58.6613 54.284 58.8413 53.912 58.9693 53.4C59.0973 52.88 59.1613 52.196 59.1613 51.348C59.1613 50.5 59.0973 49.824 58.9693 49.32C58.8413 48.816 58.6613 48.452 58.4293 48.228C58.1973 48.004 57.9333 47.892 57.6373 47.892C57.3413 47.892 57.0773 48.004 56.8453 48.228C56.6133 48.452 56.4293 48.816 56.2933 49.32C56.1653 49.824 56.1013 50.5 56.1013 51.348C56.1013 52.196 56.1653 52.88 56.2933 53.4C56.4293 53.912 56.6133 54.284 56.8453 54.516C57.0773 54.748 57.3413 54.864 57.6373 54.864ZM61.9971 58.2L61.6851 57.42C62.1011 57.244 62.4251 57.008 62.6571 56.712C62.8891 56.424 63.0011 56.1 62.9931 55.74L62.8971 54.636L63.4731 55.548C63.3931 55.636 63.3011 55.7 63.1971 55.74C63.0931 55.772 62.9811 55.788 62.8611 55.788C62.6211 55.788 62.4051 55.712 62.2131 55.56C62.0291 55.4 61.9371 55.18 61.9371 54.9C61.9371 54.628 62.0291 54.412 62.2131 54.252C62.4051 54.092 62.6331 54.012 62.8971 54.012C63.2411 54.012 63.5051 54.144 63.6891 54.408C63.8731 54.672 63.9651 55.036 63.9651 55.5C63.9651 56.132 63.7891 56.68 63.4371 57.144C63.0931 57.616 62.6131 57.968 61.9971 58.2ZM65.6433 55.8V54.66H67.5873V48.516H66.0033V47.64C66.4193 47.568 66.7793 47.476 67.0833 47.364C67.3953 47.252 67.6793 47.116 67.9353 46.956H68.9793V54.66H70.6953V55.8H65.6433ZM72.487 55.8V54.66H74.431V48.516H72.847V47.64C73.263 47.568 73.623 47.476 73.927 47.364C74.239 47.252 74.523 47.116 74.779 46.956H75.823V54.66H77.539V55.8H72.487ZM81.7428 55.968C81.1668 55.968 80.6628 55.796 80.2308 55.452C79.7988 55.108 79.4628 54.596 79.2228 53.916C78.9908 53.228 78.8748 52.372 78.8748 51.348C78.8748 50.324 78.9908 49.476 79.2228 48.804C79.4628 48.132 79.7988 47.632 80.2308 47.304C80.6628 46.968 81.1668 46.8 81.7428 46.8C82.3188 46.8 82.8188 46.968 83.2428 47.304C83.6668 47.64 83.9948 48.144 84.2268 48.816C84.4668 49.48 84.5868 50.324 84.5868 51.348C84.5868 52.372 84.4668 53.228 84.2268 53.916C83.9948 54.596 83.6668 55.108 83.2428 55.452C82.8188 55.796 82.3188 55.968 81.7428 55.968ZM81.7428 54.864C82.0388 54.864 82.3028 54.748 82.5348 54.516C82.7668 54.284 82.9468 53.912 83.0748 53.4C83.2028 52.88 83.2668 52.196 83.2668 51.348C83.2668 50.5 83.2028 49.824 83.0748 49.32C82.9468 48.816 82.7668 48.452 82.5348 48.228C82.3028 48.004 82.0388 47.892 81.7428 47.892C81.4468 47.892 81.1828 48.004 80.9508 48.228C80.7188 48.452 80.5348 48.816 80.3988 49.32C80.2708 49.824 80.2068 50.5 80.2068 51.348C80.2068 52.196 80.2708 52.88 80.3988 53.4C80.5348 53.912 80.7188 54.284 80.9508 54.516C81.1828 54.748 81.4468 54.864 81.7428 54.864ZM86.5705 58.188L85.7065 57.804C86.2185 56.94 86.5985 56.016 86.8465 55.032C87.0945 54.048 87.2185 53.052 87.2185 52.044C87.2185 51.044 87.0945 50.052 86.8465 49.068C86.5985 48.076 86.2185 47.148 85.7065 46.284L86.5705 45.9C87.1385 46.812 87.5785 47.768 87.8905 48.768C88.2025 49.768 88.3585 50.86 88.3585 52.044C88.3585 53.236 88.2025 54.332 87.8905 55.332C87.5785 56.324 87.1385 57.276 86.5705 58.188Z" fill="#FF55B1"/>
<path d="M52.772 108.188C52.212 107.276 51.776 106.324 51.464 105.332C51.152 104.332 50.996 103.236 50.996 102.044C50.996 100.86 51.152 99.768 51.464 98.768C51.776 97.768 52.212 96.812 52.772 95.9L53.636 96.284C53.124 97.148 52.744 98.076 52.496 99.068C52.256 100.052 52.136 101.044 52.136 102.044C52.136 103.052 52.256 104.048 52.496 105.032C52.744 106.016 53.124 106.94 53.636 107.804L52.772 108.188ZM57.6373 105.968C57.0613 105.968 56.5573 105.796 56.1253 105.452C55.6933 105.108 55.3573 104.596 55.1173 103.916C54.8853 103.228 54.7693 102.372 54.7693 101.348C54.7693 100.324 54.8853 99.476 55.1173 98.804C55.3573 98.132 55.6933 97.632 56.1253 97.304C56.5573 96.968 57.0613 96.8 57.6373 96.8C58.2133 96.8 58.7133 96.968 59.1373 97.304C59.5613 97.64 59.8893 98.144 60.1213 98.816C60.3613 99.48 60.4813 100.324 60.4813 101.348C60.4813 102.372 60.3613 103.228 60.1213 103.916C59.8893 104.596 59.5613 105.108 59.1373 105.452C58.7133 105.796 58.2133 105.968 57.6373 105.968ZM57.6373 104.864C57.9333 104.864 58.1973 104.748 58.4293 104.516C58.6613 104.284 58.8413 103.912 58.9693 103.4C59.0973 102.88 59.1613 102.196 59.1613 101.348C59.1613 100.5 59.0973 99.824 58.9693 99.32C58.8413 98.816 58.6613 98.452 58.4293 98.228C58.1973 98.004 57.9333 97.892 57.6373 97.892C57.3413 97.892 57.0773 98.004 56.8453 98.228C56.6133 98.452 56.4293 98.816 56.2933 99.32C56.1653 99.824 56.1013 100.5 56.1013 101.348C56.1013 102.196 56.1653 102.88 56.2933 103.4C56.4293 103.912 56.6133 104.284 56.8453 104.516C57.0773 104.748 57.3413 104.864 57.6373 104.864ZM61.9971 108.2L61.6851 107.42C62.1011 107.244 62.4251 107.008 62.6571 106.712C62.8891 106.424 63.0011 106.1 62.9931 105.74L62.8971 104.636L63.4731 105.548C63.3931 105.636 63.3011 105.7 63.1971 105.74C63.0931 105.772 62.9811 105.788 62.8611 105.788C62.6211 105.788 62.4051 105.712 62.2131 105.56C62.0291 105.4 61.9371 105.18 61.9371 104.9C61.9371 104.628 62.0291 104.412 62.2131 104.252C62.4051 104.092 62.6331 104.012 62.8971 104.012C63.2411 104.012 63.5051 104.144 63.6891 104.408C63.8731 104.672 63.9651 105.036 63.9651 105.5C63.9651 106.132 63.7891 106.68 63.4371 107.144C63.0931 107.616 62.6131 107.968 61.9971 108.2ZM65.6433 105.8V104.66H67.5873V98.516H66.0033V97.64C66.4193 97.568 66.7793 97.476 67.0833 97.364C67.3953 97.252 67.6793 97.116 67.9353 96.956H68.9793V104.66H70.6953V105.8H65.6433ZM75.163 105.968C74.739 105.968 74.343 105.88 73.975 105.704C73.607 105.52 73.283 105.248 73.003 104.888C72.723 104.52 72.503 104.06 72.343 103.508C72.183 102.956 72.103 102.304 72.103 101.552C72.103 100.704 72.195 99.98 72.379 99.38C72.563 98.772 72.811 98.28 73.123 97.904C73.435 97.528 73.791 97.252 74.191 97.076C74.591 96.892 75.007 96.8 75.439 96.8C75.935 96.8 76.363 96.892 76.723 97.076C77.091 97.26 77.399 97.484 77.647 97.748L76.891 98.588C76.731 98.396 76.527 98.24 76.279 98.12C76.031 97.992 75.775 97.928 75.511 97.928C75.127 97.928 74.771 98.044 74.443 98.276C74.123 98.5 73.867 98.876 73.675 99.404C73.483 99.932 73.387 100.648 73.387 101.552C73.387 102.312 73.459 102.94 73.603 103.436C73.747 103.924 73.951 104.292 74.215 104.54C74.479 104.78 74.787 104.9 75.139 104.9C75.403 104.9 75.635 104.824 75.835 104.672C76.043 104.52 76.207 104.308 76.327 104.036C76.447 103.756 76.507 103.428 76.507 103.052C76.507 102.676 76.451 102.356 76.339 102.092C76.227 101.828 76.063 101.628 75.847 101.492C75.639 101.356 75.379 101.288 75.067 101.288C74.803 101.288 74.519 101.372 74.215 101.54C73.919 101.708 73.635 101.996 73.363 102.404L73.315 101.396C73.483 101.156 73.679 100.956 73.903 100.796C74.127 100.628 74.359 100.5 74.599 100.412C74.847 100.324 75.083 100.28 75.307 100.28C75.803 100.28 76.235 100.384 76.603 100.592C76.979 100.792 77.271 101.096 77.479 101.504C77.695 101.912 77.803 102.428 77.803 103.052C77.803 103.636 77.679 104.148 77.431 104.588C77.191 105.02 76.871 105.36 76.471 105.608C76.079 105.848 75.643 105.968 75.163 105.968ZM81.7428 105.968C81.1668 105.968 80.6628 105.796 80.2308 105.452C79.7988 105.108 79.4628 104.596 79.2228 103.916C78.9908 103.228 78.8748 102.372 78.8748 101.348C78.8748 100.324 78.9908 99.476 79.2228 98.804C79.4628 98.132 79.7988 97.632 80.2308 97.304C80.6628 96.968 81.1668 96.8 81.7428 96.8C82.3188 96.8 82.8188 96.968 83.2428 97.304C83.6668 97.64 83.9948 98.144 84.2268 98.816C84.4668 99.48 84.5868 100.324 84.5868 101.348C84.5868 102.372 84.4668 103.228 84.2268 103.916C83.9948 104.596 83.6668 105.108 83.2428 105.452C82.8188 105.796 82.3188 105.968 81.7428 105.968ZM81.7428 104.864C82.0388 104.864 82.3028 104.748 82.5348 104.516C82.7668 104.284 82.9468 103.912 83.0748 103.4C83.2028 102.88 83.2668 102.196 83.2668 101.348C83.2668 100.5 83.2028 99.824 83.0748 99.32C82.9468 98.816 82.7668 98.452 82.5348 98.228C82.3028 98.004 82.0388 97.892 81.7428 97.892C81.4468 97.892 81.1828 98.004 80.9508 98.228C80.7188 98.452 80.5348 98.816 80.3988 99.32C80.2708 99.824 80.2068 100.5 80.2068 101.348C80.2068 102.196 80.2708 102.88 80.3988 103.4C80.5348 103.912 80.7188 104.284 80.9508 104.516C81.1828 104.748 81.4468 104.864 81.7428 104.864ZM86.5705 108.188L85.7065 107.804C86.2185 106.94 86.5985 106.016 86.8465 105.032C87.0945 104.048 87.2185 103.052 87.2185 102.044C87.2185 101.044 87.0945 100.052 86.8465 99.068C86.5985 98.076 86.2185 97.148 85.7065 96.284L86.5705 95.9C87.1385 96.812 87.5785 97.768 87.8905 98.768C88.2025 99.768 88.3585 100.86 88.3585 102.044C88.3585 103.236 88.2025 104.332 87.8905 105.332C87.5785 106.324 87.1385 107.276 86.5705 108.188Z" fill="#FF55B1"/>
<path d="M52.772 158.188C52.212 157.276 51.776 156.324 51.464 155.332C51.152 154.332 50.996 153.236 50.996 152.044C50.996 150.86 51.152 149.768 51.464 148.768C51.776 147.768 52.212 146.812 52.772 145.9L53.636 146.284C53.124 147.148 52.744 148.076 52.496 149.068C52.256 150.052 52.136 151.044 52.136 152.044C52.136 153.052 52.256 154.048 52.496 155.032C52.744 156.016 53.124 156.94 53.636 157.804L52.772 158.188ZM57.6373 155.968C57.0613 155.968 56.5573 155.796 56.1253 155.452C55.6933 155.108 55.3573 154.596 55.1173 153.916C54.8853 153.228 54.7693 152.372 54.7693 151.348C54.7693 150.324 54.8853 149.476 55.1173 148.804C55.3573 148.132 55.6933 147.632 56.1253 147.304C56.5573 146.968 57.0613 146.8 57.6373 146.8C58.2133 146.8 58.7133 146.968 59.1373 147.304C59.5613 147.64 59.8893 148.144 60.1213 148.816C60.3613 149.48 60.4813 150.324 60.4813 151.348C60.4813 152.372 60.3613 153.228 60.1213 153.916C59.8893 154.596 59.5613 155.108 59.1373 155.452C58.7133 155.796 58.2133 155.968 57.6373 155.968ZM57.6373 154.864C57.9333 154.864 58.1973 154.748 58.4293 154.516C58.6613 154.284 58.8413 153.912 58.9693 153.4C59.0973 152.88 59.1613 152.196 59.1613 151.348C59.1613 150.5 59.0973 149.824 58.9693 149.32C58.8413 148.816 58.6613 148.452 58.4293 148.228C58.1973 148.004 57.9333 147.892 57.6373 147.892C57.3413 147.892 57.0773 148.004 56.8453 148.228C56.6133 148.452 56.4293 148.816 56.2933 149.32C56.1653 149.824 56.1013 150.5 56.1013 151.348C56.1013 152.196 56.1653 152.88 56.2933 153.4C56.4293 153.912 56.6133 154.284 56.8453 154.516C57.0773 154.748 57.3413 154.864 57.6373 154.864ZM61.9971 158.2L61.6851 157.42C62.1011 157.244 62.4251 157.008 62.6571 156.712C62.8891 156.424 63.0011 156.1 62.9931 155.74L62.8971 154.636L63.4731 155.548C63.3931 155.636 63.3011 155.7 63.1971 155.74C63.0931 155.772 62.9811 155.788 62.8611 155.788C62.6211 155.788 62.4051 155.712 62.2131 155.56C62.0291 155.4 61.9371 155.18 61.9371 154.9C61.9371 154.628 62.0291 154.412 62.2131 154.252C62.4051 154.092 62.6331 154.012 62.8971 154.012C63.2411 154.012 63.5051 154.144 63.6891 154.408C63.8731 154.672 63.9651 155.036 63.9651 155.5C63.9651 156.132 63.7891 156.68 63.4371 157.144C63.0931 157.616 62.6131 157.968 61.9971 158.2ZM65.1513 155.8V154.996C66.0233 154.22 66.7513 153.512 67.3353 152.872C67.9193 152.224 68.3553 151.624 68.6433 151.072C68.9393 150.52 69.0873 150.004 69.0873 149.524C69.0873 149.204 69.0313 148.924 68.9193 148.684C68.8153 148.436 68.6513 148.248 68.4273 148.12C68.2113 147.984 67.9353 147.916 67.5993 147.916C67.2553 147.916 66.9393 148.012 66.6513 148.204C66.3633 148.388 66.0993 148.616 65.8593 148.888L65.0793 148.12C65.4553 147.704 65.8513 147.38 66.2673 147.148C66.6913 146.916 67.1953 146.8 67.7793 146.8C68.3153 146.8 68.7833 146.912 69.1833 147.136C69.5833 147.352 69.8913 147.66 70.1073 148.06C70.3313 148.452 70.4433 148.916 70.4433 149.452C70.4433 150.02 70.3033 150.596 70.0233 151.18C69.7433 151.756 69.3593 152.34 68.8713 152.932C68.3833 153.516 67.8273 154.108 67.2033 154.708C67.4353 154.684 67.6793 154.664 67.9353 154.648C68.1993 154.624 68.4353 154.612 68.6433 154.612H70.8633V155.8H65.1513ZM72.487 155.8V154.66H74.431V148.516H72.847V147.64C73.263 147.568 73.623 147.476 73.927 147.364C74.239 147.252 74.523 147.116 74.779 146.956H75.823V154.66H77.539V155.8H72.487ZM81.7428 155.968C81.1668 155.968 80.6628 155.796 80.2308 155.452C79.7988 155.108 79.4628 154.596 79.2228 153.916C78.9908 153.228 78.8748 152.372 78.8748 151.348C78.8748 150.324 78.9908 149.476 79.2228 148.804C79.4628 148.132 79.7988 147.632 80.2308 147.304C80.6628 146.968 81.1668 146.8 81.7428 146.8C82.3188 146.8 82.8188 146.968 83.2428 147.304C83.6668 147.64 83.9948 148.144 84.2268 148.816C84.4668 149.48 84.5868 150.324 84.5868 151.348C84.5868 152.372 84.4668 153.228 84.2268 153.916C83.9948 154.596 83.6668 155.108 83.2428 155.452C82.8188 155.796 82.3188 155.968 81.7428 155.968ZM81.7428 154.864C82.0388 154.864 82.3028 154.748 82.5348 154.516C82.7668 154.284 82.9468 153.912 83.0748 153.4C83.2028 152.88 83.2668 152.196 83.2668 151.348C83.2668 150.5 83.2028 149.824 83.0748 149.32C82.9468 148.816 82.7668 148.452 82.5348 148.228C82.3028 148.004 82.0388 147.892 81.7428 147.892C81.4468 147.892 81.1828 148.004 80.9508 148.228C80.7188 148.452 80.5348 148.816 80.3988 149.32C80.2708 149.824 80.2068 150.5 80.2068 151.348C80.2068 152.196 80.2708 152.88 80.3988 153.4C80.5348 153.912 80.7188 154.284 80.9508 154.516C81.1828 154.748 81.4468 154.864 81.7428 154.864ZM86.5705 158.188L85.7065 157.804C86.2185 156.94 86.5985 156.016 86.8465 155.032C87.0945 154.048 87.2185 153.052 87.2185 152.044C87.2185 151.044 87.0945 150.052 86.8465 149.068C86.5985 148.076 86.2185 147.148 85.7065 146.284L86.5705 145.9C87.1385 146.812 87.5785 147.768 87.8905 148.768C88.2025 149.768 88.3585 150.86 88.3585 152.044C88.3585 153.236 88.2025 154.332 87.8905 155.332C87.5785 156.324 87.1385 157.276 86.5705 158.188Z" fill="#FF55B1"/>
<path d="M52.772 208.188C52.212 207.276 51.776 206.324 51.464 205.332C51.152 204.332 50.996 203.236 50.996 202.044C50.996 200.86 51.152 199.768 51.464 198.768C51.776 197.768 52.212 196.812 52.772 195.9L53.636 196.284C53.124 197.148 52.744 198.076 52.496 199.068C52.256 200.052 52.136 201.044 52.136 202.044C52.136 203.052 52.256 204.048 52.496 205.032C52.744 206.016 53.124 206.94 53.636 207.804L52.772 208.188ZM57.6373 205.968C57.0613 205.968 56.5573 205.796 56.1253 205.452C55.6933 205.108 55.3573 204.596 55.1173 203.916C54.8853 203.228 54.7693 202.372 54.7693 201.348C54.7693 200.324 54.8853 199.476 55.1173 198.804C55.3573 198.132 55.6933 197.632 56.1253 197.304C56.5573 196.968 57.0613 196.8 57.6373 196.8C58.2133 196.8 58.7133 196.968 59.1373 197.304C59.5613 197.64 59.8893 198.144 60.1213 198.816C60.3613 199.48 60.4813 200.324 60.4813 201.348C60.4813 202.372 60.3613 203.228 60.1213 203.916C59.8893 204.596 59.5613 205.108 59.1373 205.452C58.7133 205.796 58.2133 205.968 57.6373 205.968ZM57.6373 204.864C57.9333 204.864 58.1973 204.748 58.4293 204.516C58.6613 204.284 58.8413 203.912 58.9693 203.4C59.0973 202.88 59.1613 202.196 59.1613 201.348C59.1613 200.5 59.0973 199.824 58.9693 199.32C58.8413 198.816 58.6613 198.452 58.4293 198.228C58.1973 198.004 57.9333 197.892 57.6373 197.892C57.3413 197.892 57.0773 198.004 56.8453 198.228C56.6133 198.452 56.4293 198.816 56.2933 199.32C56.1653 199.824 56.1013 200.5 56.1013 201.348C56.1013 202.196 56.1653 202.88 56.2933 203.4C56.4293 203.912 56.6133 204.284 56.8453 204.516C57.0773 204.748 57.3413 204.864 57.6373 204.864ZM61.9971 208.2L61.6851 207.42C62.1011 207.244 62.4251 207.008 62.6571 206.712C62.8891 206.424 63.0011 206.1 62.9931 205.74L62.8971 204.636L63.4731 205.548C63.3931 205.636 63.3011 205.7 63.1971 205.74C63.0931 205.772 62.9811 205.788 62.8611 205.788C62.6211 205.788 62.4051 205.712 62.2131 205.56C62.0291 205.4 61.9371 205.18 61.9371 204.9C61.9371 204.628 62.0291 204.412 62.2131 204.252C62.4051 204.092 62.6331 204.012 62.8971 204.012C63.2411 204.012 63.5051 204.144 63.6891 204.408C63.8731 204.672 63.9651 205.036 63.9651 205.5C63.9651 206.132 63.7891 206.68 63.4371 207.144C63.0931 207.616 62.6131 207.968 61.9971 208.2ZM65.1513 205.8V204.996C66.0233 204.22 66.7513 203.512 67.3353 202.872C67.9193 202.224 68.3553 201.624 68.6433 201.072C68.9393 200.52 69.0873 200.004 69.0873 199.524C69.0873 199.204 69.0313 198.924 68.9193 198.684C68.8153 198.436 68.6513 198.248 68.4273 198.12C68.2113 197.984 67.9353 197.916 67.5993 197.916C67.2553 197.916 66.9393 198.012 66.6513 198.204C66.3633 198.388 66.0993 198.616 65.8593 198.888L65.0793 198.12C65.4553 197.704 65.8513 197.38 66.2673 197.148C66.6913 196.916 67.1953 196.8 67.7793 196.8C68.3153 196.8 68.7833 196.912 69.1833 197.136C69.5833 197.352 69.8913 197.66 70.1073 198.06C70.3313 198.452 70.4433 198.916 70.4433 199.452C70.4433 200.02 70.3033 200.596 70.0233 201.18C69.7433 201.756 69.3593 202.34 68.8713 202.932C68.3833 203.516 67.8273 204.108 67.2033 204.708C67.4353 204.684 67.6793 204.664 67.9353 204.648C68.1993 204.624 68.4353 204.612 68.6433 204.612H70.8633V205.8H65.1513ZM75.163 205.968C74.739 205.968 74.343 205.88 73.975 205.704C73.607 205.52 73.283 205.248 73.003 204.888C72.723 204.52 72.503 204.06 72.343 203.508C72.183 202.956 72.103 202.304 72.103 201.552C72.103 200.704 72.195 199.98 72.379 199.38C72.563 198.772 72.811 198.28 73.123 197.904C73.435 197.528 73.791 197.252 74.191 197.076C74.591 196.892 75.007 196.8 75.439 196.8C75.935 196.8 76.363 196.892 76.723 197.076C77.091 197.26 77.399 197.484 77.647 197.748L76.891 198.588C76.731 198.396 76.527 198.24 76.279 198.12C76.031 197.992 75.775 197.928 75.511 197.928C75.127 197.928 74.771 198.044 74.443 198.276C74.123 198.5 73.867 198.876 73.675 199.404C73.483 199.932 73.387 200.648 73.387 201.552C73.387 202.312 73.459 202.94 73.603 203.436C73.747 203.924 73.951 204.292 74.215 204.54C74.479 204.78 74.787 204.9 75.139 204.9C75.403 204.9 75.635 204.824 75.835 204.672C76.043 204.52 76.207 204.308 76.327 204.036C76.447 203.756 76.507 203.428 76.507 203.052C76.507 202.676 76.451 202.356 76.339 202.092C76.227 201.828 76.063 201.628 75.847 201.492C75.639 201.356 75.379 201.288 75.067 201.288C74.803 201.288 74.519 201.372 74.215 201.54C73.919 201.708 73.635 201.996 73.363 202.404L73.315 201.396C73.483 201.156 73.679 200.956 73.903 200.796C74.127 200.628 74.359 200.5 74.599 200.412C74.847 200.324 75.083 200.28 75.307 200.28C75.803 200.28 76.235 200.384 76.603 200.592C76.979 200.792 77.271 201.096 77.479 201.504C77.695 201.912 77.803 202.428 77.803 203.052C77.803 203.636 77.679 204.148 77.431 204.588C77.191 205.02 76.871 205.36 76.471 205.608C76.079 205.848 75.643 205.968 75.163 205.968ZM81.7428 205.968C81.1668 205.968 80.6628 205.796 80.2308 205.452C79.7988 205.108 79.4628 204.596 79.2228 203.916C78.9908 203.228 78.8748 202.372 78.8748 201.348C78.8748 200.324 78.9908 199.476 79.2228 198.804C79.4628 198.132 79.7988 197.632 80.2308 197.304C80.6628 196.968 81.1668 196.8 81.7428 196.8C82.3188 196.8 82.8188 196.968 83.2428 197.304C83.6668 197.64 83.9948 198.144 84.2268 198.816C84.4668 199.48 84.5868 200.324 84.5868 201.348C84.5868 202.372 84.4668 203.228 84.2268 203.916C83.9948 204.596 83.6668 205.108 83.2428 205.452C82.8188 205.796 82.3188 205.968 81.7428 205.968ZM81.7428 204.864C82.0388 204.864 82.3028 204.748 82.5348 204.516C82.7668 204.284 82.9468 203.912 83.0748 203.4C83.2028 202.88 83.2668 202.196 83.2668 201.348C83.2668 200.5 83.2028 199.824 83.0748 199.32C82.9468 198.816 82.7668 198.452 82.5348 198.228C82.3028 198.004 82.0388 197.892 81.7428 197.892C81.4468 197.892 81.1828 198.004 80.9508 198.228C80.7188 198.452 80.5348 198.816 80.3988 199.32C80.2708 199.824 80.2068 200.5 80.2068 201.348C80.2068 202.196 80.2708 202.88 80.3988 203.4C80.5348 203.912 80.7188 204.284 80.9508 204.516C81.1828 204.748 81.4468 204.864 81.7428 204.864ZM86.5705 208.188L85.7065 207.804C86.2185 206.94 86.5985 206.016 86.8465 205.032C87.0945 204.048 87.2185 203.052 87.2185 202.044C87.2185 201.044 87.0945 200.052 86.8465 199.068C86.5985 198.076 86.2185 197.148 85.7065 196.284L86.5705 195.9C87.1385 196.812 87.5785 197.768 87.8905 198.768C88.2025 199.768 88.3585 200.86 88.3585 202.044C88.3585 203.236 88.2025 204.332 87.8905 205.332C87.5785 206.324 87.1385 207.276 86.5705 208.188Z" fill="#FF55B1"/>
<path d="M52.772 258.188C52.212 257.276 51.776 256.324 51.464 255.332C51.152 254.332 50.996 253.236 50.996 252.044C50.996 250.86 51.152 249.768 51.464 248.768C51.776 247.768 52.212 246.812 52.772 245.9L53.636 246.284C53.124 247.148 52.744 248.076 52.496 249.068C52.256 250.052 52.136 251.044 52.136 252.044C52.136 253.052 52.256 254.048 52.496 255.032C52.744 256.016 53.124 256.94 53.636 257.804L52.772 258.188ZM57.6373 255.968C57.0613 255.968 56.5573 255.796 56.1253 255.452C55.6933 255.108 55.3573 254.596 55.1173 253.916C54.8853 253.228 54.7693 252.372 54.7693 251.348C54.7693 250.324 54.8853 249.476 55.1173 248.804C55.3573 248.132 55.6933 247.632 56.1253 247.304C56.5573 246.968 57.0613 246.8 57.6373 246.8C58.2133 246.8 58.7133 246.968 59.1373 247.304C59.5613 247.64 59.8893 248.144 60.1213 248.816C60.3613 249.48 60.4813 250.324 60.4813 251.348C60.4813 252.372 60.3613 253.228 60.1213 253.916C59.8893 254.596 59.5613 255.108 59.1373 255.452C58.7133 255.796 58.2133 255.968 57.6373 255.968ZM57.6373 254.864C57.9333 254.864 58.1973 254.748 58.4293 254.516C58.6613 254.284 58.8413 253.912 58.9693 253.4C59.0973 252.88 59.1613 252.196 59.1613 251.348C59.1613 250.5 59.0973 249.824 58.9693 249.32C58.8413 248.816 58.6613 248.452 58.4293 248.228C58.1973 248.004 57.9333 247.892 57.6373 247.892C57.3413 247.892 57.0773 248.004 56.8453 248.228C56.6133 248.452 56.4293 248.816 56.2933 249.32C56.1653 249.824 56.1013 250.5 56.1013 251.348C56.1013 252.196 56.1653 252.88 56.2933 253.4C56.4293 253.912 56.6133 254.284 56.8453 254.516C57.0773 254.748 57.3413 254.864 57.6373 254.864ZM61.9971 258.2L61.6851 257.42C62.1011 257.244 62.4251 257.008 62.6571 256.712C62.8891 256.424 63.0011 256.1 62.9931 255.74L62.8971 254.636L63.4731 255.548C63.3931 255.636 63.3011 255.7 63.1971 255.74C63.0931 255.772 62.9811 255.788 62.8611 255.788C62.6211 255.788 62.4051 255.712 62.2131 255.56C62.0291 255.4 61.9371 255.18 61.9371 254.9C61.9371 254.628 62.0291 254.412 62.2131 254.252C62.4051 254.092 62.6331 254.012 62.8971 254.012C63.2411 254.012 63.5051 254.144 63.6891 254.408C63.8731 254.672 63.9651 255.036 63.9651 255.5C63.9651 256.132 63.7891 256.68 63.4371 257.144C63.0931 257.616 62.6131 257.968 61.9971 258.2ZM67.8393 255.968C67.3753 255.968 66.9633 255.912 66.6033 255.8C66.2513 255.688 65.9393 255.54 65.6673 255.356C65.3953 255.164 65.1593 254.96 64.9593 254.744L65.6313 253.856C65.8953 254.112 66.1953 254.336 66.5313 254.528C66.8673 254.72 67.2633 254.816 67.7193 254.816C68.0553 254.816 68.3473 254.76 68.5953 254.648C68.8433 254.528 69.0353 254.36 69.1713 254.144C69.3153 253.928 69.3873 253.664 69.3873 253.352C69.3873 253.032 69.3073 252.752 69.1473 252.512C68.9953 252.264 68.7273 252.076 68.3433 251.948C67.9673 251.812 67.4473 251.744 66.7833 251.744V250.712C67.3673 250.712 67.8233 250.648 68.1513 250.52C68.4873 250.384 68.7273 250.2 68.8713 249.968C69.0233 249.736 69.0993 249.472 69.0993 249.176C69.0993 248.792 68.9793 248.488 68.7393 248.264C68.4993 248.032 68.1673 247.916 67.7433 247.916C67.4073 247.916 67.0913 247.992 66.7953 248.144C66.5073 248.288 66.2353 248.484 65.9793 248.732L65.2593 247.868C65.6113 247.548 65.9953 247.292 66.4113 247.1C66.8273 246.9 67.2873 246.8 67.7913 246.8C68.3193 246.8 68.7873 246.892 69.1953 247.076C69.6033 247.252 69.9233 247.508 70.1553 247.844C70.3873 248.18 70.5033 248.592 70.5033 249.08C70.5033 249.584 70.3633 250.012 70.0833 250.364C69.8113 250.716 69.4433 250.98 68.9793 251.156V251.204C69.3153 251.292 69.6193 251.436 69.8913 251.636C70.1713 251.828 70.3913 252.076 70.5513 252.38C70.7113 252.684 70.7913 253.032 70.7913 253.424C70.7913 253.952 70.6553 254.408 70.3833 254.792C70.1193 255.168 69.7633 255.46 69.3153 255.668C68.8673 255.868 68.3753 255.968 67.8393 255.968ZM72.487 255.8V254.66H74.431V248.516H72.847V247.64C73.263 247.568 73.623 247.476 73.927 247.364C74.239 247.252 74.523 247.116 74.779 246.956H75.823V254.66H77.539V255.8H72.487ZM81.7428 255.968C81.1668 255.968 80.6628 255.796 80.2308 255.452C79.7988 255.108 79.4628 254.596 79.2228 253.916C78.9908 253.228 78.8748 252.372 78.8748 251.348C78.8748 250.324 78.9908 249.476 79.2228 248.804C79.4628 248.132 79.7988 247.632 80.2308 247.304C80.6628 246.968 81.1668 246.8 81.7428 246.8C82.3188 246.8 82.8188 246.968 83.2428 247.304C83.6668 247.64 83.9948 248.144 84.2268 248.816C84.4668 249.48 84.5868 250.324 84.5868 251.348C84.5868 252.372 84.4668 253.228 84.2268 253.916C83.9948 254.596 83.6668 255.108 83.2428 255.452C82.8188 255.796 82.3188 255.968 81.7428 255.968ZM81.7428 254.864C82.0388 254.864 82.3028 254.748 82.5348 254.516C82.7668 254.284 82.9468 253.912 83.0748 253.4C83.2028 252.88 83.2668 252.196 83.2668 251.348C83.2668 250.5 83.2028 249.824 83.0748 249.32C82.9468 248.816 82.7668 248.452 82.5348 248.228C82.3028 248.004 82.0388 247.892 81.7428 247.892C81.4468 247.892 81.1828 248.004 80.9508 248.228C80.7188 248.452 80.5348 248.816 80.3988 249.32C80.2708 249.824 80.2068 250.5 80.2068 251.348C80.2068 252.196 80.2708 252.88 80.3988 253.4C80.5348 253.912 80.7188 254.284 80.9508 254.516C81.1828 254.748 81.4468 254.864 81.7428 254.864ZM86.5705 258.188L85.7065 257.804C86.2185 256.94 86.5985 256.016 86.8465 255.032C87.0945 254.048 87.2185 253.052 87.2185 252.044C87.2185 251.044 87.0945 250.052 86.8465 249.068C86.5985 248.076 86.2185 247.148 85.7065 246.284L86.5705 245.9C87.1385 246.812 87.5785 247.768 87.8905 248.768C88.2025 249.768 88.3585 250.86 88.3585 252.044C88.3585 253.236 88.2025 254.332 87.8905 255.332C87.5785 256.324 87.1385 257.276 86.5705 258.188Z" fill="#FF55B1"/>
<path d="M52.772 308.188C52.212 307.276 51.776 306.324 51.464 305.332C51.152 304.332 50.996 303.236 50.996 302.044C50.996 300.86 51.152 299.768 51.464 298.768C51.776 297.768 52.212 296.812 52.772 295.9L53.636 296.284C53.124 297.148 52.744 298.076 52.496 299.068C52.256 300.052 52.136 301.044 52.136 302.044C52.136 303.052 52.256 304.048 52.496 305.032C52.744 306.016 53.124 306.94 53.636 307.804L52.772 308.188ZM57.6373 305.968C57.0613 305.968 56.5573 305.796 56.1253 305.452C55.6933 305.108 55.3573 304.596 55.1173 303.916C54.8853 303.228 54.7693 302.372 54.7693 301.348C54.7693 300.324 54.8853 299.476 55.1173 298.804C55.3573 298.132 55.6933 297.632 56.1253 297.304C56.5573 296.968 57.0613 296.8 57.6373 296.8C58.2133 296.8 58.7133 296.968 59.1373 297.304C59.5613 297.64 59.8893 298.144 60.1213 298.816C60.3613 299.48 60.4813 300.324 60.4813 301.348C60.4813 302.372 60.3613 303.228 60.1213 303.916C59.8893 304.596 59.5613 305.108 59.1373 305.452C58.7133 305.796 58.2133 305.968 57.6373 305.968ZM57.6373 304.864C57.9333 304.864 58.1973 304.748 58.4293 304.516C58.6613 304.284 58.8413 303.912 58.9693 303.4C59.0973 302.88 59.1613 302.196 59.1613 301.348C59.1613 300.5 59.0973 299.824 58.9693 299.32C58.8413 298.816 58.6613 298.452 58.4293 298.228C58.1973 298.004 57.9333 297.892 57.6373 297.892C57.3413 297.892 57.0773 298.004 56.8453 298.228C56.6133 298.452 56.4293 298.816 56.2933 299.32C56.1653 299.824 56.1013 300.5 56.1013 301.348C56.1013 302.196 56.1653 302.88 56.2933 303.4C56.4293 303.912 56.6133 304.284 56.8453 304.516C57.0773 304.748 57.3413 304.864 57.6373 304.864ZM61.9971 308.2L61.6851 307.42C62.1011 307.244 62.4251 307.008 62.6571 306.712C62.8891 306.424 63.0011 306.1 62.9931 305.74L62.8971 304.636L63.4731 305.548C63.3931 305.636 63.3011 305.7 63.1971 305.74C63.0931 305.772 62.9811 305.788 62.8611 305.788C62.6211 305.788 62.4051 305.712 62.2131 305.56C62.0291 305.4 61.9371 305.18 61.9371 304.9C61.9371 304.628 62.0291 304.412 62.2131 304.252C62.4051 304.092 62.6331 304.012 62.8971 304.012C63.2411 304.012 63.5051 304.144 63.6891 304.408C63.8731 304.672 63.9651 305.036 63.9651 305.5C63.9651 306.132 63.7891 306.68 63.4371 307.144C63.0931 307.616 62.6131 307.968 61.9971 308.2ZM67.8393 305.968C67.3753 305.968 66.9633 305.912 66.6033 305.8C66.2513 305.688 65.9393 305.54 65.6673 305.356C65.3953 305.164 65.1593 304.96 64.9593 304.744L65.6313 303.856C65.8953 304.112 66.1953 304.336 66.5313 304.528C66.8673 304.72 67.2633 304.816 67.7193 304.816C68.0553 304.816 68.3473 304.76 68.5953 304.648C68.8433 304.528 69.0353 304.36 69.1713 304.144C69.3153 303.928 69.3873 303.664 69.3873 303.352C69.3873 303.032 69.3073 302.752 69.1473 302.512C68.9953 302.264 68.7273 302.076 68.3433 301.948C67.9673 301.812 67.4473 301.744 66.7833 301.744V300.712C67.3673 300.712 67.8233 300.648 68.1513 300.52C68.4873 300.384 68.7273 300.2 68.8713 299.968C69.0233 299.736 69.0993 299.472 69.0993 299.176C69.0993 298.792 68.9793 298.488 68.7393 298.264C68.4993 298.032 68.1673 297.916 67.7433 297.916C67.4073 297.916 67.0913 297.992 66.7953 298.144C66.5073 298.288 66.2353 298.484 65.9793 298.732L65.2593 297.868C65.6113 297.548 65.9953 297.292 66.4113 297.1C66.8273 296.9 67.2873 296.8 67.7913 296.8C68.3193 296.8 68.7873 296.892 69.1953 297.076C69.6033 297.252 69.9233 297.508 70.1553 297.844C70.3873 298.18 70.5033 298.592 70.5033 299.08C70.5033 299.584 70.3633 300.012 70.0833 300.364C69.8113 300.716 69.4433 300.98 68.9793 301.156V301.204C69.3153 301.292 69.6193 301.436 69.8913 301.636C70.1713 301.828 70.3913 302.076 70.5513 302.38C70.7113 302.684 70.7913 303.032 70.7913 303.424C70.7913 303.952 70.6553 304.408 70.3833 304.792C70.1193 305.168 69.7633 305.46 69.3153 305.668C68.8673 305.868 68.3753 305.968 67.8393 305.968ZM75.163 305.968C74.739 305.968 74.343 305.88 73.975 305.704C73.607 305.52 73.283 305.248 73.003 304.888C72.723 304.52 72.503 304.06 72.343 303.508C72.183 302.956 72.103 302.304 72.103 301.552C72.103 300.704 72.195 299.98 72.379 299.38C72.563 298.772 72.811 298.28 73.123 297.904C73.435 297.528 73.791 297.252 74.191 297.076C74.591 296.892 75.007 296.8 75.439 296.8C75.935 296.8 76.363 296.892 76.723 297.076C77.091 297.26 77.399 297.484 77.647 297.748L76.891 298.588C76.731 298.396 76.527 298.24 76.279 298.12C76.031 297.992 75.775 297.928 75.511 297.928C75.127 297.928 74.771 298.044 74.443 298.276C74.123 298.5 73.867 298.876 73.675 299.404C73.483 299.932 73.387 300.648 73.387 301.552C73.387 302.312 73.459 302.94 73.603 303.436C73.747 303.924 73.951 304.292 74.215 304.54C74.479 304.78 74.787 304.9 75.139 304.9C75.403 304.9 75.635 304.824 75.835 304.672C76.043 304.52 76.207 304.308 76.327 304.036C76.447 303.756 76.507 303.428 76.507 303.052C76.507 302.676 76.451 302.356 76.339 302.092C76.227 301.828 76.063 301.628 75.847 301.492C75.639 301.356 75.379 301.288 75.067 301.288C74.803 301.288 74.519 301.372 74.215 301.54C73.919 301.708 73.635 301.996 73.363 302.404L73.315 301.396C73.483 301.156 73.679 300.956 73.903 300.796C74.127 300.628 74.359 300.5 74.599 300.412C74.847 300.324 75.083 300.28 75.307 300.28C75.803 300.28 76.235 300.384 76.603 300.592C76.979 300.792 77.271 301.096 77.479 301.504C77.695 301.912 77.803 302.428 77.803 303.052C77.803 303.636 77.679 304.148 77.431 304.588C77.191 305.02 76.871 305.36 76.471 305.608C76.079 305.848 75.643 305.968 75.163 305.968ZM81.7428 305.968C81.1668 305.968 80.6628 305.796 80.2308 305.452C79.7988 305.108 79.4628 304.596 79.2228 303.916C78.9908 303.228 78.8748 302.372 78.8748 301.348C78.8748 300.324 78.9908 299.476 79.2228 298.804C79.4628 298.132 79.7988 297.632 80.2308 297.304C80.6628 296.968 81.1668 296.8 81.7428 296.8C82.3188 296.8 82.8188 296.968 83.2428 297.304C83.6668 297.64 83.9948 298.144 84.2268 298.816C84.4668 299.48 84.5868 300.324 84.5868 301.348C84.5868 302.372 84.4668 303.228 84.2268 303.916C83.9948 304.596 83.6668 305.108 83.2428 305.452C82.8188 305.796 82.3188 305.968 81.7428 305.968ZM81.7428 304.864C82.0388 304.864 82.3028 304.748 82.5348 304.516C82.7668 304.284 82.9468 303.912 83.0748 303.4C83.2028 302.88 83.2668 302.196 83.2668 301.348C83.2668 300.5 83.2028 299.824 83.0748 299.32C82.9468 298.816 82.7668 298.452 82.5348 298.228C82.3028 298.004 82.0388 297.892 81.7428 297.892C81.4468 297.892 81.1828 298.004 80.9508 298.228C80.7188 298.452 80.5348 298.816 80.3988 299.32C80.2708 299.824 80.2068 300.5 80.2068 301.348C80.2068 302.196 80.2708 302.88 80.3988 303.4C80.5348 303.912 80.7188 304.284 80.9508 304.516C81.1828 304.748 81.4468 304.864 81.7428 304.864ZM86.5705 308.188L85.7065 307.804C86.2185 306.94 86.5985 306.016 86.8465 305.032C87.0945 304.048 87.2185 303.052 87.2185 302.044C87.2185 301.044 87.0945 300.052 86.8465 299.068C86.5985 298.076 86.2185 297.148 85.7065 296.284L86.5705 295.9C87.1385 296.812 87.5785 297.768 87.8905 298.768C88.2025 299.768 88.3585 300.86 88.3585 302.044C88.3585 303.236 88.2025 304.332 87.8905 305.332C87.5785 306.324 87.1385 307.276 86.5705 308.188Z" fill="#FF55B1"/>
<path d="M52.772 358.188C52.212 357.276 51.776 356.324 51.464 355.332C51.152 354.332 50.996 353.236 50.996 352.044C50.996 350.86 51.152 349.768 51.464 348.768C51.776 347.768 52.212 346.812 52.772 345.9L53.636 346.284C53.124 347.148 52.744 348.076 52.496 349.068C52.256 350.052 52.136 351.044 52.136 352.044C52.136 353.052 52.256 354.048 52.496 355.032C52.744 356.016 53.124 356.94 53.636 357.804L52.772 358.188ZM57.6373 355.968C57.0613 355.968 56.5573 355.796 56.1253 355.452C55.6933 355.108 55.3573 354.596 55.1173 353.916C54.8853 353.228 54.7693 352.372 54.7693 351.348C54.7693 350.324 54.8853 349.476 55.1173 348.804C55.3573 348.132 55.6933 347.632 56.1253 347.304C56.5573 346.968 57.0613 346.8 57.6373 346.8C58.2133 346.8 58.7133 346.968 59.1373 347.304C59.5613 347.64 59.8893 348.144 60.1213 348.816C60.3613 349.48 60.4813 350.324 60.4813 351.348C60.4813 352.372 60.3613 353.228 60.1213 353.916C59.8893 354.596 59.5613 355.108 59.1373 355.452C58.7133 355.796 58.2133 355.968 57.6373 355.968ZM57.6373 354.864C57.9333 354.864 58.1973 354.748 58.4293 354.516C58.6613 354.284 58.8413 353.912 58.9693 353.4C59.0973 352.88 59.1613 352.196 59.1613 351.348C59.1613 350.5 59.0973 349.824 58.9693 349.32C58.8413 348.816 58.6613 348.452 58.4293 348.228C58.1973 348.004 57.9333 347.892 57.6373 347.892C57.3413 347.892 57.0773 348.004 56.8453 348.228C56.6133 348.452 56.4293 348.816 56.2933 349.32C56.1653 349.824 56.1013 350.5 56.1013 351.348C56.1013 352.196 56.1653 352.88 56.2933 353.4C56.4293 353.912 56.6133 354.284 56.8453 354.516C57.0773 354.748 57.3413 354.864 57.6373 354.864ZM61.9971 358.2L61.6851 357.42C62.1011 357.244 62.4251 357.008 62.6571 356.712C62.8891 356.424 63.0011 356.1 62.9931 355.74L62.8971 354.636L63.4731 355.548C63.3931 355.636 63.3011 355.7 63.1971 355.74C63.0931 355.772 62.9811 355.788 62.8611 355.788C62.6211 355.788 62.4051 355.712 62.2131 355.56C62.0291 355.4 61.9371 355.18 61.9371 354.9C61.9371 354.628 62.0291 354.412 62.2131 354.252C62.4051 354.092 62.6331 354.012 62.8971 354.012C63.2411 354.012 63.5051 354.144 63.6891 354.408C63.8731 354.672 63.9651 355.036 63.9651 355.5C63.9651 356.132 63.7891 356.68 63.4371 357.144C63.0931 357.616 62.6131 357.968 61.9971 358.2ZM68.6913 355.8V350.04C68.6913 349.8 68.6993 349.516 68.7153 349.188C68.7313 348.852 68.7433 348.564 68.7513 348.324H68.7033C68.5913 348.548 68.4753 348.776 68.3553 349.008C68.2433 349.24 68.1233 349.468 67.9953 349.692L66.2673 352.344H71.1033V353.424H64.8633V352.5L68.3793 346.956H69.9873V355.8H68.6913ZM72.487 355.8V354.66H74.431V348.516H72.847V347.64C73.263 347.568 73.623 347.476 73.927 347.364C74.239 347.252 74.523 347.116 74.779 346.956H75.823V354.66H77.539V355.8H72.487ZM81.7428 355.968C81.1668 355.968 80.6628 355.796 80.2308 355.452C79.7988 355.108 79.4628 354.596 79.2228 353.916C78.9908 353.228 78.8748 352.372 78.8748 351.348C78.8748 350.324 78.9908 349.476 79.2228 348.804C79.4628 348.132 79.7988 347.632 80.2308 347.304C80.6628 346.968 81.1668 346.8 81.7428 346.8C82.3188 346.8 82.8188 346.968 83.2428 347.304C83.6668 347.64 83.9948 348.144 84.2268 348.816C84.4668 349.48 84.5868 350.324 84.5868 351.348C84.5868 352.372 84.4668 353.228 84.2268 353.916C83.9948 354.596 83.6668 355.108 83.2428 355.452C82.8188 355.796 82.3188 355.968 81.7428 355.968ZM81.7428 354.864C82.0388 354.864 82.3028 354.748 82.5348 354.516C82.7668 354.284 82.9468 353.912 83.0748 353.4C83.2028 352.88 83.2668 352.196 83.2668 351.348C83.2668 350.5 83.2028 349.824 83.0748 349.32C82.9468 348.816 82.7668 348.452 82.5348 348.228C82.3028 348.004 82.0388 347.892 81.7428 347.892C81.4468 347.892 81.1828 348.004 80.9508 348.228C80.7188 348.452 80.5348 348.816 80.3988 349.32C80.2708 349.824 80.2068 350.5 80.2068 351.348C80.2068 352.196 80.2708 352.88 80.3988 353.4C80.5348 353.912 80.7188 354.284 80.9508 354.516C81.1828 354.748 81.4468 354.864 81.7428 354.864ZM86.5705 358.188L85.7065 357.804C86.2185 356.94 86.5985 356.016 86.8465 355.032C87.0945 354.048 87.2185 353.052 87.2185 352.044C87.2185 351.044 87.0945 350.052 86.8465 349.068C86.5985 348.076 86.2185 347.148 85.7065 346.284L86.5705 345.9C87.1385 346.812 87.5785 347.768 87.8905 348.768C88.2025 349.768 88.3585 350.86 88.3585 352.044C88.3585 353.236 88.2025 354.332 87.8905 355.332C87.5785 356.324 87.1385 357.276 86.5705 358.188Z" fill="#FF55B1"/>
<path d="M52.772 408.188C52.212 407.276 51.776 406.324 51.464 405.332C51.152 404.332 50.996 403.236 50.996 402.044C50.996 400.86 51.152 399.768 51.464 398.768C51.776 397.768 52.212 396.812 52.772 395.9L53.636 396.284C53.124 397.148 52.744 398.076 52.496 399.068C52.256 400.052 52.136 401.044 52.136 402.044C52.136 403.052 52.256 404.048 52.496 405.032C52.744 406.016 53.124 406.94 53.636 407.804L52.772 408.188ZM57.6373 405.968C57.0613 405.968 56.5573 405.796 56.1253 405.452C55.6933 405.108 55.3573 404.596 55.1173 403.916C54.8853 403.228 54.7693 402.372 54.7693 401.348C54.7693 400.324 54.8853 399.476 55.1173 398.804C55.3573 398.132 55.6933 397.632 56.1253 397.304C56.5573 396.968 57.0613 396.8 57.6373 396.8C58.2133 396.8 58.7133 396.968 59.1373 397.304C59.5613 397.64 59.8893 398.144 60.1213 398.816C60.3613 399.48 60.4813 400.324 60.4813 401.348C60.4813 402.372 60.3613 403.228 60.1213 403.916C59.8893 404.596 59.5613 405.108 59.1373 405.452C58.7133 405.796 58.2133 405.968 57.6373 405.968ZM57.6373 404.864C57.9333 404.864 58.1973 404.748 58.4293 404.516C58.6613 404.284 58.8413 403.912 58.9693 403.4C59.0973 402.88 59.1613 402.196 59.1613 401.348C59.1613 400.5 59.0973 399.824 58.9693 399.32C58.8413 398.816 58.6613 398.452 58.4293 398.228C58.1973 398.004 57.9333 397.892 57.6373 397.892C57.3413 397.892 57.0773 398.004 56.8453 398.228C56.6133 398.452 56.4293 398.816 56.2933 399.32C56.1653 399.824 56.1013 400.5 56.1013 401.348C56.1013 402.196 56.1653 402.88 56.2933 403.4C56.4293 403.912 56.6133 404.284 56.8453 404.516C57.0773 404.748 57.3413 404.864 57.6373 404.864ZM61.9971 408.2L61.6851 407.42C62.1011 407.244 62.4251 407.008 62.6571 406.712C62.8891 406.424 63.0011 406.1 62.9931 405.74L62.8971 404.636L63.4731 405.548C63.3931 405.636 63.3011 405.7 63.1971 405.74C63.0931 405.772 62.9811 405.788 62.8611 405.788C62.6211 405.788 62.4051 405.712 62.2131 405.56C62.0291 405.4 61.9371 405.18 61.9371 404.9C61.9371 404.628 62.0291 404.412 62.2131 404.252C62.4051 404.092 62.6331 404.012 62.8971 404.012C63.2411 404.012 63.5051 404.144 63.6891 404.408C63.8731 404.672 63.9651 405.036 63.9651 405.5C63.9651 406.132 63.7891 406.68 63.4371 407.144C63.0931 407.616 62.6131 407.968 61.9971 408.2ZM68.6913 405.8V400.04C68.6913 399.8 68.6993 399.516 68.7153 399.188C68.7313 398.852 68.7433 398.564 68.7513 398.324H68.7033C68.5913 398.548 68.4753 398.776 68.3553 399.008C68.2433 399.24 68.1233 399.468 67.9953 399.692L66.2673 402.344H71.1033V403.424H64.8633V402.5L68.3793 396.956H69.9873V405.8H68.6913ZM75.163 405.968C74.739 405.968 74.343 405.88 73.975 405.704C73.607 405.52 73.283 405.248 73.003 404.888C72.723 404.52 72.503 404.06 72.343 403.508C72.183 402.956 72.103 402.304 72.103 401.552C72.103 400.704 72.195 399.98 72.379 399.38C72.563 398.772 72.811 398.28 73.123 397.904C73.435 397.528 73.791 397.252 74.191 397.076C74.591 396.892 75.007 396.8 75.439 396.8C75.935 396.8 76.363 396.892 76.723 397.076C77.091 397.26 77.399 397.484 77.647 397.748L76.891 398.588C76.731 398.396 76.527 398.24 76.279 398.12C76.031 397.992 75.775 397.928 75.511 397.928C75.127 397.928 74.771 398.044 74.443 398.276C74.123 398.5 73.867 398.876 73.675 399.404C73.483 399.932 73.387 400.648 73.387 401.552C73.387 402.312 73.459 402.94 73.603 403.436C73.747 403.924 73.951 404.292 74.215 404.54C74.479 404.78 74.787 404.9 75.139 404.9C75.403 404.9 75.635 404.824 75.835 404.672C76.043 404.52 76.207 404.308 76.327 404.036C76.447 403.756 76.507 403.428 76.507 403.052C76.507 402.676 76.451 402.356 76.339 402.092C76.227 401.828 76.063 401.628 75.847 401.492C75.639 401.356 75.379 401.288 75.067 401.288C74.803 401.288 74.519 401.372 74.215 401.54C73.919 401.708 73.635 401.996 73.363 402.404L73.315 401.396C73.483 401.156 73.679 400.956 73.903 400.796C74.127 400.628 74.359 400.5 74.599 400.412C74.847 400.324 75.083 400.28 75.307 400.28C75.803 400.28 76.235 400.384 76.603 400.592C76.979 400.792 77.271 401.096 77.479 401.504C77.695 401.912 77.803 402.428 77.803 403.052C77.803 403.636 77.679 404.148 77.431 404.588C77.191 405.02 76.871 405.36 76.471 405.608C76.079 405.848 75.643 405.968 75.163 405.968ZM81.7428 405.968C81.1668 405.968 80.6628 405.796 80.2308 405.452C79.7988 405.108 79.4628 404.596 79.2228 403.916C78.9908 403.228 78.8748 402.372 78.8748 401.348C78.8748 400.324 78.9908 399.476 79.2228 398.804C79.4628 398.132 79.7988 397.632 80.2308 397.304C80.6628 396.968 81.1668 396.8 81.7428 396.8C82.3188 396.8 82.8188 396.968 83.2428 397.304C83.6668 397.64 83.9948 398.144 84.2268 398.816C84.4668 399.48 84.5868 400.324 84.5868 401.348C84.5868 402.372 84.4668 403.228 84.2268 403.916C83.9948 404.596 83.6668 405.108 83.2428 405.452C82.8188 405.796 82.3188 405.968 81.7428 405.968ZM81.7428 404.864C82.0388 404.864 82.3028 404.748 82.5348 404.516C82.7668 404.284 82.9468 403.912 83.0748 403.4C83.2028 402.88 83.2668 402.196 83.2668 401.348C83.2668 400.5 83.2028 399.824 83.0748 399.32C82.9468 398.816 82.7668 398.452 82.5348 398.228C82.3028 398.004 82.0388 397.892 81.7428 397.892C81.4468 397.892 81.1828 398.004 80.9508 398.228C80.7188 398.452 80.5348 398.816 80.3988 399.32C80.2708 399.824 80.2068 400.5 80.2068 401.348C80.2068 402.196 80.2708 402.88 80.3988 403.4C80.5348 403.912 80.7188 404.284 80.9508 404.516C81.1828 404.748 81.4468 404.864 81.7428 404.864ZM86.5705 408.188L85.7065 407.804C86.2185 406.94 86.5985 406.016 86.8465 405.032C87.0945 404.048 87.2185 403.052 87.2185 402.044C87.2185 401.044 87.0945 400.052 86.8465 399.068C86.5985 398.076 86.2185 397.148 85.7065 396.284L86.5705 395.9C87.1385 396.812 87.5785 397.768 87.8905 398.768C88.2025 399.768 88.3585 400.86 88.3585 402.044C88.3585 403.236 88.2025 404.332 87.8905 405.332C87.5785 406.324 87.1385 407.276 86.5705 408.188Z" fill="#FF55B1"/>
<path d="M52.772 458.188C52.212 457.276 51.776 456.324 51.464 455.332C51.152 454.332 50.996 453.236 50.996 452.044C50.996 450.86 51.152 449.768 51.464 448.768C51.776 447.768 52.212 446.812 52.772 445.9L53.636 446.284C53.124 447.148 52.744 448.076 52.496 449.068C52.256 450.052 52.136 451.044 52.136 452.044C52.136 453.052 52.256 454.048 52.496 455.032C52.744 456.016 53.124 456.94 53.636 457.804L52.772 458.188ZM57.6373 455.968C57.0613 455.968 56.5573 455.796 56.1253 455.452C55.6933 455.108 55.3573 454.596 55.1173 453.916C54.8853 453.228 54.7693 452.372 54.7693 451.348C54.7693 450.324 54.8853 449.476 55.1173 448.804C55.3573 448.132 55.6933 447.632 56.1253 447.304C56.5573 446.968 57.0613 446.8 57.6373 446.8C58.2133 446.8 58.7133 446.968 59.1373 447.304C59.5613 447.64 59.8893 448.144 60.1213 448.816C60.3613 449.48 60.4813 450.324 60.4813 451.348C60.4813 452.372 60.3613 453.228 60.1213 453.916C59.8893 454.596 59.5613 455.108 59.1373 455.452C58.7133 455.796 58.2133 455.968 57.6373 455.968ZM57.6373 454.864C57.9333 454.864 58.1973 454.748 58.4293 454.516C58.6613 454.284 58.8413 453.912 58.9693 453.4C59.0973 452.88 59.1613 452.196 59.1613 451.348C59.1613 450.5 59.0973 449.824 58.9693 449.32C58.8413 448.816 58.6613 448.452 58.4293 448.228C58.1973 448.004 57.9333 447.892 57.6373 447.892C57.3413 447.892 57.0773 448.004 56.8453 448.228C56.6133 448.452 56.4293 448.816 56.2933 449.32C56.1653 449.824 56.1013 450.5 56.1013 451.348C56.1013 452.196 56.1653 452.88 56.2933 453.4C56.4293 453.912 56.6133 454.284 56.8453 454.516C57.0773 454.748 57.3413 454.864 57.6373 454.864ZM61.9971 458.2L61.6851 457.42C62.1011 457.244 62.4251 457.008 62.6571 456.712C62.8891 456.424 63.0011 456.1 62.9931 455.74L62.8971 454.636L63.4731 455.548C63.3931 455.636 63.3011 455.7 63.1971 455.74C63.0931 455.772 62.9811 455.788 62.8611 455.788C62.6211 455.788 62.4051 455.712 62.2131 455.56C62.0291 455.4 61.9371 455.18 61.9371 454.9C61.9371 454.628 62.0291 454.412 62.2131 454.252C62.4051 454.092 62.6331 454.012 62.8971 454.012C63.2411 454.012 63.5051 454.144 63.6891 454.408C63.8731 454.672 63.9651 455.036 63.9651 455.5C63.9651 456.132 63.7891 456.68 63.4371 457.144C63.0931 457.616 62.6131 457.968 61.9971 458.2ZM67.8393 455.968C67.3833 455.968 66.9753 455.912 66.6153 455.8C66.2553 455.688 65.9393 455.54 65.6673 455.356C65.3953 455.172 65.1553 454.98 64.9473 454.78L65.6073 453.88C65.7753 454.048 65.9593 454.204 66.1593 454.348C66.3593 454.484 66.5833 454.596 66.8313 454.684C67.0873 454.772 67.3713 454.816 67.6833 454.816C68.0113 454.816 68.3073 454.744 68.5713 454.6C68.8353 454.448 69.0433 454.232 69.1953 453.952C69.3473 453.664 69.4233 453.324 69.4233 452.932C69.4233 452.356 69.2673 451.908 68.9553 451.588C68.6513 451.268 68.2473 451.108 67.7433 451.108C67.4633 451.108 67.2233 451.148 67.0233 451.228C66.8233 451.308 66.5953 451.432 66.3393 451.6L65.6553 451.156L65.9193 446.956H70.3953V448.132H67.1193L66.9153 450.388C67.1073 450.292 67.2993 450.22 67.4913 450.172C67.6833 450.116 67.8953 450.088 68.1273 450.088C68.6233 450.088 69.0753 450.188 69.4833 450.388C69.8913 450.588 70.2153 450.896 70.4553 451.312C70.6953 451.72 70.8153 452.248 70.8153 452.896C70.8153 453.544 70.6753 454.1 70.3953 454.564C70.1153 455.02 69.7473 455.368 69.2913 455.608C68.8433 455.848 68.3593 455.968 67.8393 455.968ZM72.487 455.8V454.66H74.431V448.516H72.847V447.64C73.263 447.568 73.623 447.476 73.927 447.364C74.239 447.252 74.523 447.116 74.779 446.956H75.823V454.66H77.539V455.8H72.487ZM81.7428 455.968C81.1668 455.968 80.6628 455.796 80.2308 455.452C79.7988 455.108 79.4628 454.596 79.2228 453.916C78.9908 453.228 78.8748 452.372 78.8748 451.348C78.8748 450.324 78.9908 449.476 79.2228 448.804C79.4628 448.132 79.7988 447.632 80.2308 447.304C80.6628 446.968 81.1668 446.8 81.7428 446.8C82.3188 446.8 82.8188 446.968 83.2428 447.304C83.6668 447.64 83.9948 448.144 84.2268 448.816C84.4668 449.48 84.5868 450.324 84.5868 451.348C84.5868 452.372 84.4668 453.228 84.2268 453.916C83.9948 454.596 83.6668 455.108 83.2428 455.452C82.8188 455.796 82.3188 455.968 81.7428 455.968ZM81.7428 454.864C82.0388 454.864 82.3028 454.748 82.5348 454.516C82.7668 454.284 82.9468 453.912 83.0748 453.4C83.2028 452.88 83.2668 452.196 83.2668 451.348C83.2668 450.5 83.2028 449.824 83.0748 449.32C82.9468 448.816 82.7668 448.452 82.5348 448.228C82.3028 448.004 82.0388 447.892 81.7428 447.892C81.4468 447.892 81.1828 448.004 80.9508 448.228C80.7188 448.452 80.5348 448.816 80.3988 449.32C80.2708 449.824 80.2068 450.5 80.2068 451.348C80.2068 452.196 80.2708 452.88 80.3988 453.4C80.5348 453.912 80.7188 454.284 80.9508 454.516C81.1828 454.748 81.4468 454.864 81.7428 454.864ZM86.5705 458.188L85.7065 457.804C86.2185 456.94 86.5985 456.016 86.8465 455.032C87.0945 454.048 87.2185 453.052 87.2185 452.044C87.2185 451.044 87.0945 450.052 86.8465 449.068C86.5985 448.076 86.2185 447.148 85.7065 446.284L86.5705 445.9C87.1385 446.812 87.5785 447.768 87.8905 448.768C88.2025 449.768 88.3585 450.86 88.3585 452.044C88.3585 453.236 88.2025 454.332 87.8905 455.332C87.5785 456.324 87.1385 457.276 86.5705 458.188Z" fill="#FF55B1"/>
<path d="M52.772 508.188C52.212 507.276 51.776 506.324 51.464 505.332C51.152 504.332 50.996 503.236 50.996 502.044C50.996 500.86 51.152 499.768 51.464 498.768C51.776 497.768 52.212 496.812 52.772 495.9L53.636 496.284C53.124 497.148 52.744 498.076 52.496 499.068C52.256 500.052 52.136 501.044 52.136 502.044C52.136 503.052 52.256 504.048 52.496 505.032C52.744 506.016 53.124 506.94 53.636 507.804L52.772 508.188ZM57.6373 505.968C57.0613 505.968 56.5573 505.796 56.1253 505.452C55.6933 505.108 55.3573 504.596 55.1173 503.916C54.8853 503.228 54.7693 502.372 54.7693 501.348C54.7693 500.324 54.8853 499.476 55.1173 498.804C55.3573 498.132 55.6933 497.632 56.1253 497.304C56.5573 496.968 57.0613 496.8 57.6373 496.8C58.2133 496.8 58.7133 496.968 59.1373 497.304C59.5613 497.64 59.8893 498.144 60.1213 498.816C60.3613 499.48 60.4813 500.324 60.4813 501.348C60.4813 502.372 60.3613 503.228 60.1213 503.916C59.8893 504.596 59.5613 505.108 59.1373 505.452C58.7133 505.796 58.2133 505.968 57.6373 505.968ZM57.6373 504.864C57.9333 504.864 58.1973 504.748 58.4293 504.516C58.6613 504.284 58.8413 503.912 58.9693 503.4C59.0973 502.88 59.1613 502.196 59.1613 501.348C59.1613 500.5 59.0973 499.824 58.9693 499.32C58.8413 498.816 58.6613 498.452 58.4293 498.228C58.1973 498.004 57.9333 497.892 57.6373 497.892C57.3413 497.892 57.0773 498.004 56.8453 498.228C56.6133 498.452 56.4293 498.816 56.2933 499.32C56.1653 499.824 56.1013 500.5 56.1013 501.348C56.1013 502.196 56.1653 502.88 56.2933 503.4C56.4293 503.912 56.6133 504.284 56.8453 504.516C57.0773 504.748 57.3413 504.864 57.6373 504.864ZM61.9971 508.2L61.6851 507.42C62.1011 507.244 62.4251 507.008 62.6571 506.712C62.8891 506.424 63.0011 506.1 62.9931 505.74L62.8971 504.636L63.4731 505.548C63.3931 505.636 63.3011 505.7 63.1971 505.74C63.0931 505.772 62.9811 505.788 62.8611 505.788C62.6211 505.788 62.4051 505.712 62.2131 505.56C62.0291 505.4 61.9371 505.18 61.9371 504.9C61.9371 504.628 62.0291 504.412 62.2131 504.252C62.4051 504.092 62.6331 504.012 62.8971 504.012C63.2411 504.012 63.5051 504.144 63.6891 504.408C63.8731 504.672 63.9651 505.036 63.9651 505.5C63.9651 506.132 63.7891 506.68 63.4371 507.144C63.0931 507.616 62.6131 507.968 61.9971 508.2ZM67.8393 505.968C67.3833 505.968 66.9753 505.912 66.6153 505.8C66.2553 505.688 65.9393 505.54 65.6673 505.356C65.3953 505.172 65.1553 504.98 64.9473 504.78L65.6073 503.88C65.7753 504.048 65.9593 504.204 66.1593 504.348C66.3593 504.484 66.5833 504.596 66.8313 504.684C67.0873 504.772 67.3713 504.816 67.6833 504.816C68.0113 504.816 68.3073 504.744 68.5713 504.6C68.8353 504.448 69.0433 504.232 69.1953 503.952C69.3473 503.664 69.4233 503.324 69.4233 502.932C69.4233 502.356 69.2673 501.908 68.9553 501.588C68.6513 501.268 68.2473 501.108 67.7433 501.108C67.4633 501.108 67.2233 501.148 67.0233 501.228C66.8233 501.308 66.5953 501.432 66.3393 501.6L65.6553 501.156L65.9193 496.956H70.3953V498.132H67.1193L66.9153 500.388C67.1073 500.292 67.2993 500.22 67.4913 500.172C67.6833 500.116 67.8953 500.088 68.1273 500.088C68.6233 500.088 69.0753 500.188 69.4833 500.388C69.8913 500.588 70.2153 500.896 70.4553 501.312C70.6953 501.72 70.8153 502.248 70.8153 502.896C70.8153 503.544 70.6753 504.1 70.3953 504.564C70.1153 505.02 69.7473 505.368 69.2913 505.608C68.8433 505.848 68.3593 505.968 67.8393 505.968ZM75.163 505.968C74.739 505.968 74.343 505.88 73.975 505.704C73.607 505.52 73.283 505.248 73.003 504.888C72.723 504.52 72.503 504.06 72.343 503.508C72.183 502.956 72.103 502.304 72.103 501.552C72.103 500.704 72.195 499.98 72.379 499.38C72.563 498.772 72.811 498.28 73.123 497.904C73.435 497.528 73.791 497.252 74.191 497.076C74.591 496.892 75.007 496.8 75.439 496.8C75.935 496.8 76.363 496.892 76.723 497.076C77.091 497.26 77.399 497.484 77.647 497.748L76.891 498.588C76.731 498.396 76.527 498.24 76.279 498.12C76.031 497.992 75.775 497.928 75.511 497.928C75.127 497.928 74.771 498.044 74.443 498.276C74.123 498.5 73.867 498.876 73.675 499.404C73.483 499.932 73.387 500.648 73.387 501.552C73.387 502.312 73.459 502.94 73.603 503.436C73.747 503.924 73.951 504.292 74.215 504.54C74.479 504.78 74.787 504.9 75.139 504.9C75.403 504.9 75.635 504.824 75.835 504.672C76.043 504.52 76.207 504.308 76.327 504.036C76.447 503.756 76.507 503.428 76.507 503.052C76.507 502.676 76.451 502.356 76.339 502.092C76.227 501.828 76.063 501.628 75.847 501.492C75.639 501.356 75.379 501.288 75.067 501.288C74.803 501.288 74.519 501.372 74.215 501.54C73.919 501.708 73.635 501.996 73.363 502.404L73.315 501.396C73.483 501.156 73.679 500.956 73.903 500.796C74.127 500.628 74.359 500.5 74.599 500.412C74.847 500.324 75.083 500.28 75.307 500.28C75.803 500.28 76.235 500.384 76.603 500.592C76.979 500.792 77.271 501.096 77.479 501.504C77.695 501.912 77.803 502.428 77.803 503.052C77.803 503.636 77.679 504.148 77.431 504.588C77.191 505.02 76.871 505.36 76.471 505.608C76.079 505.848 75.643 505.968 75.163 505.968ZM81.7428 505.968C81.1668 505.968 80.6628 505.796 80.2308 505.452C79.7988 505.108 79.4628 504.596 79.2228 503.916C78.9908 503.228 78.8748 502.372 78.8748 501.348C78.8748 500.324 78.9908 499.476 79.2228 498.804C79.4628 498.132 79.7988 497.632 80.2308 497.304C80.6628 496.968 81.1668 496.8 81.7428 496.8C82.3188 496.8 82.8188 496.968 83.2428 497.304C83.6668 497.64 83.9948 498.144 84.2268 498.816C84.4668 499.48 84.5868 500.324 84.5868 501.348C84.5868 502.372 84.4668 503.228 84.2268 503.916C83.9948 504.596 83.6668 505.108 83.2428 505.452C82.8188 505.796 82.3188 505.968 81.7428 505.968ZM81.7428 504.864C82.0388 504.864 82.3028 504.748 82.5348 504.516C82.7668 504.284 82.9468 503.912 83.0748 503.4C83.2028 502.88 83.2668 502.196 83.2668 501.348C83.2668 500.5 83.2028 499.824 83.0748 499.32C82.9468 498.816 82.7668 498.452 82.5348 498.228C82.3028 498.004 82.0388 497.892 81.7428 497.892C81.4468 497.892 81.1828 498.004 80.9508 498.228C80.7188 498.452 80.5348 498.816 80.3988 499.32C80.2708 499.824 80.2068 500.5 80.2068 501.348C80.2068 502.196 80.2708 502.88 80.3988 503.4C80.5348 503.912 80.7188 504.284 80.9508 504.516C81.1828 504.748 81.4468 504.864 81.7428 504.864ZM86.5705 508.188L85.7065 507.804C86.2185 506.94 86.5985 506.016 86.8465 505.032C87.0945 504.048 87.2185 503.052 87.2185 502.044C87.2185 501.044 87.0945 500.052 86.8465 499.068C86.5985 498.076 86.2185 497.148 85.7065 496.284L86.5705 495.9C87.1385 496.812 87.5785 497.768 87.8905 498.768C88.2025 499.768 88.3585 500.86 88.3585 502.044C88.3585 503.236 88.2025 504.332 87.8905 505.332C87.5785 506.324 87.1385 507.276 86.5705 508.188Z" fill="#FF55B1"/>
<path fill-rule="evenodd" clip-rule="evenodd" d="M97.1799 48.8H96.1799V50.3H94.6799V51.3H96.1799V52.8H97.1799V51.3H98.6799V50.3H97.1799V48.8Z" fill="#FF55B1"/>
<path fill-rule="evenodd" clip-rule="evenodd" d="M97.1799 98.8H96.1799V100.3H94.6799V101.3H96.1799V102.8H97.1799V101.3H98.6799V100.3H97.1799V98.8Z" fill="#FF55B1"/>
<path fill-rule="evenodd" clip-rule="evenodd" d="M97.1799 148.8H96.1799V150.3H94.6799V151.3H96.1799V152.8H97.1799V151.3H98.6799V150.3H97.1799V148.8Z" fill="#FF55B1"/>
<path fill-rule="evenodd" clip-rule="evenodd" d="M97.1799 198.8H96.1799V200.3H94.6799V201.3H96.1799V202.8H97.1799V201.3H98.6799V200.3H97.1799V198.8Z" fill="#FF55B1"/>
<path fill-rule="evenodd" clip-rule="evenodd" d="M97.1799 248.8H96.1799V250.3H94.6799V251.3H96.1799V252.8H97.1799V251.3H98.6799V250.3H97.1799V248.8Z" fill="#FF55B1"/>
<path fill-rule="evenodd" clip-rule="evenodd" d="M97.1799 298.8H96.1799V300.3H94.6799V301.3H96.1799V302.8H97.1799V301.3H98.6799V300.3H97.1799V298.8Z" fill="#FF55B1"/>
<path fill-rule="evenodd" clip-rule="evenodd" d="M97.1799 348.8H96.1799V350.3H94.6799V351.3H96.1799V352.8H97.1799V351.3H98.6799V350.3H97.1799V348.8Z" fill="#FF55B1"/>
<path fill-rule="evenodd" clip-rule="evenodd" d="M97.1799 398.8H96.1799V400.3H94.6799V401.3H96.1799V402.8H97.1799V401.3H98.6799V400.3H97.1799V398.8Z" fill="#FF55B1"/>
<path fill-rule="evenodd" clip-rule="evenodd" d="M97.1799 448.8H96.1799V450.3H94.6799V451.3H96.1799V452.8H97.1799V451.3H98.6799V450.3H97.1799V448.8Z" fill="#FF55B1"/>
<path fill-rule="evenodd" clip-rule="evenodd" d="M97.1799 498.8H96.1799V500.3H94.6799V501.3H96.1799V502.8H97.1799V501.3H98.6799V500.3H97.1799V498.8Z" fill="#FF55B1"/>
<rect x="415.68" y="96.8" width="52" height="10" fill="#710000"/>
<rect x="429.68" y="78.8" width="18" height="2" fill="black"/>
<rect x="413.68" y="80.8" width="6" height="2" fill="black"/>
<rect x="451.68" y="81.8" width="14" height="2" fill="black"/>
<rect x="469.68" y="87.8" width="2" height="16" fill="black"/>
<rect x="465.68" y="103.8" width="2" height="3" fill="black"/>
<rect x="429.68" y="80.8" width="18" height="16" fill="#D11F1F"/>
<rect x="415.68" y="83.8" width="12" height="17" fill="#D11F1F"/>
<rect x="413.68" y="82.8" width="6" height="16" fill="#D11F1F"/>
<rect x="453.68" y="83.8" width="12" height="16" fill="#D11F1F"/>
<rect x="465.68" y="85.8" width="2" height="16" fill="#AC181E"/>
<rect x="467.68" y="87.8" width="2" height="16" fill="#710000"/>
<rect x="453.68" y="104.8" width="8" height="2" fill="#2D3648"/>
<rect x="427.68" y="104.8" width="8" height="2" fill="#2D3648"/>
<rect x="419.68" y="83.8" width="2" height="17" fill="#710000"/>
<rect x="413.68" y="98.8" width="2" height="6" fill="black"/>
<rect x="411.68" y="82.8" width="2" height="16" fill="black"/>
<rect x="415.68" y="98.8" width="4" height="2" fill="#710000"/>
<rect x="447.68" y="80.8" width="2" height="16" fill="#1C274C"/>
<rect x="449.68" y="82.8" width="2" height="15" fill="#1C274C"/>
<rect x="425.68" y="83.8" width="2" height="17" fill="#1C274C"/>
<rect x="451.68" y="83.8" width="2" height="15" fill="#1C274C"/>
<rect x="427.68" y="82.8" width="2" height="16" fill="#1C274C"/>
<rect x="434.68" y="96.8" width="11" height="2" fill="#1C274C"/>
<rect x="435.68" y="98.8" width="13" height="2" fill="#1C274C"/>
<rect x="467.68" y="103.8" width="2" height="2" fill="black"/>
<rect x="467.68" y="85.8" width="2" height="2" fill="black"/>
<rect x="465.68" y="83.8" width="2" height="2" fill="black"/>
<rect x="427.68" y="102.8" width="8" height="2" fill="black"/>
<rect x="451.68" y="104.8" width="2" height="2" fill="black"/>
<rect x="435.68" y="104.8" width="2" height="2" fill="black"/>
<rect x="425.68" y="104.8" width="2" height="2" fill="black"/>
<rect x="415.68" y="104.8" width="2" height="2" fill="black"/>
<rect x="453.68" y="102.8" width="8" height="2" fill="black"/>
<rect x="461.68" y="104.8" width="2" height="2" fill="black"/>
<rect x="449.68" y="80.8" width="2" height="2" fill="black"/>
<rect x="427.68" y="80.8" width="2" height="2" fill="black"/>
<rect x="447.68" y="78.8" width="2" height="2" fill="black"/>
<rect x="417.68" y="106.8" width="48" height="2" fill="black"/>
<rect x="419.68" y="81.8" width="8" height="2" fill="black"/>
<rect x="415.68" y="166.8" width="52" height="10" fill="#034E99"/>
<rect x="429.68" y="148.8" width="18" height="2" fill="black"/>
<rect x="413.68" y="150.8" width="6" height="2" fill="black"/>
<rect x="451.68" y="151.8" width="14" height="2" fill="black"/>
<rect x="469.68" y="157.8" width="2" height="16" fill="black"/>
<rect x="465.68" y="173.8" width="2" height="3" fill="black"/>
<rect x="429.68" y="150.8" width="18" height="16" fill="#00A3FF"/>
<rect x="415.68" y="153.8" width="12" height="17" fill="#00A3FF"/>
<rect x="413.68" y="152.8" width="6" height="16" fill="#00A3FF"/>
<rect x="453.68" y="153.8" width="12" height="16" fill="#00A3FF"/>
<rect x="465.68" y="155.8" width="2" height="16" fill="#1976D2"/>
<rect x="467.68" y="157.8" width="2" height="16" fill="#034E99"/>
<rect x="453.68" y="174.8" width="8" height="2" fill="#2D3648"/>
<rect x="427.68" y="174.8" width="8" height="2" fill="#2D3648"/>
<rect x="419.68" y="153.8" width="2" height="17" fill="#034E99"/>
<rect x="413.68" y="168.8" width="2" height="6" fill="black"/>
<rect x="411.68" y="152.8" width="2" height="16" fill="black"/>
<rect x="415.68" y="168.8" width="4" height="2" fill="#034E99"/>
<rect x="447.68" y="150.8" width="2" height="16" fill="#1C274C"/>
<rect x="449.68" y="152.8" width="2" height="15" fill="#1C274C"/>
<rect x="425.68" y="153.8" width="2" height="17" fill="#1C274C"/>
<rect x="451.68" y="153.8" width="2" height="15" fill="#1C274C"/>
<rect x="427.68" y="152.8" width="2" height="16" fill="#1C274C"/>
<rect x="434.68" y="166.8" width="11" height="2" fill="#1C274C"/>
<rect x="435.68" y="168.8" width="13" height="2" fill="#1C274C"/>
<rect x="467.68" y="173.8" width="2" height="2" fill="black"/>
<rect x="467.68" y="155.8" width="2" height="2" fill="black"/>
<rect x="465.68" y="153.8" width="2" height="2" fill="black"/>
<rect x="427.68" y="172.8" width="8" height="2" fill="black"/>
<rect x="451.68" y="174.8" width="2" height="2" fill="black"/>
<rect x="435.68" y="174.8" width="2" height="2" fill="black"/>
<rect x="425.68" y="174.8" width="2" height="2" fill="black"/>
<rect x="415.68" y="174.8" width="2" height="2" fill="black"/>
<rect x="453.68" y="172.8" width="8" height="2" fill="black"/>
<rect x="461.68" y="174.8" width="2" height="2" fill="black"/>
<rect x="449.68" y="150.8" width="2" height="2" fill="black"/>
<rect x="427.68" y="150.8" width="2" height="2" fill="black"/>
<rect x="447.68" y="148.8" width="2" height="2" fill="black"/>
<rect x="417.68" y="176.8" width="48" height="2" fill="black"/>
<rect x="419.68" y="151.8" width="8" height="2" fill="black"/>
<rect x="415.68" y="236.8" width="52" height="10" fill="#9C5B00"/>
<rect x="429.68" y="218.8" width="18" height="2" fill="black"/>
<rect x="413.68" y="220.8" width="6" height="2" fill="black"/>
<rect x="451.68" y="221.8" width="14" height="2" fill="black"/>
<rect x="469.68" y="227.8" width="2" height="16" fill="black"/>
<rect x="465.68" y="243.8" width="2" height="3" fill="black"/>
<rect x="429.68" y="220.8" width="18" height="16" fill="#E09E42"/>
<rect x="415.68" y="223.8" width="12" height="17" fill="#E09E42"/>
<rect x="413.68" y="222.8" width="6" height="16" fill="#E09E42"/>
<rect x="453.68" y="223.8" width="12" height="16" fill="#E09E42"/>
<rect x="465.68" y="225.8" width="2" height="16" fill="#C17306"/>
<rect x="467.68" y="227.8" width="2" height="16" fill="#9C5B00"/>
<rect x="453.68" y="244.8" width="8" height="2" fill="#2D3648"/>
<rect x="427.68" y="244.8" width="8" height="2" fill="#2D3648"/>
<rect x="419.68" y="223.8" width="2" height="17" fill="#9C5B00"/>
<rect x="413.68" y="238.8" width="2" height="6" fill="black"/>
<rect x="411.68" y="222.8" width="2" height="16" fill="black"/>
<rect x="415.68" y="238.8" width="4" height="2" fill="#9C5B00"/>
<rect x="447.68" y="220.8" width="2" height="16" fill="#1C274C"/>
<rect x="449.68" y="222.8" width="2" height="15" fill="#1C274C"/>
<rect x="425.68" y="223.8" width="2" height="17" fill="#1C274C"/>
<rect x="451.68" y="223.8" width="2" height="15" fill="#1C274C"/>
<rect x="427.68" y="222.8" width="2" height="16" fill="#1C274C"/>
<rect x="434.68" y="236.8" width="11" height="2" fill="#1C274C"/>
<rect x="435.68" y="238.8" width="13" height="2" fill="#1C274C"/>
<rect x="467.68" y="243.8" width="2" height="2" fill="black"/>
<rect x="467.68" y="225.8" width="2" height="2" fill="black"/>
<rect x="465.68" y="223.8" width="2" height="2" fill="black"/>
<rect x="427.68" y="242.8" width="8" height="2" fill="black"/>
<rect x="451.68" y="244.8" width="2" height="2" fill="black"/>
<rect x="435.68" y="244.8" width="2" height="2" fill="black"/>
<rect x="425.68" y="244.8" width="2" height="2" fill="black"/>
<rect x="415.68" y="244.8" width="2" height="2" fill="black"/>
<rect x="453.68" y="242.8" width="8" height="2" fill="black"/>
<rect x="461.68" y="244.8" width="2" height="2" fill="black"/>
<rect x="449.68" y="220.8" width="2" height="2" fill="black"/>
<rect x="427.68" y="220.8" width="2" height="2" fill="black"/>
<rect x="447.68" y="218.8" width="2" height="2" fill="black"/>
<rect x="417.68" y="246.8" width="48" height="2" fill="black"/>
<rect x="419.68" y="221.8" width="8" height="2" fill="black"/>
<rect x="415.68" y="306.8" width="52" height="10" fill="#4E9000"/>
<rect x="429.68" y="288.8" width="18" height="2" fill="black"/>
<rect x="413.68" y="290.8" width="6" height="2" fill="black"/>
<rect x="451.68" y="291.8" width="14" height="2" fill="black"/>
<rect x="469.68" y="297.8" width="2" height="16" fill="black"/>
<rect x="465.68" y="313.8" width="2" height="3" fill="black"/>
<rect x="429.68" y="290.8" width="18" height="16" fill="#43E27E"/>
<rect x="415.68" y="293.8" width="12" height="17" fill="#43E27E"/>
<rect x="413.68" y="292.8" width="6" height="16" fill="#43E27E"/>
<rect x="453.68" y="293.8" width="12" height="16" fill="#43E27E"/>
<rect x="465.68" y="295.8" width="2" height="16" fill="#538716"/>
<rect x="467.68" y="297.8" width="2" height="16" fill="#4E9000"/>
<rect x="453.68" y="314.8" width="8" height="2" fill="#2D3648"/>
<rect x="427.68" y="314.8" width="8" height="2" fill="#2D3648"/>
<rect x="419.68" y="293.8" width="2" height="17" fill="#4E9000"/>
<rect x="413.68" y="308.8" width="2" height="6" fill="black"/>
<rect x="411.68" y="292.8" width="2" height="16" fill="black"/>
<rect x="415.68" y="308.8" width="4" height="2" fill="#4E9000"/>
<rect x="447.68" y="290.8" width="2" height="16" fill="#1C274C"/>
<rect x="449.68" y="292.8" width="2" height="15" fill="#1C274C"/>
<rect x="425.68" y="293.8" width="2" height="17" fill="#1C274C"/>
<rect x="451.68" y="293.8" width="2" height="15" fill="#1C274C"/>
<rect x="427.68" y="292.8" width="2" height="16" fill="#1C274C"/>
<rect x="434.68" y="306.8" width="11" height="2" fill="#1C274C"/>
<rect x="435.68" y="308.8" width="13" height="2" fill="#1C274C"/>
<rect x="467.68" y="313.8" width="2" height="2" fill="black"/>
<rect x="467.68" y="295.8" width="2" height="2" fill="black"/>
<rect x="465.68" y="293.8" width="2" height="2" fill="black"/>
<rect x="427.68" y="312.8" width="8" height="2" fill="black"/>
<rect x="451.68" y="314.8" width="2" height="2" fill="black"/>
<rect x="435.68" y="314.8" width="2" height="2" fill="black"/>
<rect x="425.68" y="314.8" width="2" height="2" fill="black"/>
<rect x="415.68" y="314.8" width="2" height="2" fill="black"/>
<rect x="453.68" y="312.8" width="8" height="2" fill="black"/>
<rect x="461.68" y="314.8" width="2" height="2" fill="black"/>
<rect x="449.68" y="290.8" width="2" height="2" fill="black"/>
<rect x="427.68" y="290.8" width="2" height="2" fill="black"/>
<rect x="447.68" y="288.8" width="2" height="2" fill="black"/>
<rect x="417.68" y="316.8" width="48" height="2" fill="black"/>
<rect x="419.68" y="291.8" width="8" height="2" fill="black"/>
<rect x="416.056" y="378.492" width="56.888" height="10.94" fill="#A8A8A8"/>
<rect x="431.372" y="358.8" width="19.692" height="2.188" fill="black"/>
<rect x="413.868" y="360.988" width="6.564" height="2.188" fill="black"/>
<rect x="455.44" y="362.082" width="15.316" height="2.188" fill="black"/>
<rect x="475.132" y="368.646" width="2.188" height="17.504" fill="black"/>
<rect x="470.756" y="386.15" width="2.188" height="3.282" fill="black"/>
<rect x="431.372" y="360.988" width="19.692" height="17.504" fill="#F0F0F0"/>
<rect x="416.056" y="364.27" width="13.128" height="18.598" fill="#F0F0F0"/>
<rect x="413.868" y="363.176" width="6.564" height="17.504" fill="#F0F0F0"/>
<rect x="457.628" y="364.27" width="13.128" height="17.504" fill="#F0F0F0"/>
<rect x="470.756" y="366.458" width="2.188" height="17.504" fill="#C8C8C8"/>
<rect x="472.944" y="368.646" width="2.188" height="17.504" fill="#A8A8A8"/>
<rect x="457.628" y="387.244" width="8.752" height="2.188" fill="#2D3648"/>
<rect x="429.184" y="387.244" width="8.752" height="2.188" fill="#2D3648"/>
<rect x="420.432" y="364.27" width="2.188" height="18.598" fill="#A8A8A8"/>
<rect x="413.868" y="380.68" width="2.188" height="6.564" fill="black"/>
<rect x="411.68" y="363.176" width="2.188" height="17.504" fill="black"/>
<rect x="416.056" y="380.68" width="4.376" height="2.188" fill="#A8A8A8"/>
<rect x="451.064" y="360.988" width="2.188" height="17.504" fill="#1C274C"/>
<rect x="453.252" y="363.176" width="2.188" height="16.41" fill="#1C274C"/>
<rect x="426.996" y="364.27" width="2.188" height="18.598" fill="#1C274C"/>
<rect x="455.44" y="364.27" width="2.188" height="16.41" fill="#1C274C"/>
<rect x="429.184" y="363.176" width="2.188" height="17.504" fill="#1C274C"/>
<rect x="436.842" y="378.492" width="12.034" height="2.188" fill="#1C274C"/>
<rect x="437.936" y="380.68" width="14.222" height="2.188" fill="#1C274C"/>
<rect x="472.944" y="386.15" width="2.188" height="2.188" fill="black"/>
<rect x="472.944" y="366.458" width="2.188" height="2.188" fill="black"/>
<rect x="470.756" y="364.27" width="2.188" height="2.188" fill="black"/>
<rect x="429.184" y="385.056" width="8.752" height="2.188" fill="black"/>
<rect x="455.44" y="387.244" width="2.188" height="2.188" fill="black"/>
<rect x="437.936" y="387.244" width="2.188" height="2.188" fill="black"/>
<rect x="426.996" y="387.244" width="2.188" height="2.188" fill="black"/>
<rect x="416.056" y="387.244" width="2.188" height="2.188" fill="black"/>
<rect x="457.628" y="385.056" width="8.752" height="2.188" fill="black"/>
<rect x="466.38" y="387.244" width="2.188" height="2.188" fill="black"/>
<rect x="453.252" y="360.988" width="2.188" height="2.188" fill="black"/>
<rect x="429.184" y="360.988" width="2.188" height="2.188" fill="black"/>
<rect x="451.064" y="358.8" width="2.188" height="2.188" fill="black"/>
<rect x="418.244" y="389.432" width="52.512" height="2.188" fill="black"/>
<rect x="420.432" y="362.082" width="8.752" height="2.188" fill="black"/>
<path d="M400.68 78.8V108.8" stroke="#FF55B1"/>
<path d="M397.68 78.8H403.68" stroke="#FF55B1"/>
<path d="M397.68 108.8H403.68" stroke="#FF55B1"/>
<rect x="372.68" y="83.8" width="21" height="20" rx="3.5" fill="#FF55B1"/>
<path d="M379.584 97.9094C379.048 97.9094 378.569 97.817 378.147 97.6321C377.728 97.4472 377.396 97.1907 377.151 96.8625C376.909 96.5318 376.778 96.149 376.76 95.7141H377.987C378.002 95.9511 378.082 96.1568 378.225 96.3313C378.371 96.5032 378.561 96.636 378.795 96.7297C379.03 96.8235 379.29 96.8704 379.577 96.8704C379.892 96.8704 380.17 96.8157 380.413 96.7063C380.657 96.5969 380.849 96.4446 380.987 96.2493C381.125 96.0514 381.194 95.8235 381.194 95.5657C381.194 95.2974 381.125 95.0618 380.987 94.8586C380.851 94.6529 380.652 94.4915 380.389 94.3743C380.129 94.2571 379.814 94.1985 379.444 94.1985H378.768V93.2141H379.444C379.741 93.2141 380.001 93.1607 380.225 93.054C380.452 92.9472 380.629 92.7987 380.756 92.6086C380.884 92.4159 380.948 92.1907 380.948 91.9329C380.948 91.6855 380.892 91.4706 380.78 91.2883C380.67 91.1034 380.514 90.9589 380.311 90.8547C380.11 90.7506 379.873 90.6985 379.6 90.6985C379.34 90.6985 379.096 90.7467 378.87 90.843C378.646 90.9368 378.463 91.0722 378.323 91.2493C378.182 91.4237 378.107 91.6334 378.096 91.8782H376.928C376.941 91.4459 377.069 91.0657 377.311 90.7375C377.556 90.4094 377.879 90.1529 378.28 89.968C378.681 89.7831 379.126 89.6907 379.616 89.6907C380.129 89.6907 380.571 89.7909 380.944 89.9915C381.319 90.1894 381.608 90.4537 381.811 90.7844C382.017 91.1152 382.118 91.4771 382.116 91.8704C382.118 92.3183 381.993 92.6985 381.741 93.011C381.491 93.3235 381.157 93.5331 380.741 93.6399V93.7024C381.272 93.7831 381.683 93.9941 381.975 94.3352C382.269 94.6764 382.415 95.0995 382.413 95.6047C382.415 96.0448 382.293 96.4394 382.045 96.7883C381.801 97.1373 381.466 97.412 381.041 97.6125C380.617 97.8105 380.131 97.9094 379.584 97.9094ZM386.784 97.9329C386.167 97.9303 385.64 97.7675 385.202 97.4446C384.765 97.1217 384.43 96.6516 384.198 96.0344C383.967 95.4172 383.851 94.6737 383.851 93.804C383.851 92.9368 383.967 92.1959 384.198 91.5813C384.433 90.9667 384.769 90.498 385.206 90.175C385.646 89.8521 386.172 89.6907 386.784 89.6907C387.396 89.6907 387.921 89.8534 388.358 90.179C388.796 90.5019 389.131 90.9706 389.362 91.5852C389.597 92.1972 389.714 92.9368 389.714 93.804C389.714 94.6764 389.598 95.4211 389.366 96.0383C389.135 96.6529 388.8 97.123 388.362 97.4485C387.925 97.7714 387.399 97.9329 386.784 97.9329ZM386.784 96.8899C387.326 96.8899 387.749 96.6256 388.054 96.0969C388.361 95.5683 388.515 94.804 388.515 93.804C388.515 93.1399 388.444 92.5787 388.304 92.1204C388.166 91.6594 387.967 91.3105 387.706 91.0735C387.448 90.8339 387.141 90.7141 386.784 90.7141C386.245 90.7141 385.822 90.9797 385.515 91.511C385.207 92.0422 385.052 92.8066 385.05 93.804C385.05 94.4706 385.119 95.0344 385.257 95.4954C385.398 95.9537 385.597 96.3014 385.855 96.5383C386.112 96.7727 386.422 96.8899 386.784 96.8899Z" fill="white"/>
<path d="M411.68 67.8H471.68" stroke="#FF55B1"/>
<path d="M411.68 64.8V70.8" stroke="#FF55B1"/>
<path d="M471.68 64.8V70.8" stroke="#FF55B1"/>
<rect x="431.68" y="40.8" width="21" height="20" rx="3.5" fill="#FF55B1"/>
<path d="M438.641 54.9094C438.284 54.9042 437.932 54.8391 437.586 54.7141C437.242 54.5891 436.93 54.3808 436.648 54.0891C436.367 53.7974 436.142 53.4055 435.973 52.9133C435.806 52.4211 435.723 51.8066 435.723 51.0696C435.723 50.3717 435.792 49.7519 435.93 49.2102C436.07 48.6685 436.272 48.2115 436.535 47.8391C436.798 47.4641 437.116 47.179 437.488 46.9836C437.861 46.7883 438.279 46.6907 438.742 46.6907C439.219 46.6907 439.642 46.7844 440.012 46.9719C440.381 47.1594 440.681 47.4185 440.91 47.7493C441.142 48.08 441.289 48.4563 441.351 48.8782H440.16C440.079 48.5448 439.919 48.2727 439.68 48.0618C439.44 47.8508 439.128 47.7454 438.742 47.7454C438.156 47.7454 437.699 48.0006 437.371 48.511C437.046 49.0214 436.881 49.731 436.879 50.6399H436.937C437.075 50.4133 437.245 50.2206 437.445 50.0618C437.648 49.9003 437.875 49.7766 438.125 49.6907C438.378 49.6021 438.643 49.5579 438.922 49.5579C439.385 49.5579 439.805 49.6711 440.18 49.8977C440.557 50.1217 440.858 50.4316 441.082 50.8274C441.306 51.2232 441.418 51.6764 441.418 52.1868C441.418 52.6972 441.302 53.1594 441.07 53.5735C440.841 53.9875 440.518 54.3157 440.101 54.5579C439.685 54.7974 439.198 54.9146 438.641 54.9094ZM438.637 53.8938C438.944 53.8938 439.219 53.8183 439.461 53.6672C439.703 53.5162 439.894 53.3131 440.035 53.0579C440.176 52.8027 440.246 52.5175 440.246 52.2024C440.246 51.8951 440.177 51.6152 440.039 51.3625C439.904 51.1099 439.716 50.9094 439.476 50.761C439.24 50.6125 438.969 50.5383 438.664 50.5383C438.432 50.5383 438.217 50.5826 438.019 50.6711C437.824 50.7597 437.652 50.8821 437.504 51.0383C437.355 51.1946 437.238 51.3743 437.152 51.5774C437.069 51.7779 437.027 51.9902 437.027 52.2141C437.027 52.5136 437.096 52.7909 437.234 53.0461C437.375 53.3014 437.566 53.5071 437.809 53.6633C438.053 53.817 438.329 53.8938 438.637 53.8938ZM445.736 54.9329C445.119 54.9303 444.591 54.7675 444.154 54.4446C443.716 54.1217 443.382 53.6516 443.15 53.0344C442.918 52.4172 442.802 51.6737 442.802 50.804C442.802 49.9368 442.918 49.1959 443.15 48.5813C443.384 47.9667 443.72 47.498 444.158 47.175C444.598 46.8521 445.124 46.6907 445.736 46.6907C446.348 46.6907 446.873 46.8534 447.31 47.179C447.748 47.5019 448.082 47.9706 448.314 48.5852C448.548 49.1972 448.666 49.9368 448.666 50.804C448.666 51.6764 448.55 52.4211 448.318 53.0383C448.086 53.6529 447.752 54.123 447.314 54.4485C446.877 54.7714 446.35 54.9329 445.736 54.9329ZM445.736 53.8899C446.278 53.8899 446.701 53.6256 447.005 53.0969C447.313 52.5683 447.466 51.804 447.466 50.804C447.466 50.1399 447.396 49.5787 447.255 49.1204C447.117 48.6594 446.918 48.3105 446.658 48.0735C446.4 47.8339 446.093 47.7141 445.736 47.7141C445.197 47.7141 444.774 47.9797 444.466 48.511C444.159 49.0422 444.004 49.8066 444.002 50.804C444.002 51.4706 444.071 52.0344 444.209 52.4954C444.349 52.9537 444.548 53.3014 444.806 53.5383C445.064 53.7727 445.374 53.8899 445.736 53.8899Z" fill="white"/>
<path d="M415.68 515.62L433.68 513.62L439.68 519.62V533.62L433.68 539.62H419.68L415.68 537.62L413.68 535.62V517.62L415.68 515.62Z" fill="#9F6900"/>
<path d="M433.68 539.62L423.68 539.62L423.68 537.62L421.68 537.62L421.68 535.62L419.68 535.62L419.68 533.62L417.68 533.62L417.68 519.62L419.68 519.62L419.68 517.62L419.68 515.62L421.68 513.62L433.68 513.62L437.68 515.62L439.68 517.62L439.68 535.62L437.68 537.62L433.68 539.62Z" fill="#FFD600"/>
<rect x="421.68" y="511.62" width="14" height="2" fill="black"/>
<rect x="439.68" y="519.62" width="2" height="14" fill="black"/>
<rect x="411.68" y="519.62" width="2" height="14" fill="black"/>
<rect x="413.68" y="515.62" width="2" height="4" fill="black"/>
<rect x="415.68" y="513.62" width="4" height="2" fill="black"/>
<rect x="413.68" y="533.62" width="2" height="4" fill="black"/>
<rect x="419.68" y="513.62" width="2" height="2" fill="black"/>
<rect x="415.68" y="537.62" width="4" height="2" fill="black"/>
<rect x="433.68" y="513.62" width="4" height="2" fill="black"/>
<rect x="433.68" y="537.62" width="4" height="2" fill="black"/>
<rect x="437.68" y="515.62" width="2" height="4" fill="black"/>
<rect x="437.68" y="533.62" width="2" height="4" fill="black"/>
<rect x="419.68" y="539.62" width="14" height="2" fill="black"/>
<path d="M426.68 519.62H429.08H430.68V533.62H426.68V519.62Z" fill="#9F6900"/>
<path d="M400.68 511.62V541.62" stroke="#FF55B1"/>
<path d="M397.68 511.62H403.68" stroke="#FF55B1"/>
<path d="M397.68 541.62H403.68" stroke="#FF55B1"/>
<rect x="372.68" y="516.62" width="21" height="20" rx="3.5" fill="#FF55B1"/>
<path d="M379.584 530.729C379.048 530.729 378.569 530.637 378.147 530.452C377.728 530.267 377.396 530.011 377.151 529.683C376.909 529.352 376.778 528.969 376.76 528.534H377.987C378.002 528.771 378.082 528.977 378.225 529.151C378.371 529.323 378.561 529.456 378.795 529.55C379.03 529.644 379.29 529.69 379.577 529.69C379.892 529.69 380.17 529.636 380.413 529.526C380.657 529.417 380.849 529.265 380.987 529.069C381.125 528.871 381.194 528.644 381.194 528.386C381.194 528.118 381.125 527.882 380.987 527.679C380.851 527.473 380.652 527.312 380.389 527.194C380.129 527.077 379.814 527.019 379.444 527.019H378.768V526.034H379.444C379.741 526.034 380.001 525.981 380.225 525.874C380.452 525.767 380.629 525.619 380.756 525.429C380.884 525.236 380.948 525.011 380.948 524.753C380.948 524.506 380.892 524.291 380.78 524.108C380.67 523.924 380.514 523.779 380.311 523.675C380.11 523.571 379.873 523.519 379.6 523.519C379.34 523.519 379.096 523.567 378.87 523.663C378.646 523.757 378.463 523.892 378.323 524.069C378.182 524.244 378.107 524.453 378.096 524.698H376.928C376.941 524.266 377.069 523.886 377.311 523.558C377.556 523.229 377.879 522.973 378.28 522.788C378.681 522.603 379.126 522.511 379.616 522.511C380.129 522.511 380.571 522.611 380.944 522.812C381.319 523.009 381.608 523.274 381.811 523.604C382.017 523.935 382.118 524.297 382.116 524.69C382.118 525.138 381.993 525.519 381.741 525.831C381.491 526.144 381.157 526.353 380.741 526.46V526.522C381.272 526.603 381.683 526.814 381.975 527.155C382.269 527.496 382.415 527.92 382.413 528.425C382.415 528.865 382.293 529.259 382.045 529.608C381.801 529.957 381.466 530.232 381.041 530.433C380.617 530.631 380.131 530.729 379.584 530.729ZM386.784 530.753C386.167 530.75 385.64 530.588 385.202 530.265C384.765 529.942 384.43 529.472 384.198 528.854C383.967 528.237 383.851 527.494 383.851 526.624C383.851 525.757 383.967 525.016 384.198 524.401C384.433 523.787 384.769 523.318 385.206 522.995C385.646 522.672 386.172 522.511 386.784 522.511C387.396 522.511 387.921 522.674 388.358 522.999C388.796 523.322 389.131 523.791 389.362 524.405C389.597 525.017 389.714 525.757 389.714 526.624C389.714 527.496 389.598 528.241 389.366 528.858C389.135 529.473 388.8 529.943 388.362 530.269C387.925 530.591 387.399 530.753 386.784 530.753ZM386.784 529.71C387.326 529.71 387.749 529.446 388.054 528.917C388.361 528.388 388.515 527.624 388.515 526.624C388.515 525.96 388.444 525.399 388.304 524.94C388.166 524.479 387.967 524.131 387.706 523.894C387.448 523.654 387.141 523.534 386.784 523.534C386.245 523.534 385.822 523.8 385.515 524.331C385.207 524.862 385.052 525.627 385.05 526.624C385.05 527.291 385.119 527.854 385.257 528.315C385.398 528.774 385.597 529.121 385.855 529.358C386.112 529.593 386.422 529.71 386.784 529.71Z" fill="white"/>
<path d="M411.68 498.62H441.68" stroke="#FF55B1"/>
<path d="M411.68 495.62V501.62" stroke="#FF55B1"/>
<path d="M441.68 495.62V501.62" stroke="#FF55B1"/>
<rect x="416.68" y="471.62" width="21" height="20" rx="3.5" fill="#FF55B1"/>
<path d="M423.584 485.729C423.048 485.729 422.569 485.637 422.147 485.452C421.728 485.267 421.396 485.011 421.151 484.683C420.909 484.352 420.778 483.969 420.76 483.534H421.987C422.002 483.771 422.082 483.977 422.225 484.151C422.371 484.323 422.561 484.456 422.795 484.55C423.03 484.644 423.29 484.69 423.577 484.69C423.892 484.69 424.17 484.636 424.413 484.526C424.657 484.417 424.849 484.265 424.987 484.069C425.125 483.871 425.194 483.644 425.194 483.386C425.194 483.118 425.125 482.882 424.987 482.679C424.851 482.473 424.652 482.312 424.389 482.194C424.129 482.077 423.814 482.019 423.444 482.019H422.768V481.034H423.444C423.741 481.034 424.001 480.981 424.225 480.874C424.452 480.767 424.629 480.619 424.756 480.429C424.884 480.236 424.948 480.011 424.948 479.753C424.948 479.506 424.892 479.291 424.78 479.108C424.67 478.924 424.514 478.779 424.311 478.675C424.11 478.571 423.873 478.519 423.6 478.519C423.34 478.519 423.096 478.567 422.87 478.663C422.646 478.757 422.463 478.892 422.323 479.069C422.182 479.244 422.107 479.453 422.096 479.698H420.928C420.941 479.266 421.069 478.886 421.311 478.558C421.556 478.229 421.879 477.973 422.28 477.788C422.681 477.603 423.126 477.511 423.616 477.511C424.129 477.511 424.571 477.611 424.944 477.812C425.319 478.009 425.608 478.274 425.811 478.604C426.017 478.935 426.118 479.297 426.116 479.69C426.118 480.138 425.993 480.519 425.741 480.831C425.491 481.144 425.157 481.353 424.741 481.46V481.522C425.272 481.603 425.683 481.814 425.975 482.155C426.269 482.496 426.415 482.92 426.413 483.425C426.415 483.865 426.293 484.259 426.045 484.608C425.801 484.957 425.466 485.232 425.041 485.433C424.617 485.631 424.131 485.729 423.584 485.729ZM430.784 485.753C430.167 485.75 429.64 485.588 429.202 485.265C428.765 484.942 428.43 484.472 428.198 483.854C427.967 483.237 427.851 482.494 427.851 481.624C427.851 480.757 427.967 480.016 428.198 479.401C428.433 478.787 428.769 478.318 429.206 477.995C429.646 477.672 430.172 477.511 430.784 477.511C431.396 477.511 431.921 477.674 432.358 477.999C432.796 478.322 433.131 478.791 433.362 479.405C433.597 480.017 433.714 480.757 433.714 481.624C433.714 482.496 433.598 483.241 433.366 483.858C433.135 484.473 432.8 484.943 432.362 485.269C431.925 485.591 431.399 485.753 430.784 485.753ZM430.784 484.71C431.326 484.71 431.749 484.446 432.054 483.917C432.361 483.388 432.515 482.624 432.515 481.624C432.515 480.96 432.444 480.399 432.304 479.94C432.166 479.479 431.967 479.131 431.706 478.894C431.448 478.654 431.141 478.534 430.784 478.534C430.245 478.534 429.822 478.8 429.515 479.331C429.207 479.862 429.052 480.627 429.05 481.624C429.05 482.291 429.119 482.854 429.257 483.315C429.398 483.774 429.597 484.121 429.855 484.358C430.112 484.593 430.422 484.71 430.784 484.71Z" fill="white"/>
<defs>
<clipPath id="clip0_3168_120632">
<rect width="200" height="450" fill="white" transform="translate(96.6799 50.8)"/>
</clipPath>
</defs>
</svg>
