<svg width="527" height="361" viewBox="0 0 527 361" fill="none" xmlns="http://www.w3.org/2000/svg">
<rect width="527" height="360" transform="translate(0 0.800049)" fill="#F5F5F5"/>
<rect x="93" y="112.401" width="14" height="46" fill="#515F4A"/>
<path fill-rule="evenodd" clip-rule="evenodd" d="M105 116.401H95V118.401H93V120.401H95V118.401H105V120.401H107V118.401H105V116.401ZM105 125.401H95V127.401H93V129.401H95V127.401H105V129.401H107V127.401H105V125.401ZM95 134.401H105V136.401H95V134.401ZM95 136.401V138.401H93V136.401H95ZM105 136.401H107V138.401H105V136.401ZM105 143.401H95V145.401H93V147.401H95V145.401H105V147.401H107V145.401H105V143.401ZM95 152.401H105V154.401H95V152.401ZM95 154.401V156.401H93V154.401H95ZM105 154.401H107V156.401H105V154.401Z" fill="white" fill-opacity="0.2"/>
<path fill-rule="evenodd" clip-rule="evenodd" d="M105 114.401H95V116.401H93V118.401H95V116.401H105V118.401H107V116.401H105V114.401ZM105 123.401H95V125.401H93V127.401H95V125.401H105V127.401H107V125.401H105V123.401ZM95 132.401H105V134.401H95V132.401ZM95 134.401V136.401H93V134.401H95ZM105 134.401H107V136.401H105V134.401ZM105 141.401H95V143.401H93V145.401H95V143.401H105V145.401H107V143.401H105V141.401ZM95 150.401H105V152.401H95V150.401ZM95 152.401V154.401H93V152.401H95ZM105 152.401H107V154.401H105V152.401Z" fill="#35442B"/>
<path fill-rule="evenodd" clip-rule="evenodd" d="M93 110.401H107V112.401H93V110.401ZM93 158.401V112.401H91V158.401H93ZM107 158.401V160.401H93V158.401H107ZM107 158.401V112.401H109V158.401H107Z" fill="black"/>
<rect x="125" y="112.401" width="14" height="46" fill="#515F4A"/>
<path fill-rule="evenodd" clip-rule="evenodd" d="M137 116.401H127V118.401H125V120.401H127V118.401H137V120.401H139V118.401H137V116.401ZM137 125.401H127V127.401H125V129.401H127V127.401H137V129.401H139V127.401H137V125.401ZM127 134.401H137V136.401H127V134.401ZM127 136.401V138.401H125V136.401H127ZM137 136.401H139V138.401H137V136.401ZM137 143.401H127V145.401H125V147.401H127V145.401H137V147.401H139V145.401H137V143.401ZM127 152.401H137V154.401H127V152.401ZM127 154.401V156.401H125V154.401H127ZM137 154.401H139V156.401H137V154.401Z" fill="white" fill-opacity="0.2"/>
<path fill-rule="evenodd" clip-rule="evenodd" d="M137 114.401H127V116.401H125V118.401H127V116.401H137V118.401H139V116.401H137V114.401ZM137 123.401H127V125.401H125V127.401H127V125.401H137V127.401H139V125.401H137V123.401ZM127 132.401H137V134.401H127V132.401ZM127 134.401V136.401H125V134.401H127ZM137 134.401H139V136.401H137V134.401ZM137 141.401H127V143.401H125V145.401H127V143.401H137V145.401H139V143.401H137V141.401ZM127 150.401H137V152.401H127V150.401ZM127 152.401V154.401H125V152.401H127ZM137 152.401H139V154.401H137V152.401Z" fill="#35442B"/>
<path fill-rule="evenodd" clip-rule="evenodd" d="M125 110.401H139V112.401H125V110.401ZM125 158.401V112.401H123V158.401H125ZM139 158.401V160.401H125V158.401H139ZM139 158.401V112.401H141V158.401H139Z" fill="black"/>
<path d="M99 123.158L103 119.401H129L133 123.158V150.401H99V123.158Z" fill="#42721B"/>
<path fill-rule="evenodd" clip-rule="evenodd" d="M129 118.401H103V120.401H101V122.401H99V150.401H101V152.401H131V150.401H133V122.401H131V120.401H129V118.401ZM129 120.401V122.401H131V150.401H101V122.401H103V120.401H129Z" fill="#5C972C"/>
<path fill-rule="evenodd" clip-rule="evenodd" d="M129 116.401H103V118.401H101V120.401H99V122.401H97V150.401H99V152.401H101V154.401H131V152.401H133V150.401H135V123.401H133V150.401H131V152.401H101V150.401H99V122.401H101V120.401H103V118.401H129V120.401H131V122.401H133V120.401H131V118.401H129V116.401Z" fill="black"/>
<path d="M109 128.401H123L129 134.401V148.401H103V134.401L109 128.401Z" fill="#6CAC35"/>
<path fill-rule="evenodd" clip-rule="evenodd" d="M123 126.401H109V128.401H107V130.401H105V132.401H103V134.401H101V146.401H103V148.401H105V150.401H127V148.401H129V146.401H131V134.401H129V132.401H127V130.401H125V128.401H123V126.401ZM123 128.401V130.401H125V132.401H127V134.401H129V146.401H127V148.401H105V146.401H103V134.401H105V132.401H107V130.401H109V128.401H123Z" fill="black"/>
<path fill-rule="evenodd" clip-rule="evenodd" d="M121 130.401H111V132.401H109V134.401H107V136.401H105V144.401H107V146.401H125V144.401H127V136.401H125V134.401H123V132.401H121V130.401Z" fill="#5D9031"/>
<rect x="112" y="122.401" width="2" height="4" fill="#A7A7A7"/>
<rect x="118" y="122.401" width="2" height="4" fill="#9D9D9D"/>
<rect x="114" y="122.401" width="2" height="4" fill="#CFCFCF"/>
<rect x="116" y="122.401" width="2" height="4" fill="#5D5D5D"/>
<rect x="114" y="112.401" width="2" height="10" fill="#D9D9D9"/>
<rect x="116" y="112.401" width="2" height="10" fill="#B4B4B4"/>
<path fill-rule="evenodd" clip-rule="evenodd" d="M114 110.401H118V112.401H114V110.401ZM112 122.401H114V112.401H112V122.401ZM120 122.401H122V128.401H120H112H110V122.401H112V126.401H120V122.401ZM120 122.401H118V112.401H120V122.401Z" fill="black"/>
<rect x="111" y="135.401" width="10" height="2" fill="#9EFF00"/>
<rect x="203" y="112.401" width="14" height="46" fill="#474D6A"/>
<path fill-rule="evenodd" clip-rule="evenodd" d="M215 116.401H205V118.401H203V120.401H205V118.401H215V120.401H217V118.401H215V116.401ZM215 125.401H205V127.401H203V129.401H205V127.401H215V129.401H217V127.401H215V125.401ZM205 134.401H215V136.401H205V134.401ZM205 136.401V138.401H203V136.401H205ZM215 136.401H217V138.401H215V136.401ZM215 143.401H205V145.401H203V147.401H205V145.401H215V147.401H217V145.401H215V143.401ZM205 152.401H215V154.401H205V152.401ZM205 154.401V156.401H203V154.401H205ZM215 154.401H217V156.401H215V154.401Z" fill="white" fill-opacity="0.2"/>
<path fill-rule="evenodd" clip-rule="evenodd" d="M215 114.401H205V116.401H203V118.401H205V116.401H215V118.401H217V116.401H215V114.401ZM215 123.401H205V125.401H203V127.401H205V125.401H215V127.401H217V125.401H215V123.401ZM205 132.401H215V134.401H205V132.401ZM205 134.401V136.401H203V134.401H205ZM215 134.401H217V136.401H215V134.401ZM215 141.401H205V143.401H203V145.401H205V143.401H215V145.401H217V143.401H215V141.401ZM205 150.401H215V152.401H205V150.401ZM205 152.401V154.401H203V152.401H205ZM215 152.401H217V154.401H215V152.401Z" fill="#2B3844"/>
<path fill-rule="evenodd" clip-rule="evenodd" d="M203 110.401H217V112.401H203V110.401ZM203 158.401V112.401H201V158.401H203ZM217 158.401V160.401H203V158.401H217ZM217 158.401V112.401H219V158.401H217Z" fill="black"/>
<rect x="235" y="112.401" width="14" height="46" fill="#474D6A"/>
<path fill-rule="evenodd" clip-rule="evenodd" d="M247 116.401H237V118.401H235V120.401H237V118.401H247V120.401H249V118.401H247V116.401ZM247 125.401H237V127.401H235V129.401H237V127.401H247V129.401H249V127.401H247V125.401ZM237 134.401H247V136.401H237V134.401ZM237 136.401V138.401H235V136.401H237ZM247 136.401H249V138.401H247V136.401ZM247 143.401H237V145.401H235V147.401H237V145.401H247V147.401H249V145.401H247V143.401ZM237 152.401H247V154.401H237V152.401ZM237 154.401V156.401H235V154.401H237ZM247 154.401H249V156.401H247V154.401Z" fill="white" fill-opacity="0.2"/>
<path fill-rule="evenodd" clip-rule="evenodd" d="M247 114.401H237V116.401H235V118.401H237V116.401H247V118.401H249V116.401H247V114.401ZM247 123.401H237V125.401H235V127.401H237V125.401H247V127.401H249V125.401H247V123.401ZM237 132.401H247V134.401H237V132.401ZM237 134.401V136.401H235V134.401H237ZM247 134.401H249V136.401H247V134.401ZM247 141.401H237V143.401H235V145.401H237V143.401H247V145.401H249V143.401H247V141.401ZM237 150.401H247V152.401H237V150.401ZM237 152.401V154.401H235V152.401H237ZM247 152.401H249V154.401H247V152.401Z" fill="#2B3844"/>
<path fill-rule="evenodd" clip-rule="evenodd" d="M235 110.401H249V112.401H235V110.401ZM235 158.401V112.401H233V158.401H235ZM249 158.401V160.401H235V158.401H249ZM249 158.401V112.401H251V158.401H249Z" fill="black"/>
<path d="M209 123.158L213 119.401H239L243 123.158V150.401H209V123.158Z" fill="#3683DD"/>
<path fill-rule="evenodd" clip-rule="evenodd" d="M239 118.401H213V120.401H211V122.401H209V150.401H211V152.401H241V150.401H243V122.401H241V120.401H239V118.401ZM239 120.401V122.401H241V150.401H211V122.401H213V120.401H239Z" fill="#7BBAFF"/>
<path fill-rule="evenodd" clip-rule="evenodd" d="M239 116.401H213V118.401H211V120.401H209V122.401H207V150.401H209V152.401H211V154.401H241V152.401H243V150.401H245V123.401H243V150.401H241V152.401H211V150.401H209V122.401H211V120.401H213V118.401H239V120.401H241V122.401H243V120.401H241V118.401H239V116.401Z" fill="black"/>
<path d="M219 128.401H233L239 134.401V148.401H213V134.401L219 128.401Z" fill="#88C0FD"/>
<path fill-rule="evenodd" clip-rule="evenodd" d="M233 126.401H219V128.401H217V130.401H215V132.401H213V134.401H211V146.401H213V148.401H215V150.401H237V148.401H239V146.401H241V134.401H239V132.401H237V130.401H235V128.401H233V126.401ZM233 128.401V130.401H235V132.401H237V134.401H239V146.401H237V148.401H215V146.401H213V134.401H215V132.401H217V130.401H219V128.401H233Z" fill="black"/>
<path fill-rule="evenodd" clip-rule="evenodd" d="M231 130.401H221V132.401H219V134.401H217V136.401H215V144.401H217V146.401H235V144.401H237V136.401H235V134.401H233V132.401H231V130.401Z" fill="#5395E3"/>
<rect x="222" y="122.401" width="2" height="4" fill="#A7A7A7"/>
<rect x="228" y="122.401" width="2" height="4" fill="#9D9D9D"/>
<rect x="224" y="122.401" width="2" height="4" fill="#CFCFCF"/>
<rect x="226" y="122.401" width="2" height="4" fill="#5D5D5D"/>
<rect x="224" y="112.401" width="2" height="10" fill="#D9D9D9"/>
<rect x="226" y="112.401" width="2" height="10" fill="#B4B4B4"/>
<path fill-rule="evenodd" clip-rule="evenodd" d="M224 110.401H228V112.401H224V110.401ZM222 122.401H224V112.401H222V122.401ZM230 122.401H232V128.401H230H222H220V122.401H222V126.401H230V122.401ZM230 122.401H228V112.401H230V122.401Z" fill="black"/>
<rect x="221" y="135.401" width="10" height="2" fill="#00FFFF"/>
<g clip-path="url(#clip0_3531_31206)">
<g clip-path="url(#clip1_3531_31206)">
<path fill-rule="evenodd" clip-rule="evenodd" d="M313 110.401H335V112.401H313V110.401ZM313 112.401V134.401H311V112.401H313ZM335 112.401V134.401H337V112.401H335Z" fill="#212121"/>
<rect x="313" y="112.401" width="22" height="22" fill="#C4A374"/>
<path d="M313 112.401H315V114.401H317V130.401H331V114.401H333V112.401H335V134.401H313V112.401Z" fill="#A88047"/>
</g>
<g clip-path="url(#clip2_3531_31206)">
<path fill-rule="evenodd" clip-rule="evenodd" d="M359 110.401H337V112.401H359V134.401H361V112.401H359V110.401Z" fill="#212121"/>
<rect x="337" y="112.401" width="22" height="22" fill="#C4A374"/>
<path d="M337 112.401H339V114.401H341V130.401H355V114.401H357V112.401H359V134.401H337V112.401Z" fill="#A88047"/>
</g>
<g clip-path="url(#clip3_3531_31206)">
<path fill-rule="evenodd" clip-rule="evenodd" d="M359 134.401H313V136.401H311V158.401H313V160.401H359V158.401H361V136.401H359V134.401ZM359 136.401V158.401H313V136.401H359Z" fill="#212121"/>
<rect x="313" y="136.401" width="46" height="22" fill="#C4A374"/>
<path d="M313 136.401H315V138.401H317V154.401H355V138.401H357V136.401H359V158.401H313V136.401Z" fill="#A88047"/>
</g>
</g>
<path d="M93 222.401H101L107 228.401L103 234.401L101 230.401L99 228.401L93 226.401V222.401Z" fill="#9D9D9D"/>
<path fill-rule="evenodd" clip-rule="evenodd" d="M109 224.401L103 234.401V268.401H139V226.401H136L134 224.401H109ZM132 229.401H116V233.401H132V229.401Z" fill="#FFCC19"/>
<path fill-rule="evenodd" clip-rule="evenodd" d="M101 220.401H93V222.401H91V226.401H93V228.401H99V230.401H101V234.401H103V236.401H101V266.401H103V268.401H105V270.401H137V268.401H139V266.401H141V228.401H139V226.401H136V224.401H134V222.401H109V224.401H107V226.401H105V224.401H103V222.401H101V220.401ZM101 222.401V224.401H103V226.401H105V228.401H109V226.401V224.401H134V226.401H136V228.401H139V266.401H137V268.401H105V266.401H103V236.401H105V234.401H103V230.401H101V228.401H99V226.401H93V222.401H101ZM132 227.401H116V229.401H114V233.401H116V235.401H132V233.401H134V229.401H132V227.401ZM132 229.401V233.401H116V229.401H132Z" fill="black"/>
<path fill-rule="evenodd" clip-rule="evenodd" d="M103 258.401V252.401H99L99 258.401H93V262.401H99L99 268.401H103V262.401H109V258.401H103Z" fill="#30B900"/>
<path fill-rule="evenodd" clip-rule="evenodd" d="M103 250.401H99V252.401H97V256.401H93V258.401H91V262.401H93V264.401H97V268.401H99V270.401H103V268.401H105V264.401H109V262.401H111V258.401H109V256.401H105V252.401H103V250.401ZM103 252.401V256.401V258.401H109V262.401H105H103V264.401V268.401H99V264.401V262.401H93V258.401H99V256.401V252.401H103Z" fill="black"/>
<rect x="103" y="228.401" width="6" height="2" fill="#2D3648"/>
<rect x="103" y="230.401" width="4" height="2" fill="#2D3648"/>
<rect x="103" y="232.401" width="2" height="2" fill="#2D3648"/>
<rect x="103" y="236.401" width="2" height="16" fill="#DE8811"/>
<rect x="105" y="232.401" width="2" height="24" fill="#DE8811"/>
<rect x="105" y="264.401" width="2" height="4" fill="#DE8811"/>
<rect x="107" y="264.401" width="2" height="4" fill="#DE8811"/>
<rect x="107" y="230.401" width="2" height="4" fill="#DE8811"/>
<rect x="111" y="224.401" width="2" height="2" fill="#DE8811"/>
<rect x="109" y="266.401" width="2" height="2" fill="#DE8811"/>
<rect x="109" y="224.401" width="2" height="8" fill="#DE8811"/>
<rect x="116" y="235.401" width="16" height="2" fill="#F8E49D"/>
<rect x="120" y="246.401" width="8" height="2" fill="#F8E49D"/>
<rect x="118" y="256.401" width="12" height="2" fill="#F8E49D"/>
<rect x="120" y="244.401" width="8" height="2" fill="#DE8811"/>
<rect x="114" y="240.401" width="2" height="2" fill="#DE8811"/>
<rect x="114" y="258.401" width="2" height="2" fill="#DE8811"/>
<rect x="130" y="242.401" width="2" height="2" fill="#DE8811"/>
<rect x="130" y="256.401" width="2" height="2" fill="#DE8811"/>
<rect x="116" y="242.401" width="2" height="2" fill="#DE8811"/>
<rect x="116" y="256.401" width="2" height="2" fill="#DE8811"/>
<rect x="132" y="240.401" width="2" height="2" fill="#DE8811"/>
<rect x="132" y="258.401" width="2" height="2" fill="#DE8811"/>
<rect x="118" y="254.401" width="12" height="2" fill="#DE8811"/>
<rect x="118" y="244.401" width="2" height="10" fill="#DE8811"/>
<rect x="128" y="244.401" width="2" height="10" fill="#DE8811"/>
<rect x="93" y="222.401" width="8" height="2" fill="#D9D9D9"/>
<rect x="101" y="224.401" width="2" height="2" fill="#D9D9D9"/>
<rect x="103" y="226.401" width="2" height="2" fill="#D9D9D9"/>
<path fill-rule="evenodd" clip-rule="evenodd" d="M211 230.401H209V232.401H207V234.401H205V238.401H203V254.401H201V268.401H203V270.401H217V268.401H219V254.401H217V238.401H215V234.401H213V232.401H211V230.401ZM211 232.401V234.401H213V238.401H215V254.401H217V268.401H203V254.401H205V238.401H207V234.401H209V232.401H211Z" fill="black"/>
<rect x="203" y="254.401" width="14" height="14" fill="#4A5468"/>
<rect x="205" y="238.401" width="10" height="16" fill="#717D96"/>
<rect x="207" y="234.401" width="6" height="4" fill="#A0ABC0"/>
<rect x="207" y="234.401" width="2" height="4" fill="white" fill-opacity="0.3"/>
<rect x="205" y="238.401" width="4" height="16" fill="white" fill-opacity="0.3"/>
<rect x="203" y="254.401" width="4" height="14" fill="white" fill-opacity="0.3"/>
<rect x="209" y="232.401" width="2" height="2" fill="#A0ABC0"/>
<path fill-rule="evenodd" clip-rule="evenodd" d="M243 230.401H241V232.401H239V234.401H237V238.401H235V254.401H233V268.401H235V270.401H249V268.401H251V254.401H249V238.401H247V234.401H245V232.401H243V230.401ZM243 232.401V234.401H245V238.401H247V254.401H249V268.401H235V254.401H237V238.401H239V234.401H241V232.401H243Z" fill="black"/>
<rect x="235" y="254.401" width="14" height="14" fill="#4A5468"/>
<rect x="237" y="238.401" width="10" height="16" fill="#717D96"/>
<rect x="239" y="234.401" width="6" height="4" fill="#A0ABC0"/>
<rect x="239" y="234.401" width="2" height="4" fill="white" fill-opacity="0.3"/>
<rect x="237" y="238.401" width="4" height="16" fill="white" fill-opacity="0.3"/>
<rect x="235" y="254.401" width="4" height="14" fill="white" fill-opacity="0.3"/>
<rect x="241" y="232.401" width="2" height="2" fill="#A0ABC0"/>
<path fill-rule="evenodd" clip-rule="evenodd" d="M227 220.401H225V222.401H223V224.401H221V228.401H219V244.401H217V258.401H219V260.401H233V258.401H235V244.401H233V228.401H231V224.401H229V222.401H227V220.401ZM227 222.401V224.401H229V228.401H231V244.401H233V258.401H219V244.401H221V228.401H223V224.401H225V222.401H227Z" fill="black"/>
<rect x="219" y="244.401" width="14" height="14" fill="#4A5468"/>
<rect x="221" y="228.401" width="10" height="16" fill="#717D96"/>
<rect x="223" y="224.401" width="6" height="4" fill="#A0ABC0"/>
<rect x="223" y="224.401" width="2" height="4" fill="white" fill-opacity="0.3"/>
<rect x="221" y="228.401" width="4" height="16" fill="white" fill-opacity="0.3"/>
<rect x="219" y="244.401" width="4" height="14" fill="white" fill-opacity="0.3"/>
<rect x="225" y="222.401" width="2" height="2" fill="#A0ABC0"/>
<path fill-rule="evenodd" clip-rule="evenodd" d="M233 258.401V252.401H229L229 258.401H223V262.401H229L229 268.401H233V262.401H239V258.401H233Z" fill="#30B900"/>
<path fill-rule="evenodd" clip-rule="evenodd" d="M233 250.401H229V252.401H227V256.401H223V258.401H221V262.401H223V264.401H227V268.401H229V270.401H233V268.401H235V264.401H239V262.401H241V258.401H239V256.401H235V252.401H233V250.401ZM233 252.401V256.401V258.401H239V262.401H235H233V264.401V268.401H229V264.401V262.401H223V258.401H229V256.401V252.401H233Z" fill="black"/>
<rect x="42" y="125.401" width="33" height="20" rx="3.5" fill="#FF55B1"/>
<path d="M48.4786 139.51C47.989 139.51 47.5489 139.416 47.1582 139.229C46.7702 139.039 46.4603 138.778 46.2286 138.448C45.9968 138.117 45.8731 137.739 45.8575 137.315H47.0293C47.058 137.658 47.2103 137.941 47.4864 138.162C47.7624 138.384 48.0931 138.494 48.4786 138.494C48.7858 138.494 49.058 138.424 49.295 138.283C49.5345 138.14 49.722 137.944 49.8575 137.694C49.9955 137.444 50.0645 137.158 50.0645 136.838C50.0645 136.513 49.9942 136.222 49.8536 135.967C49.7129 135.712 49.5189 135.511 49.2715 135.365C49.0267 135.22 48.7455 135.145 48.4278 135.143C48.1856 135.143 47.9421 135.184 47.6973 135.268C47.4525 135.351 47.2546 135.461 47.1036 135.596L45.9981 135.432L46.4473 131.401H50.8457V132.436H47.4512L47.1973 134.674H47.2442C47.4004 134.523 47.6075 134.397 47.8653 134.295C48.1257 134.194 48.4043 134.143 48.7012 134.143C49.1882 134.143 49.6218 134.259 50.002 134.49C50.3848 134.722 50.6856 135.039 50.9043 135.44C51.1257 135.838 51.2351 136.296 51.2325 136.815C51.2351 137.333 51.1179 137.795 50.8809 138.201C50.6465 138.608 50.321 138.928 49.9043 139.162C49.4903 139.394 49.015 139.51 48.4786 139.51ZM55.5544 139.533C54.9372 139.531 54.4098 139.368 53.9723 139.045C53.5348 138.722 53.2002 138.252 52.9684 137.635C52.7367 137.018 52.6208 136.274 52.6208 135.405C52.6208 134.537 52.7367 133.796 52.9684 133.182C53.2028 132.567 53.5388 132.099 53.9763 131.776C54.4164 131.453 54.9424 131.291 55.5544 131.291C56.1664 131.291 56.6911 131.454 57.1286 131.78C57.5661 132.102 57.9007 132.571 58.1325 133.186C58.3669 133.798 58.4841 134.537 58.4841 135.405C58.4841 136.277 58.3682 137.022 58.1364 137.639C57.9046 138.253 57.57 138.724 57.1325 139.049C56.695 139.372 56.169 139.533 55.5544 139.533ZM55.5544 138.49C56.096 138.49 56.5192 138.226 56.8239 137.698C57.1312 137.169 57.2848 136.405 57.2848 135.405C57.2848 134.74 57.2145 134.179 57.0739 133.721C56.9359 133.26 56.7367 132.911 56.4763 132.674C56.2184 132.434 55.9111 132.315 55.5544 132.315C55.0153 132.315 54.5921 132.58 54.2848 133.112C53.9776 133.643 53.8226 134.407 53.82 135.405C53.82 136.071 53.889 136.635 54.027 137.096C54.1677 137.554 54.3669 137.902 54.6247 138.139C54.8825 138.373 55.1924 138.49 55.5544 138.49ZM59.9954 141.651V133.401H61.1361V134.373H61.2337C61.3014 134.248 61.3991 134.104 61.5267 133.94C61.6543 133.776 61.8314 133.632 62.0579 133.51C62.2845 133.385 62.584 133.323 62.9564 133.323C63.4407 133.323 63.873 133.445 64.2532 133.69C64.6335 133.934 64.9316 134.287 65.1478 134.748C65.3665 135.209 65.4759 135.764 65.4759 136.412C65.4759 137.061 65.3678 137.617 65.1517 138.08C64.9355 138.541 64.6387 138.897 64.2611 139.147C63.8835 139.394 63.4525 139.518 62.9681 139.518C62.6035 139.518 62.3053 139.457 62.0736 139.334C61.8444 139.212 61.6647 139.069 61.5345 138.905C61.4043 138.74 61.304 138.595 61.2337 138.467H61.1634V141.651H59.9954ZM61.14 136.401C61.14 136.823 61.2012 137.192 61.3236 137.51C61.446 137.828 61.623 138.076 61.8548 138.256C62.0866 138.433 62.3704 138.522 62.7064 138.522C63.0553 138.522 63.347 138.429 63.5814 138.244C63.8157 138.057 63.9928 137.803 64.1126 137.483C64.235 137.162 64.2962 136.802 64.2962 136.401C64.2962 136.005 64.2363 135.649 64.1165 135.334C63.9993 135.019 63.8223 134.77 63.5853 134.588C63.3509 134.406 63.0579 134.315 62.7064 134.315C62.3678 134.315 62.0814 134.402 61.847 134.576C61.6152 134.751 61.4394 134.994 61.3196 135.307C61.1999 135.619 61.14 135.984 61.14 136.401ZM67.58 133.401L68.9043 135.737L70.2402 133.401H71.5175L69.6464 136.401L71.5332 139.401H70.2558L68.9043 137.158L67.5566 139.401H66.2754L68.1425 136.401L66.2988 133.401H67.58Z" fill="white"/>
<path d="M82 110.401V160.401" stroke="#FF55B1"/>
<path d="M79 110.401H85" stroke="#FF55B1"/>
<path d="M79 160.401H85" stroke="#FF55B1"/>
<rect x="101.5" y="72.4006" width="33" height="20" rx="3.5" fill="#FF55B1"/>
<path d="M107.979 86.51C107.489 86.51 107.049 86.4163 106.658 86.2288C106.27 86.0387 105.96 85.7782 105.729 85.4475C105.497 85.1168 105.373 84.7392 105.357 84.3147H106.529C106.558 84.6584 106.71 84.941 106.986 85.1624C107.262 85.3837 107.593 85.4944 107.979 85.4944C108.286 85.4944 108.558 85.4241 108.795 85.2834C109.035 85.1402 109.222 84.9436 109.357 84.6936C109.495 84.4436 109.564 84.1584 109.564 83.8381C109.564 83.5126 109.494 83.2222 109.354 82.967C109.213 82.7118 109.019 82.5113 108.772 82.3655C108.527 82.2196 108.245 82.1454 107.928 82.1428C107.686 82.1428 107.442 82.1845 107.197 82.2678C106.953 82.3512 106.755 82.4605 106.604 82.5959L105.498 82.4319L105.947 78.4006H110.346V79.4358H106.951L106.697 81.6741H106.744C106.9 81.523 107.107 81.3967 107.365 81.2952C107.626 81.1936 107.904 81.1428 108.201 81.1428C108.688 81.1428 109.122 81.2587 109.502 81.4905C109.885 81.7222 110.186 82.0387 110.404 82.4397C110.626 82.8381 110.735 83.2965 110.732 83.8147C110.735 84.3329 110.618 84.7952 110.381 85.2014C110.147 85.6077 109.821 85.928 109.404 86.1624C108.99 86.3941 108.515 86.51 107.979 86.51ZM115.054 86.5334C114.437 86.5308 113.91 86.3681 113.472 86.0452C113.035 85.7222 112.7 85.2522 112.468 84.635C112.237 84.0178 112.121 83.2743 112.121 82.4045C112.121 81.5374 112.237 80.7965 112.468 80.1819C112.703 79.5673 113.039 79.0986 113.476 78.7756C113.916 78.4527 114.442 78.2913 115.054 78.2913C115.666 78.2913 116.191 78.454 116.629 78.7795C117.066 79.1025 117.401 79.5712 117.633 80.1858C117.867 80.7978 117.984 81.5374 117.984 82.4045C117.984 83.2769 117.868 84.0217 117.636 84.6389C117.405 85.2535 117.07 85.7236 116.633 86.0491C116.195 86.372 115.669 86.5334 115.054 86.5334ZM115.054 85.4905C115.596 85.4905 116.019 85.2262 116.324 84.6975C116.631 84.1689 116.785 83.4045 116.785 82.4045C116.785 81.7405 116.715 81.1793 116.574 80.7209C116.436 80.26 116.237 79.9111 115.976 79.6741C115.718 79.4345 115.411 79.3147 115.054 79.3147C114.515 79.3147 114.092 79.5803 113.785 80.1116C113.478 80.6428 113.323 81.4071 113.32 82.4045C113.32 83.0712 113.389 83.635 113.527 84.0959C113.668 84.5543 113.867 84.9019 114.125 85.1389C114.383 85.3733 114.692 85.4905 115.054 85.4905ZM119.495 88.6506V80.4006H120.636V81.3733H120.734C120.801 81.2483 120.899 81.1038 121.027 80.9397C121.154 80.7756 121.331 80.6324 121.558 80.51C121.784 80.385 122.084 80.3225 122.456 80.3225C122.941 80.3225 123.373 80.4449 123.753 80.6897C124.133 80.9345 124.432 81.2874 124.648 81.7483C124.867 82.2092 124.976 82.7639 124.976 83.4124C124.976 84.0608 124.868 84.6168 124.652 85.0803C124.436 85.5413 124.139 85.8967 123.761 86.1467C123.383 86.3941 122.952 86.5178 122.468 86.5178C122.104 86.5178 121.805 86.4566 121.574 86.3342C121.344 86.2118 121.165 86.0686 121.034 85.9045C120.904 85.7405 120.804 85.5946 120.734 85.467H120.663V88.6506H119.495ZM120.64 83.4006C120.64 83.8225 120.701 84.1923 120.824 84.51C120.946 84.8277 121.123 85.0764 121.355 85.2561C121.587 85.4332 121.87 85.5217 122.206 85.5217C122.555 85.5217 122.847 85.4293 123.081 85.2444C123.316 85.0569 123.493 84.803 123.613 84.4827C123.735 84.1624 123.796 83.8017 123.796 83.4006C123.796 83.0048 123.736 82.6493 123.617 82.3342C123.499 82.0191 123.322 81.7704 123.085 81.5881C122.851 81.4058 122.558 81.3147 122.206 81.3147C121.868 81.3147 121.581 81.4019 121.347 81.5764C121.115 81.7509 120.939 81.9944 120.82 82.3069C120.7 82.6194 120.64 82.984 120.64 83.4006ZM127.08 80.4006L128.404 82.7366L129.74 80.4006H131.018L129.146 83.4006L131.033 86.4006H129.756L128.404 84.1584L127.057 86.4006H125.775L127.643 83.4006L125.799 80.4006H127.08Z" fill="white"/>
<path d="M93 99.4006H143" stroke="#FF55B1"/>
<path d="M93 96.4006V102.401" stroke="#FF55B1"/>
<path d="M143 96.4006V102.401" stroke="#FF55B1"/>
<defs>
<clipPath id="clip0_3531_31206">
<rect width="50" height="50" fill="white" transform="translate(311 110.401)"/>
</clipPath>
<clipPath id="clip1_3531_31206">
<rect width="26" height="24" fill="white" transform="translate(311 110.401)"/>
</clipPath>
<clipPath id="clip2_3531_31206">
<rect width="24" height="24" fill="white" transform="translate(337 110.401)"/>
</clipPath>
<clipPath id="clip3_3531_31206">
<rect width="50" height="26" fill="white" transform="translate(311 134.401)"/>
</clipPath>
</defs>
</svg>
