<svg width="26" height="24" viewBox="0 0 26 24" fill="none" xmlns="http://www.w3.org/2000/svg">
<rect x="0.5" y="0.5" width="25" height="23" rx="3.5" stroke="#00A3FF"/>
<path d="M9.358 18V7.682H12.032C13.096 7.682 13.9967 7.878 14.734 8.27C15.4713 8.65267 16.0313 9.222 16.414 9.978C16.806 10.734 17.002 11.6767 17.002 12.806C17.002 13.926 16.806 14.8733 16.414 15.648C16.0313 16.4227 15.476 17.0107 14.748 17.412C14.02 17.804 13.1427 18 12.116 18H9.358ZM10.982 16.67H11.92C12.6573 16.67 13.278 16.5253 13.782 16.236C14.2953 15.9467 14.678 15.5173 14.93 14.948C15.1913 14.3693 15.322 13.6553 15.322 12.806C15.322 11.9473 15.1913 11.238 14.93 10.678C14.678 10.118 14.2953 9.70267 13.782 9.432C13.278 9.152 12.6573 9.012 11.92 9.012H10.982V16.67Z" fill="#00A3FF"/>
</svg>
