<svg width="30" height="24" viewBox="0 0 30 24" fill="none" xmlns="http://www.w3.org/2000/svg">
<rect x="0.5" y="0.5" width="29" height="23" rx="3.5" stroke="#00A3FF"/>
<path d="M11.038 13.268C11.374 13.5107 11.7333 13.828 12.116 14.22C12.4987 14.6027 12.8347 14.9947 13.124 15.396L12.102 15.97C11.794 15.5593 11.4347 15.1533 11.024 14.752C10.6227 14.3507 10.2027 13.9727 9.764 13.618C9.33467 13.2633 8.91 12.9507 8.49 12.68C8.91 12.4093 9.33467 12.0967 9.764 11.742C10.2027 11.3873 10.6227 11.0093 11.024 10.608C11.4347 10.2067 11.794 9.80067 12.102 9.39L13.124 9.964C12.8347 10.3653 12.4987 10.762 12.116 11.154C11.7333 11.5367 11.374 11.8493 11.038 12.092H21.44V13.268H11.038Z" fill="#00A3FF"/>
</svg>
