<svg width="74" height="24" viewBox="0 0 74 24" fill="none" xmlns="http://www.w3.org/2000/svg">
<rect width="74" height="24" rx="4" fill="#00BEAC"/>
<path d="M9.358 18V7.682H11.234L13.11 12.904C13.2313 13.24 13.348 13.5853 13.46 13.94C13.572 14.2853 13.684 14.6307 13.796 14.976H13.866C13.9873 14.6307 14.0993 14.2853 14.202 13.94C14.314 13.5853 14.426 13.24 14.538 12.904L16.386 7.682H18.276V18H16.764V12.904C16.764 12.596 16.7733 12.2553 16.792 11.882C16.82 11.5087 16.848 11.1307 16.876 10.748C16.9133 10.3653 16.9507 10.02 16.988 9.712H16.918L16.092 12.092L14.3 17.006H13.292L11.486 12.092L10.66 9.712H10.604C10.6413 10.02 10.674 10.3653 10.702 10.748C10.7393 11.1307 10.7673 11.5087 10.786 11.882C10.814 12.2553 10.828 12.596 10.828 12.904V18H9.358ZM20.9791 18V7.682H22.6031V16.614H26.9711V18H20.9791ZM32.4802 18.196C31.5655 18.196 30.7442 17.986 30.0162 17.566C29.2975 17.146 28.7282 16.5393 28.3082 15.746C27.8975 14.9527 27.6922 13.9913 27.6922 12.862C27.6922 12.022 27.8135 11.2707 28.0562 10.608C28.3082 9.94533 28.6489 9.38533 29.0782 8.928C29.5169 8.46133 30.0255 8.10667 30.6042 7.864C31.1922 7.62133 31.8315 7.5 32.5222 7.5C33.2502 7.5 33.8615 7.63533 34.3562 7.906C34.8602 8.17667 35.2662 8.47533 35.5742 8.802L34.7062 9.838C34.4449 9.586 34.1462 9.37133 33.8102 9.194C33.4742 9.00733 33.0589 8.914 32.5642 8.914C31.9295 8.914 31.3695 9.07267 30.8842 9.39C30.4082 9.70733 30.0349 10.1553 29.7642 10.734C29.5029 11.3127 29.3722 12.008 29.3722 12.82C29.3722 13.632 29.4982 14.3367 29.7502 14.934C30.0022 15.522 30.3709 15.9747 30.8562 16.292C31.3415 16.6093 31.9389 16.768 32.6482 16.768C32.9655 16.768 33.2642 16.726 33.5442 16.642C33.8335 16.5487 34.0669 16.4227 34.2442 16.264V13.856H32.2142V12.512H35.7282V16.978C35.3829 17.3233 34.9302 17.6127 34.3702 17.846C33.8102 18.0793 33.1802 18.196 32.4802 18.196ZM39.7626 18.196C39.3239 18.196 38.9319 18.1027 38.5866 17.916C38.2506 17.7293 37.9846 17.468 37.7886 17.132C37.5926 16.796 37.4946 16.404 37.4946 15.956C37.4946 15.1253 37.8586 14.486 38.5866 14.038C39.3239 13.5807 40.4953 13.2633 42.1006 13.086C42.0913 12.7873 42.0446 12.512 41.9606 12.26C41.8766 12.008 41.7273 11.8073 41.5126 11.658C41.3073 11.4993 41.0133 11.42 40.6306 11.42C40.2293 11.42 39.8419 11.4993 39.4686 11.658C39.0953 11.8167 38.7406 11.9987 38.4046 12.204L37.8026 11.112C38.0733 10.944 38.3719 10.7853 38.6986 10.636C39.0253 10.4773 39.3753 10.3513 39.7486 10.258C40.1219 10.1553 40.5093 10.104 40.9106 10.104C41.5546 10.104 42.0819 10.2347 42.4926 10.496C42.9033 10.748 43.2066 11.1167 43.4026 11.602C43.6079 12.0873 43.7106 12.6753 43.7106 13.366V18H42.3946L42.2686 17.118H42.2126C41.8673 17.4167 41.4893 17.6733 41.0786 17.888C40.6679 18.0933 40.2293 18.196 39.7626 18.196ZM40.2526 16.908C40.5886 16.908 40.9013 16.8333 41.1906 16.684C41.4799 16.5253 41.7833 16.2967 42.1006 15.998V14.122C41.3446 14.206 40.7426 14.332 40.2946 14.5C39.8466 14.6587 39.5246 14.85 39.3286 15.074C39.1419 15.2887 39.0486 15.5407 39.0486 15.83C39.0486 16.2127 39.1653 16.488 39.3986 16.656C39.6319 16.824 39.9166 16.908 40.2526 16.908ZM45.9953 18V10.286H47.3113L47.4513 11.378H47.4793C47.8153 11.0233 48.1747 10.7247 48.5573 10.482C48.9493 10.23 49.388 10.104 49.8733 10.104C50.4427 10.104 50.8953 10.23 51.2313 10.482C51.5673 10.7247 51.8193 11.07 51.9873 11.518C52.37 11.1073 52.762 10.7713 53.1633 10.51C53.574 10.2393 54.0173 10.104 54.4933 10.104C55.296 10.104 55.8887 10.37 56.2713 10.902C56.6633 11.4247 56.8593 12.176 56.8593 13.156V18H55.2353V13.352C55.2353 12.6893 55.1327 12.218 54.9273 11.938C54.722 11.6487 54.4 11.504 53.9613 11.504C53.7 11.504 53.4247 11.588 53.1353 11.756C52.8553 11.924 52.552 12.1853 52.2253 12.54V18H50.6153V13.352C50.6153 12.6893 50.5127 12.218 50.3073 11.938C50.102 11.6487 49.7753 11.504 49.3273 11.504C49.0753 11.504 48.8047 11.588 48.5153 11.756C48.226 11.924 47.9227 12.1853 47.6053 12.54V18H45.9953ZM62.4224 18.196C61.7224 18.196 61.0877 18.0373 60.5184 17.72C59.949 17.3933 59.4964 16.9313 59.1604 16.334C58.8244 15.7273 58.6564 14.9993 58.6564 14.15C58.6564 13.5247 58.7544 12.9647 58.9504 12.47C59.1464 11.966 59.4124 11.5413 59.7484 11.196C60.0844 10.8413 60.4624 10.5707 60.8824 10.384C61.3024 10.1973 61.7317 10.104 62.1704 10.104C62.8517 10.104 63.4257 10.258 63.8924 10.566C64.359 10.8647 64.7137 11.2893 64.9564 11.84C65.199 12.3813 65.3204 13.016 65.3204 13.744C65.3204 13.9027 65.311 14.0567 65.2924 14.206C65.283 14.346 65.2644 14.4673 65.2364 14.57H60.2384C60.285 15.0553 60.411 15.4753 60.6164 15.83C60.831 16.1753 61.1064 16.446 61.4424 16.642C61.7877 16.8287 62.1797 16.922 62.6184 16.922C62.9637 16.922 63.2857 16.8707 63.5844 16.768C63.883 16.6653 64.1724 16.5253 64.4524 16.348L65.0124 17.37C64.6577 17.6033 64.261 17.7993 63.8224 17.958C63.393 18.1167 62.9264 18.196 62.4224 18.196ZM60.2244 13.45H63.9204C63.9204 12.7967 63.771 12.288 63.4724 11.924C63.183 11.56 62.7584 11.378 62.1984 11.378C61.881 11.378 61.5824 11.4573 61.3024 11.616C61.0224 11.7747 60.7844 12.008 60.5884 12.316C60.4017 12.624 60.2804 13.002 60.2244 13.45Z" fill="white"/>
</svg>
