<svg width="52" height="25" viewBox="0 0 52 25" fill="none" xmlns="http://www.w3.org/2000/svg">
<rect x="0.5" y="0.689941" width="51" height="23" rx="3.5" stroke="#00A3FF"/>
<path d="M9.358 18.1899V7.87194H11.024L14.44 13.9339L15.518 16.1039H15.588C15.5413 15.5813 15.49 15.0213 15.434 14.4239C15.3873 13.8266 15.364 13.2479 15.364 12.6879V7.87194H16.918V18.1899H15.252L11.836 12.1139L10.758 9.95794H10.702C10.7393 10.4899 10.7813 11.0453 10.828 11.6239C10.8747 12.2026 10.898 12.7766 10.898 13.3459V18.1899H9.358ZM22.5933 18.3859C21.9586 18.3859 21.3613 18.2273 20.8013 17.9099C20.2506 17.5833 19.8026 17.1213 19.4573 16.5239C19.1213 15.9173 18.9533 15.1893 18.9533 14.3399C18.9533 13.4813 19.1213 12.7533 19.4573 12.1559C19.8026 11.5493 20.2506 11.0873 20.8013 10.7699C21.3613 10.4526 21.9586 10.2939 22.5933 10.2939C23.0599 10.2939 23.5126 10.3873 23.9513 10.5739C24.3899 10.7513 24.7773 11.0126 25.1133 11.3579C25.4493 11.7033 25.7153 12.1279 25.9113 12.6319C26.1073 13.1266 26.2053 13.6959 26.2053 14.3399C26.2053 15.1893 26.0326 15.9173 25.6873 16.5239C25.3513 17.1213 24.9079 17.5833 24.3573 17.9099C23.8159 18.2273 23.2279 18.3859 22.5933 18.3859ZM22.5933 17.0419C22.9946 17.0419 23.3399 16.9299 23.6293 16.7059C23.9279 16.4819 24.1566 16.1693 24.3153 15.7679C24.4739 15.3573 24.5533 14.8813 24.5533 14.3399C24.5533 13.7986 24.4739 13.3273 24.3153 12.9259C24.1566 12.5153 23.9279 12.1979 23.6293 11.9739C23.3399 11.7406 22.9946 11.6239 22.5933 11.6239C22.1826 11.6239 21.8279 11.7406 21.5293 11.9739C21.2399 12.1979 21.0159 12.5153 20.8573 12.9259C20.6986 13.3273 20.6193 13.7986 20.6193 14.3399C20.6193 14.8813 20.6986 15.3573 20.8573 15.7679C21.0159 16.1693 21.2399 16.4819 21.5293 16.7059C21.8279 16.9299 22.1826 17.0419 22.5933 17.0419ZM28.1125 18.1899V10.4759H29.4285L29.5685 11.5539H29.5965C29.9512 11.2086 30.3339 10.9146 30.7445 10.6719C31.1552 10.4199 31.6219 10.2939 32.1445 10.2939C32.9659 10.2939 33.5632 10.5599 33.9365 11.0919C34.3192 11.6146 34.5105 12.3659 34.5105 13.3459V18.1899H32.9005V13.5419C32.9005 12.8793 32.7979 12.4079 32.5925 12.1279C32.3872 11.8386 32.0559 11.6939 31.5985 11.6939C31.2439 11.6939 30.9265 11.7826 30.6465 11.9599C30.3759 12.1279 30.0679 12.3846 29.7225 12.7299V18.1899H28.1125ZM40.0689 18.3859C39.3689 18.3859 38.7342 18.2273 38.1649 17.9099C37.5955 17.5833 37.1429 17.1213 36.8069 16.5239C36.4709 15.9173 36.3029 15.1893 36.3029 14.3399C36.3029 13.7146 36.4009 13.1546 36.5969 12.6599C36.7929 12.1559 37.0589 11.7313 37.3949 11.3859C37.7309 11.0313 38.1089 10.7606 38.5289 10.5739C38.9489 10.3873 39.3782 10.2939 39.8169 10.2939C40.4982 10.2939 41.0722 10.4479 41.5389 10.7559C42.0055 11.0546 42.3602 11.4793 42.6029 12.0299C42.8455 12.5713 42.9669 13.2059 42.9669 13.9339C42.9669 14.0926 42.9575 14.2466 42.9389 14.3959C42.9295 14.5359 42.9109 14.6573 42.8829 14.7599H37.8849C37.9315 15.2453 38.0575 15.6653 38.2629 16.0199C38.4775 16.3653 38.7529 16.6359 39.0889 16.8319C39.4342 17.0186 39.8262 17.1119 40.2649 17.1119C40.6102 17.1119 40.9322 17.0606 41.2309 16.9579C41.5295 16.8553 41.8189 16.7153 42.0989 16.5379L42.6589 17.5599C42.3042 17.7933 41.9075 17.9893 41.4689 18.1479C41.0395 18.3066 40.5729 18.3859 40.0689 18.3859ZM37.8709 13.6399H41.5669C41.5669 12.9866 41.4175 12.4779 41.1189 12.1139C40.8295 11.7499 40.4049 11.5679 39.8449 11.5679C39.5275 11.5679 39.2289 11.6473 38.9489 11.8059C38.6689 11.9646 38.4309 12.1979 38.2349 12.5059C38.0482 12.8139 37.9269 13.1919 37.8709 13.6399Z" fill="#00A3FF"/>
</svg>
