<svg width="70" height="24" viewBox="0 0 70 24" fill="none" xmlns="http://www.w3.org/2000/svg">
<rect width="70" height="24" rx="4" fill="#00BEAC"/>
<path d="M9.218 21.122V10.286H10.534L10.674 11.14H10.702C11.0473 10.86 11.4207 10.6173 11.822 10.412C12.2233 10.2067 12.6433 10.104 13.082 10.104C13.726 10.104 14.2767 10.2673 14.734 10.594C15.1913 10.9207 15.5367 11.378 15.77 11.966C16.0033 12.5447 16.12 13.2307 16.12 14.024C16.12 14.9013 15.9613 15.6527 15.644 16.278C15.336 16.9033 14.93 17.3793 14.426 17.706C13.922 18.0327 13.3807 18.196 12.802 18.196C12.466 18.196 12.1253 18.1213 11.78 17.972C11.4347 17.8133 11.1033 17.594 10.786 17.314L10.828 18.63V21.122H9.218ZM12.494 16.838C12.8673 16.838 13.1987 16.7307 13.488 16.516C13.7867 16.3013 14.02 15.9887 14.188 15.578C14.3653 15.158 14.454 14.6493 14.454 14.052C14.454 13.5107 14.3887 13.0487 14.258 12.666C14.1367 12.274 13.9453 11.9753 13.684 11.77C13.4227 11.5553 13.0773 11.448 12.648 11.448C12.3493 11.448 12.0507 11.5273 11.752 11.686C11.4627 11.8353 11.1547 12.0687 10.828 12.386V16.152C11.1267 16.404 11.4207 16.5813 11.71 16.684C11.9993 16.7867 12.2607 16.838 12.494 16.838ZM18.2636 21.22C18.0583 21.22 17.8763 21.206 17.7176 21.178C17.5683 21.15 17.4236 21.1127 17.2836 21.066L17.5916 19.806C17.6663 19.8247 17.755 19.848 17.8576 19.876C17.9603 19.904 18.063 19.918 18.1656 19.918C18.5856 19.918 18.9216 19.778 19.1736 19.498C19.4256 19.2273 19.6216 18.8867 19.7616 18.476L19.9296 17.944L16.8776 10.286H18.5156L19.9296 14.262C20.051 14.6073 20.1676 14.9667 20.2796 15.34C20.401 15.704 20.5223 16.068 20.6436 16.432H20.7136C20.807 16.0773 20.905 15.7133 21.0076 15.34C21.1103 14.9667 21.213 14.6073 21.3156 14.262L22.5616 10.286H24.1156L21.2876 18.462C21.0916 19.0127 20.8583 19.4933 20.5876 19.904C20.3263 20.324 20.009 20.646 19.6356 20.87C19.2623 21.1033 18.805 21.22 18.2636 21.22ZM28.1609 21.458C27.5449 21.458 26.9942 21.3787 26.5089 21.22C26.0235 21.0707 25.6409 20.8467 25.3609 20.548C25.0902 20.2493 24.9549 19.876 24.9549 19.428C24.9549 19.1013 25.0529 18.7933 25.2489 18.504C25.4449 18.2147 25.7202 17.9627 26.0749 17.748V17.692C25.8789 17.5613 25.7109 17.3933 25.5709 17.188C25.4402 16.9733 25.3749 16.712 25.3749 16.404C25.3749 16.096 25.4635 15.8207 25.6409 15.578C25.8275 15.326 26.0282 15.1253 26.2429 14.976V14.92C25.9722 14.7147 25.7342 14.4347 25.5289 14.08C25.3235 13.7253 25.2209 13.3193 25.2209 12.862C25.2209 12.2833 25.3562 11.7887 25.6269 11.378C25.9069 10.958 26.2709 10.6407 26.7189 10.426C27.1762 10.2113 27.6709 10.104 28.2029 10.104C28.4269 10.104 28.6322 10.1227 28.8189 10.16C29.0149 10.188 29.1829 10.23 29.3229 10.286H32.0529V11.504H30.5969C30.7369 11.6627 30.8535 11.8633 30.9469 12.106C31.0402 12.3487 31.0869 12.6147 31.0869 12.904C31.0869 13.464 30.9562 13.9447 30.6949 14.346C30.4429 14.738 30.0975 15.0413 29.6589 15.256C29.2202 15.4613 28.7349 15.564 28.2029 15.564C28.0349 15.564 27.8529 15.5453 27.6569 15.508C27.4702 15.4613 27.2929 15.4053 27.1249 15.34C27.0035 15.4427 26.9009 15.5547 26.8169 15.676C26.7422 15.7973 26.7049 15.9513 26.7049 16.138C26.7049 16.362 26.7935 16.544 26.9709 16.684C27.1575 16.824 27.4982 16.894 27.9929 16.894H29.4209C30.3262 16.894 31.0122 17.0433 31.4789 17.342C31.9455 17.6313 32.1789 18.1027 32.1789 18.756C32.1789 19.2507 32.0155 19.7033 31.6889 20.114C31.3622 20.5247 30.8955 20.8513 30.2889 21.094C29.6915 21.3367 28.9822 21.458 28.1609 21.458ZM28.2029 14.514C28.4642 14.514 28.7069 14.4487 28.9309 14.318C29.1549 14.1873 29.3322 14.0007 29.4629 13.758C29.5935 13.506 29.6589 13.2073 29.6589 12.862C29.6589 12.5167 29.5935 12.2273 29.4629 11.994C29.3322 11.7513 29.1549 11.5647 28.9309 11.434C28.7162 11.3033 28.4735 11.238 28.2029 11.238C27.9322 11.238 27.6849 11.3033 27.4609 11.434C27.2462 11.5647 27.0735 11.7513 26.9429 11.994C26.8122 12.2273 26.7469 12.5167 26.7469 12.862C26.7469 13.2073 26.8122 13.506 26.9429 13.758C27.0829 14.0007 27.2602 14.1873 27.4749 14.318C27.6989 14.4487 27.9415 14.514 28.2029 14.514ZM28.3849 20.394C28.8422 20.394 29.2342 20.3287 29.5609 20.198C29.8875 20.0673 30.1442 19.8947 30.3309 19.68C30.5175 19.4747 30.6109 19.2553 30.6109 19.022C30.6109 18.6953 30.4895 18.4713 30.2469 18.35C30.0042 18.238 29.6495 18.182 29.1829 18.182H28.0209C27.8342 18.182 27.6569 18.1727 27.4889 18.154C27.3209 18.1353 27.1529 18.1073 26.9849 18.07C26.7609 18.238 26.5975 18.42 26.4949 18.616C26.3922 18.812 26.3409 19.0033 26.3409 19.19C26.3409 19.5633 26.5229 19.8573 26.8869 20.072C27.2509 20.2867 27.7502 20.394 28.3849 20.394ZM35.1005 18.196C34.6618 18.196 34.2698 18.1027 33.9245 17.916C33.5885 17.7293 33.3225 17.468 33.1265 17.132C32.9305 16.796 32.8325 16.404 32.8325 15.956C32.8325 15.1253 33.1965 14.486 33.9245 14.038C34.6618 13.5807 35.8332 13.2633 37.4385 13.086C37.4292 12.7873 37.3825 12.512 37.2985 12.26C37.2145 12.008 37.0652 11.8073 36.8505 11.658C36.6452 11.4993 36.3512 11.42 35.9685 11.42C35.5672 11.42 35.1798 11.4993 34.8065 11.658C34.4332 11.8167 34.0785 11.9987 33.7425 12.204L33.1405 11.112C33.4112 10.944 33.7098 10.7853 34.0365 10.636C34.3632 10.4773 34.7132 10.3513 35.0865 10.258C35.4598 10.1553 35.8472 10.104 36.2485 10.104C36.8925 10.104 37.4198 10.2347 37.8305 10.496C38.2412 10.748 38.5445 11.1167 38.7405 11.602C38.9458 12.0873 39.0485 12.6753 39.0485 13.366V18H37.7325L37.6065 17.118H37.5505C37.2052 17.4167 36.8272 17.6733 36.4165 17.888C36.0058 18.0933 35.5672 18.196 35.1005 18.196ZM35.5905 16.908C35.9265 16.908 36.2392 16.8333 36.5285 16.684C36.8178 16.5253 37.1212 16.2967 37.4385 15.998V14.122C36.6825 14.206 36.0805 14.332 35.6325 14.5C35.1845 14.6587 34.8625 14.85 34.6665 15.074C34.4798 15.2887 34.3865 15.5407 34.3865 15.83C34.3865 16.2127 34.5032 16.488 34.7365 16.656C34.9698 16.824 35.2545 16.908 35.5905 16.908ZM41.3332 18V10.286H42.6492L42.7892 11.378H42.8172C43.1532 11.0233 43.5126 10.7247 43.8952 10.482C44.2872 10.23 44.7259 10.104 45.2112 10.104C45.7806 10.104 46.2332 10.23 46.5692 10.482C46.9052 10.7247 47.1572 11.07 47.3252 11.518C47.7079 11.1073 48.0999 10.7713 48.5012 10.51C48.9119 10.2393 49.3552 10.104 49.8312 10.104C50.6339 10.104 51.2266 10.37 51.6092 10.902C52.0012 11.4247 52.1972 12.176 52.1972 13.156V18H50.5732V13.352C50.5732 12.6893 50.4706 12.218 50.2652 11.938C50.0599 11.6487 49.7379 11.504 49.2992 11.504C49.0379 11.504 48.7626 11.588 48.4732 11.756C48.1932 11.924 47.8899 12.1853 47.5632 12.54V18H45.9532V13.352C45.9532 12.6893 45.8506 12.218 45.6452 11.938C45.4399 11.6487 45.1132 11.504 44.6652 11.504C44.4132 11.504 44.1426 11.588 43.8532 11.756C43.5639 11.924 43.2606 12.1853 42.9432 12.54V18H41.3332ZM57.7603 18.196C57.0603 18.196 56.4256 18.0373 55.8563 17.72C55.2869 17.3933 54.8343 16.9313 54.4983 16.334C54.1623 15.7273 53.9943 14.9993 53.9943 14.15C53.9943 13.5247 54.0923 12.9647 54.2883 12.47C54.4843 11.966 54.7503 11.5413 55.0863 11.196C55.4223 10.8413 55.8003 10.5707 56.2203 10.384C56.6403 10.1973 57.0696 10.104 57.5083 10.104C58.1896 10.104 58.7636 10.258 59.2303 10.566C59.6969 10.8647 60.0516 11.2893 60.2943 11.84C60.5369 12.3813 60.6583 13.016 60.6583 13.744C60.6583 13.9027 60.6489 14.0567 60.6303 14.206C60.6209 14.346 60.6023 14.4673 60.5743 14.57H55.5763C55.6229 15.0553 55.7489 15.4753 55.9543 15.83C56.1689 16.1753 56.4443 16.446 56.7803 16.642C57.1256 16.8287 57.5176 16.922 57.9563 16.922C58.3016 16.922 58.6236 16.8707 58.9223 16.768C59.2209 16.6653 59.5103 16.5253 59.7903 16.348L60.3503 17.37C59.9956 17.6033 59.5989 17.7993 59.1603 17.958C58.7309 18.1167 58.2643 18.196 57.7603 18.196ZM55.5623 13.45H59.2583C59.2583 12.7967 59.1089 12.288 58.8103 11.924C58.5209 11.56 58.0963 11.378 57.5363 11.378C57.2189 11.378 56.9203 11.4573 56.6403 11.616C56.3603 11.7747 56.1223 12.008 55.9263 12.316C55.7396 12.624 55.6183 13.002 55.5623 13.45Z" fill="white"/>
</svg>
