<svg width="30" height="24" viewBox="0 0 30 24" fill="none" xmlns="http://www.w3.org/2000/svg">
<rect x="0.5" y="0.5" width="29" height="23" rx="3.5" stroke="#00A3FF"/>
<path d="M18.668 20.688C17.5293 20.688 16.5913 20.4453 15.854 19.96C15.1167 19.4747 14.566 18.8633 14.202 18.126C13.362 18.0047 12.62 17.7153 11.976 17.258C11.332 16.7913 10.8327 16.18 10.478 15.424C10.1233 14.6587 9.946 13.7813 9.946 12.792C9.946 11.6813 10.1607 10.734 10.59 9.95C11.0193 9.15667 11.612 8.55 12.368 8.13C13.124 7.70067 13.992 7.486 14.972 7.486C15.9613 7.486 16.834 7.70067 17.59 8.13C18.346 8.55 18.9387 9.15667 19.368 9.95C19.8067 10.734 20.026 11.6813 20.026 12.792C20.026 13.7627 19.8533 14.6213 19.508 15.368C19.172 16.1053 18.696 16.7073 18.08 17.174C17.4733 17.6313 16.7687 17.93 15.966 18.07C16.1433 18.35 16.3813 18.5833 16.68 18.77C16.9787 18.966 17.3147 19.1107 17.688 19.204C18.0707 19.2973 18.4673 19.344 18.878 19.344C19.1487 19.344 19.3867 19.3207 19.592 19.274C19.8067 19.2367 19.998 19.19 20.166 19.134L20.474 20.366C20.2873 20.45 20.0353 20.5247 19.718 20.59C19.41 20.6553 19.06 20.688 18.668 20.688ZM14.972 16.838C15.6533 16.838 16.246 16.6747 16.75 16.348C17.254 16.0213 17.646 15.5547 17.926 14.948C18.2153 14.3413 18.36 13.6227 18.36 12.792C18.36 11.9893 18.2153 11.2987 17.926 10.72C17.646 10.132 17.254 9.684 16.75 9.376C16.246 9.05867 15.6533 8.9 14.972 8.9C14.3 8.9 13.712 9.05867 13.208 9.376C12.704 9.69333 12.312 10.1413 12.032 10.72C11.752 11.2987 11.612 11.9893 11.612 12.792C11.612 13.6227 11.752 14.3413 12.032 14.948C12.312 15.5547 12.704 16.0213 13.208 16.348C13.712 16.6747 14.3 16.838 14.972 16.838Z" fill="#00A3FF"/>
</svg>
