<svg width="30" height="24" viewBox="0 0 30 24" fill="none" xmlns="http://www.w3.org/2000/svg">
<rect x="0.5" y="0.5" width="29" height="23" rx="3.5" stroke="#00A3FF"/>
<path d="M18.962 12.092C18.626 11.8493 18.2667 11.5367 17.884 11.154C17.5013 10.762 17.1653 10.3653 16.876 9.964L17.898 9.39C18.2153 9.80067 18.5747 10.2067 18.976 10.608C19.3773 11.0093 19.7927 11.3873 20.222 11.742C20.6607 12.0967 21.09 12.4093 21.51 12.68C21.09 12.9507 20.6607 13.2633 20.222 13.618C19.7927 13.9727 19.3773 14.3507 18.976 14.752C18.5747 15.1533 18.2153 15.5593 17.898 15.97L16.876 15.396C17.1653 14.9947 17.5013 14.6027 17.884 14.22C18.2667 13.828 18.626 13.5107 18.962 13.268H8.56V12.092H18.962Z" fill="#00A3FF"/>
</svg>
