<svg width="30" height="25" viewBox="0 0 30 25" fill="none" xmlns="http://www.w3.org/2000/svg">
<rect x="0.5" y="1.30005" width="29" height="23" rx="3.5" stroke="#00A3FF"/>
<path d="M14.412 9.51805C14.1693 9.85405 13.852 10.2134 13.46 10.596C13.0773 10.9787 12.6853 11.3147 12.284 11.604L11.71 10.582C12.1207 10.2647 12.5267 9.90538 12.928 9.50405C13.3293 9.10272 13.7073 8.68738 14.062 8.25805C14.4167 7.81938 14.7293 7.39005 15 6.97005C15.2707 7.39005 15.5833 7.81938 15.938 8.25805C16.2927 8.68738 16.6707 9.10272 17.072 9.50405C17.4733 9.90538 17.8793 10.2647 18.29 10.582L17.716 11.604C17.3147 11.3147 16.918 10.9787 16.526 10.596C16.1433 10.2134 15.8307 9.85405 15.588 9.51805V19.92H14.412V9.51805Z" fill="#00A3FF"/>
</svg>
