<svg width="27" height="25" viewBox="0 0 27 25" fill="none" xmlns="http://www.w3.org/2000/svg">
<rect x="0.5" y="0.899902" width="26" height="23" rx="3.5" stroke="#00A3FF"/>
<path d="M13.138 18.5959C12.5687 18.5959 12.046 18.5119 11.57 18.3439C11.1033 18.1759 10.702 17.9099 10.366 17.5459C10.03 17.1819 9.76867 16.7059 9.582 16.1179C9.39533 15.5299 9.302 14.8159 9.302 13.9759V8.0819H10.926V14.0739C10.926 14.8486 11.0193 15.4646 11.206 15.9219C11.402 16.3699 11.6633 16.6919 11.99 16.8879C12.326 17.0746 12.7087 17.1679 13.138 17.1679C13.5767 17.1679 13.964 17.0746 14.3 16.8879C14.636 16.6919 14.902 16.3699 15.098 15.9219C15.294 15.4646 15.392 14.8486 15.392 14.0739V8.0819H16.96V13.9759C16.96 14.8159 16.8667 15.5299 16.68 16.1179C16.5027 16.7059 16.246 17.1819 15.91 17.5459C15.574 17.9099 15.168 18.1759 14.692 18.3439C14.2253 18.5119 13.7073 18.5959 13.138 18.5959Z" fill="#00A3FF"/>
</svg>
