<svg width="29" height="25" viewBox="0 0 29 25" fill="none" xmlns="http://www.w3.org/2000/svg">
<rect x="0.5" y="1.30005" width="28" height="23" rx="3.5" stroke="#00A3FF"/>
<path d="M10.408 18.8L8.322 8.48205H9.988L10.954 13.844C11.0473 14.3947 11.1407 14.9454 11.234 15.496C11.3273 16.0467 11.4207 16.602 11.514 17.162H11.57C11.682 16.602 11.794 16.0467 11.906 15.496C12.0273 14.9454 12.1487 14.3947 12.27 13.844L13.586 8.48205H15.028L16.358 13.844C16.4793 14.3854 16.596 14.936 16.708 15.496C16.82 16.0467 16.9367 16.602 17.058 17.162H17.128C17.2213 16.602 17.31 16.0467 17.394 15.496C17.478 14.9454 17.562 14.3947 17.646 13.844L18.626 8.48205H20.18L18.15 18.8H16.148L14.762 13.074C14.678 12.6634 14.594 12.2667 14.51 11.884C14.4353 11.492 14.3607 11.1 14.286 10.708H14.23C14.1553 11.1 14.076 11.492 13.992 11.884C13.908 12.2667 13.824 12.6634 13.74 13.074L12.382 18.8H10.408Z" fill="#00A3FF"/>
</svg>
